<?xml version="1.0" encoding="us-ascii" standalone="no"?><svg xmlns="http://www.w3.org/2000/svg" xmlns:xlink="http://www.w3.org/1999/xlink" contentStyleType="text/css" height="1240px" preserveAspectRatio="none" style="width:1895px;height:1240px;background:#FFFFFF;" version="1.1" viewBox="0 0 1895 1240" width="1895px" zoomAndPan="magnify"><defs/><g><rect fill="#EEEEFF" height="1120.1094" style="stroke:#181818;stroke-width:0.5;" width="763" x="162" y="65.2031"/><text fill="#000000" font-family="sans-serif" font-size="13" font-weight="bold" lengthAdjust="spacing" textLength="5" x="501.5" y="77.27">&#160;</text><text fill="#000000" font-family="sans-serif" font-size="13" font-weight="bold" lengthAdjust="spacing" textLength="84" x="501.5" y="92.4028">Application</text><rect fill="#EEFFFF" height="1120.1094" style="stroke:#181818;stroke-width:0.5;" width="68" x="927" y="65.2031"/><text fill="#000000" font-family="sans-serif" font-size="13" font-weight="bold" lengthAdjust="spacing" textLength="5" x="937" y="77.27">&#160;</text><text fill="#000000" font-family="sans-serif" font-size="13" font-weight="bold" lengthAdjust="spacing" textLength="48" x="937" y="92.4028">Wallet</text><rect fill="#FFFFEE" height="1120.1094" style="stroke:#181818;stroke-width:0.5;" width="138" x="1492" y="65.2031"/><text fill="#000000" font-family="sans-serif" font-size="13" font-weight="bold" lengthAdjust="spacing" textLength="5" x="1533" y="77.27">&#160;</text><text fill="#000000" font-family="sans-serif" font-size="13" font-weight="bold" lengthAdjust="spacing" textLength="56" x="1533" y="92.4028">Indexer</text><rect fill="#FFEEEE" height="1120.1094" style="stroke:#181818;stroke-width:0.5;" width="112" x="1632" y="65.2031"/><text fill="#000000" font-family="sans-serif" font-size="13" font-weight="bold" lengthAdjust="spacing" textLength="5" x="1639" y="77.27">&#160;</text><text fill="#000000" font-family="sans-serif" font-size="13" font-weight="bold" lengthAdjust="spacing" textLength="98" x="1639" y="92.4028">Proof Server</text><rect fill="#FFFFFF" height="964.1172" style="stroke:#181818;stroke-width:1.0;" width="10" x="206" y="209.1953"/><rect fill="#FFFFFF" height="29.1328" style="stroke:#181818;stroke-width:1.0;" width="10" x="766" y="378.9922"/><rect fill="#FFFFFF" height="29.1328" style="stroke:#181818;stroke-width:1.0;" width="10" x="865.5" y="320.7266"/><rect fill="#FFFFFF" height="29.1328" style="stroke:#181818;stroke-width:1.0;" width="10" x="865.5" y="437.2578"/><rect fill="#FFFFFF" height="202.7969" style="stroke:#181818;stroke-width:1.0;" width="10" x="956" y="687.3203"/><rect fill="#FFFFFF" height="29.1328" style="stroke:#181818;stroke-width:1.0;" width="10" x="1556" y="262.4609"/><rect fill="#FFFFFF" height="29.1328" style="stroke:#181818;stroke-width:1.0;" width="10" x="1556" y="1115.0469"/><rect fill="#FFFFFF" height="29.1328" style="stroke:#181818;stroke-width:1.0;" width="10" x="1683" y="526.6563"/><rect fill="#FFFFFF" height="29.1328" style="stroke:#181818;stroke-width:1.0;" width="10" x="1683" y="782.7188"/><rect fill="#FFFFFF" height="29.1328" style="stroke:#181818;stroke-width:1.0;" width="10" x="1804" y="919.25"/><rect fill="none" height="250.1953" style="stroke:#000000;stroke-width:1.5;" width="1480" x="156" y="224.1953"/><rect fill="none" height="75.3984" style="stroke:#000000;stroke-width:1.5;" width="1594" x="156" y="488.3906"/><rect fill="none" height="349.4609" style="stroke:#000000;stroke-width:1.5;" width="1722" x="156" y="606.9219"/><rect fill="none" height="117.5313" style="stroke:#000000;stroke-width:1.5;" width="829" x="921" y="744.4531"/><line style="stroke:#181818;stroke-width:0.5;stroke-dasharray:5.0,5.0;" x1="23" x2="23" y1="178.0625" y2="1191.3125"/><line style="stroke:#181818;stroke-width:0.5;stroke-dasharray:5.0,5.0;" x1="211" x2="211" y1="178.0625" y2="1191.3125"/><line style="stroke:#181818;stroke-width:0.5;stroke-dasharray:5.0,5.0;" x1="771" x2="771" y1="178.0625" y2="1191.3125"/><line style="stroke:#181818;stroke-width:0.5;stroke-dasharray:5.0,5.0;" x1="870" x2="870" y1="178.0625" y2="1191.3125"/><line style="stroke:#181818;stroke-width:0.5;stroke-dasharray:5.0,5.0;" x1="961" x2="961" y1="178.0625" y2="1191.3125"/><line style="stroke:#181818;stroke-width:0.5;stroke-dasharray:5.0,5.0;" x1="1561" x2="1561" y1="178.0625" y2="1191.3125"/><line style="stroke:#181818;stroke-width:0.5;stroke-dasharray:5.0,5.0;" x1="1688" x2="1688" y1="178.0625" y2="1191.3125"/><line style="stroke:#181818;stroke-width:0.5;stroke-dasharray:5.0,5.0;" x1="1809" x2="1809" y1="178.0625" y2="1191.3125"/><text fill="#000000" font-family="sans-serif" font-size="14" lengthAdjust="spacing" textLength="30" x="5" y="174.7607">user</text><ellipse cx="23" cy="110.2656" fill="#E2E2F0" rx="8" ry="8" style="stroke:#181818;stroke-width:0.5;"/><path d="M23,118.2656 L23,145.2656 M10,126.2656 L36,126.2656 M23,145.2656 L10,160.2656 M23,145.2656 L36,160.2656 " fill="none" style="stroke:#181818;stroke-width:0.5;"/><rect fill="#E2E2F0" height="46.5938" rx="2.5" ry="2.5" style="stroke:#181818;stroke-width:0.5;" width="90" x="166" y="130.4688"/><text fill="#000000" font-family="sans-serif" font-size="14" lengthAdjust="spacing" textLength="4" x="209" y="150.4639">&#160;</text><text fill="#000000" font-family="sans-serif" font-size="14" lengthAdjust="spacing" textLength="76" x="173" y="166.7607">MidnightJS</text><rect fill="#E2E2F0" height="46.5938" rx="2.5" ry="2.5" style="stroke:#181818;stroke-width:0.5;" width="78" x="732" y="130.4688"/><text fill="#000000" font-family="sans-serif" font-size="14" lengthAdjust="spacing" textLength="4" x="769" y="150.4639">&#160;</text><text fill="#000000" font-family="sans-serif" font-size="14" lengthAdjust="spacing" textLength="64" x="739" y="166.7607">Contract</text><text fill="#000000" font-family="sans-serif" font-size="14" lengthAdjust="spacing" textLength="4" x="865.5" y="158.4639">&#160;</text><text fill="#000000" font-family="sans-serif" font-size="14" lengthAdjust="spacing" textLength="95" x="820" y="174.7607">Private State</text><path d="M852.5,109.4688 C852.5,99.4688 870.5,99.4688 870.5,99.4688 C870.5,99.4688 888.5,99.4688 888.5,109.4688 L888.5,135.4688 C888.5,145.4688 870.5,145.4688 870.5,145.4688 C870.5,145.4688 852.5,145.4688 852.5,135.4688 L852.5,109.4688 " fill="#E2E2F0" style="stroke:#181818;stroke-width:1.5;"/><path d="M852.5,109.4688 C852.5,119.4688 870.5,119.4688 870.5,119.4688 C870.5,119.4688 888.5,119.4688 888.5,109.4688 " fill="none" style="stroke:#181818;stroke-width:1.5;"/><rect fill="#E2E2F0" height="30.2969" rx="2.5" ry="2.5" style="stroke:#181818;stroke-width:0.5;" width="60" x="931" y="146.7656"/><text fill="#000000" font-family="sans-serif" font-size="14" lengthAdjust="spacing" textLength="46" x="938" y="166.7607">Wallet</text><rect fill="#E2E2F0" height="30.2969" rx="2.5" ry="2.5" style="stroke:#181818;stroke-width:0.5;" width="130" x="1496" y="146.7656"/><text fill="#000000" font-family="sans-serif" font-size="14" lengthAdjust="spacing" textLength="116" x="1503" y="166.7607">Pub Sub Indexer</text><rect fill="#E2E2F0" height="30.2969" rx="2.5" ry="2.5" style="stroke:#181818;stroke-width:0.5;" width="104" x="1636" y="146.7656"/><text fill="#000000" font-family="sans-serif" font-size="14" lengthAdjust="spacing" textLength="90" x="1643" y="166.7607">Proof Server</text><rect fill="#E2E2F0" height="30.2969" rx="2.5" ry="2.5" style="stroke:#181818;stroke-width:0.5;" width="118" x="1750" y="146.7656"/><text fill="#000000" font-family="sans-serif" font-size="14" lengthAdjust="spacing" textLength="104" x="1757" y="166.7607">Midnight Node</text><rect fill="#FFFFFF" height="964.1172" style="stroke:#181818;stroke-width:1.0;" width="10" x="206" y="209.1953"/><rect fill="#FFFFFF" height="29.1328" style="stroke:#181818;stroke-width:1.0;" width="10" x="766" y="378.9922"/><rect fill="#FFFFFF" height="29.1328" style="stroke:#181818;stroke-width:1.0;" width="10" x="865.5" y="320.7266"/><rect fill="#FFFFFF" height="29.1328" style="stroke:#181818;stroke-width:1.0;" width="10" x="865.5" y="437.2578"/><rect fill="#FFFFFF" height="202.7969" style="stroke:#181818;stroke-width:1.0;" width="10" x="956" y="687.3203"/><rect fill="#FFFFFF" height="29.1328" style="stroke:#181818;stroke-width:1.0;" width="10" x="1556" y="262.4609"/><rect fill="#FFFFFF" height="29.1328" style="stroke:#181818;stroke-width:1.0;" width="10" x="1556" y="1115.0469"/><rect fill="#FFFFFF" height="29.1328" style="stroke:#181818;stroke-width:1.0;" width="10" x="1683" y="526.6563"/><rect fill="#FFFFFF" height="29.1328" style="stroke:#181818;stroke-width:1.0;" width="10" x="1683" y="782.7188"/><rect fill="#FFFFFF" height="29.1328" style="stroke:#181818;stroke-width:1.0;" width="10" x="1804" y="919.25"/><polygon fill="#181818" points="194,205.1953,204,209.1953,194,213.1953,198,209.1953" style="stroke:#181818;stroke-width:1.0;"/><line style="stroke:#181818;stroke-width:1.0;" x1="23" x2="200" y1="209.1953" y2="209.1953"/><text fill="#000000" font-family="sans-serif" font-size="13" font-weight="bold" lengthAdjust="spacing" textLength="9" x="30" y="204.1294">1</text><text fill="#000000" font-family="sans-serif" font-size="13" lengthAdjust="spacing" textLength="39" x="43" y="204.1294">action</text><path d="M156,224.1953 L387,224.1953 L387,231.3281 L377,241.3281 L156,241.3281 L156,224.1953 " fill="#EEEEEE" style="stroke:#000000;stroke-width:1.5;"/><rect fill="none" height="250.1953" style="stroke:#000000;stroke-width:1.5;" width="1480" x="156" y="224.1953"/><text fill="#000000" font-family="sans-serif" font-size="13" font-weight="bold" lengthAdjust="spacing" textLength="186" x="171" y="237.2622">compute a state update</text><polygon fill="#181818" points="1544,258.4609,1554,262.4609,1544,266.4609,1548,262.4609" style="stroke:#181818;stroke-width:1.0;"/><line style="stroke:#181818;stroke-width:1.0;" x1="216" x2="1550" y1="262.4609" y2="262.4609"/><text fill="#000000" font-family="sans-serif" font-size="13" font-weight="bold" lengthAdjust="spacing" textLength="9" x="223" y="257.395">2</text><text fill="#000000" font-family="sans-serif" font-size="13" font-weight="bold" lengthAdjust="spacing" textLength="113" x="236" y="257.395">getPublicState</text><text fill="#000000" font-family="sans-serif" font-size="13" lengthAdjust="spacing" textLength="153" x="353" y="257.395">(blockNumber, address)</text><polygon fill="#181818" points="227,287.5938,217,291.5938,227,295.5938,223,291.5938" style="stroke:#181818;stroke-width:1.0;"/><line style="stroke:#181818;stroke-width:1.0;stroke-dasharray:2.0,2.0;" x1="221" x2="1560" y1="291.5938" y2="291.5938"/><text fill="#000000" font-family="sans-serif" font-size="13" font-weight="bold" lengthAdjust="spacing" textLength="8" x="233" y="286.5278">3</text><text fill="#000000" font-family="sans-serif" font-size="13" font-style="italic" lengthAdjust="spacing" textLength="73" x="245" y="286.5278">publicState</text><polygon fill="#181818" points="853.5,316.7266,863.5,320.7266,853.5,324.7266,857.5,320.7266" style="stroke:#181818;stroke-width:1.0;"/><line style="stroke:#181818;stroke-width:1.0;" x1="216" x2="859.5" y1="320.7266" y2="320.7266"/><text fill="#000000" font-family="sans-serif" font-size="13" font-weight="bold" lengthAdjust="spacing" textLength="9" x="223" y="315.6606">4</text><text fill="#000000" font-family="sans-serif" font-size="13" font-weight="bold" lengthAdjust="spacing" textLength="124" x="236" y="315.6606">getPrivateState</text><text fill="#000000" font-family="sans-serif" font-size="13" lengthAdjust="spacing" textLength="61" x="364" y="315.6606">(address)</text><polygon fill="#181818" points="227,345.8594,217,349.8594,227,353.8594,223,349.8594" style="stroke:#181818;stroke-width:1.0;"/><line style="stroke:#181818;stroke-width:1.0;stroke-dasharray:2.0,2.0;" x1="221" x2="869.5" y1="349.8594" y2="349.8594"/><text fill="#000000" font-family="sans-serif" font-size="13" font-weight="bold" lengthAdjust="spacing" textLength="9" x="233" y="344.7935">5</text><text fill="#000000" font-family="sans-serif" font-size="13" font-style="italic" lengthAdjust="spacing" textLength="80" x="246" y="344.7935">privateState</text><polygon fill="#181818" points="754,374.9922,764,378.9922,754,382.9922,758,378.9922" style="stroke:#181818;stroke-width:1.0;"/><line style="stroke:#181818;stroke-width:1.0;" x1="216" x2="760" y1="378.9922" y2="378.9922"/><text fill="#000000" font-family="sans-serif" font-size="13" font-weight="bold" lengthAdjust="spacing" textLength="9" x="223" y="373.9263">6</text><text fill="#000000" font-family="sans-serif" font-size="13" font-weight="bold" lengthAdjust="spacing" textLength="53" x="236" y="373.9263">update</text><text fill="#000000" font-family="sans-serif" font-size="13" lengthAdjust="spacing" textLength="204" x="293" y="373.9263">(args, publicState, privateState)</text><polygon fill="#181818" points="227,404.125,217,408.125,227,412.125,223,408.125" style="stroke:#181818;stroke-width:1.0;"/><line style="stroke:#181818;stroke-width:1.0;stroke-dasharray:2.0,2.0;" x1="221" x2="770" y1="408.125" y2="408.125"/><text fill="#000000" font-family="sans-serif" font-size="13" font-weight="bold" lengthAdjust="spacing" textLength="9" x="233" y="403.0591">7</text><text fill="#000000" font-family="sans-serif" font-size="13" font-style="italic" lengthAdjust="spacing" textLength="408" x="246" y="403.0591">returnVal, privateTranscript, publicTranscript, nextPrivateState</text><polygon fill="#181818" points="853.5,433.2578,863.5,437.2578,853.5,441.2578,857.5,437.2578" style="stroke:#181818;stroke-width:1.0;"/><line style="stroke:#181818;stroke-width:1.0;" x1="216" x2="859.5" y1="437.2578" y2="437.2578"/><text fill="#000000" font-family="sans-serif" font-size="13" font-weight="bold" lengthAdjust="spacing" textLength="9" x="223" y="432.1919">8</text><text fill="#000000" font-family="sans-serif" font-size="13" font-weight="bold" lengthAdjust="spacing" textLength="25" x="236" y="432.1919">set</text><text fill="#000000" font-family="sans-serif" font-size="13" lengthAdjust="spacing" textLength="118" x="265" y="432.1919">(nextPrivateState)</text><polygon fill="#181818" points="227,462.3906,217,466.3906,227,470.3906,223,466.3906" style="stroke:#181818;stroke-width:1.0;"/><line style="stroke:#181818;stroke-width:1.0;stroke-dasharray:2.0,2.0;" x1="221" x2="869.5" y1="466.3906" y2="466.3906"/><text fill="#000000" font-family="sans-serif" font-size="13" font-weight="bold" lengthAdjust="spacing" textLength="9" x="233" y="461.3247">9</text><text fill="#000000" font-family="sans-serif" font-size="13" font-style="italic" lengthAdjust="spacing" textLength="23" x="246" y="461.3247">ack</text><path d="M156,488.3906 L451,488.3906 L451,495.5234 L441,505.5234 L156,505.5234 L156,488.3906 " fill="#EEEEEE" style="stroke:#000000;stroke-width:1.5;"/><rect fill="none" height="75.3984" style="stroke:#000000;stroke-width:1.5;" width="1594" x="156" y="488.3906"/><text fill="#000000" font-family="sans-serif" font-size="13" font-weight="bold" lengthAdjust="spacing" textLength="250" x="171" y="501.4575">over TLS, to TEE in Proof Server</text><polygon fill="#181818" points="1671,522.6563,1681,526.6563,1671,530.6563,1675,526.6563" style="stroke:#181818;stroke-width:1.0;"/><line style="stroke:#181818;stroke-width:1.0;" x1="216" x2="1677" y1="526.6563" y2="526.6563"/><text fill="#000000" font-family="sans-serif" font-size="13" font-weight="bold" lengthAdjust="spacing" textLength="19" x="223" y="521.5903">10</text><text fill="#000000" font-family="sans-serif" font-size="13" font-weight="bold" lengthAdjust="spacing" textLength="43" x="246" y="521.5903">prove</text><text fill="#000000" font-family="sans-serif" font-size="13" lengthAdjust="spacing" textLength="274" x="293" y="521.5903">(circuit, publicTranscript, privateTranscript)</text><polygon fill="#181818" points="227,551.7891,217,555.7891,227,559.7891,223,555.7891" style="stroke:#181818;stroke-width:1.0;"/><line style="stroke:#181818;stroke-width:1.0;stroke-dasharray:2.0,2.0;" x1="221" x2="1687" y1="555.7891" y2="555.7891"/><text fill="#000000" font-family="sans-serif" font-size="13" font-weight="bold" lengthAdjust="spacing" textLength="18" x="233" y="550.7231">11</text><text fill="#000000" font-family="sans-serif" font-size="13" font-style="italic" lengthAdjust="spacing" textLength="34" x="255" y="550.7231">proof</text><polygon fill="#181818" points="34,587.9219,24,591.9219,34,595.9219,30,591.9219" style="stroke:#181818;stroke-width:1.0;"/><line style="stroke:#181818;stroke-width:1.0;stroke-dasharray:2.0,2.0;" x1="28" x2="205" y1="591.9219" y2="591.9219"/><text fill="#000000" font-family="sans-serif" font-size="13" font-weight="bold" lengthAdjust="spacing" textLength="18" x="40" y="586.856">12</text><text fill="#000000" font-family="sans-serif" font-size="13" font-style="italic" lengthAdjust="spacing" textLength="16" x="62" y="586.856">ok</text><path d="M156,606.9219 L402,606.9219 L402,614.0547 L392,624.0547 L156,624.0547 L156,606.9219 " fill="#EEEEEE" style="stroke:#000000;stroke-width:1.5;"/><rect fill="none" height="349.4609" style="stroke:#000000;stroke-width:1.5;" width="1722" x="156" y="606.9219"/><text fill="#000000" font-family="sans-serif" font-size="13" font-weight="bold" lengthAdjust="spacing" textLength="201" x="171" y="619.9888">build and send transaction</text><line style="stroke:#181818;stroke-width:1.0;" x1="216" x2="258" y1="645.1875" y2="645.1875"/><line style="stroke:#181818;stroke-width:1.0;" x1="258" x2="258" y1="645.1875" y2="658.1875"/><line style="stroke:#181818;stroke-width:1.0;" x1="217" x2="258" y1="658.1875" y2="658.1875"/><polygon fill="#181818" points="227,654.1875,217,658.1875,227,662.1875,223,658.1875" style="stroke:#181818;stroke-width:1.0;"/><text fill="#000000" font-family="sans-serif" font-size="13" font-weight="bold" lengthAdjust="spacing" textLength="17" x="223" y="640.1216">13</text><text fill="#000000" font-family="sans-serif" font-size="13" lengthAdjust="spacing" textLength="127" x="244" y="640.1216">unbalancedCallTx =</text><text fill="#000000" font-family="sans-serif" font-size="13" font-weight="bold" lengthAdjust="spacing" textLength="181" x="375" y="640.1216">createUnbalancedCallTx</text><text fill="#000000" font-family="sans-serif" font-size="13" lengthAdjust="spacing" textLength="199" x="560" y="640.1216">(publicTranscript, proof, circuit)</text><polygon fill="#181818" points="944,683.3203,954,687.3203,944,691.3203,948,687.3203" style="stroke:#181818;stroke-width:1.0;"/><line style="stroke:#181818;stroke-width:1.0;" x1="216" x2="950" y1="687.3203" y2="687.3203"/><text fill="#000000" font-family="sans-serif" font-size="13" font-weight="bold" lengthAdjust="spacing" textLength="18" x="223" y="682.2544">14</text><text fill="#000000" font-family="sans-serif" font-size="13" font-weight="bold" lengthAdjust="spacing" textLength="57" x="245" y="682.2544">balance</text><text fill="#000000" font-family="sans-serif" font-size="13" lengthAdjust="spacing" textLength="123" x="306" y="682.2544">(unbalancedCallTx)</text><line style="stroke:#181818;stroke-width:1.0;" x1="966" x2="1008" y1="716.4531" y2="716.4531"/><line style="stroke:#181818;stroke-width:1.0;" x1="1008" x2="1008" y1="716.4531" y2="729.4531"/><line style="stroke:#181818;stroke-width:1.0;" x1="967" x2="1008" y1="729.4531" y2="729.4531"/><polygon fill="#181818" points="977,725.4531,967,729.4531,977,733.4531,973,729.4531" style="stroke:#181818;stroke-width:1.0;"/><text fill="#000000" font-family="sans-serif" font-size="13" font-weight="bold" lengthAdjust="spacing" textLength="18" x="973" y="711.3872">15</text><text fill="#000000" font-family="sans-serif" font-size="13" font-style="italic" lengthAdjust="spacing" textLength="97" x="995" y="711.3872">inputs, outputs</text><text fill="#000000" font-family="sans-serif" font-size="13" lengthAdjust="spacing" textLength="10" x="1096" y="711.3872">=</text><text fill="#000000" font-family="sans-serif" font-size="13" font-weight="bold" lengthAdjust="spacing" textLength="87" x="1110" y="711.3872">selectCoins</text><text fill="#000000" font-family="sans-serif" font-size="13" lengthAdjust="spacing" textLength="47" x="1201" y="711.3872">(callTx)</text><path d="M921,744.4531 L1216,744.4531 L1216,751.5859 L1206,761.5859 L921,761.5859 L921,744.4531 " fill="#EEEEEE" style="stroke:#000000;stroke-width:1.5;"/><rect fill="none" height="117.5313" style="stroke:#000000;stroke-width:1.5;" width="829" x="921" y="744.4531"/><text fill="#000000" font-family="sans-serif" font-size="13" font-weight="bold" lengthAdjust="spacing" textLength="250" x="936" y="757.52">over TLS, to TEE in Proof Server</text><polygon fill="#181818" points="1671,778.7188,1681,782.7188,1671,786.7188,1675,782.7188" style="stroke:#181818;stroke-width:1.0;"/><line style="stroke:#181818;stroke-width:1.0;" x1="966" x2="1677" y1="782.7188" y2="782.7188"/><text fill="#000000" font-family="sans-serif" font-size="13" font-weight="bold" lengthAdjust="spacing" textLength="18" x="973" y="777.6528">16</text><text fill="#000000" font-family="sans-serif" font-size="13" font-weight="bold" lengthAdjust="spacing" textLength="43" x="995" y="777.6528">prove</text><text fill="#000000" font-family="sans-serif" font-size="13" lengthAdjust="spacing" textLength="227" x="1042" y="777.6528">(unbalancedCallTx, inputs, outputs)</text><polygon fill="#181818" points="977,807.8516,967,811.8516,977,815.8516,973,811.8516" style="stroke:#181818;stroke-width:1.0;"/><line style="stroke:#181818;stroke-width:1.0;stroke-dasharray:2.0,2.0;" x1="971" x2="1687" y1="811.8516" y2="811.8516"/><text fill="#000000" font-family="sans-serif" font-size="13" font-weight="bold" lengthAdjust="spacing" textLength="18" x="983" y="806.7856">17</text><text fill="#000000" font-family="sans-serif" font-size="13" font-style="italic" lengthAdjust="spacing" textLength="34" x="1005" y="806.7856">proof</text><line style="stroke:#181818;stroke-width:1.0;" x1="966" x2="1008" y1="840.9844" y2="840.9844"/><line style="stroke:#181818;stroke-width:1.0;" x1="1008" x2="1008" y1="840.9844" y2="853.9844"/><line style="stroke:#181818;stroke-width:1.0;" x1="967" x2="1008" y1="853.9844" y2="853.9844"/><polygon fill="#181818" points="977,849.9844,967,853.9844,977,857.9844,973,853.9844" style="stroke:#181818;stroke-width:1.0;"/><text fill="#000000" font-family="sans-serif" font-size="13" font-weight="bold" lengthAdjust="spacing" textLength="18" x="973" y="835.9185">18</text><text fill="#000000" font-family="sans-serif" font-size="13" font-style="italic" lengthAdjust="spacing" textLength="100" x="995" y="835.9185">balancedCallTx</text><text fill="#000000" font-family="sans-serif" font-size="13" lengthAdjust="spacing" textLength="10" x="1099" y="835.9185">=</text><text fill="#000000" font-family="sans-serif" font-size="13" font-weight="bold" lengthAdjust="spacing" textLength="163" x="1113" y="835.9185">createBalancedCallTx</text><text fill="#000000" font-family="sans-serif" font-size="13" lengthAdjust="spacing" textLength="269" x="1280" y="835.9185">(unbalancedCallTx, proof, inputs, outputs)</text><polygon fill="#181818" points="227,886.1172,217,890.1172,227,894.1172,223,890.1172" style="stroke:#181818;stroke-width:1.0;"/><line style="stroke:#181818;stroke-width:1.0;stroke-dasharray:2.0,2.0;" x1="221" x2="960" y1="890.1172" y2="890.1172"/><text fill="#000000" font-family="sans-serif" font-size="13" font-weight="bold" lengthAdjust="spacing" textLength="18" x="233" y="885.0513">19</text><text fill="#000000" font-family="sans-serif" font-size="13" font-style="italic" lengthAdjust="spacing" textLength="100" x="255" y="885.0513">balancedCallTx</text><polygon fill="#181818" points="1792,915.25,1802,919.25,1792,923.25,1796,919.25" style="stroke:#181818;stroke-width:1.0;"/><line style="stroke:#181818;stroke-width:1.0;" x1="216" x2="1798" y1="919.25" y2="919.25"/><text fill="#000000" font-family="sans-serif" font-size="13" font-weight="bold" lengthAdjust="spacing" textLength="19" x="223" y="914.1841">20</text><text fill="#000000" font-family="sans-serif" font-size="13" font-weight="bold" lengthAdjust="spacing" textLength="71" x="246" y="914.1841">submitTx</text><text fill="#000000" font-family="sans-serif" font-size="13" lengthAdjust="spacing" textLength="107" x="321" y="914.1841">(balancedCallTx)</text><polygon fill="#181818" points="227,944.3828,217,948.3828,227,952.3828,223,948.3828" style="stroke:#181818;stroke-width:1.0;"/><line style="stroke:#181818;stroke-width:1.0;stroke-dasharray:2.0,2.0;" x1="221" x2="1808" y1="948.3828" y2="948.3828"/><text fill="#000000" font-family="sans-serif" font-size="13" font-weight="bold" lengthAdjust="spacing" textLength="18" x="233" y="943.3169">21</text><text fill="#000000" font-family="sans-serif" font-size="13" font-style="italic" lengthAdjust="spacing" textLength="52" x="255" y="943.3169">pending</text><polygon fill="#181818" points="34,980.5156,24,984.5156,34,988.5156,30,984.5156" style="stroke:#181818;stroke-width:1.0;"/><line style="stroke:#181818;stroke-width:1.0;stroke-dasharray:2.0,2.0;" x1="28" x2="205" y1="984.5156" y2="984.5156"/><text fill="#000000" font-family="sans-serif" font-size="13" font-weight="bold" lengthAdjust="spacing" textLength="18" x="40" y="979.4497">22</text><text fill="#000000" font-family="sans-serif" font-size="13" font-style="italic" lengthAdjust="spacing" textLength="52" x="62" y="979.4497">pending</text><rect fill="#EEEEEE" height="3" style="stroke:#EEEEEE;stroke-width:1.0;" width="1888" x="0" y="1013.082"/><line style="stroke:#000000;stroke-width:1.0;" x1="0" x2="1888" y1="1013.082" y2="1013.082"/><line style="stroke:#000000;stroke-width:1.0;" x1="0" x2="1888" y1="1016.082" y2="1016.082"/><rect fill="#EEEEEE" height="23.1328" style="stroke:#000000;stroke-width:2.0;" width="362" x="763" y="1002.5156"/><text fill="#000000" font-family="sans-serif" font-size="13" font-weight="bold" lengthAdjust="spacing" textLength="343" x="769" y="1018.5825">time passes as TX is verified and propagated</text><polygon fill="#181818" points="972,1052.7813,962,1056.7813,972,1060.7813,968,1056.7813" style="stroke:#181818;stroke-width:1.0;"/><line style="stroke:#181818;stroke-width:1.0;" x1="966" x2="1808" y1="1056.7813" y2="1056.7813"/><text fill="#000000" font-family="sans-serif" font-size="13" font-weight="bold" lengthAdjust="spacing" textLength="17" x="978" y="1051.7153">23</text><text fill="#000000" font-family="sans-serif" font-size="13" lengthAdjust="spacing" textLength="178" x="999" y="1051.7153">verified tx, new public state</text><polygon fill="#181818" points="1572,1081.9141,1562,1085.9141,1572,1089.9141,1568,1085.9141" style="stroke:#181818;stroke-width:1.0;"/><line style="stroke:#181818;stroke-width:1.0;" x1="1566" x2="1808" y1="1085.9141" y2="1085.9141"/><text fill="#000000" font-family="sans-serif" font-size="13" font-weight="bold" lengthAdjust="spacing" textLength="18" x="1578" y="1080.8481">24</text><text fill="#000000" font-family="sans-serif" font-size="13" lengthAdjust="spacing" textLength="178" x="1600" y="1080.8481">verified tx, new public state</text><polygon fill="#181818" points="1544,1111.0469,1554,1115.0469,1544,1119.0469,1548,1115.0469" style="stroke:#181818;stroke-width:1.0;"/><line style="stroke:#181818;stroke-width:1.0;" x1="216" x2="1550" y1="1115.0469" y2="1115.0469"/><text fill="#000000" font-family="sans-serif" font-size="13" font-weight="bold" lengthAdjust="spacing" textLength="18" x="223" y="1109.981">25</text><text fill="#000000" font-family="sans-serif" font-size="13" font-weight="bold" lengthAdjust="spacing" textLength="77" x="245" y="1109.981">isFinalized</text><text fill="#000000" font-family="sans-serif" font-size="13" lengthAdjust="spacing" textLength="122" x="326" y="1109.981">(balancedCallTx.id)</text><polygon fill="#181818" points="227,1140.1797,217,1144.1797,227,1148.1797,223,1144.1797" style="stroke:#181818;stroke-width:1.0;"/><line style="stroke:#181818;stroke-width:1.0;stroke-dasharray:2.0,2.0;" x1="221" x2="1560" y1="1144.1797" y2="1144.1797"/><text fill="#000000" font-family="sans-serif" font-size="13" font-weight="bold" lengthAdjust="spacing" textLength="18" x="233" y="1139.1138">26</text><text fill="#000000" font-family="sans-serif" font-size="13" font-style="italic" lengthAdjust="spacing" textLength="73" x="255" y="1139.1138">tx finalized</text><polygon fill="#181818" points="34,1169.3125,24,1173.3125,34,1177.3125,30,1173.3125" style="stroke:#181818;stroke-width:1.0;"/><line style="stroke:#181818;stroke-width:1.0;stroke-dasharray:2.0,2.0;" x1="28" x2="210" y1="1173.3125" y2="1173.3125"/><text fill="#000000" font-family="sans-serif" font-size="13" font-weight="bold" lengthAdjust="spacing" textLength="18" x="40" y="1168.2466">27</text><text fill="#000000" font-family="sans-serif" font-size="13" font-style="italic" lengthAdjust="spacing" textLength="137" x="62" y="1168.2466">outcome information</text><text fill="#888888" font-family="sans-serif" font-size="10" lengthAdjust="spacing" textLength="3" x="1884" y="14.2822">&#160;</text><text fill="#888888" font-family="sans-serif" font-size="10" lengthAdjust="spacing" textLength="131" x="1756" y="25.9229">2023.06.02 at 17:20 UTC</text><text fill="#888888" font-family="sans-serif" font-size="10" lengthAdjust="spacing" textLength="3" x="1884" y="37.5635">&#160;</text><text fill="#888888" font-family="sans-serif" font-size="10" lengthAdjust="spacing" textLength="3" x="1884" y="49.2041">&#160;</text><text fill="#888888" font-family="sans-serif" font-size="10" lengthAdjust="spacing" textLength="3" x="1884" y="60.8447">&#160;</text><text fill="#888888" font-family="sans-serif" font-size="10" lengthAdjust="spacing" textLength="3" x="942" y="1195.5947">&#160;</text><text fill="#888888" font-family="sans-serif" font-size="10" lengthAdjust="spacing" textLength="3" x="942" y="1207.2354">&#160;</text><text fill="#888888" font-family="sans-serif" font-size="10" lengthAdjust="spacing" textLength="3" x="942" y="1218.876">&#160;</text><text fill="#888888" font-family="sans-serif" font-size="10" lengthAdjust="spacing" textLength="246" x="820.5" y="1230.5166">Copyright 2023, Input Output Hong Kong, Ltd.</text><!--SRC=[jLPjRzem4FwUNt5YgYWjXUz8JDggJjtMTaYmbm_zuiGNy9hOaUsqjBz-PyT0GaBNhbeG935tpprtz_Y5bLR9CezHHol14LAbRApMKTG_-_ShwiCiGsOGX4ooac3jIXWmbadED8SLCku2-XiSfI93oN8y7jpA8yui7lSUwHfTNuyuxmEpqB-ydEGvFFN8mdtUnYvYYLKQIaCS8aeMUhVoGr5a8c5MADc3TuXf1E4gcBOY4GMJrXbU2ox5ScM_p7l03EJXzRSvv72kfDKKqPiduMLhJEcos5MAB6TQt5FsCBVqwysBQiGFp8apHYWv-Fu4tZzPbg5rbDEASd-nGeYrUg3i0DSMfQ6SeXQnZID5UV2FBUZFakCQDM6dARO1PcKCS_fkpGX9LCyjg9bMAeKvwliA3xlm6ZO-UHgetdU03PTDB-16SMoqmmsGXgTllY9Fr4a5pjxNkWsdfnEWHhhQUfEbLcL1_SsBabh8dDZfNXPEpzjkr_m9BLJBGvsSBD5IIKc4ljid9t0SPogvk_6JSmYCSut63BPO6csf9Op7nSvhF3uGgYMaMj3QNoxgCu5gbWSZRHGU0bG5yBXwQOPG8pjiiEg8LptyODdMSg6PD8aMXTqWrKSaoNts4ew7gc7GEgRxE1tKM78Nq4cPTG4eKYiihkP3i0eM5nVKPAWh-o2ZhTO35ngvztLBX4vAqPbmgogTJIFa6jVzs1JSgNj2fihbLCibBaN6WTPiC6x-MHScIBuxYzhR14ePiup91FavhI-BDKmfgqGZ4Vw-zvTBioixOZw4aF_WGCngyGf52x0ERp_ypZzux7nTxaBIl2LzgjAwX_7OqpMOOMBFbP36js8FwPKjRmP_fkNxt8UmHs_GmEpizRFPDk53ibLlFhOwqsOJEdEGr4Pd3NBxCV-Y8RU2RwPb6UV2LcGEDNLN0mekvF9bYjyPUwlf5Ap8aVObOz2u_MJn2-ZWGYqIgS1gBb3o1LjIfJZPDy0zvNgXjtvsxLQdXp25gxsXqtMp9Rp6jsip4UQJa2mJJyZRLHi9NXLkMpIxXdHZ7ohNKJ4l7MesRNBkP9SgdVi3K_3Ww1O7VuAfdOh-wq7IdLPfWbKtgCw6vwfurFvKK3jBzWP3EgYGIk6R5ojSAhc4h_GpX2lBHszY-GS0]--></g></svg>