<?xml version="1.0" encoding="us-ascii" standalone="no"?><svg xmlns="http://www.w3.org/2000/svg" xmlns:xlink="http://www.w3.org/1999/xlink" contentStyleType="text/css" height="1482px" preserveAspectRatio="none" style="width:1220px;height:1482px;background:#FFFFFF;" version="1.1" viewBox="0 0 1220 1482" width="1220px" zoomAndPan="magnify"><defs/><g><rect fill="#EEEEFF" height="1360.1289" style="stroke:#181818;stroke-width:0.5;" width="363" x="158" y="65.8867"/><text fill="#000000" font-family="sans-serif" font-size="13" font-weight="bold" lengthAdjust="spacing" textLength="37" x="321" y="78.4551">dApp</text><rect fill="#EEFFFF" height="1360.1289" style="stroke:#181818;stroke-width:0.5;" width="63" x="523" y="65.8867"/><text fill="#000000" font-family="sans-serif" font-size="13" font-weight="bold" lengthAdjust="spacing" textLength="41" x="534" y="78.4551">Wallet</text><rect fill="#FFEEEE" height="1360.1289" style="stroke:#181818;stroke-width:0.5;" width="267" x="776" y="65.8867"/><text fill="#000000" font-family="sans-serif" font-size="13" font-weight="bold" lengthAdjust="spacing" textLength="55" x="882" y="78.4551">Services</text><rect fill="#DDDDDD" height="1360.1289" style="stroke:#181818;stroke-width:0.5;" width="127" x="1085" y="65.8867"/><text fill="#000000" font-family="sans-serif" font-size="13" font-weight="bold" lengthAdjust="spacing" textLength="121" x="1088" y="78.4551">Midnight Network</text><rect fill="#FFFFFF" height="1202.043" style="stroke:#181818;stroke-width:1.0;" width="10" x="202" y="211.9727"/><rect fill="#FFFFFF" height="90.5527" style="stroke:#181818;stroke-width:1.0;" width="10" x="398" y="296.2148"/><rect fill="#FFFFFF" height="29.3105" style="stroke:#181818;stroke-width:1.0;" width="10" x="481" y="563.6309"/><rect fill="#FFFFFF" height="29.3105" style="stroke:#181818;stroke-width:1.0;" width="10" x="481" y="1306.084"/><rect fill="#FFFFFF" height="504.9688" style="stroke:#181818;stroke-width:1.0;" width="10" x="549.5" y="646.5625"/><rect fill="#FFFFFF" height="29.3105" style="stroke:#181818;stroke-width:1.0;" width="10" x="803.5" y="498.0098"/><rect fill="#FFFFFF" height="29.3105" style="stroke:#181818;stroke-width:1.0;" width="10" x="803.5" y="700.1836"/><rect fill="#FFFFFF" height="1232.3535" style="stroke:#181818;stroke-width:1.0;" width="10" x="875.5" y="190.6621"/><rect fill="none" height="167.7949" style="stroke:#000000;stroke-width:1.5;" width="303" x="152" y="226.9727"/><rect fill="none" height="126.5527" style="stroke:#000000;stroke-width:1.5;" width="752" x="95" y="408.7676"/><rect fill="none" height="354.7266" style="stroke:#000000;stroke-width:1.5;" width="1047" x="152" y="607.9414"/><rect fill="none" height="75.9316" style="stroke:#000000;stroke-width:1.5;" width="479" x="517" y="661.5625"/><rect fill="none" height="219.1738" style="stroke:#000000;stroke-width:1.5;" width="772" x="152" y="1166.5313"/><line style="stroke:#181818;stroke-width:0.5;stroke-dasharray:5.0,5.0;" x1="23" x2="23" y1="180.6621" y2="1432.0156"/><line style="stroke:#181818;stroke-width:0.5;stroke-dasharray:5.0,5.0;" x1="207" x2="207" y1="180.6621" y2="1432.0156"/><line style="stroke:#181818;stroke-width:0.5;stroke-dasharray:5.0,5.0;" x1="403" x2="403" y1="180.6621" y2="1432.0156"/><line style="stroke:#181818;stroke-width:0.5;stroke-dasharray:5.0,5.0;" x1="486" x2="486" y1="180.6621" y2="1432.0156"/><line style="stroke:#181818;stroke-width:0.5;stroke-dasharray:5.0,5.0;" x1="554" x2="554" y1="180.6621" y2="1432.0156"/><line style="stroke:#181818;stroke-width:0.5;stroke-dasharray:5.0,5.0;" x1="808" x2="808" y1="180.6621" y2="1432.0156"/><line style="stroke:#181818;stroke-width:0.5;stroke-dasharray:5.0,5.0;" x1="880" x2="880" y1="180.6621" y2="1432.0156"/><line style="stroke:#181818;stroke-width:0.5;stroke-dasharray:5.0,5.0;" x1="981" x2="981" y1="180.6621" y2="1432.0156"/><line style="stroke:#181818;stroke-width:0.5;stroke-dasharray:5.0,5.0;" x1="1148" x2="1148" y1="180.6621" y2="1432.0156"/><text fill="#000000" font-family="sans-serif" font-size="14" lengthAdjust="spacing" textLength="30" x="5" y="177.709">user</text><ellipse cx="23" cy="112.6738" fill="#E2E2F0" rx="8" ry="8" style="stroke:#181818;stroke-width:0.5;"/><path d="M23,120.6738 L23,147.6738 M10,128.6738 L36,128.6738 M23,147.6738 L10,162.6738 M23,147.6738 L36,162.6738 " fill="none" style="stroke:#181818;stroke-width:0.5;"/><rect fill="#E2E2F0" height="30.4883" rx="2.5" ry="2.5" style="stroke:#181818;stroke-width:0.5;" width="90" x="162" y="149.1738"/><text fill="#000000" font-family="sans-serif" font-size="14" lengthAdjust="spacing" textLength="76" x="169" y="169.709">Midnight.js</text><rect fill="#E2E2F0" height="46.9766" rx="2.5" ry="2.5" style="stroke:#181818;stroke-width:0.5;" width="84" x="361" y="132.6855"/><text fill="#000000" font-family="sans-serif" font-size="14" lengthAdjust="spacing" textLength="70" x="368" y="153.2207">Transition</text><text fill="#000000" font-family="sans-serif" font-size="14" lengthAdjust="spacing" textLength="60" x="373" y="169.709">Function</text><text fill="#000000" font-family="sans-serif" font-size="14" lengthAdjust="spacing" textLength="56" x="455" y="144.7324">Pending</text><text fill="#000000" font-family="sans-serif" font-size="14" lengthAdjust="spacing" textLength="46" x="460" y="161.2207">Private</text><text fill="#000000" font-family="sans-serif" font-size="14" lengthAdjust="spacing" textLength="56" x="455" y="177.709">Updates</text><path d="M468,95.1973 C468,85.1973 486,85.1973 486,85.1973 C486,85.1973 504,85.1973 504,95.1973 L504,121.1973 C504,131.1973 486,131.1973 486,131.1973 C486,131.1973 468,131.1973 468,121.1973 L468,95.1973 " fill="#E2E2F0" style="stroke:#181818;stroke-width:1.5;"/><path d="M468,95.1973 C468,105.1973 486,105.1973 486,105.1973 C486,105.1973 504,105.1973 504,95.1973 " fill="none" style="stroke:#181818;stroke-width:1.5;"/><rect fill="#E2E2F0" height="30.4883" rx="2.5" ry="2.5" style="stroke:#181818;stroke-width:0.5;" width="55" x="527" y="149.1738"/><text fill="#000000" font-family="sans-serif" font-size="14" lengthAdjust="spacing" textLength="41" x="534" y="169.709">Wallet</text><rect fill="#E2E2F0" height="46.9766" rx="2.5" ry="2.5" style="stroke:#181818;stroke-width:0.5;" width="57" x="780" y="132.6855"/><text fill="#000000" font-family="sans-serif" font-size="14" lengthAdjust="spacing" textLength="37" x="790" y="153.2207">Proof</text><text fill="#000000" font-family="sans-serif" font-size="14" lengthAdjust="spacing" textLength="43" x="787" y="169.709">Server</text><rect fill="#E2E2F0" height="30.4883" rx="2.5" ry="2.5" style="stroke:#181818;stroke-width:0.5;" width="67" x="847" y="149.1738"/><text fill="#000000" font-family="sans-serif" font-size="14" lengthAdjust="spacing" textLength="53" x="854" y="169.709">Indexer</text><rect fill="#E2E2F0" height="30.4883" rx="2.5" ry="2.5" style="stroke:#181818;stroke-width:0.5;" width="115" x="924" y="149.1738"/><text fill="#000000" font-family="sans-serif" font-size="14" lengthAdjust="spacing" textLength="101" x="931" y="169.709">Midnight Node</text><text fill="#000000" font-family="sans-serif" font-size="14" lengthAdjust="spacing" textLength="75" x="1108" y="177.709">Consensus</text><path d="M1128,136.1738 L1128,160.1738 M1128,148.1738 L1145,148.1738 " fill="none" style="stroke:#181818;stroke-width:0.5;"/><ellipse cx="1157" cy="148.1738" fill="#E2E2F0" rx="12" ry="12" style="stroke:#181818;stroke-width:0.5;"/><rect fill="#FFFFFF" height="1202.043" style="stroke:#181818;stroke-width:1.0;" width="10" x="202" y="211.9727"/><rect fill="#FFFFFF" height="90.5527" style="stroke:#181818;stroke-width:1.0;" width="10" x="398" y="296.2148"/><rect fill="#FFFFFF" height="29.3105" style="stroke:#181818;stroke-width:1.0;" width="10" x="481" y="563.6309"/><rect fill="#FFFFFF" height="29.3105" style="stroke:#181818;stroke-width:1.0;" width="10" x="481" y="1306.084"/><rect fill="#FFFFFF" height="504.9688" style="stroke:#181818;stroke-width:1.0;" width="10" x="549.5" y="646.5625"/><rect fill="#FFFFFF" height="29.3105" style="stroke:#181818;stroke-width:1.0;" width="10" x="803.5" y="498.0098"/><rect fill="#FFFFFF" height="29.3105" style="stroke:#181818;stroke-width:1.0;" width="10" x="803.5" y="700.1836"/><rect fill="#FFFFFF" height="1232.3535" style="stroke:#181818;stroke-width:1.0;" width="10" x="875.5" y="190.6621"/><polygon fill="#181818" points="190,207.9727,200,211.9727,190,215.9727,194,211.9727" style="stroke:#181818;stroke-width:1.0;"/><line style="stroke:#181818;stroke-width:1.0;" x1="23" x2="196" y1="211.9727" y2="211.9727"/><text fill="#000000" font-family="sans-serif" font-size="13" font-weight="bold" lengthAdjust="spacing" textLength="9" x="30" y="207.2305">1</text><text fill="#000000" font-family="sans-serif" font-size="13" lengthAdjust="spacing" textLength="39" x="43" y="207.2305">action</text><path d="M152,226.9727 L291,226.9727 L291,234.2832 L281,244.2832 L152,244.2832 L152,226.9727 " fill="#EEEEEE" style="stroke:#000000;stroke-width:1.5;"/><rect fill="none" height="167.7949" style="stroke:#000000;stroke-width:1.5;" width="303" x="152" y="226.9727"/><text fill="#000000" font-family="sans-serif" font-size="13" font-weight="bold" lengthAdjust="spacing" textLength="94" x="167" y="240.541">call a contract</text><polygon fill="#181818" points="386,292.2148,396,296.2148,386,300.2148,390,296.2148" style="stroke:#181818;stroke-width:1.0;"/><line style="stroke:#181818;stroke-width:1.0;" x1="212" x2="392" y1="296.2148" y2="296.2148"/><text fill="#000000" font-family="sans-serif" font-size="13" font-weight="bold" lengthAdjust="spacing" textLength="9" x="219" y="276.1621">2</text><text fill="#000000" font-family="sans-serif" font-size="13" lengthAdjust="spacing" textLength="96" x="232" y="260.8516">call(args) using</text><text fill="#000000" font-family="sans-serif" font-size="13" lengthAdjust="spacing" textLength="78" x="240" y="276.1621">public state,</text><text fill="#000000" font-family="sans-serif" font-size="13" lengthAdjust="spacing" textLength="78" x="240" y="291.4727">private state</text><polygon fill="#181818" points="223,382.7676,213,386.7676,223,390.7676,219,386.7676" style="stroke:#181818;stroke-width:1.0;"/><line style="stroke:#181818;stroke-width:1.0;" x1="217" x2="402" y1="386.7676" y2="386.7676"/><text fill="#000000" font-family="sans-serif" font-size="13" font-weight="bold" lengthAdjust="spacing" textLength="9" x="229" y="351.4043">3</text><text fill="#000000" font-family="sans-serif" font-size="13" lengthAdjust="spacing" textLength="60" x="242" y="320.7832">ok(result,</text><text fill="#000000" font-family="sans-serif" font-size="13" lengthAdjust="spacing" textLength="112" x="262" y="336.0938">private transcript,</text><text fill="#000000" font-family="sans-serif" font-size="13" lengthAdjust="spacing" textLength="108" x="262" y="351.4043">public transcript,</text><text fill="#000000" font-family="sans-serif" font-size="13" lengthAdjust="spacing" textLength="52" x="262" y="366.7148">witness,</text><text fill="#000000" font-family="sans-serif" font-size="13" lengthAdjust="spacing" textLength="84" x="262" y="382.0254">gas estimate)</text><path d="M95,408.7676 L569,408.7676 L569,416.0781 L559,426.0781 L95,426.0781 L95,408.7676 " fill="#EEEEEE" style="stroke:#000000;stroke-width:1.5;"/><rect fill="none" height="126.5527" style="stroke:#000000;stroke-width:1.5;" width="752" x="95" y="408.7676"/><text fill="#000000" font-family="sans-serif" font-size="13" font-weight="bold" lengthAdjust="spacing" textLength="429" x="110" y="422.3359">to local Proof Server or over TLS to a remote, TEE-equipped one</text><path d="M105,431.0781 L105,471.0781 L309,471.0781 L309,441.0781 L299,431.0781 L105,431.0781 " fill="#FEFFDD" style="stroke:#181818;stroke-width:0.5;"/><path d="M299,431.0781 L299,441.0781 L309,441.0781 L299,431.0781 " fill="#FEFFDD" style="stroke:#181818;stroke-width:0.5;"/><text fill="#000000" font-family="sans-serif" font-size="13" lengthAdjust="spacing" textLength="183" x="111" y="448.6465">witness includes private data</text><text fill="#000000" font-family="sans-serif" font-size="13" lengthAdjust="spacing" textLength="140" x="111" y="463.957">not shared with Wallet</text><polygon fill="#181818" points="791.5,494.0098,801.5,498.0098,791.5,502.0098,795.5,498.0098" style="stroke:#181818;stroke-width:1.0;"/><line style="stroke:#181818;stroke-width:1.0;" x1="212" x2="797.5" y1="498.0098" y2="498.0098"/><text fill="#000000" font-family="sans-serif" font-size="13" font-weight="bold" lengthAdjust="spacing" textLength="9" x="219" y="493.2676">4</text><text fill="#000000" font-family="sans-serif" font-size="13" lengthAdjust="spacing" textLength="269" x="232" y="493.2676">prove(transaction_outline(circuit, witness))</text><polygon fill="#181818" points="223,523.3203,213,527.3203,223,531.3203,219,527.3203" style="stroke:#181818;stroke-width:1.0;"/><line style="stroke:#181818;stroke-width:1.0;" x1="217" x2="807.5" y1="527.3203" y2="527.3203"/><text fill="#000000" font-family="sans-serif" font-size="13" font-weight="bold" lengthAdjust="spacing" textLength="9" x="229" y="522.5781">5</text><text fill="#000000" font-family="sans-serif" font-size="13" lengthAdjust="spacing" textLength="118" x="242" y="522.5781">proven transaction</text><polygon fill="#181818" points="469,559.6309,479,563.6309,469,567.6309,473,563.6309" style="stroke:#181818;stroke-width:1.0;"/><line style="stroke:#181818;stroke-width:1.0;" x1="212" x2="475" y1="563.6309" y2="563.6309"/><text fill="#000000" font-family="sans-serif" font-size="13" font-weight="bold" lengthAdjust="spacing" textLength="9" x="219" y="558.8887">6</text><text fill="#000000" font-family="sans-serif" font-size="13" lengthAdjust="spacing" textLength="118" x="232" y="558.8887">store pending data</text><polygon fill="#181818" points="223,588.9414,213,592.9414,223,596.9414,219,592.9414" style="stroke:#181818;stroke-width:1.0;"/><line style="stroke:#181818;stroke-width:1.0;stroke-dasharray:2.0,2.0;" x1="217" x2="485" y1="592.9414" y2="592.9414"/><text fill="#000000" font-family="sans-serif" font-size="13" font-weight="bold" lengthAdjust="spacing" textLength="9" x="229" y="588.1992">7</text><text fill="#000000" font-family="sans-serif" font-size="13" lengthAdjust="spacing" textLength="16" x="242" y="588.1992">ok</text><path d="M152,607.9414 L379,607.9414 L379,615.252 L369,625.252 L152,625.252 L152,607.9414 " fill="#EEEEEE" style="stroke:#000000;stroke-width:1.5;"/><rect fill="none" height="354.7266" style="stroke:#000000;stroke-width:1.5;" width="1047" x="152" y="607.9414"/><text fill="#000000" font-family="sans-serif" font-size="13" font-weight="bold" lengthAdjust="spacing" textLength="182" x="167" y="621.5098">build and send transaction</text><polygon fill="#181818" points="537.5,642.5625,547.5,646.5625,537.5,650.5625,541.5,646.5625" style="stroke:#181818;stroke-width:1.0;"/><line style="stroke:#181818;stroke-width:1.0;" x1="212" x2="543.5" y1="646.5625" y2="646.5625"/><text fill="#000000" font-family="sans-serif" font-size="13" font-weight="bold" lengthAdjust="spacing" textLength="9" x="219" y="641.8203">8</text><text fill="#000000" font-family="sans-serif" font-size="13" lengthAdjust="spacing" textLength="143" x="232" y="641.8203">balanceTransaction(tx)</text><path d="M517,661.5625 L991,661.5625 L991,668.873 L981,678.873 L517,678.873 L517,661.5625 " fill="#EEEEEE" style="stroke:#000000;stroke-width:1.5;"/><rect fill="none" height="75.9316" style="stroke:#000000;stroke-width:1.5;" width="479" x="517" y="661.5625"/><text fill="#000000" font-family="sans-serif" font-size="13" font-weight="bold" lengthAdjust="spacing" textLength="429" x="532" y="675.1309">to local Proof Server or over TLS to a remote, TEE-equipped one</text><polygon fill="#181818" points="791.5,696.1836,801.5,700.1836,791.5,704.1836,795.5,700.1836" style="stroke:#181818;stroke-width:1.0;"/><line style="stroke:#181818;stroke-width:1.0;" x1="559.5" x2="797.5" y1="700.1836" y2="700.1836"/><text fill="#000000" font-family="sans-serif" font-size="13" font-weight="bold" lengthAdjust="spacing" textLength="9" x="566.5" y="695.4414">9</text><text fill="#000000" font-family="sans-serif" font-size="13" lengthAdjust="spacing" textLength="175" x="579.5" y="695.4414">prove(balancing_tx_outline)</text><polygon fill="#181818" points="570.5,725.4941,560.5,729.4941,570.5,733.4941,566.5,729.4941" style="stroke:#181818;stroke-width:1.0;"/><line style="stroke:#181818;stroke-width:1.0;" x1="564.5" x2="807.5" y1="729.4941" y2="729.4941"/><text fill="#000000" font-family="sans-serif" font-size="13" font-weight="bold" lengthAdjust="spacing" textLength="18" x="576.5" y="724.752">10</text><text fill="#000000" font-family="sans-serif" font-size="13" lengthAdjust="spacing" textLength="183" x="598.5" y="724.752">proven balancing transaction</text><line style="stroke:#181818;stroke-width:1.0;" x1="559.5" x2="601.5" y1="765.8047" y2="765.8047"/><line style="stroke:#181818;stroke-width:1.0;" x1="601.5" x2="601.5" y1="765.8047" y2="778.8047"/><line style="stroke:#181818;stroke-width:1.0;" x1="560.5" x2="601.5" y1="778.8047" y2="778.8047"/><polygon fill="#181818" points="570.5,774.8047,560.5,778.8047,570.5,782.8047,566.5,778.8047" style="stroke:#181818;stroke-width:1.0;"/><text fill="#000000" font-family="sans-serif" font-size="13" font-weight="bold" lengthAdjust="spacing" textLength="18" x="566.5" y="761.0625">11</text><text fill="#000000" font-family="sans-serif" font-size="13" lengthAdjust="spacing" textLength="208" x="588.5" y="761.0625">assemble aggregated transaction</text><polygon fill="#181818" points="223,804.1152,213,808.1152,223,812.1152,219,808.1152" style="stroke:#181818;stroke-width:1.0;"/><line style="stroke:#181818;stroke-width:1.0;" x1="217" x2="548.5" y1="808.1152" y2="808.1152"/><text fill="#000000" font-family="sans-serif" font-size="13" font-weight="bold" lengthAdjust="spacing" textLength="18" x="229" y="803.373">12</text><text fill="#000000" font-family="sans-serif" font-size="13" lengthAdjust="spacing" textLength="172" x="251" y="803.373">ok(aggregated_transaction)</text><polygon fill="#181818" points="537.5,833.4258,547.5,837.4258,537.5,841.4258,541.5,837.4258" style="stroke:#181818;stroke-width:1.0;"/><line style="stroke:#181818;stroke-width:1.0;" x1="212" x2="543.5" y1="837.4258" y2="837.4258"/><text fill="#000000" font-family="sans-serif" font-size="13" font-weight="bold" lengthAdjust="spacing" textLength="18" x="219" y="832.6836">13</text><text fill="#000000" font-family="sans-serif" font-size="13" lengthAdjust="spacing" textLength="81" x="241" y="832.6836">submitTx(tx)</text><polygon fill="#181818" points="969.5,862.7363,979.5,866.7363,969.5,870.7363,973.5,866.7363" style="stroke:#181818;stroke-width:1.0;"/><line style="stroke:#181818;stroke-width:1.0;" x1="559.5" x2="975.5" y1="866.7363" y2="866.7363"/><text fill="#000000" font-family="sans-serif" font-size="13" font-weight="bold" lengthAdjust="spacing" textLength="18" x="566.5" y="861.9941">14</text><text fill="#000000" font-family="sans-serif" font-size="13" lengthAdjust="spacing" textLength="81" x="588.5" y="861.9941">submitTx(tx)</text><polygon fill="#181818" points="1136.5,892.0469,1146.5,896.0469,1136.5,900.0469,1140.5,896.0469" style="stroke:#181818;stroke-width:1.0;"/><line style="stroke:#181818;stroke-width:1.0;" x1="981.5" x2="1142.5" y1="896.0469" y2="896.0469"/><text fill="#000000" font-family="sans-serif" font-size="13" font-weight="bold" lengthAdjust="spacing" textLength="18" x="988.5" y="891.3047">15</text><text fill="#000000" font-family="sans-serif" font-size="13" lengthAdjust="spacing" textLength="81" x="1010.5" y="891.3047">submitTx(tx)</text><polygon fill="#181818" points="570.5,921.3574,560.5,925.3574,570.5,929.3574,566.5,925.3574" style="stroke:#181818;stroke-width:1.0;"/><line style="stroke:#181818;stroke-width:1.0;" x1="564.5" x2="980.5" y1="925.3574" y2="925.3574"/><text fill="#000000" font-family="sans-serif" font-size="13" font-weight="bold" lengthAdjust="spacing" textLength="18" x="576.5" y="920.6152">16</text><text fill="#000000" font-family="sans-serif" font-size="13" lengthAdjust="spacing" textLength="16" x="598.5" y="920.6152">ok</text><polygon fill="#181818" points="223,950.668,213,954.668,223,958.668,219,954.668" style="stroke:#181818;stroke-width:1.0;"/><line style="stroke:#181818;stroke-width:1.0;" x1="217" x2="548.5" y1="954.668" y2="954.668"/><text fill="#000000" font-family="sans-serif" font-size="13" font-weight="bold" lengthAdjust="spacing" textLength="18" x="229" y="949.9258">17</text><text fill="#000000" font-family="sans-serif" font-size="13" lengthAdjust="spacing" textLength="51" x="251" y="949.9258">pending</text><polygon fill="#181818" points="34,986.9785,24,990.9785,34,994.9785,30,990.9785" style="stroke:#181818;stroke-width:1.0;"/><line style="stroke:#181818;stroke-width:1.0;" x1="28" x2="201" y1="990.9785" y2="990.9785"/><text fill="#000000" font-family="sans-serif" font-size="13" font-weight="bold" lengthAdjust="spacing" textLength="18" x="40" y="986.2363">18</text><text fill="#000000" font-family="sans-serif" font-size="13" lengthAdjust="spacing" textLength="51" x="62" y="986.2363">pending</text><rect fill="#EEEEEE" height="3" style="stroke:#EEEEEE;stroke-width:1.0;" width="1213" x="0" y="1019.6338"/><line style="stroke:#000000;stroke-width:1.0;" x1="0" x2="1213" y1="1019.6338" y2="1019.6338"/><line style="stroke:#000000;stroke-width:1.0;" x1="0" x2="1213" y1="1022.6338" y2="1022.6338"/><rect fill="#EEEEEE" height="23.3105" style="stroke:#000000;stroke-width:2.0;" width="323" x="445" y="1008.9785"/><text fill="#000000" font-family="sans-serif" font-size="13" font-weight="bold" lengthAdjust="spacing" textLength="305" x="451" y="1025.5469">time passes as TX is verified and propageted</text><polygon fill="#181818" points="896.5,1059.5996,886.5,1063.5996,896.5,1067.5996,892.5,1063.5996" style="stroke:#181818;stroke-width:1.0;"/><line style="stroke:#181818;stroke-width:1.0;" x1="890.5" x2="1147.5" y1="1063.5996" y2="1063.5996"/><text fill="#000000" font-family="sans-serif" font-size="13" font-weight="bold" lengthAdjust="spacing" textLength="18" x="902.5" y="1058.8574">19</text><text fill="#000000" font-family="sans-serif" font-size="13" lengthAdjust="spacing" textLength="198" x="924.5" y="1058.8574">verified tx and new public state</text><polygon fill="#181818" points="570.5,1088.9102,560.5,1092.9102,570.5,1096.9102,566.5,1092.9102" style="stroke:#181818;stroke-width:1.0;"/><line style="stroke:#181818;stroke-width:1.0;" x1="564.5" x2="874.5" y1="1092.9102" y2="1092.9102"/><text fill="#000000" font-family="sans-serif" font-size="13" font-weight="bold" lengthAdjust="spacing" textLength="18" x="576.5" y="1088.168">20</text><text fill="#000000" font-family="sans-serif" font-size="13" lengthAdjust="spacing" textLength="200" x="598.5" y="1088.168">verified tx, public state updates</text><polygon fill="#181818" points="34,1118.2207,24,1122.2207,34,1126.2207,30,1122.2207" style="stroke:#181818;stroke-width:1.0;"/><line style="stroke:#181818;stroke-width:1.0;" x1="28" x2="548.5" y1="1122.2207" y2="1122.2207"/><text fill="#000000" font-family="sans-serif" font-size="13" font-weight="bold" lengthAdjust="spacing" textLength="18" x="40" y="1117.4785">21</text><text fill="#000000" font-family="sans-serif" font-size="13" lengthAdjust="spacing" textLength="133" x="62" y="1117.4785">outcome information</text><polygon fill="#181818" points="223,1147.5313,213,1151.5313,223,1155.5313,219,1151.5313" style="stroke:#181818;stroke-width:1.0;"/><line style="stroke:#181818;stroke-width:1.0;" x1="217" x2="553.5" y1="1151.5313" y2="1151.5313"/><text fill="#000000" font-family="sans-serif" font-size="13" font-weight="bold" lengthAdjust="spacing" textLength="18" x="229" y="1146.7891">22</text><text fill="#000000" font-family="sans-serif" font-size="13" lengthAdjust="spacing" textLength="64" x="251" y="1146.7891">tx verified</text><path d="M152,1166.5313 L405,1166.5313 L405,1173.8418 L395,1183.8418 L152,1183.8418 L152,1166.5313 " fill="#EEEEEE" style="stroke:#000000;stroke-width:1.5;"/><rect fill="none" height="219.1738" style="stroke:#000000;stroke-width:1.5;" width="772" x="152" y="1166.5313"/><text fill="#000000" font-family="sans-serif" font-size="13" font-weight="bold" lengthAdjust="spacing" textLength="208" x="167" y="1180.0996">dApp processes consesus data</text><polygon fill="#181818" points="863.5,1201.1523,873.5,1205.1523,863.5,1209.1523,867.5,1205.1523" style="stroke:#181818;stroke-width:1.0;"/><line style="stroke:#181818;stroke-width:1.0;" x1="212" x2="869.5" y1="1205.1523" y2="1205.1523"/><text fill="#000000" font-family="sans-serif" font-size="13" font-weight="bold" lengthAdjust="spacing" textLength="18" x="219" y="1200.4102">23</text><text fill="#000000" font-family="sans-serif" font-size="13" lengthAdjust="spacing" textLength="139" x="241" y="1200.4102">fetch new public state</text><polygon fill="#181818" points="223,1230.4629,213,1234.4629,223,1238.4629,219,1234.4629" style="stroke:#181818;stroke-width:1.0;"/><line style="stroke:#181818;stroke-width:1.0;" x1="217" x2="874.5" y1="1234.4629" y2="1234.4629"/><text fill="#000000" font-family="sans-serif" font-size="13" font-weight="bold" lengthAdjust="spacing" textLength="18" x="229" y="1229.7207">24</text><text fill="#000000" font-family="sans-serif" font-size="13" lengthAdjust="spacing" textLength="103" x="251" y="1229.7207">new public state</text><line style="stroke:#181818;stroke-width:1.0;" x1="212" x2="254" y1="1263.7734" y2="1263.7734"/><line style="stroke:#181818;stroke-width:1.0;" x1="254" x2="254" y1="1263.7734" y2="1276.7734"/><line style="stroke:#181818;stroke-width:1.0;" x1="213" x2="254" y1="1276.7734" y2="1276.7734"/><polygon fill="#181818" points="223,1272.7734,213,1276.7734,223,1280.7734,219,1276.7734" style="stroke:#181818;stroke-width:1.0;"/><text fill="#000000" font-family="sans-serif" font-size="13" font-weight="bold" lengthAdjust="spacing" textLength="18" x="219" y="1259.0313">25</text><text fill="#000000" font-family="sans-serif" font-size="13" lengthAdjust="spacing" textLength="146" x="241" y="1259.0313">install new public state</text><polygon fill="#181818" points="469,1302.084,479,1306.084,469,1310.084,473,1306.084" style="stroke:#181818;stroke-width:1.0;"/><line style="stroke:#181818;stroke-width:1.0;" x1="212" x2="475" y1="1306.084" y2="1306.084"/><text fill="#000000" font-family="sans-serif" font-size="13" font-weight="bold" lengthAdjust="spacing" textLength="18" x="219" y="1301.3418">26</text><text fill="#000000" font-family="sans-serif" font-size="13" lengthAdjust="spacing" textLength="110" x="241" y="1301.3418">fetch private data</text><polygon fill="#181818" points="223,1331.3945,213,1335.3945,223,1339.3945,219,1335.3945" style="stroke:#181818;stroke-width:1.0;"/><line style="stroke:#181818;stroke-width:1.0;" x1="217" x2="485" y1="1335.3945" y2="1335.3945"/><text fill="#000000" font-family="sans-serif" font-size="13" font-weight="bold" lengthAdjust="spacing" textLength="18" x="229" y="1330.6523">27</text><text fill="#000000" font-family="sans-serif" font-size="13" lengthAdjust="spacing" textLength="74" x="251" y="1330.6523">private data</text><line style="stroke:#181818;stroke-width:1.0;" x1="212" x2="254" y1="1364.7051" y2="1364.7051"/><line style="stroke:#181818;stroke-width:1.0;" x1="254" x2="254" y1="1364.7051" y2="1377.7051"/><line style="stroke:#181818;stroke-width:1.0;" x1="213" x2="254" y1="1377.7051" y2="1377.7051"/><polygon fill="#181818" points="223,1373.7051,213,1377.7051,223,1381.7051,219,1377.7051" style="stroke:#181818;stroke-width:1.0;"/><text fill="#000000" font-family="sans-serif" font-size="13" font-weight="bold" lengthAdjust="spacing" textLength="18" x="219" y="1359.9629">28</text><text fill="#000000" font-family="sans-serif" font-size="13" lengthAdjust="spacing" textLength="150" x="241" y="1359.9629">install new private state</text><polygon fill="#181818" points="34,1410.0156,24,1414.0156,34,1418.0156,30,1414.0156" style="stroke:#181818;stroke-width:1.0;"/><line style="stroke:#181818;stroke-width:1.0;" x1="28" x2="206" y1="1414.0156" y2="1414.0156"/><text fill="#000000" font-family="sans-serif" font-size="13" font-weight="bold" lengthAdjust="spacing" textLength="18" x="40" y="1409.2734">29</text><text fill="#000000" font-family="sans-serif" font-size="13" lengthAdjust="spacing" textLength="133" x="62" y="1409.2734">outcome information</text><text fill="#888888" font-family="sans-serif" font-size="10" lengthAdjust="spacing" textLength="169" x="1043" y="14.668">call-tx-extremely-simplified.puml</text><text fill="#888888" font-family="sans-serif" font-size="10" lengthAdjust="spacing" textLength="123" x="1089" y="26.4453">2024.07.03 at 19:55 CEST</text><text fill="#888888" font-family="sans-serif" font-size="10" lengthAdjust="spacing" textLength="3" x="1209" y="38.2227">&#160;</text><text fill="#888888" font-family="sans-serif" font-size="10" lengthAdjust="spacing" textLength="3" x="1209" y="50">&#160;</text><text fill="#888888" font-family="sans-serif" font-size="10" lengthAdjust="spacing" textLength="3" x="1209" y="61.7773">&#160;</text><text fill="#888888" font-family="sans-serif" font-size="10" lengthAdjust="spacing" textLength="3" x="604.5" y="1436.6836">&#160;</text><text fill="#888888" font-family="sans-serif" font-size="10" lengthAdjust="spacing" textLength="3" x="604.5" y="1448.4609">&#160;</text><text fill="#888888" font-family="sans-serif" font-size="10" lengthAdjust="spacing" textLength="3" x="604.5" y="1460.2383">&#160;</text><text fill="#888888" font-family="sans-serif" font-size="10" lengthAdjust="spacing" textLength="222" x="495" y="1472.0156">Copyright 2024, Input Output Hong Kong, Ltd.</text><!--SRC=[jLVRRkCs47tNLmoyMDX6xFGzG0gqsosowAODi2xQ1mC19OraRYHI9QdOwTTtXjJLbzZTO1KWiaJEpE6PCqDAr4whkepHH1kP8cHQkrZlecYw_FOhci93WS8YI9KKDRbr6sd1Eg5IOLBOe4WveB_1-qmMg4I9i_bQlK-5mzdaXQxh-_lhD9s2S32zkxifI_XtGZFuxste8f4uRQ2sX26Q_YAg2agPRnp424XKf2ccFqoa8hn5WUc4Lc6Pcoq_EfYHhTiWQFfdwEKB2ADhbSuN4DSEy1aLZokG3Wp-Kqk35kZca1WmMkLWiH96EAaLXNHRfBcDRo88qfy8KA9JZ2WHCE772Rn3p29eBh9sCf6LK0uczp9LZFxwgvs0iBIKyFpL7f-_CeAMmy7NwjTQ9VpB6-QYB4LdGtaGCQTmye0gbIfVgmSZdoaxQ_LdnLaAuQem6j4Dl702wh_yUXXt5d1FLqHPRFIMM0VSEIGGMaK7y5f3SXquwJrxnr_GFCk4Wx_B48ylyS5edQqLJqKJKFARy1nrDjDFAiKTmI4zM9ub84I7dqNon66Nb2gseNIKbLP8pjs6zBZLvgcnI4IouR8na55k7LjTqJfbccENt6w4qylIKJH0BewZRr1vt3ByZbvFFVnEQl7p5SjcJ5W_AGITaA-OzIhC2tpGob8cQh-Of7teFKnlttprT4FBD_K2KL3XM6PUFkE2QvmRXcEgIjAKiHNw8T1PQ1vPeRUTAsz64ZpaXuiQbZyEgW1k_7JIsg7vaLh9gPQf_4W7d5pAcw7PtMXx3TnJC5yv58UjPiBaTauuVCbGmkgua0dtFeSB_o9KKNXpuBY3Dgx6_Ij4t5-dVffHhwaBvmD17yjnpIT6Llr8W7Kui9LEeRNjOqwwGEjaIMxc1t1IF86N11JjKUeq59eO0b-T48eHg6uqtrUVl_0CGHsprCGKh3v-N7Bph2fCWKhl91NjfSWi-EevkMcNqsv4jgE4-zjQaH7OZJ0KWsPkcle_6skS_a5peIJGqpFEFB51Tu-wTeLKE4kaIMWRMBIWvlEpWJfwXmqCBho6kFQbub4g6C0ywtQGx4lGZ2ImHrZOC-3gYf1OseknUyLfwQmCkjeeadMqBwQubaLefvPxrMlB68TkzjaRY4KXL8AhtdBcTlFJzRWzheplg-q6xGcDXIKGQuzkruhijAI-IKfx4khOQ-JJ8RX8I1SAQ2ISGoOw3C9QEgqL22BF3URazdKXz2xscsRlu77WO1vTgYLRnwLqgzrH1VLXUNC-DzlFeRdTNdofGGT6FrswylReTa75yhRQ6tIJRc-1jWPA9-V2do5MV_FkJccLcSHGePJhIkJ8wQ7JG6VRhv3yD_iuWUfCtSvRAzoEzj3ElZKPhdrWl1XPGHsEhD4X9Vx4GBJLZWvvVAAWirmfHWewmHyXR0Fsong8l6aPUwtB7- -94ph3CcUU1cPXrFcEPw5dAKENR4vpSuIZ4VApXkEu8zlck-Z_-XZr_01_k1KVMBVpn-6NIzzyNh6x5FdHKzYP2ZWXaq7A1mVAx_i9pT_fr3l33S9NyGTTlHX_r1zyHK_ei_IJgkZ3z8_QyUsElq1_etyB-EpIwxUX_0y0]--></g></svg>