<?xml version="1.0" encoding="UTF-8" standalone="no"?><svg xmlns="http://www.w3.org/2000/svg" xmlns:xlink="http://www.w3.org/1999/xlink" contentStyleType="text/css" height="218px" preserveAspectRatio="none" style="width:794px;height:218px;background:#FFFFFF;" version="1.1" viewBox="0 0 794 218" width="794px" zoomAndPan="magnify"><defs/><g><rect fill="#AFE4E4" height="199.3203" style="stroke:#181818;stroke-width:0.5;" width="136" x="1" y="6"/><text fill="#000000" font-family="sans-serif" font-size="13" font-weight="bold" lengthAdjust="spacing" textLength="50.4375" x="43.7813" y="18.0669">Voter A</text><rect fill="#C2EBD0" height="199.3203" style="stroke:#181818;stroke-width:0.5;" width="136" x="139" y="6"/><text fill="#000000" font-family="sans-serif" font-size="13" font-weight="bold" lengthAdjust="spacing" textLength="50.4375" x="181.7813" y="18.0669">Voter B</text><rect fill="#EAECC6" height="199.3203" style="stroke:#181818;stroke-width:0.5;" width="211" x="277" y="6"/><text fill="#000000" font-family="sans-serif" font-size="13" font-weight="bold" lengthAdjust="spacing" textLength="73.6563" x="345.6719" y="18.0669">Consensus</text><rect fill="#F6E4E9" height="199.3203" style="stroke:#181818;stroke-width:0.5;" width="298" x="490" y="6"/><text fill="#000000" font-family="sans-serif" font-size="13" font-weight="bold" lengthAdjust="spacing" textLength="150.125" x="563.9375" y="18.0669">Election Coordinator C</text><line style="stroke:#181818;stroke-width:0.5;stroke-dasharray:5.0,5.0;" x1="18" x2="18" y1="103.7266" y2="123.7266"/><line style="stroke:#181818;stroke-width:0.5;stroke-dasharray:5.0,5.0;" x1="87" x2="87" y1="103.7266" y2="123.7266"/><line style="stroke:#181818;stroke-width:0.5;stroke-dasharray:5.0,5.0;" x1="156" x2="156" y1="103.7266" y2="123.7266"/><line style="stroke:#181818;stroke-width:0.5;stroke-dasharray:5.0,5.0;" x1="225" x2="225" y1="103.7266" y2="123.7266"/><line style="stroke:#181818;stroke-width:0.5;stroke-dasharray:5.0,5.0;" x1="307" x2="307" y1="103.7266" y2="123.7266"/><line style="stroke:#181818;stroke-width:0.5;stroke-dasharray:5.0,5.0;" x1="376" x2="376" y1="103.7266" y2="123.7266"/><line style="stroke:#181818;stroke-width:0.5;stroke-dasharray:5.0,5.0;" x1="451" x2="451" y1="103.7266" y2="123.7266"/><line style="stroke:#181818;stroke-width:0.5;stroke-dasharray:5.0,5.0;" x1="537" x2="537" y1="103.7266" y2="123.7266"/><line style="stroke:#181818;stroke-width:0.5;stroke-dasharray:5.0,5.0;" x1="636" x2="636" y1="103.7266" y2="123.7266"/><line style="stroke:#181818;stroke-width:0.5;stroke-dasharray:5.0,5.0;" x1="738" x2="738" y1="103.7266" y2="123.7266"/><text fill="#000000" font-family="sans-serif" font-size="14" lengthAdjust="spacing" textLength="9" x="11" y="100.4248">A</text><ellipse cx="18.5" cy="35.9297" fill="#E2E2F0" rx="8" ry="8" style="stroke:#181818;stroke-width:0.5;"/><path d="M18.5,43.9297 L18.5,70.9297 M5.5,51.9297 L31.5,51.9297 M18.5,70.9297 L5.5,85.9297 M18.5,70.9297 L31.5,85.9297 " fill="none" style="stroke:#181818;stroke-width:0.5;"/><text fill="#000000" font-family="sans-serif" font-size="14" lengthAdjust="spacing" textLength="9" x="11" y="135.7217">A</text><ellipse cx="18.5" cy="147.5234" fill="#E2E2F0" rx="8" ry="8" style="stroke:#181818;stroke-width:0.5;"/><path d="M18.5,155.5234 L18.5,182.5234 M5.5,163.5234 L31.5,163.5234 M18.5,182.5234 L5.5,197.5234 M18.5,182.5234 L31.5,197.5234 " fill="none" style="stroke:#181818;stroke-width:0.5;"/><text fill="#000000" font-family="sans-serif" font-size="14" lengthAdjust="spacing" textLength="85" x="42" y="100.4248">private state</text><path d="M69.5,51.4297 C69.5,41.4297 87.5,41.4297 87.5,41.4297 C87.5,41.4297 105.5,41.4297 105.5,51.4297 L105.5,77.4297 C105.5,87.4297 87.5,87.4297 87.5,87.4297 C87.5,87.4297 69.5,87.4297 69.5,77.4297 L69.5,51.4297 " fill="#E2E2F0" style="stroke:#181818;stroke-width:1.5;"/><path d="M69.5,51.4297 C69.5,61.4297 87.5,61.4297 87.5,61.4297 C87.5,61.4297 105.5,61.4297 105.5,51.4297 " fill="none" style="stroke:#181818;stroke-width:1.5;"/><text fill="#000000" font-family="sans-serif" font-size="14" lengthAdjust="spacing" textLength="85" x="42" y="135.7217">private state</text><path d="M69.5,149.0234 C69.5,139.0234 87.5,139.0234 87.5,139.0234 C87.5,139.0234 105.5,139.0234 105.5,149.0234 L105.5,175.0234 C105.5,185.0234 87.5,185.0234 87.5,185.0234 C87.5,185.0234 69.5,185.0234 69.5,175.0234 L69.5,149.0234 " fill="#E2E2F0" style="stroke:#181818;stroke-width:1.5;"/><path d="M69.5,149.0234 C69.5,159.0234 87.5,159.0234 87.5,159.0234 C87.5,159.0234 105.5,159.0234 105.5,149.0234 " fill="none" style="stroke:#181818;stroke-width:1.5;"/><text fill="#000000" font-family="sans-serif" font-size="14" lengthAdjust="spacing" textLength="10" x="148.5" y="100.4248">B</text><ellipse cx="156.5" cy="35.9297" fill="#E2E2F0" rx="8" ry="8" style="stroke:#181818;stroke-width:0.5;"/><path d="M156.5,43.9297 L156.5,70.9297 M143.5,51.9297 L169.5,51.9297 M156.5,70.9297 L143.5,85.9297 M156.5,70.9297 L169.5,85.9297 " fill="none" style="stroke:#181818;stroke-width:0.5;"/><text fill="#000000" font-family="sans-serif" font-size="14" lengthAdjust="spacing" textLength="10" x="148.5" y="135.7217">B</text><ellipse cx="156.5" cy="147.5234" fill="#E2E2F0" rx="8" ry="8" style="stroke:#181818;stroke-width:0.5;"/><path d="M156.5,155.5234 L156.5,182.5234 M143.5,163.5234 L169.5,163.5234 M156.5,182.5234 L143.5,197.5234 M156.5,182.5234 L169.5,197.5234 " fill="none" style="stroke:#181818;stroke-width:0.5;"/><text fill="#000000" font-family="sans-serif" font-size="14" lengthAdjust="spacing" textLength="85" x="180" y="100.4248">private state</text><path d="M207.5,51.4297 C207.5,41.4297 225.5,41.4297 225.5,41.4297 C225.5,41.4297 243.5,41.4297 243.5,51.4297 L243.5,77.4297 C243.5,87.4297 225.5,87.4297 225.5,87.4297 C225.5,87.4297 207.5,87.4297 207.5,77.4297 L207.5,51.4297 " fill="#E2E2F0" style="stroke:#181818;stroke-width:1.5;"/><path d="M207.5,51.4297 C207.5,61.4297 225.5,61.4297 225.5,61.4297 C225.5,61.4297 243.5,61.4297 243.5,51.4297 " fill="none" style="stroke:#181818;stroke-width:1.5;"/><text fill="#000000" font-family="sans-serif" font-size="14" lengthAdjust="spacing" textLength="85" x="180" y="135.7217">private state</text><path d="M207.5,149.0234 C207.5,139.0234 225.5,139.0234 225.5,139.0234 C225.5,139.0234 243.5,139.0234 243.5,149.0234 L243.5,175.0234 C243.5,185.0234 225.5,185.0234 225.5,185.0234 C225.5,185.0234 207.5,185.0234 207.5,175.0234 L207.5,149.0234 " fill="#E2E2F0" style="stroke:#181818;stroke-width:1.5;"/><path d="M207.5,149.0234 C207.5,159.0234 225.5,159.0234 225.5,159.0234 C225.5,159.0234 243.5,159.0234 243.5,149.0234 " fill="none" style="stroke:#181818;stroke-width:1.5;"/><text fill="#000000" font-family="sans-serif" font-size="14" lengthAdjust="spacing" textLength="47" x="281" y="100.4248">Verifier</text><ellipse cx="307.5" cy="71.4297" fill="#E2E2F0" rx="12" ry="12" style="stroke:#181818;stroke-width:0.5;"/><polygon fill="#181818" points="303.5,59.4297,309.5,54.4297,307.5,59.4297,309.5,64.4297,303.5,59.4297" style="stroke:#181818;stroke-width:1.0;"/><text fill="#000000" font-family="sans-serif" font-size="14" lengthAdjust="spacing" textLength="47" x="281" y="135.7217">Verifier</text><ellipse cx="307.5" cy="155.0234" fill="#E2E2F0" rx="12" ry="12" style="stroke:#181818;stroke-width:0.5;"/><polygon fill="#181818" points="303.5,143.0234,309.5,138.0234,307.5,143.0234,309.5,148.0234,303.5,143.0234" style="stroke:#181818;stroke-width:1.0;"/><text fill="#000000" font-family="sans-serif" font-size="14" lengthAdjust="spacing" textLength="59" x="344" y="84.1279">Contract</text><text fill="#000000" font-family="sans-serif" font-size="14" lengthAdjust="spacing" textLength="37" x="355" y="100.4248">Code</text><path d="M358.5,35.1328 C358.5,25.1328 376.5,25.1328 376.5,25.1328 C376.5,25.1328 394.5,25.1328 394.5,35.1328 L394.5,61.1328 C394.5,71.1328 376.5,71.1328 376.5,71.1328 C376.5,71.1328 358.5,71.1328 358.5,61.1328 L358.5,35.1328 " fill="#E2E2F0" style="stroke:#181818;stroke-width:1.5;"/><path d="M358.5,35.1328 C358.5,45.1328 376.5,45.1328 376.5,45.1328 C376.5,45.1328 394.5,45.1328 394.5,35.1328 " fill="none" style="stroke:#181818;stroke-width:1.5;"/><text fill="#000000" font-family="sans-serif" font-size="14" lengthAdjust="spacing" textLength="59" x="344" y="135.7217">Contract</text><text fill="#000000" font-family="sans-serif" font-size="14" lengthAdjust="spacing" textLength="37" x="355" y="152.0186">Code</text><path d="M358.5,165.3203 C358.5,155.3203 376.5,155.3203 376.5,155.3203 C376.5,155.3203 394.5,155.3203 394.5,165.3203 L394.5,191.3203 C394.5,201.3203 376.5,201.3203 376.5,201.3203 C376.5,201.3203 358.5,201.3203 358.5,191.3203 L358.5,165.3203 " fill="#E2E2F0" style="stroke:#181818;stroke-width:1.5;"/><path d="M358.5,165.3203 C358.5,175.3203 376.5,175.3203 376.5,175.3203 C376.5,175.3203 394.5,175.3203 394.5,165.3203 " fill="none" style="stroke:#181818;stroke-width:1.5;"/><text fill="#000000" font-family="sans-serif" font-size="14" lengthAdjust="spacing" textLength="59" x="419" y="84.1279">Contract</text><text fill="#000000" font-family="sans-serif" font-size="14" lengthAdjust="spacing" textLength="44" x="426.5" y="100.4248">States</text><path d="M433.5,35.1328 C433.5,25.1328 451.5,25.1328 451.5,25.1328 C451.5,25.1328 469.5,25.1328 469.5,35.1328 L469.5,61.1328 C469.5,71.1328 451.5,71.1328 451.5,71.1328 C451.5,71.1328 433.5,71.1328 433.5,61.1328 L433.5,35.1328 " fill="#E2E2F0" style="stroke:#181818;stroke-width:1.5;"/><path d="M433.5,35.1328 C433.5,45.1328 451.5,45.1328 451.5,45.1328 C451.5,45.1328 469.5,45.1328 469.5,35.1328 " fill="none" style="stroke:#181818;stroke-width:1.5;"/><text fill="#000000" font-family="sans-serif" font-size="14" lengthAdjust="spacing" textLength="59" x="419" y="135.7217">Contract</text><text fill="#000000" font-family="sans-serif" font-size="14" lengthAdjust="spacing" textLength="44" x="426.5" y="152.0186">States</text><path d="M433.5,165.3203 C433.5,155.3203 451.5,155.3203 451.5,155.3203 C451.5,155.3203 469.5,155.3203 469.5,165.3203 L469.5,191.3203 C469.5,201.3203 451.5,201.3203 451.5,201.3203 C451.5,201.3203 433.5,201.3203 433.5,191.3203 L433.5,165.3203 " fill="#E2E2F0" style="stroke:#181818;stroke-width:1.5;"/><path d="M433.5,165.3203 C433.5,175.3203 451.5,175.3203 451.5,175.3203 C451.5,175.3203 469.5,175.3203 469.5,165.3203 " fill="none" style="stroke:#181818;stroke-width:1.5;"/><text fill="#000000" font-family="sans-serif" font-size="14" lengthAdjust="spacing" textLength="81" x="494" y="100.4248">Coordinator</text><ellipse cx="537.5" cy="35.9297" fill="#E2E2F0" rx="8" ry="8" style="stroke:#181818;stroke-width:0.5;"/><path d="M537.5,43.9297 L537.5,70.9297 M524.5,51.9297 L550.5,51.9297 M537.5,70.9297 L524.5,85.9297 M537.5,70.9297 L550.5,85.9297 " fill="none" style="stroke:#181818;stroke-width:0.5;"/><text fill="#000000" font-family="sans-serif" font-size="14" lengthAdjust="spacing" textLength="81" x="494" y="135.7217">Coordinator</text><ellipse cx="537.5" cy="147.5234" fill="#E2E2F0" rx="8" ry="8" style="stroke:#181818;stroke-width:0.5;"/><path d="M537.5,155.5234 L537.5,182.5234 M524.5,163.5234 L550.5,163.5234 M537.5,182.5234 L524.5,197.5234 M537.5,182.5234 L550.5,197.5234 " fill="none" style="stroke:#181818;stroke-width:0.5;"/><text fill="#000000" font-family="sans-serif" font-size="14" lengthAdjust="spacing" textLength="85" x="591" y="100.4248">private state</text><path d="M618.5,51.4297 C618.5,41.4297 636.5,41.4297 636.5,41.4297 C636.5,41.4297 654.5,41.4297 654.5,51.4297 L654.5,77.4297 C654.5,87.4297 636.5,87.4297 636.5,87.4297 C636.5,87.4297 618.5,87.4297 618.5,77.4297 L618.5,51.4297 " fill="#E2E2F0" style="stroke:#181818;stroke-width:1.5;"/><path d="M618.5,51.4297 C618.5,61.4297 636.5,61.4297 636.5,61.4297 C636.5,61.4297 654.5,61.4297 654.5,51.4297 " fill="none" style="stroke:#181818;stroke-width:1.5;"/><text fill="#000000" font-family="sans-serif" font-size="14" lengthAdjust="spacing" textLength="85" x="591" y="135.7217">private state</text><path d="M618.5,149.0234 C618.5,139.0234 636.5,139.0234 636.5,139.0234 C636.5,139.0234 654.5,139.0234 654.5,149.0234 L654.5,175.0234 C654.5,185.0234 636.5,185.0234 636.5,185.0234 C636.5,185.0234 618.5,185.0234 618.5,175.0234 L618.5,149.0234 " fill="#E2E2F0" style="stroke:#181818;stroke-width:1.5;"/><path d="M618.5,149.0234 C618.5,159.0234 636.5,159.0234 636.5,159.0234 C636.5,159.0234 654.5,159.0234 654.5,149.0234 " fill="none" style="stroke:#181818;stroke-width:1.5;"/><text fill="#000000" font-family="sans-serif" font-size="14" lengthAdjust="spacing" textLength="86" x="692" y="100.4248">registrations</text><path d="M720,51.4297 C720,41.4297 738,41.4297 738,41.4297 C738,41.4297 756,41.4297 756,51.4297 L756,77.4297 C756,87.4297 738,87.4297 738,87.4297 C738,87.4297 720,87.4297 720,77.4297 L720,51.4297 " fill="#E2E2F0" style="stroke:#181818;stroke-width:1.5;"/><path d="M720,51.4297 C720,61.4297 738,61.4297 738,61.4297 C738,61.4297 756,61.4297 756,51.4297 " fill="none" style="stroke:#181818;stroke-width:1.5;"/><text fill="#000000" font-family="sans-serif" font-size="14" lengthAdjust="spacing" textLength="86" x="692" y="135.7217">registrations</text><path d="M720,149.0234 C720,139.0234 738,139.0234 738,139.0234 C738,139.0234 756,139.0234 756,149.0234 L756,175.0234 C756,185.0234 738,185.0234 738,185.0234 C738,185.0234 720,185.0234 720,175.0234 L720,149.0234 " fill="#E2E2F0" style="stroke:#181818;stroke-width:1.5;"/><path d="M720,149.0234 C720,159.0234 738,159.0234 738,159.0234 C738,159.0234 756,159.0234 756,149.0234 " fill="none" style="stroke:#181818;stroke-width:1.5;"/><!--MD5=[b6d366bbd3d879f1b19284d59074830f]
@startuml

skinparam SequenceGroupBodyBackgroundColor transparent

'https://color.hailpixel.com/#4F90C4,AFE4E4,C2EBD0,D4EBC2,EAECC6,F2D9F0,F6E4E9

'blue
box "Voter A" #afe4e4 
        actor "A" as A
        database "private state" as rho_a
end box

'green
box "Voter B" #c2ebd0 
        actor "B" as B
        database "private state" as rho_b
end box

'yellow ugly something
box "Consensus" #eaecc6
        control "Verifier" as verifier
        database "Contract\nCode" as contracts
        database "Contract\nStates" as state
end box

'pink
box "Election Coordinator C" #f6e4e9 
        actor "Coordinator" as C
        database "private state" as rho_c
        database "registrations" as regs
end box



@enduml

@startuml

skinparam SequenceGroupBodyBackgroundColor transparent


box "Voter A" #afe4e4 
        actor "A" as A
        database "private state" as rho_a
end box

box "Voter B" #c2ebd0 
        actor "B" as B
        database "private state" as rho_b
end box

box "Consensus" #eaecc6
        control "Verifier" as verifier
        database "Contract\nCode" as contracts
        database "Contract\nStates" as state
end box

box "Election Coordinator C" #f6e4e9 
        actor "Coordinator" as C
        database "private state" as rho_c
        database "registrations" as regs
end box



@enduml

PlantUML version 1.2022.3(Tue Mar 29 16:10:57 UTC 2022)
(GPL source distribution)
Java Runtime: OpenJDK Runtime Environment
JVM: OpenJDK 64-Bit Server VM
Default Encoding: ANSI_X3.4-1968
Language: en
Country: US
--></g></svg>