<?xml version="1.0" encoding="UTF-8" standalone="no"?><svg xmlns="http://www.w3.org/2000/svg" xmlns:xlink="http://www.w3.org/1999/xlink" contentStyleType="text/css" height="810px" preserveAspectRatio="none" style="width:1168px;height:810px;background:#FFFFFF;" version="1.1" viewBox="0 0 1168 810" width="1168px" zoomAndPan="magnify"><defs/><g><rect fill="#FFA500" height="36.2969" rx="12.5" ry="12.5" style="stroke:#181818;stroke-width:1.5;" width="110.3333" x="377" y="385.9297"/><path d="M394.4167,399.3932 C393.8217,399.3932 393.3083,399.8016 392.9933,400.4199 C393.5183,401.0499 393.8333,401.9132 393.8333,402.9049 C393.8333,403.2432 393.7983,403.5466 393.7283,403.8499 C393.95,403.9782 394.1717,404.0716 394.4167,404.0716 C395.385,404.0716 396.1667,403.0216 396.1667,401.7382 C396.1667,400.4549 395.385,399.4049 394.4167,399.4049 M390.9167,400.5599 C389.9483,400.5599 389.1667,401.6099 389.1667,402.8932 C389.1667,404.1766 389.9483,405.2266 390.9167,405.2266 C391.885,405.2266 392.6667,404.1766 392.6667,402.8932 C392.6667,401.6099 391.885,400.5599 390.9167,400.5599 M396.4583,404.2466 C395.9567,404.8416 395.2683,405.2032 394.4867,405.2266 C394.8017,405.6699 395,406.2066 395,406.7899 L395,407.5599 L397.3333,407.5599 L397.3333,405.6232 C397.3333,405.0166 396.9717,404.4916 396.4583,404.2349 M388.875,405.4132 C388.3617,405.6699 388,406.1949 388,406.8016 L388,408.7382 L393.8333,408.7382 L393.8333,406.8016 C393.8333,406.1949 393.4717,405.6699 392.9583,405.4132 C392.4333,406.0316 391.7217,406.3932 390.9167,406.3932 C390.1117,406.3932 389.4,406.0199 388.875,405.4132 " fill="#000000" style="stroke:;stroke-width:0.0;stroke-dasharray:;"/><text fill="#000000" font-family="sans-serif" font-size="14" lengthAdjust="spacing" textLength="75" x="402.3333" y="408.9248">User Roles</text><rect fill="#F1F1F1" height="36.2969" rx="12.5" ry="12.5" style="stroke:#181818;stroke-width:1.5;" width="131" x="537.3333" y="104.4453"/><text fill="#000000" font-family="sans-serif" font-size="14" lengthAdjust="spacing" textLength="111" x="547.3333" y="127.4404">dApp Developer</text><rect fill="#F1F1F1" height="36.2969" rx="12.5" ry="12.5" style="stroke:#181818;stroke-width:1.5;" width="128" x="718.3333" y="20"/><text fill="#000000" font-family="sans-serif" font-size="14" lengthAdjust="spacing" textLength="108" x="728.3333" y="42.9951">dApp Front-end</text><path d="M668.3333,122.5938 L678.3333,122.5938 C693.3333,122.5938 693.3333,38.1484 708.3333,38.1484 L718.3333,38.1484 " fill="none" style="stroke:#181818;stroke-width:1.0;"/><rect fill="#F1F1F1" height="36.2969" rx="12.5" ry="12.5" style="stroke:#181818;stroke-width:1.5;" width="126" x="718.3333" y="76.2969"/><text fill="#000000" font-family="sans-serif" font-size="14" lengthAdjust="spacing" textLength="106" x="728.3333" y="99.292">dApp Back-end</text><path d="M668.3333,122.5938 L678.3333,122.5938 C693.3333,122.5938 693.3333,94.4453 708.3333,94.4453 L718.3333,94.4453 " fill="none" style="stroke:#181818;stroke-width:1.0;"/><rect fill="#F1F1F1" height="36.2969" rx="12.5" ry="12.5" style="stroke:#181818;stroke-width:1.5;" width="299" x="718.3333" y="132.5938"/><text fill="#000000" font-family="sans-serif" font-size="14" lengthAdjust="spacing" textLength="279" x="728.3333" y="155.5889">dApp Libs (incl. asserts/circuits/gadgets)</text><path d="M668.3333,122.5938 L678.3333,122.5938 C693.3333,122.5938 693.3333,150.7422 708.3333,150.7422 L718.3333,150.7422 " fill="none" style="stroke:#181818;stroke-width:1.0;"/><rect fill="#F1F1F1" height="36.2969" rx="12.5" ry="12.5" style="stroke:#181818;stroke-width:1.5;" width="118" x="718.3333" y="188.8906"/><text fill="#000000" font-family="sans-serif" font-size="14" lengthAdjust="spacing" textLength="98" x="728.3333" y="211.8857">dApp Services</text><path d="M668.3333,122.5938 L678.3333,122.5938 C693.3333,122.5938 693.3333,207.0391 708.3333,207.0391 L718.3333,207.0391 " fill="none" style="stroke:#181818;stroke-width:1.0;"/><path d="M487.3333,404.0781 L497.3333,404.0781 C512.3333,404.0781 512.3333,122.5938 527.3333,122.5938 L537.3333,122.5938 " fill="none" style="stroke:#181818;stroke-width:1.0;"/><rect fill="#F1F1F1" height="36.2969" rx="12.5" ry="12.5" style="stroke:#181818;stroke-width:1.5;" width="175" x="537.3333" y="301.4844"/><text fill="#000000" font-family="sans-serif" font-size="14" lengthAdjust="spacing" textLength="155" x="547.3333" y="324.4795">Component Operators</text><rect fill="#F1F1F1" height="36.2969" rx="12.5" ry="12.5" style="stroke:#181818;stroke-width:1.5;" width="158" x="762.3333" y="245.1875"/><text fill="#000000" font-family="sans-serif" font-size="14" lengthAdjust="spacing" textLength="138" x="772.3333" y="268.1826">Stake Pool Operator</text><path d="M712.3333,319.6328 L722.3333,319.6328 C737.3333,319.6328 737.3333,263.3359 752.3333,263.3359 L762.3333,263.3359 " fill="none" style="stroke:#181818;stroke-width:1.0;"/><rect fill="#F1F1F1" height="36.2969" rx="12.5" ry="12.5" style="stroke:#181818;stroke-width:1.5;" width="191" x="762.3333" y="301.4844"/><text fill="#000000" font-family="sans-serif" font-size="14" lengthAdjust="spacing" textLength="171" x="772.3333" y="324.4795">Wallet Backend Operator</text><path d="M712.3333,319.6328 L722.3333,319.6328 C737.3333,319.6328 737.3333,319.6328 752.3333,319.6328 L762.3333,319.6328 " fill="none" style="stroke:#181818;stroke-width:1.0;"/><rect fill="#F1F1F1" height="36.2969" rx="12.5" ry="12.5" style="stroke:#181818;stroke-width:1.5;" width="169" x="762.3333" y="357.7813"/><text fill="#000000" font-family="sans-serif" font-size="14" lengthAdjust="spacing" textLength="149" x="772.3333" y="380.7764">Proof Server Operator</text><path d="M712.3333,319.6328 L722.3333,319.6328 C737.3333,319.6328 737.3333,375.9297 752.3333,375.9297 L762.3333,375.9297 " fill="none" style="stroke:#181818;stroke-width:1.0;"/><path d="M487.3333,404.0781 L497.3333,404.0781 C512.3333,404.0781 512.3333,319.6328 527.3333,319.6328 L537.3333,319.6328 " fill="none" style="stroke:#181818;stroke-width:1.0;"/><rect fill="#F1F1F1" height="36.2969" rx="12.5" ry="12.5" style="stroke:#181818;stroke-width:1.5;" width="83" x="537.3333" y="582.9688"/><text fill="#000000" font-family="sans-serif" font-size="14" lengthAdjust="spacing" textLength="63" x="547.3333" y="605.9639">End User</text><rect fill="#F1F1F1" height="36.2969" rx="12.5" ry="12.5" style="stroke:#181818;stroke-width:1.5;" width="128" x="670.3333" y="498.5234"/><text fill="#000000" font-family="sans-serif" font-size="14" lengthAdjust="spacing" textLength="108" x="680.3333" y="521.5186">Lightwallet User</text><rect fill="#F1F1F1" height="36.2969" rx="12.5" ry="12.5" style="stroke:#181818;stroke-width:1.5;" width="102" x="848.3333" y="442.2266"/><text fill="#000000" font-family="sans-serif" font-size="14" lengthAdjust="spacing" textLength="82" x="858.3333" y="465.2217">Dust Holder</text><path d="M798.3333,516.6719 L808.3333,516.6719 C823.3333,516.6719 823.3333,460.375 838.3333,460.375 L848.3333,460.375 " fill="none" style="stroke:#181818;stroke-width:1.0;"/><rect fill="#F1F1F1" height="36.2969" rx="12.5" ry="12.5" style="stroke:#181818;stroke-width:1.5;" width="92" x="848.3333" y="498.5234"/><text fill="#000000" font-family="sans-serif" font-size="14" lengthAdjust="spacing" textLength="72" x="858.3333" y="521.5186">dApp User</text><rect fill="#F1F1F1" height="36.2969" rx="12.5" ry="12.5" style="stroke:#181818;stroke-width:1.5;" width="166" x="990.3333" y="414.0781"/><text fill="#000000" font-family="sans-serif" font-size="14" lengthAdjust="spacing" textLength="146" x="1000.3333" y="437.0732">Wrapped Coin Holder</text><path d="M940.3333,516.6719 L950.3333,516.6719 C965.3333,516.6719 965.3333,432.2266 980.3333,432.2266 L990.3333,432.2266 " fill="none" style="stroke:#181818;stroke-width:1.0;"/><rect fill="#F1F1F1" height="36.2969" rx="12.5" ry="12.5" style="stroke:#181818;stroke-width:1.5;" width="166" x="990.3333" y="470.375"/><text fill="#000000" font-family="sans-serif" font-size="14" lengthAdjust="spacing" textLength="146" x="1000.3333" y="493.3701">Wrapped Coin Holder</text><path d="M940.3333,516.6719 L950.3333,516.6719 C965.3333,516.6719 965.3333,488.5234 980.3333,488.5234 L990.3333,488.5234 " fill="none" style="stroke:#181818;stroke-width:1.0;"/><rect fill="#F1F1F1" height="36.2969" rx="12.5" ry="12.5" style="stroke:#181818;stroke-width:1.5;" width="84" x="990.3333" y="526.6719"/><text fill="#000000" font-family="sans-serif" font-size="14" lengthAdjust="spacing" textLength="64" x="1000.3333" y="549.667">ACE User</text><path d="M940.3333,516.6719 L950.3333,516.6719 C965.3333,516.6719 965.3333,544.8203 980.3333,544.8203 L990.3333,544.8203 " fill="none" style="stroke:#181818;stroke-width:1.0;"/><rect fill="#F1F1F1" height="36.2969" rx="12.5" ry="12.5" style="stroke:#181818;stroke-width:1.5;" width="87" x="990.3333" y="582.9688"/><text fill="#000000" font-family="sans-serif" font-size="14" lengthAdjust="spacing" textLength="67" x="1000.3333" y="605.9639">DeFi User</text><path d="M940.3333,516.6719 L950.3333,516.6719 C965.3333,516.6719 965.3333,601.1172 980.3333,601.1172 L990.3333,601.1172 " fill="none" style="stroke:#181818;stroke-width:1.0;"/><path d="M798.3333,516.6719 L808.3333,516.6719 C823.3333,516.6719 823.3333,516.6719 838.3333,516.6719 L848.3333,516.6719 " fill="none" style="stroke:#181818;stroke-width:1.0;"/><path d="M620.3333,601.1172 L630.3333,601.1172 C645.3333,601.1172 645.3333,516.6719 660.3333,516.6719 L670.3333,516.6719 " fill="none" style="stroke:#181818;stroke-width:1.0;"/><rect fill="#F1F1F1" height="36.2969" rx="12.5" ry="12.5" style="stroke:#181818;stroke-width:1.5;" width="77" x="670.3333" y="695.5625"/><text fill="#000000" font-family="sans-serif" font-size="14" lengthAdjust="spacing" textLength="57" x="680.3333" y="718.5576">API User</text><rect fill="#F1F1F1" height="36.2969" rx="12.5" ry="12.5" style="stroke:#181818;stroke-width:1.5;" width="153" x="797.3333" y="639.2656"/><text fill="#000000" font-family="sans-serif" font-size="14" lengthAdjust="spacing" textLength="133" x="807.3333" y="662.2607">Exchange Operator</text><path d="M747.3333,713.7109 L757.3333,713.7109 C772.3333,713.7109 772.3333,657.4141 787.3333,657.4141 L797.3333,657.4141 " fill="none" style="stroke:#181818;stroke-width:1.0;"/><rect fill="#F1F1F1" height="36.2969" rx="12.5" ry="12.5" style="stroke:#181818;stroke-width:1.5;" width="123" x="797.3333" y="695.5625"/><text fill="#000000" font-family="sans-serif" font-size="14" lengthAdjust="spacing" textLength="103" x="807.3333" y="718.5576">Stats Publisher</text><path d="M747.3333,713.7109 L757.3333,713.7109 C772.3333,713.7109 772.3333,713.7109 787.3333,713.7109 L797.3333,713.7109 " fill="none" style="stroke:#181818;stroke-width:1.0;"/><rect fill="#F1F1F1" height="36.2969" rx="12.5" ry="12.5" style="stroke:#181818;stroke-width:1.5;" width="136" x="797.3333" y="751.8594"/><text fill="#000000" font-family="sans-serif" font-size="14" lengthAdjust="spacing" textLength="116" x="807.3333" y="774.8545">Wallet Developer</text><path d="M747.3333,713.7109 L757.3333,713.7109 C772.3333,713.7109 772.3333,770.0078 787.3333,770.0078 L797.3333,770.0078 " fill="none" style="stroke:#181818;stroke-width:1.0;"/><path d="M620.3333,601.1172 L630.3333,601.1172 C645.3333,601.1172 645.3333,713.7109 660.3333,713.7109 L670.3333,713.7109 " fill="none" style="stroke:#181818;stroke-width:1.0;"/><path d="M487.3333,404.0781 L497.3333,404.0781 C512.3333,404.0781 512.3333,601.1172 527.3333,601.1172 L537.3333,601.1172 " fill="none" style="stroke:#181818;stroke-width:1.0;"/><rect fill="#F1F1F1" height="36.2969" rx="12.5" ry="12.5" style="stroke:#181818;stroke-width:1.5;" width="122" x="205" y="385.9297"/><text fill="#000000" font-family="sans-serif" font-size="14" lengthAdjust="spacing" textLength="102" x="215" y="408.9248">Midnight Team</text><rect fill="#F1F1F1" height="36.2969" rx="12.5" ry="12.5" style="stroke:#181818;stroke-width:1.5;" width="145" x="10" y="245.1875"/><text fill="#000000" font-family="sans-serif" font-size="14" lengthAdjust="spacing" textLength="125" x="20" y="268.1826">Midnight Engineer</text><path d="M205,404.0781 L195,404.0781 C180,404.0781 180,263.3359 165,263.3359 L155,263.3359 " fill="none" style="stroke:#181818;stroke-width:1.0;"/><rect fill="#F1F1F1" height="36.2969" rx="12.5" ry="12.5" style="stroke:#181818;stroke-width:1.5;" width="103" x="52" y="301.4844"/><text fill="#000000" font-family="sans-serif" font-size="14" lengthAdjust="spacing" textLength="83" x="62" y="324.4795">Midnight QA</text><path d="M205,404.0781 L195,404.0781 C180,404.0781 180,319.6328 165,319.6328 L155,319.6328 " fill="none" style="stroke:#181818;stroke-width:1.0;"/><rect fill="#F1F1F1" height="36.2969" rx="12.5" ry="12.5" style="stroke:#181818;stroke-width:1.5;" width="115" x="40" y="357.7813"/><text fill="#000000" font-family="sans-serif" font-size="14" lengthAdjust="spacing" textLength="95" x="50" y="380.7764">Scrum Leader</text><path d="M205,404.0781 L195,404.0781 C180,404.0781 180,375.9297 165,375.9297 L155,375.9297 " fill="none" style="stroke:#181818;stroke-width:1.0;"/><rect fill="#F1F1F1" height="36.2969" rx="12.5" ry="12.5" style="stroke:#181818;stroke-width:1.5;" width="123" x="32" y="414.0781"/><text fill="#000000" font-family="sans-serif" font-size="14" lengthAdjust="spacing" textLength="103" x="42" y="437.0732">Product Owner</text><path d="M205,404.0781 L195,404.0781 C180,404.0781 180,432.2266 165,432.2266 L155,432.2266 " fill="none" style="stroke:#181818;stroke-width:1.0;"/><rect fill="#F1F1F1" height="36.2969" rx="12.5" ry="12.5" style="stroke:#181818;stroke-width:1.5;" width="140" x="15" y="470.375"/><text fill="#000000" font-family="sans-serif" font-size="14" lengthAdjust="spacing" textLength="120" x="25" y="493.3701">Release Manager</text><path d="M205,404.0781 L195,404.0781 C180,404.0781 180,488.5234 165,488.5234 L155,488.5234 " fill="none" style="stroke:#181818;stroke-width:1.0;"/><rect fill="#F1F1F1" height="36.2969" rx="12.5" ry="12.5" style="stroke:#181818;stroke-width:1.5;" width="111" x="44" y="526.6719"/><text fill="#000000" font-family="sans-serif" font-size="14" lengthAdjust="spacing" textLength="91" x="54" y="549.667">Management</text><path d="M205,404.0781 L195,404.0781 C180,404.0781 180,544.8203 165,544.8203 L155,544.8203 " fill="none" style="stroke:#181818;stroke-width:1.0;"/><path d="M377,404.0781 L367,404.0781 C352,404.0781 352,404.0781 337,404.0781 L327,404.0781 " fill="none" style="stroke:#181818;stroke-width:1.0;"/><!--MD5=[b4c46ad729b4d18f109113b5c305af64]
@startmindmap
+[#Orange] <&people> User Roles
++ dApp Developer
+++ dApp Front-end
+++ dApp Back-end
+++ dApp Libs (incl. asserts/circuits/gadgets)
+++ dApp Services
++ Component Operators
+++ Stake Pool Operator
+++ Wallet Backend Operator
+++ Proof Server Operator
++ End User
+++ Lightwallet User
++++ Dust Holder
++++ dApp User
+++++ Wrapped Coin Holder
+++++ Wrapped Coin Holder
+++++ ACE User
+++++ DeFi User
+++ API User
++++ Exchange Operator
++++ Stats Publisher
++++ Wallet Developer

- - Midnight Team
- - - Midnight Engineer
- - - Midnight QA
- - - Scrum Leader
- - - Product Owner
- - - Release Manager
- - - Management
@endmindmap

PlantUML version 1.2022.3(Tue Mar 29 16:10:57 UTC 2022)
(GPL source distribution)
Java Runtime: OpenJDK Runtime Environment
JVM: OpenJDK 64-Bit Server VM
Default Encoding: ANSI_X3.4-1968
Language: en
Country: US
--></g></svg>