<?xml version="1.0" encoding="UTF-8" standalone="no"?><svg xmlns="http://www.w3.org/2000/svg" xmlns:xlink="http://www.w3.org/1999/xlink" contentStyleType="text/css" height="594px" preserveAspectRatio="none" style="width:971px;height:594px;background:#FFFFFF;" version="1.1" viewBox="0 0 971 594" width="971px" zoomAndPan="magnify"><defs/><g><!--MD5=[0b4e4b4980470ea387cc45de9bd14b5b]
class Application--><g id="elem_Application"><rect codeLine="7" fill="#F1F1F1" height="42.4883" id="Application" rx="2.5" ry="2.5" style="stroke:#181818;stroke-width:0.5;" width="84" x="442" y="151"/><text fill="#000000" font-family="sans-serif" font-size="14" lengthAdjust="spacing" textLength="78" x="445" y="169.5352">Application</text><line style="stroke:#181818;stroke-width:0.5;" x1="443" x2="525" y1="177.4883" y2="177.4883"/><line style="stroke:#181818;stroke-width:0.5;" x1="443" x2="525" y1="185.4883" y2="185.4883"/></g><!--MD5=[cbffe628ed6e57ebe23096a9f1a087f6]
class TxRequestBuilder--><g id="elem_TxRequestBuilder"><rect codeLine="8" fill="#F1F1F1" height="75.4648" id="TxRequestBuilder" rx="2.5" ry="2.5" style="stroke:#181818;stroke-width:0.5;" width="127" x="244.5" y="134.5"/><text fill="#000000" font-family="sans-serif" font-size="14" lengthAdjust="spacing" textLength="121" x="247.5" y="153.0352">TxRequestBuilder</text><line style="stroke:#181818;stroke-width:0.5;" x1="245.5" x2="370.5" y1="160.9883" y2="160.9883"/><line style="stroke:#181818;stroke-width:1.0;" x1="245.5" x2="370.5" y1="168.9883" y2="168.9883"/><ellipse cx="255.5" cy="179.9883" fill="#000000" rx="3" ry="3" style="stroke:#000000;stroke-width:1.0;"/><text fill="#000000" font-family="sans-serif" font-size="14" lengthAdjust="spacing" textLength="23" x="264.5" y="186.5234">call</text><ellipse cx="255.5" cy="196.4766" fill="#000000" rx="3" ry="3" style="stroke:#000000;stroke-width:1.0;"/><text fill="#000000" font-family="sans-serif" font-size="14" lengthAdjust="spacing" textLength="46" x="264.5" y="203.0117">deploy</text></g><!--MD5=[9fc41e48c9437dcce0993107718fd0ea]
class TxApplier--><g id="elem_TxApplier"><rect codeLine="13" fill="#F1F1F1" height="75.4648" id="TxApplier" rx="2.5" ry="2.5" style="stroke:#181818;stroke-width:0.5;" width="143" x="596.5" y="134.5"/><text fill="#000000" font-family="sans-serif" font-size="14" lengthAdjust="spacing" textLength="68" x="634" y="153.0352">TxApplier</text><line style="stroke:#181818;stroke-width:0.5;" x1="597.5" x2="738.5" y1="160.9883" y2="160.9883"/><line style="stroke:#181818;stroke-width:1.0;" x1="597.5" x2="738.5" y1="168.9883" y2="168.9883"/><ellipse cx="607.5" cy="179.9883" fill="#000000" rx="3" ry="3" style="stroke:#000000;stroke-width:1.0;"/><text fill="#000000" font-family="sans-serif" font-size="14" lengthAdjust="spacing" textLength="99" x="616.5" y="186.5234">installCallback</text><ellipse cx="607.5" cy="196.4766" fill="#000000" rx="3" ry="3" style="stroke:#000000;stroke-width:1.0;"/><text fill="#000000" font-family="sans-serif" font-size="14" lengthAdjust="spacing" textLength="117" x="616.5" y="203.0117">uninstallCallback</text></g><!--MD5=[8c73fe107362772a5489a544fba0c9a4]
class TX--><g id="elem_TX"><rect codeLine="18" fill="#F1F1F1" height="75.4648" id="TX" rx="2.5" ry="2.5" style="stroke:#181818;stroke-width:0.5;" width="150" x="593" y="278"/><text fill="#000000" font-family="sans-serif" font-size="14" lengthAdjust="spacing" textLength="18" x="659" y="296.5352">TX</text><line style="stroke:#181818;stroke-width:0.5;" x1="594" x2="742" y1="304.4883" y2="304.4883"/><ellipse cx="604" cy="315.4883" fill="#000000" rx="3" ry="3" style="stroke:#000000;stroke-width:1.0;"/><text fill="#000000" font-family="sans-serif" font-size="14" lengthAdjust="spacing" textLength="13" x="613" y="322.0234">id</text><ellipse cx="604" cy="331.9766" fill="#000000" rx="3" ry="3" style="stroke:#000000;stroke-width:1.0;"/><text fill="#000000" font-family="sans-serif" font-size="14" lengthAdjust="spacing" textLength="124" x="613" y="338.5117">txRequest [TODO]</text><line style="stroke:#181818;stroke-width:0.5;" x1="594" x2="742" y1="345.4648" y2="345.4648"/></g><!--MD5=[1939c83c028a93e6283d23eee7a25bd1]
class CallTxRequest--><g id="elem_CallTxRequest"><rect codeLine="22" fill="#F1F1F1" height="174.3945" id="CallTxRequest" rx="2.5" ry="2.5" style="stroke:#181818;stroke-width:0.5;" width="138" x="826" y="413"/><text fill="#000000" font-family="sans-serif" font-size="14" lengthAdjust="spacing" textLength="99" x="845.5" y="431.5352">CallTxRequest</text><line style="stroke:#181818;stroke-width:0.5;" x1="827" x2="963" y1="439.4883" y2="439.4883"/><ellipse cx="837" cy="450.4883" fill="#000000" rx="3" ry="3" style="stroke:#000000;stroke-width:1.0;"/><text fill="#000000" font-family="sans-serif" font-size="14" lengthAdjust="spacing" textLength="13" x="846" y="457.0234">id</text><ellipse cx="837" cy="466.9766" fill="#000000" rx="3" ry="3" style="stroke:#000000;stroke-width:1.0;"/><text fill="#000000" font-family="sans-serif" font-size="14" lengthAdjust="spacing" textLength="54" x="846" y="473.5117">address</text><ellipse cx="837" cy="483.4648" fill="#000000" rx="3" ry="3" style="stroke:#000000;stroke-width:1.0;"/><text fill="#000000" font-family="sans-serif" font-size="14" lengthAdjust="spacing" textLength="57" x="846" y="490">function</text><ellipse cx="837" cy="499.9531" fill="#000000" rx="3" ry="3" style="stroke:#000000;stroke-width:1.0;"/><text fill="#000000" font-family="sans-serif" font-size="14" lengthAdjust="spacing" textLength="74" x="846" y="506.4883">arguments</text><ellipse cx="837" cy="516.4414" fill="#000000" rx="3" ry="3" style="stroke:#000000;stroke-width:1.0;"/><text fill="#000000" font-family="sans-serif" font-size="14" lengthAdjust="spacing" textLength="38" x="846" y="522.9766">proof</text><ellipse cx="837" cy="532.9297" fill="#000000" rx="3" ry="3" style="stroke:#000000;stroke-width:1.0;"/><text fill="#000000" font-family="sans-serif" font-size="14" lengthAdjust="spacing" textLength="42" x="846" y="539.4648">nonce</text><ellipse cx="837" cy="549.418" fill="#000000" rx="3" ry="3" style="stroke:#000000;stroke-width:1.0;"/><text fill="#000000" font-family="sans-serif" font-size="14" lengthAdjust="spacing" textLength="112" x="846" y="555.9531">publicTranscript</text><ellipse cx="837" cy="565.9063" fill="#000000" rx="3" ry="3" style="stroke:#000000;stroke-width:1.0;"/><text fill="#000000" font-family="sans-serif" font-size="14" lengthAdjust="spacing" textLength="42" x="846" y="572.4414">circuit</text><line style="stroke:#181818;stroke-width:0.5;" x1="827" x2="963" y1="579.3945" y2="579.3945"/></g><!--MD5=[886807518a1352e4432ac184146af364]
class DeployTxRequest--><g id="elem_DeployTxRequest"><rect codeLine="32" fill="#F1F1F1" height="124.9297" id="DeployTxRequest" rx="2.5" ry="2.5" style="stroke:#181818;stroke-width:0.5;" width="126" x="535" y="437.5"/><text fill="#000000" font-family="sans-serif" font-size="14" lengthAdjust="spacing" textLength="120" x="538" y="456.0352">DeployTxRequest</text><line style="stroke:#181818;stroke-width:0.5;" x1="536" x2="660" y1="463.9883" y2="463.9883"/><ellipse cx="546" cy="474.9883" fill="#000000" rx="3" ry="3" style="stroke:#000000;stroke-width:1.0;"/><text fill="#000000" font-family="sans-serif" font-size="14" lengthAdjust="spacing" textLength="13" x="555" y="481.5234">id</text><ellipse cx="546" cy="491.4766" fill="#000000" rx="3" ry="3" style="stroke:#000000;stroke-width:1.0;"/><text fill="#000000" font-family="sans-serif" font-size="14" lengthAdjust="spacing" textLength="72" x="555" y="498.0117">timestamp</text><ellipse cx="546" cy="507.9648" fill="#000000" rx="3" ry="3" style="stroke:#000000;stroke-width:1.0;"/><text fill="#000000" font-family="sans-serif" font-size="14" lengthAdjust="spacing" textLength="33" x="555" y="514.5">state</text><ellipse cx="546" cy="524.4531" fill="#000000" rx="3" ry="3" style="stroke:#000000;stroke-width:1.0;"/><text fill="#000000" font-family="sans-serif" font-size="14" lengthAdjust="spacing" textLength="33" x="555" y="530.9883">code</text><ellipse cx="546" cy="540.9414" fill="#000000" rx="3" ry="3" style="stroke:#000000;stroke-width:1.0;"/><text fill="#000000" font-family="sans-serif" font-size="14" lengthAdjust="spacing" textLength="49" x="555" y="547.4766">circuits</text><line style="stroke:#181818;stroke-width:0.5;" x1="536" x2="660" y1="554.4297" y2="554.4297"/></g><!--MD5=[51cc31f05357ddc21bf329df57352a15]
class PendingPrivateTranscript--><g id="elem_PendingPrivateTranscript"><rect codeLine="39" fill="#F1F1F1" height="58.9766" id="PendingPrivateTranscript" rx="2.5" ry="2.5" style="stroke:#181818;stroke-width:0.5;" width="178" x="399" y="7"/><text fill="#000000" font-family="sans-serif" font-size="14" lengthAdjust="spacing" textLength="172" x="402" y="25.5352">PendingPrivateTranscript</text><line style="stroke:#181818;stroke-width:0.5;" x1="400" x2="576" y1="33.4883" y2="33.4883"/><ellipse cx="410" cy="44.4883" fill="#000000" rx="3" ry="3" style="stroke:#000000;stroke-width:1.0;"/><text fill="#000000" font-family="sans-serif" font-size="14" lengthAdjust="spacing" textLength="13" x="419" y="51.0234">id</text><line style="stroke:#181818;stroke-width:0.5;" x1="400" x2="576" y1="57.9766" y2="57.9766"/></g><!--MD5=[461026a38b737c4ce5e8254b9a577e21]
class Contract--><g id="elem_Contract"><rect codeLine="42" fill="#F1F1F1" height="58.9766" id="Contract" rx="2.5" ry="2.5" style="stroke:#181818;stroke-width:0.5;" width="65" x="173.5" y="286"/><text fill="#000000" font-family="sans-serif" font-size="14" lengthAdjust="spacing" textLength="59" x="176.5" y="304.5352">Contract</text><line style="stroke:#181818;stroke-width:0.5;" x1="174.5" x2="237.5" y1="312.4883" y2="312.4883"/><ellipse cx="184.5" cy="323.4883" fill="#000000" rx="3" ry="3" style="stroke:#000000;stroke-width:1.0;"/><text fill="#000000" font-family="sans-serif" font-size="14" lengthAdjust="spacing" textLength="13" x="193.5" y="330.0234">id</text><line style="stroke:#181818;stroke-width:0.5;" x1="174.5" x2="237.5" y1="336.9766" y2="336.9766"/></g><!--MD5=[86b1bbd3ddf7b51c48574193985a1ace]
class PublicOracle--><g id="elem_PublicOracle"><rect codeLine="45" fill="#F1F1F1" height="75.4648" id="PublicOracle" rx="2.5" ry="2.5" style="stroke:#181818;stroke-width:0.5;" width="91" x="83.5" y="134.5"/><text fill="#000000" font-family="sans-serif" font-size="14" lengthAdjust="spacing" textLength="85" x="86.5" y="153.0352">PublicOracle</text><line style="stroke:#181818;stroke-width:0.5;" x1="84.5" x2="173.5" y1="160.9883" y2="160.9883"/><ellipse cx="94.5" cy="171.9883" fill="#000000" rx="3" ry="3" style="stroke:#000000;stroke-width:1.0;"/><text fill="#000000" font-family="sans-serif" font-size="14" lengthAdjust="spacing" textLength="33" x="103.5" y="178.5234">state</text><ellipse cx="94.5" cy="188.4766" fill="#000000" rx="3" ry="3" style="stroke:#000000;stroke-width:1.0;"/><text fill="#000000" font-family="sans-serif" font-size="14" lengthAdjust="spacing" textLength="33" x="103.5" y="195.0117">code</text><line style="stroke:#181818;stroke-width:0.5;" x1="84.5" x2="173.5" y1="201.9648" y2="201.9648"/></g><!--MD5=[d4fe85051e8edea9bfe792ad31951013]
class PrivateOracle--><g id="elem_PrivateOracle"><rect codeLine="49" fill="#F1F1F1" height="75.4648" id="PrivateOracle" rx="2.5" ry="2.5" style="stroke:#181818;stroke-width:0.5;" width="96" x="7" y="278"/><text fill="#000000" font-family="sans-serif" font-size="14" lengthAdjust="spacing" textLength="90" x="10" y="296.5352">PrivateOracle</text><line style="stroke:#181818;stroke-width:0.5;" x1="8" x2="102" y1="304.4883" y2="304.4883"/><ellipse cx="18" cy="315.4883" fill="#000000" rx="3" ry="3" style="stroke:#000000;stroke-width:1.0;"/><text fill="#000000" font-family="sans-serif" font-size="14" lengthAdjust="spacing" textLength="33" x="27" y="322.0234">state</text><ellipse cx="18" cy="331.9766" fill="#000000" rx="3" ry="3" style="stroke:#000000;stroke-width:1.0;"/><text fill="#000000" font-family="sans-serif" font-size="14" lengthAdjust="spacing" textLength="33" x="27" y="338.5117">code</text><line style="stroke:#181818;stroke-width:0.5;" x1="8" x2="102" y1="345.4648" y2="345.4648"/></g><!--MD5=[3bb9fe1b0d793c16f330caea4bde0f49]
class TransitionFunction--><g id="elem_TransitionFunction"><rect codeLine="53" fill="#F1F1F1" height="75.4648" id="TransitionFunction" rx="2.5" ry="2.5" style="stroke:#181818;stroke-width:0.5;" width="136" x="138" y="462.5"/><text fill="#000000" font-family="sans-serif" font-size="14" lengthAdjust="spacing" textLength="130" x="141" y="481.0352">TransitionFunction</text><line style="stroke:#181818;stroke-width:0.5;" x1="139" x2="273" y1="488.9883" y2="488.9883"/><ellipse cx="149" cy="499.9883" fill="#000000" rx="3" ry="3" style="stroke:#000000;stroke-width:1.0;"/><text fill="#000000" font-family="sans-serif" font-size="14" lengthAdjust="spacing" textLength="42" x="158" y="506.5234">circuit</text><ellipse cx="149" cy="516.4766" fill="#000000" rx="3" ry="3" style="stroke:#000000;stroke-width:1.0;"/><text fill="#000000" font-family="sans-serif" font-size="14" lengthAdjust="spacing" textLength="33" x="158" y="523.0117">code</text><line style="stroke:#181818;stroke-width:0.5;" x1="139" x2="273" y1="529.9648" y2="529.9648"/></g><!--MD5=[e78bd7e58ea3f08ea6fc6b194b816781]
class WalletBackend--><g id="elem_WalletBackend"><rect codeLine="57" fill="#F1F1F1" height="91.9531" id="WalletBackend" rx="2.5" ry="2.5" style="stroke:#181818;stroke-width:0.5;" width="132" x="810" y="126"/><text fill="#000000" font-family="sans-serif" font-size="14" lengthAdjust="spacing" textLength="98" x="827" y="144.5352">WalletBackend</text><line style="stroke:#181818;stroke-width:0.5;" x1="811" x2="941" y1="152.4883" y2="152.4883"/><line style="stroke:#181818;stroke-width:1.0;" x1="811" x2="941" y1="160.4883" y2="160.4883"/><ellipse cx="821" cy="171.4883" fill="#000000" rx="3" ry="3" style="stroke:#000000;stroke-width:1.0;"/><text fill="#000000" font-family="sans-serif" font-size="14" lengthAdjust="spacing" textLength="106" x="830" y="178.0234">sendTxRequest</text><ellipse cx="821" cy="187.9766" fill="#000000" rx="3" ry="3" style="stroke:#000000;stroke-width:1.0;"/><text fill="#000000" font-family="sans-serif" font-size="14" lengthAdjust="spacing" textLength="76" x="830" y="194.5117">installFilter</text><ellipse cx="821" cy="204.4648" fill="#000000" rx="3" ry="3" style="stroke:#000000;stroke-width:1.0;"/><text fill="#000000" font-family="sans-serif" font-size="14" lengthAdjust="spacing" textLength="94" x="830" y="211">uninstallFilter</text></g><!--MD5=[5e6655de6ed48317cbeefd4d358d6310]
link TxRequestBuilder to Application--><g id="link_TxRequestBuilder_Application"><path codeLine="64" d="M378.54,172 C378.54,172 434.98,172 434.98,172 " fill="none" id="TxRequestBuilder-Application" style="stroke:#181818;stroke-width:1.0;"/><line style="stroke:#181818;stroke-width:1.0;" x1="437.98" x2="437.98" y1="168" y2="176"/><line style="stroke:#181818;stroke-width:1.0;" x1="434.98" x2="434.98" y1="168" y2="176"/><line style="stroke:#181818;stroke-width:1.0;" x1="433.98" x2="441.98" y1="172" y2="172"/><line style="stroke:#181818;stroke-width:1.0;" x1="375.54" x2="375.54" y1="176" y2="168"/><line style="stroke:#181818;stroke-width:1.0;" x1="378.54" x2="378.54" y1="176" y2="168"/><line style="stroke:#181818;stroke-width:1.0;" x1="379.54" x2="371.54" y1="172" y2="172"/><text fill="#000000" font-family="sans-serif" font-size="10" lengthAdjust="spacing" textLength="56" x="378.76" y="182.668">connects to</text></g><!--MD5=[2edc7facdcc31a857d5716f083d9eb67]
link Application to TxApplier--><g id="link_Application_TxApplier"><path codeLine="65" d="M533.21,172 C533.21,172 589.4,172 589.4,172 " fill="none" id="Application-TxApplier" style="stroke:#181818;stroke-width:1.0;"/><line style="stroke:#181818;stroke-width:1.0;" x1="592.4" x2="592.4" y1="168" y2="176"/><line style="stroke:#181818;stroke-width:1.0;" x1="589.4" x2="589.4" y1="168" y2="176"/><line style="stroke:#181818;stroke-width:1.0;" x1="588.4" x2="596.4" y1="172" y2="172"/><line style="stroke:#181818;stroke-width:1.0;" x1="530.21" x2="530.21" y1="176" y2="168"/><line style="stroke:#181818;stroke-width:1.0;" x1="533.21" x2="533.21" y1="176" y2="168"/><line style="stroke:#181818;stroke-width:1.0;" x1="534.21" x2="526.21" y1="172" y2="172"/><text fill="#000000" font-family="sans-serif" font-size="10" lengthAdjust="spacing" textLength="56" x="533.31" y="182.668">connects to</text></g><!--MD5=[2685401452fe5e1b1d00a377c6d14c3a]
link PendingPrivateTranscript to TxRequestBuilder--><g id="link_PendingPrivateTranscript_TxRequestBuilder"><path codeLine="66" d="M420.5,74.16 C420.5,74.16 420.5,140 420.5,140 C420.5,140 379.81,140 379.81,140 " fill="none" id="PendingPrivateTranscript-TxRequestBuilder" style="stroke:#181818;stroke-width:1.0;"/><line style="stroke:#181818;stroke-width:1.0;" x1="375.81" x2="375.81" y1="144" y2="136"/><line style="stroke:#181818;stroke-width:1.0;" x1="378.81" x2="378.81" y1="144" y2="136"/><line style="stroke:#181818;stroke-width:1.0;" x1="379.81" x2="371.81" y1="140" y2="140"/><line style="stroke:#181818;stroke-width:1.0;" x1="420.5" x2="414.5" y1="74.16" y2="66.16"/><line style="stroke:#181818;stroke-width:1.0;" x1="420.5" x2="426.5" y1="74.16" y2="66.16"/><line style="stroke:#181818;stroke-width:1.0;" x1="420.5" x2="420.5" y1="74.16" y2="66.16"/><line style="stroke:#181818;stroke-width:1.0;" x1="416.5" x2="424.5" y1="76.16" y2="76.16"/><text fill="#000000" font-family="sans-serif" font-size="10" lengthAdjust="spacing" textLength="44" x="375.5" y="125.088">produces</text></g><!--MD5=[ddf493d9ec71b7954c3af12e88bf063b]
link TxRequestBuilder to CallTxRequest--><g id="link_TxRequestBuilder_CallTxRequest"><path codeLine="67" d="M322.75,217.75 C322.75,217.75 322.75,426 322.75,426 C322.75,426 817.97,426 817.97,426 " fill="none" id="TxRequestBuilder-CallTxRequest" style="stroke:#181818;stroke-width:1.0;"/><line style="stroke:#181818;stroke-width:1.0;" x1="817.97" x2="825.97" y1="426" y2="420"/><line style="stroke:#181818;stroke-width:1.0;" x1="817.97" x2="825.97" y1="426" y2="432"/><line style="stroke:#181818;stroke-width:1.0;" x1="817.97" x2="825.97" y1="426" y2="426"/><line style="stroke:#181818;stroke-width:1.0;" x1="815.97" x2="815.97" y1="422" y2="430"/><line style="stroke:#181818;stroke-width:1.0;" x1="318.75" x2="326.75" y1="213.75" y2="213.75"/><line style="stroke:#181818;stroke-width:1.0;" x1="318.75" x2="326.75" y1="216.75" y2="216.75"/><line style="stroke:#181818;stroke-width:1.0;" x1="322.75" x2="322.75" y1="217.75" y2="209.75"/><text fill="#000000" font-family="sans-serif" font-size="10" lengthAdjust="spacing" textLength="44" x="421.24" y="423.668">produces</text></g><!--MD5=[947266b61ecf66c1bcf1efba61c1349f]
link TxRequestBuilder to DeployTxRequest--><g id="link_TxRequestBuilder_DeployTxRequest"><path codeLine="68" d="M379.64,204 C379.64,204 549,204 549,204 C549,204 549,429.23 549,429.23 " fill="none" id="TxRequestBuilder-DeployTxRequest" style="stroke:#181818;stroke-width:1.0;"/><line style="stroke:#181818;stroke-width:1.0;" x1="549" x2="555" y1="429.23" y2="437.23"/><line style="stroke:#181818;stroke-width:1.0;" x1="549" x2="543" y1="429.23" y2="437.23"/><line style="stroke:#181818;stroke-width:1.0;" x1="549" x2="549" y1="429.23" y2="437.23"/><line style="stroke:#181818;stroke-width:1.0;" x1="553" x2="545" y1="427.23" y2="427.23"/><line style="stroke:#181818;stroke-width:1.0;" x1="375.64" x2="375.64" y1="208" y2="200"/><line style="stroke:#181818;stroke-width:1.0;" x1="378.64" x2="378.64" y1="208" y2="200"/><line style="stroke:#181818;stroke-width:1.0;" x1="379.64" x2="371.64" y1="204" y2="204"/><text fill="#000000" font-family="sans-serif" font-size="10" lengthAdjust="spacing" textLength="44" x="504" y="229.598">produces</text></g><!--MD5=[df5fc5cf11f455756a1c385c25fb15ec]
link TxRequestBuilder to Contract--><g id="link_TxRequestBuilder_Contract"><path codeLine="69" d="M259.25,217.68 C259.25,217.68 259.25,306 259.25,306 C259.25,306 246.51,306 246.51,306 " fill="none" id="TxRequestBuilder-Contract" style="stroke:#181818;stroke-width:1.0;"/><line style="stroke:#181818;stroke-width:1.0;" x1="246.51" x2="238.51" y1="306" y2="312"/><line style="stroke:#181818;stroke-width:1.0;" x1="246.51" x2="238.51" y1="306" y2="300"/><line style="stroke:#181818;stroke-width:1.0;" x1="246.51" x2="238.51" y1="306" y2="306"/><line style="stroke:#181818;stroke-width:1.0;" x1="248.51" x2="248.51" y1="310" y2="302"/><line style="stroke:#181818;stroke-width:1.0;" x1="255.25" x2="263.25" y1="213.68" y2="213.68"/><line style="stroke:#181818;stroke-width:1.0;" x1="255.25" x2="263.25" y1="216.68" y2="216.68"/><line style="stroke:#181818;stroke-width:1.0;" x1="259.25" x2="259.25" y1="217.68" y2="209.68"/><text fill="#000000" font-family="sans-serif" font-size="10" lengthAdjust="spacing" textLength="43" x="215.25" y="265.878">retrieves</text></g><!--MD5=[2a9f7870fb07ea0101cd525ba4724afc]
link TxApplier to TX--><g id="link_TxApplier_TX"><path codeLine="70" d="M668,217.7 C668,217.7 668,269.55 668,269.55 " fill="none" id="TxApplier-TX" style="stroke:#181818;stroke-width:1.0;"/><line style="stroke:#181818;stroke-width:1.0;" x1="668" x2="674" y1="269.55" y2="277.55"/><line style="stroke:#181818;stroke-width:1.0;" x1="668" x2="662" y1="269.55" y2="277.55"/><line style="stroke:#181818;stroke-width:1.0;" x1="668" x2="668" y1="269.55" y2="277.55"/><line style="stroke:#181818;stroke-width:1.0;" x1="672" x2="664" y1="267.55" y2="267.55"/><line style="stroke:#181818;stroke-width:1.0;" x1="664" x2="672" y1="213.7" y2="213.7"/><line style="stroke:#181818;stroke-width:1.0;" x1="664" x2="672" y1="216.7" y2="216.7"/><line style="stroke:#181818;stroke-width:1.0;" x1="668" x2="668" y1="217.7" y2="209.7"/><text fill="#000000" font-family="sans-serif" font-size="10" lengthAdjust="spacing" textLength="35" x="632" y="241.298">applies</text></g><!--MD5=[7640715e9ad9de3cb67e82583383face]
link PendingPrivateTranscript to TxApplier--><g id="link_PendingPrivateTranscript_TxApplier"><path codeLine="71" d="M563,74.13 C563,74.13 563,146 563,146 C563,146 588.22,146 588.22,146 " fill="none" id="PendingPrivateTranscript-TxApplier" style="stroke:#181818;stroke-width:1.0;"/><line style="stroke:#181818;stroke-width:1.0;" x1="592.22" x2="592.22" y1="142" y2="150"/><line style="stroke:#181818;stroke-width:1.0;" x1="589.22" x2="589.22" y1="142" y2="150"/><line style="stroke:#181818;stroke-width:1.0;" x1="588.22" x2="596.22" y1="146" y2="146"/><line style="stroke:#181818;stroke-width:1.0;" x1="563" x2="557" y1="74.13" y2="66.13"/><line style="stroke:#181818;stroke-width:1.0;" x1="563" x2="569" y1="74.13" y2="66.13"/><line style="stroke:#181818;stroke-width:1.0;" x1="563" x2="563" y1="74.13" y2="66.13"/><line style="stroke:#181818;stroke-width:1.0;" x1="559" x2="567" y1="76.13" y2="76.13"/><text fill="#000000" font-family="sans-serif" font-size="10" lengthAdjust="spacing" textLength="35" x="527" y="120.348">applies</text></g><!--MD5=[ae571a640264f5fe6afc03293eee86d6]
link TxApplier to Contract--><g id="link_TxApplier_Contract"><path codeLine="72" d="M588.19,199 C588.19,199 585,199 585,199 C585,199 585,326 585,326 C585,326 246.64,326 246.64,326 " fill="none" id="TxApplier-Contract" style="stroke:#181818;stroke-width:1.0;"/><line style="stroke:#181818;stroke-width:1.0;" x1="246.64" x2="238.64" y1="326" y2="332"/><line style="stroke:#181818;stroke-width:1.0;" x1="246.64" x2="238.64" y1="326" y2="320"/><line style="stroke:#181818;stroke-width:1.0;" x1="246.64" x2="238.64" y1="326" y2="326"/><line style="stroke:#181818;stroke-width:1.0;" x1="248.64" x2="248.64" y1="330" y2="322"/><line style="stroke:#181818;stroke-width:1.0;" x1="592.19" x2="592.19" y1="195" y2="203"/><line style="stroke:#181818;stroke-width:1.0;" x1="589.19" x2="589.19" y1="195" y2="203"/><line style="stroke:#181818;stroke-width:1.0;" x1="588.19" x2="596.19" y1="199" y2="199"/><text fill="#000000" font-family="sans-serif" font-size="10" lengthAdjust="spacing" textLength="43" x="436.92" y="323.668">retrieves</text></g><!--MD5=[186c6e5c1adb84239a038578b240ea04]
link PublicOracle to Contract--><g id="link_PublicOracle_Contract"><path codeLine="73" d="M155.75,216.68 C155.75,216.68 155.75,306 155.75,306 C155.75,306 166.33,306 166.33,306 " fill="none" id="PublicOracle-Contract" style="stroke:#181818;stroke-width:1.0;stroke-dasharray:7.0,7.0;"/><line style="stroke:#181818;stroke-width:1.0;" x1="169.3382" x2="169.3218" y1="301.9918" y2="309.9918"/><line style="stroke:#181818;stroke-width:1.0;" x1="166.3382" x2="166.3219" y1="301.9857" y2="309.9857"/><line style="stroke:#181818;stroke-width:1.0;" x1="165.33" x2="173.33" y1="305.9837" y2="306"/><line style="stroke:#181818;stroke-width:1.0;" x1="151.75" x2="159.75" y1="213.68" y2="213.68"/><line style="stroke:#181818;stroke-width:1.0;" x1="151.75" x2="159.75" y1="216.68" y2="216.68"/><line style="stroke:#181818;stroke-width:1.0;" x1="155.75" x2="155.75" y1="217.68" y2="209.68"/></g><!--MD5=[301534fafeb2bd189f14f1013d138a81]
link PrivateOracle to Contract--><g id="link_PrivateOracle_Contract"><path codeLine="74" d="M110.19,326 C110.19,326 166.04,326 166.04,326 " fill="none" id="PrivateOracle-Contract" style="stroke:#181818;stroke-width:1.0;stroke-dasharray:7.0,7.0;"/><line style="stroke:#181818;stroke-width:1.0;" x1="169.04" x2="169.04" y1="322" y2="330"/><line style="stroke:#181818;stroke-width:1.0;" x1="166.04" x2="166.04" y1="322" y2="330"/><line style="stroke:#181818;stroke-width:1.0;" x1="165.04" x2="173.04" y1="326" y2="326"/><line style="stroke:#181818;stroke-width:1.0;" x1="107.19" x2="107.19" y1="330" y2="322"/><line style="stroke:#181818;stroke-width:1.0;" x1="110.19" x2="110.19" y1="330" y2="322"/><line style="stroke:#181818;stroke-width:1.0;" x1="111.19" x2="103.19" y1="326" y2="326"/></g><!--MD5=[50f132bad18b91033c277e3d81961dbd]
link Contract to TransitionFunction--><g id="link_Contract_TransitionFunction"><path codeLine="75" d="M206,353.14 C206,353.14 206,454.45 206,454.45 " fill="none" id="Contract-TransitionFunction" style="stroke:#181818;stroke-width:1.0;stroke-dasharray:7.0,7.0;"/><line style="stroke:#181818;stroke-width:1.0;" x1="206" x2="212" y1="454.45" y2="462.45"/><line style="stroke:#181818;stroke-width:1.0;" x1="206" x2="200" y1="454.45" y2="462.45"/><line style="stroke:#181818;stroke-width:1.0;" x1="206" x2="206" y1="454.45" y2="462.45"/><line style="stroke:#181818;stroke-width:1.0;" x1="210" x2="202" y1="452.45" y2="452.45"/><line style="stroke:#181818;stroke-width:1.0;" x1="202" x2="210" y1="349.14" y2="349.14"/><line style="stroke:#181818;stroke-width:1.0;" x1="202" x2="210" y1="352.14" y2="352.14"/><line style="stroke:#181818;stroke-width:1.0;" x1="206" x2="206" y1="353.14" y2="345.14"/></g><!--MD5=[7a0e5eda453679fed326baa47d4e5ead]
link WalletBackend to DeployTxRequest--><g id="link_WalletBackend_DeployTxRequest"><path codeLine="76" d="M820.67,226.3 C820.67,226.3 820.67,500 820.67,500 C820.67,500 669.21,500 669.21,500 " fill="none" id="WalletBackend-DeployTxRequest" style="stroke:#181818;stroke-width:1.0;"/><line style="stroke:#181818;stroke-width:1.0;" x1="669.21" x2="661.21" y1="500" y2="506"/><line style="stroke:#181818;stroke-width:1.0;" x1="669.21" x2="661.21" y1="500" y2="494"/><line style="stroke:#181818;stroke-width:1.0;" x1="669.21" x2="661.21" y1="500" y2="500"/><ellipse cx="675.21" cy="500" fill="none" rx="4" ry="4" style="stroke:#181818;stroke-width:1.0;"/><line style="stroke:#181818;stroke-width:1.0;" x1="816.67" x2="824.67" y1="222.3" y2="222.3"/><line style="stroke:#181818;stroke-width:1.0;" x1="816.67" x2="824.67" y1="225.3" y2="225.3"/><line style="stroke:#181818;stroke-width:1.0;" x1="820.67" x2="820.67" y1="226.3" y2="218.3"/><text fill="#000000" font-family="sans-serif" font-size="10" lengthAdjust="spacing" textLength="40" x="779.67" y="436.548">receives</text></g><!--MD5=[b4e2e39b59dee7df272df785124c9a95]
link WalletBackend to CallTxRequest--><g id="link_WalletBackend_CallTxRequest"><path codeLine="77" d="M884,226.3 C884,226.3 884,404.99 884,404.99 " fill="none" id="WalletBackend-CallTxRequest" style="stroke:#181818;stroke-width:1.0;"/><line style="stroke:#181818;stroke-width:1.0;" x1="884" x2="890" y1="404.99" y2="412.99"/><line style="stroke:#181818;stroke-width:1.0;" x1="884" x2="878" y1="404.99" y2="412.99"/><line style="stroke:#181818;stroke-width:1.0;" x1="884" x2="884" y1="404.99" y2="412.99"/><ellipse cx="884" cy="398.99" fill="none" rx="4" ry="4" style="stroke:#181818;stroke-width:1.0;"/><line style="stroke:#181818;stroke-width:1.0;" x1="880" x2="888" y1="222.3" y2="222.3"/><line style="stroke:#181818;stroke-width:1.0;" x1="880" x2="888" y1="225.3" y2="225.3"/><line style="stroke:#181818;stroke-width:1.0;" x1="884" x2="884" y1="226.3" y2="218.3"/><text fill="#000000" font-family="sans-serif" font-size="10" lengthAdjust="spacing" textLength="40" x="843" y="313.308">receives</text></g><!--MD5=[5780171112daa37ffd64fa743232e444]
link WalletBackend to TX--><g id="link_WalletBackend_TX"><path codeLine="78" d="M815.33,226.36 C815.33,226.36 815.33,316 815.33,316 C815.33,316 751.39,316 751.39,316 " fill="none" id="WalletBackend-TX" style="stroke:#181818;stroke-width:1.0;"/><line style="stroke:#181818;stroke-width:1.0;" x1="751.39" x2="743.39" y1="316" y2="322"/><line style="stroke:#181818;stroke-width:1.0;" x1="751.39" x2="743.39" y1="316" y2="310"/><line style="stroke:#181818;stroke-width:1.0;" x1="751.39" x2="743.39" y1="316" y2="316"/><ellipse cx="757.39" cy="316" fill="none" rx="4" ry="4" style="stroke:#181818;stroke-width:1.0;"/><line style="stroke:#181818;stroke-width:1.0;" x1="811.33" x2="819.33" y1="222.36" y2="222.36"/><line style="stroke:#181818;stroke-width:1.0;" x1="811.33" x2="819.33" y1="225.36" y2="225.36"/><line style="stroke:#181818;stroke-width:1.0;" x1="815.33" x2="815.33" y1="226.36" y2="218.36"/><text fill="#000000" font-family="sans-serif" font-size="10" lengthAdjust="spacing" textLength="28" x="786.33" y="300.818">sends</text></g><!--MD5=[95cf6c28b28e89a2ee72e5c0e696061f]
@startuml Datamodel

hide circle
skinparam linetype ortho
skinparam nodesep 70
skinparam activityArrowFontSize 10

entity Application {}
entity TxRequestBuilder {
  - -
  * call
  * deploy
}
entity TxApplier {
  - -
  * installCallback
  * uninstallCallback
}
entity TX {
  * id
  * txRequest [TODO]
}
entity CallTxRequest {
  * id
  * address
  * function
  * arguments
  * proof
  * nonce
  * publicTranscript
  * circuit
}
entity DeployTxRequest {
  * id
  * timestamp
  * state
  * code
  * circuits
}
entity PendingPrivateTranscript {
  * id
}
entity Contract {
  * id
}
entity PublicOracle {
  * state
  * code
}
entity PrivateOracle {
  * state
  * code
}
entity TransitionFunction {
  * circuit
  * code
}
entity WalletBackend {
  - -
  * sendTxRequest
  * installFilter
  * uninstallFilter
}

Application       ||-l-|| TxRequestBuilder : connects to
Application       ||-r-|| TxApplier : connects to
TxRequestBuilder  ||-u-|{ PendingPrivateTranscript : produces
TxRequestBuilder  ||- - -|{ CallTxRequest : produces
TxRequestBuilder  ||- - -|{ DeployTxRequest : produces
TxRequestBuilder  ||- -|{  Contract : retrieves
TxApplier         ||- -|{  TX : applies
TxApplier         ||-u-|{ PendingPrivateTranscript : applies
TxApplier         ||- -|{  Contract : retrieves
Contract          ||.u.|| PublicOracle
Contract          ||.l.|| PrivateOracle
Contract          ||..|{  TransitionFunction
WalletBackend     ||- - -o{ DeployTxRequest : receives
WalletBackend     ||- - -o{ CallTxRequest : receives
WalletBackend     ||- -o{  TX : sends

@enduml

PlantUML version 1.2022.5(Sat Apr 30 06:55:52 EDT 2022)
(GPL source distribution)
Java Runtime: OpenJDK Runtime Environment
JVM: OpenJDK 64-Bit Server VM
Default Encoding: UTF-8
Language: en
Country: US
--></g></svg>