<?xml version="1.0" encoding="UTF-8" standalone="no"?><svg xmlns="http://www.w3.org/2000/svg" xmlns:xlink="http://www.w3.org/1999/xlink" contentStyleType="text/css" height="1760px" preserveAspectRatio="none" style="width:1213px;height:1760px;background:#FFFFFF;" version="1.1" viewBox="0 0 1213 1760" width="1213px" zoomAndPan="magnify"><defs/><g><rect height="58.8867" style="stroke:#00000000;stroke-width:1.0;fill:none;" width="118" x="1081" y="0"/><text fill="#888888" font-family="sans-serif" font-size="10" lengthAdjust="spacing" textLength="86" x="1113" y="9.668">components.puml</text><text fill="#888888" font-family="sans-serif" font-size="10" lengthAdjust="spacing" textLength="118" x="1081" y="21.4453">2022.10.30 at 22:26 CET</text><text fill="#888888" font-family="sans-serif" font-size="10" lengthAdjust="spacing" textLength="3" x="1196" y="33.2227"> </text><text fill="#888888" font-family="sans-serif" font-size="10" lengthAdjust="spacing" textLength="3" x="1196" y="45"> </text><text fill="#888888" font-family="sans-serif" font-size="10" lengthAdjust="spacing" textLength="3" x="1196" y="56.7773"> </text><!--MD5=[27d9c9b556deca28a33eab85fb8068ee]
cluster DaoDapp--><g id="cluster_DaoDapp"><rect height="701" rx="2.5" ry="2.5" style="stroke:#181818;stroke-width:1.0;fill:none;" width="644" x="7" y="188.3867"/><rect height="10" style="stroke:#181818;stroke-width:1.0;fill:none;" width="15" x="631" y="193.3867"/><rect height="2" style="stroke:#181818;stroke-width:1.0;fill:none;" width="4" x="629" y="195.3867"/><rect height="2" style="stroke:#181818;stroke-width:1.0;fill:none;" width="4" x="629" y="199.3867"/><text fill="#000000" font-family="sans-serif" font-size="14" font-weight="bold" lengthAdjust="spacing" textLength="65" x="296.5" y="214.9219">DaoDapp</text></g><!--MD5=[040652a472970282b2d55e9ad6432fd4]
cluster DappFrontend--><g id="cluster_DappFrontend"><rect height="231" rx="2.5" ry="2.5" style="stroke:#181818;stroke-width:1.0;fill:none;" width="148" x="273" y="231.3867"/><rect height="10" style="stroke:#181818;stroke-width:1.0;fill:none;" width="15" x="401" y="236.3867"/><rect height="2" style="stroke:#181818;stroke-width:1.0;fill:none;" width="4" x="399" y="238.3867"/><rect height="2" style="stroke:#181818;stroke-width:1.0;fill:none;" width="4" x="399" y="242.3867"/><text fill="#000000" font-family="sans-serif" font-size="14" font-weight="bold" lengthAdjust="spacing" textLength="101" x="296.5" y="257.9219">DappFrontend</text></g><!--MD5=[98fc19af0a7cfcabc9969e8c3ef647ff]
cluster DappServer--><g id="cluster_DappServer"><rect height="354" rx="2.5" ry="2.5" style="stroke:#181818;stroke-width:1.0;fill:none;" width="596" x="31" y="511.3867"/><rect height="10" style="stroke:#181818;stroke-width:1.0;fill:none;" width="15" x="607" y="516.3867"/><rect height="2" style="stroke:#181818;stroke-width:1.0;fill:none;" width="4" x="605" y="518.3867"/><rect height="2" style="stroke:#181818;stroke-width:1.0;fill:none;" width="4" x="605" y="522.3867"/><text fill="#000000" font-family="sans-serif" font-size="14" font-weight="bold" lengthAdjust="spacing" textLength="81" x="288.5" y="537.9219">DappServer</text></g><!--MD5=[0c40994076a415a3b3b3847e67cc56f7]
cluster DappBackend--><g id="cluster_DappBackend"><rect height="196" rx="2.5" ry="2.5" style="stroke:#181818;stroke-width:1.0;fill:none;" width="548" x="55" y="645.3867"/><rect height="10" style="stroke:#181818;stroke-width:1.0;fill:none;" width="15" x="583" y="650.3867"/><rect height="2" style="stroke:#181818;stroke-width:1.0;fill:none;" width="4" x="581" y="652.3867"/><rect height="2" style="stroke:#181818;stroke-width:1.0;fill:none;" width="4" x="581" y="656.3867"/><text fill="#000000" font-family="sans-serif" font-size="14" font-weight="bold" lengthAdjust="spacing" textLength="96" x="281" y="671.9219">DappBackend</text></g><!--MD5=[4c7c888535d155ddb51b664d82bc79d9]
cluster Contract--><g id="cluster_Contract"><rect height="113" rx="2.5" ry="2.5" style="stroke:#181818;stroke-width:1.0;fill:none;" width="367" x="204" y="696.3867"/><rect height="10" style="stroke:#181818;stroke-width:1.0;fill:none;" width="15" x="551" y="701.3867"/><rect height="2" style="stroke:#181818;stroke-width:1.0;fill:none;" width="4" x="549" y="703.3867"/><rect height="2" style="stroke:#181818;stroke-width:1.0;fill:none;" width="4" x="549" y="707.3867"/><text fill="#000000" font-family="sans-serif" font-size="14" font-weight="bold" lengthAdjust="spacing" textLength="61" x="357" y="722.9219">Contract</text></g><!--MD5=[1f5c11d0d58560073d2cc1ed46461499]
cluster Wallet--><g id="cluster_Wallet"><rect height="436" rx="2.5" ry="2.5" style="stroke:#181818;stroke-width:1.0;fill:none;" width="532" x="675" y="365.3867"/><rect height="10" style="stroke:#181818;stroke-width:1.0;fill:none;" width="15" x="1187" y="370.3867"/><rect height="2" style="stroke:#181818;stroke-width:1.0;fill:none;" width="4" x="1185" y="372.3867"/><rect height="2" style="stroke:#181818;stroke-width:1.0;fill:none;" width="4" x="1185" y="376.3867"/><text fill="#000000" font-family="sans-serif" font-size="14" font-weight="bold" lengthAdjust="spacing" textLength="45" x="918.5" y="391.9219">Wallet</text></g><!--MD5=[2c0eb090db8b21e709837b6a1c4dc039]
cluster Node--><g id="cluster_Node"><rect height="225" rx="2.5" ry="2.5" style="stroke:#181818;stroke-width:1.0;fill:none;" width="156" x="561" y="1168.3867"/><rect height="10" style="stroke:#181818;stroke-width:1.0;fill:none;" width="15" x="697" y="1173.3867"/><rect height="2" style="stroke:#181818;stroke-width:1.0;fill:none;" width="4" x="695" y="1175.3867"/><rect height="2" style="stroke:#181818;stroke-width:1.0;fill:none;" width="4" x="695" y="1179.3867"/><text fill="#000000" font-family="sans-serif" font-size="14" font-weight="bold" lengthAdjust="spacing" textLength="37" x="620.5" y="1194.9219">Node</text></g><!--MD5=[2f491164b21d631ee81add5f37432c43]
cluster LedgerADTs--><g id="cluster_LedgerADTs"><rect height="97" rx="2.5" ry="2.5" style="stroke:#181818;stroke-width:1.0;fill:none;" width="366" x="121" y="1296.3867"/><rect height="10" style="stroke:#181818;stroke-width:1.0;fill:none;" width="15" x="467" y="1301.3867"/><rect height="2" style="stroke:#181818;stroke-width:1.0;fill:none;" width="4" x="465" y="1303.3867"/><rect height="2" style="stroke:#181818;stroke-width:1.0;fill:none;" width="4" x="465" y="1307.3867"/><text fill="#000000" font-family="sans-serif" font-size="14" font-weight="bold" lengthAdjust="spacing" textLength="87" x="260.5" y="1322.9219">LedgerADTs</text></g><!--MD5=[0c1481824755704e7402d80e42f68a23]
entity DaoStateAPI--><g id="elem_DaoStateAPI"><ellipse cx="140" cy="289.3867" fill="#F1F1F1" rx="8" ry="8" style="stroke:#181818;stroke-width:0.5;"/><text fill="#000000" font-family="sans-serif" font-size="14" lengthAdjust="spacing" textLength="91" x="30.5" y="319.9219">Dao State API</text></g><!--MD5=[7ddece65384bf0e1d50117f75f2ab6b8]
entity DappUI--><g id="elem_DappUI"><rect fill="#F1F1F1" height="46.4883" rx="2.5" ry="2.5" style="stroke:#181818;stroke-width:0.5;" width="90" x="309" y="266.3867"/><rect fill="#F1F1F1" height="10" style="stroke:#181818;stroke-width:0.5;" width="15" x="379" y="271.3867"/><rect fill="#F1F1F1" height="2" style="stroke:#181818;stroke-width:0.5;" width="4" x="377" y="273.3867"/><rect fill="#F1F1F1" height="2" style="stroke:#181818;stroke-width:0.5;" width="4" x="377" y="277.3867"/><text fill="#000000" font-family="sans-serif" font-size="14" lengthAdjust="spacing" textLength="50" x="324" y="299.9219">DappUI</text></g><!--MD5=[b58c7d35dee4363c8142494f8cfcdb8b]
entity DappClient--><g id="elem_DappClient"><rect fill="#F1F1F1" height="46.4883" rx="2.5" ry="2.5" style="stroke:#181818;stroke-width:0.5;" width="116" x="289" y="400.3867"/><rect fill="#F1F1F1" height="10" style="stroke:#181818;stroke-width:0.5;" width="15" x="385" y="405.3867"/><rect fill="#F1F1F1" height="2" style="stroke:#181818;stroke-width:0.5;" width="4" x="383" y="407.3867"/><rect fill="#F1F1F1" height="2" style="stroke:#181818;stroke-width:0.5;" width="4" x="383" y="411.3867"/><text fill="#000000" font-family="sans-serif" font-size="14" lengthAdjust="spacing" textLength="76" x="304" y="433.9219">DappClient</text></g><!--MD5=[de718c97129972ecad01910756111265]
entity DappController--><g id="elem_DappController"><rect fill="#F1F1F1" height="46.4883" rx="2.5" ry="2.5" style="stroke:#181818;stroke-width:0.5;" width="146" x="221" y="546.3867"/><rect fill="#F1F1F1" height="10" style="stroke:#181818;stroke-width:0.5;" width="15" x="347" y="551.3867"/><rect fill="#F1F1F1" height="2" style="stroke:#181818;stroke-width:0.5;" width="4" x="345" y="553.3867"/><rect fill="#F1F1F1" height="2" style="stroke:#181818;stroke-width:0.5;" width="4" x="345" y="557.3867"/><text fill="#000000" font-family="sans-serif" font-size="14" lengthAdjust="spacing" textLength="106" x="236" y="579.9219">DappController</text></g><!--MD5=[69ff62e26e67ce476dd18a25f9118b96]
entity DAOState--><g id="elem_DAOState"><rect fill="#F1F1F1" height="46.4883" rx="2.5" ry="2.5" style="stroke:#181818;stroke-width:0.5;" width="105" x="71.5" y="739.3867"/><rect fill="#F1F1F1" height="10" style="stroke:#181818;stroke-width:0.5;" width="15" x="156.5" y="744.3867"/><rect fill="#F1F1F1" height="2" style="stroke:#181818;stroke-width:0.5;" width="4" x="154.5" y="746.3867"/><rect fill="#F1F1F1" height="2" style="stroke:#181818;stroke-width:0.5;" width="4" x="154.5" y="750.3867"/><text fill="#000000" font-family="sans-serif" font-size="14" lengthAdjust="spacing" textLength="65" x="86.5" y="772.9219">DAOState</text></g><!--MD5=[2fb70ae10bfe18af5c3b7c2d31f50940]
entity TypeScriptRunnable--><g id="elem_TypeScriptRunnable"><rect fill="#F1F1F1" height="46.4883" rx="2.5" ry="2.5" style="stroke:#181818;stroke-width:0.5;" width="177" x="369.5" y="739.3867"/><rect fill="#F1F1F1" height="10" style="stroke:#181818;stroke-width:0.5;" width="15" x="526.5" y="744.3867"/><rect fill="#F1F1F1" height="2" style="stroke:#181818;stroke-width:0.5;" width="4" x="524.5" y="746.3867"/><rect fill="#F1F1F1" height="2" style="stroke:#181818;stroke-width:0.5;" width="4" x="524.5" y="750.3867"/><text fill="#000000" font-family="sans-serif" font-size="14" lengthAdjust="spacing" textLength="137" x="384.5" y="772.9219">TypeScriptRunnable</text></g><!--MD5=[c63fbfd3eb2ebe0364ac4a3696a7cdfd]
entity zkKeys--><g id="elem_zkKeys"><rect fill="#F1F1F1" height="46.4883" rx="2.5" ry="2.5" style="stroke:#181818;stroke-width:0.5;" width="87" x="247.5" y="739.3867"/><rect fill="#F1F1F1" height="10" style="stroke:#181818;stroke-width:0.5;" width="15" x="314.5" y="744.3867"/><rect fill="#F1F1F1" height="2" style="stroke:#181818;stroke-width:0.5;" width="4" x="312.5" y="746.3867"/><rect fill="#F1F1F1" height="2" style="stroke:#181818;stroke-width:0.5;" width="4" x="312.5" y="750.3867"/><text fill="#000000" font-family="sans-serif" font-size="14" lengthAdjust="spacing" textLength="47" x="262.5" y="772.9219">zkKeys</text></g><!--MD5=[9c5fe56f162cbbda1618be4e9095fb79]
entity WalletAPI--><g id="elem_WalletAPI"><ellipse cx="792" cy="569.3867" fill="#F1F1F1" rx="8" ry="8" style="stroke:#181818;stroke-width:0.5;"/><text fill="#000000" font-family="sans-serif" font-size="14" lengthAdjust="spacing" textLength="67" x="698.5" y="599.9219">Wallet API</text></g><!--MD5=[348a212ba9c1be2bbc1863a366f389d9]
entity WalletTUI--><g id="elem_WalletTUI"><rect fill="#F1F1F1" height="46.4883" rx="2.5" ry="2.5" style="stroke:#181818;stroke-width:0.5;" width="104" x="1087" y="546.3867"/><rect fill="#F1F1F1" height="10" style="stroke:#181818;stroke-width:0.5;" width="15" x="1171" y="551.3867"/><rect fill="#F1F1F1" height="2" style="stroke:#181818;stroke-width:0.5;" width="4" x="1169" y="553.3867"/><rect fill="#F1F1F1" height="2" style="stroke:#181818;stroke-width:0.5;" width="4" x="1169" y="557.3867"/><text fill="#000000" font-family="sans-serif" font-size="14" lengthAdjust="spacing" textLength="64" x="1102" y="579.9219">WalletTUI</text></g><!--MD5=[b88b4b7f601eb98a2a9715f2d151a5a8]
entity WalletServer--><g id="elem_WalletServer"><rect fill="#F1F1F1" height="46.4883" rx="2.5" ry="2.5" style="stroke:#181818;stroke-width:0.5;" width="124" x="928" y="546.3867"/><rect fill="#F1F1F1" height="10" style="stroke:#181818;stroke-width:0.5;" width="15" x="1032" y="551.3867"/><rect fill="#F1F1F1" height="2" style="stroke:#181818;stroke-width:0.5;" width="4" x="1030" y="553.3867"/><rect fill="#F1F1F1" height="2" style="stroke:#181818;stroke-width:0.5;" width="4" x="1030" y="557.3867"/><text fill="#000000" font-family="sans-serif" font-size="14" lengthAdjust="spacing" textLength="84" x="943" y="579.9219">WalletServer</text></g><!--MD5=[b678c191035395a2e16d8c79dacb9503]
entity WalletState--><g id="elem_WalletState"><rect fill="#F1F1F1" height="46.4883" rx="2.5" ry="2.5" style="stroke:#181818;stroke-width:0.5;" width="115" x="872.5" y="739.3867"/><rect fill="#F1F1F1" height="10" style="stroke:#181818;stroke-width:0.5;" width="15" x="967.5" y="744.3867"/><rect fill="#F1F1F1" height="2" style="stroke:#181818;stroke-width:0.5;" width="4" x="965.5" y="746.3867"/><rect fill="#F1F1F1" height="2" style="stroke:#181818;stroke-width:0.5;" width="4" x="965.5" y="750.3867"/><text fill="#000000" font-family="sans-serif" font-size="14" lengthAdjust="spacing" textLength="75" x="887.5" y="772.9219">WalletState</text></g><!--MD5=[49adde87f7f990d6eb857648bb2f50a9]
entity WalletClient--><g id="elem_WalletClient"><rect fill="#F1F1F1" height="46.4883" rx="2.5" ry="2.5" style="stroke:#181818;stroke-width:0.5;" width="121" x="877.5" y="400.3867"/><rect fill="#F1F1F1" height="10" style="stroke:#181818;stroke-width:0.5;" width="15" x="978.5" y="405.3867"/><rect fill="#F1F1F1" height="2" style="stroke:#181818;stroke-width:0.5;" width="4" x="976.5" y="407.3867"/><rect fill="#F1F1F1" height="2" style="stroke:#181818;stroke-width:0.5;" width="4" x="976.5" y="411.3867"/><text fill="#000000" font-family="sans-serif" font-size="14" lengthAdjust="spacing" textLength="81" x="892.5" y="433.9219">WalletClient</text></g><!--MD5=[820f683685e23c8e56e69fb96af1a7ca]
entity SyncServer--><g id="elem_SyncServer"><rect fill="#F1F1F1" height="46.4883" rx="2.5" ry="2.5" style="stroke:#181818;stroke-width:0.5;" width="114" x="582" y="1203.3867"/><rect fill="#F1F1F1" height="10" style="stroke:#181818;stroke-width:0.5;" width="15" x="676" y="1208.3867"/><rect fill="#F1F1F1" height="2" style="stroke:#181818;stroke-width:0.5;" width="4" x="674" y="1210.3867"/><rect fill="#F1F1F1" height="2" style="stroke:#181818;stroke-width:0.5;" width="4" x="674" y="1214.3867"/><text fill="#000000" font-family="sans-serif" font-size="14" lengthAdjust="spacing" textLength="74" x="597" y="1236.9219">SyncServer</text></g><!--MD5=[5fb77a0d25b9ddd273464832364249c3]
entity NodeLedger--><g id="elem_NodeLedger"><rect fill="#F1F1F1" height="46.4883" rx="2.5" ry="2.5" style="stroke:#181818;stroke-width:0.5;" width="123" x="577.5" y="1331.3867"/><rect fill="#F1F1F1" height="10" style="stroke:#181818;stroke-width:0.5;" width="15" x="680.5" y="1336.3867"/><rect fill="#F1F1F1" height="2" style="stroke:#181818;stroke-width:0.5;" width="4" x="678.5" y="1338.3867"/><rect fill="#F1F1F1" height="2" style="stroke:#181818;stroke-width:0.5;" width="4" x="678.5" y="1342.3867"/><text fill="#000000" font-family="sans-serif" font-size="14" lengthAdjust="spacing" textLength="83" x="592.5" y="1364.9219">NodeLedger</text></g><!--MD5=[84c8563cdb79f606c406dbf1400a15d3]
entity ADTInterface--><g id="elem_ADTInterface"><rect fill="#F1F1F1" height="46.4883" rx="2.5" ry="2.5" style="stroke:#181818;stroke-width:0.5;" width="129" x="341.5" y="1331.3867"/><rect fill="#F1F1F1" height="10" style="stroke:#181818;stroke-width:0.5;" width="15" x="450.5" y="1336.3867"/><rect fill="#F1F1F1" height="2" style="stroke:#181818;stroke-width:0.5;" width="4" x="448.5" y="1338.3867"/><rect fill="#F1F1F1" height="2" style="stroke:#181818;stroke-width:0.5;" width="4" x="448.5" y="1342.3867"/><text fill="#000000" font-family="sans-serif" font-size="14" lengthAdjust="spacing" textLength="89" x="356.5" y="1364.9219">ADTInterface</text></g><!--MD5=[71b211902fe68761cab76e9e1b20ef3f]
entity ADTImplmentation--><g id="elem_ADTImplmentation"><rect fill="#F1F1F1" height="46.4883" rx="2.5" ry="2.5" style="stroke:#181818;stroke-width:0.5;" width="169" x="137.5" y="1331.3867"/><rect fill="#F1F1F1" height="10" style="stroke:#181818;stroke-width:0.5;" width="15" x="286.5" y="1336.3867"/><rect fill="#F1F1F1" height="2" style="stroke:#181818;stroke-width:0.5;" width="4" x="284.5" y="1338.3867"/><rect fill="#F1F1F1" height="2" style="stroke:#181818;stroke-width:0.5;" width="4" x="284.5" y="1342.3867"/><text fill="#000000" font-family="sans-serif" font-size="14" lengthAdjust="spacing" textLength="129" x="152.5" y="1364.9219">ADTImplmentation</text></g><!--MD5=[fee662a292a0353a69bd162820bae93b]
entity User--><g id="elem_User"><ellipse cx="731" cy="73.8867" fill="#F1F1F1" rx="8" ry="8" style="stroke:#181818;stroke-width:0.5;"/><path d="M731,81.8867 L731,108.8867 M718,89.8867 L744,89.8867 M731,108.8867 L718,123.8867 M731,108.8867 L744,123.8867 " fill="none" style="stroke:#181818;stroke-width:0.5;"/><text fill="#000000" font-family="sans-serif" font-size="14" lengthAdjust="spacing" textLength="31" x="715.5" y="138.9219">User</text></g><!--MD5=[d0ab0cafd35e657216582684afdbb7e1]
entity SyncClient--><g id="elem_SyncClient"><rect fill="#F1F1F1" height="46.4883" rx="2.5" ry="2.5" style="stroke:#181818;stroke-width:0.5;" width="111" x="583.5" y="1059.3867"/><rect fill="#F1F1F1" height="10" style="stroke:#181818;stroke-width:0.5;" width="15" x="674.5" y="1064.3867"/><rect fill="#F1F1F1" height="2" style="stroke:#181818;stroke-width:0.5;" width="4" x="672.5" y="1066.3867"/><rect fill="#F1F1F1" height="2" style="stroke:#181818;stroke-width:0.5;" width="4" x="672.5" y="1070.3867"/><text fill="#000000" font-family="sans-serif" font-size="14" lengthAdjust="spacing" textLength="71" x="598.5" y="1092.9219">SyncClient</text></g><!--MD5=[87fd9638dc6638407df58f58816523d0]
entity WalletEngine--><g id="elem_WalletEngine"><rect fill="#F1F1F1" height="46.4883" rx="2.5" ry="2.5" style="stroke:#181818;stroke-width:0.5;" width="128" x="690" y="936.3867"/><rect fill="#F1F1F1" height="10" style="stroke:#181818;stroke-width:0.5;" width="15" x="798" y="941.3867"/><rect fill="#F1F1F1" height="2" style="stroke:#181818;stroke-width:0.5;" width="4" x="796" y="943.3867"/><rect fill="#F1F1F1" height="2" style="stroke:#181818;stroke-width:0.5;" width="4" x="796" y="947.3867"/><text fill="#000000" font-family="sans-serif" font-size="14" lengthAdjust="spacing" textLength="88" x="705" y="969.9219">WalletEngine</text></g><!--MD5=[333261c9542ac1af25c0b2a537253898]
entity LedgerLib--><g id="elem_LedgerLib"><rect fill="#F1F1F1" height="46.4883" rx="2.5" ry="2.5" style="stroke:#181818;stroke-width:0.5;" width="107" x="470.5" y="1440.3867"/><rect fill="#F1F1F1" height="10" style="stroke:#181818;stroke-width:0.5;" width="15" x="557.5" y="1445.3867"/><rect fill="#F1F1F1" height="2" style="stroke:#181818;stroke-width:0.5;" width="4" x="555.5" y="1447.3867"/><rect fill="#F1F1F1" height="2" style="stroke:#181818;stroke-width:0.5;" width="4" x="555.5" y="1451.3867"/><text fill="#000000" font-family="sans-serif" font-size="14" lengthAdjust="spacing" textLength="67" x="485.5" y="1473.9219">LedgerLib</text></g><!--MD5=[4418b4557298b99653351912b0b72b1a]
entity ZKIR--><g id="elem_ZKIR"><rect fill="#F1F1F1" height="46.4883" rx="2.5" ry="2.5" style="stroke:#181818;stroke-width:0.5;" width="70" x="401" y="1547.3867"/><rect fill="#F1F1F1" height="10" style="stroke:#181818;stroke-width:0.5;" width="15" x="451" y="1552.3867"/><rect fill="#F1F1F1" height="2" style="stroke:#181818;stroke-width:0.5;" width="4" x="449" y="1554.3867"/><rect fill="#F1F1F1" height="2" style="stroke:#181818;stroke-width:0.5;" width="4" x="449" y="1558.3867"/><text fill="#000000" font-family="sans-serif" font-size="14" lengthAdjust="spacing" textLength="30" x="416" y="1580.9219">ZKIR</text></g><!--MD5=[173408e3aaeeefcfc494f6f5af935cc4]
entity Plonk--><g id="elem_Plonk"><rect fill="#F1F1F1" height="46.4883" rx="2.5" ry="2.5" style="stroke:#181818;stroke-width:0.5;" width="78" x="441" y="1654.3867"/><rect fill="#F1F1F1" height="10" style="stroke:#181818;stroke-width:0.5;" width="15" x="499" y="1659.3867"/><rect fill="#F1F1F1" height="2" style="stroke:#181818;stroke-width:0.5;" width="4" x="497" y="1661.3867"/><rect fill="#F1F1F1" height="2" style="stroke:#181818;stroke-width:0.5;" width="4" x="497" y="1665.3867"/><text fill="#000000" font-family="sans-serif" font-size="14" lengthAdjust="spacing" textLength="38" x="456" y="1687.9219">Plonk</text></g><!--MD5=[39e5b96a003fdb9d094513e61e0cb9ab]
entity Abcirdc--><g id="elem_Abcirdc"><rect fill="#F1F1F1" height="46.4883" rx="2.5" ry="2.5" style="stroke:#181818;stroke-width:0.5;" width="92" x="166" y="1203.3867"/><rect fill="#F1F1F1" height="10" style="stroke:#181818;stroke-width:0.5;" width="15" x="238" y="1208.3867"/><rect fill="#F1F1F1" height="2" style="stroke:#181818;stroke-width:0.5;" width="4" x="236" y="1210.3867"/><rect fill="#F1F1F1" height="2" style="stroke:#181818;stroke-width:0.5;" width="4" x="236" y="1214.3867"/><text fill="#000000" font-family="sans-serif" font-size="14" lengthAdjust="spacing" textLength="52" x="181" y="1236.9219">Abcirdc</text></g><!--MD5=[0232858011398ea6ef65ef8bef9a54c9]
entity ApplicationBackend--><g id="elem_ApplicationBackend"><rect fill="#F1F1F1" height="46.4883" rx="2.5" ry="2.5" style="stroke:#181818;stroke-width:0.5;" width="175" x="436.5" y="936.3867"/><rect fill="#F1F1F1" height="10" style="stroke:#181818;stroke-width:0.5;" width="15" x="591.5" y="941.3867"/><rect fill="#F1F1F1" height="2" style="stroke:#181818;stroke-width:0.5;" width="4" x="589.5" y="943.3867"/><rect fill="#F1F1F1" height="2" style="stroke:#181818;stroke-width:0.5;" width="4" x="589.5" y="947.3867"/><text fill="#000000" font-family="sans-serif" font-size="14" lengthAdjust="spacing" textLength="135" x="451.5" y="969.9219">ApplicationBackend</text></g><!--MD5=[806d50c9798b7538fe5cf503a05ec04f]
reverse link DaoStateAPI to DappClient--><g id="link_DaoStateAPI_DappClient"><path d="M168.3,299.8467 C198.81,310.8367 247.98,330.9067 285,357.3867 C301.87,369.4567 317.95,386.5267 329.5,400.1467 " fill="none" id="DaoStateAPI-backto-DappClient" style="stroke:#181818;stroke-width:1.0;"/><polygon fill="none" points="165.76,306.3667,149.12,293.2567,170.31,293.1267,165.76,306.3667" style="stroke:#181818;stroke-width:1.0;"/></g><!--MD5=[1c5560b4a66386e86d8b4d0ef73bd78b]
link DappUI to DappClient--><g id="link_DappUI_DappClient"><path d="M352.83,312.4767 C351.54,336.8467 349.47,375.8267 348.18,400.2167 " fill="none" id="DappUI-DappClient" style="stroke:#181818;stroke-width:1.0;"/></g><!--MD5=[44e3aa1a295a835070e67f9016ebd03e]
link DappController to DAOState--><g id="link_DappController_DAOState"><path d="M262.8,592.6567 C246.84,603.8867 227.04,617.5867 209,629.3867 C203.32,633.0967 200.74,632.5267 196,637.3867 C166.46,667.6867 144.4,712.4267 132.92,739.0667 " fill="none" id="DappController-DAOState" style="stroke:#181818;stroke-width:1.0;"/></g><!--MD5=[408b281bc45aafd592c31d6d5324848f]
reverse link DaoStateAPI to DAOState--><g id="link_DaoStateAPI_DAOState"><path d="M139.04,318.6867 C136.12,404.6867 127.38,661.7467 124.76,739.1167 " fill="none" id="DaoStateAPI-backto-DAOState" style="stroke:#181818;stroke-width:1.0;"/><polygon fill="none" points="132.05,318.3167,139.72,298.5667,146.04,318.7867,132.05,318.3167" style="stroke:#181818;stroke-width:1.0;"/></g><!--MD5=[a5d409edaddbeee1b282871dc2232b67]
link DappClient to DappController--><g id="link_DappClient_DappController"><path d="M338.83,446.5667 C328.9,473.5567 312.24,518.8367 302.26,545.9367 " fill="none" id="DappClient-DappController" style="stroke:#181818;stroke-width:1.0;"/><text fill="#000000" font-family="sans-serif" font-size="13" lengthAdjust="spacing" textLength="82" x="327" y="491.9551">over network</text></g><!--MD5=[b74b76bcea6a4006aa59a9a412864353]
link WalletTUI to WalletState--><g id="link_WalletTUI_WalletState"><path d="M1114.62,592.6667 C1074.34,629.4767 994.4,702.5367 954.23,739.2467 " fill="none" id="WalletTUI-WalletState" style="stroke:#181818;stroke-width:1.0;"/></g><!--MD5=[3a3579fed791e80ac2a6ede36e093842]
link WalletServer to WalletState--><g id="link_WalletServer_WalletState"><path d="M983,592.6667 C971.44,629.4767 948.49,702.5367 936.96,739.2467 " fill="none" id="WalletServer-WalletState" style="stroke:#181818;stroke-width:1.0;"/></g><!--MD5=[2c94e0d2b8993bd169a63a700d263683]
reverse link WalletAPI to WalletState--><g id="link_WalletAPI_WalletState"><path d="M809.77,594.9867 C836.86,632.4767 888.07,703.3467 914.03,739.2867 " fill="none" id="WalletAPI-backto-WalletState" style="stroke:#181818;stroke-width:1.0;"/><polygon fill="none" points="803.97,598.9067,797.93,578.5967,815.32,590.7067,803.97,598.9067" style="stroke:#181818;stroke-width:1.0;"/></g><!--MD5=[ca9f55ad57c707fb7e0de8c024d7e020]
link WalletClient to WalletAPI--><g id="link_WalletClient_WalletAPI"><path d="M915.51,446.5667 C888.08,473.6167 842.01,519.0667 814.56,546.1367 " fill="none" id="WalletClient-to-WalletAPI" style="stroke:#181818;stroke-width:1.0;"/><polygon fill="none" points="819.36,551.2367,800.2,560.2967,809.53,541.2667,819.36,551.2367" style="stroke:#181818;stroke-width:1.0;"/></g><!--MD5=[70266eee29d64dffc2b162f2f3b9e3b7]
link WalletClient to WalletServer--><g id="link_WalletClient_WalletServer"><path d="M943.89,446.6667 C947.78,460.7567 953.22,479.2967 959,495.3867 C965.23,512.7567 973.43,531.9367 979.84,546.2867 " fill="none" id="WalletClient-WalletServer" style="stroke:#181818;stroke-width:1.0;"/><text fill="#000000" font-family="sans-serif" font-size="13" lengthAdjust="spacing" textLength="82" x="960" y="491.9551">over network</text></g><!--MD5=[e34bf44f439fec5f9ddc504b21d3ddba]
link SyncServer to NodeLedger--><g id="link_SyncServer_NodeLedger"><path d="M639,1249.6267 C639,1272.6567 639,1308.4267 639,1331.3767 " fill="none" id="SyncServer-NodeLedger" style="stroke:#181818;stroke-width:1.0;"/></g><!--MD5=[b965c8751cdb36dabc55a6e2d8f356e1]
link User to DappUI--><g id="link_User_DappUI"><path d="M715.28,112.0567 C661.49,138.3167 483.46,225.1967 399.1,266.3767 " fill="none" id="User-DappUI" style="stroke:#181818;stroke-width:1.0;"/></g><!--MD5=[0d3c849a3f9861e7061456c2e00527ba]
link DAOState to ApplicationBackend--><g id="link_DAOState_ApplicationBackend"><path d="M129.77,785.6267 C138.76,815.6867 159.02,868.7967 196,897.3867 C232.77,925.8167 352.36,942.5767 436.47,951.1267 " fill="none" id="DAOState-ApplicationBackend" style="stroke:#181818;stroke-width:1.0;"/></g><!--MD5=[c08588290c4efbf7c342c3d8673407f5]
link User to WalletTUI--><g id="link_User_WalletTUI"><path d="M746.77,115.5467 C792.58,148.5167 927.96,249.9067 1016,357.3867 C1067.19,419.8767 1110.3,506.2067 1129.02,546.2867 " fill="none" id="User-WalletTUI" style="stroke:#181818;stroke-width:1.0;"/></g><!--MD5=[e6e70aef96af62f43e6b81a96f32a6dc]
link ApplicationBackend to SyncClient--><g id="link_ApplicationBackend_SyncClient"><path d="M545.09,982.5767 C565.84,1004.4167 597.34,1037.5467 618.04,1059.3367 " fill="none" id="ApplicationBackend-SyncClient" style="stroke:#181818;stroke-width:1.0;"/></g><!--MD5=[54784d2d890206ac6b6601e446ff453c]
link WalletEngine to SyncClient--><g id="link_WalletEngine_SyncClient"><path d="M732.91,982.5767 C712.16,1004.4167 680.66,1037.5467 659.96,1059.3367 " fill="none" id="WalletEngine-SyncClient" style="stroke:#181818;stroke-width:1.0;"/></g><!--MD5=[20f42891f2478586d4aaf86069ed0412]
link WalletEngine to LedgerLib--><g id="link_WalletEngine_LedgerLib"><path d="M754,982.6867 C754,1006.9667 754,1046.9367 754,1081.3867 C754,1081.3867 754,1081.3867 754,1355.3867 C754,1432.7867 645.6,1454.3467 577.63,1460.2567 " fill="none" id="WalletEngine-LedgerLib" style="stroke:#181818;stroke-width:1.0;"/></g><!--MD5=[f9799eafd1c4f6c8cd305286746ea4b5]
link NodeLedger to LedgerLib--><g id="link_NodeLedger_LedgerLib"><path d="M615.17,1377.5567 C595.44,1395.9167 567.53,1421.8867 547.8,1440.2467 " fill="none" id="NodeLedger-LedgerLib" style="stroke:#181818;stroke-width:1.0;"/></g><!--MD5=[05bbef93ced575e79ff422cb88372474]
link ApplicationBackend to LedgerLib--><g id="link_ApplicationBackend_LedgerLib"><path d="M524,982.6867 C524,1006.9667 524,1046.9367 524,1081.3867 C524,1081.3867 524,1081.3867 524,1355.3867 C524,1384.7367 524,1418.6167 524,1440.2567 " fill="none" id="ApplicationBackend-LedgerLib" style="stroke:#181818;stroke-width:1.0;"/></g><!--MD5=[eab5555dc046a39b56c17a2be9e4673f]
link Contract to ApplicationBackend--><g id="link_Contract_ApplicationBackend"><path d="M213.0238,809.6314 C213.0707,810.5394 213.1196,811.4533 213.1707,812.3723 C213.3749,816.0485 213.6133,819.8073 213.8913,823.6017 C216.115,853.9567 220.875,886.5867 231,897.3867 C258.59,926.8067 360.47,942.9767 436.39,951.1467 " fill="none" id="Contract-ApplicationBackend" style="stroke:#181818;stroke-width:1.0;"/></g><!--MD5=[6116d1107523d57f047a689c4bf0632e]
link WalletAPI to ApplicationBackend--><g id="link_WalletAPI_ApplicationBackend"><path d="M786.4,578.4867 C754.04,625.3367 590.59,861.9867 539.37,936.1367 " fill="none" id="WalletAPI-ApplicationBackend" style="stroke:#181818;stroke-width:1.0;"/></g><!--MD5=[72bec294c62372d85e4ec091c0606e55]
link ZKIR to Plonk--><g id="link_ZKIR_Plonk"><path d="M445.22,1593.3967 C452.68,1611.1967 463.14,1636.1567 470.64,1654.0467 " fill="none" id="ZKIR-Plonk" style="stroke:#181818;stroke-width:1.0;"/></g><!--MD5=[62d034408b77840584d62da81157f8a9]
link LedgerLib to Plonk--><g id="link_LedgerLib_Plonk"><path d="M519.37,1486.6767 C510.92,1527.3867 493.08,1613.3467 484.63,1654.0767 " fill="none" id="LedgerLib-Plonk" style="stroke:#181818;stroke-width:1.0;"/></g><!--MD5=[2fa2317543bd3b5c8d83323f511e1c14]
link Contract to Abcirdc--><g id="link_Contract_Abcirdc"><path d="M212,809.5921 C212,813.5001 212,817.6108 212,821.9064 C212,856.2711 212,902.4655 212,951.3242 C212,1049.0417 212,1157.4167 212,1203.1267 " fill="none" id="Contract-Abcirdc" style="stroke:#181818;stroke-width:1.0;stroke-dasharray:7.0,7.0;"/><text fill="#000000" font-family="sans-serif" font-size="13" lengthAdjust="spacing" textLength="93" x="213" y="1025.9551">is produced by</text></g><!--MD5=[fcba2549ba864d188ea976d92db12afe]
link Abcirdc to ZKIR--><g id="link_Abcirdc_ZKIR"><path d="M165.62,1246.8067 C148.38,1256.5767 130.67,1270.2667 121,1288.3867 C97.36,1332.6967 95.16,1358.3167 121,1401.3867 C183.02,1504.7567 332.63,1548.0267 400.93,1562.8567 " fill="none" id="Abcirdc-ZKIR" style="stroke:#181818;stroke-width:1.0;"/></g><!--MD5=[e2827b0ae3a63bad0f009ee08c6c6fc3]
link LedgerLib to ZKIR--><g id="link_LedgerLib_ZKIR"><path d="M505.55,1486.3967 C490.63,1504.1967 469.72,1529.1567 454.73,1547.0467 " fill="none" id="LedgerLib-ZKIR" style="stroke:#181818;stroke-width:1.0;"/></g><!--MD5=[7696f316392660d10614b7ef6aedf5d5]
link Abcirdc to ADTInterface--><g id="link_Abcirdc_ADTInterface"><path d="M256.63,1249.4467 C277.58,1260.3567 302.58,1274.2167 324,1288.3867 C343.7,1301.4167 364.53,1317.9767 380.27,1331.1167 " fill="none" id="Abcirdc-ADTInterface" style="stroke:#181818;stroke-width:1.0;"/></g><!--MD5=[58d2409371951581b7cc0e34d7a7f539]
link ADTImplmentation to LedgerLib--><g id="link_ADTImplmentation_LedgerLib"><path d="M267.68,1377.4867 C285.1,1385.5167 305.27,1394.3367 324,1401.3867 C372.76,1419.7267 429.69,1436.6767 470.32,1448.0267 " fill="none" id="ADTImplmentation-LedgerLib" style="stroke:#181818;stroke-width:1.0;"/></g><!--MD5=[b4549263dee0971db022607befebbc10]
link SyncClient to SyncServer--><g id="link_SyncClient_SyncServer"><path d="M639,1105.5767 C639,1132.2467 639,1176.7467 639,1203.3567 " fill="none" id="SyncClient-SyncServer" style="stroke:#181818;stroke-width:1.0;"/><text fill="#000000" font-family="sans-serif" font-size="13" lengthAdjust="spacing" textLength="82" x="640" y="1148.9551">over network</text></g><!--MD5=[a9df87667572f230fdd1bf0aa5efba88]
link WalletState to WalletEngine--><g id="link_WalletState_WalletEngine"><path d="M909.81,785.7567 C875.86,823.3667 807.75,898.8367 773.95,936.2767 " fill="none" id="WalletState-WalletEngine" style="stroke:#181818;stroke-width:1.0;"/></g><rect height="47.1094" style="stroke:#00000000;stroke-width:1.0;fill:none;" width="200" x="499.5" y="1705.875"/><text fill="#888888" font-family="sans-serif" font-size="10" lengthAdjust="spacing" textLength="3" x="598" y="1715.543"> </text><text fill="#888888" font-family="sans-serif" font-size="10" lengthAdjust="spacing" textLength="3" x="598" y="1727.3203"> </text><text fill="#888888" font-family="sans-serif" font-size="10" lengthAdjust="spacing" textLength="3" x="598" y="1739.0977"> </text><text fill="#888888" font-family="sans-serif" font-size="10" lengthAdjust="spacing" textLength="200" x="499.5" y="1750.875">Copyright 2022, Input Output Global, Ltd.</text><!--MD5=[6f62f17a632966c24d2504e85faa2556]
@startuml

header %filename()\n%date("yyyy.MM.dd' at 'HH:mm z")\n\n\n

footer \n\n\nCopyright %date("yyyy"), Input Output Global, Ltd.

actor User

component DaoDapp {
    interface DaoStateAPI as "Dao State API                                "

    component DappFrontend {
        component DappUI
        component DappClient
        DaoStateAPI <|- - DappClient
        DappUI - - DappClient
    }

    component DappServer {
        component DappController

        component DappBackend {
            component Contract {
                component TypeScriptRunnable
                component zkKeys
            }

            component DAOState
        }

        DappController - - DAOState
        DaoStateAPI <|- - DAOState
    }

    DappClient - - DappController : "over network"
}

component SyncClient

component Wallet {
    interface WalletAPI as "Wallet API                              "

    component WalletTUI

    component WalletServer

    component WalletState

    component WalletClient

    WalletTUI - - WalletState
    WalletServer - - WalletState
    WalletAPI <|- - WalletState
    WalletClient - -|> WalletAPI
    WalletClient - - WalletServer : "over network"
}

component WalletEngine

component LedgerLib

component Node {
    component SyncServer

    component NodeLedger

    SyncServer - - NodeLedger
}

component ZKIR

component Plonk

component Abcirdc

component LedgerADTs {
    component ADTInterface
    component ADTImplmentation
}

component ApplicationBackend

User - - DappUI
DAOState - - ApplicationBackend
User - - WalletTUI
ApplicationBackend - - SyncClient
WalletEngine - - SyncClient
WalletEngine - - LedgerLib
NodeLedger - - LedgerLib
ApplicationBackend - - LedgerLib
Contract - - ApplicationBackend
WalletAPI - - ApplicationBackend
ZKIR - - Plonk
LedgerLib - - Plonk
Contract .. Abcirdc : "is produced by"
Abcirdc - - ZKIR
LedgerLib - - ZKIR
Abcirdc - - ADTInterface
ADTImplmentation - - LedgerLib
SyncClient - - SyncServer : "over network"
WalletState - - WalletEngine


@enduml

@startuml

header components.puml\n2022.10.30 at 22:26 CET\n\n\n

footer \n\n\nCopyright 2022, Input Output Global, Ltd.

actor User

component DaoDapp {
    interface DaoStateAPI as "Dao State API                                "

    component DappFrontend {
        component DappUI
        component DappClient
        DaoStateAPI <|- - DappClient
        DappUI - - DappClient
    }

    component DappServer {
        component DappController

        component DappBackend {
            component Contract {
                component TypeScriptRunnable
                component zkKeys
            }

            component DAOState
        }

        DappController - - DAOState
        DaoStateAPI <|- - DAOState
    }

    DappClient - - DappController : "over network"
}

component SyncClient

component Wallet {
    interface WalletAPI as "Wallet API                              "

    component WalletTUI

    component WalletServer

    component WalletState

    component WalletClient

    WalletTUI - - WalletState
    WalletServer - - WalletState
    WalletAPI <|- - WalletState
    WalletClient - -|> WalletAPI
    WalletClient - - WalletServer : "over network"
}

component WalletEngine

component LedgerLib

component Node {
    component SyncServer

    component NodeLedger

    SyncServer - - NodeLedger
}

component ZKIR

component Plonk

component Abcirdc

component LedgerADTs {
    component ADTInterface
    component ADTImplmentation
}

component ApplicationBackend

User - - DappUI
DAOState - - ApplicationBackend
User - - WalletTUI
ApplicationBackend - - SyncClient
WalletEngine - - SyncClient
WalletEngine - - LedgerLib
NodeLedger - - LedgerLib
ApplicationBackend - - LedgerLib
Contract - - ApplicationBackend
WalletAPI - - ApplicationBackend
ZKIR - - Plonk
LedgerLib - - Plonk
Contract .. Abcirdc : "is produced by"
Abcirdc - - ZKIR
LedgerLib - - ZKIR
Abcirdc - - ADTInterface
ADTImplmentation - - LedgerLib
SyncClient - - SyncServer : "over network"
WalletState - - WalletEngine


@enduml

PlantUML version 1.2022.3(Tue Mar 29 18:10:57 CEST 2022)
(GPL source distribution)
Java Runtime: OpenJDK Runtime Environment
JVM: OpenJDK 64-Bit Server VM
Default Encoding: UTF-8
Language: en
Country: PL
--></g></svg>