<?xml version="1.0" encoding="UTF-8" standalone="no"?><svg xmlns="http://www.w3.org/2000/svg" xmlns:xlink="http://www.w3.org/1999/xlink" contentStyleType="text/css" height="1510px" preserveAspectRatio="none" style="width:899px;height:1510px;background:#FFFFFF;" version="1.1" viewBox="0 0 899 1510" width="899px" zoomAndPan="magnify"><defs/><g><rect height="58.8867" style="stroke:#00000000;stroke-width:1.0;fill:none;" width="118" x="767" y="0"/><text fill="#888888" font-family="sans-serif" font-size="10" lengthAdjust="spacing" textLength="86" x="799" y="9.668">components.puml</text><text fill="#888888" font-family="sans-serif" font-size="10" lengthAdjust="spacing" textLength="118" x="767" y="21.4453">2024.01.08 at 12:24 CET</text><text fill="#888888" font-family="sans-serif" font-size="10" lengthAdjust="spacing" textLength="3" x="882" y="33.2227"> </text><text fill="#888888" font-family="sans-serif" font-size="10" lengthAdjust="spacing" textLength="3" x="882" y="45"> </text><text fill="#888888" font-family="sans-serif" font-size="10" lengthAdjust="spacing" textLength="3" x="882" y="56.7773"> </text><!--MD5=[27d9c9b556deca28a33eab85fb8068ee]
cluster DaoDapp--><g id="cluster_DaoDapp"><rect height="400" rx="2.5" ry="2.5" style="stroke:#181818;stroke-width:1.0;fill:none;" width="548" x="7" y="188.3867"/><rect height="10" style="stroke:#181818;stroke-width:1.0;fill:none;" width="15" x="535" y="193.3867"/><rect height="2" style="stroke:#181818;stroke-width:1.0;fill:none;" width="4" x="533" y="195.3867"/><rect height="2" style="stroke:#181818;stroke-width:1.0;fill:none;" width="4" x="533" y="199.3867"/><text fill="#000000" font-family="sans-serif" font-size="14" font-weight="bold" lengthAdjust="spacing" textLength="65" x="248.5" y="214.9219">DaoDapp</text></g><!--MD5=[4c7c888535d155ddb51b664d82bc79d9]
cluster Contract--><g id="cluster_Contract"><rect height="113" rx="2.5" ry="2.5" style="stroke:#181818;stroke-width:1.0;fill:none;" width="367" x="156" y="443.3867"/><rect height="10" style="stroke:#181818;stroke-width:1.0;fill:none;" width="15" x="503" y="448.3867"/><rect height="2" style="stroke:#181818;stroke-width:1.0;fill:none;" width="4" x="501" y="450.3867"/><rect height="2" style="stroke:#181818;stroke-width:1.0;fill:none;" width="4" x="501" y="454.3867"/><text fill="#000000" font-family="sans-serif" font-size="14" font-weight="bold" lengthAdjust="spacing" textLength="61" x="309" y="469.9219">Contract</text></g><!--MD5=[1f5c11d0d58560073d2cc1ed46461499]
cluster Wallet--><g id="cluster_Wallet"><rect height="360" rx="2.5" ry="2.5" style="stroke:#181818;stroke-width:1.0;fill:none;" width="160" x="708" y="188.3867"/><rect height="10" style="stroke:#181818;stroke-width:1.0;fill:none;" width="15" x="848" y="193.3867"/><rect height="2" style="stroke:#181818;stroke-width:1.0;fill:none;" width="4" x="846" y="195.3867"/><rect height="2" style="stroke:#181818;stroke-width:1.0;fill:none;" width="4" x="846" y="199.3867"/><text fill="#000000" font-family="sans-serif" font-size="14" font-weight="bold" lengthAdjust="spacing" textLength="45" x="765.5" y="214.9219">Wallet</text></g><!--MD5=[216f2eb915be55a64b9e61c716c189e4]
cluster LedgerLibs--><g id="cluster_LedgerLibs"><rect height="113" rx="2.5" ry="2.5" style="stroke:#181818;stroke-width:1.0;fill:none;" width="344" x="549" y="1129.3867"/><rect height="10" style="stroke:#181818;stroke-width:1.0;fill:none;" width="15" x="873" y="1134.3867"/><rect height="2" style="stroke:#181818;stroke-width:1.0;fill:none;" width="4" x="871" y="1136.3867"/><rect height="2" style="stroke:#181818;stroke-width:1.0;fill:none;" width="4" x="871" y="1140.3867"/><text fill="#000000" font-family="sans-serif" font-size="14" font-weight="bold" lengthAdjust="spacing" textLength="78" x="682" y="1155.9219">LedgerLibs</text></g><!--MD5=[2c0eb090db8b21e709837b6a1c4dc039]
cluster Node--><g id="cluster_Node"><rect height="225" rx="2.5" ry="2.5" style="stroke:#181818;stroke-width:1.0;fill:none;" width="156" x="601" y="863.3867"/><rect height="10" style="stroke:#181818;stroke-width:1.0;fill:none;" width="15" x="737" y="868.3867"/><rect height="2" style="stroke:#181818;stroke-width:1.0;fill:none;" width="4" x="735" y="870.3867"/><rect height="2" style="stroke:#181818;stroke-width:1.0;fill:none;" width="4" x="735" y="874.3867"/><text fill="#000000" font-family="sans-serif" font-size="14" font-weight="bold" lengthAdjust="spacing" textLength="37" x="660.5" y="889.9219">Node</text></g><!--MD5=[2f491164b21d631ee81add5f37432c43]
cluster LedgerADTs--><g id="cluster_LedgerADTs"><rect height="97" rx="2.5" ry="2.5" style="stroke:#181818;stroke-width:1.0;fill:none;" width="366" x="154" y="991.3867"/><rect height="10" style="stroke:#181818;stroke-width:1.0;fill:none;" width="15" x="500" y="996.3867"/><rect height="2" style="stroke:#181818;stroke-width:1.0;fill:none;" width="4" x="498" y="998.3867"/><rect height="2" style="stroke:#181818;stroke-width:1.0;fill:none;" width="4" x="498" y="1002.3867"/><text fill="#000000" font-family="sans-serif" font-size="14" font-weight="bold" lengthAdjust="spacing" textLength="87" x="293.5" y="1017.9219">LedgerADTs</text></g><!--MD5=[0c1481824755704e7402d80e42f68a23]
entity DaoStateAPI--><g id="elem_DaoStateAPI"><ellipse cx="76" cy="359.3867" fill="#F1F1F1" rx="8" ry="8" style="stroke:#181818;stroke-width:0.5;"/><text fill="#000000" font-family="sans-serif" font-size="14" lengthAdjust="spacing" textLength="91" x="30.5" y="389.9219">Dao State API</text></g><!--MD5=[7ddece65384bf0e1d50117f75f2ab6b8]
entity DappUI--><g id="elem_DappUI"><rect fill="#F1F1F1" height="46.4883" rx="2.5" ry="2.5" style="stroke:#181818;stroke-width:0.5;" width="90" x="179" y="223.3867"/><rect fill="#F1F1F1" height="10" style="stroke:#181818;stroke-width:0.5;" width="15" x="249" y="228.3867"/><rect fill="#F1F1F1" height="2" style="stroke:#181818;stroke-width:0.5;" width="4" x="247" y="230.3867"/><rect fill="#F1F1F1" height="2" style="stroke:#181818;stroke-width:0.5;" width="4" x="247" y="234.3867"/><text fill="#000000" font-family="sans-serif" font-size="14" lengthAdjust="spacing" textLength="50" x="194" y="256.9219">DappUI</text></g><!--MD5=[9c1f88a65705b644c19dd76e90fe6129]
entity DAOFacade--><g id="elem_DAOFacade"><rect fill="#F1F1F1" height="46.4883" rx="2.5" ry="2.5" style="stroke:#181818;stroke-width:0.5;" width="119" x="164.5" y="336.3867"/><rect fill="#F1F1F1" height="10" style="stroke:#181818;stroke-width:0.5;" width="15" x="263.5" y="341.3867"/><rect fill="#F1F1F1" height="2" style="stroke:#181818;stroke-width:0.5;" width="4" x="261.5" y="343.3867"/><rect fill="#F1F1F1" height="2" style="stroke:#181818;stroke-width:0.5;" width="4" x="261.5" y="347.3867"/><text fill="#000000" font-family="sans-serif" font-size="14" lengthAdjust="spacing" textLength="79" x="179.5" y="369.9219">DAOFacade</text></g><!--MD5=[69ff62e26e67ce476dd18a25f9118b96]
entity DAOState--><g id="elem_DAOState"><rect fill="#F1F1F1" height="46.4883" rx="2.5" ry="2.5" style="stroke:#181818;stroke-width:0.5;" width="105" x="23.5" y="486.3867"/><rect fill="#F1F1F1" height="10" style="stroke:#181818;stroke-width:0.5;" width="15" x="108.5" y="491.3867"/><rect fill="#F1F1F1" height="2" style="stroke:#181818;stroke-width:0.5;" width="4" x="106.5" y="493.3867"/><rect fill="#F1F1F1" height="2" style="stroke:#181818;stroke-width:0.5;" width="4" x="106.5" y="497.3867"/><text fill="#000000" font-family="sans-serif" font-size="14" lengthAdjust="spacing" textLength="65" x="38.5" y="519.9219">DAOState</text></g><!--MD5=[2fb70ae10bfe18af5c3b7c2d31f50940]
entity TypeScriptRunnable--><g id="elem_TypeScriptRunnable"><rect fill="#F1F1F1" height="46.4883" rx="2.5" ry="2.5" style="stroke:#181818;stroke-width:0.5;" width="177" x="321.5" y="486.3867"/><rect fill="#F1F1F1" height="10" style="stroke:#181818;stroke-width:0.5;" width="15" x="478.5" y="491.3867"/><rect fill="#F1F1F1" height="2" style="stroke:#181818;stroke-width:0.5;" width="4" x="476.5" y="493.3867"/><rect fill="#F1F1F1" height="2" style="stroke:#181818;stroke-width:0.5;" width="4" x="476.5" y="497.3867"/><text fill="#000000" font-family="sans-serif" font-size="14" lengthAdjust="spacing" textLength="137" x="336.5" y="519.9219">TypeScriptRunnable</text></g><!--MD5=[c63fbfd3eb2ebe0364ac4a3696a7cdfd]
entity zkKeys--><g id="elem_zkKeys"><rect fill="#F1F1F1" height="46.4883" rx="2.5" ry="2.5" style="stroke:#181818;stroke-width:0.5;" width="87" x="199.5" y="486.3867"/><rect fill="#F1F1F1" height="10" style="stroke:#181818;stroke-width:0.5;" width="15" x="266.5" y="491.3867"/><rect fill="#F1F1F1" height="2" style="stroke:#181818;stroke-width:0.5;" width="4" x="264.5" y="493.3867"/><rect fill="#F1F1F1" height="2" style="stroke:#181818;stroke-width:0.5;" width="4" x="264.5" y="497.3867"/><text fill="#000000" font-family="sans-serif" font-size="14" lengthAdjust="spacing" textLength="47" x="214.5" y="519.9219">zkKeys</text></g><!--MD5=[9c5fe56f162cbbda1618be4e9095fb79]
entity WalletAPI--><g id="elem_WalletAPI"><ellipse cx="785" cy="359.3867" fill="#F1F1F1" rx="8" ry="8" style="stroke:#181818;stroke-width:0.5;"/><text fill="#000000" font-family="sans-serif" font-size="14" lengthAdjust="spacing" textLength="67" x="751.5" y="389.9219">Wallet API</text></g><!--MD5=[c495cac2516177257fbce73b6dcc5165]
entity WalletUI--><g id="elem_WalletUI"><rect fill="#F1F1F1" height="46.4883" rx="2.5" ry="2.5" style="stroke:#181818;stroke-width:0.5;" width="95" x="732.5" y="223.3867"/><rect fill="#F1F1F1" height="10" style="stroke:#181818;stroke-width:0.5;" width="15" x="807.5" y="228.3867"/><rect fill="#F1F1F1" height="2" style="stroke:#181818;stroke-width:0.5;" width="4" x="805.5" y="230.3867"/><rect fill="#F1F1F1" height="2" style="stroke:#181818;stroke-width:0.5;" width="4" x="805.5" y="234.3867"/><text fill="#000000" font-family="sans-serif" font-size="14" lengthAdjust="spacing" textLength="55" x="747.5" y="256.9219">WalletUI</text></g><!--MD5=[87fd9638dc6638407df58f58816523d0]
entity WalletEngine--><g id="elem_WalletEngine"><rect fill="#F1F1F1" height="46.4883" rx="2.5" ry="2.5" style="stroke:#181818;stroke-width:0.5;" width="128" x="724" y="486.3867"/><rect fill="#F1F1F1" height="10" style="stroke:#181818;stroke-width:0.5;" width="15" x="832" y="491.3867"/><rect fill="#F1F1F1" height="2" style="stroke:#181818;stroke-width:0.5;" width="4" x="830" y="493.3867"/><rect fill="#F1F1F1" height="2" style="stroke:#181818;stroke-width:0.5;" width="4" x="830" y="497.3867"/><text fill="#000000" font-family="sans-serif" font-size="14" lengthAdjust="spacing" textLength="88" x="739" y="519.9219">WalletEngine</text></g><!--MD5=[624cbe499b8d3fdaaf25244e595ff9bd]
entity CompactRuntime--><g id="elem_CompactRuntime"><rect fill="#F1F1F1" height="46.4883" rx="2.5" ry="2.5" style="stroke:#181818;stroke-width:0.5;" width="158" x="711" y="1172.3867"/><rect fill="#F1F1F1" height="10" style="stroke:#181818;stroke-width:0.5;" width="15" x="849" y="1177.3867"/><rect fill="#F1F1F1" height="2" style="stroke:#181818;stroke-width:0.5;" width="4" x="847" y="1179.3867"/><rect fill="#F1F1F1" height="2" style="stroke:#181818;stroke-width:0.5;" width="4" x="847" y="1183.3867"/><text fill="#000000" font-family="sans-serif" font-size="14" lengthAdjust="spacing" textLength="118" x="726" y="1205.9219">CompactRuntime</text></g><!--MD5=[bfbcfcb00b8fce9c26541bd9cf4ad778]
entity Zswap--><g id="elem_Zswap"><rect fill="#F1F1F1" height="46.4883" rx="2.5" ry="2.5" style="stroke:#181818;stroke-width:0.5;" width="83" x="592.5" y="1172.3867"/><rect fill="#F1F1F1" height="10" style="stroke:#181818;stroke-width:0.5;" width="15" x="655.5" y="1177.3867"/><rect fill="#F1F1F1" height="2" style="stroke:#181818;stroke-width:0.5;" width="4" x="653.5" y="1179.3867"/><rect fill="#F1F1F1" height="2" style="stroke:#181818;stroke-width:0.5;" width="4" x="653.5" y="1183.3867"/><text fill="#000000" font-family="sans-serif" font-size="14" lengthAdjust="spacing" textLength="43" x="607.5" y="1205.9219">Zswap</text></g><!--MD5=[a4d7040c4b7cb8b1c8053b956597ec14]
entity NodeRPC--><g id="elem_NodeRPC"><rect fill="#F1F1F1" height="46.4883" rx="2.5" ry="2.5" style="stroke:#181818;stroke-width:0.5;" width="103" x="633.5" y="898.3867"/><rect fill="#F1F1F1" height="10" style="stroke:#181818;stroke-width:0.5;" width="15" x="716.5" y="903.3867"/><rect fill="#F1F1F1" height="2" style="stroke:#181818;stroke-width:0.5;" width="4" x="714.5" y="905.3867"/><rect fill="#F1F1F1" height="2" style="stroke:#181818;stroke-width:0.5;" width="4" x="714.5" y="909.3867"/><text fill="#000000" font-family="sans-serif" font-size="14" lengthAdjust="spacing" textLength="63" x="648.5" y="931.9219">NodeRPC</text></g><!--MD5=[5fb77a0d25b9ddd273464832364249c3]
entity NodeLedger--><g id="elem_NodeLedger"><rect fill="#F1F1F1" height="46.4883" rx="2.5" ry="2.5" style="stroke:#181818;stroke-width:0.5;" width="123" x="617.5" y="1026.3867"/><rect fill="#F1F1F1" height="10" style="stroke:#181818;stroke-width:0.5;" width="15" x="720.5" y="1031.3867"/><rect fill="#F1F1F1" height="2" style="stroke:#181818;stroke-width:0.5;" width="4" x="718.5" y="1033.3867"/><rect fill="#F1F1F1" height="2" style="stroke:#181818;stroke-width:0.5;" width="4" x="718.5" y="1037.3867"/><text fill="#000000" font-family="sans-serif" font-size="14" lengthAdjust="spacing" textLength="83" x="632.5" y="1059.9219">NodeLedger</text></g><!--MD5=[84c8563cdb79f606c406dbf1400a15d3]
entity ADTInterface--><g id="elem_ADTInterface"><rect fill="#F1F1F1" height="46.4883" rx="2.5" ry="2.5" style="stroke:#181818;stroke-width:0.5;" width="129" x="374.5" y="1026.3867"/><rect fill="#F1F1F1" height="10" style="stroke:#181818;stroke-width:0.5;" width="15" x="483.5" y="1031.3867"/><rect fill="#F1F1F1" height="2" style="stroke:#181818;stroke-width:0.5;" width="4" x="481.5" y="1033.3867"/><rect fill="#F1F1F1" height="2" style="stroke:#181818;stroke-width:0.5;" width="4" x="481.5" y="1037.3867"/><text fill="#000000" font-family="sans-serif" font-size="14" lengthAdjust="spacing" textLength="89" x="389.5" y="1059.9219">ADTInterface</text></g><!--MD5=[71b211902fe68761cab76e9e1b20ef3f]
entity ADTImplmentation--><g id="elem_ADTImplmentation"><rect fill="#F1F1F1" height="46.4883" rx="2.5" ry="2.5" style="stroke:#181818;stroke-width:0.5;" width="169" x="170.5" y="1026.3867"/><rect fill="#F1F1F1" height="10" style="stroke:#181818;stroke-width:0.5;" width="15" x="319.5" y="1031.3867"/><rect fill="#F1F1F1" height="2" style="stroke:#181818;stroke-width:0.5;" width="4" x="317.5" y="1033.3867"/><rect fill="#F1F1F1" height="2" style="stroke:#181818;stroke-width:0.5;" width="4" x="317.5" y="1037.3867"/><text fill="#000000" font-family="sans-serif" font-size="14" lengthAdjust="spacing" textLength="129" x="185.5" y="1059.9219">ADTImplmentation</text></g><!--MD5=[fee662a292a0353a69bd162820bae93b]
entity User--><g id="elem_User"><ellipse cx="501" cy="73.8867" fill="#F1F1F1" rx="8" ry="8" style="stroke:#181818;stroke-width:0.5;"/><path d="M501,81.8867 L501,108.8867 M488,89.8867 L514,89.8867 M501,108.8867 L488,123.8867 M501,108.8867 L514,123.8867 " fill="none" style="stroke:#181818;stroke-width:0.5;"/><text fill="#000000" font-family="sans-serif" font-size="14" lengthAdjust="spacing" textLength="31" x="485.5" y="138.9219">User</text></g><!--MD5=[7667ead974cd82be04fe401df3f08373]
entity mnjs--><g id="elem_mnjs"><rect fill="#F1F1F1" height="46.4883" rx="2.5" ry="2.5" style="stroke:#181818;stroke-width:0.5;" width="117" x="571.5" y="486.3867"/><rect fill="#F1F1F1" height="10" style="stroke:#181818;stroke-width:0.5;" width="15" x="668.5" y="491.3867"/><rect fill="#F1F1F1" height="2" style="stroke:#181818;stroke-width:0.5;" width="4" x="666.5" y="493.3867"/><rect fill="#F1F1F1" height="2" style="stroke:#181818;stroke-width:0.5;" width="4" x="666.5" y="497.3867"/><text fill="#000000" font-family="sans-serif" font-size="14" lengthAdjust="spacing" textLength="77" x="586.5" y="519.9219">Midnight.JS</text></g><!--MD5=[c37724fb70a15d1ffd2e69be149245c5]
entity PubSub--><g id="elem_PubSub"><rect fill="#F1F1F1" height="46.4883" rx="2.5" ry="2.5" style="stroke:#181818;stroke-width:0.5;" width="149" x="612.5" y="770.3867"/><rect fill="#F1F1F1" height="10" style="stroke:#181818;stroke-width:0.5;" width="15" x="741.5" y="775.3867"/><rect fill="#F1F1F1" height="2" style="stroke:#181818;stroke-width:0.5;" width="4" x="739.5" y="777.3867"/><rect fill="#F1F1F1" height="2" style="stroke:#181818;stroke-width:0.5;" width="4" x="739.5" y="781.3867"/><text fill="#000000" font-family="sans-serif" font-size="14" lengthAdjust="spacing" textLength="109" x="627.5" y="803.9219">PubSub Indexer</text></g><!--MD5=[ded3306f6ffbe69187ae3142f71c5a8f]
entity PubSubGQLAPI--><g id="elem_PubSubGQLAPI"><ellipse cx="689" cy="664.3867" fill="#F1F1F1" rx="8" ry="8" style="stroke:#181818;stroke-width:0.5;"/><text fill="#000000" font-family="sans-serif" font-size="14" lengthAdjust="spacing" textLength="142" x="618" y="694.9219">PubSub GraphQL API</text></g><!--MD5=[4418b4557298b99653351912b0b72b1a]
entity ZKIR--><g id="elem_ZKIR"><rect fill="#F1F1F1" height="46.4883" rx="2.5" ry="2.5" style="stroke:#181818;stroke-width:0.5;" width="70" x="434" y="1297.3867"/><rect fill="#F1F1F1" height="10" style="stroke:#181818;stroke-width:0.5;" width="15" x="484" y="1302.3867"/><rect fill="#F1F1F1" height="2" style="stroke:#181818;stroke-width:0.5;" width="4" x="482" y="1304.3867"/><rect fill="#F1F1F1" height="2" style="stroke:#181818;stroke-width:0.5;" width="4" x="482" y="1308.3867"/><text fill="#000000" font-family="sans-serif" font-size="14" lengthAdjust="spacing" textLength="30" x="449" y="1330.9219">ZKIR</text></g><!--MD5=[173408e3aaeeefcfc494f6f5af935cc4]
entity Plonk--><g id="elem_Plonk"><rect fill="#F1F1F1" height="46.4883" rx="2.5" ry="2.5" style="stroke:#181818;stroke-width:0.5;" width="78" x="474" y="1404.3867"/><rect fill="#F1F1F1" height="10" style="stroke:#181818;stroke-width:0.5;" width="15" x="532" y="1409.3867"/><rect fill="#F1F1F1" height="2" style="stroke:#181818;stroke-width:0.5;" width="4" x="530" y="1411.3867"/><rect fill="#F1F1F1" height="2" style="stroke:#181818;stroke-width:0.5;" width="4" x="530" y="1415.3867"/><text fill="#000000" font-family="sans-serif" font-size="14" lengthAdjust="spacing" textLength="38" x="489" y="1437.9219">Plonk</text></g><!--MD5=[9aa6a05939f75ba9a07a0ec6926eb649]
entity Compactc--><g id="elem_Compactc"><rect fill="#F1F1F1" height="46.4883" rx="2.5" ry="2.5" style="stroke:#181818;stroke-width:0.5;" width="108" x="110" y="898.3867"/><rect fill="#F1F1F1" height="10" style="stroke:#181818;stroke-width:0.5;" width="15" x="198" y="903.3867"/><rect fill="#F1F1F1" height="2" style="stroke:#181818;stroke-width:0.5;" width="4" x="196" y="905.3867"/><rect fill="#F1F1F1" height="2" style="stroke:#181818;stroke-width:0.5;" width="4" x="196" y="909.3867"/><text fill="#000000" font-family="sans-serif" font-size="14" lengthAdjust="spacing" textLength="68" x="125" y="931.9219">Compactc</text></g><!--MD5=[46300c1219da6dfffdd969b243743410]
link DAOFacade to DAOState--><g id="link_DAOFacade_DAOState"><path d="M196.9,382.8767 C182.06,395.5367 163.58,411.8667 148,427.3867 C128.94,446.3767 108.7,469.4267 94.56,486.0667 " fill="none" id="DAOFacade-DAOState" style="stroke:#181818;stroke-width:1.0;"/></g><!--MD5=[630e3d07d9a9420bfd2d4877d8f6126d]
link DAOFacade to Contract--><g id="link_DAOFacade_Contract"><path d="M207.87,382.6767 C199.4,395.2767 189.48,411.6167 183,427.3867 C181.2987,431.528 179.7309,435.8541 178.2892,440.2595 C178.109,440.8102 177.9307,441.3621 177.7544,441.915 C177.6663,442.1915 177.5786,442.4683 177.4914,442.7452 C177.4479,442.8837 177.4044,443.0222 177.361,443.1608 " fill="none" id="DAOFacade-Contract" style="stroke:#181818;stroke-width:1.0;"/></g><!--MD5=[e1c6239a2f61341df18a09910d9a16cc]
link DAOFacade to mnjs--><g id="link_DAOFacade_mnjs"><path d="M283.84,367.2767 C344.23,375.7967 439.14,393.5167 515,427.3867 C548.45,442.3267 582.18,467.5667 604.38,485.9067 " fill="none" id="DAOFacade-mnjs" style="stroke:#181818;stroke-width:1.0;"/></g><!--MD5=[1d606c1f37eb2dee8d399a00a3bb1af6]
link DappUI to DAOFacade--><g id="link_DappUI_DAOFacade"><path d="M224,269.8467 C224,289.1067 224,316.7067 224,335.9567 " fill="none" id="DappUI-DAOFacade" style="stroke:#181818;stroke-width:1.0;"/></g><!--MD5=[e096bfccfe26c63fd3e44893020fc7de]
link DappUI to DaoStateAPI--><g id="link_DappUI_DaoStateAPI"><path d="M194.05,269.8467 C159.93,295.4467 106.15,335.7667 84.99,351.6467 " fill="none" id="DappUI-DaoStateAPI" style="stroke:#181818;stroke-width:1.0;"/></g><!--MD5=[408b281bc45aafd592c31d6d5324848f]
reverse link DaoStateAPI to DAOState--><g id="link_DaoStateAPI_DAOState"><path d="M76,389.5267 C76,417.8767 76,460.3267 76,486.0767 " fill="none" id="DaoStateAPI-backto-DAOState" style="stroke:#181818;stroke-width:1.0;"/><polygon fill="none" points="69,389.8567,76,369.8567,83,389.8567,69,389.8567" style="stroke:#181818;stroke-width:1.0;"/></g><!--MD5=[0dfe5aa4f89e5ff0c2118d26d03a7e1a]
link WalletUI to WalletAPI--><g id="link_WalletUI_WalletAPI"><path d="M781.01,269.8467 C782.14,294.8067 783.89,333.7867 784.64,350.4267 " fill="none" id="WalletUI-WalletAPI" style="stroke:#181818;stroke-width:1.0;"/></g><!--MD5=[1edec22e2552bbf0e089ebb19eec1def]
reverse link WalletAPI to WalletEngine--><g id="link_WalletAPI_WalletEngine"><path d="M785.59,389.5267 C786.17,417.8767 787.03,460.3267 787.55,486.0767 " fill="none" id="WalletAPI-backto-WalletEngine" style="stroke:#181818;stroke-width:1.0;"/><polygon fill="none" points="778.6,389.9967,785.19,369.8567,792.6,389.7067,778.6,389.9967" style="stroke:#181818;stroke-width:1.0;"/></g><!--MD5=[5a7d2da8bff7e3982a128fdb3f554b7b]
link NodeRPC to NodeLedger--><g id="link_NodeRPC_NodeLedger"><path d="M683.94,944.6267 C682.85,967.5167 681.16,1002.9867 680.07,1025.9467 " fill="none" id="NodeRPC-NodeLedger" style="stroke:#181818;stroke-width:1.0;"/></g><!--MD5=[fcbcbd723894ab3958d8f2d0a087d0e5]
reverse link PubSubGQLAPI to PubSub--><g id="link_PubSubGQLAPI_PubSub"><path d="M688.54,694.7067 C688.17,717.7867 687.68,749.4267 687.35,770.3767 " fill="none" id="PubSubGQLAPI-backto-PubSub" style="stroke:#181818;stroke-width:1.0;"/><polygon fill="none" points="681.54,694.7367,688.85,674.8467,695.54,694.9567,681.54,694.7367" style="stroke:#181818;stroke-width:1.0;"/></g><!--MD5=[d9b6d5f8d49aa350d423e39c22431f41]
link PubSub to NodeRPC--><g id="link_PubSub_NodeRPC"><path d="M686.65,816.6267 C686.28,839.5167 685.72,874.9867 685.36,897.9467 " fill="none" id="PubSub-NodeRPC" style="stroke:#181818;stroke-width:1.0;"/></g><!--MD5=[b965c8751cdb36dabc55a6e2d8f356e1]
link User to DappUI--><g id="link_User_DappUI"><path d="M485.31,112.3667 C444,133.4067 331.04,190.9067 268,222.9867 " fill="none" id="User-DappUI" style="stroke:#181818;stroke-width:1.0;"/></g><!--MD5=[a4b798b95dd450f2fab476c39d373d32]
link User to WalletUI--><g id="link_User_WalletUI"><path d="M516.8,112.3667 C558.41,133.4067 672.19,190.9067 735.68,222.9867 " fill="none" id="User-WalletUI" style="stroke:#181818;stroke-width:1.0;"/></g><!--MD5=[de7c4c5dcc7fef3987b9121e09f0dd6c]
link mnjs to PubSubGQLAPI--><g id="link_mnjs_PubSubGQLAPI"><path d="M638.58,532.6367 C652,567.4467 677.33,633.1267 686,655.6067 " fill="none" id="mnjs-PubSubGQLAPI" style="stroke:#181818;stroke-width:1.0;"/></g><!--MD5=[0cc4d59c96da0f80d7e5213f199326bb]
link WalletEngine to PubSubGQLAPI--><g id="link_WalletEngine_PubSubGQLAPI"><path d="M773.6,532.6367 C751.08,567.4467 708.58,633.1267 694.03,655.6067 " fill="none" id="WalletEngine-PubSubGQLAPI" style="stroke:#181818;stroke-width:1.0;"/></g><!--MD5=[a7d16f975e8f5d08ca833504f50066f4]
link WalletEngine to Zswap--><g id="link_WalletEngine_Zswap"><path d="M795.99,532.8667 C805.75,562.4167 821,616.1067 821,663.3867 C821,663.3867 821,663.3867 821,1050.3867 C821,1085.4167 788.64,1081.3567 757,1096.3867 C730.8,1108.8267 717.96,1097.0467 694,1113.3867 C672.17,1128.2767 655.21,1153.7767 644.98,1172.1967 " fill="none" id="WalletEngine-Zswap" style="stroke:#181818;stroke-width:1.0;"/></g><!--MD5=[4f55be5a2fd9881da14b00fe80dfd70a]
link NodeLedger to LedgerLibs--><g id="link_NodeLedger_LedgerLibs"><path d="M635.07,1072.8267 C610.83,1086.0267 584.05,1102.2567 576,1113.3867 C573.3763,1117.0155 571.1094,1120.9531 569.1514,1125.0717 C568.6619,1126.1013 568.1917,1127.1422 567.7401,1128.1925 C567.6272,1128.455 567.5154,1128.7182 567.4048,1128.9819 C567.3495,1129.1137 567.2945,1129.2457 567.2398,1129.3778 " fill="none" id="NodeLedger-LedgerLibs" style="stroke:#181818;stroke-width:1.0;"/></g><!--MD5=[03bd97f2e87700e0c944999f48d6e444]
link mnjs to LedgerLibs--><g id="link_mnjs_LedgerLibs"><path d="M611.58,532.6467 C589.95,561.0967 557,612.7667 557,663.3867 C557,663.3867 557,663.3867 557,1050.3867 C557,1066.1367 557,1082.8555 557,1099.1123 C557,1107.2408 557,1115.2538 557,1122.9724 C557,1124.9021 557,1126.8134 557,1128.7035 " fill="none" id="mnjs-LedgerLibs" style="stroke:#181818;stroke-width:1.0;"/></g><!--MD5=[72bec294c62372d85e4ec091c0606e55]
link ZKIR to Plonk--><g id="link_ZKIR_Plonk"><path d="M478.33,1343.6567 C485.8,1361.4767 496.22,1386.3367 503.68,1404.1467 " fill="none" id="ZKIR-Plonk" style="stroke:#181818;stroke-width:1.0;"/></g><!--MD5=[02681822970d59416121a6d43a395953]
link LedgerLibs to Plonk--><g id="link_LedgerLibs_Plonk"><path d="M548.9843,1238.3008 C548.9303,1238.583 548.8761,1238.8661 548.8218,1239.1502 C548.6043,1240.2867 548.3839,1241.4389 548.1606,1242.6062 C547.7139,1244.9406 547.2559,1247.3348 546.7877,1249.7819 C544.915,1259.57 542.8806,1270.203 540.77,1281.2342 C532.3275,1325.3592 522.665,1375.8567 517.25,1404.1467 " fill="none" id="LedgerLibs-Plonk" style="stroke:#181818;stroke-width:1.0;"/></g><!--MD5=[0808a6d4f8008399ddd5c58e3c56f8dd]
link Contract to Compactc--><g id="link_Contract_Compactc"><path d="M164,557.2465 C164,557.6994 164,558.155 164,558.6131 C164,559.5293 164,560.4559 164,561.3927 C164,591.368 164,631.7105 164,674.5317 C164,760.1742 164,855.7317 164,898.0967 " fill="none" id="Contract-Compactc" style="stroke:#181818;stroke-width:1.0;stroke-dasharray:7.0,7.0;"/><text fill="#000000" font-family="sans-serif" font-size="13" lengthAdjust="spacing" textLength="93" x="165" y="736.9551">is produced by</text></g><!--MD5=[2c9ce704cd374089fe8147a1a6ddf782]
link Compactc to ZKIR--><g id="link_Compactc_ZKIR"><path d="M155.82,944.7667 C144.6,979.4267 128.56,1047.2067 154,1096.3867 C213.88,1212.1367 364.6,1280.7267 433.56,1307.0067 " fill="none" id="Compactc-ZKIR" style="stroke:#181818;stroke-width:1.0;"/></g><!--MD5=[abb7facf66b0899b39838ea5ec791efa]
link LedgerLibs to ZKIR--><g id="link_LedgerLibs_ZKIR"><path d="M548.8468,1207.7838 C548.6975,1207.9924 548.5466,1208.2034 548.3939,1208.4167 C543.5091,1215.243 536.9181,1224.4542 529.6113,1234.6667 C514.9975,1255.0917 497.52,1279.5217 485.1,1296.8867 " fill="none" id="LedgerLibs-ZKIR" style="stroke:#181818;stroke-width:1.0;"/></g><!--MD5=[a4e95fa2f1500402d1e70f75e7697eaa]
link Compactc to ADTInterface--><g id="link_Compactc_ADTInterface"><path d="M218.09,933.8767 C257.98,943.6567 312.77,959.8967 357,983.3867 C378.5,994.8067 399.96,1012.0767 415.53,1025.9467 " fill="none" id="Compactc-ADTInterface" style="stroke:#181818;stroke-width:1.0;"/></g><!--MD5=[459f6dd0acada30b35643bfd5651fd94]
link ADTImplmentation to LedgerLibs--><g id="link_ADTImplmentation_LedgerLibs"><path d="M302.19,1072.8867 C343.995,1092.8217 406.375,1122.5667 458.95,1147.6355 C485.2375,1160.1698 509.0738,1171.5352 526.6613,1179.9206 C535.455,1184.1134 542.6866,1187.5611 547.8813,1190.0376 C548.2059,1190.1924 548.5226,1190.3434 548.8313,1190.4905 " fill="none" id="ADTImplmentation-LedgerLibs" style="stroke:#181818;stroke-width:1.0;"/></g><rect height="47.1094" style="stroke:#00000000;stroke-width:1.0;fill:none;" width="200" x="342.5" y="1455.875"/><text fill="#888888" font-family="sans-serif" font-size="10" lengthAdjust="spacing" textLength="3" x="441" y="1465.543"> </text><text fill="#888888" font-family="sans-serif" font-size="10" lengthAdjust="spacing" textLength="3" x="441" y="1477.3203"> </text><text fill="#888888" font-family="sans-serif" font-size="10" lengthAdjust="spacing" textLength="3" x="441" y="1489.0977"> </text><text fill="#888888" font-family="sans-serif" font-size="10" lengthAdjust="spacing" textLength="200" x="342.5" y="1500.875">Copyright 2024, Input Output Global, Ltd.</text><!--MD5=[6e2839b6cde0411b434a1cb988c004d8]
@startuml

header %filename()\n%date("yyyy.MM.dd' at 'HH:mm z")\n\n\n

footer \n\n\nCopyright %date("yyyy"), Input Output Global, Ltd.

actor User

component mnjs as "Midnight.JS"

component DaoDapp {
    interface DaoStateAPI as "Dao State API"

    component DappUI

    component Contract {
        component TypeScriptRunnable
        component zkKeys
    }

    component DAOFacade

    component DAOState

    DAOFacade - - DAOState
    DAOFacade - - Contract
    DAOFacade - - mnjs
    DappUI - - DAOFacade
    DappUI - - DaoStateAPI
    DaoStateAPI <|- - DAOState
}

component PubSub as "PubSub Indexer"
interface PubSubGQLAPI as "PubSub GraphQL API"

component Wallet {
    interface WalletAPI as "Wallet API"

    component WalletUI

    component WalletEngine

    WalletUI - - WalletAPI
    WalletAPI <|- - WalletEngine
}



component LedgerLibs {
  component CompactRuntime
  component Zswap
}

component Node {
    component NodeRPC

    component NodeLedger

    NodeRPC - - NodeLedger
}

component ZKIR

component Plonk

component Compactc

component LedgerADTs {
    component ADTInterface
    component ADTImplmentation
}

PubSubGQLAPI <|- - PubSub
PubSub - - NodeRPC

User - - DappUI
User - - WalletUI
mnjs - - PubSubGQLAPI
WalletEngine - - PubSubGQLAPI
WalletEngine - - Zswap
NodeLedger - - LedgerLibs
mnjs - - LedgerLibs
ZKIR - - Plonk
LedgerLibs - - Plonk
Contract .. Compactc : "is produced by"
Compactc - - ZKIR
LedgerLibs - - ZKIR
Compactc - - ADTInterface
ADTImplmentation - - LedgerLibs


@enduml

@startuml

header components.puml\n2024.01.08 at 12:24 CET\n\n\n

footer \n\n\nCopyright 2024, Input Output Global, Ltd.

actor User

component mnjs as "Midnight.JS"

component DaoDapp {
    interface DaoStateAPI as "Dao State API"

    component DappUI

    component Contract {
        component TypeScriptRunnable
        component zkKeys
    }

    component DAOFacade

    component DAOState

    DAOFacade - - DAOState
    DAOFacade - - Contract
    DAOFacade - - mnjs
    DappUI - - DAOFacade
    DappUI - - DaoStateAPI
    DaoStateAPI <|- - DAOState
}

component PubSub as "PubSub Indexer"
interface PubSubGQLAPI as "PubSub GraphQL API"

component Wallet {
    interface WalletAPI as "Wallet API"

    component WalletUI

    component WalletEngine

    WalletUI - - WalletAPI
    WalletAPI <|- - WalletEngine
}



component LedgerLibs {
  component CompactRuntime
  component Zswap
}

component Node {
    component NodeRPC

    component NodeLedger

    NodeRPC - - NodeLedger
}

component ZKIR

component Plonk

component Compactc

component LedgerADTs {
    component ADTInterface
    component ADTImplmentation
}

PubSubGQLAPI <|- - PubSub
PubSub - - NodeRPC

User - - DappUI
User - - WalletUI
mnjs - - PubSubGQLAPI
WalletEngine - - PubSubGQLAPI
WalletEngine - - Zswap
NodeLedger - - LedgerLibs
mnjs - - LedgerLibs
ZKIR - - Plonk
LedgerLibs - - Plonk
Contract .. Compactc : "is produced by"
Compactc - - ZKIR
LedgerLibs - - ZKIR
Compactc - - ADTInterface
ADTImplmentation - - LedgerLibs


@enduml

PlantUML version 1.2022.3(Tue Mar 29 18:10:57 CEST 2022)
(GPL source distribution)
Java Runtime: OpenJDK Runtime Environment
JVM: OpenJDK 64-Bit Server VM
Default Encoding: UTF-8
Language: en
Country: PL
--></g></svg>