<?xml version="1.0" encoding="UTF-8" standalone="no"?><svg xmlns="http://www.w3.org/2000/svg" xmlns:xlink="http://www.w3.org/1999/xlink" contentStyleType="text/css" height="1907px" preserveAspectRatio="none" style="width:1603px;height:1907px;background:#FFFFFF;" version="1.1" viewBox="0 0 1603 1907" width="1603px" zoomAndPan="magnify"><defs/><g><rect height="58.8867" style="stroke:#00000000;stroke-width:1.0;fill:none;" width="161" x="1428" y="0"/><text fill="#888888" font-family="sans-serif" font-size="10" lengthAdjust="spacing" textLength="161" x="1428" y="9.668">dapp-instance-deployment.puml</text><text fill="#888888" font-family="sans-serif" font-size="10" lengthAdjust="spacing" textLength="118" x="1471" y="21.4453">2022.10.30 at 22:26 CET</text><text fill="#888888" font-family="sans-serif" font-size="10" lengthAdjust="spacing" textLength="3" x="1586" y="33.2227"> </text><text fill="#888888" font-family="sans-serif" font-size="10" lengthAdjust="spacing" textLength="3" x="1586" y="45"> </text><text fill="#888888" font-family="sans-serif" font-size="10" lengthAdjust="spacing" textLength="3" x="1586" y="56.7773"> </text><!--MD5=[e1ef1f621d9806160b14322b4b6e1976]
cluster UserComputer--><g id="cluster_UserComputer"><polygon points="1164,198.3867,1174,188.3867,1586,188.3867,1586,416.3867,1576,426.3867,1164,426.3867,1164,198.3867" style="stroke:#181818;stroke-width:1.0;fill:none;"/><line style="stroke:#181818;stroke-width:1.0;fill:none;" x1="1576" x2="1586" y1="198.3867" y2="188.3867"/><line style="stroke:#181818;stroke-width:1.0;fill:none;" x1="1164" x2="1576" y1="198.3867" y2="198.3867"/><line style="stroke:#181818;stroke-width:1.0;fill:none;" x1="1576" x2="1576" y1="198.3867" y2="426.3867"/><text fill="#000000" font-family="sans-serif" font-size="14" font-weight="bold" lengthAdjust="spacing" textLength="108" x="1317" y="214.9219">User Computer</text><text fill="#000000" font-family="sans-serif" font-size="14" font-weight="bold" lengthAdjust="spacing" textLength="104" x="1319" y="231.4102">&lt;&lt;machine&gt;&gt;</text></g><!--MD5=[3dce9bbfaabb6cb6980a2a7001f7dbb0]
cluster UserBrowser--><g id="cluster_UserBrowser"><polygon points="1343,270.3867,1353,260.3867,1554,260.3867,1554,384.3867,1544,394.3867,1343,394.3867,1343,270.3867" style="stroke:#181818;stroke-width:1.0;fill:none;"/><line style="stroke:#181818;stroke-width:1.0;fill:none;" x1="1544" x2="1554" y1="270.3867" y2="260.3867"/><line style="stroke:#181818;stroke-width:1.0;fill:none;" x1="1343" x2="1544" y1="270.3867" y2="270.3867"/><line style="stroke:#181818;stroke-width:1.0;fill:none;" x1="1544" x2="1544" y1="270.3867" y2="394.3867"/><text fill="#000000" font-family="sans-serif" font-size="14" font-weight="bold" lengthAdjust="spacing" textLength="95" x="1397" y="286.9219">User Browser</text><text fill="#000000" font-family="sans-serif" font-size="14" font-weight="bold" lengthAdjust="spacing" textLength="99" x="1395" y="303.4102">&lt;&lt;process&gt;&gt;</text></g><!--MD5=[979da56a7f83e2393dc758167ae295d0]
cluster Server--><g id="cluster_Server"><polygon points="16,485.3867,26,475.3867,1506,475.3867,1506,1345.3867,1496,1355.3867,16,1355.3867,16,485.3867" style="stroke:#181818;stroke-width:1.0;fill:none;"/><line style="stroke:#181818;stroke-width:1.0;fill:none;" x1="1496" x2="1506" y1="485.3867" y2="475.3867"/><line style="stroke:#181818;stroke-width:1.0;fill:none;" x1="16" x2="1496" y1="485.3867" y2="485.3867"/><line style="stroke:#181818;stroke-width:1.0;fill:none;" x1="1496" x2="1496" y1="485.3867" y2="1355.3867"/><text fill="#000000" font-family="sans-serif" font-size="14" font-weight="bold" lengthAdjust="spacing" textLength="44" x="735" y="501.9219">Server</text><text fill="#000000" font-family="sans-serif" font-size="14" font-weight="bold" lengthAdjust="spacing" textLength="104" x="705" y="518.4102">&lt;&lt;machine&gt;&gt;</text></g><!--MD5=[98fc19af0a7cfcabc9969e8c3ef647ff]
cluster DappServer--><g id="cluster_DappServer"><polygon points="48,557.3867,58,547.3867,940,547.3867,940,1097.3867,930,1107.3867,48,1107.3867,48,557.3867" style="stroke:#181818;stroke-width:1.0;fill:none;"/><line style="stroke:#181818;stroke-width:1.0;fill:none;" x1="930" x2="940" y1="557.3867" y2="547.3867"/><line style="stroke:#181818;stroke-width:1.0;fill:none;" x1="48" x2="930" y1="557.3867" y2="557.3867"/><line style="stroke:#181818;stroke-width:1.0;fill:none;" x1="930" x2="930" y1="557.3867" y2="1107.3867"/><text fill="#000000" font-family="sans-serif" font-size="14" font-weight="bold" lengthAdjust="spacing" textLength="86" x="447" y="573.9219">Dapp Server</text><text fill="#000000" font-family="sans-serif" font-size="14" font-weight="bold" lengthAdjust="spacing" textLength="99" x="440.5" y="590.4102">&lt;&lt;process&gt;&gt;</text></g><!--MD5=[1f5c11d0d58560073d2cc1ed46461499]
cluster Wallet--><g id="cluster_Wallet"><polygon points="972,986.3867,982,976.3867,1482,976.3867,1482,1321.3867,1472,1331.3867,972,1331.3867,972,986.3867" style="stroke:#181818;stroke-width:1.0;fill:none;"/><line style="stroke:#181818;stroke-width:1.0;fill:none;" x1="1472" x2="1482" y1="986.3867" y2="976.3867"/><line style="stroke:#181818;stroke-width:1.0;fill:none;" x1="972" x2="1472" y1="986.3867" y2="986.3867"/><line style="stroke:#181818;stroke-width:1.0;fill:none;" x1="1472" x2="1472" y1="986.3867" y2="1331.3867"/><text fill="#000000" font-family="sans-serif" font-size="14" font-weight="bold" lengthAdjust="spacing" textLength="45" x="1200.5" y="1002.9219">Wallet</text><text fill="#000000" font-family="sans-serif" font-size="14" font-weight="bold" lengthAdjust="spacing" textLength="99" x="1173.5" y="1019.4102">&lt;&lt;process&gt;&gt;</text></g><!--MD5=[2c0eb090db8b21e709837b6a1c4dc039]
cluster Node--><g id="cluster_Node"><polygon points="273,1398.3867,283,1388.3867,825,1388.3867,825,1826.3867,815,1836.3867,273,1836.3867,273,1398.3867" style="stroke:#181818;stroke-width:1.0;fill:none;"/><line style="stroke:#181818;stroke-width:1.0;fill:none;" x1="815" x2="825" y1="1398.3867" y2="1388.3867"/><line style="stroke:#181818;stroke-width:1.0;fill:none;" x1="273" x2="815" y1="1398.3867" y2="1398.3867"/><line style="stroke:#181818;stroke-width:1.0;fill:none;" x1="815" x2="815" y1="1398.3867" y2="1836.3867"/><text fill="#000000" font-family="sans-serif" font-size="14" font-weight="bold" lengthAdjust="spacing" textLength="76" x="507" y="1414.9219">Node Host</text><text fill="#000000" font-family="sans-serif" font-size="14" font-weight="bold" lengthAdjust="spacing" textLength="104" x="493" y="1431.4102">&lt;&lt;machine&gt;&gt;</text></g><!--MD5=[6157416e603d1536bab30ed39b1eb272]
cluster NodeInstance--><g id="cluster_NodeInstance"><polygon points="297,1462.3867,307,1452.3867,621,1452.3867,621,1802.3867,611,1812.3867,297,1812.3867,297,1462.3867" style="stroke:#181818;stroke-width:1.0;fill:none;"/><line style="stroke:#181818;stroke-width:1.0;fill:none;" x1="611" x2="621" y1="1462.3867" y2="1452.3867"/><line style="stroke:#181818;stroke-width:1.0;fill:none;" x1="297" x2="611" y1="1462.3867" y2="1462.3867"/><line style="stroke:#181818;stroke-width:1.0;fill:none;" x1="611" x2="611" y1="1462.3867" y2="1812.3867"/><text fill="#000000" font-family="sans-serif" font-size="14" font-weight="bold" lengthAdjust="spacing" textLength="37" x="436.5" y="1478.9219">Node</text><text fill="#000000" font-family="sans-serif" font-size="14" font-weight="bold" lengthAdjust="spacing" textLength="99" x="405.5" y="1495.4102">&lt;&lt;process&gt;&gt;</text></g><!--MD5=[6a80a00180797a396f5b170a8133272b]
entity UserTerminal--><g id="elem_UserTerminal"><polygon fill="#F1F1F1" points="1180,325.8867,1190,315.8867,1316,315.8867,1316,368.8633,1306,378.8633,1180,378.8633,1180,325.8867" style="stroke:#181818;stroke-width:0.5;"/><line style="stroke:#181818;stroke-width:0.5;" x1="1306" x2="1316" y1="325.8867" y2="315.8867"/><line style="stroke:#181818;stroke-width:0.5;" x1="1180" x2="1306" y1="325.8867" y2="325.8867"/><line style="stroke:#181818;stroke-width:0.5;" x1="1306" x2="1306" y1="325.8867" y2="378.8633"/><text fill="#000000" font-family="sans-serif" font-size="14" lengthAdjust="spacing" textLength="96" x="1195" y="349.4219">User Terminal</text><text fill="#000000" font-family="sans-serif" font-size="14" lengthAdjust="spacing" textLength="67" x="1195" y="365.9102">«process»</text></g><!--MD5=[8b00f18c03a4bae5857b5c97d75dcd41]
entity DappFrontend--><g id="elem_DappFrontend"><rect fill="#F1F1F1" height="46.4883" rx="2.5" ry="2.5" style="stroke:#181818;stroke-width:0.5;" width="143" x="1386.5" y="324.3867"/><rect fill="#F1F1F1" height="10" style="stroke:#181818;stroke-width:0.5;" width="15" x="1509.5" y="329.3867"/><rect fill="#F1F1F1" height="2" style="stroke:#181818;stroke-width:0.5;" width="4" x="1507.5" y="331.3867"/><rect fill="#F1F1F1" height="2" style="stroke:#181818;stroke-width:0.5;" width="4" x="1507.5" y="335.3867"/><text fill="#000000" font-family="sans-serif" font-size="14" lengthAdjust="spacing" textLength="103" x="1401.5" y="357.9219">Dapp Frontend</text></g><!--MD5=[55d870c2e73eb787fdf616233f658e55]
entity DappFrontendBundle--><g id="elem_DappFrontendBundle"><rect fill="#F1F1F1" height="39.4883" rx="2.5" ry="2.5" style="stroke:#181818;stroke-width:0.5;" width="184" x="964" y="737.8867"/><polygon fill="#F1F1F1" points="1131,742.8867,1131,756.8867,1143,756.8867,1143,748.8867,1137,742.8867,1131,742.8867" style="stroke:#181818;stroke-width:0.5;"/><line style="stroke:#181818;stroke-width:0.5;" x1="1137" x2="1137" y1="742.8867" y2="748.8867"/><line style="stroke:#181818;stroke-width:0.5;" x1="1143" x2="1137" y1="748.8867" y2="748.8867"/><text fill="#000000" font-family="sans-serif" font-size="14" lengthAdjust="spacing" textLength="154" x="974" y="764.4219">Dapp Frontend Bundle</text></g><!--MD5=[962f85d8600da05287a03219a4aec917]
entity DappSecretKey--><g id="elem_DappSecretKey"><rect fill="#F1F1F1" height="72.4648" rx="2.5" ry="2.5" style="stroke:#181818;stroke-width:0.5;" width="220" x="964" y="857.3867"/><polygon fill="#F1F1F1" points="1167,862.3867,1167,876.3867,1179,876.3867,1179,868.3867,1173,862.3867,1167,862.3867" style="stroke:#181818;stroke-width:0.5;"/><line style="stroke:#181818;stroke-width:0.5;" x1="1173" x2="1173" y1="862.3867" y2="868.3867"/><line style="stroke:#181818;stroke-width:0.5;" x1="1179" x2="1173" y1="868.3867" y2="868.3867"/><text fill="#000000" font-family="sans-serif" font-size="14" lengthAdjust="spacing" textLength="110" x="974" y="883.9219">Dapp Secret Key</text><text fill="#000000" font-family="sans-serif" font-size="14" lengthAdjust="spacing" textLength="98" x="974" y="900.4102">«per instance»</text><text fill="#000000" font-family="sans-serif" font-size="14" lengthAdjust="spacing" textLength="190" x="974" y="916.8984">to initialize the private state</text></g><!--MD5=[1479a47042ee3b2b9c65f419e2df3c17]
entity DappBackend--><g id="elem_DappBackend"><rect fill="#F1F1F1" height="46.4883" rx="2.5" ry="2.5" style="stroke:#181818;stroke-width:0.5;" width="137" x="598.5" y="611.3867"/><rect fill="#F1F1F1" height="10" style="stroke:#181818;stroke-width:0.5;" width="15" x="715.5" y="616.3867"/><rect fill="#F1F1F1" height="2" style="stroke:#181818;stroke-width:0.5;" width="4" x="713.5" y="618.3867"/><rect fill="#F1F1F1" height="2" style="stroke:#181818;stroke-width:0.5;" width="4" x="713.5" y="622.3867"/><text fill="#000000" font-family="sans-serif" font-size="14" lengthAdjust="spacing" textLength="97" x="613.5" y="644.9219">Dapp Backend</text></g><!--MD5=[50931bcefbe76bf129939bc87583de63]
entity Contract--><g id="elem_Contract"><rect fill="#F1F1F1" height="46.4883" rx="2.5" ry="2.5" style="stroke:#181818;stroke-width:0.5;" width="134" x="439" y="870.3867"/><rect fill="#F1F1F1" height="10" style="stroke:#181818;stroke-width:0.5;" width="15" x="553" y="875.3867"/><rect fill="#F1F1F1" height="2" style="stroke:#181818;stroke-width:0.5;" width="4" x="551" y="877.3867"/><rect fill="#F1F1F1" height="2" style="stroke:#181818;stroke-width:0.5;" width="4" x="551" y="881.3867"/><text fill="#000000" font-family="sans-serif" font-size="14" lengthAdjust="spacing" textLength="94" x="454" y="903.9219">DAO Contract</text></g><!--MD5=[0232858011398ea6ef65ef8bef9a54c9]
entity ApplicationBackend--><g id="elem_ApplicationBackend"><rect fill="#F1F1F1" height="46.4883" rx="2.5" ry="2.5" style="stroke:#181818;stroke-width:0.5;" width="179" x="498.5" y="734.3867"/><rect fill="#F1F1F1" height="10" style="stroke:#181818;stroke-width:0.5;" width="15" x="657.5" y="739.3867"/><rect fill="#F1F1F1" height="2" style="stroke:#181818;stroke-width:0.5;" width="4" x="655.5" y="741.3867"/><rect fill="#F1F1F1" height="2" style="stroke:#181818;stroke-width:0.5;" width="4" x="655.5" y="745.3867"/><text fill="#000000" font-family="sans-serif" font-size="14" lengthAdjust="spacing" textLength="139" x="513.5" y="767.9219">Application Backend</text></g><!--MD5=[0660768116703994eebbc85d8c53ff53]
entity DappPublicState--><g id="elem_DappPublicState"><rect fill="#F1F1F1" height="52.9766" rx="35" ry="35" style="stroke:#181818;stroke-width:0.5;" width="139" x="768.5" y="866.8867"/><text fill="#000000" font-family="sans-serif" font-size="14" lengthAdjust="spacing" textLength="119" x="778.5" y="890.4219">Dapp Public State</text><text fill="#000000" font-family="sans-serif" font-size="14" lengthAdjust="spacing" textLength="87" x="778.5" y="906.9102">«ephemeral»</text></g><!--MD5=[6f54aad0b84e61608b5687a3022e3099]
entity DappPrivateState--><g id="elem_DappPrivateState"><rect fill="#F1F1F1" height="52.9766" rx="35" ry="35" style="stroke:#181818;stroke-width:0.5;" width="144" x="72" y="866.8867"/><text fill="#000000" font-family="sans-serif" font-size="14" lengthAdjust="spacing" textLength="124" x="82" y="890.4219">Dapp Private State</text><text fill="#000000" font-family="sans-serif" font-size="14" lengthAdjust="spacing" textLength="87" x="82" y="906.9102">«ephemeral»</text></g><!--MD5=[3d116e45c6f5dddf98bc2dc36c0984d1]
entity DappSyncClient--><g id="elem_DappSyncClient"><rect fill="#F1F1F1" height="46.4883" rx="2.5" ry="2.5" style="stroke:#181818;stroke-width:0.5;" width="115" x="251.5" y="870.3867"/><rect fill="#F1F1F1" height="10" style="stroke:#181818;stroke-width:0.5;" width="15" x="346.5" y="875.3867"/><rect fill="#F1F1F1" height="2" style="stroke:#181818;stroke-width:0.5;" width="4" x="344.5" y="877.3867"/><rect fill="#F1F1F1" height="2" style="stroke:#181818;stroke-width:0.5;" width="4" x="344.5" y="881.3867"/><text fill="#000000" font-family="sans-serif" font-size="14" lengthAdjust="spacing" textLength="75" x="266.5" y="903.9219">Sync Client</text></g><!--MD5=[bbe06848543d0926018930cb08c2426f]
entity DappLedgerLib--><g id="elem_DappLedgerLib"><rect fill="#F1F1F1" height="46.4883" rx="2.5" ry="2.5" style="stroke:#181818;stroke-width:0.5;" width="111" x="423.5" y="1037.3867"/><rect fill="#F1F1F1" height="10" style="stroke:#181818;stroke-width:0.5;" width="15" x="514.5" y="1042.3867"/><rect fill="#F1F1F1" height="2" style="stroke:#181818;stroke-width:0.5;" width="4" x="512.5" y="1044.3867"/><rect fill="#F1F1F1" height="2" style="stroke:#181818;stroke-width:0.5;" width="4" x="512.5" y="1048.3867"/><text fill="#000000" font-family="sans-serif" font-size="14" lengthAdjust="spacing" textLength="71" x="438.5" y="1070.9219">Ledger Lib</text></g><!--MD5=[e3391b4514eb08797b40167449be60ec]
entity WalletAPIClient--><g id="elem_WalletAPIClient"><rect fill="#F1F1F1" height="46.4883" rx="2.5" ry="2.5" style="stroke:#181818;stroke-width:0.5;" width="125" x="608.5" y="870.3867"/><rect fill="#F1F1F1" height="10" style="stroke:#181818;stroke-width:0.5;" width="15" x="713.5" y="875.3867"/><rect fill="#F1F1F1" height="2" style="stroke:#181818;stroke-width:0.5;" width="4" x="711.5" y="877.3867"/><rect fill="#F1F1F1" height="2" style="stroke:#181818;stroke-width:0.5;" width="4" x="711.5" y="881.3867"/><text fill="#000000" font-family="sans-serif" font-size="14" lengthAdjust="spacing" textLength="85" x="623.5" y="903.9219">Wallet Client</text></g><!--MD5=[348a212ba9c1be2bbc1863a366f389d9]
entity WalletTUI--><g id="elem_WalletTUI"><rect fill="#F1F1F1" height="46.4883" rx="2.5" ry="2.5" style="stroke:#181818;stroke-width:0.5;" width="108" x="1358" y="1037.3867"/><rect fill="#F1F1F1" height="10" style="stroke:#181818;stroke-width:0.5;" width="15" x="1446" y="1042.3867"/><rect fill="#F1F1F1" height="2" style="stroke:#181818;stroke-width:0.5;" width="4" x="1444" y="1044.3867"/><rect fill="#F1F1F1" height="2" style="stroke:#181818;stroke-width:0.5;" width="4" x="1444" y="1048.3867"/><text fill="#000000" font-family="sans-serif" font-size="14" lengthAdjust="spacing" textLength="68" x="1373" y="1070.9219">Wallet TUI</text></g><!--MD5=[87fd9638dc6638407df58f58816523d0]
entity WalletEngine--><g id="elem_WalletEngine"><rect fill="#F1F1F1" height="46.4883" rx="2.5" ry="2.5" style="stroke:#181818;stroke-width:0.5;" width="132" x="1071" y="1162.3867"/><rect fill="#F1F1F1" height="10" style="stroke:#181818;stroke-width:0.5;" width="15" x="1183" y="1167.3867"/><rect fill="#F1F1F1" height="2" style="stroke:#181818;stroke-width:0.5;" width="4" x="1181" y="1169.3867"/><rect fill="#F1F1F1" height="2" style="stroke:#181818;stroke-width:0.5;" width="4" x="1181" y="1173.3867"/><text fill="#000000" font-family="sans-serif" font-size="14" lengthAdjust="spacing" textLength="92" x="1086" y="1195.9219">Wallet Engine</text></g><!--MD5=[8967d40a46f88406134fd7bee15fcea1]
entity WalletLedgerLib--><g id="elem_WalletLedgerLib"><rect fill="#F1F1F1" height="46.4883" rx="2.5" ry="2.5" style="stroke:#181818;stroke-width:0.5;" width="111" x="1138.5" y="1269.3867"/><rect fill="#F1F1F1" height="10" style="stroke:#181818;stroke-width:0.5;" width="15" x="1229.5" y="1274.3867"/><rect fill="#F1F1F1" height="2" style="stroke:#181818;stroke-width:0.5;" width="4" x="1227.5" y="1276.3867"/><rect fill="#F1F1F1" height="2" style="stroke:#181818;stroke-width:0.5;" width="4" x="1227.5" y="1280.3867"/><text fill="#000000" font-family="sans-serif" font-size="14" lengthAdjust="spacing" textLength="71" x="1153.5" y="1302.9219">Ledger Lib</text></g><!--MD5=[6bc924bad79b76618a0c35fc926cb6f8]
entity WalletSyncClient--><g id="elem_WalletSyncClient"><rect fill="#F1F1F1" height="46.4883" rx="2.5" ry="2.5" style="stroke:#181818;stroke-width:0.5;" width="115" x="988.5" y="1269.3867"/><rect fill="#F1F1F1" height="10" style="stroke:#181818;stroke-width:0.5;" width="15" x="1083.5" y="1274.3867"/><rect fill="#F1F1F1" height="2" style="stroke:#181818;stroke-width:0.5;" width="4" x="1081.5" y="1276.3867"/><rect fill="#F1F1F1" height="2" style="stroke:#181818;stroke-width:0.5;" width="4" x="1081.5" y="1280.3867"/><text fill="#000000" font-family="sans-serif" font-size="14" lengthAdjust="spacing" textLength="75" x="1003.5" y="1302.9219">Sync Client</text></g><!--MD5=[79adeac346d7853e9b156e250d86a142]
entity WalletSecretKey--><g id="elem_WalletSecretKey"><rect fill="#F1F1F1" height="55.9766" rx="2.5" ry="2.5" style="stroke:#181818;stroke-width:0.5;" width="145" x="1177.5" y="1032.3867"/><polygon fill="#F1F1F1" points="1305.5,1037.3867,1305.5,1051.3867,1317.5,1051.3867,1317.5,1043.3867,1311.5,1037.3867,1305.5,1037.3867" style="stroke:#181818;stroke-width:0.5;"/><line style="stroke:#181818;stroke-width:0.5;" x1="1311.5" x2="1311.5" y1="1037.3867" y2="1043.3867"/><line style="stroke:#181818;stroke-width:0.5;" x1="1317.5" x2="1311.5" y1="1043.3867" y2="1043.3867"/><text fill="#000000" font-family="sans-serif" font-size="14" lengthAdjust="spacing" textLength="115" x="1187.5" y="1058.9219">Wallet Secret Key</text><text fill="#000000" font-family="sans-serif" font-size="14" lengthAdjust="spacing" textLength="98" x="1187.5" y="1075.4102">«per instance»</text></g><!--MD5=[744d2dabdad59f11fceac0c0ac6c126a]
entity WalletAPIServer--><g id="elem_WalletAPIServer"><rect fill="#F1F1F1" height="46.4883" rx="2.5" ry="2.5" style="stroke:#181818;stroke-width:0.5;" width="154" x="988" y="1037.3867"/><rect fill="#F1F1F1" height="10" style="stroke:#181818;stroke-width:0.5;" width="15" x="1122" y="1042.3867"/><rect fill="#F1F1F1" height="2" style="stroke:#181818;stroke-width:0.5;" width="4" x="1120" y="1044.3867"/><rect fill="#F1F1F1" height="2" style="stroke:#181818;stroke-width:0.5;" width="4" x="1120" y="1048.3867"/><text fill="#000000" font-family="sans-serif" font-size="14" lengthAdjust="spacing" textLength="114" x="1003" y="1070.9219">Wallet API Server</text></g><!--MD5=[3d3cd76ac90e577366be3a1431c06e0a]
entity Bootstrap--><g id="elem_Bootstrap"><rect fill="#F1F1F1" height="55.9766" rx="2.5" ry="2.5" style="stroke:#181818;stroke-width:0.5;" width="171" x="637.5" y="1745.3867"/><polygon fill="#F1F1F1" points="791.5,1750.3867,791.5,1764.3867,803.5,1764.3867,803.5,1756.3867,797.5,1750.3867,791.5,1750.3867" style="stroke:#181818;stroke-width:0.5;"/><line style="stroke:#181818;stroke-width:0.5;" x1="797.5" x2="797.5" y1="1750.3867" y2="1756.3867"/><line style="stroke:#181818;stroke-width:0.5;" x1="803.5" x2="797.5" y1="1756.3867" y2="1756.3867"/><text fill="#000000" font-family="sans-serif" font-size="14" lengthAdjust="spacing" textLength="100" x="647.5" y="1771.9219">Bootstrap data</text><text fill="#000000" font-family="sans-serif" font-size="14" lengthAdjust="spacing" textLength="141" x="647.5" y="1788.4102">to mint initial tokens</text></g><!--MD5=[4f8e1ef8823bd4a958a7eb600f4dd1a8]
entity NodeAPI--><g id="elem_NodeAPI"><rect fill="#F1F1F1" height="46.4883" rx="2.5" ry="2.5" style="stroke:#181818;stroke-width:0.5;" width="149" x="455.5" y="1511.8867"/><rect fill="#F1F1F1" height="10" style="stroke:#181818;stroke-width:0.5;" width="15" x="584.5" y="1516.8867"/><rect fill="#F1F1F1" height="2" style="stroke:#181818;stroke-width:0.5;" width="4" x="582.5" y="1518.8867"/><rect fill="#F1F1F1" height="2" style="stroke:#181818;stroke-width:0.5;" width="4" x="582.5" y="1522.8867"/><text fill="#000000" font-family="sans-serif" font-size="14" lengthAdjust="spacing" textLength="109" x="470.5" y="1545.4219">Node API Server</text></g><!--MD5=[5fb77a0d25b9ddd273464832364249c3]
entity NodeLedger--><g id="elem_NodeLedger"><rect fill="#F1F1F1" height="46.4883" rx="2.5" ry="2.5" style="stroke:#181818;stroke-width:0.5;" width="127" x="474.5" y="1622.3867"/><rect fill="#F1F1F1" height="10" style="stroke:#181818;stroke-width:0.5;" width="15" x="581.5" y="1627.3867"/><rect fill="#F1F1F1" height="2" style="stroke:#181818;stroke-width:0.5;" width="4" x="579.5" y="1629.3867"/><rect fill="#F1F1F1" height="2" style="stroke:#181818;stroke-width:0.5;" width="4" x="579.5" y="1633.3867"/><text fill="#000000" font-family="sans-serif" font-size="14" lengthAdjust="spacing" textLength="87" x="489.5" y="1655.9219">Node Ledger</text></g><!--MD5=[e817b47284c663ad89d112680bd53f3d]
entity NodeLedgerLib--><g id="elem_NodeLedgerLib"><rect fill="#F1F1F1" height="46.4883" rx="2.5" ry="2.5" style="stroke:#181818;stroke-width:0.5;" width="111" x="482.5" y="1750.3867"/><rect fill="#F1F1F1" height="10" style="stroke:#181818;stroke-width:0.5;" width="15" x="573.5" y="1755.3867"/><rect fill="#F1F1F1" height="2" style="stroke:#181818;stroke-width:0.5;" width="4" x="571.5" y="1757.3867"/><rect fill="#F1F1F1" height="2" style="stroke:#181818;stroke-width:0.5;" width="4" x="571.5" y="1761.3867"/><text fill="#000000" font-family="sans-serif" font-size="14" lengthAdjust="spacing" textLength="71" x="497.5" y="1783.9219">Ledger Lib</text></g><!--MD5=[c8b79e09086700b25002adeaed4ad49a]
entity LedgerState--><g id="elem_LedgerState"><rect fill="#F1F1F1" height="52.9766" rx="35" ry="35" style="stroke:#181818;stroke-width:0.5;" width="107" x="313.5" y="1508.3867"/><text fill="#000000" font-family="sans-serif" font-size="14" lengthAdjust="spacing" textLength="85" x="323.5" y="1531.9219">Ledger State</text><text fill="#000000" font-family="sans-serif" font-size="14" lengthAdjust="spacing" textLength="87" x="323.5" y="1548.4102">«ephemeral»</text></g><!--MD5=[fee662a292a0353a69bd162820bae93b]
entity User--><g id="elem_User"><ellipse cx="1299" cy="73.8867" fill="#F1F1F1" rx="8" ry="8" style="stroke:#181818;stroke-width:0.5;"/><path d="M1299,81.8867 L1299,108.8867 M1286,89.8867 L1312,89.8867 M1299,108.8867 L1286,123.8867 M1299,108.8867 L1312,123.8867 " fill="none" style="stroke:#181818;stroke-width:0.5;"/><text fill="#000000" font-family="sans-serif" font-size="14" lengthAdjust="spacing" textLength="31" x="1283.5" y="138.9219">User</text></g><!--MD5=[24f3bf49de0a864e444e220322aca76b]
link DappBackend to ApplicationBackend--><g id="link_DappBackend_ApplicationBackend"><path d="M651.89,657.5767 C645.68,666.7667 638.44,677.5567 632,687.3867 C621.8,702.9567 610.52,720.6567 601.93,734.2367 " fill="none" id="DappBackend-ApplicationBackend" style="stroke:#181818;stroke-width:1.0;"/></g><!--MD5=[cd99acaaea8a0773401f0f8ac7868818]
link ApplicationBackend to Contract--><g id="link_ApplicationBackend_Contract"><path d="M574.46,780.5167 C559.27,805.3467 534.76,845.3867 519.56,870.2267 " fill="none" id="ApplicationBackend-Contract" style="stroke:#181818;stroke-width:1.0;"/></g><!--MD5=[d99ea1a3dc3559e9c74420da8efbb485]
link ApplicationBackend to DappPublicState--><g id="link_ApplicationBackend_DappPublicState"><path d="M629.28,780.5167 C673.52,804.2267 743.66,841.8167 790.25,866.7867 " fill="none" id="ApplicationBackend-DappPublicState" style="stroke:#181818;stroke-width:1.0;"/></g><!--MD5=[c5a5111a6d5eb52db6a0f479f00f1e36]
link ApplicationBackend to DappPrivateState--><g id="link_ApplicationBackend_DappPrivateState"><path d="M498.23,776.3267 C456.49,785.3567 406.38,797.1867 362,810.3867 C303.91,827.6567 290.69,835.9567 234,857.3867 C226,860.4067 217.62,863.6167 209.32,866.8167 " fill="none" id="ApplicationBackend-DappPrivateState" style="stroke:#181818;stroke-width:1.0;"/></g><!--MD5=[fe7900e85bebfdc9ae844c0ff275de90]
link ApplicationBackend to DappSyncClient--><g id="link_ApplicationBackend_DappSyncClient"><path d="M498.4,772.5067 C464.23,780.3767 425.87,792.3667 394,810.3867 C366.87,825.7267 341.99,851.7567 326.25,870.3767 " fill="none" id="ApplicationBackend-DappSyncClient" style="stroke:#181818;stroke-width:1.0;"/></g><!--MD5=[7caf8f15f80d62284bc415979434c2a7]
link ApplicationBackend to DappLedgerLib--><g id="link_ApplicationBackend_DappLedgerLib"><path d="M519.63,780.4167 C483.74,795.8667 442.96,820.4767 422,857.3867 C388.08,917.1167 435.02,998.4067 462.13,1037.1167 " fill="none" id="ApplicationBackend-DappLedgerLib" style="stroke:#181818;stroke-width:1.0;"/></g><!--MD5=[0346260a2342a7f8f96e3c4d85875245]
link Contract to DappLedgerLib--><g id="link_Contract_DappLedgerLib"><path d="M502.36,916.6367 C497.19,948.2167 487.79,1005.6967 482.63,1037.2267 " fill="none" id="Contract-DappLedgerLib" style="stroke:#181818;stroke-width:1.0;"/></g><!--MD5=[04c4052ccc1d09434931878c5dda4372]
link ApplicationBackend to WalletAPIClient--><g id="link_ApplicationBackend_WalletAPIClient"><path d="M601.71,780.5167 C617.08,805.3467 641.89,845.3867 657.27,870.2267 " fill="none" id="ApplicationBackend-WalletAPIClient" style="stroke:#181818;stroke-width:1.0;"/></g><!--MD5=[43c531d184c32c4287c0d007c53c1f2f]
link ApplicationBackend to DappSecretKey--><g id="link_ApplicationBackend_DappSecretKey"><path d="M667.98,780.4367 C748.68,802.6867 873.9,837.2167 963.94,862.0367 " fill="none" id="ApplicationBackend-DappSecretKey" style="stroke:#181818;stroke-width:1.0;"/><text fill="#000000" font-family="sans-serif" font-size="13" lengthAdjust="spacing" textLength="92" x="832" y="823.9551">initializes with</text></g><!--MD5=[89a2286a69519873339df4eca5899752]
link WalletEngine to WalletSyncClient--><g id="link_WalletEngine_WalletSyncClient"><path d="M1117.92,1208.3967 C1102.5,1226.1967 1080.87,1251.1567 1065.36,1269.0467 " fill="none" id="WalletEngine-WalletSyncClient" style="stroke:#181818;stroke-width:1.0;"/></g><!--MD5=[1cb6c2c7b8a98aa256113b2ee6acd62a]
link WalletEngine to WalletLedgerLib--><g id="link_WalletEngine_WalletLedgerLib"><path d="M1148.95,1208.3967 C1158.61,1226.1967 1172.16,1251.1567 1181.87,1269.0467 " fill="none" id="WalletEngine-WalletLedgerLib" style="stroke:#181818;stroke-width:1.0;"/></g><!--MD5=[4a1146e5fc3cd0b81a4545e30be37553]
link WalletAPIServer to WalletEngine--><g id="link_WalletAPIServer_WalletEngine"><path d="M1078.04,1083.6567 C1091.09,1105.9567 1111.04,1140.0467 1124.06,1162.2767 " fill="none" id="WalletAPIServer-WalletEngine" style="stroke:#181818;stroke-width:1.0;"/></g><!--MD5=[f05f673c056ba52c23dabc0ea9335878]
link WalletTUI to WalletEngine--><g id="link_WalletTUI_WalletEngine"><path d="M1391.13,1083.5667 C1377.64,1096.7667 1359.09,1112.9167 1340,1123.3867 C1297.24,1146.8267 1244.36,1162.3367 1203.3,1171.8567 " fill="none" id="WalletTUI-WalletEngine" style="stroke:#181818;stroke-width:1.0;"/></g><!--MD5=[0969c0ce7adbb3e3e61f51622c861648]
link WalletAPIClient to WalletAPIServer--><g id="link_WalletAPIClient_WalletAPIServer"><path d="M717.37,916.4567 C728.25,921.1267 739.91,925.7467 751,929.3867 C825.89,953.9567 851.32,937.8767 924,968.3867 C966.31,986.1467 1009.93,1016.4967 1037.23,1037.2267 " fill="none" id="WalletAPIClient-WalletAPIServer" style="stroke:#181818;stroke-width:1.0;"/></g><!--MD5=[ce0ab183a3228e8734f9407406180399]
link DappServer to DappFrontendBundle--><g id="link_DappServer_DappFrontendBundle"><path d="M940.1676,643.3583 C940.2618,643.4502 940.3567,643.5428 940.4523,643.6361 C940.6435,643.8227 940.8375,644.012 941.0343,644.204 C941.4278,644.5879 941.8323,644.9826 942.2474,645.3877 C943.0776,646.1978 943.9503,647.0494 944.8623,647.9394 C952.1591,655.0595 961.9794,664.6423 972.7763,675.178 C994.37,696.2492 1019.87,721.1317 1036.9,737.7467 " fill="none" id="DappServer-DappFrontendBundle" style="stroke:#181818;stroke-width:1.0;"/><text fill="#000000" font-family="sans-serif" font-size="13" lengthAdjust="spacing" textLength="35" x="1002" y="700.9551">hosts</text></g><!--MD5=[8e7825106eabe64da29e3790f287e147]
link NodeAPI to NodeLedger--><g id="link_NodeAPI_NodeLedger"><path d="M531.64,1558.1067 C533.02,1576.8267 534.98,1603.4867 536.36,1622.1967 " fill="none" id="NodeAPI-NodeLedger" style="stroke:#181818;stroke-width:1.0;"/></g><!--MD5=[2e8b3ebdee85da0866a8658af0740db2]
link NodeLedger to NodeLedgerLib--><g id="link_NodeLedger_NodeLedgerLib"><path d="M538,1668.6267 C538,1691.6567 538,1727.4267 538,1750.3767 " fill="none" id="NodeLedger-NodeLedgerLib" style="stroke:#181818;stroke-width:1.0;"/></g><!--MD5=[a6bb9865904cc7d471acd8dac7283d2f]
link NodeLedger to Bootstrap--><g id="link_NodeLedger_Bootstrap"><path d="M570.65,1668.6267 C602.08,1690.0267 649.67,1722.4367 683.28,1745.3367 " fill="none" id="NodeLedger-Bootstrap" style="stroke:#181818;stroke-width:1.0;"/><text fill="#000000" font-family="sans-serif" font-size="13" lengthAdjust="spacing" textLength="92" x="637" y="1711.9551">initializes with</text></g><!--MD5=[58fdb1e7c6a7d068e4690d435a43eec1]
link User to UserBrowser--><g id="link_User_UserBrowser"><path d="M1314.55,122.6467 C1325.92,137.2267 1340.45,158.7267 1347,180.3867 C1352.2575,197.7717 1355.1694,216.6536 1356.5717,235.2427 C1356.9223,239.8899 1357.1785,244.5189 1357.3535,249.1016 C1357.441,251.3929 1357.5081,253.6727 1357.5566,255.9374 C1357.5808,257.0698 1357.6004,258.1984 1357.6155,259.3228 C1357.6193,259.6039 1357.6228,259.8847 1357.626,260.1653 " fill="none" id="User-UserBrowser" style="stroke:#181818;stroke-width:1.0;"/></g><!--MD5=[c63c56b72a38328ea3a38811ecfdb64b]
link User to UserTerminal--><g id="link_User_UserTerminal"><path d="M1291.2,141.4067 C1281.15,189.0667 1263.88,271.0467 1254.51,315.5167 " fill="none" id="User-UserTerminal" style="stroke:#181818;stroke-width:1.0;"/></g><!--MD5=[13451a4c1f5ccf781285bd2b9fafdfc3]
link DappFrontend to DappBackend--><g id="link_DappFrontend_DappBackend"><path d="M1445.82,370.5267 C1433.12,391.1467 1411.15,420.7067 1383,434.3867 C1254.32,496.9367 857.77,386.1367 740,467.3867 C691.41,500.9067 674.84,574.3767 669.45,611.2867 " fill="none" id="DappFrontend-DappBackend" style="stroke:#181818;stroke-width:1.0;"/><text fill="#000000" font-family="sans-serif" font-size="13" lengthAdjust="spacing" textLength="178" x="1358" y="455.9551">communicates over network</text></g><!--MD5=[cf92726c5e04fc28eb22c1bce887ecc9]
link DappSyncClient to NodeAPI--><g id="link_DappSyncClient_NodeAPI"><path d="M316.77,916.4867 C327.08,947.8567 344,1007.2667 344,1059.3867 C344,1059.3867 344,1059.3867 344,1293.3867 C344,1350.3167 402.12,1336.1967 438,1380.3867 C472.86,1423.3167 503.72,1480.7567 519.29,1511.7767 " fill="none" id="DappSyncClient-NodeAPI" style="stroke:#181818;stroke-width:1.0;"/></g><!--MD5=[d9839c7431c33b6fe9589ad3b438a76a]
link WalletSyncClient to NodeAPI--><g id="link_WalletSyncClient_NodeAPI"><path d="M998.38,1315.5767 C900.08,1361.3967 675.71,1465.9767 577.5,1511.7467 " fill="none" id="WalletSyncClient-NodeAPI" style="stroke:#181818;stroke-width:1.0;"/></g><!--MD5=[75cb6d45b0135d4a5d3f51da244be845]
link UserTerminal to WalletTUI--><g id="link_UserTerminal_WalletTUI"><path d="M1261.94,379.2967 C1283.88,430.8467 1324,538.1367 1324,633.3867 C1324,633.3867 1324,633.3867 1324,894.3867 C1324,951.1967 1365.12,1007.4467 1391.15,1037.3467 " fill="none" id="UserTerminal-WalletTUI" style="stroke:#181818;stroke-width:1.0;"/><text fill="#000000" font-family="sans-serif" font-size="13" lengthAdjust="spacing" textLength="137" x="1325" y="762.4551">renders, over network</text></g><rect height="47.1094" style="stroke:#00000000;stroke-width:1.0;fill:none;" width="200" x="694.5" y="1852.3867"/><text fill="#888888" font-family="sans-serif" font-size="10" lengthAdjust="spacing" textLength="3" x="793" y="1862.0547"> </text><text fill="#888888" font-family="sans-serif" font-size="10" lengthAdjust="spacing" textLength="3" x="793" y="1873.832"> </text><text fill="#888888" font-family="sans-serif" font-size="10" lengthAdjust="spacing" textLength="3" x="793" y="1885.6094"> </text><text fill="#888888" font-family="sans-serif" font-size="10" lengthAdjust="spacing" textLength="200" x="694.5" y="1897.3867">Copyright 2022, Input Output Global, Ltd.</text><!--MD5=[2cdbd1b3a6a5a671ad70707247c6c81d]
@startuml

header %filename()\n%date("yyyy.MM.dd' at 'HH:mm z")\n\n\n

footer \n\n\nCopyright %date("yyyy"), Input Output Global, Ltd.

actor User

node UserComputer as "User Computer\n<<machine>>" {
    node UserBrowser as "User Browser\n<<process>>" {
        component DappFrontend as "Dapp Frontend"
    }
    node UserTerminal as "User Terminal\n<<process>>"
}

node Server as "Server\n<<machine>>" {
    artifact DappFrontendBundle as "Dapp Frontend Bundle"

    artifact DappSecretKey as "Dapp Secret Key\n<<per instance>>\nto initialize the private state"

    node DappServer as "Dapp Server\n<<process>>" {
        component DappBackend as "Dapp Backend"
        component Contract as "DAO Contract"
        component ApplicationBackend as "Application Backend"
        storage DappPublicState as "Dapp Public State\n<<ephemeral>>"
        storage DappPrivateState as "Dapp Private State\n<<ephemeral>>"
        component DappSyncClient as "Sync Client"
        component DappLedgerLib as "Ledger Lib" 
        component WalletAPIClient as "Wallet Client"

        DappBackend - - ApplicationBackend
        ApplicationBackend - - Contract
        ApplicationBackend - - DappPublicState
        ApplicationBackend - - DappPrivateState
        ApplicationBackend - - DappSyncClient
        ApplicationBackend - - DappLedgerLib
        Contract - - DappLedgerLib
        ApplicationBackend - - WalletAPIClient
        ApplicationBackend - - DappSecretKey : "initializes with"
    }

    node Wallet as "Wallet\n<<process>>" {
        component WalletTUI as "Wallet TUI"
        component WalletEngine as "Wallet Engine"
        component WalletLedgerLib as "Ledger Lib"
        component WalletSyncClient as "Sync Client"
        artifact WalletSecretKey as "Wallet Secret Key\n<<per instance>>"
        component WalletAPIServer as "Wallet API Server"

        WalletEngine - - WalletSyncClient
        WalletEngine - - WalletLedgerLib
        WalletAPIServer - - WalletEngine
        WalletTUI - - WalletEngine
    }
    WalletAPIClient - - WalletAPIServer 
    DappServer - - DappFrontendBundle : "hosts"
}

node Node as "Node Host\n<<machine>>" {
    artifact Bootstrap as "Bootstrap data\nto mint initial tokens"
    node NodeInstance as "Node\n<<process>>" {
        component NodeAPI as "Node API Server"
        component NodeLedger as "Node Ledger"
        component NodeLedgerLib as "Ledger Lib"
        storage LedgerState as "Ledger State\n<<ephemeral>>"

        NodeAPI - - NodeLedger
        NodeLedger - - NodeLedgerLib
    }

    NodeLedger - - Bootstrap : "initializes with"
}

User - - UserBrowser
User - - UserTerminal

DappFrontend - - DappBackend : "communicates over network"
DappSyncClient - - NodeAPI
WalletSyncClient - - NodeAPI
UserTerminal - - WalletTUI : "renders, over network"

@enduml

@startuml

header dapp-instance-deployment.puml\n2022.10.30 at 22:26 CET\n\n\n

footer \n\n\nCopyright 2022, Input Output Global, Ltd.

actor User

node UserComputer as "User Computer\n<<machine>>" {
    node UserBrowser as "User Browser\n<<process>>" {
        component DappFrontend as "Dapp Frontend"
    }
    node UserTerminal as "User Terminal\n<<process>>"
}

node Server as "Server\n<<machine>>" {
    artifact DappFrontendBundle as "Dapp Frontend Bundle"

    artifact DappSecretKey as "Dapp Secret Key\n<<per instance>>\nto initialize the private state"

    node DappServer as "Dapp Server\n<<process>>" {
        component DappBackend as "Dapp Backend"
        component Contract as "DAO Contract"
        component ApplicationBackend as "Application Backend"
        storage DappPublicState as "Dapp Public State\n<<ephemeral>>"
        storage DappPrivateState as "Dapp Private State\n<<ephemeral>>"
        component DappSyncClient as "Sync Client"
        component DappLedgerLib as "Ledger Lib" 
        component WalletAPIClient as "Wallet Client"

        DappBackend - - ApplicationBackend
        ApplicationBackend - - Contract
        ApplicationBackend - - DappPublicState
        ApplicationBackend - - DappPrivateState
        ApplicationBackend - - DappSyncClient
        ApplicationBackend - - DappLedgerLib
        Contract - - DappLedgerLib
        ApplicationBackend - - WalletAPIClient
        ApplicationBackend - - DappSecretKey : "initializes with"
    }

    node Wallet as "Wallet\n<<process>>" {
        component WalletTUI as "Wallet TUI"
        component WalletEngine as "Wallet Engine"
        component WalletLedgerLib as "Ledger Lib"
        component WalletSyncClient as "Sync Client"
        artifact WalletSecretKey as "Wallet Secret Key\n<<per instance>>"
        component WalletAPIServer as "Wallet API Server"

        WalletEngine - - WalletSyncClient
        WalletEngine - - WalletLedgerLib
        WalletAPIServer - - WalletEngine
        WalletTUI - - WalletEngine
    }
    WalletAPIClient - - WalletAPIServer 
    DappServer - - DappFrontendBundle : "hosts"
}

node Node as "Node Host\n<<machine>>" {
    artifact Bootstrap as "Bootstrap data\nto mint initial tokens"
    node NodeInstance as "Node\n<<process>>" {
        component NodeAPI as "Node API Server"
        component NodeLedger as "Node Ledger"
        component NodeLedgerLib as "Ledger Lib"
        storage LedgerState as "Ledger State\n<<ephemeral>>"

        NodeAPI - - NodeLedger
        NodeLedger - - NodeLedgerLib
    }

    NodeLedger - - Bootstrap : "initializes with"
}

User - - UserBrowser
User - - UserTerminal

DappFrontend - - DappBackend : "communicates over network"
DappSyncClient - - NodeAPI
WalletSyncClient - - NodeAPI
UserTerminal - - WalletTUI : "renders, over network"

@enduml

PlantUML version 1.2022.3(Tue Mar 29 18:10:57 CEST 2022)
(GPL source distribution)
Java Runtime: OpenJDK Runtime Environment
JVM: OpenJDK 64-Bit Server VM
Default Encoding: UTF-8
Language: en
Country: PL
--></g></svg>