<?xml version="1.0" encoding="UTF-8" standalone="no"?><svg xmlns="http://www.w3.org/2000/svg" xmlns:xlink="http://www.w3.org/1999/xlink" contentStyleType="text/css" height="1296px" preserveAspectRatio="none" style="width:786px;height:1296px;background:#FFFFFF;" version="1.1" viewBox="0 0 786 1296" width="786px" zoomAndPan="magnify"><defs/><g><rect height="58.8867" style="stroke:#00000000;stroke-width:1.0;fill:none;" width="161" x="611" y="0"/><text fill="#888888" font-family="sans-serif" font-size="10" lengthAdjust="spacing" textLength="161" x="611" y="9.668">dapp-instance-deployment.puml</text><text fill="#888888" font-family="sans-serif" font-size="10" lengthAdjust="spacing" textLength="118" x="654" y="21.4453">2024.01.08 at 12:24 CET</text><text fill="#888888" font-family="sans-serif" font-size="10" lengthAdjust="spacing" textLength="3" x="769" y="33.2227"> </text><text fill="#888888" font-family="sans-serif" font-size="10" lengthAdjust="spacing" textLength="3" x="769" y="45"> </text><text fill="#888888" font-family="sans-serif" font-size="10" lengthAdjust="spacing" textLength="3" x="769" y="56.7773"> </text><!--MD5=[e1ef1f621d9806160b14322b4b6e1976]
cluster UserComputer--><g id="cluster_UserComputer"><polygon points="16,198.3867,26,188.3867,349,188.3867,349,814.3867,339,824.3867,16,824.3867,16,198.3867" style="stroke:#181818;stroke-width:1.0;fill:none;"/><line style="stroke:#181818;stroke-width:1.0;fill:none;" x1="339" x2="349" y1="198.3867" y2="188.3867"/><line style="stroke:#181818;stroke-width:1.0;fill:none;" x1="16" x2="339" y1="198.3867" y2="198.3867"/><line style="stroke:#181818;stroke-width:1.0;fill:none;" x1="339" x2="339" y1="198.3867" y2="824.3867"/><text fill="#000000" font-family="sans-serif" font-size="14" font-weight="bold" lengthAdjust="spacing" textLength="108" x="124.5" y="214.9219">User Computer</text><text fill="#000000" font-family="sans-serif" font-size="14" font-weight="bold" lengthAdjust="spacing" textLength="104" x="126.5" y="231.4102">&lt;&lt;machine&gt;&gt;</text></g><!--MD5=[89a442c4803c6d0fbeb8f00ac73d9d8e]
cluster UserBrowserTab--><g id="cluster_UserBrowserTab"><polygon points="110,270.3867,120,260.3867,313,260.3867,313,384.3867,303,394.3867,110,394.3867,110,270.3867" style="stroke:#181818;stroke-width:1.0;fill:none;"/><line style="stroke:#181818;stroke-width:1.0;fill:none;" x1="303" x2="313" y1="270.3867" y2="260.3867"/><line style="stroke:#181818;stroke-width:1.0;fill:none;" x1="110" x2="303" y1="270.3867" y2="270.3867"/><line style="stroke:#181818;stroke-width:1.0;fill:none;" x1="303" x2="303" y1="270.3867" y2="394.3867"/><text fill="#000000" font-family="sans-serif" font-size="14" font-weight="bold" lengthAdjust="spacing" textLength="127" x="144" y="286.9219">User Browser Tab</text><text fill="#000000" font-family="sans-serif" font-size="14" font-weight="bold" lengthAdjust="spacing" textLength="99" x="158" y="303.4102">&lt;&lt;process&gt;&gt;</text></g><!--MD5=[a4439423852f0746b88bc92c2e30a10e]
cluster WalletBrowserExtension--><g id="cluster_WalletBrowserExtension"><polygon points="58,469.3867,68,459.3867,317,459.3867,317,583.3867,307,593.3867,58,593.3867,58,469.3867" style="stroke:#181818;stroke-width:1.0;fill:none;"/><line style="stroke:#181818;stroke-width:1.0;fill:none;" x1="307" x2="317" y1="469.3867" y2="459.3867"/><line style="stroke:#181818;stroke-width:1.0;fill:none;" x1="58" x2="307" y1="469.3867" y2="469.3867"/><line style="stroke:#181818;stroke-width:1.0;fill:none;" x1="307" x2="307" y1="469.3867" y2="593.3867"/><text fill="#000000" font-family="sans-serif" font-size="14" font-weight="bold" lengthAdjust="spacing" textLength="183" x="92" y="485.9219">Wallet Browser Extension</text><text fill="#000000" font-family="sans-serif" font-size="14" font-weight="bold" lengthAdjust="spacing" textLength="99" x="134" y="502.4102">&lt;&lt;process&gt;&gt;</text></g><!--MD5=[d31c821905f8bd9ae7686a9077e3c19f]
cluster ProofServer--><g id="cluster_ProofServer"><polygon points="51,668.3867,61,658.3867,226,658.3867,226,782.3867,216,792.3867,51,792.3867,51,668.3867" style="stroke:#181818;stroke-width:1.0;fill:none;"/><line style="stroke:#181818;stroke-width:1.0;fill:none;" x1="216" x2="226" y1="668.3867" y2="658.3867"/><line style="stroke:#181818;stroke-width:1.0;fill:none;" x1="51" x2="216" y1="668.3867" y2="668.3867"/><line style="stroke:#181818;stroke-width:1.0;fill:none;" x1="216" x2="216" y1="668.3867" y2="792.3867"/><text fill="#000000" font-family="sans-serif" font-size="14" font-weight="bold" lengthAdjust="spacing" textLength="88" x="90.5" y="684.9219">Proof Server</text><text fill="#000000" font-family="sans-serif" font-size="14" font-weight="bold" lengthAdjust="spacing" textLength="99" x="85" y="701.4102">&lt;&lt;process&gt;&gt;</text></g><!--MD5=[ffcf748931af1b4b52758b5e215f97b3]
cluster DAppServer--><g id="cluster_DAppServer"><polygon points="579,468.8867,589,458.8867,769,458.8867,769,770.8867,759,780.8867,579,780.8867,579,468.8867" style="stroke:#181818;stroke-width:1.0;fill:none;"/><line style="stroke:#181818;stroke-width:1.0;fill:none;" x1="759" x2="769" y1="468.8867" y2="458.8867"/><line style="stroke:#181818;stroke-width:1.0;fill:none;" x1="579" x2="759" y1="468.8867" y2="468.8867"/><line style="stroke:#181818;stroke-width:1.0;fill:none;" x1="759" x2="759" y1="468.8867" y2="780.8867"/><text fill="#000000" font-family="sans-serif" font-size="14" font-weight="bold" lengthAdjust="spacing" textLength="88" x="626" y="485.4219">DApp Server</text><text fill="#000000" font-family="sans-serif" font-size="14" font-weight="bold" lengthAdjust="spacing" textLength="104" x="618" y="501.9102">&lt;&lt;machine&gt;&gt;</text></g><!--MD5=[31226ef4ec3e6aeefa75eb169ce7b220]
cluster ServiceHost--><g id="cluster_ServiceHost"><polygon points="373,667.8867,383,657.8867,555,657.8867,555,940.3867,545,950.3867,373,950.3867,373,667.8867" style="stroke:#181818;stroke-width:1.0;fill:none;"/><line style="stroke:#181818;stroke-width:1.0;fill:none;" x1="545" x2="555" y1="667.8867" y2="657.8867"/><line style="stroke:#181818;stroke-width:1.0;fill:none;" x1="373" x2="545" y1="667.8867" y2="667.8867"/><line style="stroke:#181818;stroke-width:1.0;fill:none;" x1="545" x2="545" y1="667.8867" y2="950.3867"/><text fill="#000000" font-family="sans-serif" font-size="14" font-weight="bold" lengthAdjust="spacing" textLength="89" x="415.5" y="684.4219">Service Host</text><text fill="#000000" font-family="sans-serif" font-size="14" font-weight="bold" lengthAdjust="spacing" textLength="104" x="408" y="700.9102">&lt;&lt;machine&gt;&gt;</text></g><!--MD5=[d3a0d508a36a961e9261058c2fe64c1d]
cluster BlockProducerHost--><g id="cluster_BlockProducerHost"><polygon points="342,1100.3867,352,1090.3867,564,1090.3867,564,1215.3867,554,1225.3867,342,1225.3867,342,1100.3867" style="stroke:#181818;stroke-width:1.0;fill:none;"/><line style="stroke:#181818;stroke-width:1.0;fill:none;" x1="554" x2="564" y1="1100.3867" y2="1090.3867"/><line style="stroke:#181818;stroke-width:1.0;fill:none;" x1="342" x2="554" y1="1100.3867" y2="1100.3867"/><line style="stroke:#181818;stroke-width:1.0;fill:none;" x1="554" x2="554" y1="1100.3867" y2="1225.3867"/><text fill="#000000" font-family="sans-serif" font-size="14" font-weight="bold" lengthAdjust="spacing" textLength="146" x="376" y="1116.9219">Block Producer Host</text><text fill="#000000" font-family="sans-serif" font-size="14" font-weight="bold" lengthAdjust="spacing" textLength="104" x="397" y="1133.4102">&lt;&lt;machine&gt;&gt;</text></g><!--MD5=[ea833428b387fedfee6e337d2d6b9b7e]
entity DApp--><g id="elem_DApp"><rect fill="#F1F1F1" height="46.4883" rx="2.5" ry="2.5" style="stroke:#181818;stroke-width:0.5;" width="78" x="134" y="324.3867"/><rect fill="#F1F1F1" height="10" style="stroke:#181818;stroke-width:0.5;" width="15" x="192" y="329.3867"/><rect fill="#F1F1F1" height="2" style="stroke:#181818;stroke-width:0.5;" width="4" x="190" y="331.3867"/><rect fill="#F1F1F1" height="2" style="stroke:#181818;stroke-width:0.5;" width="4" x="190" y="335.3867"/><text fill="#000000" font-family="sans-serif" font-size="14" lengthAdjust="spacing" textLength="38" x="149" y="357.9219">DApp</text></g><!--MD5=[c4b566497615f8fc1b46543732e170be]
entity DAppConnector--><g id="elem_DAppConnector"><rect fill="#F1F1F1" height="46.4883" rx="2.5" ry="2.5" style="stroke:#181818;stroke-width:0.5;" width="154" x="104" y="523.3867"/><rect fill="#F1F1F1" height="10" style="stroke:#181818;stroke-width:0.5;" width="15" x="238" y="528.3867"/><rect fill="#F1F1F1" height="2" style="stroke:#181818;stroke-width:0.5;" width="4" x="236" y="530.3867"/><rect fill="#F1F1F1" height="2" style="stroke:#181818;stroke-width:0.5;" width="4" x="236" y="534.3867"/><text fill="#000000" font-family="sans-serif" font-size="14" lengthAdjust="spacing" textLength="114" x="119" y="556.9219">DApp Connector</text></g><!--MD5=[173408e3aaeeefcfc494f6f5af935cc4]
entity Plonk--><g id="elem_Plonk"><rect fill="#F1F1F1" height="46.4883" rx="2.5" ry="2.5" style="stroke:#181818;stroke-width:0.5;" width="78" x="111" y="722.3867"/><rect fill="#F1F1F1" height="10" style="stroke:#181818;stroke-width:0.5;" width="15" x="169" y="727.3867"/><rect fill="#F1F1F1" height="2" style="stroke:#181818;stroke-width:0.5;" width="4" x="167" y="729.3867"/><rect fill="#F1F1F1" height="2" style="stroke:#181818;stroke-width:0.5;" width="4" x="167" y="733.3867"/><text fill="#000000" font-family="sans-serif" font-size="14" lengthAdjust="spacing" textLength="38" x="126" y="755.9219">Plonk</text></g><!--MD5=[15b2c10ff791612153f9c3a64a6b94b9]
entity DAppBundle--><g id="elem_DAppBundle"><rect fill="#F1F1F1" height="39.4883" rx="2.5" ry="2.5" style="stroke:#181818;stroke-width:0.5;" width="119" x="614.5" y="725.8867"/><polygon fill="#F1F1F1" points="716.5,730.8867,716.5,744.8867,728.5,744.8867,728.5,736.8867,722.5,730.8867,716.5,730.8867" style="stroke:#181818;stroke-width:0.5;"/><line style="stroke:#181818;stroke-width:0.5;" x1="722.5" x2="722.5" y1="730.8867" y2="736.8867"/><line style="stroke:#181818;stroke-width:0.5;" x1="728.5" x2="722.5" y1="736.8867" y2="736.8867"/><text fill="#000000" font-family="sans-serif" font-size="14" lengthAdjust="spacing" textLength="89" x="624.5" y="752.4219">DApp Bundle</text></g><!--MD5=[8069bb0b0b740f5dad9f68e6440d8cc6]
entity HttpServer--><g id="elem_HttpServer"><polygon fill="#F1F1F1" points="595,524.8867,605,514.8867,753,514.8867,753,567.8633,743,577.8633,595,577.8633,595,524.8867" style="stroke:#181818;stroke-width:0.5;"/><line style="stroke:#181818;stroke-width:0.5;" x1="743" x2="753" y1="524.8867" y2="514.8867"/><line style="stroke:#181818;stroke-width:0.5;" x1="595" x2="743" y1="524.8867" y2="524.8867"/><line style="stroke:#181818;stroke-width:0.5;" x1="743" x2="743" y1="524.8867" y2="577.8633"/><text fill="#000000" font-family="sans-serif" font-size="14" lengthAdjust="spacing" textLength="118" x="610" y="548.4219">DApp Http Server</text><text fill="#000000" font-family="sans-serif" font-size="14" lengthAdjust="spacing" textLength="67" x="610" y="564.9102">«process»</text></g><!--MD5=[b092e175e12e76040bc85f347cf11934]
entity PubSubIndexer--><g id="elem_PubSubIndexer"><polygon fill="#F1F1F1" points="389.5,723.8867,399.5,713.8867,538.5,713.8867,538.5,766.8633,528.5,776.8633,389.5,776.8633,389.5,723.8867" style="stroke:#181818;stroke-width:0.5;"/><line style="stroke:#181818;stroke-width:0.5;" x1="528.5" x2="538.5" y1="723.8867" y2="713.8867"/><line style="stroke:#181818;stroke-width:0.5;" x1="389.5" x2="528.5" y1="723.8867" y2="723.8867"/><line style="stroke:#181818;stroke-width:0.5;" x1="528.5" x2="528.5" y1="723.8867" y2="776.8633"/><text fill="#000000" font-family="sans-serif" font-size="14" lengthAdjust="spacing" textLength="109" x="404.5" y="747.4219">PubSub Indexer</text><text fill="#000000" font-family="sans-serif" font-size="14" lengthAdjust="spacing" textLength="67" x="404.5" y="763.9102">«process»</text></g><!--MD5=[48234ca45933821a2f892b5cc5bef611]
entity NodeInstance--><g id="elem_NodeInstance"><polygon fill="#F1F1F1" points="399.5,881.3867,409.5,871.3867,506.5,871.3867,506.5,924.3633,496.5,934.3633,399.5,934.3633,399.5,881.3867" style="stroke:#181818;stroke-width:0.5;"/><line style="stroke:#181818;stroke-width:0.5;" x1="496.5" x2="506.5" y1="881.3867" y2="871.3867"/><line style="stroke:#181818;stroke-width:0.5;" x1="399.5" x2="496.5" y1="881.3867" y2="881.3867"/><line style="stroke:#181818;stroke-width:0.5;" x1="496.5" x2="496.5" y1="881.3867" y2="934.3633"/><text fill="#000000" font-family="sans-serif" font-size="14" lengthAdjust="spacing" textLength="36" x="414.5" y="904.9219">Node</text><text fill="#000000" font-family="sans-serif" font-size="14" lengthAdjust="spacing" textLength="67" x="414.5" y="921.4102">«process»</text></g><!--MD5=[b755b076882205be8386e80c5a0eba46]
entity BlockProducerNodeInstance--><g id="elem_BlockProducerNodeInstance"><polygon fill="#F1F1F1" points="362,1156.3867,372,1146.3867,544,1146.3867,544,1199.3633,534,1209.3633,362,1209.3633,362,1156.3867" style="stroke:#181818;stroke-width:0.5;"/><line style="stroke:#181818;stroke-width:0.5;" x1="534" x2="544" y1="1156.3867" y2="1146.3867"/><line style="stroke:#181818;stroke-width:0.5;" x1="362" x2="534" y1="1156.3867" y2="1156.3867"/><line style="stroke:#181818;stroke-width:0.5;" x1="534" x2="534" y1="1156.3867" y2="1209.3633"/><text fill="#000000" font-family="sans-serif" font-size="14" lengthAdjust="spacing" textLength="142" x="377" y="1179.9219">Block Producer Node</text><text fill="#000000" font-family="sans-serif" font-size="14" lengthAdjust="spacing" textLength="67" x="377" y="1196.4102">«process»</text></g><!--MD5=[fee662a292a0353a69bd162820bae93b]
entity User--><g id="elem_User"><ellipse cx="29" cy="73.8867" fill="#F1F1F1" rx="8" ry="8" style="stroke:#181818;stroke-width:0.5;"/><path d="M29,81.8867 L29,108.8867 M16,89.8867 L42,89.8867 M29,108.8867 L16,123.8867 M29,108.8867 L42,123.8867 " fill="none" style="stroke:#181818;stroke-width:0.5;"/><text fill="#000000" font-family="sans-serif" font-size="14" lengthAdjust="spacing" textLength="31" x="13.5" y="138.9219">User</text></g><!--MD5=[da71f9c9332050f51d750f580a0989e0]
entity MidnightNetwork--><g id="elem_MidnightNetwork"><path d="M386.6752,1006.7377 C390.036,1001.515 393.5653,1000.4743 397.6254,1006.0269 C400.5594,1000.0169 403.8288,999.7141 408.2942,1004.5158 C412.4501,999.9899 416.8776,999.2739 420.2444,1005.4009 C423.5683,999.1698 428.6248,999.0234 432.1627,1005.1952 C434.8881,999.5969 439.9997,999.5866 443.7381,1004.027 C446.0361,998.7592 450.937,997.7791 454.8766,1002.1251 C458.8092,997.1746 464.3109,997.9955 466.2753,1004.1462 C469.5363,998.48 473.6879,998.4458 477.6468,1003.3988 C481.5233,998.6394 485.0395,999.8614 487.2284,1005.0279 C491.5315,998.4547 495.6867,998.0642 500.2646,1004.7578 C505.0799,999.6131 508.8623,1000.0749 511.4536,1006.846 C513.9384,1002.593 518.9307,1001.5383 521.5627,1006.6878 C529.2767,1009.3341 531.5919,1015.3338 525.1672,1021.4357 C532.0405,1027.6629 529.9568,1034.1777 521.4855,1036.705 C518.4962,1041.7812 513.7183,1042.2902 510.6211,1036.8161 C507.7192,1042.2367 502.5235,1043.1081 498.9337,1037.5483 C496.1952,1042.6874 492.9952,1043.034 488.6251,1039.4838 C485.2077,1044.5661 481.6246,1045.6792 477.774,1039.9173 C474.5097,1044.7345 469.1435,1044.9693 466.2832,1039.4675 C463.0387,1046.2703 458.3702,1046.3625 453.1917,1041.67 C449.0662,1045.5952 445.2418,1045.6808 442.76,1039.9028 C439.232,1045.6302 434.2234,1045.0433 430.8263,1039.7607 C426.4675,1043.7346 422.4269,1043.4602 419.5288,1038.0097 C416.4324,1043.5962 411.844,1045.0103 407.781,1038.9878 C404.1245,1043.2705 398.4712,1043.6461 396.4417,1037.2588 C393.3344,1041.7551 390.1062,1041.55 386.714,1037.5862 C376.3048,1036.4897 374.1107,1031.3523 377.6014,1022.0847 C373.6979,1014.0774 377.9963,1007.3058 386.6752,1006.7377 " fill="#F1F1F1" style="stroke:#181818;stroke-width:0.5;"/><text fill="#000000" font-family="sans-serif" font-size="14" lengthAdjust="spacing" textLength="122" x="392" y="1025.9219">Midnight Network</text></g><!--MD5=[d35f7412e80f747db22c45fdeb9f6014]
link DApp to DAppConnector--><g id="link_DApp_DAppConnector"><path d="M173.9,370.6067 C175.44,408.4367 178.55,484.9667 180.09,522.9467 " fill="none" id="DApp-DAppConnector" style="stroke:#181818;stroke-width:1.0;"/><text fill="#000000" font-family="sans-serif" font-size="13" lengthAdjust="spacing" textLength="158" x="178" y="431.9551">extension messaging API</text></g><!--MD5=[0d939108c76a72ff0baea53da18d68d0]
link DApp to ProofServer--><g id="link_DApp_ProofServer"><path d="M133.71,366.5067 C104.67,382.2767 67.31,408.1467 50,443.3867 C20.94,502.5517 23.8775,576.3917 34.355,636.1292 C36.9744,651.0636 40.065,665.1166 43.2447,677.8385 C44.8346,684.1994 46.4467,690.2276 48.0334,695.8669 C48.8267,698.6865 49.6136,701.4088 50.3883,704.0269 C50.5819,704.6815 50.7748,705.3295 50.9668,705.9708 " fill="none" id="DApp-ProofServer" style="stroke:#181818;stroke-width:1.0;"/></g><!--MD5=[9019f91a0f93237f018178e27f5ebfa1]
link WalletBrowserExtension to ProofServer--><g id="link_WalletBrowserExtension_ProofServer"><path d="M67.8287,593.6217 C67.8205,593.9433 67.8123,594.2659 67.8041,594.5896 C67.6725,599.7684 67.5343,605.2096 67.3916,610.8257 C67.1063,622.0579 66.8031,633.9895 66.5,645.9205 C66.4242,648.9032 66.3484,651.8859 66.2729,654.8576 C66.2541,655.6005 66.2352,656.3428 66.2164,657.0841 C66.2069,657.4548 66.1975,657.8253 66.1881,658.1956 " fill="none" id="WalletBrowserExtension-ProofServer" style="stroke:#181818;stroke-width:1.0;"/></g><!--MD5=[72138c8f4e61de944a02a23575ea7fc1]
link HttpServer to DAppBundle--><g id="link_HttpServer_DAppBundle"><path d="M674,578.1667 C674,619.3967 674,691.3067 674,725.4067 " fill="none" id="HttpServer-DAppBundle" style="stroke:#181818;stroke-width:1.0;"/><text fill="#000000" font-family="sans-serif" font-size="13" lengthAdjust="spacing" textLength="35" x="675" y="630.9551">hosts</text></g><!--MD5=[d76d8debabbd89ec2cbea3d72c8458fb]
link PubSubIndexer to NodeInstance--><g id="link_PubSubIndexer_NodeInstance"><path d="M461.83,777.1067 C459.9,804.2767 457.11,843.7267 455.19,870.9667 " fill="none" id="PubSubIndexer-NodeInstance" style="stroke:#181818;stroke-width:1.0;"/></g><!--MD5=[8a986aa1e1a8aac8f491957bc544ab91]
link User to UserBrowserTab--><g id="link_User_UserBrowserTab"><path d="M44.81,106.3467 C81.51,111.6567 173.51,129.5567 228,180.3867 C242.635,194.0392 254.73,211.0255 264.6489,228.8778 C269.6084,237.804 274.0238,246.9467 277.9407,255.9974 C278.4303,257.1288 278.9121,258.2587 279.3862,259.3866 C279.5048,259.6685 279.6228,259.9504 279.7404,260.2321 " fill="none" id="User-UserBrowserTab" style="stroke:#181818;stroke-width:1.0;"/></g><!--MD5=[8f1b6bb4601bd59b61990fe907ad0bb1]
link User to WalletBrowserExtension--><g id="link_User_WalletBrowserExtension"><path d="M32.38,141.6067 C37.16,194.3517 46.21,294.1367 54.1175,381.3092 C56.0944,403.1023 57.9998,424.1072 59.7493,443.3917 C60.1867,448.2128 60.6143,452.9264 61.0309,457.5179 C61.083,458.0919 61.1349,458.6639 61.1866,459.234 " fill="none" id="User-WalletBrowserExtension" style="stroke:#181818;stroke-width:1.0;"/></g><!--MD5=[e722af07a0568780b16771d7398c49fc]
link UserBrowserTab to HttpServer--><g id="link_UserBrowserTab_HttpServer"><path d="M313.116,352.677 C314.7069,353.5177 316.5087,354.47 318.5009,355.5231 C326.47,359.7358 337.4863,365.5623 350.235,372.313 C375.7325,385.8142 408.16,403.0117 437,418.3867 C498.38,451.1067 568.59,488.7567 616.57,514.5167 " fill="none" id="UserBrowserTab-HttpServer" style="stroke:#181818;stroke-width:1.0;"/></g><!--MD5=[71bd06fa068c7d5da4a3a6cfbe299d21]
link NodeInstance to MidnightNetwork--><g id="link_NodeInstance_MidnightNetwork"><path d="M453,934.8367 C453,954.4867 453,979.4467 453,997.1367 " fill="none" id="NodeInstance-MidnightNetwork" style="stroke:#181818;stroke-width:1.0;"/></g><!--MD5=[d91e374e8e8c8a4abde002c2d55ed0e9]
link UserBrowserTab to PubSubIndexer--><g id="link_UserBrowserTab_PubSubIndexer"><path d="M313.0863,361.014 C313.1372,361.0954 313.1883,361.1771 313.2395,361.2592 C313.6495,361.9154 314.0708,362.5919 314.5022,363.2873 C316.2282,366.0691 318.1184,369.1548 320.1113,372.4692 C328.0825,385.7267 337.695,402.6417 345,418.3867 C393.83,523.5867 436.51,654.9067 454.68,713.5867 " fill="none" id="UserBrowserTab-PubSubIndexer" style="stroke:#181818;stroke-width:1.0;"/></g><!--MD5=[e5286e901141d23b37c0fc05d53041dd]
link WalletBrowserExtension to PubSubIndexer--><g id="link_WalletBrowserExtension_PubSubIndexer"><path d="M75.9388,593.5012 C76.0296,593.6999 76.1215,593.898 76.2146,594.0955 C76.4007,594.4904 76.5913,594.883 76.7866,595.2728 C77.1771,596.0525 77.5861,596.8215 78.0145,597.5777 C78.8713,599.0901 79.8056,600.5515 80.8241,601.9462 C82.8611,604.7356 85.235,607.258 88,609.3867 C106.24,623.4267 273.31,609.6767 295,617.3867 C351.02,637.2967 403.82,682.8667 435.04,713.6467 " fill="none" id="WalletBrowserExtension-PubSubIndexer" style="stroke:#181818;stroke-width:1.0;"/></g><!--MD5=[224591a14c6486d808d40d443aacb29f]
link WalletBrowserExtension to NodeInstance--><g id="link_WalletBrowserExtension_NodeInstance"><path d="M77.391,593.6545 C77.4818,593.8559 77.5736,594.0569 77.6664,594.2574 C78.0376,595.0595 78.4245,595.854 78.8278,596.6393 C79.6344,598.2097 80.5066,599.7429 81.4496,601.2247 C83.3356,604.1884 85.505,606.9467 88,609.3867 C126.63,647.1567 159.29,613.5767 205,642.3867 C300.12,702.3267 292.03,753.3667 372,832.3867 C385.44,845.6667 401.03,859.4067 414.92,871.1167 " fill="none" id="WalletBrowserExtension-NodeInstance" style="stroke:#181818;stroke-width:1.0;"/></g><!--MD5=[95e0a63800b75474bd6ec7aed44490ca]
link MidnightNetwork to BlockProducerNodeInstance--><g id="link_MidnightNetwork_BlockProducerNodeInstance"><path d="M453,1043.6667 C453,1070.5367 453,1115.8567 453,1146.0767 " fill="none" id="MidnightNetwork-BlockProducerNodeInstance" style="stroke:#181818;stroke-width:1.0;"/></g><rect height="47.1094" style="stroke:#00000000;stroke-width:1.0;fill:none;" width="200" x="286" y="1241.3867"/><text fill="#888888" font-family="sans-serif" font-size="10" lengthAdjust="spacing" textLength="3" x="384.5" y="1251.0547"> </text><text fill="#888888" font-family="sans-serif" font-size="10" lengthAdjust="spacing" textLength="3" x="384.5" y="1262.832"> </text><text fill="#888888" font-family="sans-serif" font-size="10" lengthAdjust="spacing" textLength="3" x="384.5" y="1274.6094"> </text><text fill="#888888" font-family="sans-serif" font-size="10" lengthAdjust="spacing" textLength="200" x="286" y="1286.3867">Copyright 2024, Input Output Global, Ltd.</text><!--MD5=[a7a9808f9ee57ae1cb29a915945d526e]
@startuml

header %filename()\n%date("yyyy.MM.dd' at 'HH:mm z")\n\n\n

footer \n\n\nCopyright %date("yyyy"), Input Output Global, Ltd.

actor User

node UserComputer as "User Computer\n<<machine>>" {
    node UserBrowserTab as "User Browser Tab\n<<process>>" {
        component DApp as "DApp"
    }

    node WalletBrowserExtension as "Wallet Browser Extension\n<<process>>" {
      component DAppConnector as "DApp Connector"
    }

    node ProofServer as "Proof Server\n<<process>>" {
      component Plonk
    }

    DApp - - DAppConnector : "extension messaging API"
    DApp - - ProofServer
    WalletBrowserExtension - - ProofServer
}

node DAppServer as "DApp Server\n<<machine>>" {
    artifact DAppBundle as "DApp Bundle"

    node HttpServer as "DApp Http Server\n<<process>>"

    HttpServer - - DAppBundle : "hosts"
}

node ServiceHost as "Service Host\n<<machine>>" {
    node PubSubIndexer as "PubSub Indexer\n<<process>>"


    node NodeInstance as "Node\n<<process>>" {

    }

    PubSubIndexer - - NodeInstance
}

node BlockProducerHost as "Block Producer Host\n<<machine>>" {
  node BlockProducerNodeInstance as "Block Producer Node\n<<process>>"
}

cloud MidnightNetwork as "Midnight Network"

User - - UserBrowserTab
User - - WalletBrowserExtension
UserBrowserTab - - HttpServer
NodeInstance - - MidnightNetwork
UserBrowserTab - - PubSubIndexer
WalletBrowserExtension - - PubSubIndexer
WalletBrowserExtension - - NodeInstance
MidnightNetwork - - BlockProducerNodeInstance

@enduml

@startuml

header dapp-instance-deployment.puml\n2024.01.08 at 12:24 CET\n\n\n

footer \n\n\nCopyright 2024, Input Output Global, Ltd.

actor User

node UserComputer as "User Computer\n<<machine>>" {
    node UserBrowserTab as "User Browser Tab\n<<process>>" {
        component DApp as "DApp"
    }

    node WalletBrowserExtension as "Wallet Browser Extension\n<<process>>" {
      component DAppConnector as "DApp Connector"
    }

    node ProofServer as "Proof Server\n<<process>>" {
      component Plonk
    }

    DApp - - DAppConnector : "extension messaging API"
    DApp - - ProofServer
    WalletBrowserExtension - - ProofServer
}

node DAppServer as "DApp Server\n<<machine>>" {
    artifact DAppBundle as "DApp Bundle"

    node HttpServer as "DApp Http Server\n<<process>>"

    HttpServer - - DAppBundle : "hosts"
}

node ServiceHost as "Service Host\n<<machine>>" {
    node PubSubIndexer as "PubSub Indexer\n<<process>>"


    node NodeInstance as "Node\n<<process>>" {

    }

    PubSubIndexer - - NodeInstance
}

node BlockProducerHost as "Block Producer Host\n<<machine>>" {
  node BlockProducerNodeInstance as "Block Producer Node\n<<process>>"
}

cloud MidnightNetwork as "Midnight Network"

User - - UserBrowserTab
User - - WalletBrowserExtension
UserBrowserTab - - HttpServer
NodeInstance - - MidnightNetwork
UserBrowserTab - - PubSubIndexer
WalletBrowserExtension - - PubSubIndexer
WalletBrowserExtension - - NodeInstance
MidnightNetwork - - BlockProducerNodeInstance

@enduml

PlantUML version 1.2022.3(Tue Mar 29 18:10:57 CEST 2022)
(GPL source distribution)
Java Runtime: OpenJDK Runtime Environment
JVM: OpenJDK 64-Bit Server VM
Default Encoding: UTF-8
Language: en
Country: PL
--></g></svg>