<?xml version="1.0" encoding="UTF-8" standalone="no"?><svg xmlns="http://www.w3.org/2000/svg" xmlns:xlink="http://www.w3.org/1999/xlink" contentStyleType="text/css" height="1325px" preserveAspectRatio="none" style="width:977px;height:1325px;background:#FFFFFF;" version="1.1" viewBox="0 0 977 1325" width="977px" zoomAndPan="magnify"><defs/><g><rect height="58.8867" style="stroke:#00000000;stroke-width:1.0;fill:none;" width="118" x="845.5" y="0"/><text fill="#888888" font-family="sans-serif" font-size="10" lengthAdjust="spacing" textLength="92" x="871.5" y="9.668">private-state.puml</text><text fill="#888888" font-family="sans-serif" font-size="10" lengthAdjust="spacing" textLength="118" x="845.5" y="21.4453">2022.10.30 at 22:26 CET</text><text fill="#888888" font-family="sans-serif" font-size="10" lengthAdjust="spacing" textLength="3" x="960.5" y="33.2227"> </text><text fill="#888888" font-family="sans-serif" font-size="10" lengthAdjust="spacing" textLength="3" x="960.5" y="45"> </text><text fill="#888888" font-family="sans-serif" font-size="10" lengthAdjust="spacing" textLength="3" x="960.5" y="56.7773"> </text><rect fill="#F1F1F1" height="1198.4844" rx="12.5" ry="12.5" style="stroke:#181818;stroke-width:0.5;" width="963.5" x="7" y="66.8867"/><rect fill="#FFFFFF" height="1108.4648" rx="12.5" ry="12.5" style="stroke:#FFFFFF;stroke-width:1.0;" width="961.5" x="8" y="155.9063"/><line style="stroke:#181818;stroke-width:0.5;" x1="7" x2="970.5" y1="154.9063" y2="154.9063"/><line style="stroke:#181818;stroke-width:0.5;" x1="7" x2="970.5" y1="93.375" y2="93.375"/><text fill="#000000" font-family="sans-serif" font-size="14" lengthAdjust="spacing" textLength="46" x="465.75" y="85.4219">Private</text><text fill="#000000" font-family="sans-serif" font-size="12" lengthAdjust="spacing" textLength="405" x="12" y="104.9766">it consists of 3 independent components which affect available actions</text><text fill="#000000" font-family="sans-serif" font-size="12" lengthAdjust="spacing" textLength="389" x="12" y="119.1094">organizer depends on ledger.organizer field, which is set at deploy</text><text fill="#000000" font-family="sans-serif" font-size="12" lengthAdjust="spacing" textLength="438" x="12" y="133.2422">beneficiary depends on ledger.beneficiary field, which is set at proposal init</text><text fill="#000000" font-family="sans-serif" font-size="12" lengthAdjust="spacing" textLength="358" x="12" y="147.375">voter depends on buy in, which can be performed at any time</text><rect fill="#F1F1F1" height="247.4883" rx="12.5" ry="12.5" style="stroke:#181818;stroke-width:0.5;" width="937.5" x="19" y="166.9063"/><rect fill="#FFFFFF" height="219" rx="12.5" ry="12.5" style="stroke:#FFFFFF;stroke-width:1.0;" width="935.5" x="20" y="194.3945"/><line style="stroke:#181818;stroke-width:0.5;" x1="19" x2="956.5" y1="193.3945" y2="193.3945"/><text fill="#000000" font-family="sans-serif" font-size="14" lengthAdjust="spacing" textLength="69" x="453.25" y="185.4414">Organizer</text><g id="elem_COrganizerCheck"><polygon fill="#F1F1F1" points="416.5,277.3945,428.5,289.3945,416.5,301.3945,404.5,289.3945,416.5,277.3945" style="stroke:#181818;stroke-width:0.5;"/></g><ellipse cx="580.5" cy="214.3945" fill="#222222" rx="10" ry="10" style="stroke:none;stroke-width:1.0;"/><g id="Private.Organizer.ImOrganizer"><rect fill="#F1F1F1" height="50" rx="12.5" ry="12.5" style="stroke:#181818;stroke-width:0.5;" width="106" x="526.5" y="354.3945"/><line style="stroke:#181818;stroke-width:0.5;" x1="526.5" x2="632.5" y1="380.8828" y2="380.8828"/><text fill="#000000" font-family="sans-serif" font-size="14" lengthAdjust="spacing" textLength="86" x="536.5" y="372.9297">ImOrganizer</text></g><g id="Private.Organizer.NotOrganizer"><rect fill="#F1F1F1" height="50" rx="12.5" ry="12.5" style="stroke:#181818;stroke-width:0.5;" width="113" x="31" y="354.3945"/><line style="stroke:#181818;stroke-width:0.5;" x1="31" x2="144" y1="380.8828" y2="380.8828"/><text fill="#000000" font-family="sans-serif" font-size="14" lengthAdjust="spacing" textLength="93" x="41" y="372.9297">NotOrganizer</text></g><!--MD5=[b997fba231df87922a21080f62dfb727]
link *start*Organizer to ImOrganizer--><g id="link_*start*Organizer_ImOrganizer"><path d="M590.05,218.1145 C629.32,229.7445 774.21,277.4545 729.5,336.3945 C718.12,351.3945 674.74,362.5045 637.54,369.5145 " fill="none" id="*start*Organizer-to-ImOrganizer" style="stroke:#181818;stroke-width:1.0;"/><polygon fill="#181818" points="632.57,370.4345,642.1433,372.7478,637.4882,369.5338,640.7022,364.8787,632.57,370.4345" style="stroke:#181818;stroke-width:1.0;"/><text fill="#000000" font-family="sans-serif" font-size="13" lengthAdjust="spacing" textLength="211" x="735.5" y="294.4629">Do deploy setting own public key</text></g><!--MD5=[e7b01a899659ee217f835dd144acba4d]
link *start*Organizer to COrganizerCheck--><g id="link_*start*Organizer_COrganizerCheck"><path d="M571.68,219.3145 C544.27,231.5145 460.51,268.8045 428.82,282.9145 " fill="none" id="*start*Organizer-to-COrganizerCheck" style="stroke:#181818;stroke-width:1.0;"/><polygon fill="#181818" points="424.2,284.9645,434.0488,284.9446,428.7649,282.9246,430.7849,277.6407,424.2,284.9645" style="stroke:#181818;stroke-width:1.0;"/><text fill="#000000" font-family="sans-serif" font-size="13" lengthAdjust="spacing" textLength="99" x="518.5" y="255.9629">Observe Deploy</text></g><!--MD5=[b2b8e26faba3a1d469a622d70e29f210]
link COrganizerCheck to ImOrganizer--><g id="link_COrganizerCheck_ImOrganizer"><path d="M413.91,298.8745 C411.4,308.9545 409.07,325.7445 417.5,336.3945 C430.49,352.8145 480.21,364.0645 521.18,370.7545 " fill="none" id="COrganizerCheck-to-ImOrganizer" style="stroke:#181818;stroke-width:1.0;"/><polygon fill="#181818" points="526.13,371.5445,517.8696,366.1812,521.192,370.7596,516.6136,374.082,526.13,371.5445" style="stroke:#181818;stroke-width:1.0;"/><text fill="#000000" font-family="sans-serif" font-size="13" lengthAdjust="spacing" textLength="310" x="418.5" y="332.9629">public_key(local_secret_key) == ledger.organizer</text></g><!--MD5=[87b39a2adbf3e5d6c37c1e55cea7bf63]
link COrganizerCheck to NotOrganizer--><g id="link_COrganizerCheck_NotOrganizer"><path d="M405.5,290.6545 C352.49,292.0245 124.93,299.0545 101.5,319.3945 C92.95,326.8145 89.11,338.4145 87.54,349.3645 " fill="none" id="COrganizerCheck-to-NotOrganizer" style="stroke:#181818;stroke-width:1.0;"/><polygon fill="#181818" points="86.96,354.3345,91.9856,345.8644,87.545,349.3689,84.0405,344.9283,86.96,354.3345" style="stroke:#181818;stroke-width:1.0;"/><text fill="#000000" font-family="sans-serif" font-size="13" lengthAdjust="spacing" textLength="304" x="102.5" y="332.9629">public_key(local_secret_key) != ledger.organizer</text></g><line style="stroke:#181818;stroke-width:1.5;stroke-dasharray:8.0,10.0;" x1="12" x2="958.5" y1="419.3945" y2="419.3945"/><rect fill="#F1F1F1" height="482.4883" rx="12.5" ry="12.5" style="stroke:#181818;stroke-width:0.5;" width="555" x="19" y="426.3945"/><rect fill="#FFFFFF" height="454" rx="12.5" ry="12.5" style="stroke:#FFFFFF;stroke-width:1.0;" width="553" x="20" y="453.8828"/><line style="stroke:#181818;stroke-width:0.5;" x1="19" x2="574" y1="452.8828" y2="452.8828"/><text fill="#000000" font-family="sans-serif" font-size="14" lengthAdjust="spacing" textLength="37" x="278" y="444.9297">Voter</text><g id="Private.CONC260.Voter.VoterBoughtIn"><rect fill="#F1F1F1" height="52.9766" rx="12.5" ry="12.5" style="stroke:#181818;stroke-width:0.5;" width="384" x="31" y="639.8828"/><line style="stroke:#181818;stroke-width:0.5;" x1="31" x2="415" y1="666.3711" y2="666.3711"/><text fill="#000000" font-family="sans-serif" font-size="14" lengthAdjust="spacing" textLength="99" x="173.5" y="658.418">VoterBoughtIn</text><text fill="#000000" font-family="sans-serif" font-size="14" lengthAdjust="spacing" textLength="364" x="36" y="684.9063">public_key(local_secret_key) in ledger.elegible_voters</text></g><ellipse cx="223" cy="473.8828" fill="#222222" rx="10" ry="10" style="stroke:none;stroke-width:1.0;"/><g id="Private.CONC260.Voter.VoterUnitialized"><rect fill="#F1F1F1" height="50" rx="12.5" ry="12.5" style="stroke:#181818;stroke-width:0.5;" width="130" x="158" y="536.8828"/><line style="stroke:#181818;stroke-width:0.5;" x1="158" x2="288" y1="563.3711" y2="563.3711"/><text fill="#000000" font-family="sans-serif" font-size="14" lengthAdjust="spacing" textLength="110" x="168" y="555.418">VoterUnitialized</text></g><g id="Private.CONC260.Voter.VoterCommitted"><rect fill="#F1F1F1" height="50" rx="12.5" ry="12.5" style="stroke:#181818;stroke-width:0.5;" width="133" x="156.5" y="745.8828"/><line style="stroke:#181818;stroke-width:0.5;" x1="156.5" x2="289.5" y1="772.3711" y2="772.3711"/><text fill="#000000" font-family="sans-serif" font-size="14" lengthAdjust="spacing" textLength="113" x="166.5" y="764.418">VoterCommitted</text></g><g id="Private.CONC260.Voter.VoterRevealed"><rect fill="#F1F1F1" height="50" rx="12.5" ry="12.5" style="stroke:#181818;stroke-width:0.5;" width="118" x="254" y="848.8828"/><line style="stroke:#181818;stroke-width:0.5;" x1="254" x2="372" y1="875.3711" y2="875.3711"/><text fill="#000000" font-family="sans-serif" font-size="14" lengthAdjust="spacing" textLength="98" x="264" y="867.418">VoterRevealed</text></g><!--MD5=[521a7368346eb424c5aa0a3a80cf7e13]
link *start*Voter to VoterUnitialized--><g id="link_*start*Voter_VoterUnitialized"><path d="M223,484.0828 C223,495.3928 223,515.1328 223,531.7628 " fill="none" id="*start*Voter-to-VoterUnitialized" style="stroke:#181818;stroke-width:1.0;"/><polygon fill="#181818" points="223,536.8128,227,527.8128,223,531.8128,219,527.8128,223,536.8128" style="stroke:#181818;stroke-width:1.0;"/><text fill="#000000" font-family="sans-serif" font-size="13" lengthAdjust="spacing" textLength="44" x="224" y="515.4512">Deploy</text></g><!--MD5=[259846fd75003bff86849cbc48a8bf7b]
link VoterUnitialized to VoterBoughtIn--><g id="link_VoterUnitialized_VoterBoughtIn"><path d="M223,586.9128 C223,601.1628 223,619.3628 223,634.6528 " fill="none" id="VoterUnitialized-to-VoterBoughtIn" style="stroke:#181818;stroke-width:1.0;"/><polygon fill="#181818" points="223,639.7128,227,630.7128,223,634.7128,219,630.7128,223,639.7128" style="stroke:#181818;stroke-width:1.0;"/><text fill="#000000" font-family="sans-serif" font-size="13" lengthAdjust="spacing" textLength="38" x="224" y="618.4512">Buy In</text></g><!--MD5=[ab04673050f082dba3ebae56d1c4371d]
link VoterBoughtIn to VoterCommitted--><g id="link_VoterBoughtIn_VoterCommitted"><path d="M130.81,692.9528 C115.9,701.8428 108.15,713.3328 118,727.8828 C126.14,739.9028 138.33,748.4828 151.56,754.6028 " fill="none" id="VoterBoughtIn-to-VoterCommitted" style="stroke:#181818;stroke-width:1.0;"/><polygon fill="#181818" points="156.47,756.7528,149.8195,749.4884,151.8869,754.754,146.6214,756.8213,156.47,756.7528" style="stroke:#181818;stroke-width:1.0;"/><text fill="#000000" font-family="sans-serif" font-size="13" lengthAdjust="spacing" textLength="81" x="119" y="724.4512">Commit vote</text></g><!--MD5=[a6891414458e6cf6786f9e8a5a88d56f]
link VoterCommitted to VoterRevealed--><g id="link_VoterCommitted_VoterRevealed"><path d="M244.56,796.0728 C257.6,810.7128 274.28,829.4328 287.91,844.7228 " fill="none" id="VoterCommitted-to-VoterRevealed" style="stroke:#181818;stroke-width:1.0;"/><polygon fill="#181818" points="291.31,848.5428,288.3181,839.1594,287.9873,844.8066,282.3401,844.4757,291.31,848.5428" style="stroke:#181818;stroke-width:1.0;"/><text fill="#000000" font-family="sans-serif" font-size="13" lengthAdjust="spacing" textLength="71" x="275" y="827.4512">Reveal vote</text></g><!--MD5=[2c5f5382b363682446200aff4d08ff1e]
link VoterRevealed to VoterBoughtIn--><g id="link_VoterRevealed_VoterBoughtIn"><path d="M339.56,848.8428 C373.12,815.5328 422.69,754.5328 389,710.8828 C384.34,704.8428 374.9,699.4828 362.79,694.7628 " fill="none" id="VoterRevealed-to-VoterBoughtIn" style="stroke:#181818;stroke-width:1.0;"/><polygon fill="#181818" points="357.83,692.9228,364.8709,699.8094,362.5163,694.6659,367.6599,692.3113,357.83,692.9228" style="stroke:#181818;stroke-width:1.0;"/><text fill="#000000" font-family="sans-serif" font-size="13" lengthAdjust="spacing" textLength="163" x="401" y="775.9512">Observe advance to initial</text></g><!--MD5=[498364c63968d522afe68b56c01b8c99]
link VoterCommitted to VoterBoughtIn--><g id="link_VoterCommitted_VoterBoughtIn"><path d="M223,745.6628 C223,731.4128 223,713.2628 223,698.0328 " fill="none" id="VoterCommitted-to-VoterBoughtIn" style="stroke:#181818;stroke-width:1.0;"/><polygon fill="#181818" points="223,692.9828,219,701.9828,223,697.9828,227,701.9828,223,692.9828" style="stroke:#181818;stroke-width:1.0;"/><text fill="#000000" font-family="sans-serif" font-size="13" lengthAdjust="spacing" textLength="163" x="224" y="724.4512">Observe advance to initial</text></g><line style="stroke:#181818;stroke-width:1.5;stroke-dasharray:8.0,10.0;" x1="12" x2="958.5" y1="913.8828" y2="913.8828"/><rect fill="#F1F1F1" height="334.4883" rx="12.5" ry="12.5" style="stroke:#181818;stroke-width:0.5;" width="713.5" x="19" y="920.8828"/><rect fill="#FFFFFF" height="306" rx="12.5" ry="12.5" style="stroke:#FFFFFF;stroke-width:1.0;" width="711.5" x="20" y="948.3711"/><line style="stroke:#181818;stroke-width:0.5;" x1="19" x2="732.5" y1="947.3711" y2="947.3711"/><text fill="#000000" font-family="sans-serif" font-size="14" lengthAdjust="spacing" textLength="74" x="338.75" y="939.418">Beneficiary</text><g id="elem_CBeneficiaryCheck"><polygon fill="#F1F1F1" points="227.5,1118.3711,239.5,1130.3711,227.5,1142.3711,215.5,1130.3711,227.5,1118.3711" style="stroke:#181818;stroke-width:0.5;"/></g><ellipse cx="406.5" cy="968.3711" fill="#222222" rx="10" ry="10" style="stroke:none;stroke-width:1.0;"/><g id="Private.CONC274.Beneficiary.BeneficiaryUnitialized"><rect fill="#F1F1F1" height="50" rx="12.5" ry="12.5" style="stroke:#181818;stroke-width:0.5;" width="167" x="323" y="1015.3711"/><line style="stroke:#181818;stroke-width:0.5;" x1="323" x2="490" y1="1041.8594" y2="1041.8594"/><text fill="#000000" font-family="sans-serif" font-size="14" lengthAdjust="spacing" textLength="147" x="333" y="1033.9063">BeneficiaryUnitialized</text></g><g id="Private.CONC274.Beneficiary.ImBeneficiary"><rect fill="#F1F1F1" height="50" rx="12.5" ry="12.5" style="stroke:#181818;stroke-width:0.5;" width="111" x="31" y="1015.3711"/><line style="stroke:#181818;stroke-width:0.5;" x1="31" x2="142" y1="1041.8594" y2="1041.8594"/><text fill="#000000" font-family="sans-serif" font-size="14" lengthAdjust="spacing" textLength="91" x="41" y="1033.9063">ImBeneficiary</text></g><g id="Private.CONC274.Beneficiary.NotBeneficiary"><rect fill="#F1F1F1" height="50" rx="12.5" ry="12.5" style="stroke:#181818;stroke-width:0.5;" width="118" x="333.5" y="1195.3711"/><line style="stroke:#181818;stroke-width:0.5;" x1="333.5" x2="451.5" y1="1221.8594" y2="1221.8594"/><text fill="#000000" font-family="sans-serif" font-size="14" lengthAdjust="spacing" textLength="98" x="343.5" y="1213.9063">NotBeneficiary</text></g><!--MD5=[259d21f268bf739306cae75f9519fa45]
link *start*Beneficiary to BeneficiaryUnitialized--><g id="link_*start*Beneficiary_BeneficiaryUnitialized"><path d="M406.5,978.5211 C406.5,986.5611 406.5,998.7011 406.5,1010.0211 " fill="none" id="*start*Beneficiary-to-BeneficiaryUnitialized" style="stroke:#181818;stroke-width:1.0;"/><polygon fill="#181818" points="406.5,1015.1511,410.5,1006.1511,406.5,1010.1511,402.5,1006.1511,406.5,1015.1511" style="stroke:#181818;stroke-width:1.0;"/></g><!--MD5=[1c5fd1a38306f6b2a691ee31a4b64333]
link BeneficiaryUnitialized to CBeneficiaryCheck--><g id="link_BeneficiaryUnitialized_CBeneficiaryCheck"><path d="M403.2,1065.6011 C400.28,1077.7711 394.8,1091.7311 384.5,1100.3711 C363.24,1118.2211 279.15,1125.8911 243.55,1128.3811 " fill="none" id="BeneficiaryUnitialized-to-CBeneficiaryCheck" style="stroke:#181818;stroke-width:1.0;"/><polygon fill="#181818" points="238.27,1128.7411,247.5232,1132.1142,243.2582,1128.3981,246.9744,1124.1331,238.27,1128.7411" style="stroke:#181818;stroke-width:1.0;"/><text fill="#000000" font-family="sans-serif" font-size="13" lengthAdjust="spacing" textLength="135" x="397.5" y="1096.9395">Observe proposal init</text></g><!--MD5=[f35cf3fb20a797ffe12182f088561c60]
link CBeneficiaryCheck to ImBeneficiary--><g id="link_CBeneficiaryCheck_ImBeneficiary"><path d="M216.31,1129.1911 C182.47,1128.3711 82.32,1123.9811 62.5,1100.3711 C55.16,1091.6311 57.64,1080.3411 63.22,1069.9811 " fill="none" id="CBeneficiaryCheck-to-ImBeneficiary" style="stroke:#181818;stroke-width:1.0;"/><polygon fill="#181818" points="65.78,1065.6111,57.7782,1071.3532,63.2518,1069.9248,64.6801,1075.3983,65.78,1065.6111" style="stroke:#181818;stroke-width:1.0;"/><text fill="#000000" font-family="sans-serif" font-size="13" lengthAdjust="spacing" textLength="320" x="63.5" y="1096.9395">public_key(local_secret_key) == ledger.beneficiary</text></g><!--MD5=[769701873abf38776234975619abaa17]
link CBeneficiaryCheck to NotBeneficiary--><g id="link_CBeneficiaryCheck_NotBeneficiary"><path d="M224.9,1139.8511 C222.39,1149.9411 220.06,1166.7311 228.5,1177.3711 C241.09,1193.2311 287.65,1204.1911 327.96,1210.9211 " fill="none" id="CBeneficiaryCheck-to-NotBeneficiary" style="stroke:#181818;stroke-width:1.0;"/><polygon fill="#181818" points="333.35,1211.8011,325.1224,1206.3875,328.4169,1210.9861,323.8183,1214.2805,333.35,1211.8011" style="stroke:#181818;stroke-width:1.0;"/><text fill="#000000" font-family="sans-serif" font-size="13" lengthAdjust="spacing" textLength="314" x="229.5" y="1173.9395">public_key(local_secret_key) != ledger.beneficiary</text></g><!--MD5=[3432a4cceb1ab5d3e28e77a63251093c]
link ImBeneficiary to BeneficiaryUnitialized--><g id="link_ImBeneficiary_BeneficiaryUnitialized"><path d="M142.08,1051.7611 C161.71,1055.2611 184,1058.6511 204.5,1060.3711 C241.49,1063.4811 282.23,1060.6511 317.38,1056.2311 " fill="none" id="ImBeneficiary-to-BeneficiaryUnitialized" style="stroke:#181818;stroke-width:1.0;"/><polygon fill="#181818" points="322.52,1055.5711,313.0803,1052.7618,317.5615,1056.2141,314.1092,1060.6953,322.52,1055.5711" style="stroke:#181818;stroke-width:1.0;"/><text fill="#000000" font-family="sans-serif" font-size="13" lengthAdjust="spacing" textLength="54" x="205.5" y="1056.9395">cash out</text></g><!--MD5=[3432a4cceb1ab5d3e28e77a63251093c]
link ImBeneficiary to BeneficiaryUnitialized--><g id="link_ImBeneficiary_BeneficiaryUnitialized"><path d="M142.24,1040.3711 C190.65,1040.3711 261.61,1040.3711 317.81,1040.3711 " fill="none" id="ImBeneficiary-to-BeneficiaryUnitialized-1" style="stroke:#181818;stroke-width:1.0;"/><polygon fill="#181818" points="322.86,1040.3711,313.86,1036.3711,317.86,1040.3711,313.86,1044.3711,322.86,1040.3711" style="stroke:#181818;stroke-width:1.0;"/><text fill="#000000" font-family="sans-serif" font-size="13" lengthAdjust="spacing" textLength="161" x="152" y="1033.9395">observe advance to initial</text></g><!--MD5=[e52273ed1409583602a6a500ebe1573c]
link NotBeneficiary to BeneficiaryUnitialized--><g id="link_NotBeneficiary_BeneficiaryUnitialized"><path d="M451.51,1210.5611 C489.15,1203.5911 532.98,1192.5111 544.5,1177.3711 C569.87,1144.0311 563.7,1116.0611 537.5,1083.3711 C526.67,1069.8611 511.47,1060.6311 495.24,1054.3511 " fill="none" id="NotBeneficiary-to-BeneficiaryUnitialized" style="stroke:#181818;stroke-width:1.0;"/><polygon fill="#181818" points="490.17,1052.4911,497.2478,1059.3398,494.8656,1054.209,499.9964,1051.8268,490.17,1052.4911" style="stroke:#181818;stroke-width:1.0;"/><text fill="#000000" font-family="sans-serif" font-size="13" lengthAdjust="spacing" textLength="161" x="561.5" y="1135.4395">observe advance to initial</text></g><rect height="47.1094" style="stroke:#00000000;stroke-width:1.0;fill:none;" width="200" x="381.75" y="1270.3711"/><text fill="#888888" font-family="sans-serif" font-size="10" lengthAdjust="spacing" textLength="3" x="480.25" y="1280.0391"> </text><text fill="#888888" font-family="sans-serif" font-size="10" lengthAdjust="spacing" textLength="3" x="480.25" y="1291.8164"> </text><text fill="#888888" font-family="sans-serif" font-size="10" lengthAdjust="spacing" textLength="3" x="480.25" y="1303.5938"> </text><text fill="#888888" font-family="sans-serif" font-size="10" lengthAdjust="spacing" textLength="200" x="381.75" y="1315.3711">Copyright 2022, Input Output Global, Ltd.</text><!--MD5=[6a62cc23e6effc84e859cccad24e0af6]
@startuml

header %filename()\n%date("yyyy.MM.dd' at 'HH:mm z")\n\n\n

footer \n\n\nCopyright %date("yyyy"), Input Output Global, Ltd.

state Private {
    state Organizer {
        state COrganizerCheck <<choice>>
        [*] - -> ImOrganizer : Do deploy setting own public key
        [*] - -> COrganizerCheck : Observe Deploy
        COrganizerCheck - -> ImOrganizer : public_key(local_secret_key) == ledger.organizer
        COrganizerCheck - -> NotOrganizer : public_key(local_secret_key) != ledger.organizer
    }
    - -
    state Voter {
        VoterBoughtIn : public_key(local_secret_key) in ledger.elegible_voters

        [*] - -> VoterUnitialized : Deploy
        VoterUnitialized - -> VoterBoughtIn : Buy In
        VoterBoughtIn - -> VoterCommitted : Commit vote
        VoterCommitted - -> VoterRevealed : Reveal vote
        VoterRevealed - -> VoterBoughtIn : Observe advance to initial
        VoterCommitted - -> VoterBoughtIn : Observe advance to initial
    }
    - -
    state Beneficiary {
        state CBeneficiaryCheck <<choice>>

        [*] -d-> BeneficiaryUnitialized
        BeneficiaryUnitialized -d-> CBeneficiaryCheck : Observe proposal init
        CBeneficiaryCheck -d-> ImBeneficiary : public_key(local_secret_key) == ledger.beneficiary
        CBeneficiaryCheck - -> NotBeneficiary : public_key(local_secret_key) != ledger.beneficiary
        ImBeneficiary -r-> BeneficiaryUnitialized : cash out
        ImBeneficiary -r-> BeneficiaryUnitialized : observe advance to initial
        NotBeneficiary -r-> BeneficiaryUnitialized : observe advance to initial
    }
}
Private : it consists of 3 independent components which affect available actions
Private : organizer depends on ledger.organizer field, which is set at deploy
Private : beneficiary depends on ledger.beneficiary field, which is set at proposal init
Private : voter depends on buy in, which can be performed at any time

@enduml

@startuml

header private-state.puml\n2022.10.30 at 22:26 CET\n\n\n

footer \n\n\nCopyright 2022, Input Output Global, Ltd.

state Private {
    state Organizer {
        state COrganizerCheck <<choice>>
        [*] - -> ImOrganizer : Do deploy setting own public key
        [*] - -> COrganizerCheck : Observe Deploy
        COrganizerCheck - -> ImOrganizer : public_key(local_secret_key) == ledger.organizer
        COrganizerCheck - -> NotOrganizer : public_key(local_secret_key) != ledger.organizer
    }
    - -
    state Voter {
        VoterBoughtIn : public_key(local_secret_key) in ledger.elegible_voters

        [*] - -> VoterUnitialized : Deploy
        VoterUnitialized - -> VoterBoughtIn : Buy In
        VoterBoughtIn - -> VoterCommitted : Commit vote
        VoterCommitted - -> VoterRevealed : Reveal vote
        VoterRevealed - -> VoterBoughtIn : Observe advance to initial
        VoterCommitted - -> VoterBoughtIn : Observe advance to initial
    }
    - -
    state Beneficiary {
        state CBeneficiaryCheck <<choice>>

        [*] -d-> BeneficiaryUnitialized
        BeneficiaryUnitialized -d-> CBeneficiaryCheck : Observe proposal init
        CBeneficiaryCheck -d-> ImBeneficiary : public_key(local_secret_key) == ledger.beneficiary
        CBeneficiaryCheck - -> NotBeneficiary : public_key(local_secret_key) != ledger.beneficiary
        ImBeneficiary -r-> BeneficiaryUnitialized : cash out
        ImBeneficiary -r-> BeneficiaryUnitialized : observe advance to initial
        NotBeneficiary -r-> BeneficiaryUnitialized : observe advance to initial
    }
}
Private : it consists of 3 independent components which affect available actions
Private : organizer depends on ledger.organizer field, which is set at deploy
Private : beneficiary depends on ledger.beneficiary field, which is set at proposal init
Private : voter depends on buy in, which can be performed at any time

@enduml

PlantUML version 1.2022.3(Tue Mar 29 18:10:57 CEST 2022)
(GPL source distribution)
Java Runtime: OpenJDK Runtime Environment
JVM: OpenJDK 64-Bit Server VM
Default Encoding: UTF-8
Language: en
Country: PL
--></g></svg>