<?xml version="1.0" encoding="UTF-8" standalone="no"?><svg xmlns="http://www.w3.org/2000/svg" xmlns:xlink="http://www.w3.org/1999/xlink" contentStyleType="text/css" height="591px" preserveAspectRatio="none" style="width:835px;height:591px;background:#FFFFFF;" version="1.1" viewBox="0 0 835 591" width="835px" zoomAndPan="magnify"><defs/><g><rect fill="none" height="42.9766" id="_title" style="stroke:none;stroke-width:1.0;" width="224" x="298.75" y="5"/><text fill="#000000" font-family="sans-serif" font-size="14" font-weight="bold" lengthAdjust="spacing" textLength="214" x="303.75" y="23.5352">Contract Kernel - Component</text><text fill="#000000" font-family="sans-serif" font-size="14" font-weight="bold" lengthAdjust="spacing" textLength="5" x="408.25" y="40.0234"> </text><!--MD5=[648ecb7216d3bb78805c24be49c01426]
cluster appA--><g id="cluster_appA"><path d="M97,131.9766 L195,131.9766 A3.75,3.75 0 0 1 197.5,134.4766 L204.5,154.4648 L205,154.4648 A2.5,2.5 0 0 1 207.5,156.9648 L207.5,226.4766 A2.5,2.5 0 0 1 205,228.9766 L97,228.9766 A2.5,2.5 0 0 1 94.5,226.4766 L94.5,134.4766 A2.5,2.5 0 0 1 97,131.9766 " fill="none" style="stroke:#000000;stroke-width:1.5;"/><line style="stroke:#000000;stroke-width:1.5;" x1="94.5" x2="204.5" y1="154.4648" y2="154.4648"/><text fill="#000000" font-family="sans-serif" font-size="14" font-weight="bold" lengthAdjust="spacing" textLength="97" x="98.5" y="147.5117">Application A</text></g><!--MD5=[5bc1258df3264b02ffb9268af7992b01]
cluster appB--><g id="cluster_appB"><path d="M234,131.9766 L331,131.9766 A3.75,3.75 0 0 1 333.5,134.4766 L340.5,154.4648 L341,154.4648 A2.5,2.5 0 0 1 343.5,156.9648 L343.5,226.4766 A2.5,2.5 0 0 1 341,228.9766 L234,228.9766 A2.5,2.5 0 0 1 231.5,226.4766 L231.5,134.4766 A2.5,2.5 0 0 1 234,131.9766 " fill="none" style="stroke:#000000;stroke-width:1.5;"/><line style="stroke:#000000;stroke-width:1.5;" x1="231.5" x2="340.5" y1="154.4648" y2="154.4648"/><text fill="#000000" font-family="sans-serif" font-size="14" font-weight="bold" lengthAdjust="spacing" textLength="96" x="235.5" y="147.5117">Application B</text></g><!--MD5=[755acf11898fd6d1cd50a6b63496549a]
cluster Contract Kernel--><g id="cluster_Contract Kernel"><path d="M164,252.9766 L277,252.9766 A3.75,3.75 0 0 1 279.5,255.4766 L286.5,275.4648 L826,275.4648 A2.5,2.5 0 0 1 828.5,277.9648 L828.5,582.4766 A2.5,2.5 0 0 1 826,584.9766 L164,584.9766 A2.5,2.5 0 0 1 161.5,582.4766 L161.5,255.4766 A2.5,2.5 0 0 1 164,252.9766 " fill="none" style="stroke:#000000;stroke-width:1.5;"/><line style="stroke:#000000;stroke-width:1.5;" x1="161.5" x2="286.5" y1="275.4648" y2="275.4648"/><text fill="#000000" font-family="sans-serif" font-size="14" font-weight="bold" lengthAdjust="spacing" textLength="112" x="165.5" y="268.5117">Contract Kernel</text></g><!--MD5=[6e67e861e3c50ea29716a9cf6be93b79]
cluster contractStore--><g id="cluster_contractStore"><path d="M288.5,313.9766 C288.5,303.9766 542.5,303.9766 542.5,303.9766 C542.5,303.9766 796.5,303.9766 796.5,313.9766 L796.5,488.9766 C796.5,498.9766 542.5,498.9766 542.5,498.9766 C542.5,498.9766 288.5,498.9766 288.5,488.9766 L288.5,313.9766 " fill="none" style="stroke:#181818;stroke-width:1.0;"/><path d="M288.5,313.9766 C288.5,323.9766 542.5,323.9766 542.5,323.9766 C542.5,323.9766 796.5,323.9766 796.5,313.9766 " fill="none" style="stroke:#181818;stroke-width:1.0;"/><text fill="#000000" font-family="sans-serif" font-size="14" font-weight="bold" lengthAdjust="spacing" textLength="103" x="491" y="339.5117">Contract Store</text></g><!--MD5=[be631b3721cf3fddaa40d882d63fddbf]
cluster Contract [0x02]--><g id="cluster_Contract [0x02]"><path d="M561,369.9766 L673,369.9766 A3.75,3.75 0 0 1 675.5,372.4766 L682.5,392.4648 L762,392.4648 A2.5,2.5 0 0 1 764.5,394.9648 L764.5,464.4766 A2.5,2.5 0 0 1 762,466.9766 L561,466.9766 A2.5,2.5 0 0 1 558.5,464.4766 L558.5,372.4766 A2.5,2.5 0 0 1 561,369.9766 " fill="none" style="stroke:#000000;stroke-width:1.5;"/><line style="stroke:#000000;stroke-width:1.5;" x1="558.5" x2="682.5" y1="392.4648" y2="392.4648"/><text fill="#000000" font-family="sans-serif" font-size="14" font-weight="bold" lengthAdjust="spacing" textLength="111" x="562.5" y="385.5117">Contract [0x02]</text></g><!--MD5=[462333ed978bf80b33aa963e5cb5c98a]
cluster Contract [0x01]--><g id="cluster_Contract [0x01]"><path d="M331,369.9766 L443,369.9766 A3.75,3.75 0 0 1 445.5,372.4766 L452.5,392.4648 L532,392.4648 A2.5,2.5 0 0 1 534.5,394.9648 L534.5,464.4766 A2.5,2.5 0 0 1 532,466.9766 L331,466.9766 A2.5,2.5 0 0 1 328.5,464.4766 L328.5,372.4766 A2.5,2.5 0 0 1 331,369.9766 " fill="none" style="stroke:#000000;stroke-width:1.5;"/><line style="stroke:#000000;stroke-width:1.5;" x1="328.5" x2="452.5" y1="392.4648" y2="392.4648"/><text fill="#000000" font-family="sans-serif" font-size="14" font-weight="bold" lengthAdjust="spacing" textLength="111" x="332.5" y="385.5117">Contract [0x01]</text></g><!--MD5=[f59ca8c2fc3e22e255f68ec9cee1b618]
entity coreA--><g id="elem_coreA"><rect fill="#F1F1F1" height="46.4883" rx="2.5" ry="2.5" style="stroke:#181818;stroke-width:0.5;" width="73" x="118" y="166.9766"/><rect fill="#F1F1F1" height="10" style="stroke:#181818;stroke-width:0.5;" width="15" x="171" y="171.9766"/><rect fill="#F1F1F1" height="2" style="stroke:#181818;stroke-width:0.5;" width="4" x="169" y="173.9766"/><rect fill="#F1F1F1" height="2" style="stroke:#181818;stroke-width:0.5;" width="4" x="169" y="177.9766"/><text fill="#000000" font-family="sans-serif" font-size="14" lengthAdjust="spacing" textLength="33" x="133" y="200.5117">Core</text></g><!--MD5=[9c3e02881235553276fa7979d903634b]
entity coreB--><g id="elem_coreB"><rect fill="#F1F1F1" height="46.4883" rx="2.5" ry="2.5" style="stroke:#181818;stroke-width:0.5;" width="73" x="248" y="166.9766"/><rect fill="#F1F1F1" height="10" style="stroke:#181818;stroke-width:0.5;" width="15" x="301" y="171.9766"/><rect fill="#F1F1F1" height="2" style="stroke:#181818;stroke-width:0.5;" width="4" x="299" y="173.9766"/><rect fill="#F1F1F1" height="2" style="stroke:#181818;stroke-width:0.5;" width="4" x="299" y="177.9766"/><text fill="#000000" font-family="sans-serif" font-size="14" lengthAdjust="spacing" textLength="33" x="263" y="200.5117">Core</text></g><!--MD5=[5427960f0a0d6e728427509f19a12a87]
entity kernel--><g id="elem_kernel"><rect fill="#F1F1F1" height="46.4883" rx="2.5" ry="2.5" style="stroke:#181818;stroke-width:0.5;" width="84" x="177.5" y="404.9766"/><rect fill="#F1F1F1" height="10" style="stroke:#181818;stroke-width:0.5;" width="15" x="241.5" y="409.9766"/><rect fill="#F1F1F1" height="2" style="stroke:#181818;stroke-width:0.5;" width="4" x="239.5" y="411.9766"/><rect fill="#F1F1F1" height="2" style="stroke:#181818;stroke-width:0.5;" width="4" x="239.5" y="415.9766"/><text fill="#000000" font-family="sans-serif" font-size="14" lengthAdjust="spacing" textLength="44" x="192.5" y="438.5117">Kernel</text></g><!--MD5=[6857f13236cb144e56befd21da1781a5]
entity runtime--><g id="elem_runtime"><rect fill="#F1F1F1" height="46.4883" rx="2.5" ry="2.5" style="stroke:#181818;stroke-width:0.5;" width="97" x="178" y="522.9766"/><rect fill="#F1F1F1" height="10" style="stroke:#181818;stroke-width:0.5;" width="15" x="255" y="527.9766"/><rect fill="#F1F1F1" height="2" style="stroke:#181818;stroke-width:0.5;" width="4" x="253" y="529.9766"/><rect fill="#F1F1F1" height="2" style="stroke:#181818;stroke-width:0.5;" width="4" x="253" y="533.9766"/><text fill="#000000" font-family="sans-serif" font-size="14" lengthAdjust="spacing" textLength="57" x="193" y="556.5117">Runtime</text></g><!--MD5=[0ab8c9667ba5645b6171946289a4147e]
entity proofServer--><g id="elem_proofServer"><rect fill="#F1F1F1" height="46.4883" rx="2.5" ry="2.5" style="stroke:#181818;stroke-width:0.5;" width="124" x="310.5" y="522.9766"/><rect fill="#F1F1F1" height="10" style="stroke:#181818;stroke-width:0.5;" width="15" x="414.5" y="527.9766"/><rect fill="#F1F1F1" height="2" style="stroke:#181818;stroke-width:0.5;" width="4" x="412.5" y="529.9766"/><rect fill="#F1F1F1" height="2" style="stroke:#181818;stroke-width:0.5;" width="4" x="412.5" y="533.9766"/><text fill="#000000" font-family="sans-serif" font-size="14" lengthAdjust="spacing" textLength="84" x="325.5" y="556.5117">Proof Server</text></g><!--MD5=[1373f38a88c7859eb7a4aa61f1183542]
entity transFunc2--><g id="elem_transFunc2"><rect fill="#F1F1F1" height="46.4883" rx="2.5" ry="2.5" style="stroke:#181818;stroke-width:0.5;" width="174" x="574.5" y="404.9766"/><rect fill="#F1F1F1" height="10" style="stroke:#181818;stroke-width:0.5;" width="15" x="728.5" y="409.9766"/><rect fill="#F1F1F1" height="2" style="stroke:#181818;stroke-width:0.5;" width="4" x="726.5" y="411.9766"/><rect fill="#F1F1F1" height="2" style="stroke:#181818;stroke-width:0.5;" width="4" x="726.5" y="415.9766"/><text fill="#000000" font-family="sans-serif" font-size="14" lengthAdjust="spacing" textLength="134" x="589.5" y="438.5117">Transition Function</text></g><!--MD5=[074c5e9bf774a14b8988f77be42cb356]
entity transFunc1--><g id="elem_transFunc1"><rect fill="#F1F1F1" height="46.4883" rx="2.5" ry="2.5" style="stroke:#181818;stroke-width:0.5;" width="174" x="344.5" y="404.9766"/><rect fill="#F1F1F1" height="10" style="stroke:#181818;stroke-width:0.5;" width="15" x="498.5" y="409.9766"/><rect fill="#F1F1F1" height="2" style="stroke:#181818;stroke-width:0.5;" width="4" x="496.5" y="411.9766"/><rect fill="#F1F1F1" height="2" style="stroke:#181818;stroke-width:0.5;" width="4" x="496.5" y="415.9766"/><text fill="#000000" font-family="sans-serif" font-size="14" lengthAdjust="spacing" textLength="134" x="359.5" y="438.5117">Transition Function</text></g><!--MD5=[4c8b68244c4c53aaa007eabd84727103]
entity authorization--><g id="elem_authorization"><rect fill="#F1F1F1" height="46.4883" rx="2.5" ry="2.5" style="stroke:#181818;stroke-width:0.5;" width="135" x="7" y="404.9766"/><rect fill="#F1F1F1" height="10" style="stroke:#181818;stroke-width:0.5;" width="15" x="122" y="409.9766"/><rect fill="#F1F1F1" height="2" style="stroke:#181818;stroke-width:0.5;" width="4" x="120" y="411.9766"/><rect fill="#F1F1F1" height="2" style="stroke:#181818;stroke-width:0.5;" width="4" x="120" y="415.9766"/><text fill="#000000" font-family="sans-serif" font-size="14" lengthAdjust="spacing" textLength="95" x="22" y="438.5117">Authorization</text></g><!--MD5=[1f1fefc997521685f31334865c0049c9]
entity authentication--><g id="elem_authentication"><rect fill="#F1F1F1" height="46.4883" rx="2.5" ry="2.5" style="stroke:#181818;stroke-width:0.5;" width="141" x="149" y="60.9766"/><rect fill="#F1F1F1" height="10" style="stroke:#181818;stroke-width:0.5;" width="15" x="270" y="65.9766"/><rect fill="#F1F1F1" height="2" style="stroke:#181818;stroke-width:0.5;" width="4" x="268" y="67.9766"/><rect fill="#F1F1F1" height="2" style="stroke:#181818;stroke-width:0.5;" width="4" x="268" y="71.9766"/><text fill="#000000" font-family="sans-serif" font-size="14" lengthAdjust="spacing" textLength="101" x="164" y="94.5117">Authentication</text></g><!--MD5=[d92c77e9642fb3ea6d9402db7eddef2a]
link kernel to proofServer--><g id="link_kernel_proofServer"><path d="M262,439.9766 C287.78,439.9766 315.75,439.9766 315.75,439.9766 C315.75,439.9766 315.75,516.1966 315.75,516.1966 " fill="none" id="kernel-to-proofServer" style="stroke:#181818;stroke-width:1.0;stroke-dasharray:7.0,7.0;"/><polygon fill="#181818" points="315.75,521.1966,319.75,512.1966,315.75,516.1966,311.75,512.1966,315.75,521.1966" style="stroke:#181818;stroke-width:1.0;"/></g><!--MD5=[9843c4cc295f3ed976d9bd002399e8d8]
link kernel to runtime--><g id="link_kernel_runtime"><path d="M219.75,451.2866 C219.75,451.2866 219.75,516.1966 219.75,516.1966 " fill="none" id="kernel-to-runtime" style="stroke:#181818;stroke-width:1.0;stroke-dasharray:7.0,7.0;"/><polygon fill="#181818" points="219.75,521.1966,223.75,512.1966,219.75,516.1966,215.75,512.1966,219.75,521.1966" style="stroke:#181818;stroke-width:1.0;"/></g><!--MD5=[5eacaff89ee36057b2fe68fcaf088f43]
reverse link contractStore to kernel--><g id="link_contractStore_kernel"><path d="M288.391,427.9766 C288.3096,427.9766 288.2278,427.9766 288.1454,427.9766 C286.8273,427.9766 285.3834,427.9766 283.8363,427.9766 C277.6475,427.9766 269.805,427.9766 261.74,427.9766 " fill="none" id="contractStore-backto-kernel" style="stroke:#181818;stroke-width:1.0;stroke-dasharray:7.0,7.0;"/><polygon fill="#181818" points="288.391,427.9766,279.391,423.9766,283.391,427.9766,279.391,431.9766,288.391,427.9766" style="stroke:#181818;stroke-width:1.0;"/></g><!--MD5=[62a18afd926bca62a39da739565d2959]
reverse link authentication to coreA--><g id="link_authentication_coreA"><path d="M170,113.7566 C170,113.7566 170,166.7666 170,166.7666 " fill="none" id="authentication-backto-coreA" style="stroke:#181818;stroke-width:1.0;stroke-dasharray:7.0,7.0;"/><polygon fill="#181818" points="170,108.7566,166,117.7566,170,113.7566,174,117.7566,170,108.7566" style="stroke:#181818;stroke-width:1.0;"/></g><!--MD5=[9dbcbff84885396d0947d42d0347c5ab]
reverse link authentication to coreB--><g id="link_authentication_coreB"><path d="M269,113.7566 C269,113.7566 269,166.7666 269,166.7666 " fill="none" id="authentication-backto-coreB" style="stroke:#181818;stroke-width:1.0;stroke-dasharray:7.0,7.0;"/><polygon fill="#181818" points="269,108.7566,265,117.7566,269,113.7566,273,117.7566,269,108.7566" style="stroke:#181818;stroke-width:1.0;"/></g><!--MD5=[d6f30ef598a0bd69dd16702493f3e699]
link coreA to kernel--><g id="link_coreA_kernel"><path d="M184.25,213.2266 C184.25,213.2266 184.25,398.1166 184.25,398.1166 " fill="none" id="coreA-to-kernel" style="stroke:#181818;stroke-width:1.0;stroke-dasharray:7.0,7.0;"/><polygon fill="#181818" points="184.25,403.1166,188.25,394.1166,184.25,398.1166,180.25,394.1166,184.25,403.1166" style="stroke:#181818;stroke-width:1.0;"/></g><!--MD5=[7b332c0b4db6c3c48361bd779838a187]
link coreB to kernel--><g id="link_coreB_kernel"><path d="M254.75,213.2266 C254.75,213.2266 254.75,398.1166 254.75,398.1166 " fill="none" id="coreB-to-kernel" style="stroke:#181818;stroke-width:1.0;stroke-dasharray:7.0,7.0;"/><polygon fill="#181818" points="254.75,403.1166,258.75,394.1166,254.75,398.1166,250.75,394.1166,254.75,403.1166" style="stroke:#181818;stroke-width:1.0;"/></g><!--MD5=[09d10e7a9a628e402df7ee3d306bdbd8]
reverse link authorization to kernel--><g id="link_authorization_kernel"><path d="M148.84,427.9766 C148.84,427.9766 177.36,427.9766 177.36,427.9766 " fill="none" id="authorization-backto-kernel" style="stroke:#181818;stroke-width:1.0;stroke-dasharray:7.0,7.0;"/><polygon fill="#181818" points="143.84,427.9766,152.84,431.9766,148.84,427.9766,152.84,423.9766,143.84,427.9766" style="stroke:#181818;stroke-width:1.0;"/></g><!--MD5=[73849792e538cd6f1d012e1384d934c2]
@startuml
skinparam componentStyle uml2
skinparam linetype ortho
title Contract Kernel - Component\n
[Authorization] as authorization
[Authentication] as authentication
package "Application A" as appA {
    [Core] as coreA
}
package "Application B" as appB {
    [Core] as coreB
}
package "Contract Kernel" {
  [Kernel] as kernel
  [Runtime] as runtime
  [Proof Server] as proofServer
  database "Contract Store" as contractStore {
    package "Contract [0x02]" {
      [Transition Function] as transFunc2
    }
    package "Contract [0x01]" {
      [Transition Function] as transFunc1
    }
  }
  kernel ..> proofServer
  kernel ..> runtime
  kernel .left...> contractStore
}
coreA .up.> authentication
coreB .up.> authentication
coreA .down.> kernel
coreB .down.> kernel
kernel .left.> authorization
@enduml

PlantUML version 1.2022.7(Mon Aug 22 12:01:30 CDT 2022)
(GPL source distribution)
Java Runtime: Java(TM) SE Runtime Environment
JVM: Java HotSpot(TM) 64-Bit Server VM
Default Encoding: UTF-8
Language: en
Country: US
--></g></svg>