<?xml version="1.0" encoding="UTF-8" standalone="no"?><svg xmlns="http://www.w3.org/2000/svg" xmlns:xlink="http://www.w3.org/1999/xlink" contentStyleType="text/css" height="591px" preserveAspectRatio="none" style="width:779px;height:591px;background:#FFFFFF;" version="1.1" viewBox="0 0 779 591" width="779px" zoomAndPan="magnify"><defs/><g><rect fill="none" height="42.9766" id="_title" style="stroke:none;stroke-width:1.0;" width="224" x="270.5" y="5"/><text fill="#000000" font-family="sans-serif" font-size="14" font-weight="bold" lengthAdjust="spacing" textLength="214" x="275.5" y="23.5352">Contract Kernel - Component</text><text fill="#000000" font-family="sans-serif" font-size="14" font-weight="bold" lengthAdjust="spacing" textLength="5" x="380" y="40.0234"> </text><!--MD5=[648ecb7216d3bb78805c24be49c01426]
cluster appA--><g id="cluster_appA"><path d="M102.5,131.9766 L210.5,131.9766 A3.75,3.75 0 0 1 213,134.4766 L220,154.4648 L220.5,154.4648 A2.5,2.5 0 0 1 223,156.9648 L223,226.4766 A2.5,2.5 0 0 1 220.5,228.9766 L102.5,228.9766 A2.5,2.5 0 0 1 100,226.4766 L100,134.4766 A2.5,2.5 0 0 1 102.5,131.9766 " fill="none" style="stroke:#000000;stroke-width:1.5;"/><line style="stroke:#000000;stroke-width:1.5;" x1="100" x2="220" y1="154.4648" y2="154.4648"/><text fill="#000000" font-family="sans-serif" font-size="14" font-weight="bold" lengthAdjust="spacing" textLength="107" x="104" y="147.5117">Application [A]</text></g><!--MD5=[5bc1258df3264b02ffb9268af7992b01]
cluster appB--><g id="cluster_appB"><path d="M249.5,131.9766 L356.5,131.9766 A3.75,3.75 0 0 1 359,134.4766 L366,154.4648 L366.5,154.4648 A2.5,2.5 0 0 1 369,156.9648 L369,226.4766 A2.5,2.5 0 0 1 366.5,228.9766 L249.5,228.9766 A2.5,2.5 0 0 1 247,226.4766 L247,134.4766 A2.5,2.5 0 0 1 249.5,131.9766 " fill="none" style="stroke:#000000;stroke-width:1.5;"/><line style="stroke:#000000;stroke-width:1.5;" x1="247" x2="366" y1="154.4648" y2="154.4648"/><text fill="#000000" font-family="sans-serif" font-size="14" font-weight="bold" lengthAdjust="spacing" textLength="106" x="251" y="147.5117">Application [B]</text></g><!--MD5=[755acf11898fd6d1cd50a6b63496549a]
cluster Contract Kernel--><g id="cluster_Contract Kernel"><path d="M8.5,252.9766 L121.5,252.9766 A3.75,3.75 0 0 1 124,255.4766 L131,275.4648 L769.5,275.4648 A2.5,2.5 0 0 1 772,277.9648 L772,582.4766 A2.5,2.5 0 0 1 769.5,584.9766 L8.5,584.9766 A2.5,2.5 0 0 1 6,582.4766 L6,255.4766 A2.5,2.5 0 0 1 8.5,252.9766 " fill="none" style="stroke:#000000;stroke-width:1.5;"/><line style="stroke:#000000;stroke-width:1.5;" x1="6" x2="131" y1="275.4648" y2="275.4648"/><text fill="#000000" font-family="sans-serif" font-size="14" font-weight="bold" lengthAdjust="spacing" textLength="112" x="10" y="268.5117">Contract Kernel</text></g><!--MD5=[6e67e861e3c50ea29716a9cf6be93b79]
cluster contractStore--><g id="cluster_contractStore"><path d="M304,313.9766 C304,303.9766 522,303.9766 522,303.9766 C522,303.9766 740,303.9766 740,313.9766 L740,488.9766 C740,498.9766 522,498.9766 522,498.9766 C522,498.9766 304,498.9766 304,488.9766 L304,313.9766 " fill="none" style="stroke:#181818;stroke-width:1.0;"/><path d="M304,313.9766 C304,323.9766 522,323.9766 522,323.9766 C522,323.9766 740,323.9766 740,313.9766 " fill="none" style="stroke:#181818;stroke-width:1.0;"/><text fill="#000000" font-family="sans-serif" font-size="14" font-weight="bold" lengthAdjust="spacing" textLength="103" x="470.5" y="339.5117">Contract Store</text></g><!--MD5=[be631b3721cf3fddaa40d882d63fddbf]
cluster Contract [0x02]--><g id="cluster_Contract [0x02]"><path d="M540.5,369.9766 L652.5,369.9766 A3.75,3.75 0 0 1 655,372.4766 L662,392.4648 L705.5,392.4648 A2.5,2.5 0 0 1 708,394.9648 L708,464.4766 A2.5,2.5 0 0 1 705.5,466.9766 L540.5,466.9766 A2.5,2.5 0 0 1 538,464.4766 L538,372.4766 A2.5,2.5 0 0 1 540.5,369.9766 " fill="none" style="stroke:#000000;stroke-width:1.5;"/><line style="stroke:#000000;stroke-width:1.5;" x1="538" x2="662" y1="392.4648" y2="392.4648"/><text fill="#000000" font-family="sans-serif" font-size="14" font-weight="bold" lengthAdjust="spacing" textLength="111" x="542" y="385.5117">Contract [0x02]</text></g><!--MD5=[462333ed978bf80b33aa963e5cb5c98a]
cluster Contract [0x01]--><g id="cluster_Contract [0x01]"><path d="M346.5,369.9766 L458.5,369.9766 A3.75,3.75 0 0 1 461,372.4766 L468,392.4648 L511.5,392.4648 A2.5,2.5 0 0 1 514,394.9648 L514,464.4766 A2.5,2.5 0 0 1 511.5,466.9766 L346.5,466.9766 A2.5,2.5 0 0 1 344,464.4766 L344,372.4766 A2.5,2.5 0 0 1 346.5,369.9766 " fill="none" style="stroke:#000000;stroke-width:1.5;"/><line style="stroke:#000000;stroke-width:1.5;" x1="344" x2="468" y1="392.4648" y2="392.4648"/><text fill="#000000" font-family="sans-serif" font-size="14" font-weight="bold" lengthAdjust="spacing" textLength="111" x="348" y="385.5117">Contract [0x01]</text></g><!--MD5=[f59ca8c2fc3e22e255f68ec9cee1b618]
entity coreA--><g id="elem_coreA"><rect fill="#F1F1F1" height="46.4883" rx="2.5" ry="2.5" style="stroke:#181818;stroke-width:0.5;" width="73" x="133.5" y="166.9766"/><rect fill="#F1F1F1" height="10" style="stroke:#181818;stroke-width:0.5;" width="15" x="186.5" y="171.9766"/><rect fill="#F1F1F1" height="2" style="stroke:#181818;stroke-width:0.5;" width="4" x="184.5" y="173.9766"/><rect fill="#F1F1F1" height="2" style="stroke:#181818;stroke-width:0.5;" width="4" x="184.5" y="177.9766"/><text fill="#000000" font-family="sans-serif" font-size="14" lengthAdjust="spacing" textLength="33" x="148.5" y="200.5117">Core</text></g><!--MD5=[9c3e02881235553276fa7979d903634b]
entity coreB--><g id="elem_coreB"><rect fill="#F1F1F1" height="46.4883" rx="2.5" ry="2.5" style="stroke:#181818;stroke-width:0.5;" width="73" x="263.5" y="166.9766"/><rect fill="#F1F1F1" height="10" style="stroke:#181818;stroke-width:0.5;" width="15" x="316.5" y="171.9766"/><rect fill="#F1F1F1" height="2" style="stroke:#181818;stroke-width:0.5;" width="4" x="314.5" y="173.9766"/><rect fill="#F1F1F1" height="2" style="stroke:#181818;stroke-width:0.5;" width="4" x="314.5" y="177.9766"/><text fill="#000000" font-family="sans-serif" font-size="14" lengthAdjust="spacing" textLength="33" x="278.5" y="200.5117">Core</text></g><!--MD5=[4c8b68244c4c53aaa007eabd84727103]
entity authorization--><g id="elem_authorization"><rect fill="#F1F1F1" height="46.4883" rx="2.5" ry="2.5" style="stroke:#181818;stroke-width:0.5;" width="135" x="22.5" y="404.9766"/><rect fill="#F1F1F1" height="10" style="stroke:#181818;stroke-width:0.5;" width="15" x="137.5" y="409.9766"/><rect fill="#F1F1F1" height="2" style="stroke:#181818;stroke-width:0.5;" width="4" x="135.5" y="411.9766"/><rect fill="#F1F1F1" height="2" style="stroke:#181818;stroke-width:0.5;" width="4" x="135.5" y="415.9766"/><text fill="#000000" font-family="sans-serif" font-size="14" lengthAdjust="spacing" textLength="95" x="37.5" y="438.5117">Authorization</text></g><!--MD5=[5427960f0a0d6e728427509f19a12a87]
entity kernel--><g id="elem_kernel"><rect fill="#F1F1F1" height="46.4883" rx="2.5" ry="2.5" style="stroke:#181818;stroke-width:0.5;" width="84" x="193" y="404.9766"/><rect fill="#F1F1F1" height="10" style="stroke:#181818;stroke-width:0.5;" width="15" x="257" y="409.9766"/><rect fill="#F1F1F1" height="2" style="stroke:#181818;stroke-width:0.5;" width="4" x="255" y="411.9766"/><rect fill="#F1F1F1" height="2" style="stroke:#181818;stroke-width:0.5;" width="4" x="255" y="415.9766"/><text fill="#000000" font-family="sans-serif" font-size="14" lengthAdjust="spacing" textLength="44" x="208" y="438.5117">Kernel</text></g><!--MD5=[6857f13236cb144e56befd21da1781a5]
entity runtime--><g id="elem_runtime"><rect fill="#F1F1F1" height="46.4883" rx="2.5" ry="2.5" style="stroke:#181818;stroke-width:0.5;" width="97" x="113.5" y="522.9766"/><rect fill="#F1F1F1" height="10" style="stroke:#181818;stroke-width:0.5;" width="15" x="190.5" y="527.9766"/><rect fill="#F1F1F1" height="2" style="stroke:#181818;stroke-width:0.5;" width="4" x="188.5" y="529.9766"/><rect fill="#F1F1F1" height="2" style="stroke:#181818;stroke-width:0.5;" width="4" x="188.5" y="533.9766"/><text fill="#000000" font-family="sans-serif" font-size="14" lengthAdjust="spacing" textLength="57" x="128.5" y="556.5117">Runtime</text></g><!--MD5=[0ab8c9667ba5645b6171946289a4147e]
entity proofServer--><g id="elem_proofServer"><rect fill="#F1F1F1" height="46.4883" rx="2.5" ry="2.5" style="stroke:#181818;stroke-width:0.5;" width="124" x="246" y="522.9766"/><rect fill="#F1F1F1" height="10" style="stroke:#181818;stroke-width:0.5;" width="15" x="350" y="527.9766"/><rect fill="#F1F1F1" height="2" style="stroke:#181818;stroke-width:0.5;" width="4" x="348" y="529.9766"/><rect fill="#F1F1F1" height="2" style="stroke:#181818;stroke-width:0.5;" width="4" x="348" y="533.9766"/><text fill="#000000" font-family="sans-serif" font-size="14" lengthAdjust="spacing" textLength="84" x="261" y="556.5117">Proof Server</text></g><!--MD5=[1373f38a88c7859eb7a4aa61f1183542]
entity transFunc2--><g id="elem_transFunc2"><rect fill="#F1F1F1" height="46.4883" rx="2.5" ry="2.5" style="stroke:#181818;stroke-width:0.5;" width="137" x="554.5" y="404.9766"/><rect fill="#F1F1F1" height="10" style="stroke:#181818;stroke-width:0.5;" width="15" x="671.5" y="409.9766"/><rect fill="#F1F1F1" height="2" style="stroke:#181818;stroke-width:0.5;" width="4" x="669.5" y="411.9766"/><rect fill="#F1F1F1" height="2" style="stroke:#181818;stroke-width:0.5;" width="4" x="669.5" y="415.9766"/><text fill="#000000" font-family="sans-serif" font-size="14" lengthAdjust="spacing" textLength="97" x="569.5" y="438.5117">Function [bar]</text></g><!--MD5=[074c5e9bf774a14b8988f77be42cb356]
entity transFunc1--><g id="elem_transFunc1"><rect fill="#F1F1F1" height="46.4883" rx="2.5" ry="2.5" style="stroke:#181818;stroke-width:0.5;" width="137" x="360.5" y="404.9766"/><rect fill="#F1F1F1" height="10" style="stroke:#181818;stroke-width:0.5;" width="15" x="477.5" y="409.9766"/><rect fill="#F1F1F1" height="2" style="stroke:#181818;stroke-width:0.5;" width="4" x="475.5" y="411.9766"/><rect fill="#F1F1F1" height="2" style="stroke:#181818;stroke-width:0.5;" width="4" x="475.5" y="415.9766"/><text fill="#000000" font-family="sans-serif" font-size="14" lengthAdjust="spacing" textLength="97" x="375.5" y="438.5117">Function [foo]</text></g><!--MD5=[1f1fefc997521685f31334865c0049c9]
entity authentication--><g id="elem_authentication"><rect fill="#F1F1F1" height="46.4883" rx="2.5" ry="2.5" style="stroke:#181818;stroke-width:0.5;" width="141" x="164.5" y="60.9766"/><rect fill="#F1F1F1" height="10" style="stroke:#181818;stroke-width:0.5;" width="15" x="285.5" y="65.9766"/><rect fill="#F1F1F1" height="2" style="stroke:#181818;stroke-width:0.5;" width="4" x="283.5" y="67.9766"/><rect fill="#F1F1F1" height="2" style="stroke:#181818;stroke-width:0.5;" width="4" x="283.5" y="71.9766"/><text fill="#000000" font-family="sans-serif" font-size="14" lengthAdjust="spacing" textLength="101" x="179.5" y="94.5117">Authentication</text></g><!--MD5=[d92c77e9642fb3ea6d9402db7eddef2a]
link kernel to proofServer--><g id="link_kernel_proofServer"><path d="M261.5,451.2866 C261.5,451.2866 261.5,516.1966 261.5,516.1966 " fill="none" id="kernel-to-proofServer" style="stroke:#181818;stroke-width:1.0;stroke-dasharray:7.0,7.0;"/><polygon fill="#181818" points="261.5,521.1966,265.5,512.1966,261.5,516.1966,257.5,512.1966,261.5,521.1966" style="stroke:#181818;stroke-width:1.0;"/></g><!--MD5=[9843c4cc295f3ed976d9bd002399e8d8]
link kernel to runtime--><g id="link_kernel_runtime"><path d="M201.75,451.2866 C201.75,451.2866 201.75,516.1966 201.75,516.1966 " fill="none" id="kernel-to-runtime" style="stroke:#181818;stroke-width:1.0;stroke-dasharray:7.0,7.0;"/><polygon fill="#181818" points="201.75,521.1966,205.75,512.1966,201.75,516.1966,197.75,512.1966,201.75,521.1966" style="stroke:#181818;stroke-width:1.0;"/></g><!--MD5=[5eacaff89ee36057b2fe68fcaf088f43]
reverse link contractStore to kernel--><g id="link_contractStore_kernel"><path d="M303.891,427.9766 C303.8096,427.9766 303.7278,427.9766 303.6454,427.9766 C302.3273,427.9766 300.8834,427.9766 299.3363,427.9766 C293.1475,427.9766 285.305,427.9766 277.24,427.9766 " fill="none" id="contractStore-backto-kernel" style="stroke:#181818;stroke-width:1.0;stroke-dasharray:7.0,7.0;"/><polygon fill="#181818" points="303.891,427.9766,294.891,423.9766,298.891,427.9766,294.891,431.9766,303.891,427.9766" style="stroke:#181818;stroke-width:1.0;"/></g><!--MD5=[09d10e7a9a628e402df7ee3d306bdbd8]
reverse link authorization to kernel--><g id="link_authorization_kernel"><path d="M164.34,427.9766 C164.34,427.9766 192.86,427.9766 192.86,427.9766 " fill="none" id="authorization-backto-kernel" style="stroke:#181818;stroke-width:1.0;stroke-dasharray:7.0,7.0;"/><polygon fill="#181818" points="159.34,427.9766,168.34,431.9766,164.34,427.9766,168.34,423.9766,159.34,427.9766" style="stroke:#181818;stroke-width:1.0;"/></g><!--MD5=[62a18afd926bca62a39da739565d2959]
reverse link authentication to coreA--><g id="link_authentication_coreA"><path d="M185.5,113.7566 C185.5,113.7566 185.5,166.7666 185.5,166.7666 " fill="none" id="authentication-backto-coreA" style="stroke:#181818;stroke-width:1.0;stroke-dasharray:7.0,7.0;"/><polygon fill="#181818" points="185.5,108.7566,181.5,117.7566,185.5,113.7566,189.5,117.7566,185.5,108.7566" style="stroke:#181818;stroke-width:1.0;"/></g><!--MD5=[9dbcbff84885396d0947d42d0347c5ab]
reverse link authentication to coreB--><g id="link_authentication_coreB"><path d="M284.5,113.7566 C284.5,113.7566 284.5,166.7666 284.5,166.7666 " fill="none" id="authentication-backto-coreB" style="stroke:#181818;stroke-width:1.0;stroke-dasharray:7.0,7.0;"/><polygon fill="#181818" points="284.5,108.7566,280.5,117.7566,284.5,113.7566,288.5,117.7566,284.5,108.7566" style="stroke:#181818;stroke-width:1.0;"/></g><!--MD5=[d6f30ef598a0bd69dd16702493f3e699]
link coreA to kernel--><g id="link_coreA_kernel"><path d="M199.75,213.2266 C199.75,213.2266 199.75,398.1166 199.75,398.1166 " fill="none" id="coreA-to-kernel" style="stroke:#181818;stroke-width:1.0;stroke-dasharray:7.0,7.0;"/><polygon fill="#181818" points="199.75,403.1166,203.75,394.1166,199.75,398.1166,195.75,394.1166,199.75,403.1166" style="stroke:#181818;stroke-width:1.0;"/></g><!--MD5=[7b332c0b4db6c3c48361bd779838a187]
link coreB to kernel--><g id="link_coreB_kernel"><path d="M270.25,213.2266 C270.25,213.2266 270.25,398.1166 270.25,398.1166 " fill="none" id="coreB-to-kernel" style="stroke:#181818;stroke-width:1.0;stroke-dasharray:7.0,7.0;"/><polygon fill="#181818" points="270.25,403.1166,274.25,394.1166,270.25,398.1166,266.25,394.1166,270.25,403.1166" style="stroke:#181818;stroke-width:1.0;"/></g><!--MD5=[29b96a3bb030baeadb32c65d413f866b]
@startuml

skinparam componentStyle uml2
skinparam linetype ortho
title Contract Kernel - Component\n
[Authentication] as authentication
package "Application [A]" as appA {
    [Core] as coreA
}
package "Application [B]" as appB {
    [Core] as coreB
}
package "Contract Kernel" {
  [Authorization] as authorization
  [Kernel] as kernel
  [Runtime] as runtime
  [Proof Server] as proofServer
  database "Contract Store" as contractStore {
    package "Contract [0x02]" {
      component "Function [bar]" as transFunc2
    }
    package "Contract [0x01]" {
      component "Function [foo]" as transFunc1
    }
  }
  kernel ..> proofServer
  kernel ..> runtime
  kernel .left...> contractStore
  kernel .left.> authorization
}
coreA .up.> authentication
coreB .up.> authentication
coreA .down.> kernel
coreB .down.> kernel
@enduml

PlantUML version 1.2022.7(Mon Aug 22 12:01:30 CDT 2022)
(GPL source distribution)
Java Runtime: OpenJDK Runtime Environment
JVM: OpenJDK 64-Bit Server VM
Default Encoding: UTF-8
Language: en
Country: US
--></g></svg>