<?xml version="1.0" encoding="us-ascii" standalone="no"?><svg xmlns="http://www.w3.org/2000/svg" xmlns:xlink="http://www.w3.org/1999/xlink" contentStyleType="text/css" height="1140px" preserveAspectRatio="none" style="width:728px;height:1140px;background:#FFFFFF;" version="1.1" viewBox="0 0 728 1140" width="728px" zoomAndPan="magnify"><defs/><g><!--cluster Indexer deployment--><g id="cluster_Indexer deployment"><polygon fill="none" points="16,141.49,26,131.49,711,131.49,711,988.44,701,998.44,16,998.44,16,141.49" style="stroke:#181818;stroke-width:1.0;"/><line style="stroke:#181818;stroke-width:1.0;" x1="701" x2="711" y1="141.49" y2="131.49"/><line style="stroke:#181818;stroke-width:1.0;" x1="16" x2="701" y1="141.49" y2="141.49"/><line style="stroke:#181818;stroke-width:1.0;" x1="701" x2="701" y1="141.49" y2="998.44"/><text fill="#000000" font-family="sans-serif" font-size="14" font-weight="bold" lengthAdjust="spacing" textLength="143" x="288" y="158.0252">Indexer deployment</text></g><!--cluster Indexer--><g id="cluster_Indexer"><rect fill="none" height="204.49" rx="2.5" ry="2.5" style="stroke:#181818;stroke-width:1.0;" width="628" x="58" y="335.98"/><rect fill="none" height="10" style="stroke:#181818;stroke-width:1.0;" width="15" x="666" y="340.98"/><rect fill="none" height="2" style="stroke:#181818;stroke-width:1.0;" width="4" x="664" y="342.98"/><rect fill="none" height="2" style="stroke:#181818;stroke-width:1.0;" width="4" x="664" y="346.98"/><text fill="#000000" font-family="sans-serif" font-size="14" font-weight="bold" lengthAdjust="spacing" textLength="53" x="345.5" y="362.5152">Indexer</text></g><!--cluster graphql_api--><g id="cluster_graphql_api"><rect fill="none" height="165.49" rx="2.5" ry="2.5" style="stroke:#181818;stroke-width:1.0;" width="645" x="42" y="759.95"/><rect fill="none" height="10" style="stroke:#181818;stroke-width:1.0;" width="15" x="667" y="764.95"/><rect fill="none" height="2" style="stroke:#181818;stroke-width:1.0;" width="4" x="665" y="766.95"/><rect fill="none" height="2" style="stroke:#181818;stroke-width:1.0;" width="4" x="665" y="770.95"/><text fill="#000000" font-family="sans-serif" font-size="14" font-weight="bold" lengthAdjust="spacing" textLength="91" x="319" y="786.4852">GraphQL API</text></g><text fill="#000000" font-family="sans-serif" font-size="14" lengthAdjust="spacing" textLength="153" x="204.5" y="110.5369">Node API - WS + HTTP</text><rect fill="#F1F1F1" height="12" style="stroke:#181818;stroke-width:1.5;" width="12" x="275" y="125.49"/><text fill="#000000" font-family="sans-serif" font-size="14" lengthAdjust="spacing" textLength="177" x="192.5" y="1017.9752">GraphQL API - WS + HTTP</text><rect fill="#F1F1F1" height="12" style="stroke:#181818;stroke-width:1.5;" width="12" x="275" y="992.44"/><!--entity index--><g id="elem_index"><path d="M224.5,645.47 C224.5,635.47 254,635.47 254,635.47 C254,635.47 283.5,635.47 283.5,645.47 L283.5,670.9583 C283.5,680.9583 254,680.9583 254,680.9583 C254,680.9583 224.5,680.9583 224.5,670.9583 L224.5,645.47 " fill="#F1F1F1" style="stroke:#181818;stroke-width:0.5;"/><path d="M224.5,645.47 C224.5,655.47 254,655.47 254,655.47 C254,655.47 283.5,655.47 283.5,645.47 " fill="none" style="stroke:#181818;stroke-width:0.5;"/><text fill="#000000" font-family="sans-serif" font-size="14" lengthAdjust="spacing" textLength="39" x="234.5" y="673.0052">Index</text></g><!--entity pub_sub--><g id="elem_pub_sub"><path d="M426,644.97 L488,644.97 C493,644.97 493,658.2141 493,658.2141 C493,658.2141 493,671.4583 488,671.4583 L426,671.4583 C421,671.4583 421,658.2141 421,658.2141 C421,658.2141 421,644.97 426,644.97 " fill="#F1F1F1" style="stroke:#181818;stroke-width:0.5;"/><path d="M488,644.97 C483,644.97 483,658.2141 483,658.2141 C483,671.4583 488,671.4583 488,671.4583 " fill="none" style="stroke:#181818;stroke-width:0.5;"/><text fill="#000000" font-family="sans-serif" font-size="14" lengthAdjust="spacing" textLength="52" x="426" y="663.5052">PubSub</text></g><!--entity events_source--><g id="elem_events_source"><rect fill="#F1F1F1" height="46.4883" rx="2.5" ry="2.5" style="stroke:#181818;stroke-width:0.5;" width="135" x="288.5" y="210.49"/><rect fill="#F1F1F1" height="10" style="stroke:#181818;stroke-width:0.5;" width="15" x="403.5" y="215.49"/><rect fill="#F1F1F1" height="2" style="stroke:#181818;stroke-width:0.5;" width="4" x="401.5" y="217.49"/><rect fill="#F1F1F1" height="2" style="stroke:#181818;stroke-width:0.5;" width="4" x="401.5" y="221.49"/><text fill="#000000" font-family="sans-serif" font-size="14" lengthAdjust="spacing" textLength="95" x="303.5" y="244.0252">Events Source</text></g><!--entity zswap_indexer--><g id="elem_zswap_indexer"><rect fill="#F1F1F1" height="46.4883" rx="2.5" ry="2.5" style="stroke:#181818;stroke-width:0.5;" width="140" x="358" y="414.98"/><rect fill="#F1F1F1" height="10" style="stroke:#181818;stroke-width:0.5;" width="15" x="478" y="419.98"/><rect fill="#F1F1F1" height="2" style="stroke:#181818;stroke-width:0.5;" width="4" x="476" y="421.98"/><rect fill="#F1F1F1" height="2" style="stroke:#181818;stroke-width:0.5;" width="4" x="476" y="425.98"/><text fill="#000000" font-family="sans-serif" font-size="14" lengthAdjust="spacing" textLength="100" x="373" y="448.5152">Zswap Indexer</text></g><!--entity chain_indexer--><g id="elem_chain_indexer"><rect fill="#F1F1F1" height="46.4883" rx="2.5" ry="2.5" style="stroke:#181818;stroke-width:0.5;" width="137" x="532.5" y="414.98"/><rect fill="#F1F1F1" height="10" style="stroke:#181818;stroke-width:0.5;" width="15" x="649.5" y="419.98"/><rect fill="#F1F1F1" height="2" style="stroke:#181818;stroke-width:0.5;" width="4" x="647.5" y="421.98"/><rect fill="#F1F1F1" height="2" style="stroke:#181818;stroke-width:0.5;" width="4" x="647.5" y="425.98"/><text fill="#000000" font-family="sans-serif" font-size="14" lengthAdjust="spacing" textLength="97" x="547.5" y="448.5152">Chain Indexer</text></g><!--entity wallets_indexer--><g id="elem_wallets_indexer"><rect fill="#F1F1F1" height="46.4883" rx="2.5" ry="2.5" style="stroke:#181818;stroke-width:0.5;" width="145" x="178.5" y="414.98"/><rect fill="#F1F1F1" height="10" style="stroke:#181818;stroke-width:0.5;" width="15" x="303.5" y="419.98"/><rect fill="#F1F1F1" height="2" style="stroke:#181818;stroke-width:0.5;" width="4" x="301.5" y="421.98"/><rect fill="#F1F1F1" height="2" style="stroke:#181818;stroke-width:0.5;" width="4" x="301.5" y="425.98"/><text fill="#000000" font-family="sans-serif" font-size="14" lengthAdjust="spacing" textLength="105" x="193.5" y="448.5152">Wallets Indexer</text></g><text fill="#000000" font-family="sans-serif" font-size="14" lengthAdjust="spacing" textLength="127" x="292.5" y="315.0269">Events Source Port</text><rect fill="#F1F1F1" height="12" style="stroke:#181818;stroke-width:1.5;" width="12" x="350" y="329.98"/><text fill="#000000" font-family="sans-serif" font-size="14" lengthAdjust="spacing" textLength="84" x="418" y="560.0052">PubSub Port</text><rect fill="#F1F1F1" height="12" style="stroke:#181818;stroke-width:1.5;" width="12" x="454" y="534.47"/><text fill="#000000" font-family="sans-serif" font-size="14" lengthAdjust="spacing" textLength="109" x="196" y="560.0052">Persistence Port</text><rect fill="#F1F1F1" height="12" style="stroke:#181818;stroke-width:1.5;" width="12" x="244.5" y="534.47"/><!--entity mutation_api--><g id="elem_mutation_api"><rect fill="#F1F1F1" height="46.4883" rx="2.5" ry="2.5" style="stroke:#181818;stroke-width:0.5;" width="127" x="535.5" y="854.95"/><rect fill="#F1F1F1" height="10" style="stroke:#181818;stroke-width:0.5;" width="15" x="642.5" y="859.95"/><rect fill="#F1F1F1" height="2" style="stroke:#181818;stroke-width:0.5;" width="4" x="640.5" y="861.95"/><rect fill="#F1F1F1" height="2" style="stroke:#181818;stroke-width:0.5;" width="4" x="640.5" y="865.95"/><text fill="#000000" font-family="sans-serif" font-size="14" lengthAdjust="spacing" textLength="87" x="550.5" y="888.4852">Mutation API</text></g><!--entity query_api--><g id="elem_query_api"><rect fill="#F1F1F1" height="46.4883" rx="2.5" ry="2.5" style="stroke:#181818;stroke-width:0.5;" width="107" x="65.5" y="854.95"/><rect fill="#F1F1F1" height="10" style="stroke:#181818;stroke-width:0.5;" width="15" x="152.5" y="859.95"/><rect fill="#F1F1F1" height="2" style="stroke:#181818;stroke-width:0.5;" width="4" x="150.5" y="861.95"/><rect fill="#F1F1F1" height="2" style="stroke:#181818;stroke-width:0.5;" width="4" x="150.5" y="865.95"/><text fill="#000000" font-family="sans-serif" font-size="14" lengthAdjust="spacing" textLength="67" x="80.5" y="888.4852">Query API</text></g><!--entity subscription_api--><g id="elem_subscription_api"><rect fill="#F1F1F1" height="46.4883" rx="2.5" ry="2.5" style="stroke:#181818;stroke-width:0.5;" width="152" x="207" y="854.95"/><rect fill="#F1F1F1" height="10" style="stroke:#181818;stroke-width:0.5;" width="15" x="339" y="859.95"/><rect fill="#F1F1F1" height="2" style="stroke:#181818;stroke-width:0.5;" width="4" x="337" y="861.95"/><rect fill="#F1F1F1" height="2" style="stroke:#181818;stroke-width:0.5;" width="4" x="337" y="865.95"/><text fill="#000000" font-family="sans-serif" font-size="14" lengthAdjust="spacing" textLength="112" x="222" y="888.4852">Subscription API</text></g><text fill="#000000" font-family="sans-serif" font-size="14" lengthAdjust="spacing" textLength="71" x="223.5" y="738.9969">Index Port</text><rect fill="#F1F1F1" height="12" style="stroke:#181818;stroke-width:1.5;" width="12" x="253" y="753.95"/><text fill="#000000" font-family="sans-serif" font-size="14" lengthAdjust="spacing" textLength="84" x="409" y="738.9969">PubSub Port</text><rect fill="#F1F1F1" height="12" style="stroke:#181818;stroke-width:1.5;" width="12" x="445" y="753.95"/><!--entity Node--><g id="elem_Node"><polygon fill="#F1F1F1" points="243,16,253,6,319,6,319,42.4883,309,52.4883,243,52.4883,243,16" style="stroke:#181818;stroke-width:0.5;"/><line style="stroke:#181818;stroke-width:0.5;" x1="309" x2="319" y1="16" y2="6"/><line style="stroke:#181818;stroke-width:0.5;" x1="243" x2="309" y1="16" y2="16"/><line style="stroke:#181818;stroke-width:0.5;" x1="309" x2="309" y1="16" y2="52.4883"/><text fill="#000000" font-family="sans-serif" font-size="14" lengthAdjust="spacing" textLength="36" x="258" y="39.5352">Node</text></g><!--entity Wallet--><g id="elem_Wallet"><polygon fill="#F1F1F1" points="126.5,1087.44,136.5,1077.44,207.5,1077.44,207.5,1113.9283,197.5,1123.9283,126.5,1123.9283,126.5,1087.44" style="stroke:#181818;stroke-width:0.5;"/><line style="stroke:#181818;stroke-width:0.5;" x1="197.5" x2="207.5" y1="1087.44" y2="1077.44"/><line style="stroke:#181818;stroke-width:0.5;" x1="126.5" x2="197.5" y1="1087.44" y2="1087.44"/><line style="stroke:#181818;stroke-width:0.5;" x1="197.5" x2="197.5" y1="1087.44" y2="1123.9283"/><text fill="#000000" font-family="sans-serif" font-size="14" lengthAdjust="spacing" textLength="41" x="141.5" y="1110.9752">Wallet</text></g><!--entity dApp--><g id="elem_dApp"><polygon fill="#F1F1F1" points="242.5,1087.44,252.5,1077.44,319.5,1077.44,319.5,1113.9283,309.5,1123.9283,242.5,1123.9283,242.5,1087.44" style="stroke:#181818;stroke-width:0.5;"/><line style="stroke:#181818;stroke-width:0.5;" x1="309.5" x2="319.5" y1="1087.44" y2="1077.44"/><line style="stroke:#181818;stroke-width:0.5;" x1="242.5" x2="309.5" y1="1087.44" y2="1087.44"/><line style="stroke:#181818;stroke-width:0.5;" x1="309.5" x2="309.5" y1="1087.44" y2="1123.9283"/><text fill="#000000" font-family="sans-serif" font-size="14" lengthAdjust="spacing" textLength="37" x="257.5" y="1110.9752">dApp</text></g><!--entity explorer--><g id="elem_explorer"><polygon fill="#F1F1F1" points="354.5,1087.44,364.5,1077.44,493.5,1077.44,493.5,1113.9283,483.5,1123.9283,354.5,1123.9283,354.5,1087.44" style="stroke:#181818;stroke-width:0.5;"/><line style="stroke:#181818;stroke-width:0.5;" x1="483.5" x2="493.5" y1="1087.44" y2="1077.44"/><line style="stroke:#181818;stroke-width:0.5;" x1="354.5" x2="483.5" y1="1087.44" y2="1087.44"/><line style="stroke:#181818;stroke-width:0.5;" x1="483.5" x2="483.5" y1="1087.44" y2="1123.9283"/><text fill="#000000" font-family="sans-serif" font-size="14" lengthAdjust="spacing" textLength="99" x="369.5" y="1110.9752">Block Explorer</text></g><!--link chain_indexer to events_source_indexer_port--><g id="link_chain_indexer_events_source_indexer_port"><path d="M545.46,414.5 C482.57,388.76 391.2435,351.3912 367.1335,341.5312 " fill="none" id="chain_indexer-to-events_source_indexer_port" style="stroke:#181818;stroke-width:1.0;"/><polygon fill="#181818" points="361.58,339.26,368.3962,346.3691,366.2079,341.1526,371.4244,338.9644,361.58,339.26" style="stroke:#181818;stroke-width:1.0;"/></g><!--link chain_indexer to pub_sub_indexer_port--><g id="link_chain_indexer_pub_sub_indexer_port"><path d="M569.36,461.72 C534.93,486.19 487.4209,519.9746 470.4209,532.0546 " fill="none" id="chain_indexer-to-pub_sub_indexer_port" style="stroke:#181818;stroke-width:1.0;"/><polygon fill="#181818" points="465.53,535.53,475.1834,533.5775,469.6058,532.6338,470.5494,527.0562,465.53,535.53" style="stroke:#181818;stroke-width:1.0;"/></g><!--link wallets_indexer to pub_sub_indexer_port--><g id="link_wallets_indexer_pub_sub_indexer_port"><path d="M298.16,461.84 C350.9,487.14 426.4295,523.3664 448.7295,534.0564 " fill="none" id="wallets_indexer-to-pub_sub_indexer_port" style="stroke:#181818;stroke-width:1.0;"/><polygon fill="#181818" points="454.14,536.65,447.7534,529.1526,449.6313,534.4886,444.2952,536.3665,454.14,536.65" style="stroke:#181818;stroke-width:1.0;"/></g><!--link zswap_indexer to pub_sub_indexer_port--><g id="link_zswap_indexer_pub_sub_indexer_port"><path d="M435.1,461.47 C442.76,485.46 452.5849,516.2443 456.6849,529.0843 " fill="none" id="zswap_indexer-to-pub_sub_indexer_port" style="stroke:#181818;stroke-width:1.0;"/><polygon fill="#181818" points="458.51,534.8,459.5828,525.0097,456.9891,530.0369,451.9619,527.4432,458.51,534.8" style="stroke:#181818;stroke-width:1.0;"/></g><!--link chain_indexer to persistence_indexer_port--><g id="link_chain_indexer_persistence_indexer_port"><path d="M538.25,461.93 C530.45,464.56 522.56,467.14 515,469.47 C412.13,501.14 289.9606,530.3064 262.2806,536.8164 " fill="none" id="chain_indexer-to-persistence_indexer_port" style="stroke:#181818;stroke-width:1.0;"/><polygon fill="#181818" points="256.44,538.19,266.1167,540.0233,261.3072,537.0453,264.2852,532.2358,256.44,538.19" style="stroke:#181818;stroke-width:1.0;"/></g><!--link wallets_indexer to persistence_indexer_port--><g id="link_wallets_indexer_persistence_indexer_port"><path d="M251,461.47 C251,485.46 251,515.96 251,528.8 " fill="none" id="wallets_indexer-to-persistence_indexer_port" style="stroke:#181818;stroke-width:1.0;"/><polygon fill="#181818" points="251,534.8,255,525.8,251,529.8,247,525.8,251,534.8" style="stroke:#181818;stroke-width:1.0;"/></g><!--link zswap_indexer to persistence_indexer_port--><g id="link_zswap_indexer_persistence_indexer_port"><path d="M388.28,461.72 C343.84,486.89 280.7609,522.6133 261.4609,533.5433 " fill="none" id="zswap_indexer-to-persistence_indexer_port" style="stroke:#181818;stroke-width:1.0;"/><polygon fill="#181818" points="256.24,536.5,266.0425,535.5455,260.5908,534.0361,262.1002,528.5843,256.24,536.5" style="stroke:#181818;stroke-width:1.0;"/></g><!--link pub_sub_indexer_port to persistence_indexer_port--><!--reverse link index_graphql_port to query_api--><g id="link_index_graphql_port_query_api"><path d="M248.3494,769.2507 C237.6594,777.5907 219.19,792.12 200,807.95 C181.45,823.26 160.85,840.88 145.07,854.51 " fill="none" id="index_graphql_port-backto-query_api" style="stroke:#181818;stroke-width:1.0;"/><polygon fill="#181818" points="253.08,765.56,243.5236,767.9423,249.1378,768.6356,248.4445,774.2498,253.08,765.56" style="stroke:#181818;stroke-width:1.0;"/><text fill="#000000" font-family="sans-serif" font-size="13" lengthAdjust="spacing" textLength="58" x="201" y="821.5184">read only</text></g><!--reverse link pub_sub_graphql_port to subscription_api--><g id="link_pub_sub_graphql_port_subscription_api"><path d="M440.0865,768.5048 C419.6865,782.6248 356.75,826.17 315.61,854.64 " fill="none" id="pub_sub_graphql_port-backto-subscription_api" style="stroke:#181818;stroke-width:1.0;"/><polygon fill="#181818" points="445.02,765.09,435.3432,766.9231,440.9087,767.9356,439.8963,773.5011,445.02,765.09" style="stroke:#181818;stroke-width:1.0;"/></g><!--reverse link index_graphql_port to subscription_api--><g id="link_index_graphql_port_subscription_api"><path d="M261.2425,771.8262 C264.3625,786.9462 272.64,827.03 278.4,854.92 " fill="none" id="index_graphql_port-backto-subscription_api" style="stroke:#181818;stroke-width:1.0;"/><polygon fill="#181818" points="260.03,765.95,257.9314,775.5727,261.0405,770.8468,265.7663,773.9559,260.03,765.95" style="stroke:#181818;stroke-width:1.0;"/><text fill="#000000" font-family="sans-serif" font-size="13" lengthAdjust="spacing" textLength="58" x="272" y="821.5184">read only</text></g><!--reverse link pub_sub_graphql_port to mutation_api--><g id="link_pub_sub_graphql_port_mutation_api"><path d="M461.7079,769.3569 C480.4679,784.0969 534.31,826.39 570.11,854.5 " fill="none" id="pub_sub_graphql_port-backto-mutation_api" style="stroke:#181818;stroke-width:1.0;"/><polygon fill="#181818" points="456.99,765.65,461.5956,774.3557,460.9216,768.7391,466.5382,768.0651,456.99,765.65" style="stroke:#181818;stroke-width:1.0;"/></g><!--reverse link node_api to events_source--><g id="link_node_api_events_source"><path d="M288.2123,142.1258 C297.8623,155.0358 321.14,186.13 339.01,210.03 " fill="none" id="node_api-backto-events_source" style="stroke:#181818;stroke-width:1.0;"/><polygon fill="#181818" points="284.62,137.32,286.8045,146.9235,287.6135,141.3248,293.2122,142.1339,284.62,137.32" style="stroke:#181818;stroke-width:1.0;"/></g><!--reverse link events_source to events_source_indexer_port--><g id="link_events_source_events_source_indexer_port"><path d="M356,262.98 C356,286.98 356,317.47 356,330.31 " fill="none" id="events_source-backto-events_source_indexer_port" style="stroke:#181818;stroke-width:1.0;"/><polygon fill="#181818" points="356,256.98,352,265.98,356,261.98,360,265.98,356,256.98" style="stroke:#181818;stroke-width:1.0;"/></g><!--link persistence_indexer_port to index--><g id="link_persistence_indexer_port_index"><path d="M251.13,546.44 C251.52,561.5 252.5545,601.262 253.2745,629.032 " fill="none" id="persistence_indexer_port-to-index" style="stroke:#181818;stroke-width:1.0;"/><polygon fill="#181818" points="253.43,635.03,257.1954,625.9293,253.3004,630.0317,249.1981,626.1367,253.43,635.03" style="stroke:#181818;stroke-width:1.0;"/><text fill="#000000" font-family="sans-serif" font-size="13" lengthAdjust="spacing" textLength="65" x="253" y="602.0384">read/write</text></g><!--link pub_sub_indexer_port to pub_sub--><g id="link_pub_sub_indexer_port_pub_sub"><path d="M459.87,546.44 C459.43,563.4 458.1342,613.322 457.4842,638.602 " fill="none" id="pub_sub_indexer_port-to-pub_sub" style="stroke:#181818;stroke-width:1.0;"/><polygon fill="#181818" points="457.33,644.6,461.56,635.7058,457.4585,639.6017,453.5627,635.5002,457.33,644.6" style="stroke:#181818;stroke-width:1.0;"/></g><!--reverse link index to index_graphql_port--><g id="link_index_index_graphql_port"><path d="M255.4113,687.3424 C256.6113,711.2124 258.13,741.53 258.77,754.31 " fill="none" id="index-backto-index_graphql_port" style="stroke:#181818;stroke-width:1.0;"/><polygon fill="#181818" points="255.11,681.35,251.5669,690.5395,255.361,686.3437,259.5568,690.1378,255.11,681.35" style="stroke:#181818;stroke-width:1.0;"/></g><!--reverse link pub_sub to pub_sub_graphql_port--><g id="link_pub_sub_pub_sub_graphql_port"><path d="M455.879,677.8291 C454.539,700.0591 452.19,739.22 451.29,754.09 " fill="none" id="pub_sub-backto-pub_sub_graphql_port" style="stroke:#181818;stroke-width:1.0;"/><polygon fill="#181818" points="456.24,671.84,451.7057,680.583,455.9392,676.8309,459.6912,681.0644,456.24,671.84" style="stroke:#181818;stroke-width:1.0;"/></g><!--link graphql_api to graphql_api_port--><g id="link_graphql_api_graphql_api_port"><path d="M396.4928,925.4821 C396.4005,925.5584 396.3082,925.6347 396.2158,925.711 C395.477,926.3213 394.7358,926.9301 393.9927,927.5369 C388.0475,932.3913 381.9775,937.1175 376,941.44 C344.04,964.56 307.341,983.9962 292.141,991.7762 " fill="none" id="graphql_api-to-graphql_api_port" style="stroke:#181818;stroke-width:1.0;"/><polygon fill="#181818" points="286.8,994.51,296.634,993.97,291.2509,992.2319,292.989,986.8487,286.8,994.51" style="stroke:#181818;stroke-width:1.0;"/></g><!--reverse link Node to node_api--><g id="link_Node_node_api"><path d="M281,58.49 C281,82.49 281,112.98 281,125.82 " fill="none" id="Node-backto-node_api" style="stroke:#181818;stroke-width:1.0;"/><polygon fill="#181818" points="281,52.49,277,61.49,281,57.49,285,61.49,281,52.49" style="stroke:#181818;stroke-width:1.0;"/></g><!--reverse link graphql_api_port to Wallet--><g id="link_graphql_api_port_Wallet"><path d="M270.9929,1008.2406 C256.3129,1021.1406 219.99,1053.09 192.82,1076.98 " fill="none" id="graphql_api_port-backto-Wallet" style="stroke:#181818;stroke-width:1.0;"/><polygon fill="#181818" points="275.5,1004.28,266.099,1007.2162,271.7441,1007.5805,271.3798,1013.2256,275.5,1004.28" style="stroke:#181818;stroke-width:1.0;"/></g><!--reverse link graphql_api_port to dApp--><g id="link_graphql_api_port_dApp"><path d="M281,1010.28 C281,1023.18 281,1053.09 281,1076.98 " fill="none" id="graphql_api_port-backto-dApp" style="stroke:#181818;stroke-width:1.0;"/><polygon fill="#181818" points="281,1004.28,277,1013.28,281,1009.28,285,1013.28,281,1004.28" style="stroke:#181818;stroke-width:1.0;"/></g><!--reverse link graphql_api_port to explorer--><g id="link_graphql_api_port_explorer"><path d="M291.6941,1006.9427 C309.0941,1019.1327 356.99,1052.71 391.79,1077.11 " fill="none" id="graphql_api_port-backto-explorer" style="stroke:#181818;stroke-width:1.0;"/><polygon fill="#181818" points="286.78,1003.5,291.856,1011.94,290.8751,1006.3689,296.4462,1005.388,286.78,1003.5" style="stroke:#181818;stroke-width:1.0;"/></g><!--SRC=[ZLLHYzGm47xlhnZwAiLt4U6KGm-yOuyzE52af6rmWzqacpJkhU9_DvcatQPfgY_RpSptJRwPJ39ST1JA1_jR5WN7nHtlw0jLq57PYykHyg64tmM056fWt8FXPdS75JpluHLyUdhQbK0qE7fD90jOOGOeFoeY3u-VL_7VdU_KEqhj28KbTcGW3T4KK8L3CVV7kKw66Wexq-nDunpIDBKsZNEruYW5jqgXlFrfFnhsmgYMuZOKBRL6IumUKtNfHL6-w3EHenkZ_7AMcddB4lxXG6nbvl3MMNBmPzBtr8gS4yxUDb6G4qg-o0fsrfocDb9zBKSwda8esiGBfTjYKAMP7YYVRoUlnfZg4vod35Nrxb_oKa9Mrw8ws-3egFBGd8PSabaTMuGLBPj5N5CArTS3wphAlrNLrcv_5bTXTlUMzotj-7ipa849Fg6FmH1kT0H-D5HT9kJ9hTPWjkTqgvYCukgP4KbJuuMdvzflc5yzoewQDD_J4HpnQHXuQoivoOOte2ZfGF3-4Xr2GacqRuHVOlz_bqNbyLZ7jnK1yOi6yJf596sMwo7iJpG4iQ_FYWrkX_MslDui5zKJtUwhvnQG2CYTrRn3NVHqGjXYuFnnKQPvumUNVrMB9GUXmUU1tOsKwp3qX37ulXVj3xXziKDGXJUQXiKwUVB-1G00]--></g></svg>