<?xml version="1.0" encoding="us-ascii" standalone="no"?><svg xmlns="http://www.w3.org/2000/svg" xmlns:xlink="http://www.w3.org/1999/xlink" contentStyleType="text/css" height="530px" preserveAspectRatio="none" style="width:902px;height:530px;background:#FFFFFF;" version="1.1" viewBox="0 0 902 530" width="902px" zoomAndPan="magnify"><defs/><g><g id="elem_leaf_1"><rect fill="#F1F1F1" height="44.9766" style="stroke:#181818;stroke-width:0.5;" width="84" x="7" y="478.9"/><text fill="#000000" font-family="sans-serif" font-size="14" lengthAdjust="spacing" textLength="41" x="28.5" y="494.4352">leaf_1</text><line style="stroke:#181818;stroke-width:0.5;" x1="8" x2="90" y1="499.3883" y2="499.3883"/><text fill="#000000" font-family="sans-serif" font-size="14" lengthAdjust="spacing" textLength="72" x="13" y="516.9234">height = 0</text></g><g id="elem_leaf_2"><rect fill="#F1F1F1" height="44.9766" style="stroke:#181818;stroke-width:0.5;" width="84" x="126" y="478.9"/><text fill="#000000" font-family="sans-serif" font-size="14" lengthAdjust="spacing" textLength="41" x="147.5" y="494.4352">leaf_2</text><line style="stroke:#181818;stroke-width:0.5;" x1="127" x2="209" y1="499.3883" y2="499.3883"/><text fill="#000000" font-family="sans-serif" font-size="14" lengthAdjust="spacing" textLength="72" x="132" y="516.9234">height = 0</text></g><g id="elem_leaf_3"><rect fill="#00FFFF" height="44.9766" style="stroke:#181818;stroke-width:0.5;" width="84" x="245" y="478.9"/><text fill="#000000" font-family="sans-serif" font-size="14" lengthAdjust="spacing" textLength="41" x="266.5" y="494.4352">leaf_3</text><line style="stroke:#181818;stroke-width:0.5;" x1="246" x2="328" y1="499.3883" y2="499.3883"/><text fill="#000000" font-family="sans-serif" font-size="14" lengthAdjust="spacing" textLength="72" x="251" y="516.9234">height = 0</text></g><g id="elem_leaf_4"><rect fill="#FFFF00" height="44.9766" style="stroke:#181818;stroke-width:0.5;" width="84" x="364" y="478.9"/><text fill="#000000" font-family="sans-serif" font-size="14" lengthAdjust="spacing" textLength="41" x="385.5" y="494.4352">leaf_4</text><line style="stroke:#181818;stroke-width:0.5;" x1="365" x2="447" y1="499.3883" y2="499.3883"/><text fill="#000000" font-family="sans-serif" font-size="14" lengthAdjust="spacing" textLength="72" x="370" y="516.9234">height = 0</text></g><g id="elem_leaf_5"><rect fill="#F1F1F1" height="44.9766" style="stroke:#181818;stroke-width:0.5;" width="84" x="483" y="478.9"/><text fill="#000000" font-family="sans-serif" font-size="14" lengthAdjust="spacing" textLength="41" x="504.5" y="494.4352">leaf_5</text><line style="stroke:#181818;stroke-width:0.5;" x1="484" x2="566" y1="499.3883" y2="499.3883"/><text fill="#000000" font-family="sans-serif" font-size="14" lengthAdjust="spacing" textLength="72" x="489" y="516.9234">height = 0</text></g><g id="elem_leaf_6"><rect fill="#F1F1F1" height="44.9766" style="stroke:#181818;stroke-width:0.5;" width="84" x="602" y="478.9"/><text fill="#000000" font-family="sans-serif" font-size="14" lengthAdjust="spacing" textLength="41" x="623.5" y="494.4352">leaf_6</text><line style="stroke:#181818;stroke-width:0.5;" x1="603" x2="685" y1="499.3883" y2="499.3883"/><text fill="#000000" font-family="sans-serif" font-size="14" lengthAdjust="spacing" textLength="72" x="608" y="516.9234">height = 0</text></g><g id="elem_leaf_7"><rect fill="#FFA500" height="44.9766" style="stroke:#181818;stroke-width:0.5;" width="84" x="721" y="478.9"/><text fill="#000000" font-family="sans-serif" font-size="14" lengthAdjust="spacing" textLength="41" x="742.5" y="494.4352">leaf_7</text><line style="stroke:#181818;stroke-width:0.5;" x1="722" x2="804" y1="499.3883" y2="499.3883"/><text fill="#000000" font-family="sans-serif" font-size="14" lengthAdjust="spacing" textLength="72" x="727" y="516.9234">height = 0</text></g><g id="elem_empty"><rect fill="#F1F1F1" height="36.4883" style="stroke:#181818;stroke-width:0.5;" width="56" x="840" y="483.15"/><text fill="#000000" font-family="sans-serif" font-size="14" lengthAdjust="spacing" textLength="42" x="847" y="498.6852">empty</text><line style="stroke:#181818;stroke-width:0.5;" x1="841" x2="895" y1="503.6383" y2="503.6383"/></g><g id="elem_node_1_2"><rect fill="#00FFFF" height="44.9766" style="stroke:#181818;stroke-width:0.5;" width="84" x="126" y="356.93"/><text fill="#000000" font-family="sans-serif" font-size="14" lengthAdjust="spacing" textLength="67" x="134.5" y="372.4652">node_1_2</text><line style="stroke:#181818;stroke-width:0.5;" x1="127" x2="209" y1="377.4183" y2="377.4183"/><text fill="#000000" font-family="sans-serif" font-size="14" lengthAdjust="spacing" textLength="72" x="132" y="394.9534">height = 1</text></g><g id="elem_node_3_4"><rect fill="#FFFF00" height="44.9766" style="stroke:#181818;stroke-width:0.5;" width="84" x="332" y="356.93"/><text fill="#000000" font-family="sans-serif" font-size="14" lengthAdjust="spacing" textLength="67" x="340.5" y="372.4652">node_3_4</text><line style="stroke:#181818;stroke-width:0.5;" x1="333" x2="415" y1="377.4183" y2="377.4183"/><text fill="#000000" font-family="sans-serif" font-size="14" lengthAdjust="spacing" textLength="72" x="338" y="394.9534">height = 1</text></g><g id="elem_node_5_6"><rect fill="#F1F1F1" height="44.9766" style="stroke:#181818;stroke-width:0.5;" width="84" x="516" y="356.93"/><text fill="#000000" font-family="sans-serif" font-size="14" lengthAdjust="spacing" textLength="67" x="524.5" y="372.4652">node_5_6</text><line style="stroke:#181818;stroke-width:0.5;" x1="517" x2="599" y1="377.4183" y2="377.4183"/><text fill="#000000" font-family="sans-serif" font-size="14" lengthAdjust="spacing" textLength="72" x="522" y="394.9534">height = 1</text></g><g id="elem_node_7_8"><rect fill="#FFA500" height="44.9766" style="stroke:#181818;stroke-width:0.5;" width="84" x="721" y="356.93"/><text fill="#000000" font-family="sans-serif" font-size="14" lengthAdjust="spacing" textLength="67" x="729.5" y="372.4652">node_7_8</text><line style="stroke:#181818;stroke-width:0.5;" x1="722" x2="804" y1="377.4183" y2="377.4183"/><text fill="#000000" font-family="sans-serif" font-size="14" lengthAdjust="spacing" textLength="72" x="727" y="394.9534">height = 1</text></g><g id="elem_node_1_2_3_4"><rect fill="#FFFF00" height="44.9766" style="stroke:#181818;stroke-width:0.5;" width="113" x="317.5" y="234.95"/><text fill="#000000" font-family="sans-serif" font-size="14" lengthAdjust="spacing" textLength="99" x="324.5" y="250.4852">node_1_2_3_4</text><line style="stroke:#181818;stroke-width:0.5;" x1="318.5" x2="429.5" y1="255.4383" y2="255.4383"/><text fill="#000000" font-family="sans-serif" font-size="14" lengthAdjust="spacing" textLength="72" x="323.5" y="272.9734">height = 2</text></g><g id="elem_node_5_6_7_8"><rect fill="#00FFFF" height="44.9766" style="stroke:#181818;stroke-width:0.5;" width="113" x="501.5" y="234.95"/><text fill="#000000" font-family="sans-serif" font-size="14" lengthAdjust="spacing" textLength="99" x="508.5" y="250.4852">node_5_6_7_8</text><line style="stroke:#181818;stroke-width:0.5;" x1="502.5" x2="613.5" y1="255.4383" y2="255.4383"/><text fill="#000000" font-family="sans-serif" font-size="14" lengthAdjust="spacing" textLength="72" x="507.5" y="272.9734">height = 2</text></g><g id="elem_node_1_2_3_4_5_6_7_8"><rect fill="#FFFF00" height="44.9766" style="stroke:#181818;stroke-width:0.5;" width="177" x="358.5" y="112.97"/><text fill="#000000" font-family="sans-serif" font-size="14" lengthAdjust="spacing" textLength="163" x="365.5" y="128.5052">node_1_2_3_4_5_6_7_8</text><line style="stroke:#181818;stroke-width:0.5;" x1="359.5" x2="534.5" y1="133.4583" y2="133.4583"/><text fill="#000000" font-family="sans-serif" font-size="14" lengthAdjust="spacing" textLength="72" x="364.5" y="150.9934">height = 3</text></g><g id="elem_root"><rect fill="#F1F1F1" height="44.9766" style="stroke:#181818;stroke-width:0.5;" width="101" x="396.5" y="7"/><text fill="#000000" font-family="sans-serif" font-size="14" lengthAdjust="spacing" textLength="29" x="432.5" y="22.5352">root</text><line style="stroke:#181818;stroke-width:0.5;" x1="397.5" x2="496.5" y1="27.4883" y2="27.4883"/><text fill="#000000" font-family="sans-serif" font-size="14" lengthAdjust="spacing" textLength="89" x="402.5" y="45.0234">first_free = 8</text></g><!--link root to node_1_2_3_4_5_6_7_8--><g id="link_root_node_1_2_3_4_5_6_7_8"><path codeLine="54" d="M447,52.28 C447,70.03 447,94.96 447,112.69 " fill="none" id="root-node_1_2_3_4_5_6_7_8" style="stroke:#181818;stroke-width:1.0;"/></g><!--reverse link node_1_2_3_4_5_6_7_8 to node_1_2_3_4--><g id="link_node_1_2_3_4_5_6_7_8_node_1_2_3_4"><path codeLine="56" d="M427.542,168.4412 C414.392,190.0512 400.57,212.77 387.37,234.47 " fill="none" id="node_1_2_3_4_5_6_7_8-backto-node_1_2_3_4" style="stroke:#181818;stroke-width:1.0;"/><polygon fill="none" points="433.78,158.19,427.2439,161.2363,427.542,168.4412,434.0781,165.3949,433.78,158.19" style="stroke:#181818;stroke-width:1.0;"/><text fill="#000000" font-family="sans-serif" font-size="13" lengthAdjust="spacing" textLength="21" x="416" y="201.5184">left</text></g><!--reverse link node_1_2_3_4_5_6_7_8 to node_5_6_7_8--><g id="link_node_1_2_3_4_5_6_7_8_node_5_6_7_8"><path codeLine="57" d="M475.2487,166.999 C495.2387,188.609 517.6,212.77 537.67,234.47 " fill="none" id="node_1_2_3_4_5_6_7_8-backto-node_5_6_7_8" style="stroke:#181818;stroke-width:1.0;"/><polygon fill="none" points="467.1,158.19,468.238,165.3107,475.2487,166.999,474.1107,159.8783,467.1,158.19" style="stroke:#181818;stroke-width:1.0;"/><text fill="#000000" font-family="sans-serif" font-size="13" lengthAdjust="spacing" textLength="30" x="511" y="201.5184">right</text></g><!--reverse link node_1_2_3_4 to node_1_2--><g id="link_node_1_2_3_4_node_1_2"><path codeLine="59" d="M326.3196,286.2078 C289.2196,307.8078 242.97,334.75 205.72,356.44 " fill="none" id="node_1_2_3_4-backto-node_1_2" style="stroke:#181818;stroke-width:1.0;"/><polygon fill="none" points="336.69,280.17,329.4922,279.7321,326.3196,286.2078,333.5174,286.6457,336.69,280.17" style="stroke:#181818;stroke-width:1.0;"/><text fill="#000000" font-family="sans-serif" font-size="13" lengthAdjust="spacing" textLength="21" x="285" y="323.4984">left</text></g><!--reverse link node_1_2_3_4 to node_3_4--><g id="link_node_1_2_3_4_node_3_4"><path codeLine="60" d="M374,292.17 C374,313.77 374,334.75 374,356.44 " fill="none" id="node_1_2_3_4-backto-node_3_4" style="stroke:#181818;stroke-width:1.0;"/><polygon fill="none" points="374,280.17,370,286.17,374,292.17,378,286.17,374,280.17" style="stroke:#181818;stroke-width:1.0;"/><text fill="#000000" font-family="sans-serif" font-size="13" lengthAdjust="spacing" textLength="30" x="375" y="323.4984">right</text></g><!--reverse link node_5_6_7_8 to node_5_6--><g id="link_node_5_6_7_8_node_5_6"><path codeLine="62" d="M558,292.17 C558,313.77 558,334.75 558,356.44 " fill="none" id="node_5_6_7_8-backto-node_5_6" style="stroke:#181818;stroke-width:1.0;"/><polygon fill="none" points="558,280.17,554,286.17,558,292.17,562,286.17,558,280.17" style="stroke:#181818;stroke-width:1.0;"/><text fill="#000000" font-family="sans-serif" font-size="13" lengthAdjust="spacing" textLength="21" x="559" y="323.4984">left</text></g><!--reverse link node_5_6_7_8 to node_7_8--><g id="link_node_5_6_7_8_node_7_8"><path codeLine="63" d="M605.4783,286.2285 C642.4083,307.8285 688.39,334.75 725.46,356.44 " fill="none" id="node_5_6_7_8-backto-node_7_8" style="stroke:#181818;stroke-width:1.0;"/><polygon fill="none" points="595.12,280.17,598.2797,286.652,605.4783,286.2285,602.3187,279.7465,595.12,280.17" style="stroke:#181818;stroke-width:1.0;"/><text fill="#000000" font-family="sans-serif" font-size="13" lengthAdjust="spacing" textLength="30" x="674" y="323.4984">right</text></g><!--reverse link node_1_2 to leaf_1--><g id="link_node_1_2_leaf_1"><path codeLine="65" d="M138.0003,410.6607 C116.5703,432.2707 92.31,456.73 70.79,478.42 " fill="none" id="node_1_2-backto-leaf_1" style="stroke:#181818;stroke-width:1.0;"/><polygon fill="none" points="146.45,402.14,139.3849,403.5838,138.0003,410.6607,145.0654,409.2169,146.45,402.14" style="stroke:#181818;stroke-width:1.0;"/><text fill="#000000" font-family="sans-serif" font-size="13" lengthAdjust="spacing" textLength="21" x="117" y="445.4684">left</text></g><!--reverse link node_1_2 to leaf_2--><g id="link_node_1_2_leaf_2"><path codeLine="66" d="M168,414.14 C168,435.75 168,456.73 168,478.42 " fill="none" id="node_1_2-backto-leaf_2" style="stroke:#181818;stroke-width:1.0;"/><polygon fill="none" points="168,402.14,164,408.14,168,414.14,172,408.14,168,402.14" style="stroke:#181818;stroke-width:1.0;"/><text fill="#000000" font-family="sans-serif" font-size="13" lengthAdjust="spacing" textLength="30" x="169" y="445.4684">right</text></g><!--reverse link node_3_4 to leaf_3--><g id="link_node_3_4_leaf_3"><path codeLine="68" d="M351.1985,411.8569 C335.5385,433.4669 318.66,456.73 302.93,478.42 " fill="none" id="node_3_4-backto-leaf_3" style="stroke:#181818;stroke-width:1.0;"/><polygon fill="none" points="358.24,402.14,351.4803,404.6513,351.1985,411.8569,357.9582,409.3456,358.24,402.14" style="stroke:#181818;stroke-width:1.0;"/><text fill="#000000" font-family="sans-serif" font-size="13" lengthAdjust="spacing" textLength="21" x="337" y="445.4684">left</text></g><!--reverse link node_3_4 to leaf_4--><g id="link_node_3_4_leaf_4"><path codeLine="69" d="M382.8856,413.7338 C388.6556,435.3438 394.35,456.73 400.14,478.42 " fill="none" id="node_3_4-backto-leaf_4" style="stroke:#181818;stroke-width:1.0;"/><polygon fill="none" points="379.79,402.14,377.4732,408.9688,382.8856,413.7338,385.2024,406.905,379.79,402.14" style="stroke:#181818;stroke-width:1.0;"/><text fill="#000000" font-family="sans-serif" font-size="13" lengthAdjust="spacing" textLength="30" x="393" y="445.4684">right</text></g><!--reverse link node_5_6 to leaf_5--><g id="link_node_5_6_leaf_5"><path codeLine="71" d="M548.8395,413.7108 C542.8995,435.3208 537.01,456.73 531.04,478.42 " fill="none" id="node_5_6-backto-leaf_5" style="stroke:#181818;stroke-width:1.0;"/><polygon fill="none" points="552.02,402.14,546.5728,406.8653,548.8395,413.7108,554.2867,408.9856,552.02,402.14" style="stroke:#181818;stroke-width:1.0;"/><text fill="#000000" font-family="sans-serif" font-size="13" lengthAdjust="spacing" textLength="21" x="545" y="445.4684">left</text></g><!--reverse link node_5_6 to leaf_6--><g id="link_node_5_6_leaf_6"><path codeLine="72" d="M580.5611,411.8932 C596.0511,433.5032 612.7,456.73 628.25,478.42 " fill="none" id="node_5_6-backto-leaf_6" style="stroke:#181818;stroke-width:1.0;"/><polygon fill="none" points="573.57,402.14,573.8145,409.347,580.5611,411.8932,580.3166,404.6862,573.57,402.14" style="stroke:#181818;stroke-width:1.0;"/><text fill="#000000" font-family="sans-serif" font-size="13" lengthAdjust="spacing" textLength="30" x="608" y="445.4684">right</text></g><!--reverse link node_7_8 to leaf_7--><g id="link_node_7_8_leaf_7"><path codeLine="74" d="M763,414.14 C763,435.75 763,456.73 763,478.42 " fill="none" id="node_7_8-backto-leaf_7" style="stroke:#181818;stroke-width:1.0;"/><polygon fill="none" points="763,402.14,759,408.14,763,414.14,767,408.14,763,402.14" style="stroke:#181818;stroke-width:1.0;"/><text fill="#000000" font-family="sans-serif" font-size="13" lengthAdjust="spacing" textLength="21" x="764" y="445.4684">left</text></g><!--reverse link node_7_8 to empty--><g id="link_node_7_8_empty"><path codeLine="75" d="M789.9137,411.1695 C810.1337,434.2695 833.8,461.32 852.54,482.73 " fill="none" id="node_7_8-backto-empty" style="stroke:#181818;stroke-width:1.0;"/><polygon fill="none" points="782.01,402.14,782.952,409.2893,789.9137,411.1695,788.9717,404.0202,782.01,402.14" style="stroke:#181818;stroke-width:1.0;"/><text fill="#000000" font-family="sans-serif" font-size="13" lengthAdjust="spacing" textLength="30" x="823" y="445.4684">right</text></g><!--SRC=[XPFD3e8m48JlVOfDE9C8Y10JduMWRlq9MgqrXXZVtGeqBMMfrtupixDfLcpFk5FGOCsh1DuCu8Ydmr711XRimuI3qp3E8AhlppeiMaBKOjE8LrYMX_4gZ0k8XAol1voLuUMcMaq_pBnSnHwhHEz8B95OOoVBvjRmXRdVr1SKLKbtJOXgytFJwTm-UhfBEXDiFTI0p7598LH7-Ka-LCKbebQKFqM7ufWCPemS9pmvhFKVSlL7R1xM87yDnzcZJ2hF2lg1RWOrQfGn4P0zEZmSbTV0ejJpcMh3ERc-4I8wMvZxRIrQUJwpnd0qhi-W_b06snS0]--></g></svg>