<?xml version="1.0" encoding="us-ascii" standalone="no"?><svg xmlns="http://www.w3.org/2000/svg" xmlns:xlink="http://www.w3.org/1999/xlink" contentStyleType="text/css" height="566px" preserveAspectRatio="none" style="width:880px;height:566px;background:#FFFFFF;" version="1.1" viewBox="0 0 880 566" width="880px" zoomAndPan="magnify"><defs/><g><g id="elem_leaf_3"><rect fill="#00FFFF" height="44.9766" style="stroke:#181818;stroke-width:0.5;" width="84" x="223.5" y="513.39"/><text fill="#000000" font-family="sans-serif" font-size="14" lengthAdjust="spacing" textLength="41" x="245" y="528.9252">leaf_3</text><line style="stroke:#181818;stroke-width:0.5;" x1="224.5" x2="306.5" y1="533.8783" y2="533.8783"/><text fill="#000000" font-family="sans-serif" font-size="14" lengthAdjust="spacing" textLength="72" x="229.5" y="551.4134">height = 0</text></g><g id="elem_leaf_4"><rect fill="#FFFF00" height="44.9766" style="stroke:#181818;stroke-width:0.5;" width="84" x="342.5" y="513.39"/><text fill="#000000" font-family="sans-serif" font-size="14" lengthAdjust="spacing" textLength="41" x="364" y="528.9252">leaf_4</text><line style="stroke:#181818;stroke-width:0.5;" x1="343.5" x2="425.5" y1="533.8783" y2="533.8783"/><text fill="#000000" font-family="sans-serif" font-size="14" lengthAdjust="spacing" textLength="72" x="348.5" y="551.4134">height = 0</text></g><g id="elem_leaf_7"><rect fill="#FFA500" height="44.9766" style="stroke:#181818;stroke-width:0.5;" width="84" x="699.5" y="513.39"/><text fill="#000000" font-family="sans-serif" font-size="14" lengthAdjust="spacing" textLength="41" x="721" y="528.9252">leaf_7</text><line style="stroke:#181818;stroke-width:0.5;" x1="700.5" x2="782.5" y1="533.8783" y2="533.8783"/><text fill="#000000" font-family="sans-serif" font-size="14" lengthAdjust="spacing" textLength="72" x="705.5" y="551.4134">height = 0</text></g><g id="elem_empty"><rect fill="#F1F1F1" height="36.4883" style="stroke:#181818;stroke-width:0.5;" width="56" x="818.5" y="517.64"/><text fill="#000000" font-family="sans-serif" font-size="14" lengthAdjust="spacing" textLength="42" x="825.5" y="533.1752">empty</text><line style="stroke:#181818;stroke-width:0.5;" x1="819.5" x2="873.5" y1="538.1283" y2="538.1283"/></g><g id="elem_node_1_2"><rect fill="#00FFFF" height="77.9531" style="stroke:#181818;stroke-width:0.5;" width="197" x="53" y="356.93"/><text fill="#000000" font-family="sans-serif" font-size="14" lengthAdjust="spacing" textLength="67" x="118" y="372.4652">node_1_2</text><line style="stroke:#181818;stroke-width:0.5;" x1="54" x2="249" y1="377.4183" y2="377.4183"/><text fill="#000000" font-family="sans-serif" font-size="14" lengthAdjust="spacing" textLength="72" x="59" y="394.9534">height = 1</text><text fill="#000000" font-family="sans-serif" font-size="14" lengthAdjust="spacing" textLength="185" x="59" y="411.4417">hash = hash(leaf_1, leaf_2)</text><text fill="#000000" font-family="sans-serif" font-size="14" lengthAdjust="spacing" textLength="112" x="59" y="427.93">collapsed = true</text></g><g id="elem_node_3_4"><rect fill="#FFFF00" height="44.9766" style="stroke:#181818;stroke-width:0.5;" width="84" x="313.5" y="373.42"/><text fill="#000000" font-family="sans-serif" font-size="14" lengthAdjust="spacing" textLength="67" x="322" y="388.9552">node_3_4</text><line style="stroke:#181818;stroke-width:0.5;" x1="314.5" x2="396.5" y1="393.9083" y2="393.9083"/><text fill="#000000" font-family="sans-serif" font-size="14" lengthAdjust="spacing" textLength="72" x="319.5" y="411.4434">height = 1</text></g><g id="elem_node_5_6"><rect fill="#F1F1F1" height="77.9531" style="stroke:#181818;stroke-width:0.5;" width="197" x="450" y="356.93"/><text fill="#000000" font-family="sans-serif" font-size="14" lengthAdjust="spacing" textLength="67" x="515" y="372.4652">node_5_6</text><line style="stroke:#181818;stroke-width:0.5;" x1="451" x2="646" y1="377.4183" y2="377.4183"/><text fill="#000000" font-family="sans-serif" font-size="14" lengthAdjust="spacing" textLength="72" x="456" y="394.9534">height = 1</text><text fill="#000000" font-family="sans-serif" font-size="14" lengthAdjust="spacing" textLength="185" x="456" y="411.4417">hash = hash(leaf_5, leaf_6)</text><text fill="#000000" font-family="sans-serif" font-size="14" lengthAdjust="spacing" textLength="112" x="456" y="427.93">collapsed = true</text></g><g id="elem_node_7_8"><rect fill="#FFA500" height="44.9766" style="stroke:#181818;stroke-width:0.5;" width="84" x="699.5" y="373.42"/><text fill="#000000" font-family="sans-serif" font-size="14" lengthAdjust="spacing" textLength="67" x="708" y="388.9552">node_7_8</text><line style="stroke:#181818;stroke-width:0.5;" x1="700.5" x2="782.5" y1="393.9083" y2="393.9083"/><text fill="#000000" font-family="sans-serif" font-size="14" lengthAdjust="spacing" textLength="72" x="705.5" y="411.4434">height = 1</text></g><g id="elem_node_1_2_3_4"><rect fill="#FFFF00" height="44.9766" style="stroke:#181818;stroke-width:0.5;" width="113" x="299" y="234.95"/><text fill="#000000" font-family="sans-serif" font-size="14" lengthAdjust="spacing" textLength="99" x="306" y="250.4852">node_1_2_3_4</text><line style="stroke:#181818;stroke-width:0.5;" x1="300" x2="411" y1="255.4383" y2="255.4383"/><text fill="#000000" font-family="sans-serif" font-size="14" lengthAdjust="spacing" textLength="72" x="305" y="272.9734">height = 2</text></g><g id="elem_node_5_6_7_8"><rect fill="#00FFFF" height="44.9766" style="stroke:#181818;stroke-width:0.5;" width="113" x="492" y="234.95"/><text fill="#000000" font-family="sans-serif" font-size="14" lengthAdjust="spacing" textLength="99" x="499" y="250.4852">node_5_6_7_8</text><line style="stroke:#181818;stroke-width:0.5;" x1="493" x2="604" y1="255.4383" y2="255.4383"/><text fill="#000000" font-family="sans-serif" font-size="14" lengthAdjust="spacing" textLength="72" x="498" y="272.9734">height = 2</text></g><g id="elem_node_1_2_3_4_5_6_7_8"><rect fill="#FFFF00" height="44.9766" style="stroke:#181818;stroke-width:0.5;" width="177" x="354" y="112.97"/><text fill="#000000" font-family="sans-serif" font-size="14" lengthAdjust="spacing" textLength="163" x="361" y="128.5052">node_1_2_3_4_5_6_7_8</text><line style="stroke:#181818;stroke-width:0.5;" x1="355" x2="530" y1="133.4583" y2="133.4583"/><text fill="#000000" font-family="sans-serif" font-size="14" lengthAdjust="spacing" textLength="72" x="360" y="150.9934">height = 3</text></g><g id="elem_root"><rect fill="#F1F1F1" height="44.9766" style="stroke:#181818;stroke-width:0.5;" width="101" x="392" y="7"/><text fill="#000000" font-family="sans-serif" font-size="14" lengthAdjust="spacing" textLength="29" x="428" y="22.5352">root</text><line style="stroke:#181818;stroke-width:0.5;" x1="393" x2="492" y1="27.4883" y2="27.4883"/><text fill="#000000" font-family="sans-serif" font-size="14" lengthAdjust="spacing" textLength="89" x="398" y="45.0234">first_free = 8</text></g><!--class leaf_1--><!--class leaf_2--><!--reverse link node_1_2_3_4_5_6_7_8 to node_1_2_3_4--><g id="link_node_1_2_3_4_5_6_7_8_node_1_2_3_4"><path codeLine="52" d="M419.6985,167.9069 C404.0385,189.5169 387.16,212.77 371.43,234.47 " fill="none" id="node_1_2_3_4_5_6_7_8-backto-node_1_2_3_4" style="stroke:#181818;stroke-width:1.0;"/><polygon fill="none" points="426.74,158.19,419.9803,160.7013,419.6985,167.9069,426.4582,165.3956,426.74,158.19" style="stroke:#181818;stroke-width:1.0;"/><text fill="#000000" font-family="sans-serif" font-size="13" lengthAdjust="spacing" textLength="21" x="405.5" y="201.5184">left</text></g><!--reverse link node_1_2_3_4_5_6_7_8 to node_5_6_7_8--><g id="link_node_1_2_3_4_5_6_7_8_node_5_6_7_8"><path codeLine="53" d="M469.6447,167.1834 C488.7347,188.7934 509.92,212.77 529.09,234.47 " fill="none" id="node_1_2_3_4_5_6_7_8-backto-node_5_6_7_8" style="stroke:#181818;stroke-width:1.0;"/><polygon fill="none" points="461.7,158.19,462.6745,165.3349,469.6447,167.1834,468.6702,160.0385,461.7,158.19" style="stroke:#181818;stroke-width:1.0;"/><text fill="#000000" font-family="sans-serif" font-size="13" lengthAdjust="spacing" textLength="30" x="503.5" y="201.5184">right</text></g><!--reverse link node_1_2_3_4 to node_1_2--><g id="link_node_1_2_3_4_node_1_2"><path codeLine="55" d="M312.7474,287.0344 C282.1174,307.5344 245.68,331.9 208.9,356.5 " fill="none" id="node_1_2_3_4-backto-node_1_2" style="stroke:#181818;stroke-width:1.0;"/><polygon fill="none" points="322.72,280.36,315.5089,280.373,312.7474,287.0344,319.9585,287.0214,322.72,280.36" style="stroke:#181818;stroke-width:1.0;"/><text fill="#000000" font-family="sans-serif" font-size="13" lengthAdjust="spacing" textLength="21" x="279.5" y="323.4984">left</text></g><!--reverse link node_1_2_3_4 to node_3_4--><g id="link_node_1_2_3_4_node_3_4"><path codeLine="56" d="M355.5,292.36 C355.5,317.83 355.5,347.59 355.5,373.03 " fill="none" id="node_1_2_3_4-backto-node_3_4" style="stroke:#181818;stroke-width:1.0;"/><polygon fill="none" points="355.5,280.36,351.5,286.36,355.5,292.36,359.5,286.36,355.5,280.36" style="stroke:#181818;stroke-width:1.0;"/><text fill="#000000" font-family="sans-serif" font-size="13" lengthAdjust="spacing" textLength="30" x="356.5" y="323.4984">right</text></g><!--reverse link node_5_6_7_8 to node_5_6--><g id="link_node_5_6_7_8_node_5_6"><path codeLine="58" d="M548.5,292.36 C548.5,312.86 548.5,331.9 548.5,356.5 " fill="none" id="node_5_6_7_8-backto-node_5_6" style="stroke:#181818;stroke-width:1.0;"/><polygon fill="none" points="548.5,280.36,544.5,286.36,548.5,292.36,552.5,286.36,548.5,280.36" style="stroke:#181818;stroke-width:1.0;"/><text fill="#000000" font-family="sans-serif" font-size="13" lengthAdjust="spacing" textLength="21" x="549.5" y="323.4984">left</text></g><!--reverse link node_5_6_7_8 to node_7_8--><g id="link_node_5_6_7_8_node_7_8"><path codeLine="59" d="M589.3071,287.2895 C625.3171,312.7595 674.59,347.59 710.57,373.03 " fill="none" id="node_5_6_7_8-backto-node_7_8" style="stroke:#181818;stroke-width:1.0;"/><polygon fill="none" points="579.51,280.36,582.0987,287.0904,589.3071,287.2895,586.7184,280.5591,579.51,280.36" style="stroke:#181818;stroke-width:1.0;"/><text fill="#000000" font-family="sans-serif" font-size="13" lengthAdjust="spacing" textLength="30" x="646.5" y="323.4984">right</text></g><!--reverse link node_1_2 to leaf_1--><!--reverse link node_1_2 to leaf_2--><!--reverse link node_3_4 to leaf_3--><g id="link_node_3_4_leaf_3"><path codeLine="64" d="M334.6836,428.8206 C317.8336,454.6506 296.52,487.33 279.69,513.12 " fill="none" id="node_3_4-backto-leaf_3" style="stroke:#181818;stroke-width:1.0;"/><polygon fill="none" points="341.24,418.77,334.6116,421.6098,334.6836,428.8206,341.312,425.9807,341.24,418.77" style="stroke:#181818;stroke-width:1.0;"/><text fill="#000000" font-family="sans-serif" font-size="13" lengthAdjust="spacing" textLength="21" x="311.5" y="478.4484">left</text></g><!--reverse link node_3_4 to leaf_4--><g id="link_node_3_4_leaf_4"><path codeLine="65" d="M362.5687,430.5133 C367.9987,456.3433 374.51,487.33 379.93,513.12 " fill="none" id="node_3_4-backto-leaf_4" style="stroke:#181818;stroke-width:1.0;"/><polygon fill="none" points="360.1,418.77,357.4199,425.4646,362.5687,430.5133,365.2488,423.8188,360.1,418.77" style="stroke:#181818;stroke-width:1.0;"/><text fill="#000000" font-family="sans-serif" font-size="13" lengthAdjust="spacing" textLength="30" x="374.5" y="478.4484">right</text></g><!--reverse link node_5_6 to leaf_5--><!--reverse link node_5_6 to leaf_6--><!--reverse link node_7_8 to leaf_7--><g id="link_node_7_8_leaf_7"><path codeLine="70" d="M741.5,430.77 C741.5,456.6 741.5,487.33 741.5,513.12 " fill="none" id="node_7_8-backto-leaf_7" style="stroke:#181818;stroke-width:1.0;"/><polygon fill="none" points="741.5,418.77,737.5,424.77,741.5,430.77,745.5,424.77,741.5,418.77" style="stroke:#181818;stroke-width:1.0;"/><text fill="#000000" font-family="sans-serif" font-size="13" lengthAdjust="spacing" textLength="21" x="742.5" y="478.4484">left</text></g><!--reverse link node_7_8 to empty--><g id="link_node_7_8_empty"><path codeLine="71" d="M765.4085,428.3182 C786.2285,455.6682 814.18,492.41 833.26,517.49 " fill="none" id="node_7_8-backto-empty" style="stroke:#181818;stroke-width:1.0;"/><polygon fill="none" points="758.14,418.77,758.5915,425.967,765.4085,428.3182,764.957,421.1213,758.14,418.77" style="stroke:#181818;stroke-width:1.0;"/><text fill="#000000" font-family="sans-serif" font-size="13" lengthAdjust="spacing" textLength="30" x="804.5" y="478.4484">right</text></g><!--link root to node_1_2_3_4_5_6_7_8--><g id="link_root_node_1_2_3_4_5_6_7_8"><path codeLine="73" d="M442.5,52.28 C442.5,70.03 442.5,94.96 442.5,112.69 " fill="none" id="root-node_1_2_3_4_5_6_7_8" style="stroke:#181818;stroke-width:1.0;"/></g><!--SRC=[ZLFBReCm4BpxAonnQQL6gaqXKQH-Y-M69L3HE3MEeYZAlzSyN1kpq9vOFBCpimjM7vzmCBG1MOgK9lBx8kcTK5f1VQmCVQUlv45KG7gZoGsQHbtNQTawdA_3MveeBKz7MAJ1rzdSBFeWxkIa2X1CS6m8rht8jh9bztZgJTZBOCQVBNfGJIFFBHIMOlG5l5ElcoxDpI9Y5e-6McUZTVuFwwtOuTjWoF3BGVayw20ztnPV4FOzc44QT6cbJ8-MjMwDA3M0PUmw1YgeDflf27kxdzByGNO7Uwgx35FjYIQcvmc3OQY1MKqqPWGqHmyF_rgSm4CywdFHnYiPzaqW9BC7ipYjX_AepuqnNhompq73PVjjwxzkzCNSHWYfwWB6eOEQ1tKMrFaF]--></g></svg>