<?xml version="1.0" encoding="us-ascii" standalone="no"?><svg xmlns="http://www.w3.org/2000/svg" xmlns:xlink="http://www.w3.org/1999/xlink" contentStyleType="text/css" height="626px" preserveAspectRatio="none" style="width:1021px;height:626px;background:#FFFFFF;" version="1.1" viewBox="0 0 1021 626" width="1021px" zoomAndPan="magnify"><defs/><g><!--entity blockchain_data_source--><g id="elem_blockchain_data_source"><ellipse cx="84.5" cy="587.94" fill="#F1F1F1" rx="8" ry="8" style="stroke:#181818;stroke-width:0.5;"/><text fill="#000000" font-family="sans-serif" font-size="14" lengthAdjust="spacing" textLength="157" x="6" y="618.4752">Blockchain data source</text></g><!--entity chain_indexer--><g id="elem_chain_indexer"><rect fill="#F1F1F1" height="46.4883" rx="2.5" ry="2.5" style="stroke:#181818;stroke-width:0.5;" width="137" x="16" y="435.45"/><rect fill="#F1F1F1" height="10" style="stroke:#181818;stroke-width:0.5;" width="15" x="133" y="440.45"/><rect fill="#F1F1F1" height="2" style="stroke:#181818;stroke-width:0.5;" width="4" x="131" y="442.45"/><rect fill="#F1F1F1" height="2" style="stroke:#181818;stroke-width:0.5;" width="4" x="131" y="446.45"/><text fill="#000000" font-family="sans-serif" font-size="14" lengthAdjust="spacing" textLength="97" x="31" y="468.9852">Chain indexer</text></g><!--entity zswap_indexer--><g id="elem_zswap_indexer"><rect fill="#F1F1F1" height="46.4883" rx="2.5" ry="2.5" style="stroke:#181818;stroke-width:0.5;" width="140" x="93.5" y="311.96"/><rect fill="#F1F1F1" height="10" style="stroke:#181818;stroke-width:0.5;" width="15" x="213.5" y="316.96"/><rect fill="#F1F1F1" height="2" style="stroke:#181818;stroke-width:0.5;" width="4" x="211.5" y="318.96"/><rect fill="#F1F1F1" height="2" style="stroke:#181818;stroke-width:0.5;" width="4" x="211.5" y="322.96"/><text fill="#000000" font-family="sans-serif" font-size="14" lengthAdjust="spacing" textLength="100" x="108.5" y="345.4952">Zswap indexer</text></g><!--entity merkle_tree--><g id="elem_merkle_tree"><rect fill="#F1F1F1" height="46.4883" rx="2.5" ry="2.5" style="stroke:#181818;stroke-width:0.5;" width="217" x="433" y="435.45"/><rect fill="#F1F1F1" height="10" style="stroke:#181818;stroke-width:0.5;" width="15" x="630" y="440.45"/><rect fill="#F1F1F1" height="2" style="stroke:#181818;stroke-width:0.5;" width="4" x="628" y="442.45"/><rect fill="#F1F1F1" height="2" style="stroke:#181818;stroke-width:0.5;" width="4" x="628" y="446.45"/><text fill="#000000" font-family="sans-serif" font-size="14" lengthAdjust="spacing" textLength="177" x="448" y="468.9852">Commitments Merkle tree</text></g><!--entity wallet_indexer--><g id="elem_wallet_indexer"><rect fill="#F1F1F1" height="46.4883" rx="2.5" ry="2.5" style="stroke:#181818;stroke-width:0.5;" width="138" x="853.5" y="311.96"/><rect fill="#F1F1F1" height="10" style="stroke:#181818;stroke-width:0.5;" width="15" x="971.5" y="316.96"/><rect fill="#F1F1F1" height="2" style="stroke:#181818;stroke-width:0.5;" width="4" x="969.5" y="318.96"/><rect fill="#F1F1F1" height="2" style="stroke:#181818;stroke-width:0.5;" width="4" x="969.5" y="322.96"/><text fill="#000000" font-family="sans-serif" font-size="14" lengthAdjust="spacing" textLength="98" x="868.5" y="345.4952">Wallet indexer</text></g><!--entity contract_api--><g id="elem_contract_api"><rect fill="#F1F1F1" height="46.4883" rx="2.5" ry="2.5" style="stroke:#181818;stroke-width:0.5;" width="125" x="342" y="235.48"/><rect fill="#F1F1F1" height="10" style="stroke:#181818;stroke-width:0.5;" width="15" x="447" y="240.48"/><rect fill="#F1F1F1" height="2" style="stroke:#181818;stroke-width:0.5;" width="4" x="445" y="242.48"/><rect fill="#F1F1F1" height="2" style="stroke:#181818;stroke-width:0.5;" width="4" x="445" y="246.48"/><text fill="#000000" font-family="sans-serif" font-size="14" lengthAdjust="spacing" textLength="85" x="357" y="269.0152">Contract API</text></g><!--entity wallet_api--><g id="elem_wallet_api"><rect fill="#F1F1F1" height="46.4883" rx="2.5" ry="2.5" style="stroke:#181818;stroke-width:0.5;" width="107" x="638" y="158.99"/><rect fill="#F1F1F1" height="10" style="stroke:#181818;stroke-width:0.5;" width="15" x="725" y="163.99"/><rect fill="#F1F1F1" height="2" style="stroke:#181818;stroke-width:0.5;" width="4" x="723" y="165.99"/><rect fill="#F1F1F1" height="2" style="stroke:#181818;stroke-width:0.5;" width="4" x="723" y="169.99"/><text fill="#000000" font-family="sans-serif" font-size="14" lengthAdjust="spacing" textLength="67" x="653" y="192.5252">Wallet API</text></g><!--entity client--><g id="elem_client"><ellipse cx="553.5" cy="14" fill="#F1F1F1" rx="8" ry="8" style="stroke:#181818;stroke-width:0.5;"/><path d="M553.5,22 L553.5,49 M540.5,30 L566.5,30 M553.5,49 L540.5,64 M553.5,49 L566.5,64 " fill="none" style="stroke:#181818;stroke-width:0.5;"/><text fill="#000000" font-family="sans-serif" font-size="14" lengthAdjust="spacing" textLength="40" x="533.5" y="79.0352">Client</text></g><!--link chain_indexer to blockchain_data_source--><g id="link_chain_indexer_blockchain_data_source"><path d="M84.5,482.15 C84.5,511.12 84.5,554.04 84.5,573.05 " fill="none" id="chain_indexer-to-blockchain_data_source" style="stroke:#181818;stroke-width:1.0;"/><polygon fill="#181818" points="84.5,579.05,88.5,570.05,84.5,574.05,80.5,570.05,84.5,579.05" style="stroke:#181818;stroke-width:1.0;"/><text fill="#000000" font-family="sans-serif" font-size="13" lengthAdjust="spacing" textLength="96" x="85.5" y="525.5084">pulls data from</text></g><!--link zswap_indexer to chain_indexer--><g id="link_zswap_indexer_chain_indexer"><path d="M111,358.71 C99.23,366.36 88.24,376.17 81.5,388.45 C73.74,402.59 73.7366,415.0199 76.6266,429.2599 " fill="none" id="zswap_indexer-to-chain_indexer" style="stroke:#181818;stroke-width:1.0;"/><polygon fill="#181818" points="77.82,435.14,79.95,425.5242,76.8255,430.2399,72.1099,427.1154,77.82,435.14" style="stroke:#181818;stroke-width:1.0;"/><text fill="#000000" font-family="sans-serif" font-size="13" lengthAdjust="spacing" textLength="116" x="82.5" y="402.0184">receives data from</text></g><!--link zswap_indexer to merkle_tree--><g id="link_zswap_indexer_merkle_tree"><path d="M182.05,358.88 C196.13,374.51 216.89,394.39 239.5,405.45 C299.48,434.8 367.2578,447.3529 426.8678,453.1129 " fill="none" id="zswap_indexer-to-merkle_tree" style="stroke:#181818;stroke-width:1.0;"/><polygon fill="#181818" points="432.84,453.69,424.2664,448.8429,427.8632,453.2091,423.497,456.8058,432.84,453.69" style="stroke:#181818;stroke-width:1.0;"/><text fill="#000000" font-family="sans-serif" font-size="13" lengthAdjust="spacing" textLength="125" x="240.5" y="402.0184">provides updates to</text></g><!--link contract_api to merkle_tree--><g id="link_contract_api_merkle_tree"><path d="M403.43,282.4 C403.44,303.44 406.08,334.97 419.5,358.45 C438.34,391.4 467.6004,414.6366 495.0704,431.9066 " fill="none" id="contract_api-to-merkle_tree" style="stroke:#181818;stroke-width:1.0;"/><polygon fill="#181818" points="500.15,435.1,494.6596,426.9235,495.917,432.4388,490.4017,433.6962,500.15,435.1" style="stroke:#181818;stroke-width:1.0;"/><text fill="#000000" font-family="sans-serif" font-size="13" lengthAdjust="spacing" textLength="227" x="420.5" y="340.2784">prepares collapsed zswap state with</text></g><!--link wallet_api to merkle_tree--><g id="link_wallet_api_merkle_tree"><path d="M690.83,205.85 C688.88,240.85 681.34,309.25 652.5,358.45 C633.94,390.12 606.7003,413.6996 581.7703,431.5296 " fill="none" id="wallet_api-to-merkle_tree" style="stroke:#181818;stroke-width:1.0;"/><polygon fill="#181818" points="576.89,435.02,586.5374,433.0379,580.9569,432.1113,581.8835,426.5309,576.89,435.02" style="stroke:#181818;stroke-width:1.0;"/><text fill="#000000" font-family="sans-serif" font-size="13" lengthAdjust="spacing" textLength="125" x="672.5" y="340.2784">serves updates with</text></g><!--link wallet_indexer to merkle_tree--><g id="link_wallet_indexer_merkle_tree"><path d="M857.61,358.81 C817.39,372.65 764.59,390.52 717.5,405.45 C685.75,415.52 656.3567,424.3888 625.8567,433.3488 " fill="none" id="wallet_indexer-to-merkle_tree" style="stroke:#181818;stroke-width:1.0;"/><polygon fill="#181818" points="620.1,435.04,629.8625,436.3411,624.8973,433.6307,627.6077,428.6654,620.1,435.04" style="stroke:#181818;stroke-width:1.0;"/><text fill="#000000" font-family="sans-serif" font-size="13" lengthAdjust="spacing" textLength="147" x="768.5" y="402.0184">computes updates with</text></g><!--link wallet_api to wallet_indexer--><g id="link_wallet_api_wallet_indexer"><path d="M726.08,205.83 C769.76,234.38 839.4274,279.9177 883.0374,308.4177 " fill="none" id="wallet_api-to-wallet_indexer" style="stroke:#181818;stroke-width:1.0;"/><polygon fill="#181818" points="888.06,311.7,882.7144,303.4281,883.8745,308.9647,878.3379,310.1249,888.06,311.7" style="stroke:#181818;stroke-width:1.0;"/><text fill="#000000" font-family="sans-serif" font-size="13" lengthAdjust="spacing" textLength="172" x="841.5" y="263.7884">serves updates prepared by</text></g><!--link client to wallet_api--><g id="link_client_wallet_api"><path d="M573.69,62.63 C588.56,75.96 609.12,94.77 626.5,111.99 C641.84,127.19 654.453,140.5395 667.063,154.2795 " fill="none" id="client-to-wallet_api" style="stroke:#181818;stroke-width:1.0;"/><polygon fill="#181818" points="671.12,158.7,667.9816,149.3646,667.7392,155.0162,662.0875,154.7739,671.12,158.7" style="stroke:#181818;stroke-width:1.0;"/><text fill="#000000" font-family="sans-serif" font-size="13" lengthAdjust="spacing" textLength="152" x="643.5" y="125.5584">queries wallet data from</text></g><!--link client to contract_api--><g id="link_client_contract_api"><path d="M533.23,52.73 C509.73,62.99 471.44,83.02 449.5,111.99 C421.28,149.24 411.3409,198.4484 407.4209,229.1084 " fill="none" id="client-to-contract_api" style="stroke:#181818;stroke-width:1.0;"/><polygon fill="#181818" points="406.66,235.06,411.7691,226.64,407.2941,230.1004,403.8337,225.6254,406.66,235.06" style="stroke:#181818;stroke-width:1.0;"/><text fill="#000000" font-family="sans-serif" font-size="13" lengthAdjust="spacing" textLength="167" x="450.5" y="125.5584">queries contract data from</text></g><!--SRC=[VP4zRiGW48LxJZ5olnTm4IcxLOf8wIAbiLWygqKBXWpOJdBwy6Dd8R5J6MRUzsRya8D7kd21q1oL4JTnvNA0ddiEpemai07kuFpJwcAhooqcZBPcmC53SqgS77hyG4fCbY-LKlhcPcuhwLUiR4bFHclfTJWxU4QwAGHFc7VIwTx5UucySgNGL_PpActx3vwuyF3uyfINNWeTjtB3TPKjZb4Kn8Q2av91c3tIaR4g03WS7dPYX1Rig9JBgL_8Q5O5aj3Qh0L2WNB2_w4YeZY4p2JxW8msGE7h3Il_TnD1ombZBafnwx3FRmNE1mUOfR-oUnOR1WvfAYQMmFwYCVVHxs3hd5ykVqOjg_Tm_cJvHKeikhJmFY99N9-pYB80geJko5eke6y0]--></g></svg>