<?xml version="1.0" encoding="UTF-8" standalone="no"?><svg xmlns="http://www.w3.org/2000/svg" xmlns:xlink="http://www.w3.org/1999/xlink" contentStyleType="text/css" height="719px" preserveAspectRatio="none" style="width:1288px;height:719px;background:#FFFFFF;" version="1.1" viewBox="0 0 1288 719" width="1288px" zoomAndPan="magnify"><defs/><g><rect fill="none" height="42.9766" id="_title" style="stroke:none;stroke-width:1.0;" width="308" x="483" y="5"/><text fill="#000000" font-family="sans-serif" font-size="14" font-weight="bold" lengthAdjust="spacing" textLength="298" x="488" y="23.5352">Interapplication Messaging - Component</text><text fill="#000000" font-family="sans-serif" font-size="14" font-weight="bold" lengthAdjust="spacing" textLength="5" x="634.5" y="40.0234"> </text><!--MD5=[648ecb7216d3bb78805c24be49c01426]
cluster appA--><g id="cluster_appA"><path d="M8.5,239.9766 L106.5,239.9766 A3.75,3.75 0 0 1 109,242.4766 L116,262.4648 L613.5,262.4648 A2.5,2.5 0 0 1 616,264.9648 L616,633.4766 A2.5,2.5 0 0 1 613.5,635.9766 L8.5,635.9766 A2.5,2.5 0 0 1 6,633.4766 L6,242.4766 A2.5,2.5 0 0 1 8.5,239.9766 " fill="none" style="stroke:#000000;stroke-width:1.5;"/><line style="stroke:#000000;stroke-width:1.5;" x1="6" x2="116" y1="262.4648" y2="262.4648"/><text fill="#000000" font-family="sans-serif" font-size="14" font-weight="bold" lengthAdjust="spacing" textLength="97" x="10" y="255.5117">Application A</text></g><!--MD5=[fd3d4f4b3d970373314801373920f55f]
cluster contractStoreA--><g id="cluster_contractStoreA"><path d="M306,418.9766 C306,408.9766 445,408.9766 445,408.9766 C445,408.9766 584,408.9766 584,418.9766 L584,593.9766 C584,603.9766 445,603.9766 445,603.9766 C445,603.9766 306,603.9766 306,593.9766 L306,418.9766 " fill="none" style="stroke:#181818;stroke-width:1.0;"/><path d="M306,418.9766 C306,428.9766 445,428.9766 445,428.9766 C445,428.9766 584,428.9766 584,418.9766 " fill="none" style="stroke:#181818;stroke-width:1.0;"/><text fill="#000000" font-family="sans-serif" font-size="14" font-weight="bold" lengthAdjust="spacing" textLength="103" x="393.5" y="444.5117">Contract Store</text></g><!--MD5=[78c1863e9e1e69e24d6184af79d0a8f0]
cluster contractA--><g id="cluster_contractA"><path d="M348.5,474.9766 L460.5,474.9766 A3.75,3.75 0 0 1 463,477.4766 L470,497.4648 L549.5,497.4648 A2.5,2.5 0 0 1 552,499.9648 L552,569.4766 A2.5,2.5 0 0 1 549.5,571.9766 L348.5,571.9766 A2.5,2.5 0 0 1 346,569.4766 L346,477.4766 A2.5,2.5 0 0 1 348.5,474.9766 " fill="none" style="stroke:#000000;stroke-width:1.5;"/><line style="stroke:#000000;stroke-width:1.5;" x1="346" x2="470" y1="497.4648" y2="497.4648"/><text fill="#000000" font-family="sans-serif" font-size="14" font-weight="bold" lengthAdjust="spacing" textLength="111" x="350" y="490.5117">Contract [0x01]</text></g><!--MD5=[5bc1258df3264b02ffb9268af7992b01]
cluster appB--><g id="cluster_appB"><path d="M856.5,122.9766 L953.5,122.9766 A3.75,3.75 0 0 1 956,125.4766 L963,145.4648 L1278.5,145.4648 A2.5,2.5 0 0 1 1281,147.9648 L1281,569.4766 A2.5,2.5 0 0 1 1278.5,571.9766 L856.5,571.9766 A2.5,2.5 0 0 1 854,569.4766 L854,125.4766 A2.5,2.5 0 0 1 856.5,122.9766 " fill="none" style="stroke:#000000;stroke-width:1.5;"/><line style="stroke:#000000;stroke-width:1.5;" x1="854" x2="963" y1="145.4648" y2="145.4648"/><text fill="#000000" font-family="sans-serif" font-size="14" font-weight="bold" lengthAdjust="spacing" textLength="96" x="858" y="138.5117">Application B</text></g><!--MD5=[c7b8fdc9799318328bfd39d0c490e2bb]
cluster contractStoreB--><g id="cluster_contractStoreB"><path d="M971,183.9766 C971,173.9766 1110,173.9766 1110,173.9766 C1110,173.9766 1249,173.9766 1249,183.9766 L1249,358.9766 C1249,368.9766 1110,368.9766 1110,368.9766 C1110,368.9766 971,368.9766 971,358.9766 L971,183.9766 " fill="none" style="stroke:#181818;stroke-width:1.0;"/><path d="M971,183.9766 C971,193.9766 1110,193.9766 1110,193.9766 C1110,193.9766 1249,193.9766 1249,183.9766 " fill="none" style="stroke:#181818;stroke-width:1.0;"/><text fill="#000000" font-family="sans-serif" font-size="14" font-weight="bold" lengthAdjust="spacing" textLength="103" x="1058.5" y="209.5117">Contract Store</text></g><!--MD5=[b13a846d89ebb3717a6fd5148918f2ac]
cluster contractB--><g id="cluster_contractB"><path d="M1013.5,239.9766 L1125.5,239.9766 A3.75,3.75 0 0 1 1128,242.4766 L1135,262.4648 L1214.5,262.4648 A2.5,2.5 0 0 1 1217,264.9648 L1217,334.4766 A2.5,2.5 0 0 1 1214.5,336.9766 L1013.5,336.9766 A2.5,2.5 0 0 1 1011,334.4766 L1011,242.4766 A2.5,2.5 0 0 1 1013.5,239.9766 " fill="none" style="stroke:#000000;stroke-width:1.5;"/><line style="stroke:#000000;stroke-width:1.5;" x1="1011" x2="1135" y1="262.4648" y2="262.4648"/><text fill="#000000" font-family="sans-serif" font-size="14" font-weight="bold" lengthAdjust="spacing" textLength="111" x="1015" y="255.5117">Contract [0x02]</text></g><!--MD5=[b45b2445fd008ab471e0f14ba1c75105]
cluster appMesh--><g id="cluster_appMesh"><path d="M642.5,474.9766 L768.5,474.9766 A3.75,3.75 0 0 1 771,477.4766 L778,497.4648 L827.5,497.4648 A2.5,2.5 0 0 1 830,499.9648 L830,710.4766 A2.5,2.5 0 0 1 827.5,712.9766 L642.5,712.9766 A2.5,2.5 0 0 1 640,710.4766 L640,477.4766 A2.5,2.5 0 0 1 642.5,474.9766 " fill="none" style="stroke:#000000;stroke-width:1.5;"/><line style="stroke:#000000;stroke-width:1.5;" x1="640" x2="778" y1="497.4648" y2="497.4648"/><text fill="#000000" font-family="sans-serif" font-size="14" font-weight="bold" lengthAdjust="spacing" textLength="125" x="644" y="490.5117">Application Mesh</text></g><!--MD5=[c1468d31058ad3b7e902f358cecf7c19]
entity proofServerA--><g id="elem_proofServerA"><rect fill="#F1F1F1" height="46.4883" rx="2.5" ry="2.5" style="stroke:#181818;stroke-width:0.5;" width="124" x="22" y="509.9766"/><rect fill="#F1F1F1" height="10" style="stroke:#181818;stroke-width:0.5;" width="15" x="126" y="514.9766"/><rect fill="#F1F1F1" height="2" style="stroke:#181818;stroke-width:0.5;" width="4" x="124" y="516.9766"/><rect fill="#F1F1F1" height="2" style="stroke:#181818;stroke-width:0.5;" width="4" x="124" y="520.9766"/><text fill="#000000" font-family="sans-serif" font-size="14" lengthAdjust="spacing" textLength="84" x="37" y="543.5117">Proof Server</text></g><!--MD5=[f59ca8c2fc3e22e255f68ec9cee1b618]
entity coreA--><g id="elem_coreA"><rect fill="#F1F1F1" height="46.4883" rx="2.5" ry="2.5" style="stroke:#181818;stroke-width:0.5;" width="73" x="277.5" y="274.9766"/><rect fill="#F1F1F1" height="10" style="stroke:#181818;stroke-width:0.5;" width="15" x="330.5" y="279.9766"/><rect fill="#F1F1F1" height="2" style="stroke:#181818;stroke-width:0.5;" width="4" x="328.5" y="281.9766"/><rect fill="#F1F1F1" height="2" style="stroke:#181818;stroke-width:0.5;" width="4" x="328.5" y="285.9766"/><text fill="#000000" font-family="sans-serif" font-size="14" lengthAdjust="spacing" textLength="33" x="292.5" y="308.5117">Core</text></g><!--MD5=[837223e8ec6074920bfa4721cfae1972]
entity runtimeA--><g id="elem_runtimeA"><rect fill="#F1F1F1" height="46.4883" rx="2.5" ry="2.5" style="stroke:#181818;stroke-width:0.5;" width="97" x="181.5" y="509.9766"/><rect fill="#F1F1F1" height="10" style="stroke:#181818;stroke-width:0.5;" width="15" x="258.5" y="514.9766"/><rect fill="#F1F1F1" height="2" style="stroke:#181818;stroke-width:0.5;" width="4" x="256.5" y="516.9766"/><rect fill="#F1F1F1" height="2" style="stroke:#181818;stroke-width:0.5;" width="4" x="256.5" y="520.9766"/><text fill="#000000" font-family="sans-serif" font-size="14" lengthAdjust="spacing" textLength="57" x="196.5" y="543.5117">Runtime</text></g><!--MD5=[074c5e9bf774a14b8988f77be42cb356]
entity transFunc1--><g id="elem_transFunc1"><rect fill="#F1F1F1" height="46.4883" rx="2.5" ry="2.5" style="stroke:#181818;stroke-width:0.5;" width="174" x="362" y="509.9766"/><rect fill="#F1F1F1" height="10" style="stroke:#181818;stroke-width:0.5;" width="15" x="516" y="514.9766"/><rect fill="#F1F1F1" height="2" style="stroke:#181818;stroke-width:0.5;" width="4" x="514" y="516.9766"/><rect fill="#F1F1F1" height="2" style="stroke:#181818;stroke-width:0.5;" width="4" x="514" y="520.9766"/><text fill="#000000" font-family="sans-serif" font-size="14" lengthAdjust="spacing" textLength="134" x="377" y="543.5117">Transition Function</text></g><!--MD5=[fc7562e7358489236e2354d0fcd88031]
entity proofServerB--><g id="elem_proofServerB"><rect fill="#F1F1F1" height="46.4883" rx="2.5" ry="2.5" style="stroke:#181818;stroke-width:0.5;" width="124" x="870" y="509.9766"/><rect fill="#F1F1F1" height="10" style="stroke:#181818;stroke-width:0.5;" width="15" x="974" y="514.9766"/><rect fill="#F1F1F1" height="2" style="stroke:#181818;stroke-width:0.5;" width="4" x="972" y="516.9766"/><rect fill="#F1F1F1" height="2" style="stroke:#181818;stroke-width:0.5;" width="4" x="972" y="520.9766"/><text fill="#000000" font-family="sans-serif" font-size="14" lengthAdjust="spacing" textLength="84" x="885" y="543.5117">Proof Server</text></g><!--MD5=[9c3e02881235553276fa7979d903634b]
entity coreB--><g id="elem_coreB"><rect fill="#F1F1F1" height="46.4883" rx="2.5" ry="2.5" style="stroke:#181818;stroke-width:0.5;" width="73" x="870.5" y="274.9766"/><rect fill="#F1F1F1" height="10" style="stroke:#181818;stroke-width:0.5;" width="15" x="923.5" y="279.9766"/><rect fill="#F1F1F1" height="2" style="stroke:#181818;stroke-width:0.5;" width="4" x="921.5" y="281.9766"/><rect fill="#F1F1F1" height="2" style="stroke:#181818;stroke-width:0.5;" width="4" x="921.5" y="285.9766"/><text fill="#000000" font-family="sans-serif" font-size="14" lengthAdjust="spacing" textLength="33" x="885.5" y="308.5117">Core</text></g><!--MD5=[fbe4ecb7881d5d2d62a8a19fd379e6f2]
entity runtimeB--><g id="elem_runtimeB"><rect fill="#F1F1F1" height="46.4883" rx="2.5" ry="2.5" style="stroke:#181818;stroke-width:0.5;" width="97" x="1029.5" y="509.9766"/><rect fill="#F1F1F1" height="10" style="stroke:#181818;stroke-width:0.5;" width="15" x="1106.5" y="514.9766"/><rect fill="#F1F1F1" height="2" style="stroke:#181818;stroke-width:0.5;" width="4" x="1104.5" y="516.9766"/><rect fill="#F1F1F1" height="2" style="stroke:#181818;stroke-width:0.5;" width="4" x="1104.5" y="520.9766"/><text fill="#000000" font-family="sans-serif" font-size="14" lengthAdjust="spacing" textLength="57" x="1044.5" y="543.5117">Runtime</text></g><!--MD5=[1373f38a88c7859eb7a4aa61f1183542]
entity transFunc2--><g id="elem_transFunc2"><rect fill="#F1F1F1" height="46.4883" rx="2.5" ry="2.5" style="stroke:#181818;stroke-width:0.5;" width="174" x="1027" y="274.9766"/><rect fill="#F1F1F1" height="10" style="stroke:#181818;stroke-width:0.5;" width="15" x="1181" y="279.9766"/><rect fill="#F1F1F1" height="2" style="stroke:#181818;stroke-width:0.5;" width="4" x="1179" y="281.9766"/><rect fill="#F1F1F1" height="2" style="stroke:#181818;stroke-width:0.5;" width="4" x="1179" y="285.9766"/><text fill="#000000" font-family="sans-serif" font-size="14" lengthAdjust="spacing" textLength="134" x="1042" y="308.5117">Transition Function</text></g><!--MD5=[5427960f0a0d6e728427509f19a12a87]
entity kernel--><g id="elem_kernel"><rect fill="#F1F1F1" height="46.4883" rx="2.5" ry="2.5" style="stroke:#181818;stroke-width:0.5;" width="84" x="693" y="509.9766"/><rect fill="#F1F1F1" height="10" style="stroke:#181818;stroke-width:0.5;" width="15" x="757" y="514.9766"/><rect fill="#F1F1F1" height="2" style="stroke:#181818;stroke-width:0.5;" width="4" x="755" y="516.9766"/><rect fill="#F1F1F1" height="2" style="stroke:#181818;stroke-width:0.5;" width="4" x="755" y="520.9766"/><text fill="#000000" font-family="sans-serif" font-size="14" lengthAdjust="spacing" textLength="44" x="708" y="543.5117">Kernel</text></g><!--MD5=[b076a381c45a8d2d98dfca8ea5500ba3]
entity appReg--><g id="elem_appReg"><path d="M656.5,661.9766 C656.5,651.9766 735,651.9766 735,651.9766 C735,651.9766 813.5,651.9766 813.5,661.9766 L813.5,687.4648 C813.5,697.4648 735,697.4648 735,697.4648 C735,697.4648 656.5,697.4648 656.5,687.4648 L656.5,661.9766 " fill="#F1F1F1" style="stroke:#181818;stroke-width:0.5;"/><path d="M656.5,661.9766 C656.5,671.9766 735,671.9766 735,671.9766 C735,671.9766 813.5,671.9766 813.5,661.9766 " fill="none" style="stroke:#181818;stroke-width:0.5;"/><text fill="#000000" font-family="sans-serif" font-size="14" lengthAdjust="spacing" textLength="137" x="666.5" y="689.5117">Application Registry</text></g><!--MD5=[1f1fefc997521685f31334865c0049c9]
entity authentication--><g id="elem_authentication"><rect fill="#F1F1F1" height="46.4883" rx="2.5" ry="2.5" style="stroke:#181818;stroke-width:0.5;" width="141" x="539.5" y="60.9766"/><rect fill="#F1F1F1" height="10" style="stroke:#181818;stroke-width:0.5;" width="15" x="660.5" y="65.9766"/><rect fill="#F1F1F1" height="2" style="stroke:#181818;stroke-width:0.5;" width="4" x="658.5" y="67.9766"/><rect fill="#F1F1F1" height="2" style="stroke:#181818;stroke-width:0.5;" width="4" x="658.5" y="71.9766"/><text fill="#000000" font-family="sans-serif" font-size="14" lengthAdjust="spacing" textLength="101" x="554.5" y="94.5117">Authentication</text></g><!--MD5=[4c8b68244c4c53aaa007eabd84727103]
entity authorization--><g id="elem_authorization"><rect fill="#F1F1F1" height="46.4883" rx="2.5" ry="2.5" style="stroke:#181818;stroke-width:0.5;" width="135" x="667.5" y="274.9766"/><rect fill="#F1F1F1" height="10" style="stroke:#181818;stroke-width:0.5;" width="15" x="782.5" y="279.9766"/><rect fill="#F1F1F1" height="2" style="stroke:#181818;stroke-width:0.5;" width="4" x="780.5" y="281.9766"/><rect fill="#F1F1F1" height="2" style="stroke:#181818;stroke-width:0.5;" width="4" x="780.5" y="285.9766"/><text fill="#000000" font-family="sans-serif" font-size="14" lengthAdjust="spacing" textLength="95" x="682.5" y="308.5117">Authorization</text></g><!--MD5=[ff536615f25cbc3a994d23756604f55f]
link coreA to proofServerA--><g id="link_coreA_proofServerA"><path d="M277.05,297.9766 C212.03,297.9766 84,297.9766 84,297.9766 C84,297.9766 84,503.0666 84,503.0666 " fill="none" id="coreA-to-proofServerA" style="stroke:#181818;stroke-width:1.0;stroke-dasharray:7.0,7.0;"/><polygon fill="#181818" points="84,508.0666,88,499.0666,84,503.0666,80,499.0666,84,508.0666" style="stroke:#181818;stroke-width:1.0;"/></g><!--MD5=[a542dddaa9c4380f6d9ad11fd561704f]
link coreA to contractStoreA--><g id="link_coreA_contractStoreA"><path d="M314,321.3666 C314,335.6466 314,355.2778 314,376.8652 C314,382.262 314,387.7811 314,393.3694 C314,396.1635 314,398.975 314,401.7971 C314,403.2082 314,404.6219 314,406.0375 C314,406.7452 314,407.4535 314,408.1621 " fill="none" id="coreA-to-contractStoreA" style="stroke:#181818;stroke-width:1.0;stroke-dasharray:7.0,7.0;"/><polygon fill="#181818" points="314,408.1621,318,399.1621,314,403.1621,310,399.1621,314,408.1621" style="stroke:#181818;stroke-width:1.0;"/></g><!--MD5=[2045ac4b8fbb3264a3c619f6a63971d1]
link coreA to runtimeA--><g id="link_coreA_runtimeA"><path d="M295.75,321.4166 C295.75,378.6766 295.75,520.9766 295.75,520.9766 C295.75,520.9766 285.33,520.9766 285.33,520.9766 " fill="none" id="coreA-to-runtimeA" style="stroke:#181818;stroke-width:1.0;stroke-dasharray:7.0,7.0;"/><polygon fill="#181818" points="280.33,520.9766,289.33,524.9766,285.33,520.9766,289.33,516.9766,280.33,520.9766" style="stroke:#181818;stroke-width:1.0;"/></g><!--MD5=[f124c9b8d538a9afaffadd3491f1152a]
link coreB to proofServerB--><g id="link_coreB_proofServerB"><path d="M907,321.3666 C907,321.3666 907,503.1666 907,503.1666 " fill="none" id="coreB-to-proofServerB" style="stroke:#181818;stroke-width:1.0;stroke-dasharray:7.0,7.0;"/><polygon fill="#181818" points="907,508.1666,911,499.1666,907,503.1666,903,499.1666,907,508.1666" style="stroke:#181818;stroke-width:1.0;"/></g><!--MD5=[3896804cde7c1e4a0dc6fdb363926aa7]
link coreB to contractStoreB--><g id="link_coreB_contractStoreB"><path d="M943.84,297.9766 C951.59,297.9766 959.29,297.9766 965.5,297.9766 C967.0525,297.9766 968.5119,297.9766 969.8556,297.9766 C970.1916,297.9766 970.5203,297.9766 970.8414,297.9766 C970.8815,297.9766 970.9216,297.9766 970.9615,297.9766 " fill="none" id="coreB-to-contractStoreB" style="stroke:#181818;stroke-width:1.0;stroke-dasharray:7.0,7.0;"/><polygon fill="#181818" points="970.9615,297.9766,961.9615,293.9766,965.9615,297.9766,961.9615,301.9766,970.9615,297.9766" style="stroke:#181818;stroke-width:1.0;"/></g><!--MD5=[c503a23abea880382939e7484b6d38d2]
link coreB to runtimeB--><g id="link_coreB_runtimeB"><path d="M943.78,309.9766 C973.53,309.9766 1010.5,309.9766 1010.5,309.9766 C1010.5,309.9766 1010.5,532.9766 1010.5,532.9766 C1010.5,532.9766 1022.79,532.9766 1022.79,532.9766 " fill="none" id="coreB-to-runtimeB" style="stroke:#181818;stroke-width:1.0;stroke-dasharray:7.0,7.0;"/><polygon fill="#181818" points="1027.79,532.9766,1018.79,528.9766,1022.79,532.9766,1018.79,536.9766,1027.79,532.9766" style="stroke:#181818;stroke-width:1.0;"/></g><!--MD5=[62a18afd926bca62a39da739565d2959]
reverse link authentication to coreA--><g id="link_authentication_coreA"><path d="M532.59,83.9766 C532.59,83.9766 314,83.9766 314,83.9766 C314,83.9766 314,219.2066 314,274.6666 " fill="none" id="authentication-backto-coreA" style="stroke:#181818;stroke-width:1.0;stroke-dasharray:7.0,7.0;"/><polygon fill="#181818" points="537.59,83.9766,528.59,79.9766,532.59,83.9766,528.59,87.9766,537.59,83.9766" style="stroke:#181818;stroke-width:1.0;"/></g><!--MD5=[9dbcbff84885396d0947d42d0347c5ab]
reverse link authentication to coreB--><g id="link_authentication_coreB"><path d="M687.28,83.9766 C687.28,83.9766 907,83.9766 907,83.9766 C907,83.9766 907,219.2066 907,274.6666 " fill="none" id="authentication-backto-coreB" style="stroke:#181818;stroke-width:1.0;stroke-dasharray:7.0,7.0;"/><polygon fill="#181818" points="682.28,83.9766,691.28,87.9766,687.28,83.9766,691.28,79.9766,682.28,83.9766" style="stroke:#181818;stroke-width:1.0;"/></g><!--MD5=[2479aae84b0a3189521b312aaaaee333]
link kernel to appReg--><g id="link_kernel_appReg"><path d="M735,556.3466 C735,556.3466 735,645.0366 735,645.0366 " fill="none" id="kernel-to-appReg" style="stroke:#181818;stroke-width:1.0;stroke-dasharray:7.0,7.0;"/><polygon fill="#181818" points="735,650.0366,739,641.0366,735,645.0366,731,641.0366,735,650.0366" style="stroke:#181818;stroke-width:1.0;"/></g><!--MD5=[d6f30ef598a0bd69dd16702493f3e699]
link coreA to kernel--><g id="link_coreA_kernel"><path d="M350.84,297.9766 C427.68,297.9766 598,297.9766 598,297.9766 C598,297.9766 598,532.9766 598,532.9766 C598,532.9766 686.26,532.9766 686.26,532.9766 " fill="none" id="coreA-to-kernel" style="stroke:#181818;stroke-width:1.0;stroke-dasharray:7.0,7.0;"/><polygon fill="#181818" points="691.26,532.9766,682.26,528.9766,686.26,532.9766,682.26,536.9766,691.26,532.9766" style="stroke:#181818;stroke-width:1.0;"/></g><!--MD5=[7b332c0b4db6c3c48361bd779838a187]
link coreB to kernel--><g id="link_coreB_kernel"><path d="M870.14,297.9766 C841.99,297.9766 808,297.9766 808,297.9766 C808,297.9766 808,532.9766 808,532.9766 C808,532.9766 783.98,532.9766 783.98,532.9766 " fill="none" id="coreB-to-kernel" style="stroke:#181818;stroke-width:1.0;stroke-dasharray:7.0,7.0;"/><polygon fill="#181818" points="778.98,532.9766,787.98,536.9766,783.98,532.9766,787.98,528.9766,778.98,532.9766" style="stroke:#181818;stroke-width:1.0;"/></g><!--MD5=[09d10e7a9a628e402df7ee3d306bdbd8]
reverse link authorization to kernel--><g id="link_authorization_kernel"><path d="M735,327.8866 C735,327.8866 735,509.6766 735,509.6766 " fill="none" id="authorization-backto-kernel" style="stroke:#181818;stroke-width:1.0;stroke-dasharray:7.0,7.0;"/><polygon fill="#181818" points="735,322.8866,731,331.8866,735,327.8866,739,331.8866,735,322.8866" style="stroke:#181818;stroke-width:1.0;"/></g><!--MD5=[28217d6e69dd81f6e14e87f638865550]
@startuml
skinparam componentStyle uml2
skinparam linetype ortho

title Interapplication Messaging - Component\n
[Authentication] as authentication

package "Application A" as appA {
  [Proof Server] as proofServerA
  [Core] as coreA
  [Runtime] as runtimeA
  database "Contract Store" as contractStoreA {
    package "Contract [0x01]" as contractA {
      [Transition Function] as transFunc1
    }
  }
  coreA ..> proofServerA
  coreA ..> contractStoreA
  coreA ..> runtimeA
}

package "Application B" as appB {
  [Proof Server] as proofServerB
  [Core] as coreB
  [Runtime] as runtimeB
  database "Contract Store" as contractStoreB {
    package "Contract [0x02]" as contractB {
      [Transition Function] as transFunc2
    }
  }
  coreB ..> proofServerB
  coreB .right.> contractStoreB
  coreB ..> runtimeB
}

coreA .up.> authentication
coreB .up.> authentication

package "Application Mesh" as appMesh {
  [Kernel] as kernel
  database "Application Registry" as appReg
  kernel ..> appReg
}

[Authorization] as authorization

coreA ..> kernel
coreB ..> kernel
kernel .up.> authorization

@enduml

PlantUML version 1.2022.7(Mon Aug 22 12:01:30 CDT 2022)
(GPL source distribution)
Java Runtime: Java(TM) SE Runtime Environment
JVM: Java HotSpot(TM) 64-Bit Server VM
Default Encoding: UTF-8
Language: en
Country: US
--></g></svg>