<?xml version="1.0" encoding="UTF-8" standalone="no"?><svg xmlns="http://www.w3.org/2000/svg" xmlns:xlink="http://www.w3.org/1999/xlink" contentStyleType="text/css" height="736px" preserveAspectRatio="none" style="width:1194px;height:736px;background:#FFFFFF;" version="1.1" viewBox="0 0 1194 736" width="1194px" zoomAndPan="magnify"><defs/><g><rect fill="none" height="42.9766" id="_title" style="stroke:none;stroke-width:1.0;" width="308" x="436" y="5"/><text fill="#000000" font-family="sans-serif" font-size="14" font-weight="bold" lengthAdjust="spacing" textLength="298" x="441" y="23.5352">Interapplication Messaging - Component</text><text fill="#000000" font-family="sans-serif" font-size="14" font-weight="bold" lengthAdjust="spacing" textLength="5" x="587.5" y="40.0234"> </text><!--MD5=[648ecb7216d3bb78805c24be49c01426]
cluster appA--><g id="cluster_appA"><path d="M8.5,239.9766 L106.5,239.9766 A3.75,3.75 0 0 1 109,242.4766 L116,262.4648 L577.5,262.4648 A2.5,2.5 0 0 1 580,264.9648 L580,633.4766 A2.5,2.5 0 0 1 577.5,635.9766 L8.5,635.9766 A2.5,2.5 0 0 1 6,633.4766 L6,242.4766 A2.5,2.5 0 0 1 8.5,239.9766 " fill="none" style="stroke:#000000;stroke-width:1.5;"/><line style="stroke:#000000;stroke-width:1.5;" x1="6" x2="116" y1="262.4648" y2="262.4648"/><text fill="#000000" font-family="sans-serif" font-size="14" font-weight="bold" lengthAdjust="spacing" textLength="97" x="10" y="255.5117">Application A</text></g><!--MD5=[fd3d4f4b3d970373314801373920f55f]
cluster contractStoreA--><g id="cluster_contractStoreA"><path d="M306,418.9766 C306,408.9766 427,408.9766 427,408.9766 C427,408.9766 548,408.9766 548,418.9766 L548,593.9766 C548,603.9766 427,603.9766 427,603.9766 C427,603.9766 306,603.9766 306,593.9766 L306,418.9766 " fill="none" style="stroke:#181818;stroke-width:1.0;"/><path d="M306,418.9766 C306,428.9766 427,428.9766 427,428.9766 C427,428.9766 548,428.9766 548,418.9766 " fill="none" style="stroke:#181818;stroke-width:1.0;"/><text fill="#000000" font-family="sans-serif" font-size="14" font-weight="bold" lengthAdjust="spacing" textLength="103" x="375.5" y="444.5117">Contract Store</text></g><!--MD5=[78c1863e9e1e69e24d6184af79d0a8f0]
cluster contractA--><g id="cluster_contractA"><path d="M348.5,474.9766 L460.5,474.9766 A3.75,3.75 0 0 1 463,477.4766 L470,497.4648 L513.5,497.4648 A2.5,2.5 0 0 1 516,499.9648 L516,569.4766 A2.5,2.5 0 0 1 513.5,571.9766 L348.5,571.9766 A2.5,2.5 0 0 1 346,569.4766 L346,477.4766 A2.5,2.5 0 0 1 348.5,474.9766 " fill="none" style="stroke:#000000;stroke-width:1.5;"/><line style="stroke:#000000;stroke-width:1.5;" x1="346" x2="470" y1="497.4648" y2="497.4648"/><text fill="#000000" font-family="sans-serif" font-size="14" font-weight="bold" lengthAdjust="spacing" textLength="111" x="350" y="490.5117">Contract [0x01]</text></g><!--MD5=[5bc1258df3264b02ffb9268af7992b01]
cluster appB--><g id="cluster_appB"><path d="M798.5,122.9766 L895.5,122.9766 A3.75,3.75 0 0 1 898,125.4766 L905,145.4648 L1184.5,145.4648 A2.5,2.5 0 0 1 1187,147.9648 L1187,569.4766 A2.5,2.5 0 0 1 1184.5,571.9766 L798.5,571.9766 A2.5,2.5 0 0 1 796,569.4766 L796,125.4766 A2.5,2.5 0 0 1 798.5,122.9766 " fill="none" style="stroke:#000000;stroke-width:1.5;"/><line style="stroke:#000000;stroke-width:1.5;" x1="796" x2="905" y1="145.4648" y2="145.4648"/><text fill="#000000" font-family="sans-serif" font-size="14" font-weight="bold" lengthAdjust="spacing" textLength="96" x="800" y="138.5117">Application B</text></g><!--MD5=[c7b8fdc9799318328bfd39d0c490e2bb]
cluster contractStoreB--><g id="cluster_contractStoreB"><path d="M913,183.9766 C913,173.9766 1034,173.9766 1034,173.9766 C1034,173.9766 1155,173.9766 1155,183.9766 L1155,358.9766 C1155,368.9766 1034,368.9766 1034,368.9766 C1034,368.9766 913,368.9766 913,358.9766 L913,183.9766 " fill="none" style="stroke:#181818;stroke-width:1.0;"/><path d="M913,183.9766 C913,193.9766 1034,193.9766 1034,193.9766 C1034,193.9766 1155,193.9766 1155,183.9766 " fill="none" style="stroke:#181818;stroke-width:1.0;"/><text fill="#000000" font-family="sans-serif" font-size="14" font-weight="bold" lengthAdjust="spacing" textLength="103" x="982.5" y="209.5117">Contract Store</text></g><!--MD5=[b13a846d89ebb3717a6fd5148918f2ac]
cluster contractB--><g id="cluster_contractB"><path d="M955.5,239.9766 L1067.5,239.9766 A3.75,3.75 0 0 1 1070,242.4766 L1077,262.4648 L1120.5,262.4648 A2.5,2.5 0 0 1 1123,264.9648 L1123,334.4766 A2.5,2.5 0 0 1 1120.5,336.9766 L955.5,336.9766 A2.5,2.5 0 0 1 953,334.4766 L953,242.4766 A2.5,2.5 0 0 1 955.5,239.9766 " fill="none" style="stroke:#000000;stroke-width:1.5;"/><line style="stroke:#000000;stroke-width:1.5;" x1="953" x2="1077" y1="262.4648" y2="262.4648"/><text fill="#000000" font-family="sans-serif" font-size="14" font-weight="bold" lengthAdjust="spacing" textLength="111" x="957" y="255.5117">Contract [0x02]</text></g><!--MD5=[b45b2445fd008ab471e0f14ba1c75105]
cluster appMesh--><g id="cluster_appMesh"><path d="M606.5,239.9766 L732.5,239.9766 A3.75,3.75 0 0 1 735,242.4766 L742,262.4648 L769.5,262.4648 A2.5,2.5 0 0 1 772,264.9648 L772,727.4766 A2.5,2.5 0 0 1 769.5,729.9766 L606.5,729.9766 A2.5,2.5 0 0 1 604,727.4766 L604,242.4766 A2.5,2.5 0 0 1 606.5,239.9766 " fill="none" style="stroke:#000000;stroke-width:1.5;"/><line style="stroke:#000000;stroke-width:1.5;" x1="604" x2="742" y1="262.4648" y2="262.4648"/><text fill="#000000" font-family="sans-serif" font-size="14" font-weight="bold" lengthAdjust="spacing" textLength="125" x="608" y="255.5117">Application Mesh</text></g><!--MD5=[c1468d31058ad3b7e902f358cecf7c19]
entity proofServerA--><g id="elem_proofServerA"><rect fill="#F1F1F1" height="46.4883" rx="2.5" ry="2.5" style="stroke:#181818;stroke-width:0.5;" width="124" x="22" y="509.9766"/><rect fill="#F1F1F1" height="10" style="stroke:#181818;stroke-width:0.5;" width="15" x="126" y="514.9766"/><rect fill="#F1F1F1" height="2" style="stroke:#181818;stroke-width:0.5;" width="4" x="124" y="516.9766"/><rect fill="#F1F1F1" height="2" style="stroke:#181818;stroke-width:0.5;" width="4" x="124" y="520.9766"/><text fill="#000000" font-family="sans-serif" font-size="14" lengthAdjust="spacing" textLength="84" x="37" y="543.5117">Proof Server</text></g><!--MD5=[f59ca8c2fc3e22e255f68ec9cee1b618]
entity coreA--><g id="elem_coreA"><rect fill="#F1F1F1" height="46.4883" rx="2.5" ry="2.5" style="stroke:#181818;stroke-width:0.5;" width="73" x="277.5" y="274.9766"/><rect fill="#F1F1F1" height="10" style="stroke:#181818;stroke-width:0.5;" width="15" x="330.5" y="279.9766"/><rect fill="#F1F1F1" height="2" style="stroke:#181818;stroke-width:0.5;" width="4" x="328.5" y="281.9766"/><rect fill="#F1F1F1" height="2" style="stroke:#181818;stroke-width:0.5;" width="4" x="328.5" y="285.9766"/><text fill="#000000" font-family="sans-serif" font-size="14" lengthAdjust="spacing" textLength="33" x="292.5" y="308.5117">Core</text></g><!--MD5=[837223e8ec6074920bfa4721cfae1972]
entity runtimeA--><g id="elem_runtimeA"><rect fill="#F1F1F1" height="46.4883" rx="2.5" ry="2.5" style="stroke:#181818;stroke-width:0.5;" width="97" x="181.5" y="509.9766"/><rect fill="#F1F1F1" height="10" style="stroke:#181818;stroke-width:0.5;" width="15" x="258.5" y="514.9766"/><rect fill="#F1F1F1" height="2" style="stroke:#181818;stroke-width:0.5;" width="4" x="256.5" y="516.9766"/><rect fill="#F1F1F1" height="2" style="stroke:#181818;stroke-width:0.5;" width="4" x="256.5" y="520.9766"/><text fill="#000000" font-family="sans-serif" font-size="14" lengthAdjust="spacing" textLength="57" x="196.5" y="543.5117">Runtime</text></g><!--MD5=[074c5e9bf774a14b8988f77be42cb356]
entity transFunc1--><g id="elem_transFunc1"><rect fill="#F1F1F1" height="46.4883" rx="2.5" ry="2.5" style="stroke:#181818;stroke-width:0.5;" width="137" x="362.5" y="509.9766"/><rect fill="#F1F1F1" height="10" style="stroke:#181818;stroke-width:0.5;" width="15" x="479.5" y="514.9766"/><rect fill="#F1F1F1" height="2" style="stroke:#181818;stroke-width:0.5;" width="4" x="477.5" y="516.9766"/><rect fill="#F1F1F1" height="2" style="stroke:#181818;stroke-width:0.5;" width="4" x="477.5" y="520.9766"/><text fill="#000000" font-family="sans-serif" font-size="14" lengthAdjust="spacing" textLength="97" x="377.5" y="543.5117">Function [foo]</text></g><!--MD5=[fc7562e7358489236e2354d0fcd88031]
entity proofServerB--><g id="elem_proofServerB"><rect fill="#F1F1F1" height="46.4883" rx="2.5" ry="2.5" style="stroke:#181818;stroke-width:0.5;" width="124" x="812" y="509.9766"/><rect fill="#F1F1F1" height="10" style="stroke:#181818;stroke-width:0.5;" width="15" x="916" y="514.9766"/><rect fill="#F1F1F1" height="2" style="stroke:#181818;stroke-width:0.5;" width="4" x="914" y="516.9766"/><rect fill="#F1F1F1" height="2" style="stroke:#181818;stroke-width:0.5;" width="4" x="914" y="520.9766"/><text fill="#000000" font-family="sans-serif" font-size="14" lengthAdjust="spacing" textLength="84" x="827" y="543.5117">Proof Server</text></g><!--MD5=[9c3e02881235553276fa7979d903634b]
entity coreB--><g id="elem_coreB"><rect fill="#F1F1F1" height="46.4883" rx="2.5" ry="2.5" style="stroke:#181818;stroke-width:0.5;" width="73" x="812.5" y="274.9766"/><rect fill="#F1F1F1" height="10" style="stroke:#181818;stroke-width:0.5;" width="15" x="865.5" y="279.9766"/><rect fill="#F1F1F1" height="2" style="stroke:#181818;stroke-width:0.5;" width="4" x="863.5" y="281.9766"/><rect fill="#F1F1F1" height="2" style="stroke:#181818;stroke-width:0.5;" width="4" x="863.5" y="285.9766"/><text fill="#000000" font-family="sans-serif" font-size="14" lengthAdjust="spacing" textLength="33" x="827.5" y="308.5117">Core</text></g><!--MD5=[fbe4ecb7881d5d2d62a8a19fd379e6f2]
entity runtimeB--><g id="elem_runtimeB"><rect fill="#F1F1F1" height="46.4883" rx="2.5" ry="2.5" style="stroke:#181818;stroke-width:0.5;" width="97" x="971.5" y="509.9766"/><rect fill="#F1F1F1" height="10" style="stroke:#181818;stroke-width:0.5;" width="15" x="1048.5" y="514.9766"/><rect fill="#F1F1F1" height="2" style="stroke:#181818;stroke-width:0.5;" width="4" x="1046.5" y="516.9766"/><rect fill="#F1F1F1" height="2" style="stroke:#181818;stroke-width:0.5;" width="4" x="1046.5" y="520.9766"/><text fill="#000000" font-family="sans-serif" font-size="14" lengthAdjust="spacing" textLength="57" x="986.5" y="543.5117">Runtime</text></g><!--MD5=[1373f38a88c7859eb7a4aa61f1183542]
entity transFunc2--><g id="elem_transFunc2"><rect fill="#F1F1F1" height="46.4883" rx="2.5" ry="2.5" style="stroke:#181818;stroke-width:0.5;" width="137" x="969.5" y="274.9766"/><rect fill="#F1F1F1" height="10" style="stroke:#181818;stroke-width:0.5;" width="15" x="1086.5" y="279.9766"/><rect fill="#F1F1F1" height="2" style="stroke:#181818;stroke-width:0.5;" width="4" x="1084.5" y="281.9766"/><rect fill="#F1F1F1" height="2" style="stroke:#181818;stroke-width:0.5;" width="4" x="1084.5" y="285.9766"/><text fill="#000000" font-family="sans-serif" font-size="14" lengthAdjust="spacing" textLength="97" x="984.5" y="308.5117">Function [bar]</text></g><!--MD5=[4c8b68244c4c53aaa007eabd84727103]
entity authorization--><g id="elem_authorization"><rect fill="#F1F1F1" height="46.4883" rx="2.5" ry="2.5" style="stroke:#181818;stroke-width:0.5;" width="135" x="620.5" y="274.9766"/><rect fill="#F1F1F1" height="10" style="stroke:#181818;stroke-width:0.5;" width="15" x="735.5" y="279.9766"/><rect fill="#F1F1F1" height="2" style="stroke:#181818;stroke-width:0.5;" width="4" x="733.5" y="281.9766"/><rect fill="#F1F1F1" height="2" style="stroke:#181818;stroke-width:0.5;" width="4" x="733.5" y="285.9766"/><text fill="#000000" font-family="sans-serif" font-size="14" lengthAdjust="spacing" textLength="95" x="635.5" y="308.5117">Authorization</text></g><!--MD5=[5427960f0a0d6e728427509f19a12a87]
entity kernel--><g id="elem_kernel"><rect fill="#F1F1F1" height="46.4883" rx="2.5" ry="2.5" style="stroke:#181818;stroke-width:0.5;" width="84" x="646" y="509.9766"/><rect fill="#F1F1F1" height="10" style="stroke:#181818;stroke-width:0.5;" width="15" x="710" y="514.9766"/><rect fill="#F1F1F1" height="2" style="stroke:#181818;stroke-width:0.5;" width="4" x="708" y="516.9766"/><rect fill="#F1F1F1" height="2" style="stroke:#181818;stroke-width:0.5;" width="4" x="708" y="520.9766"/><text fill="#000000" font-family="sans-serif" font-size="14" lengthAdjust="spacing" textLength="44" x="661" y="543.5117">Kernel</text></g><!--MD5=[b076a381c45a8d2d98dfca8ea5500ba3]
entity appReg--><g id="elem_appReg"><path d="M639,661.9766 C639,651.9766 688,651.9766 688,651.9766 C688,651.9766 737,651.9766 737,661.9766 L737,703.9531 C737,713.9531 688,713.9531 688,713.9531 C688,713.9531 639,713.9531 639,703.9531 L639,661.9766 " fill="#F1F1F1" style="stroke:#181818;stroke-width:0.5;"/><path d="M639,661.9766 C639,671.9766 688,671.9766 688,671.9766 C688,671.9766 737,671.9766 737,661.9766 " fill="none" style="stroke:#181818;stroke-width:0.5;"/><text fill="#000000" font-family="sans-serif" font-size="14" lengthAdjust="spacing" textLength="78" x="649" y="689.5117">Application</text><text fill="#000000" font-family="sans-serif" font-size="14" lengthAdjust="spacing" textLength="55" x="661" y="706">Registry</text></g><!--MD5=[1f1fefc997521685f31334865c0049c9]
entity authentication--><g id="elem_authentication"><rect fill="#F1F1F1" height="46.4883" rx="2.5" ry="2.5" style="stroke:#181818;stroke-width:0.5;" width="141" x="510.5" y="60.9766"/><rect fill="#F1F1F1" height="10" style="stroke:#181818;stroke-width:0.5;" width="15" x="631.5" y="65.9766"/><rect fill="#F1F1F1" height="2" style="stroke:#181818;stroke-width:0.5;" width="4" x="629.5" y="67.9766"/><rect fill="#F1F1F1" height="2" style="stroke:#181818;stroke-width:0.5;" width="4" x="629.5" y="71.9766"/><text fill="#000000" font-family="sans-serif" font-size="14" lengthAdjust="spacing" textLength="101" x="525.5" y="94.5117">Authentication</text></g><!--MD5=[ff536615f25cbc3a994d23756604f55f]
link coreA to proofServerA--><g id="link_coreA_proofServerA"><path d="M277.05,297.9766 C212.03,297.9766 84,297.9766 84,297.9766 C84,297.9766 84,503.0666 84,503.0666 " fill="none" id="coreA-to-proofServerA" style="stroke:#181818;stroke-width:1.0;stroke-dasharray:7.0,7.0;"/><polygon fill="#181818" points="84,508.0666,88,499.0666,84,503.0666,80,499.0666,84,508.0666" style="stroke:#181818;stroke-width:1.0;"/></g><!--MD5=[a542dddaa9c4380f6d9ad11fd561704f]
link coreA to contractStoreA--><g id="link_coreA_contractStoreA"><path d="M314,321.3666 C314,335.6466 314,355.2778 314,376.8652 C314,382.262 314,387.7811 314,393.3694 C314,396.1635 314,398.975 314,401.7971 C314,403.2082 314,404.6219 314,406.0375 C314,406.7452 314,407.4535 314,408.1621 " fill="none" id="coreA-to-contractStoreA" style="stroke:#181818;stroke-width:1.0;stroke-dasharray:7.0,7.0;"/><polygon fill="#181818" points="314,408.1621,318,399.1621,314,403.1621,310,399.1621,314,408.1621" style="stroke:#181818;stroke-width:1.0;"/></g><!--MD5=[2045ac4b8fbb3264a3c619f6a63971d1]
link coreA to runtimeA--><g id="link_coreA_runtimeA"><path d="M295.75,321.4166 C295.75,378.6766 295.75,520.9766 295.75,520.9766 C295.75,520.9766 285.33,520.9766 285.33,520.9766 " fill="none" id="coreA-to-runtimeA" style="stroke:#181818;stroke-width:1.0;stroke-dasharray:7.0,7.0;"/><polygon fill="#181818" points="280.33,520.9766,289.33,524.9766,285.33,520.9766,289.33,516.9766,280.33,520.9766" style="stroke:#181818;stroke-width:1.0;"/></g><!--MD5=[f124c9b8d538a9afaffadd3491f1152a]
link coreB to proofServerB--><g id="link_coreB_proofServerB"><path d="M849,321.3666 C849,321.3666 849,503.1666 849,503.1666 " fill="none" id="coreB-to-proofServerB" style="stroke:#181818;stroke-width:1.0;stroke-dasharray:7.0,7.0;"/><polygon fill="#181818" points="849,508.1666,853,499.1666,849,503.1666,845,499.1666,849,508.1666" style="stroke:#181818;stroke-width:1.0;"/></g><!--MD5=[3896804cde7c1e4a0dc6fdb363926aa7]
link coreB to contractStoreB--><g id="link_coreB_contractStoreB"><path d="M885.84,297.9766 C893.59,297.9766 901.29,297.9766 907.5,297.9766 C909.0525,297.9766 910.5119,297.9766 911.8556,297.9766 C912.1916,297.9766 912.5203,297.9766 912.8414,297.9766 C912.8815,297.9766 912.9216,297.9766 912.9615,297.9766 " fill="none" id="coreB-to-contractStoreB" style="stroke:#181818;stroke-width:1.0;stroke-dasharray:7.0,7.0;"/><polygon fill="#181818" points="912.9615,297.9766,903.9615,293.9766,907.9615,297.9766,903.9615,301.9766,912.9615,297.9766" style="stroke:#181818;stroke-width:1.0;"/></g><!--MD5=[c503a23abea880382939e7484b6d38d2]
link coreB to runtimeB--><g id="link_coreB_runtimeB"><path d="M885.87,309.9766 C915.69,309.9766 952.75,309.9766 952.75,309.9766 C952.75,309.9766 952.75,532.9766 952.75,532.9766 C952.75,532.9766 964.61,532.9766 964.61,532.9766 " fill="none" id="coreB-to-runtimeB" style="stroke:#181818;stroke-width:1.0;stroke-dasharray:7.0,7.0;"/><polygon fill="#181818" points="969.61,532.9766,960.61,528.9766,964.61,532.9766,960.61,536.9766,969.61,532.9766" style="stroke:#181818;stroke-width:1.0;"/></g><!--MD5=[62a18afd926bca62a39da739565d2959]
reverse link authentication to coreA--><g id="link_authentication_coreA"><path d="M503.64,83.9766 C503.64,83.9766 314,83.9766 314,83.9766 C314,83.9766 314,219.2066 314,274.6666 " fill="none" id="authentication-backto-coreA" style="stroke:#181818;stroke-width:1.0;stroke-dasharray:7.0,7.0;"/><polygon fill="#181818" points="508.64,83.9766,499.64,79.9766,503.64,83.9766,499.64,87.9766,508.64,83.9766" style="stroke:#181818;stroke-width:1.0;"/></g><!--MD5=[9dbcbff84885396d0947d42d0347c5ab]
reverse link authentication to coreB--><g id="link_authentication_coreB"><path d="M658.28,83.9766 C658.28,83.9766 849,83.9766 849,83.9766 C849,83.9766 849,219.2066 849,274.6666 " fill="none" id="authentication-backto-coreB" style="stroke:#181818;stroke-width:1.0;stroke-dasharray:7.0,7.0;"/><polygon fill="#181818" points="653.28,83.9766,662.28,87.9766,658.28,83.9766,662.28,79.9766,653.28,83.9766" style="stroke:#181818;stroke-width:1.0;"/></g><!--MD5=[2479aae84b0a3189521b312aaaaee333]
link kernel to appReg--><g id="link_kernel_appReg"><path d="M688,556.4166 C688,556.4166 688,645.1066 688,645.1066 " fill="none" id="kernel-to-appReg" style="stroke:#181818;stroke-width:1.0;stroke-dasharray:7.0,7.0;"/><polygon fill="#181818" points="688,650.1066,692,641.1066,688,645.1066,684,641.1066,688,650.1066" style="stroke:#181818;stroke-width:1.0;"/></g><!--MD5=[09d10e7a9a628e402df7ee3d306bdbd8]
reverse link authorization to kernel--><g id="link_authorization_kernel"><path d="M688,327.8866 C688,327.8866 688,509.6766 688,509.6766 " fill="none" id="authorization-backto-kernel" style="stroke:#181818;stroke-width:1.0;stroke-dasharray:7.0,7.0;"/><polygon fill="#181818" points="688,322.8866,684,331.8866,688,327.8866,692,331.8866,688,322.8866" style="stroke:#181818;stroke-width:1.0;"/></g><!--MD5=[d6f30ef598a0bd69dd16702493f3e699]
link coreA to kernel--><g id="link_coreA_kernel"><path d="M350.83,297.9766 C406.33,297.9766 505,297.9766 505,297.9766 C505,297.9766 505,532.9766 505,532.9766 C505,532.9766 639.04,532.9766 639.04,532.9766 " fill="none" id="coreA-to-kernel" style="stroke:#181818;stroke-width:1.0;stroke-dasharray:7.0,7.0;"/><polygon fill="#181818" points="644.04,532.9766,635.04,528.9766,639.04,532.9766,635.04,536.9766,644.04,532.9766" style="stroke:#181818;stroke-width:1.0;"/></g><!--MD5=[7b332c0b4db6c3c48361bd779838a187]
link coreB to kernel--><g id="link_coreB_kernel"><path d="M812.18,297.9766 C797.38,297.9766 783.75,297.9766 783.75,297.9766 C783.75,297.9766 783.75,532.9766 783.75,532.9766 C783.75,532.9766 736.79,532.9766 736.79,532.9766 " fill="none" id="coreB-to-kernel" style="stroke:#181818;stroke-width:1.0;stroke-dasharray:7.0,7.0;"/><polygon fill="#181818" points="731.79,532.9766,740.79,536.9766,736.79,532.9766,740.79,528.9766,731.79,532.9766" style="stroke:#181818;stroke-width:1.0;"/></g><!--MD5=[185f6abaa66b051bea03d3149ec1a67c]
@startuml
skinparam componentStyle uml2
skinparam linetype ortho

title Interapplication Messaging - Component\n
[Authentication] as authentication

package "Application A" as appA {
  [Proof Server] as proofServerA
  [Core] as coreA
  [Runtime] as runtimeA
  database "Contract Store" as contractStoreA {
    package "Contract [0x01]" as contractA {
      component "Function [foo]" as transFunc1
    }
  }
  coreA ..> proofServerA
  coreA ..> contractStoreA
  coreA ..> runtimeA
}

package "Application B" as appB {
  [Proof Server] as proofServerB
  [Core] as coreB
  [Runtime] as runtimeB
  database "Contract Store" as contractStoreB {
    package "Contract [0x02]" as contractB {
      component "Function [bar]" as transFunc2
    }
  }
  coreB ..> proofServerB
  coreB .right.> contractStoreB
  coreB ..> runtimeB
}

coreA .up.> authentication
coreB .up.> authentication

package "Application Mesh" as appMesh {
  [Authorization] as authorization
  [Kernel] as kernel
  database "Application\n   Registry" as appReg
  kernel ..> appReg
  kernel .up.> authorization
}

coreA ..> kernel
coreB ..> kernel

@enduml

PlantUML version 1.2022.7(Mon Aug 22 12:01:30 CDT 2022)
(GPL source distribution)
Java Runtime: OpenJDK Runtime Environment
JVM: OpenJDK 64-Bit Server VM
Default Encoding: UTF-8
Language: en
Country: US
--></g></svg>