<?xml version="1.0" encoding="UTF-8" standalone="no"?><svg xmlns="http://www.w3.org/2000/svg" xmlns:xlink="http://www.w3.org/1999/xlink" contentStyleType="text/css" height="1605px" preserveAspectRatio="none" style="width:1717px;height:1605px;background:#FFFFFF;" version="1.1" viewBox="0 0 1717 1605" width="1717px" zoomAndPan="magnify"><defs/><g><rect fill="#DDDDDD" height="1427.0195" style="stroke:#181818;stroke-width:0.5;" width="1118" x="593" y="119.8633"/><text fill="#000000" font-family="sans-serif" font-size="13" font-weight="bold" lengthAdjust="spacing" textLength="4" x="1099.5" y="132.4316"> </text><text fill="#000000" font-family="sans-serif" font-size="13" font-weight="bold" lengthAdjust="spacing" textLength="105" x="1099.5" y="147.7422">Contract Kernel</text><rect fill="#EEEEFF" height="1391.3984" style="stroke:#181818;stroke-width:0.5;" width="146" x="1407" y="155.4844"/><text fill="#000000" font-family="sans-serif" font-size="13" font-weight="bold" lengthAdjust="spacing" textLength="4" x="1419" y="168.0527"> </text><text fill="#000000" font-family="sans-serif" font-size="13" font-weight="bold" lengthAdjust="spacing" textLength="106" x="1427" y="183.3633">Contract [0x01]</text><rect fill="#FFEEEE" height="1391.3984" style="stroke:#181818;stroke-width:0.5;" width="146" x="1565" y="155.4844"/><text fill="#000000" font-family="sans-serif" font-size="13" font-weight="bold" lengthAdjust="spacing" textLength="4" x="1577" y="168.0527"> </text><text fill="#000000" font-family="sans-serif" font-size="13" font-weight="bold" lengthAdjust="spacing" textLength="106" x="1585" y="183.3633">Contract [0x02]</text><rect fill="none" height="58.8867" id="_title" style="stroke:none;stroke-width:1.0;" width="149" x="1553.5" y="5"/><text fill="#888888" font-family="sans-serif" font-size="10" lengthAdjust="spacing" textLength="149" x="1553.5" y="14.668">two-contracts-two-apps.puml</text><text fill="#888888" font-family="sans-serif" font-size="10" lengthAdjust="spacing" textLength="120" x="1582.5" y="26.4453">2023.04.04 at 15:44 CDT</text><text fill="#888888" font-family="sans-serif" font-size="10" lengthAdjust="spacing" textLength="3" x="1699.5" y="38.2227"> </text><text fill="#888888" font-family="sans-serif" font-size="10" lengthAdjust="spacing" textLength="3" x="1699.5" y="50"> </text><text fill="#888888" font-family="sans-serif" font-size="10" lengthAdjust="spacing" textLength="3" x="1699.5" y="61.7773"> </text><rect fill="none" height="42.9766" id="_title" style="stroke:none;stroke-width:1.0;" width="207" x="750.25" y="69.8867"/><text fill="#000000" font-family="sans-serif" font-size="14" font-weight="bold" lengthAdjust="spacing" textLength="197" x="755.25" y="88.4219">Contract Kernel - Sequence</text><text fill="#000000" font-family="sans-serif" font-size="14" font-weight="bold" lengthAdjust="spacing" textLength="5" x="851.25" y="104.9102"> </text><line style="stroke:#181818;stroke-width:0.5;stroke-dasharray:5.0,5.0;" x1="62.5" x2="62.5" y1="269.082" y2="1065.8457"/><line style="stroke:#A80036;stroke-width:1.0;stroke-dasharray:1.0,4.0;" x1="62.5" x2="62.5" y1="1065.8457" y2="1093.8457"/><line style="stroke:#181818;stroke-width:0.5;stroke-dasharray:5.0,5.0;" x1="62.5" x2="62.5" y1="1093.8457" y2="1269.709"/><line style="stroke:#A80036;stroke-width:1.0;stroke-dasharray:1.0,4.0;" x1="62.5" x2="62.5" y1="1269.709" y2="1297.709"/><line style="stroke:#181818;stroke-width:0.5;stroke-dasharray:5.0,5.0;" x1="62.5" x2="62.5" y1="1297.709" y2="1356.3301"/><line style="stroke:#A80036;stroke-width:1.0;stroke-dasharray:1.0,4.0;" x1="62.5" x2="62.5" y1="1356.3301" y2="1384.3301"/><line style="stroke:#181818;stroke-width:0.5;stroke-dasharray:5.0,5.0;" x1="62.5" x2="62.5" y1="1384.3301" y2="1540.8828"/><rect fill="#FFFFFF" height="29.3105" style="stroke:#181818;stroke-width:1.0;" width="10" x="57.5" y="780.0508"/><line style="stroke:#181818;stroke-width:0.5;stroke-dasharray:5.0,5.0;" x1="188" x2="188" y1="269.082" y2="1065.8457"/><line style="stroke:#A80036;stroke-width:1.0;stroke-dasharray:1.0,4.0;" x1="188" x2="188" y1="1065.8457" y2="1093.8457"/><line style="stroke:#181818;stroke-width:0.5;stroke-dasharray:5.0,5.0;" x1="188" x2="188" y1="1093.8457" y2="1269.709"/><line style="stroke:#A80036;stroke-width:1.0;stroke-dasharray:1.0,4.0;" x1="188" x2="188" y1="1269.709" y2="1297.709"/><line style="stroke:#181818;stroke-width:0.5;stroke-dasharray:5.0,5.0;" x1="188" x2="188" y1="1297.709" y2="1356.3301"/><line style="stroke:#A80036;stroke-width:1.0;stroke-dasharray:1.0,4.0;" x1="188" x2="188" y1="1356.3301" y2="1384.3301"/><line style="stroke:#181818;stroke-width:0.5;stroke-dasharray:5.0,5.0;" x1="188" x2="188" y1="1384.3301" y2="1540.8828"/><line style="stroke:#181818;stroke-width:0.5;stroke-dasharray:5.0,5.0;" x1="313" x2="313" y1="269.082" y2="1065.8457"/><line style="stroke:#A80036;stroke-width:1.0;stroke-dasharray:1.0,4.0;" x1="313" x2="313" y1="1065.8457" y2="1093.8457"/><line style="stroke:#181818;stroke-width:0.5;stroke-dasharray:5.0,5.0;" x1="313" x2="313" y1="1093.8457" y2="1269.709"/><line style="stroke:#A80036;stroke-width:1.0;stroke-dasharray:1.0,4.0;" x1="313" x2="313" y1="1269.709" y2="1297.709"/><line style="stroke:#181818;stroke-width:0.5;stroke-dasharray:5.0,5.0;" x1="313" x2="313" y1="1297.709" y2="1356.3301"/><line style="stroke:#A80036;stroke-width:1.0;stroke-dasharray:1.0,4.0;" x1="313" x2="313" y1="1356.3301" y2="1384.3301"/><line style="stroke:#181818;stroke-width:0.5;stroke-dasharray:5.0,5.0;" x1="313" x2="313" y1="1384.3301" y2="1540.8828"/><line style="stroke:#181818;stroke-width:0.5;stroke-dasharray:5.0,5.0;" x1="626" x2="626" y1="269.082" y2="1065.8457"/><line style="stroke:#A80036;stroke-width:1.0;stroke-dasharray:1.0,4.0;" x1="626" x2="626" y1="1065.8457" y2="1093.8457"/><line style="stroke:#181818;stroke-width:0.5;stroke-dasharray:5.0,5.0;" x1="626" x2="626" y1="1093.8457" y2="1269.709"/><line style="stroke:#A80036;stroke-width:1.0;stroke-dasharray:1.0,4.0;" x1="626" x2="626" y1="1269.709" y2="1297.709"/><line style="stroke:#181818;stroke-width:0.5;stroke-dasharray:5.0,5.0;" x1="626" x2="626" y1="1297.709" y2="1356.3301"/><line style="stroke:#A80036;stroke-width:1.0;stroke-dasharray:1.0,4.0;" x1="626" x2="626" y1="1356.3301" y2="1384.3301"/><line style="stroke:#181818;stroke-width:0.5;stroke-dasharray:5.0,5.0;" x1="626" x2="626" y1="1384.3301" y2="1540.8828"/><rect fill="#FFFFFF" height="146.5527" style="stroke:#181818;stroke-width:1.0;" width="10" x="621" y="341.7031"/><rect fill="#FFFFFF" height="146.5527" style="stroke:#181818;stroke-width:1.0;" width="10" x="621" y="560.877"/><rect fill="#FFFFFF" height="183.8633" style="stroke:#FFFFFF;stroke-width:1.0;" width="10" x="621" y="881.9824"/><line style="stroke:#181818;stroke-width:1.0;" x1="621" x2="621" y1="881.9824" y2="1065.8457"/><line style="stroke:#181818;stroke-width:1.0;" x1="631" x2="631" y1="881.9824" y2="1065.8457"/><line style="stroke:#181818;stroke-width:1.0;" x1="621" x2="631" y1="881.9824" y2="881.9824"/><rect fill="#FFFFFF" height="175.8633" style="stroke:#FFFFFF;stroke-width:1.0;" width="10" x="621" y="1093.8457"/><line style="stroke:#181818;stroke-width:1.0;" x1="621" x2="621" y1="1093.8457" y2="1269.709"/><line style="stroke:#181818;stroke-width:1.0;" x1="631" x2="631" y1="1093.8457" y2="1269.709"/><rect fill="#FFFFFF" height="58.6211" style="stroke:#FFFFFF;stroke-width:1.0;" width="10" x="621" y="1297.709"/><line style="stroke:#181818;stroke-width:1.0;" x1="621" x2="621" y1="1297.709" y2="1356.3301"/><line style="stroke:#181818;stroke-width:1.0;" x1="631" x2="631" y1="1297.709" y2="1356.3301"/><rect fill="#FFFFFF" height="138.5527" style="stroke:#FFFFFF;stroke-width:1.0;" width="10" x="621" y="1384.3301"/><line style="stroke:#181818;stroke-width:1.0;" x1="621" x2="621" y1="1384.3301" y2="1522.8828"/><line style="stroke:#181818;stroke-width:1.0;" x1="631" x2="631" y1="1384.3301" y2="1522.8828"/><line style="stroke:#181818;stroke-width:1.0;" x1="621" x2="631" y1="1522.8828" y2="1522.8828"/><line style="stroke:#181818;stroke-width:0.5;stroke-dasharray:5.0,5.0;" x1="823" x2="823" y1="269.082" y2="1065.8457"/><line style="stroke:#A80036;stroke-width:1.0;stroke-dasharray:1.0,4.0;" x1="823" x2="823" y1="1065.8457" y2="1093.8457"/><line style="stroke:#181818;stroke-width:0.5;stroke-dasharray:5.0,5.0;" x1="823" x2="823" y1="1093.8457" y2="1269.709"/><line style="stroke:#A80036;stroke-width:1.0;stroke-dasharray:1.0,4.0;" x1="823" x2="823" y1="1269.709" y2="1297.709"/><line style="stroke:#181818;stroke-width:0.5;stroke-dasharray:5.0,5.0;" x1="823" x2="823" y1="1297.709" y2="1356.3301"/><line style="stroke:#A80036;stroke-width:1.0;stroke-dasharray:1.0,4.0;" x1="823" x2="823" y1="1356.3301" y2="1384.3301"/><line style="stroke:#181818;stroke-width:0.5;stroke-dasharray:5.0,5.0;" x1="823" x2="823" y1="1384.3301" y2="1540.8828"/><rect fill="#FFFFFF" height="29.3105" style="stroke:#181818;stroke-width:1.0;" width="10" x="818" y="371.0137"/><rect fill="#FFFFFF" height="29.3105" style="stroke:#181818;stroke-width:1.0;" width="10" x="818" y="590.1875"/><rect fill="#FFFFFF" height="29.3105" style="stroke:#181818;stroke-width:1.0;" width="10" x="818" y="999.2246"/><rect fill="#FFFFFF" height="29.3105" style="stroke:#181818;stroke-width:1.0;" width="10" x="818" y="1203.0879"/><line style="stroke:#181818;stroke-width:0.5;stroke-dasharray:5.0,5.0;" x1="920" x2="920" y1="269.082" y2="1065.8457"/><line style="stroke:#A80036;stroke-width:1.0;stroke-dasharray:1.0,4.0;" x1="920" x2="920" y1="1065.8457" y2="1093.8457"/><line style="stroke:#181818;stroke-width:0.5;stroke-dasharray:5.0,5.0;" x1="920" x2="920" y1="1093.8457" y2="1269.709"/><line style="stroke:#A80036;stroke-width:1.0;stroke-dasharray:1.0,4.0;" x1="920" x2="920" y1="1269.709" y2="1297.709"/><line style="stroke:#181818;stroke-width:0.5;stroke-dasharray:5.0,5.0;" x1="920" x2="920" y1="1297.709" y2="1356.3301"/><line style="stroke:#A80036;stroke-width:1.0;stroke-dasharray:1.0,4.0;" x1="920" x2="920" y1="1356.3301" y2="1384.3301"/><line style="stroke:#181818;stroke-width:0.5;stroke-dasharray:5.0,5.0;" x1="920" x2="920" y1="1384.3301" y2="1540.8828"/><rect fill="#FFFFFF" height="29.3105" style="stroke:#181818;stroke-width:1.0;" width="10" x="915" y="429.6348"/><rect fill="#FFFFFF" height="29.3105" style="stroke:#181818;stroke-width:1.0;" width="10" x="915" y="648.8086"/><rect fill="#FFFFFF" height="29.3105" style="stroke:#181818;stroke-width:1.0;" width="10" x="915" y="940.6035"/><rect fill="#FFFFFF" height="29.3105" style="stroke:#181818;stroke-width:1.0;" width="10" x="915" y="1144.4668"/><line style="stroke:#181818;stroke-width:0.5;stroke-dasharray:5.0,5.0;" x1="1185" x2="1185" y1="269.082" y2="1065.8457"/><line style="stroke:#A80036;stroke-width:1.0;stroke-dasharray:1.0,4.0;" x1="1185" x2="1185" y1="1065.8457" y2="1093.8457"/><line style="stroke:#181818;stroke-width:0.5;stroke-dasharray:5.0,5.0;" x1="1185" x2="1185" y1="1093.8457" y2="1269.709"/><line style="stroke:#A80036;stroke-width:1.0;stroke-dasharray:1.0,4.0;" x1="1185" x2="1185" y1="1269.709" y2="1297.709"/><line style="stroke:#181818;stroke-width:0.5;stroke-dasharray:5.0,5.0;" x1="1185" x2="1185" y1="1297.709" y2="1356.3301"/><line style="stroke:#A80036;stroke-width:1.0;stroke-dasharray:1.0,4.0;" x1="1185" x2="1185" y1="1356.3301" y2="1384.3301"/><line style="stroke:#181818;stroke-width:0.5;stroke-dasharray:5.0,5.0;" x1="1185" x2="1185" y1="1384.3301" y2="1540.8828"/><rect fill="#FFFFFF" height="154.5527" style="stroke:#FFFFFF;stroke-width:1.0;" width="10" x="1180" y="911.293"/><line style="stroke:#181818;stroke-width:1.0;" x1="1180" x2="1180" y1="911.293" y2="1065.8457"/><line style="stroke:#181818;stroke-width:1.0;" x1="1190" x2="1190" y1="911.293" y2="1065.8457"/><line style="stroke:#181818;stroke-width:1.0;" x1="1180" x2="1190" y1="911.293" y2="911.293"/><rect fill="#FFFFFF" height="175.8633" style="stroke:#FFFFFF;stroke-width:1.0;" width="10" x="1180" y="1093.8457"/><line style="stroke:#181818;stroke-width:1.0;" x1="1180" x2="1180" y1="1093.8457" y2="1269.709"/><line style="stroke:#181818;stroke-width:1.0;" x1="1190" x2="1190" y1="1093.8457" y2="1269.709"/><rect fill="#FFFFFF" height="58.6211" style="stroke:#FFFFFF;stroke-width:1.0;" width="10" x="1180" y="1297.709"/><line style="stroke:#181818;stroke-width:1.0;" x1="1180" x2="1180" y1="1297.709" y2="1356.3301"/><line style="stroke:#181818;stroke-width:1.0;" x1="1190" x2="1190" y1="1297.709" y2="1356.3301"/><rect fill="#FFFFFF" height="50.6211" style="stroke:#FFFFFF;stroke-width:1.0;" width="10" x="1180" y="1384.3301"/><line style="stroke:#181818;stroke-width:1.0;" x1="1180" x2="1180" y1="1384.3301" y2="1434.9512"/><line style="stroke:#181818;stroke-width:1.0;" x1="1190" x2="1190" y1="1384.3301" y2="1434.9512"/><line style="stroke:#181818;stroke-width:1.0;" x1="1180" x2="1190" y1="1434.9512" y2="1434.9512"/><rect fill="#FFFFFF" height="154.5527" style="stroke:#FFFFFF;stroke-width:1.0;" width="10" x="1185" y="1115.1563"/><line style="stroke:#181818;stroke-width:1.0;" x1="1185" x2="1185" y1="1115.1563" y2="1269.709"/><line style="stroke:#181818;stroke-width:1.0;" x1="1195" x2="1195" y1="1115.1563" y2="1269.709"/><line style="stroke:#181818;stroke-width:1.0;" x1="1185" x2="1195" y1="1115.1563" y2="1115.1563"/><rect fill="#FFFFFF" height="50.6211" style="stroke:#FFFFFF;stroke-width:1.0;" width="10" x="1185" y="1297.709"/><line style="stroke:#181818;stroke-width:1.0;" x1="1185" x2="1185" y1="1297.709" y2="1348.3301"/><line style="stroke:#181818;stroke-width:1.0;" x1="1195" x2="1195" y1="1297.709" y2="1348.3301"/><line style="stroke:#181818;stroke-width:1.0;" x1="1185" x2="1195" y1="1348.3301" y2="1348.3301"/><line style="stroke:#181818;stroke-width:0.5;stroke-dasharray:5.0,5.0;" x1="1279.5" x2="1279.5" y1="269.082" y2="1065.8457"/><line style="stroke:#A80036;stroke-width:1.0;stroke-dasharray:1.0,4.0;" x1="1279.5" x2="1279.5" y1="1065.8457" y2="1093.8457"/><line style="stroke:#181818;stroke-width:0.5;stroke-dasharray:5.0,5.0;" x1="1279.5" x2="1279.5" y1="1093.8457" y2="1269.709"/><line style="stroke:#A80036;stroke-width:1.0;stroke-dasharray:1.0,4.0;" x1="1279.5" x2="1279.5" y1="1269.709" y2="1297.709"/><line style="stroke:#181818;stroke-width:0.5;stroke-dasharray:5.0,5.0;" x1="1279.5" x2="1279.5" y1="1297.709" y2="1356.3301"/><line style="stroke:#A80036;stroke-width:1.0;stroke-dasharray:1.0,4.0;" x1="1279.5" x2="1279.5" y1="1356.3301" y2="1384.3301"/><line style="stroke:#181818;stroke-width:0.5;stroke-dasharray:5.0,5.0;" x1="1279.5" x2="1279.5" y1="1384.3301" y2="1540.8828"/><rect fill="#FFFFFF" height="29.3105" style="stroke:#181818;stroke-width:1.0;" width="10" x="1274.5" y="1464.2617"/><line style="stroke:#181818;stroke-width:0.5;stroke-dasharray:5.0,5.0;" x1="1480" x2="1480" y1="269.082" y2="1065.8457"/><line style="stroke:#A80036;stroke-width:1.0;stroke-dasharray:1.0,4.0;" x1="1480" x2="1480" y1="1065.8457" y2="1093.8457"/><line style="stroke:#181818;stroke-width:0.5;stroke-dasharray:5.0,5.0;" x1="1480" x2="1480" y1="1093.8457" y2="1269.709"/><line style="stroke:#A80036;stroke-width:1.0;stroke-dasharray:1.0,4.0;" x1="1480" x2="1480" y1="1269.709" y2="1297.709"/><line style="stroke:#181818;stroke-width:0.5;stroke-dasharray:5.0,5.0;" x1="1480" x2="1480" y1="1297.709" y2="1356.3301"/><line style="stroke:#A80036;stroke-width:1.0;stroke-dasharray:1.0,4.0;" x1="1480" x2="1480" y1="1356.3301" y2="1384.3301"/><line style="stroke:#181818;stroke-width:0.5;stroke-dasharray:5.0,5.0;" x1="1480" x2="1480" y1="1384.3301" y2="1540.8828"/><rect fill="#FFFFFF" height="8" style="stroke:#FFFFFF;stroke-width:1.0;" width="10" x="1475" y="1057.8457"/><line style="stroke:#181818;stroke-width:1.0;" x1="1475" x2="1475" y1="1057.8457" y2="1065.8457"/><line style="stroke:#181818;stroke-width:1.0;" x1="1485" x2="1485" y1="1057.8457" y2="1065.8457"/><line style="stroke:#181818;stroke-width:1.0;" x1="1475" x2="1485" y1="1057.8457" y2="1057.8457"/><rect fill="#FFFFFF" height="175.8633" style="stroke:#FFFFFF;stroke-width:1.0;" width="10" x="1475" y="1093.8457"/><line style="stroke:#181818;stroke-width:1.0;" x1="1475" x2="1475" y1="1093.8457" y2="1269.709"/><line style="stroke:#181818;stroke-width:1.0;" x1="1485" x2="1485" y1="1093.8457" y2="1269.709"/><rect fill="#FFFFFF" height="58.6211" style="stroke:#FFFFFF;stroke-width:1.0;" width="10" x="1475" y="1297.709"/><line style="stroke:#181818;stroke-width:1.0;" x1="1475" x2="1475" y1="1297.709" y2="1356.3301"/><line style="stroke:#181818;stroke-width:1.0;" x1="1485" x2="1485" y1="1297.709" y2="1356.3301"/><rect fill="#FFFFFF" height="21.3105" style="stroke:#FFFFFF;stroke-width:1.0;" width="10" x="1475" y="1384.3301"/><line style="stroke:#181818;stroke-width:1.0;" x1="1475" x2="1475" y1="1384.3301" y2="1405.6406"/><line style="stroke:#181818;stroke-width:1.0;" x1="1485" x2="1485" y1="1384.3301" y2="1405.6406"/><line style="stroke:#181818;stroke-width:1.0;" x1="1475" x2="1485" y1="1405.6406" y2="1405.6406"/><line style="stroke:#181818;stroke-width:0.5;stroke-dasharray:5.0,5.0;" x1="1638" x2="1638" y1="269.082" y2="1065.8457"/><line style="stroke:#A80036;stroke-width:1.0;stroke-dasharray:1.0,4.0;" x1="1638" x2="1638" y1="1065.8457" y2="1093.8457"/><line style="stroke:#181818;stroke-width:0.5;stroke-dasharray:5.0,5.0;" x1="1638" x2="1638" y1="1093.8457" y2="1269.709"/><line style="stroke:#A80036;stroke-width:1.0;stroke-dasharray:1.0,4.0;" x1="1638" x2="1638" y1="1269.709" y2="1297.709"/><line style="stroke:#181818;stroke-width:0.5;stroke-dasharray:5.0,5.0;" x1="1638" x2="1638" y1="1297.709" y2="1356.3301"/><line style="stroke:#A80036;stroke-width:1.0;stroke-dasharray:1.0,4.0;" x1="1638" x2="1638" y1="1356.3301" y2="1384.3301"/><line style="stroke:#181818;stroke-width:0.5;stroke-dasharray:5.0,5.0;" x1="1638" x2="1638" y1="1384.3301" y2="1540.8828"/><rect fill="#FFFFFF" height="8" style="stroke:#FFFFFF;stroke-width:1.0;" width="10" x="1633" y="1261.709"/><line style="stroke:#181818;stroke-width:1.0;" x1="1633" x2="1633" y1="1261.709" y2="1269.709"/><line style="stroke:#181818;stroke-width:1.0;" x1="1643" x2="1643" y1="1261.709" y2="1269.709"/><line style="stroke:#181818;stroke-width:1.0;" x1="1633" x2="1643" y1="1261.709" y2="1261.709"/><rect fill="#FFFFFF" height="21.3105" style="stroke:#FFFFFF;stroke-width:1.0;" width="10" x="1633" y="1297.709"/><line style="stroke:#181818;stroke-width:1.0;" x1="1633" x2="1633" y1="1297.709" y2="1319.0195"/><line style="stroke:#181818;stroke-width:1.0;" x1="1643" x2="1643" y1="1297.709" y2="1319.0195"/><line style="stroke:#181818;stroke-width:1.0;" x1="1633" x2="1643" y1="1319.0195" y2="1319.0195"/><rect fill="#E2E2F0" height="30.4883" rx="2.5" ry="2.5" style="stroke:#181818;stroke-width:0.5;" width="115" x="5" y="237.5938"/><text fill="#000000" font-family="sans-serif" font-size="14" lengthAdjust="spacing" textLength="101" x="12" y="258.1289">Authentication</text><rect fill="#E2E2F0" height="30.4883" rx="2.5" ry="2.5" style="stroke:#181818;stroke-width:0.5;" width="116" x="130" y="237.5938"/><text fill="#000000" font-family="sans-serif" font-size="14" lengthAdjust="spacing" textLength="102" x="137" y="258.1289">Application [A]</text><rect fill="#E2E2F0" height="30.4883" rx="2.5" ry="2.5" style="stroke:#181818;stroke-width:0.5;" width="114" x="256" y="237.5938"/><text fill="#000000" font-family="sans-serif" font-size="14" lengthAdjust="spacing" textLength="100" x="263" y="258.1289">Application [B]</text><rect fill="#E2E2F0" height="30.4883" rx="2.5" ry="2.5" style="stroke:#181818;stroke-width:0.5;" width="58" x="597" y="237.5938"/><text fill="#000000" font-family="sans-serif" font-size="14" lengthAdjust="spacing" textLength="44" x="604" y="258.1289">Kernel</text><text fill="#000000" font-family="sans-serif" font-size="14" lengthAdjust="spacing" textLength="59" x="790.5" y="249.6406">Contract</text><text fill="#000000" font-family="sans-serif" font-size="14" lengthAdjust="spacing" textLength="36" x="802" y="266.1289">Store</text><path d="M805,200.1055 C805,190.1055 823,190.1055 823,190.1055 C823,190.1055 841,190.1055 841,200.1055 L841,226.1055 C841,236.1055 823,236.1055 823,236.1055 C823,236.1055 805,236.1055 805,226.1055 L805,200.1055 " fill="#E2E2F0" style="stroke:#181818;stroke-width:1.5;"/><path d="M805,200.1055 C805,210.1055 823,210.1055 823,210.1055 C823,210.1055 841,210.1055 841,200.1055 " fill="none" style="stroke:#181818;stroke-width:1.5;"/><rect fill="#E2E2F0" height="30.4883" rx="2.5" ry="2.5" style="stroke:#181818;stroke-width:0.5;" width="109" x="865.5" y="237.5938"/><text fill="#000000" font-family="sans-serif" font-size="14" lengthAdjust="spacing" textLength="95" x="872.5" y="258.1289">Authorization</text><rect fill="#E2E2F0" height="30.4883" rx="2.5" ry="2.5" style="stroke:#181818;stroke-width:0.5;" width="71" x="1149.5" y="237.5938"/><text fill="#000000" font-family="sans-serif" font-size="14" lengthAdjust="spacing" textLength="57" x="1156.5" y="258.1289">Runtime</text><rect fill="#E2E2F0" height="30.4883" rx="2.5" ry="2.5" style="stroke:#181818;stroke-width:0.5;" width="98" x="1230.5" y="237.5938"/><text fill="#000000" font-family="sans-serif" font-size="14" lengthAdjust="spacing" textLength="84" x="1237.5" y="258.1289">Proof Server</text><rect fill="#E2E2F0" height="30.4883" rx="2.5" ry="2.5" style="stroke:#181818;stroke-width:0.5;" width="111" x="1424.5" y="237.5938"/><text fill="#000000" font-family="sans-serif" font-size="14" lengthAdjust="spacing" textLength="97" x="1431.5" y="258.1289">Function [foo]</text><rect fill="#E2E2F0" height="30.4883" rx="2.5" ry="2.5" style="stroke:#181818;stroke-width:0.5;" width="111" x="1582.5" y="237.5938"/><text fill="#000000" font-family="sans-serif" font-size="14" lengthAdjust="spacing" textLength="97" x="1589.5" y="258.1289">Function [bar]</text><rect fill="#EEEEEE" height="3" style="stroke:#EEEEEE;stroke-width:1.0;" width="1698.5" x="5" y="297.7373"/><line style="stroke:#000000;stroke-width:1.0;" x1="5" x2="1703.5" y1="297.7373" y2="297.7373"/><line style="stroke:#000000;stroke-width:1.0;" x1="5" x2="1703.5" y1="300.7373" y2="300.7373"/><rect fill="#EEEEEE" height="23.3105" style="stroke:#000000;stroke-width:2.0;" width="142" x="783.25" y="287.082"/><text fill="#000000" font-family="sans-serif" font-size="13" font-weight="bold" lengthAdjust="spacing" textLength="124" x="789.25" y="303.6504">Installation [0x02]</text><polygon fill="#181818" points="609,337.7031,619,341.7031,609,345.7031,613,341.7031" style="stroke:#181818;stroke-width:1.0;"/><line style="stroke:#181818;stroke-width:1.0;" x1="313" x2="615" y1="341.7031" y2="341.7031"/><text fill="#000000" font-family="sans-serif" font-size="13" font-weight="bold" lengthAdjust="spacing" textLength="41" x="320" y="336.9609">install</text><text fill="#000000" font-family="sans-serif" font-size="13" lengthAdjust="spacing" textLength="239" x="365" y="336.9609">(0x02, contract [0x02], access_policy)</text><polygon fill="#181818" points="806,367.0137,816,371.0137,806,375.0137,810,371.0137" style="stroke:#181818;stroke-width:1.0;"/><line style="stroke:#181818;stroke-width:1.0;" x1="631" x2="812" y1="371.0137" y2="371.0137"/><text fill="#000000" font-family="sans-serif" font-size="13" font-weight="bold" lengthAdjust="spacing" textLength="20" x="638" y="366.2715">set</text><text fill="#000000" font-family="sans-serif" font-size="13" lengthAdjust="spacing" textLength="144" x="662" y="366.2715">(0x02, contract [0x02])</text><polygon fill="#181818" points="642,396.3242,632,400.3242,642,404.3242,638,400.3242" style="stroke:#181818;stroke-width:1.0;"/><line style="stroke:#181818;stroke-width:1.0;stroke-dasharray:2.0,2.0;" x1="636" x2="817" y1="400.3242" y2="400.3242"/><text fill="#000000" font-family="sans-serif" font-size="13" font-style="italic" lengthAdjust="spacing" textLength="22" x="648" y="395.582">ack</text><polygon fill="#181818" points="903,425.6348,913,429.6348,903,433.6348,907,429.6348" style="stroke:#181818;stroke-width:1.0;"/><line style="stroke:#181818;stroke-width:1.0;" x1="631" x2="909" y1="429.6348" y2="429.6348"/><text fill="#000000" font-family="sans-serif" font-size="13" font-weight="bold" lengthAdjust="spacing" textLength="20" x="638" y="424.8926">set</text><text fill="#000000" font-family="sans-serif" font-size="13" lengthAdjust="spacing" textLength="135" x="662" y="424.8926">(0x02, access_policy)</text><polygon fill="#181818" points="642,454.9453,632,458.9453,642,462.9453,638,458.9453" style="stroke:#181818;stroke-width:1.0;"/><line style="stroke:#181818;stroke-width:1.0;stroke-dasharray:2.0,2.0;" x1="636" x2="914" y1="458.9453" y2="458.9453"/><text fill="#000000" font-family="sans-serif" font-size="13" font-style="italic" lengthAdjust="spacing" textLength="22" x="648" y="454.2031">ack</text><polygon fill="#181818" points="324,484.2559,314,488.2559,324,492.2559,320,488.2559" style="stroke:#181818;stroke-width:1.0;"/><line style="stroke:#181818;stroke-width:1.0;stroke-dasharray:2.0,2.0;" x1="318" x2="620" y1="488.2559" y2="488.2559"/><text fill="#000000" font-family="sans-serif" font-size="13" font-style="italic" lengthAdjust="spacing" textLength="22" x="330" y="483.5137">ack</text><rect fill="#EEEEEE" height="3" style="stroke:#EEEEEE;stroke-width:1.0;" width="1698.5" x="5" y="516.9111"/><line style="stroke:#000000;stroke-width:1.0;" x1="5" x2="1703.5" y1="516.9111" y2="516.9111"/><line style="stroke:#000000;stroke-width:1.0;" x1="5" x2="1703.5" y1="519.9111" y2="519.9111"/><rect fill="#EEEEEE" height="23.3105" style="stroke:#000000;stroke-width:2.0;" width="142" x="783.25" y="506.2559"/><text fill="#000000" font-family="sans-serif" font-size="13" font-weight="bold" lengthAdjust="spacing" textLength="124" x="789.25" y="522.8242">Installation [0x01]</text><polygon fill="#181818" points="609,556.877,619,560.877,609,564.877,613,560.877" style="stroke:#181818;stroke-width:1.0;"/><line style="stroke:#181818;stroke-width:1.0;" x1="188" x2="615" y1="560.877" y2="560.877"/><text fill="#000000" font-family="sans-serif" font-size="13" font-weight="bold" lengthAdjust="spacing" textLength="41" x="195" y="556.1348">install</text><text fill="#000000" font-family="sans-serif" font-size="13" lengthAdjust="spacing" textLength="239" x="240" y="556.1348">(0x01, contract [0x01], access_policy)</text><polygon fill="#181818" points="806,586.1875,816,590.1875,806,594.1875,810,590.1875" style="stroke:#181818;stroke-width:1.0;"/><line style="stroke:#181818;stroke-width:1.0;" x1="631" x2="812" y1="590.1875" y2="590.1875"/><text fill="#000000" font-family="sans-serif" font-size="13" font-weight="bold" lengthAdjust="spacing" textLength="20" x="638" y="585.4453">set</text><text fill="#000000" font-family="sans-serif" font-size="13" lengthAdjust="spacing" textLength="144" x="662" y="585.4453">(0x01, contract [0x01])</text><polygon fill="#181818" points="642,615.498,632,619.498,642,623.498,638,619.498" style="stroke:#181818;stroke-width:1.0;"/><line style="stroke:#181818;stroke-width:1.0;stroke-dasharray:2.0,2.0;" x1="636" x2="817" y1="619.498" y2="619.498"/><text fill="#000000" font-family="sans-serif" font-size="13" font-style="italic" lengthAdjust="spacing" textLength="22" x="648" y="614.7559">ack</text><polygon fill="#181818" points="903,644.8086,913,648.8086,903,652.8086,907,648.8086" style="stroke:#181818;stroke-width:1.0;"/><line style="stroke:#181818;stroke-width:1.0;" x1="631" x2="909" y1="648.8086" y2="648.8086"/><text fill="#000000" font-family="sans-serif" font-size="13" font-weight="bold" lengthAdjust="spacing" textLength="20" x="638" y="644.0664">set</text><text fill="#000000" font-family="sans-serif" font-size="13" lengthAdjust="spacing" textLength="135" x="662" y="644.0664">(0x01, access_policy)</text><polygon fill="#181818" points="642,674.1191,632,678.1191,642,682.1191,638,678.1191" style="stroke:#181818;stroke-width:1.0;"/><line style="stroke:#181818;stroke-width:1.0;stroke-dasharray:2.0,2.0;" x1="636" x2="914" y1="678.1191" y2="678.1191"/><text fill="#000000" font-family="sans-serif" font-size="13" font-style="italic" lengthAdjust="spacing" textLength="22" x="648" y="673.377">ack</text><polygon fill="#181818" points="199,703.4297,189,707.4297,199,711.4297,195,707.4297" style="stroke:#181818;stroke-width:1.0;"/><line style="stroke:#181818;stroke-width:1.0;stroke-dasharray:2.0,2.0;" x1="193" x2="620" y1="707.4297" y2="707.4297"/><text fill="#000000" font-family="sans-serif" font-size="13" font-style="italic" lengthAdjust="spacing" textLength="22" x="205" y="702.6875">ack</text><rect fill="#EEEEEE" height="3" style="stroke:#EEEEEE;stroke-width:1.0;" width="1698.5" x="5" y="736.085"/><line style="stroke:#000000;stroke-width:1.0;" x1="5" x2="1703.5" y1="736.085" y2="736.085"/><line style="stroke:#000000;stroke-width:1.0;" x1="5" x2="1703.5" y1="739.085" y2="739.085"/><rect fill="#EEEEEE" height="23.3105" style="stroke:#000000;stroke-width:2.0;" width="140" x="784.25" y="725.4297"/><text fill="#000000" font-family="sans-serif" font-size="13" font-weight="bold" lengthAdjust="spacing" textLength="122" x="790.25" y="741.998">Authentication [B]</text><polygon fill="#181818" points="78.5,776.0508,68.5,780.0508,78.5,784.0508,74.5,780.0508" style="stroke:#181818;stroke-width:1.0;"/><line style="stroke:#181818;stroke-width:1.0;" x1="72.5" x2="312" y1="780.0508" y2="780.0508"/><text fill="#000000" font-family="sans-serif" font-size="13" font-weight="bold" lengthAdjust="spacing" textLength="85" x="84.5" y="775.3086">authenticate</text><text fill="#000000" font-family="sans-serif" font-size="13" lengthAdjust="spacing" textLength="56" x="173.5" y="775.3086">(context)</text><polygon fill="#181818" points="301,805.3613,311,809.3613,301,813.3613,305,809.3613" style="stroke:#181818;stroke-width:1.0;"/><line style="stroke:#181818;stroke-width:1.0;stroke-dasharray:2.0,2.0;" x1="67.5" x2="307" y1="809.3613" y2="809.3613"/><text fill="#000000" font-family="sans-serif" font-size="13" font-style="italic" lengthAdjust="spacing" textLength="85" x="74.5" y="804.6191">access_token</text><rect fill="#EEEEEE" height="3" style="stroke:#EEEEEE;stroke-width:1.0;" width="1698.5" x="5" y="838.0166"/><line style="stroke:#000000;stroke-width:1.0;" x1="5" x2="1703.5" y1="838.0166" y2="838.0166"/><line style="stroke:#000000;stroke-width:1.0;" x1="5" x2="1703.5" y1="841.0166" y2="841.0166"/><rect fill="#EEEEEE" height="23.3105" style="stroke:#000000;stroke-width:2.0;" width="161" x="773.75" y="827.3613"/><text fill="#000000" font-family="sans-serif" font-size="13" font-weight="bold" lengthAdjust="spacing" textLength="143" x="779.75" y="843.9297">Invocation [0x01.foo]</text><polygon fill="#181818" points="609,877.9824,619,881.9824,609,885.9824,613,881.9824" style="stroke:#181818;stroke-width:1.0;"/><line style="stroke:#181818;stroke-width:1.0;" x1="313" x2="615" y1="881.9824" y2="881.9824"/><text fill="#000000" font-family="sans-serif" font-size="13" font-weight="bold" lengthAdjust="spacing" textLength="23" x="320" y="877.2402">call</text><text fill="#000000" font-family="sans-serif" font-size="13" lengthAdjust="spacing" textLength="197" x="347" y="877.2402">(access_token, 0x01, foo, args)</text><polygon fill="#181818" points="1168,907.293,1178,911.293,1168,915.293,1172,911.293" style="stroke:#181818;stroke-width:1.0;"/><line style="stroke:#181818;stroke-width:1.0;" x1="631" x2="1174" y1="911.293" y2="911.293"/><text fill="#000000" font-family="sans-serif" font-size="13" font-weight="bold" lengthAdjust="spacing" textLength="53" x="638" y="906.5508">execute</text><text fill="#000000" font-family="sans-serif" font-size="13" lengthAdjust="spacing" textLength="197" x="695" y="906.5508">(access_token, 0x01, foo, args)</text><polygon fill="#181818" points="936,936.6035,926,940.6035,936,944.6035,932,940.6035" style="stroke:#181818;stroke-width:1.0;"/><line style="stroke:#181818;stroke-width:1.0;" x1="930" x2="1179" y1="940.6035" y2="940.6035"/><text fill="#000000" font-family="sans-serif" font-size="13" font-weight="bold" lengthAdjust="spacing" textLength="65" x="942" y="935.8613">authorize</text><text fill="#000000" font-family="sans-serif" font-size="13" lengthAdjust="spacing" textLength="162" x="1011" y="935.8613">(access_token, 0x01, foo)</text><polygon fill="#181818" points="1168,965.9141,1178,969.9141,1168,973.9141,1172,969.9141" style="stroke:#181818;stroke-width:1.0;"/><line style="stroke:#181818;stroke-width:1.0;stroke-dasharray:2.0,2.0;" x1="925" x2="1174" y1="969.9141" y2="969.9141"/><text fill="#000000" font-family="sans-serif" font-size="13" font-style="italic" lengthAdjust="spacing" textLength="67" x="932" y="965.1719">authorized</text><polygon fill="#181818" points="839,995.2246,829,999.2246,839,1003.2246,835,999.2246" style="stroke:#181818;stroke-width:1.0;"/><line style="stroke:#181818;stroke-width:1.0;" x1="833" x2="1179" y1="999.2246" y2="999.2246"/><text fill="#000000" font-family="sans-serif" font-size="13" font-weight="bold" lengthAdjust="spacing" textLength="22" x="845" y="994.4824">get</text><text fill="#000000" font-family="sans-serif" font-size="13" lengthAdjust="spacing" textLength="40" x="871" y="994.4824">(0x01)</text><polygon fill="#181818" points="1168,1024.5352,1178,1028.5352,1168,1032.5352,1172,1028.5352" style="stroke:#181818;stroke-width:1.0;"/><line style="stroke:#181818;stroke-width:1.0;stroke-dasharray:2.0,2.0;" x1="828" x2="1174" y1="1028.5352" y2="1028.5352"/><text fill="#000000" font-family="sans-serif" font-size="13" font-style="italic" lengthAdjust="spacing" textLength="96" x="835" y="1023.793">contract [0x01]</text><polygon fill="#181818" points="1463,1053.8457,1473,1057.8457,1463,1061.8457,1467,1057.8457" style="stroke:#181818;stroke-width:1.0;"/><line style="stroke:#181818;stroke-width:1.0;" x1="1190" x2="1469" y1="1057.8457" y2="1057.8457"/><text fill="#000000" font-family="sans-serif" font-size="13" font-weight="bold" lengthAdjust="spacing" textLength="38" x="1197" y="1053.1035">apply</text><text fill="#000000" font-family="sans-serif" font-size="13" lengthAdjust="spacing" textLength="128" x="1239" y="1053.1035">(access_token, args)</text><polygon fill="#181818" points="1206,1111.1563,1196,1115.1563,1206,1119.1563,1202,1115.1563" style="stroke:#181818;stroke-width:1.0;"/><line style="stroke:#181818;stroke-width:1.0;" x1="1200" x2="1474" y1="1115.1563" y2="1115.1563"/><text fill="#000000" font-family="sans-serif" font-size="13" font-weight="bold" lengthAdjust="spacing" textLength="53" x="1212" y="1110.4141">execute</text><text fill="#000000" font-family="sans-serif" font-size="13" lengthAdjust="spacing" textLength="199" x="1269" y="1110.4141">(access_token, 0x02, bar, args')</text><polygon fill="#181818" points="936,1140.4668,926,1144.4668,936,1148.4668,932,1144.4668" style="stroke:#181818;stroke-width:1.0;"/><line style="stroke:#181818;stroke-width:1.0;" x1="930" x2="1179" y1="1144.4668" y2="1144.4668"/><text fill="#000000" font-family="sans-serif" font-size="13" font-weight="bold" lengthAdjust="spacing" textLength="65" x="942" y="1139.7246">authorize</text><text fill="#000000" font-family="sans-serif" font-size="13" lengthAdjust="spacing" textLength="161" x="1011" y="1139.7246">(access_token, 0x02, bar)</text><polygon fill="#181818" points="1173,1169.7773,1183,1173.7773,1173,1177.7773,1177,1173.7773" style="stroke:#181818;stroke-width:1.0;"/><line style="stroke:#181818;stroke-width:1.0;stroke-dasharray:2.0,2.0;" x1="925" x2="1179" y1="1173.7773" y2="1173.7773"/><text fill="#000000" font-family="sans-serif" font-size="13" font-style="italic" lengthAdjust="spacing" textLength="67" x="932" y="1169.0352">authorized</text><polygon fill="#181818" points="839,1199.0879,829,1203.0879,839,1207.0879,835,1203.0879" style="stroke:#181818;stroke-width:1.0;"/><line style="stroke:#181818;stroke-width:1.0;" x1="833" x2="1179" y1="1203.0879" y2="1203.0879"/><text fill="#000000" font-family="sans-serif" font-size="13" font-weight="bold" lengthAdjust="spacing" textLength="22" x="845" y="1198.3457">get</text><text fill="#000000" font-family="sans-serif" font-size="13" lengthAdjust="spacing" textLength="40" x="871" y="1198.3457">(0x02)</text><polygon fill="#181818" points="1173,1228.3984,1183,1232.3984,1173,1236.3984,1177,1232.3984" style="stroke:#181818;stroke-width:1.0;"/><line style="stroke:#181818;stroke-width:1.0;stroke-dasharray:2.0,2.0;" x1="828" x2="1179" y1="1232.3984" y2="1232.3984"/><text fill="#000000" font-family="sans-serif" font-size="13" font-style="italic" lengthAdjust="spacing" textLength="96" x="835" y="1227.6563">contract [0x02]</text><polygon fill="#181818" points="1621,1257.709,1631,1261.709,1621,1265.709,1625,1261.709" style="stroke:#181818;stroke-width:1.0;"/><line style="stroke:#181818;stroke-width:1.0;" x1="1195" x2="1627" y1="1261.709" y2="1261.709"/><text fill="#000000" font-family="sans-serif" font-size="13" font-weight="bold" lengthAdjust="spacing" textLength="38" x="1202" y="1256.9668">apply</text><text fill="#000000" font-family="sans-serif" font-size="13" lengthAdjust="spacing" textLength="131" x="1244" y="1256.9668">(access_token, args')</text><polygon fill="#181818" points="1206,1315.0195,1196,1319.0195,1206,1323.0195,1202,1319.0195" style="stroke:#181818;stroke-width:1.0;"/><line style="stroke:#181818;stroke-width:1.0;stroke-dasharray:2.0,2.0;" x1="1200" x2="1632" y1="1319.0195" y2="1319.0195"/><text fill="#000000" font-family="sans-serif" font-size="13" font-style="italic" lengthAdjust="spacing" textLength="36" x="1212" y="1314.2773">result</text><polygon fill="#181818" points="1463,1344.3301,1473,1348.3301,1463,1352.3301,1467,1348.3301" style="stroke:#181818;stroke-width:1.0;"/><line style="stroke:#181818;stroke-width:1.0;stroke-dasharray:2.0,2.0;" x1="1195" x2="1469" y1="1348.3301" y2="1348.3301"/><text fill="#000000" font-family="sans-serif" font-size="13" font-style="italic" lengthAdjust="spacing" textLength="36" x="1210" y="1343.5879">result</text><polygon fill="#181818" points="1201,1401.6406,1191,1405.6406,1201,1409.6406,1197,1405.6406" style="stroke:#181818;stroke-width:1.0;"/><line style="stroke:#181818;stroke-width:1.0;stroke-dasharray:2.0,2.0;" x1="1195" x2="1474" y1="1405.6406" y2="1405.6406"/><text fill="#000000" font-family="sans-serif" font-size="13" font-style="italic" lengthAdjust="spacing" textLength="39" x="1211" y="1400.8984">result'</text><polygon fill="#181818" points="642,1430.9512,632,1434.9512,642,1438.9512,638,1434.9512" style="stroke:#181818;stroke-width:1.0;"/><line style="stroke:#181818;stroke-width:1.0;stroke-dasharray:2.0,2.0;" x1="636" x2="1179" y1="1434.9512" y2="1434.9512"/><text fill="#000000" font-family="sans-serif" font-size="13" font-style="italic" lengthAdjust="spacing" textLength="283" x="648" y="1430.209">publicTranscripts, privateTranscripts, results</text><polygon fill="#181818" points="1262.5,1460.2617,1272.5,1464.2617,1262.5,1468.2617,1266.5,1464.2617" style="stroke:#181818;stroke-width:1.0;"/><line style="stroke:#181818;stroke-width:1.0;" x1="631" x2="1268.5" y1="1464.2617" y2="1464.2617"/><text fill="#000000" font-family="sans-serif" font-size="13" font-weight="bold" lengthAdjust="spacing" textLength="39" x="638" y="1459.5195">prove</text><text fill="#000000" font-family="sans-serif" font-size="13" lengthAdjust="spacing" textLength="291" x="681" y="1459.5195">(publicTranscripts, privateTranscripts, results)</text><polygon fill="#181818" points="642,1489.5723,632,1493.5723,642,1497.5723,638,1493.5723" style="stroke:#181818;stroke-width:1.0;"/><line style="stroke:#181818;stroke-width:1.0;stroke-dasharray:2.0,2.0;" x1="636" x2="1273.5" y1="1493.5723" y2="1493.5723"/><text fill="#000000" font-family="sans-serif" font-size="13" font-style="italic" lengthAdjust="spacing" textLength="34" x="652" y="1488.8301">proof</text><polygon fill="#181818" points="324,1518.8828,314,1522.8828,324,1526.8828,320,1522.8828" style="stroke:#181818;stroke-width:1.0;"/><line style="stroke:#181818;stroke-width:1.0;stroke-dasharray:2.0,2.0;" x1="318" x2="620" y1="1522.8828" y2="1522.8828"/><text fill="#000000" font-family="sans-serif" font-size="13" font-style="italic" lengthAdjust="spacing" textLength="81" x="330" y="1518.1406">proof, result'</text><rect fill="none" height="47.1094" id="_title" style="stroke:none;stroke-width:1.0;" width="222" x="742.75" y="1550.8828"/><text fill="#888888" font-family="sans-serif" font-size="10" lengthAdjust="spacing" textLength="3" x="852.25" y="1560.5508"> </text><text fill="#888888" font-family="sans-serif" font-size="10" lengthAdjust="spacing" textLength="3" x="852.25" y="1572.3281"> </text><text fill="#888888" font-family="sans-serif" font-size="10" lengthAdjust="spacing" textLength="3" x="852.25" y="1584.1055"> </text><text fill="#888888" font-family="sans-serif" font-size="10" lengthAdjust="spacing" textLength="222" x="742.75" y="1595.8828">Copyright 2023, Input Output Hong Kong, Ltd.</text><!--MD5=[809337f1043680eeaa1dda32d6553223]
@startuml
!pragma teoz true
'- - - - - - - - - - - - - - - - - - - - - - - - - - - - - - - - - - - - - - - - - - - - - - - - - - - - - - - - - - -
' Please include this standard header
header %filename()\n%date("yyyy.MM.dd' at 'HH:mm z")\n\n\n
'- - - - - - - - - - - - - - - - - - - - - - - - - - - - - - - - - - - - - - - - - - - - - - - - - - - - - - - - - - -
hide footbox
title Contract Kernel - Sequence\n

participant "Authentication" as authentication
participant "Application [A]" as A
participant "Application [B]" as B

box "\nContract Kernel" #ddd
  participant "Kernel" as kernel
  database "Contract\nStore" as contracts
  participant "Authorization" as authorization
  participant "Runtime" as runtime
  participant "Proof Server" as proofServer
  box "\n  Contract [0x01]  " #eef
    participant "Function [foo]" as foo
  end box
  box "\n  Contract [0x02]  " #fee
    participant "Function [bar]" as bar
  end box
end box

== Installation [0x02] ==

B -> kernel ++ : **install** (0x02, contract [0x02], access_policy)
  kernel -> contracts ++ : **set** (0x02, contract [0x02])
  return //ack//
  kernel -> authorization ++ : **set** (0x02, access_policy)
  return //ack//
return //ack//

== Installation [0x01] ==

A -> kernel ++ : **install** (0x01, contract [0x01], access_policy)
  kernel -> contracts ++ : **set** (0x01, contract [0x01])
  return //ack//
  kernel -> authorization ++ : **set** (0x01, access_policy)
  return //ack//
return //ack//

== Authentication [B] ==

B -> authentication ++ : **authenticate** (context)
return //access_token//

== Invocation [0x01.foo] ==

B -> kernel ++ : **call** (access_token, 0x01, foo, args)
kernel -> runtime ++ : **execute** (access_token, 0x01, foo, args)
runtime -> authorization ++ : **authorize** (access_token, 0x01, foo)
return //authorized//
runtime -> contracts ++ : **get** (0x01)
return //contract [0x01]//
runtime -> foo ++ : **apply** (access_token, args)
...
foo -> runtime ++ : **execute** (access_token, 0x02, bar, args')
runtime -> authorization ++ : **authorize** (access_token, 0x02, bar)
return //authorized//
runtime -> contracts ++ : **get** (0x02)
return //contract [0x02]//
runtime -> bar ++ : **apply** (access_token, args')
...
return //result//
return //  result//
...
return // result'//
return //publicTranscripts, privateTranscripts, results//
kernel -> proofServer ++: **prove** (publicTranscripts, privateTranscripts, results)
return // proof//
return //proof, result'//

'- - - - - - - - - - - - - - - - - - - - - - - - - - - - - - - - - - - - - - - - - - - - - - - - - - - - - - - - - - -
' Please include this standard footer
footer \n\n\nCopyright %date("yyyy"), Input Output Hong Kong, Ltd.
'- - - - - - - - - - - - - - - - - - - - - - - - - - - - - - - - - - - - - - - - - - - - - - - - - - - - - - - - - - -

@enduml

@startuml
!pragma teoz true
header two-contracts-two-apps.puml\n2023.04.04 at 15:44 CDT\n\n\n
hide footbox
title Contract Kernel - Sequence\n

participant "Authentication" as authentication
participant "Application [A]" as A
participant "Application [B]" as B

box "\nContract Kernel" #ddd
  participant "Kernel" as kernel
  database "Contract\nStore" as contracts
  participant "Authorization" as authorization
  participant "Runtime" as runtime
  participant "Proof Server" as proofServer
  box "\n  Contract [0x01]  " #eef
    participant "Function [foo]" as foo
  end box
  box "\n  Contract [0x02]  " #fee
    participant "Function [bar]" as bar
  end box
end box

== Installation [0x02] ==

B -> kernel ++ : **install** (0x02, contract [0x02], access_policy)
  kernel -> contracts ++ : **set** (0x02, contract [0x02])
  return //ack//
  kernel -> authorization ++ : **set** (0x02, access_policy)
  return //ack//
return //ack//

== Installation [0x01] ==

A -> kernel ++ : **install** (0x01, contract [0x01], access_policy)
  kernel -> contracts ++ : **set** (0x01, contract [0x01])
  return //ack//
  kernel -> authorization ++ : **set** (0x01, access_policy)
  return //ack//
return //ack//

== Authentication [B] ==

B -> authentication ++ : **authenticate** (context)
return //access_token//

== Invocation [0x01.foo] ==

B -> kernel ++ : **call** (access_token, 0x01, foo, args)
kernel -> runtime ++ : **execute** (access_token, 0x01, foo, args)
runtime -> authorization ++ : **authorize** (access_token, 0x01, foo)
return //authorized//
runtime -> contracts ++ : **get** (0x01)
return //contract [0x01]//
runtime -> foo ++ : **apply** (access_token, args)
...
foo -> runtime ++ : **execute** (access_token, 0x02, bar, args')
runtime -> authorization ++ : **authorize** (access_token, 0x02, bar)
return //authorized//
runtime -> contracts ++ : **get** (0x02)
return //contract [0x02]//
runtime -> bar ++ : **apply** (access_token, args')
...
return //result//
return //  result//
...
return // result'//
return //publicTranscripts, privateTranscripts, results//
kernel -> proofServer ++: **prove** (publicTranscripts, privateTranscripts, results)
return // proof//
return //proof, result'//

footer \n\n\nCopyright 2023, Input Output Hong Kong, Ltd.

@enduml

PlantUML version 1.2022.7(Mon Aug 22 12:01:30 CDT 2022)
(GPL source distribution)
Java Runtime: OpenJDK Runtime Environment
JVM: OpenJDK 64-Bit Server VM
Default Encoding: UTF-8
Language: en
Country: US
--></g></svg>