<?xml version="1.0" encoding="UTF-8" standalone="no"?><svg xmlns="http://www.w3.org/2000/svg" xmlns:xlink="http://www.w3.org/1999/xlink" contentStyleType="text/css" height="968px" preserveAspectRatio="none" style="width:454px;height:968px;background:#FFFFFF;" version="1.1" viewBox="0 0 454 968" width="454px" zoomAndPan="magnify"><defs/><g><ellipse cx="86.5" cy="16" fill="#222222" rx="10" ry="10" style="stroke:none;stroke-width:1.0;"/><g id="NewTicket"><rect fill="#F1F1F1" height="50" rx="12.5" ry="12.5" style="stroke:#181818;stroke-width:0.5;" width="90" x="41.5" y="103"/><line style="stroke:#181818;stroke-width:0.5;" x1="41.5" x2="131.5" y1="129.4883" y2="129.4883"/><text fill="#000000" font-family="sans-serif" font-size="14" lengthAdjust="spacing" textLength="70" x="51.5" y="121.5352">NewTicket</text></g><g id="Open"><rect fill="#F1F1F1" height="50" rx="12.5" ry="12.5" style="stroke:#181818;stroke-width:0.5;" width="57" x="58" y="230"/><line style="stroke:#181818;stroke-width:0.5;" x1="58" x2="115" y1="256.4883" y2="256.4883"/><text fill="#000000" font-family="sans-serif" font-size="14" lengthAdjust="spacing" textLength="37" x="68" y="248.5352">Open</text></g><g id="InReview"><rect fill="#F1F1F1" height="50" rx="12.5" ry="12.5" style="stroke:#181818;stroke-width:0.5;" width="80" x="46.5" y="688"/><line style="stroke:#181818;stroke-width:0.5;" x1="46.5" x2="126.5" y1="714.4883" y2="714.4883"/><text fill="#000000" font-family="sans-serif" font-size="14" lengthAdjust="spacing" textLength="60" x="56.5" y="706.5352">InReview</text></g><g id="UpdateMerged"><rect fill="#F1F1F1" height="50" rx="12.5" ry="12.5" style="stroke:#181818;stroke-width:0.5;" width="121" x="26" y="815"/><line style="stroke:#181818;stroke-width:0.5;" x1="26" x2="147" y1="841.4883" y2="841.4883"/><text fill="#000000" font-family="sans-serif" font-size="14" lengthAdjust="spacing" textLength="101" x="36" y="833.5352">UpdateMerged</text></g><ellipse cx="86.5" cy="952" fill="none" rx="10" ry="10" style="stroke:#222222;stroke-width:1.0;"/><ellipse cx="87" cy="952.5" fill="#222222" rx="6" ry="6" style="stroke:none;stroke-width:1.0;"/><rect fill="#F1F1F1" height="270.4883" rx="12.5" ry="12.5" style="stroke:#181818;stroke-width:0.5;" width="158.5" x="7" y="341"/><rect fill="#FFFFFF" height="242" rx="12.5" ry="12.5" style="stroke:#FFFFFF;stroke-width:1.0;" width="156.5" x="8" y="368.4883"/><line style="stroke:#181818;stroke-width:0.5;" x1="7" x2="165.5" y1="367.4883" y2="367.4883"/><text fill="#000000" font-family="sans-serif" font-size="14" lengthAdjust="spacing" textLength="73" x="49.75" y="359.5352">InProgress</text><g id="InProgress.Meetings"><rect fill="#F1F1F1" height="50" rx="12.5" ry="12.5" style="stroke:#181818;stroke-width:0.5;" width="82" x="53" y="379.4883"/><line style="stroke:#181818;stroke-width:0.5;" x1="53" x2="135" y1="405.9766" y2="405.9766"/><text fill="#000000" font-family="sans-serif" font-size="14" lengthAdjust="spacing" textLength="62" x="63" y="398.0234">Meetings</text></g><g id="InProgress.Research"><rect fill="#F1F1F1" height="50" rx="12.5" ry="12.5" style="stroke:#181818;stroke-width:0.5;" width="82" x="19" y="465.4883"/><line style="stroke:#181818;stroke-width:0.5;" x1="19" x2="101" y1="491.9766" y2="491.9766"/><text fill="#000000" font-family="sans-serif" font-size="14" lengthAdjust="spacing" textLength="62" x="29" y="484.0234">Research</text></g><g id="InProgress.Documentation"><rect fill="#F1F1F1" height="50" rx="12.5" ry="12.5" style="stroke:#181818;stroke-width:0.5;" width="125" x="31.5" y="551.4883"/><line style="stroke:#181818;stroke-width:0.5;" x1="31.5" x2="156.5" y1="577.9766" y2="577.9766"/><text fill="#000000" font-family="sans-serif" font-size="14" lengthAdjust="spacing" textLength="105" x="41.5" y="570.0234">Documentation</text></g><!--MD5=[546f87b084045a9ce81fe362e77b6a0b]
link Meetings to Research--><g id="link_Meetings_Research"><path d="M84.17,429.7883 C80.29,439.3583 75.8,450.4383 71.76,460.4383 " fill="none" id="Meetings-to-Research" style="stroke:#181818;stroke-width:1.0;"/><polygon fill="#181818" points="69.81,465.2483,76.8919,458.4038,71.6842,460.6128,69.4752,455.4051,69.81,465.2483" style="stroke:#181818;stroke-width:1.0;"/></g><!--MD5=[48f8cde738f651c57fa7d38b77f2d18f]
link Research to Documentation--><g id="link_Research_Documentation"><path d="M69.83,515.7883 C73.71,525.3583 78.2,536.4383 82.24,546.4383 " fill="none" id="Research-to-Documentation" style="stroke:#181818;stroke-width:1.0;"/><polygon fill="#181818" points="84.19,551.2483,84.5248,541.4051,82.3158,546.6128,77.1081,544.4038,84.19,551.2483" style="stroke:#181818;stroke-width:1.0;"/></g><!--MD5=[bdb2ca4f4a1147747a625e5c59695c3f]
link Documentation to Meetings--><g id="link_Documentation_Meetings"><path d="M102,551.2583 C105.17,540.4383 108.43,527.4583 110,515.4883 C112.89,493.4583 112.89,487.5183 110,465.4883 C108.66,455.2983 106.1,444.3683 103.41,434.6683 " fill="none" id="Documentation-to-Meetings" style="stroke:#181818;stroke-width:1.0;"/><polygon fill="#181818" points="102,429.7183,100.6187,439.4698,103.3698,434.527,108.3127,437.2781,102,429.7183" style="stroke:#181818;stroke-width:1.0;"/></g><!--MD5=[d76a4265dd943bed5cd0aec746739627]
link *start to NewTicket--><g id="link_*start_NewTicket"><path d="M86.5,26 C86.5,41.46 86.5,73.68 86.5,97.6 " fill="none" id="*start-to-NewTicket" style="stroke:#181818;stroke-width:1.0;"/><polygon fill="#181818" points="86.5,102.87,90.5,93.87,86.5,97.87,82.5,93.87,86.5,102.87" style="stroke:#181818;stroke-width:1.0;"/><text fill="#000000" font-family="sans-serif" font-size="13" lengthAdjust="spacing" textLength="287" x="87.5" y="69.5684">(offline or Tech Assembly) create a new ticket</text></g><!--MD5=[f77da981d6b2b6c4e3ea15d4f3659f61]
link NewTicket to Open--><g id="link_NewTicket_Open"><path d="M86.5,153.1 C86.5,173.59 86.5,203.08 86.5,224.88 " fill="none" id="NewTicket-to-Open" style="stroke:#181818;stroke-width:1.0;"/><polygon fill="#181818" points="86.5,229.97,90.5,220.97,86.5,224.97,82.5,220.97,86.5,229.97" style="stroke:#181818;stroke-width:1.0;"/><text fill="#000000" font-family="sans-serif" font-size="13" lengthAdjust="spacing" textLength="349" x="87.5" y="196.5684">(Tech Assembly) prioritize, refine, identify stakeholders</text></g><!--MD5=[84f1f8b2d3ff0566329c5442e7083230]
link Open to InProgress--><g id="link_Open_InProgress"><path d="M86.5,280.27 C86.5,294.71 86.5,314.31 86.5,335.54 " fill="none" id="Open-to-InProgress" style="stroke:#181818;stroke-width:1.0;"/><polygon fill="#181818" points="86.5,340.68,90.5,331.68,86.5,335.68,82.5,331.68,86.5,340.68" style="stroke:#181818;stroke-width:1.0;"/></g><!--MD5=[dfde809a94e13243b1694e37ff8bf8f1]
link InProgress to InProgress--><g id="link_InProgress_InProgress"><path d="M166.23,445.67 C186.13,447.79 201,457.9 201,476 C201,492.54 188.57,502.41 171.24,505.6 " fill="none" id="InProgress-to-InProgress" style="stroke:#181818;stroke-width:1.0;"/><polygon fill="#181818" points="166.23,506.33,175.7085,509.0055,171.1789,505.6169,174.5675,501.0873,166.23,506.33" style="stroke:#181818;stroke-width:1.0;"/><text fill="#000000" font-family="sans-serif" font-size="13" lengthAdjust="spacing" textLength="193" x="207" y="481.0684">(Tech Assembly) status update</text></g><!--MD5=[649528836960090a26aac61fd9c636be]
link InProgress to InReview--><g id="link_InProgress_InReview"><path d="M86.5,611.32 C86.5,638.19 86.5,663.87 86.5,682.57 " fill="none" id="InProgress-to-InReview" style="stroke:#181818;stroke-width:1.0;"/><polygon fill="#181818" points="86.5,687.65,90.5,678.65,86.5,682.65,82.5,678.65,86.5,687.65" style="stroke:#181818;stroke-width:1.0;"/><text fill="#000000" font-family="sans-serif" font-size="13" lengthAdjust="spacing" textLength="359" x="87.5" y="654.5684">(offline) prepare an update to the Architecture Repository</text></g><!--MD5=[72e4340ca927b1c94a0b552087c66880]
link InReview to InReview--><g id="link_InReview_InReview"><path d="M126.62,701.6 C145.24,700.36 161.5,704.16 161.5,713 C161.5,721.01 148.14,724.88 131.79,724.61 " fill="none" id="InReview-to-InReview" style="stroke:#181818;stroke-width:1.0;"/><polygon fill="#181818" points="126.62,724.4,135.4524,728.7575,131.616,724.6004,135.7731,720.764,126.62,724.4" style="stroke:#181818;stroke-width:1.0;"/><text fill="#000000" font-family="sans-serif" font-size="13" lengthAdjust="spacing" textLength="193" x="167.5" y="718.0684">(Tech Assembly) status update</text></g><!--MD5=[9728219ac6cb276b1083c95fc4d298f9]
link InReview to UpdateMerged--><g id="link_InReview_UpdateMerged"><path d="M86.5,738.1 C86.5,758.59 86.5,788.08 86.5,809.88 " fill="none" id="InReview-to-UpdateMerged" style="stroke:#181818;stroke-width:1.0;"/><polygon fill="#181818" points="86.5,814.97,90.5,805.97,86.5,809.97,82.5,805.97,86.5,814.97" style="stroke:#181818;stroke-width:1.0;"/><text fill="#000000" font-family="sans-serif" font-size="13" lengthAdjust="spacing" textLength="326" x="87.5" y="781.5684">(offline) all stakeholders agree on the final outcome</text></g><!--MD5=[f54affc19bee71a789a6d263786c7724]
link UpdateMerged to *end--><g id="link_UpdateMerged_*end"><path d="M86.5,865.14 C86.5,887.03 86.5,918.57 86.5,936.71 " fill="none" id="UpdateMerged-to-*end" style="stroke:#181818;stroke-width:1.0;"/><polygon fill="#181818" points="86.5,941.88,90.5,932.88,86.5,936.88,82.5,932.88,86.5,941.88" style="stroke:#181818;stroke-width:1.0;"/><text fill="#000000" font-family="sans-serif" font-size="13" lengthAdjust="spacing" textLength="323" x="87.5" y="908.5684">(Tech Assembly) short presentation of the outcome</text></g><!--MD5=[303490b3d5ce7140b412a669cad6a307]
@startuml

state InProgress {
    Meetings - -> Research
    Research - -> Documentation
    Documentation - -> Meetings
}

[*] - -> NewTicket : (offline or Tech Assembly) create a new ticket
NewTicket - -> Open : (Tech Assembly) prioritize, refine, identify stakeholders
Open - -> InProgress
InProgress - -> InProgress : (Tech Assembly) status update
InProgress - -> InReview : (offline) prepare an update to the Architecture Repository
InReview - -> InReview : (Tech Assembly) status update
InReview - -> UpdateMerged : (offline) all stakeholders agree on the final outcome
UpdateMerged - -> [*] : (Tech Assembly) short presentation of the outcome

@enduml

PlantUML version 1.2022.3(Tue Mar 29 18:10:57 CEST 2022)
(GPL source distribution)
Java Runtime: OpenJDK Runtime Environment
JVM: OpenJDK 64-Bit Server VM
Default Encoding: UTF-8
Language: en
Country: PL
--></g></svg>