<?xml version="1.0" encoding="UTF-8" standalone="no"?><svg xmlns="http://www.w3.org/2000/svg" xmlns:xlink="http://www.w3.org/1999/xlink" contentStyleType="text/css" height="968px" preserveAspectRatio="none" style="width:463px;height:968px;background:#FFFFFF;" version="1.1" viewBox="0 0 463 968" width="463px" zoomAndPan="magnify"><defs/><g><ellipse cx="88" cy="16" fill="#222222" rx="10" ry="10" style="stroke:none;stroke-width:1.0;"/><g id="NewTicket"><rect fill="#F1F1F1" height="50" rx="12.5" ry="12.5" style="stroke:#181818;stroke-width:0.5;" width="92" x="42" y="103"/><line style="stroke:#181818;stroke-width:0.5;" x1="42" x2="134" y1="129.2969" y2="129.2969"/><text fill="#000000" font-family="sans-serif" font-size="14" lengthAdjust="spacing" textLength="72" x="52" y="120.9951">NewTicket</text></g><g id="Open"><rect fill="#F1F1F1" height="50" rx="12.5" ry="12.5" style="stroke:#181818;stroke-width:0.5;" width="58" x="59" y="230"/><line style="stroke:#181818;stroke-width:0.5;" x1="59" x2="117" y1="256.2969" y2="256.2969"/><text fill="#000000" font-family="sans-serif" font-size="14" lengthAdjust="spacing" textLength="38" x="69" y="247.9951">Open</text></g><g id="InReview"><rect fill="#F1F1F1" height="50" rx="12.5" ry="12.5" style="stroke:#181818;stroke-width:0.5;" width="81" x="47.5" y="688"/><line style="stroke:#181818;stroke-width:0.5;" x1="47.5" x2="128.5" y1="714.2969" y2="714.2969"/><text fill="#000000" font-family="sans-serif" font-size="14" lengthAdjust="spacing" textLength="61" x="57.5" y="705.9951">InReview</text></g><g id="UpdateMerged"><rect fill="#F1F1F1" height="50" rx="12.5" ry="12.5" style="stroke:#181818;stroke-width:0.5;" width="123" x="26.5" y="815"/><line style="stroke:#181818;stroke-width:0.5;" x1="26.5" x2="149.5" y1="841.2969" y2="841.2969"/><text fill="#000000" font-family="sans-serif" font-size="14" lengthAdjust="spacing" textLength="103" x="36.5" y="832.9951">UpdateMerged</text></g><ellipse cx="88" cy="952" fill="none" rx="10" ry="10" style="stroke:#222222;stroke-width:1.0;"/><ellipse cx="88.5" cy="952.5" fill="#222222" rx="6" ry="6" style="stroke:none;stroke-width:1.0;"/><rect fill="#F1F1F1" height="270.2969" rx="12.5" ry="12.5" style="stroke:#181818;stroke-width:0.5;" width="162.5" x="7" y="341"/><rect fill="#FFFFFF" height="242" rx="12.5" ry="12.5" style="stroke:#FFFFFF;stroke-width:1.0;" width="160.5" x="8" y="368.2969"/><line style="stroke:#181818;stroke-width:0.5;" x1="7" x2="169.5" y1="367.2969" y2="367.2969"/><text fill="#000000" font-family="sans-serif" font-size="14" lengthAdjust="spacing" textLength="74" x="51.25" y="358.9951">InProgress</text><g id="InProgress.Meetings"><rect fill="#F1F1F1" height="50" rx="12.5" ry="12.5" style="stroke:#181818;stroke-width:0.5;" width="84" x="55" y="379.2969"/><line style="stroke:#181818;stroke-width:0.5;" x1="55" x2="139" y1="405.5938" y2="405.5938"/><text fill="#000000" font-family="sans-serif" font-size="14" lengthAdjust="spacing" textLength="64" x="65" y="397.292">Meetings</text></g><g id="InProgress.Research"><rect fill="#F1F1F1" height="50" rx="12.5" ry="12.5" style="stroke:#181818;stroke-width:0.5;" width="86" x="19" y="465.2969"/><line style="stroke:#181818;stroke-width:0.5;" x1="19" x2="105" y1="491.5938" y2="491.5938"/><text fill="#000000" font-family="sans-serif" font-size="14" lengthAdjust="spacing" textLength="66" x="29" y="483.292">Research</text></g><g id="InProgress.Documentation"><rect fill="#F1F1F1" height="50" rx="12.5" ry="12.5" style="stroke:#181818;stroke-width:0.5;" width="127" x="33.5" y="551.2969"/><line style="stroke:#181818;stroke-width:0.5;" x1="33.5" x2="160.5" y1="577.5938" y2="577.5938"/><text fill="#000000" font-family="sans-serif" font-size="14" lengthAdjust="spacing" textLength="107" x="43.5" y="569.292">Documentation</text></g><!--MD5=[546f87b084045a9ce81fe362e77b6a0b]
link Meetings to Research--><g id="link_Meetings_Research"><path d="M86.88,429.5969 C82.89,439.1669 78.27,450.2469 74.1,460.2469 " fill="none" id="Meetings-to-Research" style="stroke:#181818;stroke-width:1.0;"/><polygon fill="#181818" points="72.1,465.0569,79.2613,458.2955,74.0281,460.4436,71.88,455.2105,72.1,465.0569" style="stroke:#181818;stroke-width:1.0;"/></g><!--MD5=[48f8cde738f651c57fa7d38b77f2d18f]
link Research to Documentation--><g id="link_Research_Documentation"><path d="M72.12,515.5969 C76.11,525.1669 80.73,536.2469 84.9,546.2469 " fill="none" id="Research-to-Documentation" style="stroke:#181818;stroke-width:1.0;"/><polygon fill="#181818" points="86.9,551.0569,87.12,541.2105,84.9719,546.4436,79.7387,544.2955,86.9,551.0569" style="stroke:#181818;stroke-width:1.0;"/></g><!--MD5=[bdb2ca4f4a1147747a625e5c59695c3f]
link Documentation to Meetings--><g id="link_Documentation_Meetings"><path d="M105.5,551.0969 C108.87,540.2969 112.33,527.3069 114,515.2969 C117.06,493.2869 117.06,487.3069 114,465.2969 C112.58,455.0669 109.86,444.1369 107,434.4369 " fill="none" id="Documentation-to-Meetings" style="stroke:#181818;stroke-width:1.0;"/><polygon fill="#181818" points="105.5,429.4969,104.2949,439.2717,106.9564,434.2801,111.948,436.9415,105.5,429.4969" style="stroke:#181818;stroke-width:1.0;"/></g><!--MD5=[d76a4265dd943bed5cd0aec746739627]
link *start to NewTicket--><g id="link_*start_NewTicket"><path d="M88,26 C88,41.46 88,73.68 88,97.6 " fill="none" id="*start-to-NewTicket" style="stroke:#181818;stroke-width:1.0;"/><polygon fill="#181818" points="88,102.87,92,93.87,88,97.87,84,93.87,88,102.87" style="stroke:#181818;stroke-width:1.0;"/><text fill="#000000" font-family="sans-serif" font-size="13" lengthAdjust="spacing" textLength="290" x="89" y="69.0669">(offline or Tech Assembly) create a new ticket</text></g><!--MD5=[f77da981d6b2b6c4e3ea15d4f3659f61]
link NewTicket to Open--><g id="link_NewTicket_Open"><path d="M88,153.1 C88,173.59 88,203.08 88,224.88 " fill="none" id="NewTicket-to-Open" style="stroke:#181818;stroke-width:1.0;"/><polygon fill="#181818" points="88,229.97,92,220.97,88,224.97,84,220.97,88,229.97" style="stroke:#181818;stroke-width:1.0;"/><text fill="#000000" font-family="sans-serif" font-size="13" lengthAdjust="spacing" textLength="349" x="89" y="196.0669">(Tech Assembly) prioritize, refine, identify stakeholders</text></g><!--MD5=[84f1f8b2d3ff0566329c5442e7083230]
link Open to InProgress--><g id="link_Open_InProgress"><path d="M88,280.27 C88,294.71 88,314.31 88,335.54 " fill="none" id="Open-to-InProgress" style="stroke:#181818;stroke-width:1.0;"/><polygon fill="#181818" points="88,340.68,92,331.68,88,335.68,84,331.68,88,340.68" style="stroke:#181818;stroke-width:1.0;"/></g><!--MD5=[dfde809a94e13243b1694e37ff8bf8f1]
link InProgress to InProgress--><g id="link_InProgress_InProgress"><path d="M169.04,445.7 C189.07,447.88 204,457.98 204,476 C204,492.47 191.52,502.32 174.08,505.56 " fill="none" id="InProgress-to-InProgress" style="stroke:#181818;stroke-width:1.0;"/><polygon fill="#181818" points="169.04,506.3,178.526,508.9488,173.9869,505.5729,177.3627,501.0338,169.04,506.3" style="stroke:#181818;stroke-width:1.0;"/><text fill="#000000" font-family="sans-serif" font-size="13" lengthAdjust="spacing" textLength="199" x="210" y="480.5669">(Tech Assembly) status update</text></g><!--MD5=[649528836960090a26aac61fd9c636be]
link InProgress to InReview--><g id="link_InProgress_InReview"><path d="M88,611.32 C88,638.19 88,663.87 88,682.57 " fill="none" id="InProgress-to-InReview" style="stroke:#181818;stroke-width:1.0;"/><polygon fill="#181818" points="88,687.65,92,678.65,88,682.65,84,678.65,88,687.65" style="stroke:#181818;stroke-width:1.0;"/><text fill="#000000" font-family="sans-serif" font-size="13" lengthAdjust="spacing" textLength="366" x="89" y="654.0669">(offline) prepare an update to the Architecture Repository</text></g><!--MD5=[72e4340ca927b1c94a0b552087c66880]
link InReview to InReview--><g id="link_InReview_InReview"><path d="M128.78,701.58 C147.35,700.41 163.5,704.22 163.5,713 C163.5,720.96 150.24,724.83 133.93,724.62 " fill="none" id="InReview-to-InReview" style="stroke:#181818;stroke-width:1.0;"/><polygon fill="#181818" points="128.78,724.42,137.6253,728.7513,133.7766,724.6056,137.9223,720.7568,128.78,724.42" style="stroke:#181818;stroke-width:1.0;"/><text fill="#000000" font-family="sans-serif" font-size="13" lengthAdjust="spacing" textLength="199" x="169.5" y="717.5669">(Tech Assembly) status update</text></g><!--MD5=[9728219ac6cb276b1083c95fc4d298f9]
link InReview to UpdateMerged--><g id="link_InReview_UpdateMerged"><path d="M88,738.1 C88,758.59 88,788.08 88,809.88 " fill="none" id="InReview-to-UpdateMerged" style="stroke:#181818;stroke-width:1.0;"/><polygon fill="#181818" points="88,814.97,92,805.97,88,809.97,84,805.97,88,814.97" style="stroke:#181818;stroke-width:1.0;"/><text fill="#000000" font-family="sans-serif" font-size="13" lengthAdjust="spacing" textLength="329" x="89" y="781.0669">(offline) all stakeholders agree on the final outcome</text></g><!--MD5=[f54affc19bee71a789a6d263786c7724]
link UpdateMerged to *end--><g id="link_UpdateMerged_*end"><path d="M88,865.14 C88,887.03 88,918.57 88,936.71 " fill="none" id="UpdateMerged-to-*end" style="stroke:#181818;stroke-width:1.0;"/><polygon fill="#181818" points="88,941.88,92,932.88,88,936.88,84,932.88,88,941.88" style="stroke:#181818;stroke-width:1.0;"/><text fill="#000000" font-family="sans-serif" font-size="13" lengthAdjust="spacing" textLength="330" x="89" y="908.0669">(Tech Assembly) short presentation of the outcome</text></g><!--MD5=[fa208d103a5daf32b6465156d6f45bb3]
@startuml

state InProgress {
    Meetings - -> Research
    Research - -> Documentation
    Documentation - -> Meetings
}

[*] - -> NewTicket : (offline or Tech Assembly) create a new ticket
NewTicket - -> Open : (Tech Assembly) prioritize, refine, identify stakeholders
Open - -> InProgress
InProgress - -> InProgress : (Tech Assembly) status update
InProgress - -> InReview : (offline) prepare an update to the Architecture Repository
InReview - -> InReview : (Tech Assembly) status update
InReview - -> UpdateMerged : (offline) all stakeholders agree on the final outcome
UpdateMerged - -> [*] : (Tech Assembly) short presentation of the outcome

@enduml

PlantUML version 1.2022.3(Tue Mar 29 16:10:57 UTC 2022)
(GPL source distribution)
Java Runtime: OpenJDK Runtime Environment
JVM: OpenJDK 64-Bit Server VM
Default Encoding: ANSI_X3.4-1968
Language: en
Country: US
--></g></svg>