<?xml version="1.0" encoding="UTF-8" standalone="no"?><svg xmlns="http://www.w3.org/2000/svg" xmlns:xlink="http://www.w3.org/1999/xlink" contentStyleType="text/css" height="938px" preserveAspectRatio="none" style="width:845px;height:938px;background:#FFFFFF;" version="1.1" viewBox="0 0 845 938" width="845px" zoomAndPan="magnify"><defs/><g><!--MD5=[2bb3ae8521833b2439d654d03182b239]
class EncryptedPrivateKey--><g id="elem_EncryptedPrivateKey"><rect codeLine="2" fill="#F1F1F1" height="48" id="EncryptedPrivateKey" rx="2.5" ry="2.5" style="stroke:#181818;stroke-width:0.5;" width="173" x="154.5" y="774"/><ellipse cx="169.5" cy="790" fill="#ADD1B2" rx="11" ry="11" style="stroke:#181818;stroke-width:1.0;"/><path d="M164.6719,783.5781 L173.0313,783.5781 L173.0313,785.5156 L166.875,785.5156 L166.875,788.6563 L172.7813,788.6563 L172.7813,790.5938 L166.875,790.5938 L166.875,794.5625 L173.1875,794.5625 L173.1875,796.5 L164.6719,796.5 L164.6719,783.5781 Z " fill="#000000"/><text fill="#000000" font-family="sans-serif" font-size="14" lengthAdjust="spacing" textLength="141" x="183.5" y="794.8467">EncryptedPrivateKey</text><line style="stroke:#181818;stroke-width:0.5;" x1="155.5" x2="326.5" y1="806" y2="806"/><line style="stroke:#181818;stroke-width:0.5;" x1="155.5" x2="326.5" y1="814" y2="814"/></g><!--MD5=[b43eda3cf1795c310d0fc3c6dcee7a72]
class ViewingKey--><g id="elem_ViewingKey"><rect codeLine="3" fill="#F1F1F1" height="48" id="ViewingKey" rx="2.5" ry="2.5" style="stroke:#181818;stroke-width:0.5;" width="110" x="7" y="665"/><ellipse cx="22" cy="681" fill="#ADD1B2" rx="11" ry="11" style="stroke:#181818;stroke-width:1.0;"/><path d="M17.1719,674.5781 L25.5313,674.5781 L25.5313,676.5156 L19.375,676.5156 L19.375,679.6563 L25.2813,679.6563 L25.2813,681.5938 L19.375,681.5938 L19.375,685.5625 L25.6875,685.5625 L25.6875,687.5 L17.1719,687.5 L17.1719,674.5781 Z " fill="#000000"/><text fill="#000000" font-family="sans-serif" font-size="14" lengthAdjust="spacing" textLength="78" x="36" y="685.8467">ViewingKey</text><line style="stroke:#181818;stroke-width:0.5;" x1="8" x2="116" y1="697" y2="697"/><line style="stroke:#181818;stroke-width:0.5;" x1="8" x2="116" y1="705" y2="705"/></g><!--MD5=[c6d153f9551dd3a00861177ea9d737c1]
class KeyStore--><g id="elem_KeyStore"><rect codeLine="6" fill="#F1F1F1" height="48" id="KeyStore" rx="2.5" ry="2.5" style="stroke:#181818;stroke-width:0.5;" width="94" x="194" y="665"/><ellipse cx="209" cy="681" fill="#ADD1B2" rx="11" ry="11" style="stroke:#181818;stroke-width:1.0;"/><path d="M204.1719,674.5781 L212.5313,674.5781 L212.5313,676.5156 L206.375,676.5156 L206.375,679.6563 L212.2813,679.6563 L212.2813,681.5938 L206.375,681.5938 L206.375,685.5625 L212.6875,685.5625 L212.6875,687.5 L204.1719,687.5 L204.1719,674.5781 Z " fill="#000000"/><text fill="#000000" font-family="sans-serif" font-size="14" lengthAdjust="spacing" textLength="62" x="223" y="685.8467">KeyStore</text><line style="stroke:#181818;stroke-width:0.5;" x1="195" x2="287" y1="697" y2="697"/><line style="stroke:#181818;stroke-width:0.5;" x1="195" x2="287" y1="705" y2="705"/></g><!--MD5=[79593acfb0305ecf9e101e13abf886b9]
class KeyChain--><g id="elem_KeyChain"><rect codeLine="7" fill="#F1F1F1" height="48" id="KeyChain" rx="2.5" ry="2.5" style="stroke:#181818;stroke-width:0.5;" width="96" x="190" y="540"/><ellipse cx="205" cy="556" fill="#ADD1B2" rx="11" ry="11" style="stroke:#181818;stroke-width:1.0;"/><path d="M200.1719,549.5781 L208.5313,549.5781 L208.5313,551.5156 L202.375,551.5156 L202.375,554.6563 L208.2813,554.6563 L208.2813,556.5938 L202.375,556.5938 L202.375,560.5625 L208.6875,560.5625 L208.6875,562.5 L200.1719,562.5 L200.1719,549.5781 Z " fill="#000000"/><text fill="#000000" font-family="sans-serif" font-size="14" lengthAdjust="spacing" textLength="64" x="219" y="560.8467">KeyChain</text><line style="stroke:#181818;stroke-width:0.5;" x1="191" x2="285" y1="572" y2="572"/><line style="stroke:#181818;stroke-width:0.5;" x1="191" x2="285" y1="580" y2="580"/></g><!--MD5=[2a04af076941991142dd6447ef7c8ea1]
class RelevantTxFilter--><g id="elem_RelevantTxFilter"><rect codeLine="8" fill="#F1F1F1" height="64.2969" id="RelevantTxFilter" rx="2.5" ry="2.5" style="stroke:#181818;stroke-width:0.5;" width="194" x="286" y="374.5"/><ellipse cx="324.85" cy="390.5" fill="#ADD1B2" rx="11" ry="11" style="stroke:#181818;stroke-width:1.0;"/><path d="M320.0219,384.0781 L328.3813,384.0781 L328.3813,386.0156 L322.225,386.0156 L322.225,389.1563 L328.1313,389.1563 L328.1313,391.0938 L322.225,391.0938 L322.225,395.0625 L328.5375,395.0625 L328.5375,397 L320.0219,397 L320.0219,384.0781 Z " fill="#000000"/><text fill="#000000" font-family="sans-serif" font-size="14" lengthAdjust="spacing" textLength="109" x="344.15" y="395.3467">RelevantTxFilter</text><line style="stroke:#181818;stroke-width:0.5;" x1="287" x2="479" y1="406.5" y2="406.5"/><ellipse cx="297" cy="417.5" fill="#000000" rx="3" ry="3" style="stroke:#000000;stroke-width:1.0;"/><text fill="#000000" font-family="sans-serif" font-size="14" lengthAdjust="spacing" textLength="168" x="306" y="423.4951">filterDefinition: Definition</text><line style="stroke:#181818;stroke-width:0.5;" x1="287" x2="479" y1="430.7969" y2="430.7969"/></g><!--MD5=[2b385e3ef8f615e58d4080ccd927babc]
class SyncBlock--><g id="elem_SyncBlock"><rect codeLine="11" fill="#F1F1F1" height="48" id="SyncBlock" rx="2.5" ry="2.5" style="stroke:#181818;stroke-width:0.5;" width="103" x="384.5" y="665"/><ellipse cx="399.5" cy="681" fill="#ADD1B2" rx="11" ry="11" style="stroke:#181818;stroke-width:1.0;"/><path d="M394.6719,674.5781 L403.0313,674.5781 L403.0313,676.5156 L396.875,676.5156 L396.875,679.6563 L402.7813,679.6563 L402.7813,681.5938 L396.875,681.5938 L396.875,685.5625 L403.1875,685.5625 L403.1875,687.5 L394.6719,687.5 L394.6719,674.5781 Z " fill="#000000"/><text fill="#000000" font-family="sans-serif" font-size="14" lengthAdjust="spacing" textLength="71" x="413.5" y="685.8467">SyncBlock</text><line style="stroke:#181818;stroke-width:0.5;" x1="385.5" x2="486.5" y1="697" y2="697"/><line style="stroke:#181818;stroke-width:0.5;" x1="385.5" x2="486.5" y1="705" y2="705"/></g><!--MD5=[aaa82ee819e409c7f47a0f1375d8e1e8]
class SyncTransaction--><g id="elem_SyncTransaction"><rect codeLine="12" fill="#F1F1F1" height="48" id="SyncTransaction" rx="2.5" ry="2.5" style="stroke:#181818;stroke-width:0.5;" width="146" x="363" y="540"/><ellipse cx="378" cy="556" fill="#ADD1B2" rx="11" ry="11" style="stroke:#181818;stroke-width:1.0;"/><path d="M373.1719,549.5781 L381.5313,549.5781 L381.5313,551.5156 L375.375,551.5156 L375.375,554.6563 L381.2813,554.6563 L381.2813,556.5938 L375.375,556.5938 L375.375,560.5625 L381.6875,560.5625 L381.6875,562.5 L373.1719,562.5 L373.1719,549.5781 Z " fill="#000000"/><text fill="#000000" font-family="sans-serif" font-size="14" lengthAdjust="spacing" textLength="114" x="392" y="560.8467">SyncTransaction</text><line style="stroke:#181818;stroke-width:0.5;" x1="364" x2="508" y1="572" y2="572"/><line style="stroke:#181818;stroke-width:0.5;" x1="364" x2="508" y1="580" y2="580"/></g><!--MD5=[0164bdab82738efd25435ed1b870118f]
class RelevantTransaction--><g id="elem_RelevantTransaction"><rect codeLine="13" fill="#F1F1F1" height="48" id="RelevantTransaction" rx="2.5" ry="2.5" style="stroke:#181818;stroke-width:0.5;" width="173" x="527.5" y="665"/><ellipse cx="542.5" cy="681" fill="#ADD1B2" rx="11" ry="11" style="stroke:#181818;stroke-width:1.0;"/><path d="M537.6719,674.5781 L546.0313,674.5781 L546.0313,676.5156 L539.875,676.5156 L539.875,679.6563 L545.7813,679.6563 L545.7813,681.5938 L539.875,681.5938 L539.875,685.5625 L546.1875,685.5625 L546.1875,687.5 L537.6719,687.5 L537.6719,674.5781 Z " fill="#000000"/><text fill="#000000" font-family="sans-serif" font-size="14" lengthAdjust="spacing" textLength="141" x="556.5" y="685.8467">RelevantTransaction</text><line style="stroke:#181818;stroke-width:0.5;" x1="528.5" x2="699.5" y1="697" y2="697"/><line style="stroke:#181818;stroke-width:0.5;" x1="528.5" x2="699.5" y1="705" y2="705"/></g><!--MD5=[4899691ac04b654407999835b9998e46]
class TransactionHistory--><g id="elem_TransactionHistory"><rect codeLine="14" fill="#F1F1F1" height="48" id="TransactionHistory" rx="2.5" ry="2.5" style="stroke:#181818;stroke-width:0.5;" width="160" x="545" y="540"/><ellipse cx="560" cy="556" fill="#ADD1B2" rx="11" ry="11" style="stroke:#181818;stroke-width:1.0;"/><path d="M555.1719,549.5781 L563.5313,549.5781 L563.5313,551.5156 L557.375,551.5156 L557.375,554.6563 L563.2813,554.6563 L563.2813,556.5938 L557.375,556.5938 L557.375,560.5625 L563.6875,560.5625 L563.6875,562.5 L555.1719,562.5 L555.1719,549.5781 Z " fill="#000000"/><text fill="#000000" font-family="sans-serif" font-size="14" lengthAdjust="spacing" textLength="128" x="574" y="560.8467">TransactionHistory</text><line style="stroke:#181818;stroke-width:0.5;" x1="546" x2="704" y1="572" y2="572"/><line style="stroke:#181818;stroke-width:0.5;" x1="546" x2="704" y1="580" y2="580"/></g><!--MD5=[43c3931aad95f43f65e651b4a617536c]
class DAppConnection--><g id="elem_DAppConnection"><rect codeLine="15" fill="#F1F1F1" height="48" id="DAppConnection" rx="2.5" ry="2.5" style="stroke:#181818;stroke-width:0.5;" width="150" x="308" y="7"/><ellipse cx="323" cy="23" fill="#ADD1B2" rx="11" ry="11" style="stroke:#181818;stroke-width:1.0;"/><path d="M318.1719,16.5781 L326.5313,16.5781 L326.5313,18.5156 L320.375,18.5156 L320.375,21.6563 L326.2813,21.6563 L326.2813,23.5938 L320.375,23.5938 L320.375,27.5625 L326.6875,27.5625 L326.6875,29.5 L318.1719,29.5 L318.1719,16.5781 Z " fill="#000000"/><text fill="#000000" font-family="sans-serif" font-size="14" lengthAdjust="spacing" textLength="118" x="337" y="27.8467">DAppConnection</text><line style="stroke:#181818;stroke-width:0.5;" x1="309" x2="457" y1="39" y2="39"/><line style="stroke:#181818;stroke-width:0.5;" x1="309" x2="457" y1="47" y2="47"/></g><!--MD5=[55535a83c097026635c1692abc1750d2]
class SyncConnection--><g id="elem_SyncConnection"><rect codeLine="16" fill="#F1F1F1" height="48" id="SyncConnection" rx="2.5" ry="2.5" style="stroke:#181818;stroke-width:0.5;" width="145" x="363.5" y="774"/><ellipse cx="378.5" cy="790" fill="#B4A7E5" rx="11" ry="11" style="stroke:#181818;stroke-width:1.0;"/><path d="M376.6719,783.5781 L378.875,783.5781 L378.875,796.5 L376.6719,796.5 L376.6719,783.5781 Z " fill="#000000"/><text fill="#000000" font-family="sans-serif" font-size="14" font-style="italic" lengthAdjust="spacing" textLength="113" x="392.5" y="794.8467">SyncConnection</text><line style="stroke:#181818;stroke-width:0.5;" x1="364.5" x2="507.5" y1="806" y2="806"/><line style="stroke:#181818;stroke-width:0.5;" x1="364.5" x2="507.5" y1="814" y2="814"/></g><!--MD5=[deb3a582903b940fb493d0df4fa00845]
class WalletBackendConnection--><g id="elem_WalletBackendConnection"><rect codeLine="17" fill="#F1F1F1" height="48" id="WalletBackendConnection" rx="2.5" ry="2.5" style="stroke:#181818;stroke-width:0.5;" width="214" x="220" y="883"/><ellipse cx="235" cy="899" fill="#ADD1B2" rx="11" ry="11" style="stroke:#181818;stroke-width:1.0;"/><path d="M230.1719,892.5781 L238.5313,892.5781 L238.5313,894.5156 L232.375,894.5156 L232.375,897.6563 L238.2813,897.6563 L238.2813,899.5938 L232.375,899.5938 L232.375,903.5625 L238.6875,903.5625 L238.6875,905.5 L230.1719,905.5 L230.1719,892.5781 Z " fill="#000000"/><text fill="#000000" font-family="sans-serif" font-size="14" lengthAdjust="spacing" textLength="182" x="249" y="903.8467">WalletBackendConnection</text><line style="stroke:#181818;stroke-width:0.5;" x1="221" x2="433" y1="915" y2="915"/><line style="stroke:#181818;stroke-width:0.5;" x1="221" x2="433" y1="923" y2="923"/></g><!--MD5=[f2a04ac64d05db282901c06a4ada9ec8]
class NodeConnection--><g id="elem_NodeConnection"><rect codeLine="18" fill="#F1F1F1" height="48" id="NodeConnection" rx="2.5" ry="2.5" style="stroke:#181818;stroke-width:0.5;" width="149" x="469.5" y="883"/><ellipse cx="484.5" cy="899" fill="#ADD1B2" rx="11" ry="11" style="stroke:#181818;stroke-width:1.0;"/><path d="M479.6719,892.5781 L488.0313,892.5781 L488.0313,894.5156 L481.875,894.5156 L481.875,897.6563 L487.7813,897.6563 L487.7813,899.5938 L481.875,899.5938 L481.875,903.5625 L488.1875,903.5625 L488.1875,905.5 L479.6719,905.5 L479.6719,892.5781 Z " fill="#000000"/><text fill="#000000" font-family="sans-serif" font-size="14" lengthAdjust="spacing" textLength="117" x="498.5" y="903.8467">NodeConnection</text><line style="stroke:#181818;stroke-width:0.5;" x1="470.5" x2="617.5" y1="915" y2="915"/><line style="stroke:#181818;stroke-width:0.5;" x1="470.5" x2="617.5" y1="923" y2="923"/></g><!--MD5=[f18cbbd586a3bb29b8d64278e80b7c4d]
class StateSnapshot--><g id="elem_StateSnapshot"><rect codeLine="19" fill="#F1F1F1" height="113.1875" id="StateSnapshot" rx="2.5" ry="2.5" style="stroke:#181818;stroke-width:0.5;" width="222" x="515" y="350"/><ellipse cx="570.75" cy="366" fill="#ADD1B2" rx="11" ry="11" style="stroke:#181818;stroke-width:1.0;"/><path d="M565.9219,359.5781 L574.2813,359.5781 L574.2813,361.5156 L568.125,361.5156 L568.125,364.6563 L574.0313,364.6563 L574.0313,366.5938 L568.125,366.5938 L568.125,370.5625 L574.4375,370.5625 L574.4375,372.5 L565.9219,372.5 L565.9219,359.5781 Z " fill="#000000"/><text fill="#000000" font-family="sans-serif" font-size="14" lengthAdjust="spacing" textLength="102" x="591.25" y="370.8467">StateSnapshot</text><line style="stroke:#181818;stroke-width:0.5;" x1="516" x2="736" y1="382" y2="382"/><ellipse cx="526" cy="393" fill="#000000" rx="3" ry="3" style="stroke:#000000;stroke-width:1.0;"/><text fill="#000000" font-family="sans-serif" font-size="14" lengthAdjust="spacing" textLength="165" x="535" y="398.9951">newEvents: WalletEvent</text><ellipse cx="526" cy="409.2969" fill="#000000" rx="3" ry="3" style="stroke:#000000;stroke-width:1.0;"/><text fill="#000000" font-family="sans-serif" font-size="14" lengthAdjust="spacing" textLength="189" x="535" y="415.292">derivedState : DerivedState</text><ellipse cx="526" cy="425.5938" fill="#000000" rx="3" ry="3" style="stroke:#000000;stroke-width:1.0;"/><text fill="#000000" font-family="sans-serif" font-size="14" lengthAdjust="spacing" textLength="196" x="535" y="431.5889">knownAddresses: Address[]</text><ellipse cx="526" cy="441.8906" fill="#000000" rx="3" ry="3" style="stroke:#000000;stroke-width:1.0;"/><text fill="#000000" font-family="sans-serif" font-size="14" lengthAdjust="spacing" textLength="118" x="535" y="447.8857">balance: Balance</text><line style="stroke:#181818;stroke-width:0.5;" x1="516" x2="736" y1="455.1875" y2="455.1875"/></g><!--MD5=[869bf22e92cfa91ce7666e532000f6dd]
class WalletAPI--><g id="elem_WalletAPI"><rect codeLine="25" fill="#F1F1F1" height="48" id="WalletAPI" rx="2.5" ry="2.5" style="stroke:#181818;stroke-width:0.5;" width="94" x="336" y="116"/><ellipse cx="351" cy="132" fill="#B4A7E5" rx="11" ry="11" style="stroke:#181818;stroke-width:1.0;"/><path d="M349.1719,125.5781 L351.375,125.5781 L351.375,138.5 L349.1719,138.5 L349.1719,125.5781 Z " fill="#000000"/><text fill="#000000" font-family="sans-serif" font-size="14" font-style="italic" lengthAdjust="spacing" textLength="62" x="365" y="136.8467">WalletAPI</text><line style="stroke:#181818;stroke-width:0.5;" x1="337" x2="429" y1="148" y2="148"/><line style="stroke:#181818;stroke-width:0.5;" x1="337" x2="429" y1="156" y2="156"/></g><!--MD5=[9f070bf9f108c27faa2eb76515c78fb3]
class Wallet--><g id="elem_Wallet"><rect codeLine="26" fill="#F1F1F1" height="64.2969" id="Wallet" rx="2.5" ry="2.5" style="stroke:#181818;stroke-width:0.5;" width="227" x="269.5" y="225"/><ellipse cx="358.25" cy="241" fill="#ADD1B2" rx="11" ry="11" style="stroke:#181818;stroke-width:1.0;"/><path d="M353.4219,234.5781 L361.7813,234.5781 L361.7813,236.5156 L355.625,236.5156 L355.625,239.6563 L361.5313,239.6563 L361.5313,241.5938 L355.625,241.5938 L355.625,245.5625 L361.9375,245.5625 L361.9375,247.5 L353.4219,247.5 L353.4219,234.5781 Z " fill="#000000"/><text fill="#000000" font-family="sans-serif" font-size="14" lengthAdjust="spacing" textLength="41" x="378.75" y="245.8467">Wallet</text><line style="stroke:#181818;stroke-width:0.5;" x1="270.5" x2="495.5" y1="257" y2="257"/><ellipse cx="280.5" cy="268" fill="#000000" rx="3" ry="3" style="stroke:#000000;stroke-width:1.0;"/><text fill="#000000" font-family="sans-serif" font-size="14" lengthAdjust="spacing" textLength="201" x="289.5" y="273.9951">lastSnapshot: StateSnapshot</text><line style="stroke:#181818;stroke-width:0.5;" x1="270.5" x2="495.5" y1="281.2969" y2="281.2969"/></g><!--MD5=[b349b2c4b3fcbf6e99af8ef3754148f6]
reverse link WalletAPI to Wallet--><g id="link_WalletAPI_Wallet"><path codeLine="29" d="M383,184.64 C383,198.04 383,212.52 383,224.91 " fill="none" id="WalletAPI-backto-Wallet" style="stroke:#181818;stroke-width:1.0;"/><polygon fill="none" points="376,184.27,383,164.27,390,184.27,376,184.27" style="stroke:#181818;stroke-width:1.0;"/></g><!--MD5=[a4e4d8ff56731b9cc6b70ddca056ea7b]
link Wallet to StateSnapshot--><g id="link_Wallet_StateSnapshot"><path codeLine="31" d="M441.17,293.31 C466.91,308.93 497.92,327.75 527.12,345.48 " fill="none" id="Wallet-StateSnapshot" style="stroke:#181818;stroke-width:1.0;"/><line style="stroke:#181818;stroke-width:1.0;" x1="527.2565" x2="537.2074" y1="345.5768" y2="344.5874"/><line style="stroke:#181818;stroke-width:1.0;" x1="527.2565" x2="530.9926" y1="345.5768" y2="354.8526"/><line style="stroke:#181818;stroke-width:1.0;" x1="527.2565" x2="534.1" y1="345.5768" y2="349.72"/><line style="stroke:#181818;stroke-width:1.0;" x1="527.6172" x2="523.474" y1="341.1192" y2="347.9627"/><line style="stroke:#181818;stroke-width:1.0;" x1="435.5817" x2="439.7354" y1="294.5954" y2="287.7583"/><line style="stroke:#181818;stroke-width:1.0;" x1="438.1457" x2="442.2994" y1="296.1531" y2="289.3159"/><line style="stroke:#181818;stroke-width:1.0;" x1="441.0772" x2="434.24" y1="293.2537" y2="289.1"/></g><!--MD5=[f4aaeb60564af7e2b0ee51d26ab97764]
link Wallet to KeyChain--><g id="link_Wallet_KeyChain"><path codeLine="32" d="M322.19,293.26 C301.76,308.17 280.9,327.36 268,350 C234.88,408.12 233.42,489.2 235.53,532.64 " fill="none" id="Wallet-KeyChain" style="stroke:#181818;stroke-width:1.0;"/><line style="stroke:#181818;stroke-width:1.0;" x1="239.7039" x2="231.716" y1="535.586" y2="536.0261"/><line style="stroke:#181818;stroke-width:1.0;" x1="239.5388" x2="231.5509" y1="532.5905" y2="533.0307"/><line style="stroke:#181818;stroke-width:1.0;" x1="235.4899" x2="235.93" y1="531.8121" y2="539.8"/><line style="stroke:#181818;stroke-width:1.0;" x1="322.3628" x2="326.9942" y1="288.2242" y2="294.7472"/><line style="stroke:#181818;stroke-width:1.0;" x1="319.9166" x2="324.548" y1="289.9609" y2="296.484"/><line style="stroke:#181818;stroke-width:1.0;" x1="321.4169" x2="327.94" y1="293.8014" y2="289.17"/></g><!--MD5=[eac7d97cbb1d1f5ca7d64b87306b5bd1]
link Wallet to RelevantTxFilter--><g id="link_Wallet_RelevantTxFilter"><path codeLine="33" d="M383,297.51 C383,318.75 383,344.86 383,366.09 " fill="none" id="Wallet-RelevantTxFilter" style="stroke:#181818;stroke-width:1.0;"/><line style="stroke:#181818;stroke-width:1.0;" x1="383" x2="389" y1="366.26" y2="374.26"/><line style="stroke:#181818;stroke-width:1.0;" x1="383" x2="377" y1="366.26" y2="374.26"/><line style="stroke:#181818;stroke-width:1.0;" x1="383" x2="383" y1="366.26" y2="374.26"/><line style="stroke:#181818;stroke-width:1.0;" x1="387" x2="379" y1="364.26" y2="364.26"/><line style="stroke:#181818;stroke-width:1.0;" x1="379" x2="387" y1="293.28" y2="293.28"/><line style="stroke:#181818;stroke-width:1.0;" x1="379" x2="387" y1="296.28" y2="296.28"/><line style="stroke:#181818;stroke-width:1.0;" x1="383" x2="383" y1="297.28" y2="289.28"/></g><!--MD5=[57bb2d1dd60281233820eafac1c03891]
link StateSnapshot to TransactionHistory--><g id="link_StateSnapshot_TransactionHistory"><path codeLine="35" d="M625.59,471.32 C625.46,492.11 625.31,514.27 625.2,531.6 " fill="none" id="StateSnapshot-TransactionHistory" style="stroke:#181818;stroke-width:1.0;"/><line style="stroke:#181818;stroke-width:1.0;" x1="629.1785" x2="621.1787" y1="535.7187" y2="535.6615"/><line style="stroke:#181818;stroke-width:1.0;" x1="629.1999" x2="621.2001" y1="532.7187" y2="532.6616"/><line style="stroke:#181818;stroke-width:1.0;" x1="625.2071" x2="625.15" y1="531.6902" y2="539.69"/><line style="stroke:#181818;stroke-width:1.0;" x1="625.5829" x2="619.6402" y1="471.1998" y2="463.1571"/><line style="stroke:#181818;stroke-width:1.0;" x1="625.5829" x2="631.6398" y1="471.1998" y2="463.2429"/><line style="stroke:#181818;stroke-width:1.0;" x1="625.5829" x2="625.64" y1="471.1998" y2="463.2"/><line style="stroke:#181818;stroke-width:1.0;" x1="621.5687" x2="629.5685" y1="473.1712" y2="473.2283"/></g><!--MD5=[c4f3e82f27b32a11313cf9a67f530cbb]
link StateSnapshot to StateSnapshot--><g id="link_StateSnapshot_StateSnapshot"><path codeLine="36" d="M745.35,392.22 C761.36,394.63 772,399.39 772,406.5 C772,413.61 761.36,418.37 745.35,420.78 " fill="none" id="StateSnapshot-StateSnapshot" style="stroke:#181818;stroke-width:1.0;"/><line style="stroke:#181818;stroke-width:1.0;" x1="741.5336" x2="740.5906" y1="425.2706" y2="417.3264"/><line style="stroke:#181818;stroke-width:1.0;" x1="744.5127" x2="743.5697" y1="424.917" y2="416.9727"/><line style="stroke:#181818;stroke-width:1.0;" x1="745.0342" x2="737.09" y1="420.827" y2="421.77"/><line style="stroke:#181818;stroke-width:1.0;" x1="748.0133" x2="737.09" y1="392.5267" y2="391.23"/><ellipse cx="748.0133" cy="392.5267" fill="none" rx="4" ry="4" style="stroke:#181818;stroke-width:1.0;"/><line style="stroke:#181818;stroke-width:1.0;" x1="740.5906" x2="741.5336" y1="395.6736" y2="387.7294"/><text fill="#000000" font-family="sans-serif" font-size="13" lengthAdjust="spacing" textLength="54" x="778" y="411.0669">previous</text></g><!--MD5=[45dc4411079e1d24527a88f21fc8d174]
link TransactionHistory to RelevantTransaction--><g id="link_TransactionHistory_RelevantTransaction"><path codeLine="38" d="M622.2,596.28 C620.54,614.84 618.45,638.29 616.79,656.83 " fill="none" id="TransactionHistory-RelevantTransaction" style="stroke:#181818;stroke-width:1.0;"/><line style="stroke:#181818;stroke-width:1.0;" x1="616.774" x2="622.0361" y1="657.0019" y2="665.5055"/><line style="stroke:#181818;stroke-width:1.0;" x1="616.774" x2="610.0839" y1="657.0019" y2="664.4345"/><line style="stroke:#181818;stroke-width:1.0;" x1="616.774" x2="616.06" y1="657.0019" y2="664.97"/><ellipse cx="617.3095" cy="651.0259" fill="none" rx="4" ry="4" style="stroke:#181818;stroke-width:1.0;"/><line style="stroke:#181818;stroke-width:1.0;" x1="622.216" x2="616.9539" y1="596.1081" y2="587.6045"/><line style="stroke:#181818;stroke-width:1.0;" x1="622.216" x2="628.9061" y1="596.1081" y2="588.6755"/><line style="stroke:#181818;stroke-width:1.0;" x1="622.216" x2="622.93" y1="596.1081" y2="588.14"/><line style="stroke:#181818;stroke-width:1.0;" x1="618.0535" x2="626.0216" y1="597.7431" y2="598.4571"/></g><!--MD5=[2a2abfd1b618622b2ee9272ee4d4731a]
link DAppConnection to WalletAPI--><g id="link_DAppConnection_WalletAPI"><path codeLine="40" d="M383,63.61 C383,77.48 383,93.71 383,107.56 " fill="none" id="DAppConnection-WalletAPI" style="stroke:#181818;stroke-width:1.0;"/><line style="stroke:#181818;stroke-width:1.0;" x1="383" x2="389" y1="107.83" y2="115.83"/><line style="stroke:#181818;stroke-width:1.0;" x1="383" x2="377" y1="107.83" y2="115.83"/><line style="stroke:#181818;stroke-width:1.0;" x1="383" x2="383" y1="107.83" y2="115.83"/><ellipse cx="383" cy="101.83" fill="none" rx="4" ry="4" style="stroke:#181818;stroke-width:1.0;"/><line style="stroke:#181818;stroke-width:1.0;" x1="383" x2="377" y1="63.22" y2="55.22"/><line style="stroke:#181818;stroke-width:1.0;" x1="383" x2="389" y1="63.22" y2="55.22"/><line style="stroke:#181818;stroke-width:1.0;" x1="383" x2="383" y1="63.22" y2="55.22"/><ellipse cx="383" cy="69.22" fill="none" rx="4" ry="4" style="stroke:#181818;stroke-width:1.0;"/></g><!--MD5=[9554417bdbabf32227fb2396ffb6cc31]
link SyncBlock to SyncConnection--><g id="link_SyncBlock_SyncConnection"><path codeLine="41" d="M436,721.61 C436,735.48 436,751.71 436,765.56 " fill="none" id="SyncBlock-SyncConnection" style="stroke:#181818;stroke-width:1.0;"/><line style="stroke:#181818;stroke-width:1.0;" x1="436" x2="436" y1="762.83" y2="773.83"/><ellipse cx="436" cy="762.83" fill="none" rx="4" ry="4" style="stroke:#181818;stroke-width:1.0;"/><line style="stroke:#181818;stroke-width:1.0;" x1="440" x2="432" y1="769.83" y2="769.83"/><line style="stroke:#181818;stroke-width:1.0;" x1="436" x2="430" y1="721.22" y2="713.22"/><line style="stroke:#181818;stroke-width:1.0;" x1="436" x2="442" y1="721.22" y2="713.22"/><line style="stroke:#181818;stroke-width:1.0;" x1="436" x2="436" y1="721.22" y2="713.22"/><ellipse cx="436" cy="727.22" fill="none" rx="4" ry="4" style="stroke:#181818;stroke-width:1.0;"/></g><!--MD5=[77afeb5038c7b04febf7a65627a4db79]
reverse link SyncConnection to NodeConnection--><g id="link_SyncConnection_NodeConnection"><path codeLine="42" d="M474.09,836.74 C489.6,852.1 507.03,869.38 520.61,882.83 " fill="none" id="SyncConnection-backto-NodeConnection" style="stroke:#181818;stroke-width:1.0;"/><polygon fill="none" points="468.72,841.27,459.43,822.22,478.57,831.32,468.72,841.27" style="stroke:#181818;stroke-width:1.0;"/></g><!--MD5=[2936aa259481294a16e19adcf4c85c44]
reverse link SyncConnection to WalletBackendConnection--><g id="link_SyncConnection_WalletBackendConnection"><path codeLine="43" d="M398.05,836.26 C382.27,851.74 364.45,869.24 350.61,882.83 " fill="none" id="SyncConnection-backto-WalletBackendConnection" style="stroke:#181818;stroke-width:1.0;"/><polygon fill="none" points="393.17,831.23,412.35,822.22,402.98,841.22,393.17,831.23" style="stroke:#181818;stroke-width:1.0;"/></g><!--MD5=[05ca6f8a6d4981b0b974291c7d72e718]
link SyncTransaction to RelevantTransaction--><g id="link_SyncTransaction_RelevantTransaction"><path codeLine="44" d="M476.42,592.93 C505.58,613.08 544.78,640.17 573.88,660.27 " fill="none" id="SyncTransaction-RelevantTransaction" style="stroke:#181818;stroke-width:1.0;"/><line style="stroke:#181818;stroke-width:1.0;" x1="571.6216" x2="580.67" y1="658.7148" y2="664.97"/><ellipse cx="571.6216" cy="658.7148" fill="none" rx="4" ry="4" style="stroke:#181818;stroke-width:1.0;"/><line style="stroke:#181818;stroke-width:1.0;" x1="579.6543" x2="575.1051" y1="659.4051" y2="665.9857"/><line style="stroke:#181818;stroke-width:1.0;" x1="470.5014" x2="475.0439" y1="593.7039" y2="587.1186"/><line style="stroke:#181818;stroke-width:1.0;" x1="472.9708" x2="477.5134" y1="595.4073" y2="588.8221"/><line style="stroke:#181818;stroke-width:1.0;" x1="476.0652" x2="469.48" y1="592.6825" y2="588.14"/></g><!--MD5=[2aa3d5120051f38458f41a21db7af8ae]
link SyncTransaction to SyncBlock--><g id="link_SyncTransaction_SyncBlock"><path codeLine="45" d="M436,596.28 C436,614.84 436,638.29 436,656.83 " fill="none" id="SyncTransaction-SyncBlock" style="stroke:#181818;stroke-width:1.0;"/><line style="stroke:#181818;stroke-width:1.0;" x1="440" x2="432" y1="660.97" y2="660.97"/><line style="stroke:#181818;stroke-width:1.0;" x1="440" x2="432" y1="657.97" y2="657.97"/><line style="stroke:#181818;stroke-width:1.0;" x1="436" x2="436" y1="656.97" y2="664.97"/><line style="stroke:#181818;stroke-width:1.0;" x1="436" x2="430" y1="596.14" y2="588.14"/><line style="stroke:#181818;stroke-width:1.0;" x1="436" x2="442" y1="596.14" y2="588.14"/><line style="stroke:#181818;stroke-width:1.0;" x1="436" x2="436" y1="596.14" y2="588.14"/><line style="stroke:#181818;stroke-width:1.0;" x1="432" x2="440" y1="598.14" y2="598.14"/></g><!--MD5=[04109ef3968592d3e04ba9087877e9e5]
link RelevantTxFilter to KeyChain--><g id="link_RelevantTxFilter_KeyChain"><path codeLine="48" d="M348.3,444.71 C322.97,471.87 289.09,508.21 265.59,533.41 " fill="none" id="RelevantTxFilter-KeyChain" style="stroke:#181818;stroke-width:1.0;"/><line style="stroke:#181818;stroke-width:1.0;" x1="267.3585" x2="259.86" y1="531.5119" y2="539.56"/><ellipse cx="267.3585" cy="531.5119" fill="none" rx="4" ry="4" style="stroke:#181818;stroke-width:1.0;"/><line style="stroke:#181818;stroke-width:1.0;" x1="265.5133" x2="259.6601" y1="539.3601" y2="533.9067"/><line style="stroke:#181818;stroke-width:1.0;" x1="348.3569" x2="354.2173" y1="438.7973" y2="444.2431"/><line style="stroke:#181818;stroke-width:1.0;" x1="346.3148" x2="352.1751" y1="440.9949" y2="446.4407"/><line style="stroke:#181818;stroke-width:1.0;" x1="348.5642" x2="354.01" y1="444.4503" y2="438.59"/></g><!--MD5=[c07850bce0ea29074ca441d0105ae29c]
link RelevantTxFilter to SyncTransaction--><g id="link_RelevantTxFilter_SyncTransaction"><path codeLine="49" d="M396.19,446.2 C405.21,472.66 417,507.27 425.41,531.93 " fill="none" id="RelevantTxFilter-SyncTransaction" style="stroke:#181818;stroke-width:1.0;"/><line style="stroke:#181818;stroke-width:1.0;" x1="425.4373" x2="433.6913" y1="531.9849" y2="537.6305"/><line style="stroke:#181818;stroke-width:1.0;" x1="425.4373" x2="422.3287" y1="531.9849" y2="541.4895"/><line style="stroke:#181818;stroke-width:1.0;" x1="425.4373" x2="428.01" y1="531.9849" y2="539.56"/><ellipse cx="423.5078" cy="526.3037" fill="none" rx="4" ry="4" style="stroke:#181818;stroke-width:1.0;"/><line style="stroke:#181818;stroke-width:1.0;" x1="391.1074" x2="398.6781" y1="443.6681" y2="441.0826"/><line style="stroke:#181818;stroke-width:1.0;" x1="392.0769" x2="399.6476" y1="446.5071" y2="443.9216"/><line style="stroke:#181818;stroke-width:1.0;" x1="396.1855" x2="393.6" y1="446.1607" y2="438.59"/><text fill="#000000" font-family="sans-serif" font-size="13" lengthAdjust="spacing" textLength="114" x="419" y="506.0669">accepts or rejects</text></g><!--MD5=[46a40e25e98bf184adec2c33e3c821f4]
link KeyChain to ViewingKey--><g id="link_KeyChain_ViewingKey"><path codeLine="51" d="M182.88,569.07 C147.34,574.66 102.89,587.71 76,618 C66.49,628.71 62.71,644.02 61.43,657.6 " fill="none" id="KeyChain-ViewingKey" style="stroke:#181818;stroke-width:1.0;"/><line style="stroke:#181818;stroke-width:1.0;" x1="65.2132" x2="57.2303" y1="661.1903" y2="660.6668"/><line style="stroke:#181818;stroke-width:1.0;" x1="65.4095" x2="57.4266" y1="658.1967" y2="657.6733"/><line style="stroke:#181818;stroke-width:1.0;" x1="61.4835" x2="60.96" y1="656.9371" y2="664.92"/><line style="stroke:#181818;stroke-width:1.0;" x1="185.3228" x2="186.4816" y1="564.6716" y2="572.5872"/><line style="stroke:#181818;stroke-width:1.0;" x1="182.3544" x2="183.5132" y1="565.1061" y2="573.0218"/><line style="stroke:#181818;stroke-width:1.0;" x1="181.9444" x2="189.86" y1="569.2088" y2="568.05"/><text fill="#000000" font-family="sans-serif" font-size="13" lengthAdjust="spacing" textLength="154" x="77" y="631.0669">derives from private key</text></g><!--MD5=[111cd2fe4ae85a005e9d115304bf4493]
link KeyChain to KeyStore--><g id="link_KeyChain_KeyStore"><path codeLine="52" d="M238.74,595.15 C239.2,614.25 239.8,638.86 240.27,657.95 " fill="none" id="KeyChain-KeyStore" style="stroke:#181818;stroke-width:1.0;"/><line style="stroke:#181818;stroke-width:1.0;" x1="244.3409" x2="236.3433" y1="660.8733" y2="661.0691"/><line style="stroke:#181818;stroke-width:1.0;" x1="244.2674" x2="236.2698" y1="657.8742" y2="658.07"/><line style="stroke:#181818;stroke-width:1.0;" x1="240.2441" x2="240.44" y1="656.9724" y2="664.97"/><line style="stroke:#181818;stroke-width:1.0;" x1="234.6593" x2="242.6569" y1="592.2369" y2="592.0407"/><line style="stroke:#181818;stroke-width:1.0;" x1="234.7329" x2="242.7305" y1="595.236" y2="595.0398"/><line style="stroke:#181818;stroke-width:1.0;" x1="238.7563" x2="238.56" y1="596.1376" y2="588.14"/></g><!--MD5=[046f29df0507760fd8842fa727e2ee0d]
link KeyStore to EncryptedPrivateKey--><g id="link_KeyStore_EncryptedPrivateKey"><path codeLine="53" d="M241,720.24 C241,734.72 241,752.02 241,766.53 " fill="none" id="KeyStore-EncryptedPrivateKey" style="stroke:#181818;stroke-width:1.0;"/><line style="stroke:#181818;stroke-width:1.0;" x1="245" x2="237" y1="769.83" y2="769.83"/><line style="stroke:#181818;stroke-width:1.0;" x1="245" x2="237" y1="766.83" y2="766.83"/><line style="stroke:#181818;stroke-width:1.0;" x1="241" x2="241" y1="765.83" y2="773.83"/><line style="stroke:#181818;stroke-width:1.0;" x1="237" x2="245" y1="717.22" y2="717.22"/><line style="stroke:#181818;stroke-width:1.0;" x1="237" x2="245" y1="720.22" y2="720.22"/><line style="stroke:#181818;stroke-width:1.0;" x1="241" x2="241" y1="721.22" y2="713.22"/></g><!--MD5=[36569d3452841679b0f18bdef3b6c564]
@startuml

entity EncryptedPrivateKey {}
entity ViewingKey {

}
entity KeyStore {}
entity KeyChain {}
entity RelevantTxFilter {
  * filterDefinition: Definition
}
entity SyncBlock {}
entity SyncTransaction {}
entity RelevantTransaction {}
entity TransactionHistory {}
entity DAppConnection {}
interface SyncConnection {}
entity WalletBackendConnection {}
entity NodeConnection {}
entity StateSnapshot {
  * newEvents: WalletEvent
  * derivedState : DerivedState
  * knownAddresses: Address[]
  * balance: Balance
}
interface WalletAPI
entity Wallet {
  * lastSnapshot: StateSnapshot
}
WalletAPI <|- - Wallet

Wallet ||- -|{ StateSnapshot
Wallet ||- -|| KeyChain
Wallet ||- -|{ RelevantTxFilter

StateSnapshot }|- -|| TransactionHistory
StateSnapshot |o- -|| StateSnapshot : previous

TransactionHistory }|- -o{ RelevantTransaction

DAppConnection }o- -o{ WalletAPI
SyncBlock }o- -o| SyncConnection
SyncConnection <|- - NodeConnection
SyncConnection <|- - WalletBackendConnection
SyncTransaction ||- -o| RelevantTransaction
SyncTransaction }|- -|| SyncBlock


RelevantTxFilter ||- -o| KeyChain
RelevantTxFilter ||- -o{ SyncTransaction : accepts or rejects

KeyChain ||- -|| ViewingKey : derives from private key
KeyChain ||- -|| KeyStore
KeyStore ||- -|| EncryptedPrivateKey
@enduml

PlantUML version 1.2022.3(Tue Mar 29 16:10:57 UTC 2022)
(GPL source distribution)
Java Runtime: OpenJDK Runtime Environment
JVM: OpenJDK 64-Bit Server VM
Default Encoding: ANSI_X3.4-1968
Language: en
Country: US
--></g></svg>