<?xml version="1.0" encoding="us-ascii" standalone="no"?><svg xmlns="http://www.w3.org/2000/svg" xmlns:xlink="http://www.w3.org/1999/xlink" contentStyleType="text/css" height="540px" preserveAspectRatio="none" style="width:399px;height:540px;background:#FFFFFF;" version="1.1" viewBox="0 0 399 540" width="399px" zoomAndPan="magnify"><defs/><g><ellipse cx="182.5" cy="16" fill="#222222" rx="10" ry="10" style="stroke:#222222;stroke-width:1.0;"/><g id="seed"><rect fill="#F1F1F1" height="50.6211" rx="12.5" ry="12.5" style="stroke:#181818;stroke-width:0.5;" width="71" x="147" y="87"/><line style="stroke:#181818;stroke-width:0.5;" x1="147" x2="218" y1="113.4883" y2="113.4883"/><text fill="#000000" font-family="sans-serif" font-size="14" lengthAdjust="spacing" textLength="33" x="166" y="105.5352">Seed</text><text fill="#000000" font-family="sans-serif" font-size="12" lengthAdjust="spacing" textLength="51" x="152" y="130.0898">32 bytes</text></g><g id="ESK"><rect fill="#F1F1F1" height="50.6211" rx="12.5" ry="12.5" style="stroke:#181818;stroke-width:0.5;" width="167" x="7" y="214.62"/><line style="stroke:#181818;stroke-width:0.5;" x1="7" x2="174" y1="241.1083" y2="241.1083"/><text fill="#000000" font-family="sans-serif" font-size="14" lengthAdjust="spacing" textLength="147" x="17" y="233.1552">Encryption Secret Key</text><text fill="#000000" font-family="sans-serif" font-size="12" lengthAdjust="spacing" textLength="131" x="12" y="257.7098">Key to decrypt outputs</text></g><g id="CSK"><rect fill="#F1F1F1" height="50.6211" rx="12.5" ry="12.5" style="stroke:#181818;stroke-width:0.5;" width="129" x="211" y="214.62"/><line style="stroke:#181818;stroke-width:0.5;" x1="211" x2="340" y1="241.1083" y2="241.1083"/><text fill="#000000" font-family="sans-serif" font-size="14" lengthAdjust="spacing" textLength="106" x="222.5" y="233.1552">Coin Secret Key</text><text fill="#000000" font-family="sans-serif" font-size="12" lengthAdjust="spacing" textLength="109" x="216" y="257.7098">Key to spend coins</text></g><g id="EPK"><rect fill="#F1F1F1" height="50.6211" rx="12.5" ry="12.5" style="stroke:#181818;stroke-width:0.5;" width="166" x="7.5" y="342.24"/><line style="stroke:#181818;stroke-width:0.5;" x1="7.5" x2="173.5" y1="368.7283" y2="368.7283"/><text fill="#000000" font-family="sans-serif" font-size="14" lengthAdjust="spacing" textLength="146" x="17.5" y="360.7752">Encryption Public Key</text><text fill="#000000" font-family="sans-serif" font-size="12" lengthAdjust="spacing" textLength="130" x="12.5" y="385.3298">Key to encrypt outputs</text></g><g id="CPK"><rect fill="#F1F1F1" height="50.6211" rx="12.5" ry="12.5" style="stroke:#181818;stroke-width:0.5;" width="134" x="208.5" y="342.24"/><line style="stroke:#181818;stroke-width:0.5;" x1="208.5" x2="342.5" y1="368.7283" y2="368.7283"/><text fill="#000000" font-family="sans-serif" font-size="14" lengthAdjust="spacing" textLength="105" x="223" y="360.7752">Coin Public Key</text><text fill="#000000" font-family="sans-serif" font-size="12" lengthAdjust="spacing" textLength="114" x="213.5" y="385.3298">Key to receive coins</text></g><g id="addr"><rect fill="#F1F1F1" height="64.7539" rx="12.5" ry="12.5" style="stroke:#181818;stroke-width:0.5;" width="239" x="63" y="469.87"/><line style="stroke:#181818;stroke-width:0.5;" x1="63" x2="302" y1="496.3583" y2="496.3583"/><text fill="#000000" font-family="sans-serif" font-size="14" lengthAdjust="spacing" textLength="56" x="154.5" y="488.4052">Address</text><text fill="#000000" font-family="sans-serif" font-size="12" lengthAdjust="spacing" textLength="219" x="68" y="512.9598">Address for sharing with other parties</text><text fill="#000000" font-family="sans-serif" font-size="12" lengthAdjust="spacing" textLength="165" x="68" y="527.0927">Concatenation of public keys</text></g><!--link *start* to seed--><g id="link_*start*_seed"><path d="M182.5,26.39 C182.5,40.37 182.5,61.12 182.5,80.88 " fill="none" id="*start*-to-seed" style="stroke:#181818;stroke-width:1.0;"/><polygon fill="#181818" points="182.5,86.88,186.5,77.88,182.5,81.88,178.5,77.88,182.5,86.88" style="stroke:#181818;stroke-width:1.0;"/></g><!--link seed to ESK--><g id="link_seed_ESK"><path d="M146.56,123.74 C125.33,131.96 100.18,145.77 87.5,167.62 C79.42,181.56 79.1675,193.8417 82.0075,208.3517 " fill="none" id="seed-to-ESK" style="stroke:#181818;stroke-width:1.0;"/><polygon fill="#181818" points="83.16,214.24,85.3568,204.6393,82.1996,209.3331,77.5057,206.1759,83.16,214.24" style="stroke:#181818;stroke-width:1.0;"/><text fill="#000000" font-family="sans-serif" font-size="13" lengthAdjust="spacing" textLength="143" x="88.5" y="181.1884">sha256 "midnight:esk"</text></g><!--link seed to CSK--><g id="link_seed_CSK"><path d="M209.91,137.91 C218.96,146.78 228.7,157.18 236.5,167.62 C247.31,182.1 254.3934,194.5451 261.4434,208.7551 " fill="none" id="seed-to-CSK" style="stroke:#181818;stroke-width:1.0;"/><polygon fill="#181818" points="264.11,214.13,263.6933,204.29,261.8878,209.651,256.5268,207.8455,264.11,214.13" style="stroke:#181818;stroke-width:1.0;"/><text fill="#000000" font-family="sans-serif" font-size="13" lengthAdjust="spacing" textLength="143" x="248.5" y="181.1884">sha256 "midnight:csk"</text></g><!--link ESK to EPK--><g id="link_ESK_EPK"><path d="M90.5,265.45 C90.5,287.59 90.5,313.98 90.5,336.1 " fill="none" id="ESK-to-EPK" style="stroke:#181818;stroke-width:1.0;"/><polygon fill="#181818" points="90.5,342.1,94.5,333.1,90.5,337.1,86.5,333.1,90.5,342.1" style="stroke:#181818;stroke-width:1.0;"/><text fill="#000000" font-family="sans-serif" font-size="13" lengthAdjust="spacing" textLength="36" x="91.5" y="308.8084">ECDH</text></g><!--link CSK to CPK--><g id="link_CSK_CPK"><path d="M275.5,265.45 C275.5,287.59 275.5,313.98 275.5,336.1 " fill="none" id="CSK-to-CPK" style="stroke:#181818;stroke-width:1.0;"/><polygon fill="#181818" points="275.5,342.1,279.5,333.1,275.5,337.1,271.5,333.1,275.5,342.1" style="stroke:#181818;stroke-width:1.0;"/><text fill="#000000" font-family="sans-serif" font-size="13" lengthAdjust="spacing" textLength="93" x="276.5" y="308.8084">Poseidon Hash</text></g><!--link EPK to addr--><g id="link_EPK_addr"><path d="M107.59,393.2 C122.55,414.79 140.9724,441.3384 157.2024,464.7584 " fill="none" id="EPK-to-addr" style="stroke:#181818;stroke-width:1.0;"/><polygon fill="#181818" points="160.62,469.69,158.7814,460.0143,157.772,465.5804,152.206,464.571,160.62,469.69" style="stroke:#181818;stroke-width:1.0;"/><text fill="#000000" font-family="sans-serif" font-size="13" lengthAdjust="spacing" textLength="44" x="140.5" y="436.4384">Base16</text></g><!--link CPK to addr--><g id="link_CPK_addr"><path d="M258.23,393.2 C243.1,414.79 224.4744,441.3572 208.0544,464.7772 " fill="none" id="CPK-to-addr" style="stroke:#181818;stroke-width:1.0;"/><polygon fill="#181818" points="204.61,469.69,213.0519,464.617,207.4804,465.596,206.5014,460.0245,204.61,469.69" style="stroke:#181818;stroke-width:1.0;"/><text fill="#000000" font-family="sans-serif" font-size="13" lengthAdjust="spacing" textLength="44" x="237.5" y="436.4384">Base16</text></g><!--SRC=[RP71JiCm38RlUGghHwGT66A77f0WgpHfbqez0eSiyPPea4In2-hRawP3tQ2NIBQ_tx_jlDwzmshr18HenFYKgEdsDP1LwySDL9_EU7UoN2ETgvcHYumUcIoVshGPQUHs9-Gb8yTC6mYT2HvsYgp8K2afOr8DBuhmVYFaKb8GAqQekZn21OhAq3KyhE4mCD9lkV4w3P5TDkXG9sJOur3uibOEW0COB1I4dcFFI-AsFtmuFOlRMOn-KIo3- -SfhpmfeZUWCtKh-UCahvmIQdHVU2jwpbT1eW9F5xfau1ZI-2V9-HDyExOGs6A2g18xf3SlWzUvXLTbmt24E5cVSI3n0m00]--></g></svg>