<?xml version="1.0" encoding="UTF-8" standalone="no"?><svg xmlns="http://www.w3.org/2000/svg" xmlns:xlink="http://www.w3.org/1999/xlink" contentStyleType="text/css" height="666px" preserveAspectRatio="none" style="width:468px;height:666px;background:#FFFFFF;" version="1.1" viewBox="0 0 468 666" width="468px" zoomAndPan="magnify"><defs/><g><ellipse cx="216" cy="16" fill="#222222" rx="10" ry="10" style="stroke:none;stroke-width:1.0;"/><g id="seed"><rect fill="#F1F1F1" height="52.9766" rx="12.5" ry="12.5" style="stroke:#181818;stroke-width:0.5;" width="78" x="177" y="87"/><line style="stroke:#181818;stroke-width:0.5;" x1="177" x2="255" y1="113.4883" y2="113.4883"/><text fill="#000000" font-family="sans-serif" font-size="14" lengthAdjust="spacing" textLength="33" x="199.5" y="105.5352">Seed</text><text fill="#000000" font-family="sans-serif" font-size="14" lengthAdjust="spacing" textLength="58" x="182" y="132.0234">32 bytes</text></g><g id="RNG"><rect fill="#F1F1F1" height="52.9766" rx="12.5" ry="12.5" style="stroke:#181818;stroke-width:0.5;" width="209" x="111.5" y="201"/><line style="stroke:#181818;stroke-width:0.5;" x1="111.5" x2="320.5" y1="227.4883" y2="227.4883"/><text fill="#000000" font-family="sans-serif" font-size="14" lengthAdjust="spacing" textLength="189" x="121.5" y="219.5352">Random Number Generator</text><text fill="#000000" font-family="sans-serif" font-size="14" lengthAdjust="spacing" textLength="105" x="116.5" y="246.0234">ChaCha20 RNG</text></g><g id="ESK"><rect fill="#F1F1F1" height="52.9766" rx="12.5" ry="12.5" style="stroke:#181818;stroke-width:0.5;" width="174" x="9" y="331"/><line style="stroke:#181818;stroke-width:0.5;" x1="9" x2="183" y1="357.4883" y2="357.4883"/><text fill="#000000" font-family="sans-serif" font-size="14" lengthAdjust="spacing" textLength="147" x="22.5" y="349.5352">Encryption Secret Key</text><text fill="#000000" font-family="sans-serif" font-size="14" lengthAdjust="spacing" textLength="154" x="14" y="376.0234">Key to decrypt outputs</text></g><g id="CSK"><rect fill="#F1F1F1" height="52.9766" rx="12.5" ry="12.5" style="stroke:#181818;stroke-width:0.5;" width="239" x="218.5" y="331"/><line style="stroke:#181818;stroke-width:0.5;" x1="218.5" x2="457.5" y1="357.4883" y2="357.4883"/><text fill="#000000" font-family="sans-serif" font-size="14" lengthAdjust="spacing" textLength="106" x="285" y="349.5352">Coin Secret Key</text><text fill="#000000" font-family="sans-serif" font-size="14" lengthAdjust="spacing" textLength="219" x="223.5" y="376.0234">Key which allows to spend coins</text></g><g id="EPK"><rect fill="#F1F1F1" height="52.9766" rx="12.5" ry="12.5" style="stroke:#181818;stroke-width:0.5;" width="174" x="7" y="461"/><line style="stroke:#181818;stroke-width:0.5;" x1="7" x2="181" y1="487.4883" y2="487.4883"/><text fill="#000000" font-family="sans-serif" font-size="14" lengthAdjust="spacing" textLength="146" x="21" y="479.5352">Encryption Public Key</text><text fill="#000000" font-family="sans-serif" font-size="14" lengthAdjust="spacing" textLength="154" x="12" y="506.0234">Key to encrypt outputs</text></g><g id="CPK"><rect fill="#F1F1F1" height="52.9766" rx="12.5" ry="12.5" style="stroke:#181818;stroke-width:0.5;" width="245" x="216.5" y="461"/><line style="stroke:#181818;stroke-width:0.5;" x1="216.5" x2="461.5" y1="487.4883" y2="487.4883"/><text fill="#000000" font-family="sans-serif" font-size="14" lengthAdjust="spacing" textLength="105" x="286.5" y="479.5352">Coin Public Key</text><text fill="#000000" font-family="sans-serif" font-size="14" lengthAdjust="spacing" textLength="225" x="221.5" y="506.0234">Key which allows to receive coins</text></g><g id="addr"><rect fill="#F1F1F1" height="69.4648" rx="12.5" ry="12.5" style="stroke:#181818;stroke-width:0.5;" width="281" x="75.5" y="591"/><line style="stroke:#181818;stroke-width:0.5;" x1="75.5" x2="356.5" y1="617.4883" y2="617.4883"/><text fill="#000000" font-family="sans-serif" font-size="14" lengthAdjust="spacing" textLength="56" x="188" y="609.5352">Address</text><text fill="#000000" font-family="sans-serif" font-size="14" lengthAdjust="spacing" textLength="261" x="80.5" y="636.0234">Address for sharing with other parties</text><text fill="#000000" font-family="sans-serif" font-size="14" lengthAdjust="spacing" textLength="198" x="80.5" y="652.5117">Concatenation of public keys</text></g><!--MD5=[5378c656ec9378d49d92fa59ce89e943]
link *start to seed--><g id="link_*start_seed"><path d="M216,26.16 C216,38.57 216,61.38 216,80.44 " fill="none" id="*start-to-seed" style="stroke:#181818;stroke-width:1.0;"/><polygon fill="#181818" points="216,85.23,220,76.23,216,80.23,212,76.23,216,85.23" style="stroke:#181818;stroke-width:1.0;"/></g><!--MD5=[cc10cb2c4304fbd281cb9fda113206f9]
link seed to RNG--><g id="link_seed_RNG"><path d="M216,140.48 C216,156.59 216,177.42 216,194.54 " fill="none" id="seed-to-RNG" style="stroke:#181818;stroke-width:1.0;"/><polygon fill="#181818" points="216,199.15,220,190.15,216,194.15,212,190.15,216,199.15" style="stroke:#181818;stroke-width:1.0;"/></g><!--MD5=[d1c35ab73ef19e80643e489a63834be9]
link RNG to ESK--><g id="link_RNG_ESK"><path d="M182.1,254.46 C171.36,263.34 159.76,273.65 150,284 C138.03,296.7 126.26,312.06 116.79,325.36 " fill="none" id="RNG-to-ESK" style="stroke:#181818;stroke-width:1.0;"/><polygon fill="#181818" points="114.01,329.3,122.4694,324.2563,116.8945,325.216,115.9349,319.6411,114.01,329.3" style="stroke:#181818;stroke-width:1.0;"/><text fill="#000000" font-family="sans-serif" font-size="13" lengthAdjust="spacing" textLength="123" x="151" y="297.5684">1st generated value</text></g><!--MD5=[7944aa2e3b2aae0c96bc89f71ae3fcca]
link RNG to CSK--><g id="link_RNG_CSK"><path d="M247.38,254.34 C257.78,263.37 269.2,273.81 279,284 C291.62,297.13 304.52,312.68 315.02,326 " fill="none" id="RNG-to-CSK" style="stroke:#181818;stroke-width:1.0;"/><polygon fill="#181818" points="317.84,329.61,315.4432,320.0572,314.7585,325.6725,309.1432,324.9877,317.84,329.61" style="stroke:#181818;stroke-width:1.0;"/><text fill="#000000" font-family="sans-serif" font-size="13" lengthAdjust="spacing" textLength="127" x="293" y="297.5684">2nd generated value</text></g><!--MD5=[0cbb44a15e4e67439f93015100242bc9]
link ESK to EPK--><g id="link_ESK_EPK"><path d="M95.6,384.4 C95.28,404.53 94.84,432.56 94.51,454.15 " fill="none" id="ESK-to-EPK" style="stroke:#181818;stroke-width:1.0;"/><polygon fill="#181818" points="94.43,459.12,98.5582,450.1781,94.5014,454.1205,90.559,450.0638,94.43,459.12" style="stroke:#181818;stroke-width:1.0;"/><text fill="#000000" font-family="sans-serif" font-size="13" lengthAdjust="spacing" textLength="36" x="97" y="427.5684">ECDH</text></g><!--MD5=[88c88f702c5a25cc7bc231c02bf7e7be]
link CSK to CPK--><g id="link_CSK_CPK"><path d="M338.2,384.4 C338.36,404.53 338.58,432.56 338.75,454.15 " fill="none" id="CSK-to-CPK" style="stroke:#181818;stroke-width:1.0;"/><polygon fill="#181818" points="338.79,459.12,342.7127,450.086,338.7471,454.1202,334.713,450.1546,338.79,459.12" style="stroke:#181818;stroke-width:1.0;"/><text fill="#000000" font-family="sans-serif" font-size="13" lengthAdjust="spacing" textLength="93" x="339" y="427.5684">Poseidon Hash</text></g><!--MD5=[bb0de77c56b8a5af1145781880417635]
link EPK to addr--><g id="link_EPK_addr"><path d="M117.23,514.4 C135.37,534.62 160.85,563.02 181.39,585.92 " fill="none" id="EPK-to-addr" style="stroke:#181818;stroke-width:1.0;"/><polygon fill="#181818" points="184.68,589.59,181.6524,580.218,181.3431,585.8664,175.6947,585.5571,184.68,589.59" style="stroke:#181818;stroke-width:1.0;"/><text fill="#000000" font-family="sans-serif" font-size="13" lengthAdjust="spacing" textLength="44" x="160" y="557.5684">Base16</text></g><!--MD5=[73514036c22d069c20e65d1d86f6707b]
link CPK to addr--><g id="link_CPK_addr"><path d="M315.58,514.4 C297.29,534.62 271.6,563.02 250.9,585.92 " fill="none" id="CPK-to-addr" style="stroke:#181818;stroke-width:1.0;"/><polygon fill="#181818" points="247.57,589.59,256.58,585.6126,250.9298,585.8871,250.6553,580.2369,247.57,589.59" style="stroke:#181818;stroke-width:1.0;"/><text fill="#000000" font-family="sans-serif" font-size="13" lengthAdjust="spacing" textLength="44" x="289" y="557.5684">Base16</text></g><!--MD5=[2cd9b6c8dc8457d89c2b9be2027d61dd]
@startuml

[*] - -> seed
seed - -> RNG
RNG - -> ESK: 1st generated value
RNG - -> CSK: 2nd generated value
ESK - -> EPK: ECDH
CSK - -> CPK: Poseidon Hash
EPK - -> addr: Base16
CPK - -> addr: Base16

state "Seed" as seed: 32 bytes
state "Random Number Generator" as RNG: ChaCha20 RNG
state "Encryption Secret Key" as ESK: Key to decrypt outputs
state "Encryption Public Key" as EPK: Key to encrypt outputs
state "Coin Secret Key" as CSK: Key which allows to spend coins
state "Coin Public Key" as CPK: Key which allows to receive coins
state "Address" as addr: Address for sharing with other parties\nConcatenation of public keys

@enduml

PlantUML version 1.2022.3(Tue Mar 29 18:10:57 CEST 2022)
(GPL source distribution)
Java Runtime: OpenJDK Runtime Environment
JVM: OpenJDK 64-Bit Server VM
Default Encoding: UTF-8
Language: en
Country: PL
--></g></svg>