<?xml version="1.0" encoding="UTF-8" standalone="no"?><svg xmlns="http://www.w3.org/2000/svg" xmlns:xlink="http://www.w3.org/1999/xlink" contentStyleType="text/css" height="250px" preserveAspectRatio="none" style="width:667px;height:250px;background:#FFFFFF;" version="1.1" viewBox="0 0 667 250" width="667px" zoomAndPan="magnify"><defs/><g><line style="stroke:#181818;stroke-width:0.5;stroke-dasharray:5.0,5.0;" x1="51" x2="51" y1="36.2969" y2="214.9609"/><line style="stroke:#181818;stroke-width:0.5;stroke-dasharray:5.0,5.0;" x1="180" x2="180" y1="36.2969" y2="214.9609"/><line style="stroke:#181818;stroke-width:0.5;stroke-dasharray:5.0,5.0;" x1="347.5" x2="347.5" y1="36.2969" y2="214.9609"/><rect fill="#E2E2F0" height="30.2969" rx="2.5" ry="2.5" style="stroke:#181818;stroke-width:0.5;" width="93" x="5" y="5"/><text fill="#000000" font-family="sans-serif" font-size="14" lengthAdjust="spacing" textLength="79" x="12" y="24.9951">GameDApp</text><rect fill="#E2E2F0" height="30.2969" rx="2.5" ry="2.5" style="stroke:#181818;stroke-width:0.5;" width="93" x="5" y="213.9609"/><text fill="#000000" font-family="sans-serif" font-size="14" lengthAdjust="spacing" textLength="79" x="12" y="233.9561">GameDApp</text><rect fill="#E2E2F0" height="30.2969" rx="2.5" ry="2.5" style="stroke:#181818;stroke-width:0.5;" width="145" x="108" y="5"/><text fill="#000000" font-family="sans-serif" font-size="14" lengthAdjust="spacing" textLength="131" x="115" y="24.9951">GameScoringDApp</text><rect fill="#E2E2F0" height="30.2969" rx="2.5" ry="2.5" style="stroke:#181818;stroke-width:0.5;" width="145" x="108" y="213.9609"/><text fill="#000000" font-family="sans-serif" font-size="14" lengthAdjust="spacing" textLength="131" x="115" y="233.9561">GameScoringDApp</text><rect fill="#E2E2F0" height="30.2969" rx="2.5" ry="2.5" style="stroke:#181818;stroke-width:0.5;" width="102" x="296.5" y="5"/><text fill="#000000" font-family="sans-serif" font-size="14" lengthAdjust="spacing" textLength="88" x="303.5" y="24.9951">IdentityDApp</text><rect fill="#E2E2F0" height="30.2969" rx="2.5" ry="2.5" style="stroke:#181818;stroke-width:0.5;" width="102" x="296.5" y="213.9609"/><text fill="#000000" font-family="sans-serif" font-size="14" lengthAdjust="spacing" textLength="88" x="303.5" y="233.9561">IdentityDApp</text><polygon fill="#181818" points="168.5,63.4297,178.5,67.4297,168.5,71.4297,172.5,67.4297" style="stroke:#181818;stroke-width:1.0;"/><line style="stroke:#181818;stroke-width:1.0;" x1="51.5" x2="174.5" y1="67.4297" y2="67.4297"/><text fill="#000000" font-family="sans-serif" font-size="13" lengthAdjust="spacing" textLength="99" x="58.5" y="62.3638">"Check scoring"</text><polygon fill="#181818" points="335.5,92.5625,345.5,96.5625,335.5,100.5625,339.5,96.5625" style="stroke:#181818;stroke-width:1.0;"/><line style="stroke:#181818;stroke-width:1.0;" x1="180.5" x2="341.5" y1="96.5625" y2="96.5625"/><text fill="#000000" font-family="sans-serif" font-size="13" lengthAdjust="spacing" textLength="143" x="187.5" y="91.4966">"Is user over 13 years"</text><line style="stroke:#181818;stroke-width:1.0;" x1="347.5" x2="389.5" y1="125.6953" y2="125.6953"/><line style="stroke:#181818;stroke-width:1.0;" x1="389.5" x2="389.5" y1="125.6953" y2="138.6953"/><line style="stroke:#181818;stroke-width:1.0;" x1="348.5" x2="389.5" y1="138.6953" y2="138.6953"/><polygon fill="#181818" points="358.5,134.6953,348.5,138.6953,358.5,142.6953,354.5,138.6953" style="stroke:#181818;stroke-width:1.0;"/><text fill="#000000" font-family="sans-serif" font-size="13" lengthAdjust="spacing" textLength="306" x="354.5" y="120.6294">"Check private state, prepare proof and answer"</text><polygon fill="#181818" points="191.5,163.8281,181.5,167.8281,191.5,171.8281,187.5,167.8281" style="stroke:#181818;stroke-width:1.0;"/><line style="stroke:#181818;stroke-width:1.0;" x1="185.5" x2="346.5" y1="167.8281" y2="167.8281"/><text fill="#000000" font-family="sans-serif" font-size="13" lengthAdjust="spacing" textLength="72" x="197.5" y="162.7622">"Response"</text><polygon fill="#181818" points="62.5,192.9609,52.5,196.9609,62.5,200.9609,58.5,196.9609" style="stroke:#181818;stroke-width:1.0;"/><line style="stroke:#181818;stroke-width:1.0;" x1="56.5" x2="179.5" y1="196.9609" y2="196.9609"/><text fill="#000000" font-family="sans-serif" font-size="13" lengthAdjust="spacing" textLength="72" x="68.5" y="191.895">"Response"</text><!--MD5=[e6eb29dd906022efe456ae3b6e0f1c6f]
@startuml Dapp Communication

GameDApp -> GameScoringDApp : "Check scoring"
GameScoringDApp -> IdentityDApp : "Is user over 13 years"
IdentityDApp -> IdentityDApp : "Check private state, prepare proof and answer"
IdentityDApp -> GameScoringDApp : "Response"
GameScoringDApp -> GameDApp : "Response"

@enduml

PlantUML version 1.2022.3(Tue Mar 29 16:10:57 UTC 2022)
(GPL source distribution)
Java Runtime: OpenJDK Runtime Environment
JVM: OpenJDK 64-Bit Server VM
Default Encoding: ANSI_X3.4-1968
Language: en
Country: US
--></g></svg>