<?xml version="1.0" encoding="UTF-8" standalone="no"?><svg xmlns="http://www.w3.org/2000/svg" xmlns:xlink="http://www.w3.org/1999/xlink" contentStyleType="text/css" height="251px" preserveAspectRatio="none" style="width:654px;height:251px;background:#FFFFFF;" version="1.1" viewBox="0 0 654 251" width="654px" zoomAndPan="magnify"><defs/><g><line style="stroke:#181818;stroke-width:0.5;stroke-dasharray:5.0,5.0;" x1="50" x2="50" y1="36.4883" y2="216.041"/><line style="stroke:#181818;stroke-width:0.5;stroke-dasharray:5.0,5.0;" x1="177" x2="177" y1="36.4883" y2="216.041"/><line style="stroke:#181818;stroke-width:0.5;stroke-dasharray:5.0,5.0;" x1="341" x2="341" y1="36.4883" y2="216.041"/><rect fill="#E2E2F0" height="30.4883" rx="2.5" ry="2.5" style="stroke:#181818;stroke-width:0.5;" width="91" x="5" y="5"/><text fill="#000000" font-family="sans-serif" font-size="14" lengthAdjust="spacing" textLength="77" x="12" y="25.5352">GameDApp</text><rect fill="#E2E2F0" height="30.4883" rx="2.5" ry="2.5" style="stroke:#181818;stroke-width:0.5;" width="91" x="5" y="215.041"/><text fill="#000000" font-family="sans-serif" font-size="14" lengthAdjust="spacing" textLength="77" x="12" y="235.5762">GameDApp</text><rect fill="#E2E2F0" height="30.4883" rx="2.5" ry="2.5" style="stroke:#181818;stroke-width:0.5;" width="143" x="106" y="5"/><text fill="#000000" font-family="sans-serif" font-size="14" lengthAdjust="spacing" textLength="129" x="113" y="25.5352">GameScoringDApp</text><rect fill="#E2E2F0" height="30.4883" rx="2.5" ry="2.5" style="stroke:#181818;stroke-width:0.5;" width="143" x="106" y="215.041"/><text fill="#000000" font-family="sans-serif" font-size="14" lengthAdjust="spacing" textLength="129" x="113" y="235.5762">GameScoringDApp</text><rect fill="#E2E2F0" height="30.4883" rx="2.5" ry="2.5" style="stroke:#181818;stroke-width:0.5;" width="103" x="290" y="5"/><text fill="#000000" font-family="sans-serif" font-size="14" lengthAdjust="spacing" textLength="89" x="297" y="25.5352">IdentityDApp</text><rect fill="#E2E2F0" height="30.4883" rx="2.5" ry="2.5" style="stroke:#181818;stroke-width:0.5;" width="103" x="290" y="215.041"/><text fill="#000000" font-family="sans-serif" font-size="14" lengthAdjust="spacing" textLength="89" x="297" y="235.5762">IdentityDApp</text><polygon fill="#181818" points="165.5,63.7988,175.5,67.7988,165.5,71.7988,169.5,67.7988" style="stroke:#181818;stroke-width:1.0;"/><line style="stroke:#181818;stroke-width:1.0;" x1="50.5" x2="171.5" y1="67.7988" y2="67.7988"/><text fill="#000000" font-family="sans-serif" font-size="13" lengthAdjust="spacing" textLength="100" x="57.5" y="63.0566">"Check scoring"</text><polygon fill="#181818" points="329.5,93.1094,339.5,97.1094,329.5,101.1094,333.5,97.1094" style="stroke:#181818;stroke-width:1.0;"/><line style="stroke:#181818;stroke-width:1.0;" x1="177.5" x2="335.5" y1="97.1094" y2="97.1094"/><text fill="#000000" font-family="sans-serif" font-size="13" lengthAdjust="spacing" textLength="140" x="184.5" y="92.3672">"Is user over 13 years"</text><line style="stroke:#181818;stroke-width:1.0;" x1="341.5" x2="383.5" y1="126.4199" y2="126.4199"/><line style="stroke:#181818;stroke-width:1.0;" x1="383.5" x2="383.5" y1="126.4199" y2="139.4199"/><line style="stroke:#181818;stroke-width:1.0;" x1="342.5" x2="383.5" y1="139.4199" y2="139.4199"/><polygon fill="#181818" points="352.5,135.4199,342.5,139.4199,352.5,143.4199,348.5,139.4199" style="stroke:#181818;stroke-width:1.0;"/><text fill="#000000" font-family="sans-serif" font-size="13" lengthAdjust="spacing" textLength="299" x="348.5" y="121.6777">"Check private state, prepare proof and answer"</text><polygon fill="#181818" points="188.5,164.7305,178.5,168.7305,188.5,172.7305,184.5,168.7305" style="stroke:#181818;stroke-width:1.0;"/><line style="stroke:#181818;stroke-width:1.0;" x1="182.5" x2="340.5" y1="168.7305" y2="168.7305"/><text fill="#000000" font-family="sans-serif" font-size="13" lengthAdjust="spacing" textLength="70" x="194.5" y="163.9883">"Response"</text><polygon fill="#181818" points="61.5,194.041,51.5,198.041,61.5,202.041,57.5,198.041" style="stroke:#181818;stroke-width:1.0;"/><line style="stroke:#181818;stroke-width:1.0;" x1="55.5" x2="176.5" y1="198.041" y2="198.041"/><text fill="#000000" font-family="sans-serif" font-size="13" lengthAdjust="spacing" textLength="70" x="67.5" y="193.2988">"Response"</text><!--MD5=[92a5ce60866c106b7060f3f0797e4af8]
@startuml Dapp Communication

GameDApp -> GameScoringDApp : "Check scoring"
GameScoringDApp -> IdentityDApp : "Is user over 13 years"
IdentityDApp -> IdentityDApp : "Check private state, prepare proof and answer"
IdentityDApp -> GameScoringDApp : "Response"
GameScoringDApp -> GameDApp : "Response"

@enduml

PlantUML version 1.2022.3(Tue Mar 29 18:10:57 CEST 2022)
(GPL source distribution)
Java Runtime: OpenJDK Runtime Environment
JVM: OpenJDK 64-Bit Server VM
Default Encoding: UTF-8
Language: en
Country: PL
--></g></svg>