<?xml version="1.0" encoding="UTF-8" standalone="no"?><svg xmlns="http://www.w3.org/2000/svg" xmlns:xlink="http://www.w3.org/1999/xlink" contentStyleType="text/css" height="910px" preserveAspectRatio="none" style="width:849px;height:910px;background:#FFFFFF;" version="1.1" viewBox="0 0 849 910" width="849px" zoomAndPan="magnify"><defs/><g><rect height="775.252" style="stroke:#000000;stroke-width:1.5;fill:none;" width="832" x="10" y="82.7988"/><rect height="657.3652" style="stroke:#000000;stroke-width:1.5;fill:none;" width="812" x="20" y="193.6855"/><rect height="291.3945" style="stroke:#000000;stroke-width:1.5;fill:none;" width="792" x="30" y="552.6563"/><line style="stroke:#181818;stroke-width:0.5;fill:none;stroke-dasharray:5.0,5.0;" x1="67" x2="67" y1="36.4883" y2="875.0508"/><line style="stroke:#181818;stroke-width:0.5;fill:none;stroke-dasharray:5.0,5.0;" x1="362.5" x2="362.5" y1="36.4883" y2="875.0508"/><line style="stroke:#181818;stroke-width:0.5;fill:none;stroke-dasharray:5.0,5.0;" x1="566.5" x2="566.5" y1="36.4883" y2="875.0508"/><rect fill="#E2E2F0" height="30.4883" rx="2.5" ry="2.5" style="stroke:#181818;stroke-width:0.5;" width="54" x="40" y="5"/><text fill="#000000" font-family="sans-serif" font-size="14" lengthAdjust="spacing" textLength="40" x="47" y="25.5352">Client</text><rect fill="#E2E2F0" height="30.4883" rx="2.5" ry="2.5" style="stroke:#181818;stroke-width:0.5;" width="54" x="40" y="874.0508"/><text fill="#000000" font-family="sans-serif" font-size="14" lengthAdjust="spacing" textLength="40" x="47" y="894.5859">Client</text><rect fill="#E2E2F0" height="30.4883" rx="2.5" ry="2.5" style="stroke:#181818;stroke-width:0.5;" width="57" x="334.5" y="5"/><text fill="#000000" font-family="sans-serif" font-size="14" lengthAdjust="spacing" textLength="43" x="341.5" y="25.5352">Server</text><rect fill="#E2E2F0" height="30.4883" rx="2.5" ry="2.5" style="stroke:#181818;stroke-width:0.5;" width="57" x="334.5" y="874.0508"/><text fill="#000000" font-family="sans-serif" font-size="14" lengthAdjust="spacing" textLength="43" x="341.5" y="894.5859">Server</text><rect fill="#E2E2F0" height="30.4883" rx="2.5" ry="2.5" style="stroke:#181818;stroke-width:0.5;" width="71" x="531.5" y="5"/><text fill="#000000" font-family="sans-serif" font-size="14" lengthAdjust="spacing" textLength="57" x="538.5" y="25.5352">Network</text><rect fill="#E2E2F0" height="30.4883" rx="2.5" ry="2.5" style="stroke:#181818;stroke-width:0.5;" width="71" x="531.5" y="874.0508"/><text fill="#000000" font-family="sans-serif" font-size="14" lengthAdjust="spacing" textLength="57" x="538.5" y="894.5859">Network</text><polygon fill="#181818" points="351,63.7988,361,67.7988,351,71.7988,355,67.7988" style="stroke:#181818;stroke-width:1.0;"/><line style="stroke:#181818;stroke-width:1.0;stroke-dasharray:2.0,2.0;" x1="67" x2="357" y1="67.7988" y2="67.7988"/><text fill="#000000" font-family="sans-serif" font-size="13" lengthAdjust="spacing" textLength="202" x="74" y="63.0566">Transaction submission request</text><path d="M10,82.7988 L72,82.7988 L72,90.1094 L62,100.1094 L10,100.1094 L10,82.7988 " fill="#EEEEEE" style="stroke:#000000;stroke-width:1.5;"/><rect fill="none" height="775.252" style="stroke:#000000;stroke-width:1.5;" width="832" x="10" y="82.7988"/><text fill="#000000" font-family="sans-serif" font-size="13" font-weight="bold" lengthAdjust="spacing" textLength="17" x="25" y="96.3672">alt</text><text fill="#000000" font-family="sans-serif" font-size="11" font-weight="bold" lengthAdjust="spacing" textLength="167" x="87" y="95.4336">[transaction not well-formed]</text><polygon fill="#181818" points="78,117.4199,68,121.4199,78,125.4199,74,121.4199" style="stroke:#181818;stroke-width:1.0;"/><line style="stroke:#181818;stroke-width:1.0;stroke-dasharray:2.0,2.0;" x1="72" x2="362" y1="121.4199" y2="121.4199"/><text fill="#000000" font-family="sans-serif" font-size="13" lengthAdjust="spacing" textLength="243" x="84" y="116.6777">Submission error - tx not well-formed</text><line style="stroke:#000000;stroke-width:1.0;stroke-dasharray:2.0,2.0;" x1="10" x2="842" y1="130.4199" y2="130.4199"/><text fill="#000000" font-family="sans-serif" font-size="11" font-weight="bold" lengthAdjust="spacing" textLength="145" x="15" y="141.0547">[transaction well-formed]</text><line style="stroke:#181818;stroke-width:1.0;stroke-dasharray:2.0,2.0;" x1="363" x2="405" y1="165.6855" y2="165.6855"/><line style="stroke:#181818;stroke-width:1.0;stroke-dasharray:2.0,2.0;" x1="405" x2="405" y1="165.6855" y2="178.6855"/><line style="stroke:#181818;stroke-width:1.0;stroke-dasharray:2.0,2.0;" x1="364" x2="405" y1="178.6855" y2="178.6855"/><polygon fill="#181818" points="374,174.6855,364,178.6855,374,182.6855,370,178.6855" style="stroke:#181818;stroke-width:1.0;"/><text fill="#000000" font-family="sans-serif" font-size="13" lengthAdjust="spacing" textLength="105" x="370" y="160.9434">Add to mempool</text><path d="M20,193.6855 L82,193.6855 L82,200.9961 L72,210.9961 L20,210.9961 L20,193.6855 " fill="#EEEEEE" style="stroke:#000000;stroke-width:1.5;"/><rect fill="none" height="657.3652" style="stroke:#000000;stroke-width:1.5;" width="812" x="20" y="193.6855"/><text fill="#000000" font-family="sans-serif" font-size="13" font-weight="bold" lengthAdjust="spacing" textLength="17" x="35" y="207.2539">alt</text><text fill="#000000" font-family="sans-serif" font-size="11" font-weight="bold" lengthAdjust="spacing" textLength="165" x="97" y="206.3203">[broadcast timeouts in client]</text><line style="stroke:#181818;stroke-width:1.0;stroke-dasharray:2.0,2.0;" x1="67" x2="109" y1="232.3066" y2="232.3066"/><line style="stroke:#181818;stroke-width:1.0;stroke-dasharray:2.0,2.0;" x1="109" x2="109" y1="232.3066" y2="245.3066"/><line style="stroke:#181818;stroke-width:1.0;stroke-dasharray:2.0,2.0;" x1="68" x2="109" y1="245.3066" y2="245.3066"/><polygon fill="#181818" points="78,241.3066,68,245.3066,78,249.3066,74,245.3066" style="stroke:#181818;stroke-width:1.0;"/><text fill="#000000" font-family="sans-serif" font-size="13" lengthAdjust="spacing" textLength="172" x="74" y="227.5645">Submission error - timeout</text><line style="stroke:#000000;stroke-width:1.0;stroke-dasharray:2.0,2.0;" x1="20" x2="832" y1="254.3066" y2="254.3066"/><text fill="#000000" font-family="sans-serif" font-size="11" font-weight="bold" lengthAdjust="spacing" textLength="91" x="25" y="264.9414">[broadcast fails]</text><polygon fill="#181818" points="555,285.5723,565,289.5723,555,293.5723,559,289.5723" style="stroke:#181818;stroke-width:1.0;"/><line style="stroke:#181818;stroke-width:1.0;stroke-dasharray:2.0,2.0;" x1="363" x2="561" y1="289.5723" y2="289.5723"/><text fill="#000000" font-family="sans-serif" font-size="13" lengthAdjust="spacing" textLength="61" x="370" y="284.8301">Broadcast</text><polygon fill="#181818" points="374,314.8828,364,318.8828,374,322.8828,370,318.8828" style="stroke:#181818;stroke-width:1.0;"/><line style="stroke:#181818;stroke-width:1.0;stroke-dasharray:2.0,2.0;" x1="368" x2="566" y1="318.8828" y2="318.8828"/><text fill="#000000" font-family="sans-serif" font-size="13" lengthAdjust="spacing" textLength="180" x="380" y="314.1406">All Errors / Connectivity lost</text><polygon fill="#181818" points="78,344.1934,68,348.1934,78,352.1934,74,348.1934" style="stroke:#181818;stroke-width:1.0;"/><line style="stroke:#181818;stroke-width:1.0;stroke-dasharray:2.0,2.0;" x1="72" x2="362" y1="348.1934" y2="348.1934"/><text fill="#000000" font-family="sans-serif" font-size="13" lengthAdjust="spacing" textLength="219" x="84" y="343.4512">Submission error - broadcast error</text><line style="stroke:#000000;stroke-width:1.0;stroke-dasharray:2.0,2.0;" x1="20" x2="832" y1="357.1934" y2="357.1934"/><text fill="#000000" font-family="sans-serif" font-size="11" font-weight="bold" lengthAdjust="spacing" textLength="115" x="25" y="367.8281">[broadcast timeouts]</text><polygon fill="#181818" points="555,388.459,565,392.459,555,396.459,559,392.459" style="stroke:#181818;stroke-width:1.0;"/><line style="stroke:#181818;stroke-width:1.0;stroke-dasharray:2.0,2.0;" x1="363" x2="561" y1="392.459" y2="392.459"/><text fill="#000000" font-family="sans-serif" font-size="13" lengthAdjust="spacing" textLength="61" x="370" y="387.7168">Broadcast</text><line style="stroke:#181818;stroke-width:1.0;stroke-dasharray:2.0,2.0;" x1="363" x2="405" y1="421.7695" y2="421.7695"/><line style="stroke:#181818;stroke-width:1.0;stroke-dasharray:2.0,2.0;" x1="405" x2="405" y1="421.7695" y2="434.7695"/><line style="stroke:#181818;stroke-width:1.0;stroke-dasharray:2.0,2.0;" x1="364" x2="405" y1="434.7695" y2="434.7695"/><polygon fill="#181818" points="374,430.7695,364,434.7695,374,438.7695,370,434.7695" style="stroke:#181818;stroke-width:1.0;"/><text fill="#000000" font-family="sans-serif" font-size="13" lengthAdjust="spacing" textLength="52" x="370" y="417.0273">Timeout</text><polygon fill="#181818" points="78,460.0801,68,464.0801,78,468.0801,74,464.0801" style="stroke:#181818;stroke-width:1.0;"/><line style="stroke:#181818;stroke-width:1.0;stroke-dasharray:2.0,2.0;" x1="72" x2="362" y1="464.0801" y2="464.0801"/><text fill="#000000" font-family="sans-serif" font-size="13" lengthAdjust="spacing" textLength="272" x="84" y="459.3379">Submission error - broadcast timeout error</text><line style="stroke:#000000;stroke-width:1.0;stroke-dasharray:2.0,2.0;" x1="20" x2="832" y1="473.0801" y2="473.0801"/><text fill="#000000" font-family="sans-serif" font-size="11" font-weight="bold" lengthAdjust="spacing" textLength="116" x="25" y="483.7148">[broadcast succeeds]</text><polygon fill="#181818" points="555,504.3457,565,508.3457,555,512.3457,559,508.3457" style="stroke:#181818;stroke-width:1.0;"/><line style="stroke:#181818;stroke-width:1.0;stroke-dasharray:2.0,2.0;" x1="363" x2="561" y1="508.3457" y2="508.3457"/><text fill="#000000" font-family="sans-serif" font-size="13" lengthAdjust="spacing" textLength="61" x="370" y="503.6035">Broadcast</text><polygon fill="#181818" points="78,533.6563,68,537.6563,78,541.6563,74,537.6563" style="stroke:#181818;stroke-width:1.0;"/><line style="stroke:#181818;stroke-width:1.0;stroke-dasharray:2.0,2.0;" x1="72" x2="362" y1="537.6563" y2="537.6563"/><text fill="#000000" font-family="sans-serif" font-size="13" lengthAdjust="spacing" textLength="142" x="84" y="532.9141">Transaction Submitted</text><path d="M30,552.6563 L92,552.6563 L92,559.9668 L82,569.9668 L30,569.9668 L30,552.6563 " fill="#EEEEEE" style="stroke:#000000;stroke-width:1.5;"/><rect fill="none" height="291.3945" style="stroke:#000000;stroke-width:1.5;" width="792" x="30" y="552.6563"/><text fill="#000000" font-family="sans-serif" font-size="13" font-weight="bold" lengthAdjust="spacing" textLength="17" x="45" y="566.2246">alt</text><text fill="#000000" font-family="sans-serif" font-size="11" font-weight="bold" lengthAdjust="spacing" textLength="122" x="107" y="565.291">[transaction included]</text><line style="stroke:#181818;stroke-width:1.0;stroke-dasharray:2.0,2.0;" x1="567" x2="609" y1="591.2773" y2="591.2773"/><line style="stroke:#181818;stroke-width:1.0;stroke-dasharray:2.0,2.0;" x1="609" x2="609" y1="591.2773" y2="604.2773"/><line style="stroke:#181818;stroke-width:1.0;stroke-dasharray:2.0,2.0;" x1="568" x2="609" y1="604.2773" y2="604.2773"/><polygon fill="#181818" points="578,600.2773,568,604.2773,578,608.2773,574,604.2773" style="stroke:#181818;stroke-width:1.0;"/><text fill="#000000" font-family="sans-serif" font-size="13" lengthAdjust="spacing" textLength="130" x="574" y="586.5352">Block with tx minted</text><polygon fill="#181818" points="374,629.5879,364,633.5879,374,637.5879,370,633.5879" style="stroke:#181818;stroke-width:1.0;"/><line style="stroke:#181818;stroke-width:1.0;stroke-dasharray:2.0,2.0;" x1="368" x2="566" y1="633.5879" y2="633.5879"/><text fill="#000000" font-family="sans-serif" font-size="13" lengthAdjust="spacing" textLength="172" x="380" y="628.8457">Block including transaction</text><polygon fill="#181818" points="78,658.8984,68,662.8984,78,666.8984,74,662.8984" style="stroke:#181818;stroke-width:1.0;"/><line style="stroke:#181818;stroke-width:1.0;stroke-dasharray:2.0,2.0;" x1="72" x2="362" y1="662.8984" y2="662.8984"/><text fill="#000000" font-family="sans-serif" font-size="13" lengthAdjust="spacing" textLength="128" x="84" y="658.1563">TransactionIncluded</text><line style="stroke:#000000;stroke-width:1.0;stroke-dasharray:2.0,2.0;" x1="30" x2="822" y1="671.8984" y2="671.8984"/><text fill="#000000" font-family="sans-serif" font-size="11" font-weight="bold" lengthAdjust="spacing" textLength="106" x="35" y="682.5332">[transaction failed]</text><line style="stroke:#181818;stroke-width:1.0;stroke-dasharray:2.0,2.0;" x1="567" x2="609" y1="707.1641" y2="707.1641"/><line style="stroke:#181818;stroke-width:1.0;stroke-dasharray:2.0,2.0;" x1="609" x2="609" y1="707.1641" y2="720.1641"/><line style="stroke:#181818;stroke-width:1.0;stroke-dasharray:2.0,2.0;" x1="568" x2="609" y1="720.1641" y2="720.1641"/><polygon fill="#181818" points="578,716.1641,568,720.1641,578,724.1641,574,720.1641" style="stroke:#181818;stroke-width:1.0;"/><text fill="#000000" font-family="sans-serif" font-size="13" lengthAdjust="spacing" textLength="236" x="574" y="702.4219">Tx didn't pass pre-minting validation</text><polygon fill="#181818" points="374,745.4746,364,749.4746,374,753.4746,370,749.4746" style="stroke:#181818;stroke-width:1.0;"/><line style="stroke:#181818;stroke-width:1.0;stroke-dasharray:2.0,2.0;" x1="368" x2="566" y1="749.4746" y2="749.4746"/><text fill="#000000" font-family="sans-serif" font-size="13" lengthAdjust="spacing" textLength="180" x="380" y="744.7324">Transaction inclusion failure</text><polygon fill="#181818" points="78,774.7852,68,778.7852,78,782.7852,74,778.7852" style="stroke:#181818;stroke-width:1.0;"/><line style="stroke:#181818;stroke-width:1.0;stroke-dasharray:2.0,2.0;" x1="72" x2="362" y1="778.7852" y2="778.7852"/><text fill="#000000" font-family="sans-serif" font-size="13" lengthAdjust="spacing" textLength="238" x="84" y="774.043">Submission error - transaction failure</text><line style="stroke:#000000;stroke-width:1.0;stroke-dasharray:2.0,2.0;" x1="30" x2="822" y1="787.7852" y2="787.7852"/><text fill="#000000" font-family="sans-serif" font-size="11" font-weight="bold" lengthAdjust="spacing" textLength="51" x="35" y="798.4199">[timeout]</text><line style="stroke:#181818;stroke-width:1.0;stroke-dasharray:2.0,2.0;" x1="67" x2="109" y1="823.0508" y2="823.0508"/><line style="stroke:#181818;stroke-width:1.0;stroke-dasharray:2.0,2.0;" x1="109" x2="109" y1="823.0508" y2="836.0508"/><line style="stroke:#181818;stroke-width:1.0;stroke-dasharray:2.0,2.0;" x1="68" x2="109" y1="836.0508" y2="836.0508"/><polygon fill="#181818" points="78,832.0508,68,836.0508,78,840.0508,74,836.0508" style="stroke:#181818;stroke-width:1.0;"/><text fill="#000000" font-family="sans-serif" font-size="13" lengthAdjust="spacing" textLength="172" x="74" y="818.3086">Submission error - timeout</text><!--MD5=[7b7ef77c206aadd4c228e4c3ef2e9174]
@startuml

Client - -> Server : Transaction submission request

alt transaction not well-formed
        Client <- - Server : Submission error - tx not well-formed
else transaction well-formed
    Server - -> Server : Add to mempool
    alt broadcast timeouts in client
        Client - -> Client : Submission error - timeout
    else broadcast fails
        Server - -> Network : Broadcast
        Server <- - Network : All Errors / Connectivity lost
        Client <- - Server : Submission error - broadcast error
    else broadcast timeouts
        Server - -> Network : Broadcast
        Server - -> Server : Timeout
        Client <- - Server : Submission error - broadcast timeout error
    else broadcast succeeds
        Server - -> Network : Broadcast
        Client <- - Server : Transaction Submitted
        alt transaction included
            Network - -> Network : Block with tx minted
            Server <- - Network : Block including transaction
            Client <- - Server : TransactionIncluded
        else transaction failed
            Network - -> Network : Tx didn't pass pre-minting validation
            Server <- - Network : Transaction inclusion failure
            Client <- - Server : Submission error - transaction failure
        else timeout
            Client - -> Client : Submission error - timeout
        end
    end
end
@enduml

PlantUML version 1.2022.3(Tue Mar 29 18:10:57 CEST 2022)
(GPL source distribution)
Java Runtime: OpenJDK Runtime Environment
JVM: OpenJDK 64-Bit Server VM
Default Encoding: UTF-8
Language: en
Country: PL
--></g></svg>