<?xml version="1.0" encoding="us-ascii" standalone="no"?><svg xmlns="http://www.w3.org/2000/svg" xmlns:xlink="http://www.w3.org/1999/xlink" contentStyleType="text/css" height="1140px" preserveAspectRatio="none" style="width:728px;height:1140px;background:#FFFFFF;" version="1.1" viewBox="0 0 728 1140" width="728px" zoomAndPan="magnify"><defs/><g><!--cluster PubSub-Indexer--><g id="cluster_PubSub-Indexer"><polygon fill="none" points="16,141.49,26,131.49,711,131.49,711,988.44,701,998.44,16,998.44,16,141.49" style="stroke:#181818;stroke-width:1.0;"/><line style="stroke:#181818;stroke-width:1.0;" x1="701" x2="711" y1="141.49" y2="131.49"/><line style="stroke:#181818;stroke-width:1.0;" x1="16" x2="701" y1="141.49" y2="141.49"/><line style="stroke:#181818;stroke-width:1.0;" x1="701" x2="701" y1="141.49" y2="998.44"/><text fill="#000000" font-family="sans-serif" font-size="14" font-weight="bold" lengthAdjust="spacing" textLength="115" x="302" y="158.0252">PubSub-Indexer</text></g><!--cluster Indexer--><g id="cluster_Indexer"><rect fill="none" height="204.49" rx="2.5" ry="2.5" style="stroke:#181818;stroke-width:1.0;" width="454" x="136" y="335.98"/><rect fill="none" height="10" style="stroke:#181818;stroke-width:1.0;" width="15" x="570" y="340.98"/><rect fill="none" height="2" style="stroke:#181818;stroke-width:1.0;" width="4" x="568" y="342.98"/><rect fill="none" height="2" style="stroke:#181818;stroke-width:1.0;" width="4" x="568" y="346.98"/><text fill="#000000" font-family="sans-serif" font-size="14" font-weight="bold" lengthAdjust="spacing" textLength="53" x="336.5" y="362.5152">Indexer</text></g><!--cluster graphql_api--><g id="cluster_graphql_api"><rect fill="none" height="165.49" rx="2.5" ry="2.5" style="stroke:#181818;stroke-width:1.0;" width="645" x="42" y="759.95"/><rect fill="none" height="10" style="stroke:#181818;stroke-width:1.0;" width="15" x="667" y="764.95"/><rect fill="none" height="2" style="stroke:#181818;stroke-width:1.0;" width="4" x="665" y="766.95"/><rect fill="none" height="2" style="stroke:#181818;stroke-width:1.0;" width="4" x="665" y="770.95"/><text fill="#000000" font-family="sans-serif" font-size="14" font-weight="bold" lengthAdjust="spacing" textLength="91" x="319" y="786.4852">GraphQL API</text></g><text fill="#000000" font-family="sans-serif" font-size="14" lengthAdjust="spacing" textLength="153" x="181.5" y="110.5369">Node API - WS + HTTP</text><rect fill="#F1F1F1" height="12" style="stroke:#181818;stroke-width:1.5;" width="12" x="252" y="125.49"/><text fill="#000000" font-family="sans-serif" font-size="14" lengthAdjust="spacing" textLength="177" x="192.5" y="1017.9752">GraphQL API - WS + HTTP</text><rect fill="#F1F1F1" height="12" style="stroke:#181818;stroke-width:1.5;" width="12" x="275" y="992.44"/><!--entity index--><g id="elem_index"><path d="M253.5,645.47 C253.5,635.47 283,635.47 283,635.47 C283,635.47 312.5,635.47 312.5,645.47 L312.5,670.9583 C312.5,680.9583 283,680.9583 283,680.9583 C283,680.9583 253.5,680.9583 253.5,670.9583 L253.5,645.47 " fill="#F1F1F1" style="stroke:#181818;stroke-width:0.5;"/><path d="M253.5,645.47 C253.5,655.47 283,655.47 283,655.47 C283,655.47 312.5,655.47 312.5,645.47 " fill="none" style="stroke:#181818;stroke-width:0.5;"/><text fill="#000000" font-family="sans-serif" font-size="14" lengthAdjust="spacing" textLength="39" x="263.5" y="673.0052">Index</text></g><!--entity pub_sub--><g id="elem_pub_sub"><path d="M451,644.97 L513,644.97 C518,644.97 518,658.2141 518,658.2141 C518,658.2141 518,671.4583 513,671.4583 L451,671.4583 C446,671.4583 446,658.2141 446,658.2141 C446,658.2141 446,644.97 451,644.97 " fill="#F1F1F1" style="stroke:#181818;stroke-width:0.5;"/><path d="M513,644.97 C508,644.97 508,658.2141 508,658.2141 C508,671.4583 513,671.4583 513,671.4583 " fill="none" style="stroke:#181818;stroke-width:0.5;"/><text fill="#000000" font-family="sans-serif" font-size="14" lengthAdjust="spacing" textLength="52" x="451" y="663.5052">PubSub</text></g><!--entity events_source--><g id="elem_events_source"><rect fill="#F1F1F1" height="46.4883" rx="2.5" ry="2.5" style="stroke:#181818;stroke-width:0.5;" width="135" x="260.5" y="210.49"/><rect fill="#F1F1F1" height="10" style="stroke:#181818;stroke-width:0.5;" width="15" x="375.5" y="215.49"/><rect fill="#F1F1F1" height="2" style="stroke:#181818;stroke-width:0.5;" width="4" x="373.5" y="217.49"/><rect fill="#F1F1F1" height="2" style="stroke:#181818;stroke-width:0.5;" width="4" x="373.5" y="221.49"/><text fill="#000000" font-family="sans-serif" font-size="14" lengthAdjust="spacing" textLength="95" x="275.5" y="244.0252">Events Source</text></g><!--entity chain_indexer--><g id="elem_chain_indexer"><rect fill="#F1F1F1" height="46.4883" rx="2.5" ry="2.5" style="stroke:#181818;stroke-width:0.5;" width="137" x="256.5" y="414.98"/><rect fill="#F1F1F1" height="10" style="stroke:#181818;stroke-width:0.5;" width="15" x="373.5" y="419.98"/><rect fill="#F1F1F1" height="2" style="stroke:#181818;stroke-width:0.5;" width="4" x="371.5" y="421.98"/><rect fill="#F1F1F1" height="2" style="stroke:#181818;stroke-width:0.5;" width="4" x="371.5" y="425.98"/><text fill="#000000" font-family="sans-serif" font-size="14" lengthAdjust="spacing" textLength="97" x="271.5" y="448.5152">Chain Indexer</text></g><!--entity wallets_indexer--><g id="elem_wallets_indexer"><rect fill="#F1F1F1" height="46.4883" rx="2.5" ry="2.5" style="stroke:#181818;stroke-width:0.5;" width="145" x="428.5" y="414.98"/><rect fill="#F1F1F1" height="10" style="stroke:#181818;stroke-width:0.5;" width="15" x="553.5" y="419.98"/><rect fill="#F1F1F1" height="2" style="stroke:#181818;stroke-width:0.5;" width="4" x="551.5" y="421.98"/><rect fill="#F1F1F1" height="2" style="stroke:#181818;stroke-width:0.5;" width="4" x="551.5" y="425.98"/><text fill="#000000" font-family="sans-serif" font-size="14" lengthAdjust="spacing" textLength="105" x="443.5" y="448.5152">Wallets Indexer</text></g><text fill="#000000" font-family="sans-serif" font-size="14" lengthAdjust="spacing" textLength="127" x="261.5" y="315.0269">Events Source Port</text><rect fill="#F1F1F1" height="12" style="stroke:#181818;stroke-width:1.5;" width="12" x="319" y="329.98"/><text fill="#000000" font-family="sans-serif" font-size="14" lengthAdjust="spacing" textLength="84" x="450" y="560.0052">PubSub Port</text><rect fill="#F1F1F1" height="12" style="stroke:#181818;stroke-width:1.5;" width="12" x="486" y="534.47"/><text fill="#000000" font-family="sans-serif" font-size="14" lengthAdjust="spacing" textLength="109" x="228" y="560.0052">Persistence Port</text><rect fill="#F1F1F1" height="12" style="stroke:#181818;stroke-width:1.5;" width="12" x="276.5" y="534.47"/><!--entity mutation_api--><g id="elem_mutation_api"><rect fill="#F1F1F1" height="46.4883" rx="2.5" ry="2.5" style="stroke:#181818;stroke-width:0.5;" width="127" x="535.5" y="854.95"/><rect fill="#F1F1F1" height="10" style="stroke:#181818;stroke-width:0.5;" width="15" x="642.5" y="859.95"/><rect fill="#F1F1F1" height="2" style="stroke:#181818;stroke-width:0.5;" width="4" x="640.5" y="861.95"/><rect fill="#F1F1F1" height="2" style="stroke:#181818;stroke-width:0.5;" width="4" x="640.5" y="865.95"/><text fill="#000000" font-family="sans-serif" font-size="14" lengthAdjust="spacing" textLength="87" x="550.5" y="888.4852">Mutation API</text></g><!--entity query_api--><g id="elem_query_api"><rect fill="#F1F1F1" height="46.4883" rx="2.5" ry="2.5" style="stroke:#181818;stroke-width:0.5;" width="107" x="65.5" y="854.95"/><rect fill="#F1F1F1" height="10" style="stroke:#181818;stroke-width:0.5;" width="15" x="152.5" y="859.95"/><rect fill="#F1F1F1" height="2" style="stroke:#181818;stroke-width:0.5;" width="4" x="150.5" y="861.95"/><rect fill="#F1F1F1" height="2" style="stroke:#181818;stroke-width:0.5;" width="4" x="150.5" y="865.95"/><text fill="#000000" font-family="sans-serif" font-size="14" lengthAdjust="spacing" textLength="67" x="80.5" y="888.4852">Query API</text></g><!--entity subscription_api--><g id="elem_subscription_api"><rect fill="#F1F1F1" height="46.4883" rx="2.5" ry="2.5" style="stroke:#181818;stroke-width:0.5;" width="152" x="207" y="854.95"/><rect fill="#F1F1F1" height="10" style="stroke:#181818;stroke-width:0.5;" width="15" x="339" y="859.95"/><rect fill="#F1F1F1" height="2" style="stroke:#181818;stroke-width:0.5;" width="4" x="337" y="861.95"/><rect fill="#F1F1F1" height="2" style="stroke:#181818;stroke-width:0.5;" width="4" x="337" y="865.95"/><text fill="#000000" font-family="sans-serif" font-size="14" lengthAdjust="spacing" textLength="112" x="222" y="888.4852">Subscription API</text></g><text fill="#000000" font-family="sans-serif" font-size="14" lengthAdjust="spacing" textLength="71" x="247.5" y="738.9969">Index Port</text><rect fill="#F1F1F1" height="12" style="stroke:#181818;stroke-width:1.5;" width="12" x="277" y="753.95"/><text fill="#000000" font-family="sans-serif" font-size="14" lengthAdjust="spacing" textLength="84" x="412" y="738.9969">PubSub Port</text><rect fill="#F1F1F1" height="12" style="stroke:#181818;stroke-width:1.5;" width="12" x="448" y="753.95"/><!--entity Node--><g id="elem_Node"><polygon fill="#F1F1F1" points="220,16,230,6,296,6,296,42.4883,286,52.4883,220,52.4883,220,16" style="stroke:#181818;stroke-width:0.5;"/><line style="stroke:#181818;stroke-width:0.5;" x1="286" x2="296" y1="16" y2="6"/><line style="stroke:#181818;stroke-width:0.5;" x1="220" x2="286" y1="16" y2="16"/><line style="stroke:#181818;stroke-width:0.5;" x1="286" x2="286" y1="16" y2="52.4883"/><text fill="#000000" font-family="sans-serif" font-size="14" lengthAdjust="spacing" textLength="36" x="235" y="39.5352">Node</text></g><!--entity Wallet--><g id="elem_Wallet"><polygon fill="#F1F1F1" points="126.5,1087.44,136.5,1077.44,207.5,1077.44,207.5,1113.9283,197.5,1123.9283,126.5,1123.9283,126.5,1087.44" style="stroke:#181818;stroke-width:0.5;"/><line style="stroke:#181818;stroke-width:0.5;" x1="197.5" x2="207.5" y1="1087.44" y2="1077.44"/><line style="stroke:#181818;stroke-width:0.5;" x1="126.5" x2="197.5" y1="1087.44" y2="1087.44"/><line style="stroke:#181818;stroke-width:0.5;" x1="197.5" x2="197.5" y1="1087.44" y2="1123.9283"/><text fill="#000000" font-family="sans-serif" font-size="14" lengthAdjust="spacing" textLength="41" x="141.5" y="1110.9752">Wallet</text></g><!--entity dApp--><g id="elem_dApp"><polygon fill="#F1F1F1" points="242.5,1087.44,252.5,1077.44,319.5,1077.44,319.5,1113.9283,309.5,1123.9283,242.5,1123.9283,242.5,1087.44" style="stroke:#181818;stroke-width:0.5;"/><line style="stroke:#181818;stroke-width:0.5;" x1="309.5" x2="319.5" y1="1087.44" y2="1077.44"/><line style="stroke:#181818;stroke-width:0.5;" x1="242.5" x2="309.5" y1="1087.44" y2="1087.44"/><line style="stroke:#181818;stroke-width:0.5;" x1="309.5" x2="309.5" y1="1087.44" y2="1123.9283"/><text fill="#000000" font-family="sans-serif" font-size="14" lengthAdjust="spacing" textLength="37" x="257.5" y="1110.9752">dApp</text></g><!--entity explorer--><g id="elem_explorer"><polygon fill="#F1F1F1" points="354.5,1087.44,364.5,1077.44,493.5,1077.44,493.5,1113.9283,483.5,1123.9283,354.5,1123.9283,354.5,1087.44" style="stroke:#181818;stroke-width:0.5;"/><line style="stroke:#181818;stroke-width:0.5;" x1="483.5" x2="493.5" y1="1087.44" y2="1077.44"/><line style="stroke:#181818;stroke-width:0.5;" x1="354.5" x2="483.5" y1="1087.44" y2="1087.44"/><line style="stroke:#181818;stroke-width:0.5;" x1="483.5" x2="483.5" y1="1087.44" y2="1123.9283"/><text fill="#000000" font-family="sans-serif" font-size="14" lengthAdjust="spacing" textLength="99" x="369.5" y="1110.9752">Block Explorer</text></g><!--link chain_indexer to events_source_indexer_port--><g id="link_chain_indexer_events_source_indexer_port"><path d="M325,414.52 C325,390.62 325,360.72 325,347.81 " fill="none" id="chain_indexer-to-events_source_indexer_port" style="stroke:#181818;stroke-width:1.0;"/><polygon fill="#181818" points="325,341.81,321,350.81,325,346.81,329,350.81,325,341.81" style="stroke:#181818;stroke-width:1.0;"/></g><!--link chain_indexer to pub_sub_indexer_port--><g id="link_chain_indexer_pub_sub_indexer_port"><path d="M362.48,461.72 C403.64,486.42 461.346,521.0615 480.866,532.7815 " fill="none" id="chain_indexer-to-pub_sub_indexer_port" style="stroke:#181818;stroke-width:1.0;"/><polygon fill="#181818" points="486.01,535.87,480.353,527.8079,481.7233,533.2962,476.2349,534.6666,486.01,535.87" style="stroke:#181818;stroke-width:1.0;"/></g><!--link wallets_indexer to pub_sub_indexer_port--><g id="link_wallets_indexer_pub_sub_indexer_port"><path d="M499,461.47 C496.85,485.46 494.1052,515.9839 492.9552,528.8239 " fill="none" id="wallets_indexer-to-pub_sub_indexer_port" style="stroke:#181818;stroke-width:1.0;"/><polygon fill="#181818" points="492.42,534.8,497.2069,526.1927,492.866,529.8199,489.2388,525.4791,492.42,534.8" style="stroke:#181818;stroke-width:1.0;"/></g><!--link chain_indexer to persistence_indexer_port--><g id="link_chain_indexer_persistence_indexer_port"><path d="M315.68,461.47 C305.63,485.46 292.6587,516.4261 287.2787,529.2661 " fill="none" id="chain_indexer-to-persistence_indexer_port" style="stroke:#181818;stroke-width:1.0;"/><polygon fill="#181818" points="284.96,534.8,292.1273,528.045,286.8923,530.1884,284.7488,524.9534,284.96,534.8" style="stroke:#181818;stroke-width:1.0;"/></g><!--link wallets_indexer to persistence_indexer_port--><g id="link_wallets_indexer_persistence_indexer_port"><path d="M451.8,461.84 C396.3,487.37 316.2711,524.1629 293.9411,534.4329 " fill="none" id="wallets_indexer-to-persistence_indexer_port" style="stroke:#181818;stroke-width:1.0;"/><polygon fill="#181818" points="288.49,536.94,298.338,536.8135,293.0326,534.8508,294.9953,529.5453,288.49,536.94" style="stroke:#181818;stroke-width:1.0;"/></g><!--link pub_sub_indexer_port to persistence_indexer_port--><!--reverse link index_graphql_port to query_api--><g id="link_index_graphql_port_query_api"><path d="M272.3751,768.1937 C260.6751,776.1837 237.98,791.73 215,807.95 C193.18,823.36 168.76,840.98 150.02,854.59 " fill="none" id="index_graphql_port-backto-query_api" style="stroke:#181818;stroke-width:1.0;"/><polygon fill="#181818" points="277.33,764.81,267.6419,766.5823,273.201,767.6297,272.1535,773.1888,277.33,764.81" style="stroke:#181818;stroke-width:1.0;"/><text fill="#000000" font-family="sans-serif" font-size="13" lengthAdjust="spacing" textLength="58" x="216" y="821.5184">read only</text></g><!--reverse link pub_sub_graphql_port to subscription_api--><g id="link_pub_sub_graphql_port_subscription_api"><path d="M443.3485,768.1939 C423.1285,781.9439 358.62,825.79 316.45,854.46 " fill="none" id="pub_sub_graphql_port-backto-subscription_api" style="stroke:#181818;stroke-width:1.0;"/><polygon fill="#181818" points="448.31,764.82,438.6184,766.5732,444.1754,767.6316,443.117,773.1886,448.31,764.82" style="stroke:#181818;stroke-width:1.0;"/></g><!--reverse link index_graphql_port to subscription_api--><g id="link_index_graphql_port_subscription_api"><path d="M283,771.95 C283,787.07 283,827.03 283,854.92 " fill="none" id="index_graphql_port-backto-subscription_api" style="stroke:#181818;stroke-width:1.0;"/><polygon fill="#181818" points="283,765.95,279,774.95,283,770.95,287,774.95,283,765.95" style="stroke:#181818;stroke-width:1.0;"/><text fill="#000000" font-family="sans-serif" font-size="13" lengthAdjust="spacing" textLength="58" x="284" y="821.5184">read only</text></g><!--reverse link pub_sub_graphql_port to mutation_api--><g id="link_pub_sub_graphql_port_mutation_api"><path d="M464.5417,769.4025 C482.9317,784.1425 535.62,826.39 570.69,854.5 " fill="none" id="pub_sub_graphql_port-backto-mutation_api" style="stroke:#181818;stroke-width:1.0;"/><polygon fill="#181818" points="459.86,765.65,464.3809,774.3999,463.7614,768.7771,469.3843,768.1576,459.86,765.65" style="stroke:#181818;stroke-width:1.0;"/></g><!--reverse link node_api to events_source--><g id="link_node_api_events_source"><path d="M264.8139,142.2402 C273.8239,155.1502 295.46,186.13 312.15,210.03 " fill="none" id="node_api-backto-events_source" style="stroke:#181818;stroke-width:1.0;"/><polygon fill="#181818" points="261.38,137.32,263.2506,146.9896,264.2416,141.4202,269.8109,142.4111,261.38,137.32" style="stroke:#181818;stroke-width:1.0;"/></g><!--reverse link events_source to events_source_indexer_port--><g id="link_events_source_events_source_indexer_port"><path d="M327.1526,262.9774 C326.4426,286.9774 325.52,317.47 325.14,330.31 " fill="none" id="events_source-backto-events_source_indexer_port" style="stroke:#181818;stroke-width:1.0;"/><polygon fill="#181818" points="327.33,256.98,323.0656,265.8578,327.1821,261.9778,331.0621,266.0943,327.33,256.98" style="stroke:#181818;stroke-width:1.0;"/></g><!--link persistence_indexer_port to index--><g id="link_persistence_indexer_port_index"><path d="M283,546.44 C283,561.5 283,601.26 283,629.03 " fill="none" id="persistence_indexer_port-to-index" style="stroke:#181818;stroke-width:1.0;"/><polygon fill="#181818" points="283,635.03,287,626.03,283,630.03,279,626.03,283,635.03" style="stroke:#181818;stroke-width:1.0;"/><text fill="#000000" font-family="sans-serif" font-size="13" lengthAdjust="spacing" textLength="65" x="284" y="602.0384">read/write</text></g><!--link pub_sub_indexer_port to pub_sub--><g id="link_pub_sub_indexer_port_pub_sub"><path d="M491.57,546.44 C490.1,563.4 485.7855,613.3422 483.6055,638.6222 " fill="none" id="pub_sub_indexer_port-to-pub_sub" style="stroke:#181818;stroke-width:1.0;"/><polygon fill="#181818" points="483.09,644.6,487.8484,635.9769,483.5196,639.6185,479.878,635.2896,483.09,644.6" style="stroke:#181818;stroke-width:1.0;"/></g><!--reverse link index to index_graphql_port--><g id="link_index_index_graphql_port"><path d="M283,687.35 C283,711.22 283,741.53 283,754.31 " fill="none" id="index-backto-index_graphql_port" style="stroke:#181818;stroke-width:1.0;"/><polygon fill="#181818" points="283,681.35,279,690.35,283,686.35,287,690.35,283,681.35" style="stroke:#181818;stroke-width:1.0;"/></g><!--reverse link pub_sub to pub_sub_graphql_port--><g id="link_pub_sub_pub_sub_graphql_port"><path d="M476.8285,677.6167 C470.5885,699.8467 459.54,739.22 455.37,754.09 " fill="none" id="pub_sub-backto-pub_sub_graphql_port" style="stroke:#181818;stroke-width:1.0;"/><polygon fill="#181818" points="478.45,671.84,472.1665,679.4241,477.0987,676.6539,479.8688,681.5861,478.45,671.84" style="stroke:#181818;stroke-width:1.0;"/></g><!--link graphql_api to graphql_api_port--><g id="link_graphql_api_graphql_api_port"><path d="M396.4928,925.4821 C396.4005,925.5584 396.3082,925.6347 396.2158,925.711 C395.477,926.3213 394.7358,926.9301 393.9927,927.5369 C388.0475,932.3913 381.9775,937.1175 376,941.44 C344.04,964.56 307.341,983.9962 292.141,991.7762 " fill="none" id="graphql_api-to-graphql_api_port" style="stroke:#181818;stroke-width:1.0;"/><polygon fill="#181818" points="286.8,994.51,296.634,993.97,291.2509,992.2319,292.989,986.8487,286.8,994.51" style="stroke:#181818;stroke-width:1.0;"/></g><!--reverse link Node to node_api--><g id="link_Node_node_api"><path d="M258,58.49 C258,82.49 258,112.98 258,125.82 " fill="none" id="Node-backto-node_api" style="stroke:#181818;stroke-width:1.0;"/><polygon fill="#181818" points="258,52.49,254,61.49,258,57.49,262,61.49,258,52.49" style="stroke:#181818;stroke-width:1.0;"/></g><!--reverse link graphql_api_port to Wallet--><g id="link_graphql_api_port_Wallet"><path d="M270.9929,1008.2406 C256.3129,1021.1406 219.99,1053.09 192.82,1076.98 " fill="none" id="graphql_api_port-backto-Wallet" style="stroke:#181818;stroke-width:1.0;"/><polygon fill="#181818" points="275.5,1004.28,266.099,1007.2162,271.7441,1007.5805,271.3798,1013.2256,275.5,1004.28" style="stroke:#181818;stroke-width:1.0;"/></g><!--reverse link graphql_api_port to dApp--><g id="link_graphql_api_port_dApp"><path d="M281,1010.28 C281,1023.18 281,1053.09 281,1076.98 " fill="none" id="graphql_api_port-backto-dApp" style="stroke:#181818;stroke-width:1.0;"/><polygon fill="#181818" points="281,1004.28,277,1013.28,281,1009.28,285,1013.28,281,1004.28" style="stroke:#181818;stroke-width:1.0;"/></g><!--reverse link graphql_api_port to explorer--><g id="link_graphql_api_port_explorer"><path d="M291.6941,1006.9427 C309.0941,1019.1327 356.99,1052.71 391.79,1077.11 " fill="none" id="graphql_api_port-backto-explorer" style="stroke:#181818;stroke-width:1.0;"/><polygon fill="#181818" points="286.78,1003.5,291.856,1011.94,290.8751,1006.3689,296.4462,1005.388,286.78,1003.5" style="stroke:#181818;stroke-width:1.0;"/></g><!--SRC=[ZLLTI-mm47tlhnZwAiLtkGWgeWlUoyeAFeYKj0rkk3N99eqVYF_TP9ADJTEklcmtC-VCLqwdN7GKod_sjomAZeUrQJQcgLQyeszKbV1H04YX1iOz4CxMAwZWVWD7S7rtjow1Q73KcaWMiC8CK5uf8hUtDxFu9-VRzOvIEq9XYHqPI4Cq1KpjKCpzSQwTeOQ2hymvf6bgRHhdQiMp59noc_3onJuqR8HHBSKq52srHakA3lrXUqcKYosnhSRsRPJMMMhcBLFuFUbxQhEE2Q_U5Yd82JESb0bhQyvhtLFzSFPq76kOGkI5MHnYKAMP7YWVfvFVnfJg6not35Lr-bDvEM6nhibqbi5BWPSgNmn-iDMvr50zR5dNKVvOLOVoVKuKE9ByLEQvqFwQWGnCy8X-3eRm8YNWMqFLUqJkt6aEPfMXMyLa4bUFZ4YAye3IlsjH5TXVlIyxaTAoyX8uulCmyCTECfOD9w0ewK3m_ZsvX8oIrNuW_1Jx-ooJoUErxbSQ0j950kavHsGoMz8GwXCDeTZZLyK6bs5Ubj-lYelgYIxxxBq590AMxcgiK1SzNyns6BZsNPIuvlstmk- -Oif1QF1vO7ScvJmCFU7BSzwBzZzSlibUgB19QJZCawFt2m00]--></g></svg>