<?xml version="1.0" encoding="UTF-8" standalone="no"?><svg xmlns="http://www.w3.org/2000/svg" xmlns:xlink="http://www.w3.org/1999/xlink" contentStyleType="text/css" height="848px" preserveAspectRatio="none" style="width:469px;height:848px;background:#FFFFFF;" version="1.1" viewBox="0 0 469 848" width="469px" zoomAndPan="magnify"><defs/><g><!--MD5=[4c5f5ca4e9e2c6f2f0bbf812ba219812]
cluster PubSub-Indexer--><g id="cluster_PubSub-Indexer"><polygon points="47.5,128,57.5,118,452.5,118,452.5,709,442.5,719,47.5,719,47.5,128" style="stroke:#181818;stroke-width:1.0;fill:none;"/><line style="stroke:#181818;stroke-width:1.0;fill:none;" x1="442.5" x2="452.5" y1="128" y2="118"/><line style="stroke:#181818;stroke-width:1.0;fill:none;" x1="47.5" x2="442.5" y1="128" y2="128"/><line style="stroke:#181818;stroke-width:1.0;fill:none;" x1="442.5" x2="442.5" y1="128" y2="719"/><text fill="#000000" font-family="sans-serif" font-size="14" font-weight="bold" lengthAdjust="spacing" textLength="126" x="183" y="143.9951">PubSub-Indexer</text></g><text fill="#000000" font-family="sans-serif" font-size="14" lengthAdjust="spacing" textLength="29" x="117" y="96.6982">Http</text><rect fill="#181818" height="12" style="stroke:#F1F1F1;stroke-width:1.5;" width="12" x="125.5" y="112"/><text fill="#000000" font-family="sans-serif" font-size="14" lengthAdjust="spacing" textLength="91" x="190" y="96.6982">WebSocketIn</text><rect fill="#181818" height="12" style="stroke:#F1F1F1;stroke-width:1.5;" width="12" x="229.5" y="112"/><text fill="#000000" font-family="sans-serif" font-size="14" lengthAdjust="spacing" textLength="104" x="113.5" y="737.9951">WebSocketOut</text><rect fill="#181818" height="12" style="stroke:#F1F1F1;stroke-width:1.5;" width="12" x="159.5" y="713"/><text fill="#000000" font-family="sans-serif" font-size="14" lengthAdjust="spacing" textLength="37" x="311" y="737.9951">HTTP</text><rect fill="#181818" height="12" style="stroke:#F1F1F1;stroke-width:1.5;" width="12" x="323.5" y="713"/><!--MD5=[2b768cf920ecee2eebe6cef60f157368]
entity Index--><g id="elem_Index"><path d="M178,406 C178,396 206.5,396 206.5,396 C206.5,396 235,396 235,406 L235,431.2969 C235,441.2969 206.5,441.2969 206.5,441.2969 C206.5,441.2969 178,441.2969 178,431.2969 L178,406 " fill="#F1F1F1" style="stroke:#181818;stroke-width:0.5;"/><path d="M178,406 C178,416 206.5,416 206.5,416 C206.5,416 235,416 235,406 " fill="none" style="stroke:#181818;stroke-width:0.5;"/><text fill="#000000" font-family="sans-serif" font-size="14" lengthAdjust="spacing" textLength="37" x="188" y="432.9951">Index</text></g><!--MD5=[9c71fb94a6d07f335209449e513194ff]
entity EventsSource--><g id="elem_EventsSource"><rect fill="#F1F1F1" height="46.2969" rx="2.5" ry="2.5" style="stroke:#181818;stroke-width:0.5;" width="136" x="63.5" y="184"/><rect fill="#F1F1F1" height="10" style="stroke:#181818;stroke-width:0.5;" width="15" x="179.5" y="189"/><rect fill="#F1F1F1" height="2" style="stroke:#181818;stroke-width:0.5;" width="4" x="177.5" y="191"/><rect fill="#F1F1F1" height="2" style="stroke:#181818;stroke-width:0.5;" width="4" x="177.5" y="195"/><text fill="#000000" font-family="sans-serif" font-size="14" lengthAdjust="spacing" textLength="96" x="78.5" y="216.9951">EventsSource</text></g><!--MD5=[3585e71188c10028f3e15694d6f9d304]
entity Indexer--><g id="elem_Indexer"><rect fill="#F1F1F1" height="46.2969" rx="2.5" ry="2.5" style="stroke:#181818;stroke-width:0.5;" width="91" x="96" y="290"/><rect fill="#F1F1F1" height="10" style="stroke:#181818;stroke-width:0.5;" width="15" x="167" y="295"/><rect fill="#F1F1F1" height="2" style="stroke:#181818;stroke-width:0.5;" width="4" x="165" y="297"/><rect fill="#F1F1F1" height="2" style="stroke:#181818;stroke-width:0.5;" width="4" x="165" y="301"/><text fill="#000000" font-family="sans-serif" font-size="14" lengthAdjust="spacing" textLength="51" x="111" y="322.9951">Indexer</text></g><!--MD5=[7458a53fa4e8a12390ee827b1bb5e86d]
entity PubSub mechanism--><g id="elem_PubSub mechanism"><rect fill="#F1F1F1" height="46.2969" rx="2.5" ry="2.5" style="stroke:#181818;stroke-width:0.5;" width="178" x="63.5" y="501"/><rect fill="#F1F1F1" height="10" style="stroke:#181818;stroke-width:0.5;" width="15" x="221.5" y="506"/><rect fill="#F1F1F1" height="2" style="stroke:#181818;stroke-width:0.5;" width="4" x="219.5" y="508"/><rect fill="#F1F1F1" height="2" style="stroke:#181818;stroke-width:0.5;" width="4" x="219.5" y="512"/><text fill="#000000" font-family="sans-serif" font-size="14" lengthAdjust="spacing" textLength="138" x="78.5" y="533.9951">PubSub mechanism</text></g><!--MD5=[4e3e877767958579f1ebdeeae34cdbf3]
entity Subscription API--><g id="elem_Subscription API"><rect fill="#F1F1F1" height="46.2969" rx="2.5" ry="2.5" style="stroke:#181818;stroke-width:0.5;" width="151" x="81" y="607"/><rect fill="#F1F1F1" height="10" style="stroke:#181818;stroke-width:0.5;" width="15" x="212" y="612"/><rect fill="#F1F1F1" height="2" style="stroke:#181818;stroke-width:0.5;" width="4" x="210" y="614"/><rect fill="#F1F1F1" height="2" style="stroke:#181818;stroke-width:0.5;" width="4" x="210" y="618"/><text fill="#000000" font-family="sans-serif" font-size="14" lengthAdjust="spacing" textLength="111" x="96" y="639.9951">Subscription API</text></g><!--MD5=[73845149e79fab08dfda3016f6aec6f4]
entity Query API--><g id="elem_Query API"><rect fill="#F1F1F1" height="46.2969" rx="2.5" ry="2.5" style="stroke:#181818;stroke-width:0.5;" width="106" x="276.5" y="501"/><rect fill="#F1F1F1" height="10" style="stroke:#181818;stroke-width:0.5;" width="15" x="362.5" y="506"/><rect fill="#F1F1F1" height="2" style="stroke:#181818;stroke-width:0.5;" width="4" x="360.5" y="508"/><rect fill="#F1F1F1" height="2" style="stroke:#181818;stroke-width:0.5;" width="4" x="360.5" y="512"/><text fill="#000000" font-family="sans-serif" font-size="14" lengthAdjust="spacing" textLength="66" x="291.5" y="533.9951">Query API</text></g><!--MD5=[ed3747ad05e6730ca3536a40b62ba942]
entity Node--><g id="elem_Node"><polygon fill="#F1F1F1" points="145,16,155,6,222,6,222,42.2969,212,52.2969,145,52.2969,145,16" style="stroke:#181818;stroke-width:0.5;"/><line style="stroke:#181818;stroke-width:0.5;" x1="212" x2="222" y1="16" y2="6"/><line style="stroke:#181818;stroke-width:0.5;" x1="145" x2="212" y1="16" y2="16"/><line style="stroke:#181818;stroke-width:0.5;" x1="212" x2="212" y1="16" y2="52.2969"/><text fill="#000000" font-family="sans-serif" font-size="14" lengthAdjust="spacing" textLength="37" x="160" y="38.9951">Node</text></g><!--MD5=[317e38288b99476981f0bdc2286c89a2]
entity Wallet--><g id="elem_Wallet"><polygon fill="#F1F1F1" points="16,795,26,785,97,785,97,821.2969,87,831.2969,16,831.2969,16,795" style="stroke:#181818;stroke-width:0.5;"/><line style="stroke:#181818;stroke-width:0.5;" x1="87" x2="97" y1="795" y2="785"/><line style="stroke:#181818;stroke-width:0.5;" x1="16" x2="87" y1="795" y2="795"/><line style="stroke:#181818;stroke-width:0.5;" x1="87" x2="87" y1="795" y2="831.2969"/><text fill="#000000" font-family="sans-serif" font-size="14" lengthAdjust="spacing" textLength="41" x="31" y="817.9951">Wallet</text></g><!--MD5=[33c09b0b8f03ba9d04441859161d74f0]
entity dApp--><g id="elem_dApp"><polygon fill="#F1F1F1" points="132.5,795,142.5,785,208.5,785,208.5,821.2969,198.5,831.2969,132.5,831.2969,132.5,795" style="stroke:#181818;stroke-width:0.5;"/><line style="stroke:#181818;stroke-width:0.5;" x1="198.5" x2="208.5" y1="795" y2="785"/><line style="stroke:#181818;stroke-width:0.5;" x1="132.5" x2="198.5" y1="795" y2="795"/><line style="stroke:#181818;stroke-width:0.5;" x1="198.5" x2="198.5" y1="795" y2="831.2969"/><text fill="#000000" font-family="sans-serif" font-size="14" lengthAdjust="spacing" textLength="36" x="147.5" y="817.9951">dApp</text></g><!--MD5=[0244aeef9e1a5f254aae65b6ead4f7ee]
entity explorer--><g id="elem_explorer"><polygon fill="#F1F1F1" points="260.5,795,270.5,785,398.5,785,398.5,821.2969,388.5,831.2969,260.5,831.2969,260.5,795" style="stroke:#181818;stroke-width:0.5;"/><line style="stroke:#181818;stroke-width:0.5;" x1="388.5" x2="398.5" y1="795" y2="785"/><line style="stroke:#181818;stroke-width:0.5;" x1="260.5" x2="388.5" y1="795" y2="795"/><line style="stroke:#181818;stroke-width:0.5;" x1="388.5" x2="388.5" y1="795" y2="831.2969"/><text fill="#000000" font-family="sans-serif" font-size="14" lengthAdjust="spacing" textLength="98" x="275.5" y="817.9951">Block Explorer</text></g><!--MD5=[598aa0f86a1c22d429d96c245a14af54]
link EventsSource to Http--><g id="link_EventsSource_Http"><path d="M131.5,183.7 C131.5,166.75 131.5,144.11 131.5,130.6 " fill="none" id="EventsSource-to-Http" style="stroke:#181818;stroke-width:1.0;"/><polygon fill="#181818" points="131.5,125.96,127.5,134.96,131.5,130.96,135.5,134.96,131.5,125.96" style="stroke:#181818;stroke-width:1.0;"/></g><!--MD5=[ea5ddd86015c6dfd80242f69a6b97679]
link WebSocketIn to EventsSource--><g id="link_WebSocketIn_EventsSource"><path d="M229.31,124.18 C216.57,134.84 186.67,159.85 163.26,179.43 " fill="none" id="WebSocketIn-to-EventsSource" style="stroke:#181818;stroke-width:1.0;"/><polygon fill="#181818" points="159.53,182.55,168.9998,179.8439,163.3653,179.3421,163.8671,173.7075,159.53,182.55" style="stroke:#181818;stroke-width:1.0;"/></g><!--MD5=[7fab8641af5180a5fbfebdda9e9af73f]
link EventsSource to Indexer--><g id="link_EventsSource_Indexer"><path d="M133.65,230.31 C135.13,245.8 137.13,266.58 138.74,283.3 " fill="none" id="EventsSource-to-Indexer" style="stroke:#181818;stroke-width:1.0;"/><polygon fill="#181818" points="139.21,288.22,142.345,278.8834,138.7393,283.2422,134.3805,279.6365,139.21,288.22" style="stroke:#181818;stroke-width:1.0;"/></g><!--MD5=[12172bed465d77a120ef6d545a065cda]
link Indexer to Index--><g id="link_Indexer_Index"><path d="M155.6,336.46 C165.53,352.27 178.88,373.52 189.41,390.29 " fill="none" id="Indexer-to-Index" style="stroke:#181818;stroke-width:1.0;"/><polygon fill="#181818" points="192.06,394.51,190.6732,384.7593,189.4062,390.2724,183.893,389.0054,192.06,394.51" style="stroke:#181818;stroke-width:1.0;"/></g><!--MD5=[40d4c0b0af04d4657814772942a2b71e]
link Indexer to PubSub mechanism--><g id="link_Indexer_PubSub mechanism"><path d="M142.68,336.37 C144.69,374.55 148.78,452.26 150.99,494.35 " fill="none" id="Indexer-to-PubSub mechanism" style="stroke:#181818;stroke-width:1.0;"/><polygon fill="#181818" points="151.25,499.28,154.7825,490.0864,150.9932,494.2866,146.793,490.4973,151.25,499.28" style="stroke:#181818;stroke-width:1.0;"/></g><!--MD5=[3d43a7d9f817e917351eddf399de9214]
link Subscription API to WebSocketOut--><g id="link_Subscription API_WebSocketOut"><path d="M158.82,653.4 C160.57,670.38 162.92,693.02 164.31,706.49 " fill="none" id="Subscription API-to-WebSocketOut" style="stroke:#181818;stroke-width:1.0;"/><polygon fill="#181818" points="164.79,711.12,167.8427,701.7562,164.2755,706.1465,159.8851,702.5794,164.79,711.12" style="stroke:#181818;stroke-width:1.0;"/></g><!--MD5=[266d7fcae5cde744ddb1d2884168a611]
link Index to PubSub mechanism--><g id="link_Index_PubSub mechanism"><path d="M195.05,441.45 C186.87,457.12 175.81,478.33 167.01,495.19 " fill="none" id="Index-to-PubSub mechanism" style="stroke:#181818;stroke-width:1.0;"/><polygon fill="#181818" points="164.82,499.38,172.5254,493.2459,167.1299,494.9456,165.4303,489.5501,164.82,499.38" style="stroke:#181818;stroke-width:1.0;"/></g><!--MD5=[68db9e1f32f40eeacacf316f781c35b6]
link PubSub mechanism to Subscription API--><g id="link_PubSub mechanism_Subscription API"><path d="M153.36,547.31 C153.95,562.8 154.75,583.58 155.4,600.3 " fill="none" id="PubSub mechanism-to-Subscription API" style="stroke:#181818;stroke-width:1.0;"/><polygon fill="#181818" points="155.59,605.21,159.2532,596.0677,155.4044,600.2134,151.2587,596.3647,155.59,605.21" style="stroke:#181818;stroke-width:1.0;"/></g><!--MD5=[9089b69c96b5d816f76bef0b01793655]
link Index to Query API--><g id="link_Index_Query API"><path d="M232.59,441.45 C251.78,457.6 277.95,479.63 298.26,496.72 " fill="none" id="Index-to-Query API" style="stroke:#181818;stroke-width:1.0;"/><polygon fill="#181818" points="301.87,499.75,297.5491,490.8996,298.0406,496.535,292.4052,497.0266,301.87,499.75" style="stroke:#181818;stroke-width:1.0;"/></g><!--MD5=[12d3f0e870f889cc4e9cd3f295e00d92]
link Query API to HTTP--><g id="link_Query API_HTTP"><path d="M329.5,547.14 C329.5,588.21 329.5,674.86 329.5,706.29 " fill="none" id="Query API-to-HTTP" style="stroke:#181818;stroke-width:1.0;"/><polygon fill="#181818" points="329.5,711.22,333.5,702.22,329.5,706.22,325.5,702.22,329.5,711.22" style="stroke:#181818;stroke-width:1.0;"/></g><!--MD5=[6f7d0a55f0719aef896106d191241064]
link Node to WebSocketIn--><g id="link_Node_WebSocketIn"><path d="M196.89,52.4 C207.23,69.69 221.07,92.85 229.06,106.22 " fill="none" id="Node-to-WebSocketIn" style="stroke:#181818;stroke-width:1.0;"/><polygon fill="#181818" points="231.51,110.33,230.3478,100.55,228.9543,106.0325,223.4718,104.639,231.51,110.33" style="stroke:#181818;stroke-width:1.0;"/></g><!--MD5=[aa423837ea635e82f96a3182fad6ddc3]
link Http to Node--><g id="link_Http_Node"><path d="M134.71,111.63 C141.02,101.07 155.41,76.99 166.94,57.7 " fill="none" id="Http-to-Node" style="stroke:#181818;stroke-width:1.0;"/><polygon fill="#181818" points="169.33,53.7,161.2918,59.391,166.7743,57.9975,168.1678,63.48,169.33,53.7" style="stroke:#181818;stroke-width:1.0;"/></g><!--MD5=[3f9d2c2bbd99a48f16a9e2f6e372b29b]
link WebSocketOut to Wallet--><g id="link_WebSocketOut_Wallet"><path d="M159.01,725.18 C145.6,735.88 114.06,761.06 89.48,780.68 " fill="none" id="WebSocketOut-to-Wallet" style="stroke:#181818;stroke-width:1.0;"/><polygon fill="#181818" points="85.84,783.58,95.3733,781.1067,89.7527,780.467,90.3924,774.8464,85.84,783.58" style="stroke:#181818;stroke-width:1.0;"/></g><!--MD5=[116b3e9fb0072001b029f42411ea7ddf]
link WebSocketOut to dApp--><g id="link_WebSocketOut_dApp"><path d="M165.81,725.44 C166.41,735.87 167.76,759.33 168.86,778.42 " fill="none" id="WebSocketOut-to-dApp" style="stroke:#181818;stroke-width:1.0;"/><polygon fill="#181818" points="169.13,783.19,172.6085,773.9759,168.8439,778.1982,164.6216,774.4336,169.13,783.19" style="stroke:#181818;stroke-width:1.0;"/></g><!--MD5=[be438b79582166aeebcece36732431a6]
link HTTP to explorer--><g id="link_HTTP_explorer"><path d="M329.5,725.44 C329.5,735.87 329.5,759.33 329.5,778.42 " fill="none" id="HTTP-to-explorer" style="stroke:#181818;stroke-width:1.0;"/><polygon fill="#181818" points="329.5,783.19,333.5,774.19,329.5,778.19,325.5,774.19,329.5,783.19" style="stroke:#181818;stroke-width:1.0;"/></g><!--MD5=[55efd9f73872321fb9fde52b157a1567]
@startuml

node "Node"

node "PubSub-Indexer" {
  portin Http
  portin WebSocketIn
  portout WebSocketOut
  portout HTTP

  database Index

  [EventsSource] - -> Http
  WebSocketIn -> [EventsSource]
  [EventsSource] - -> [Indexer]
  [Indexer] - -> Index
  [Indexer] - -> [PubSub mechanism]
  [Subscription API] - - - -> WebSocketOut
  Index - -> [PubSub mechanism]
  [PubSub mechanism] - -> [Subscription API]
  Index - -> [Query API]
  [Query API] - - -> HTTP
}

Node - -> WebSocketIn
Http -> Node

node Wallet
WebSocketOut - -> Wallet

node dApp
WebSocketOut - -> dApp

node "Block Explorer" as explorer
HTTP - -> explorer

@enduml

PlantUML version 1.2022.3(Tue Mar 29 13:10:57 ART 2022)
(GPL source distribution)
Java Runtime: OpenJDK Runtime Environment
JVM: OpenJDK 64-Bit Server VM
Default Encoding: ANSI_X3.4-1968
Language: en
Country: US
--></g></svg>