<?xml version="1.0" encoding="UTF-8" standalone="no"?><svg xmlns="http://www.w3.org/2000/svg" xmlns:xlink="http://www.w3.org/1999/xlink" contentStyleType="text/css" height="668px" preserveAspectRatio="none" style="width:643px;height:668px;background:#FFFFFF;" version="1.1" viewBox="0 0 643 668" width="643px" zoomAndPan="magnify"><defs/><g><!--MD5=[68a0c021ad4fbab63794e91c3c368f48]
class Block--><g id="elem_Block"><rect codeLine="2" fill="#F1F1F1" height="113.9531" id="Block" rx="2.5" ry="2.5" style="stroke:#181818;stroke-width:0.5;" width="111" x="222" y="7"/><ellipse cx="256.35" cy="23" fill="#ADD1B2" rx="11" ry="11" style="stroke:#181818;stroke-width:1.0;"/><path d="M259.9643,29.5 L252.2445,29.5 L252.2445,17.1069 L259.9643,17.1069 L259.9643,19.2651 L254.6933,19.2651 L254.6933,21.938 L259.4662,21.938 L259.4662,24.0962 L254.6933,24.0962 L254.6933,27.3418 L259.9643,27.3418 Z " fill="#000000"/><text fill="#000000" font-family="sans-serif" font-size="14" lengthAdjust="spacing" textLength="36" x="274.65" y="28.291">Block</text><line style="stroke:#181818;stroke-width:0.5;" x1="223" x2="332" y1="39" y2="39"/><ellipse cx="233" cy="50" fill="none" rx="3" ry="3" style="stroke:#038048;stroke-width:1.0;"/><text fill="#000000" font-family="sans-serif" font-size="14" lengthAdjust="spacing" textLength="33" x="242" y="56.5352">hash</text><ellipse cx="233" cy="66.4883" fill="none" rx="3" ry="3" style="stroke:#038048;stroke-width:1.0;"/><text fill="#000000" font-family="sans-serif" font-size="14" lengthAdjust="spacing" textLength="44" x="242" y="73.0234">height</text><ellipse cx="233" cy="82.9766" fill="none" rx="3" ry="3" style="stroke:#038048;stroke-width:1.0;"/><text fill="#000000" font-family="sans-serif" font-size="14" lengthAdjust="spacing" textLength="72" x="242" y="89.5117">timestamp</text><ellipse cx="233" cy="99.4648" fill="none" rx="3" ry="3" style="stroke:#038048;stroke-width:1.0;"/><text fill="#000000" font-family="sans-serif" font-size="14" lengthAdjust="spacing" textLength="85" x="242" y="106">parent_hash</text><line style="stroke:#181818;stroke-width:0.5;" x1="223" x2="332" y1="112.9531" y2="112.9531"/></g><!--MD5=[e3c6cf61d880a2592c0d23675dac6e84]
class WalletSubscription--><g id="elem_WalletSubscription"><rect codeLine="9" fill="#F1F1F1" height="64.4883" id="WalletSubscription" rx="2.5" ry="2.5" style="stroke:#181818;stroke-width:0.5;" width="159" x="374" y="223.5"/><ellipse cx="389" cy="239.5" fill="#ADD1B2" rx="11" ry="11" style="stroke:#181818;stroke-width:1.0;"/><path d="M392.6143,246 L384.8945,246 L384.8945,233.6069 L392.6143,233.6069 L392.6143,235.7651 L387.3433,235.7651 L387.3433,238.438 L392.1162,238.438 L392.1162,240.5962 L387.3433,240.5962 L387.3433,243.8418 L392.6143,243.8418 Z " fill="#000000"/><text fill="#000000" font-family="sans-serif" font-size="14" lengthAdjust="spacing" textLength="127" x="403" y="244.791">WalletSubscription</text><line style="stroke:#181818;stroke-width:0.5;" x1="375" x2="532" y1="255.5" y2="255.5"/><ellipse cx="385" cy="266.5" fill="none" rx="3" ry="3" style="stroke:#038048;stroke-width:1.0;"/><text fill="#000000" font-family="sans-serif" font-size="14" lengthAdjust="spacing" textLength="13" x="394" y="273.0352">id</text><line style="stroke:#181818;stroke-width:0.5;" x1="375" x2="532" y1="279.9883" y2="279.9883"/></g><!--MD5=[c2a6dd64d5cb94713f0d24156b7e2734]
class ViewingUpdate--><g id="elem_ViewingUpdate"><rect codeLine="13" fill="#F1F1F1" height="64.4883" id="ViewingUpdate" rx="2.5" ry="2.5" style="stroke:#181818;stroke-width:0.5;" width="153" x="437" y="597"/><ellipse cx="460.1" cy="613" fill="#ADD1B2" rx="11" ry="11" style="stroke:#181818;stroke-width:1.0;"/><path d="M463.7143,619.5 L455.9945,619.5 L455.9945,607.1069 L463.7143,607.1069 L463.7143,609.2651 L458.4433,609.2651 L458.4433,611.938 L463.2162,611.938 L463.2162,614.0962 L458.4433,614.0962 L458.4433,617.3418 L463.7143,617.3418 Z " fill="#000000"/><text fill="#000000" font-family="sans-serif" font-size="14" lengthAdjust="spacing" textLength="103" x="475.9" y="618.291">ViewingUpdate</text><line style="stroke:#181818;stroke-width:0.5;" x1="438" x2="589" y1="629" y2="629"/><ellipse cx="448" cy="640" fill="none" rx="3" ry="3" style="stroke:#038048;stroke-width:1.0;"/><text fill="#000000" font-family="sans-serif" font-size="14" lengthAdjust="spacing" textLength="127" x="457" y="646.5352">merkleTreeUpdate</text><line style="stroke:#181818;stroke-width:0.5;" x1="438" x2="589" y1="653.4883" y2="653.4883"/></g><!--MD5=[9f070bf9f108c27faa2eb76515c78fb3]
class Wallet--><g id="elem_Wallet"><rect codeLine="17" fill="#F1F1F1" height="64.4883" id="Wallet" rx="2.5" ry="2.5" style="stroke:#181818;stroke-width:0.5;" width="261" x="253" y="431"/><ellipse cx="358.75" cy="447" fill="#ADD1B2" rx="11" ry="11" style="stroke:#181818;stroke-width:1.0;"/><path d="M362.3643,453.5 L354.6445,453.5 L354.6445,441.1069 L362.3643,441.1069 L362.3643,443.2651 L357.0933,443.2651 L357.0933,445.938 L361.8662,445.938 L361.8662,448.0962 L357.0933,448.0962 L357.0933,451.3418 L362.3643,451.3418 Z " fill="#000000"/><text fill="#000000" font-family="sans-serif" font-size="14" lengthAdjust="spacing" textLength="41" x="379.25" y="452.291">Wallet</text><line style="stroke:#181818;stroke-width:0.5;" x1="254" x2="513" y1="463" y2="463"/><line style="stroke:#181818;stroke-width:0.5;" x1="254" x2="513" y1="471" y2="471"/><ellipse cx="264" cy="482" fill="#84BE84" rx="3" ry="3" style="stroke:#038048;stroke-width:1.0;"/><text fill="#000000" font-family="sans-serif" font-size="14" lengthAdjust="spacing" textLength="235" x="273" y="488.5352">viewingKey (encryption secret key)</text></g><!--MD5=[4555bb1b0911a5adf28ce6dbe60fed2e]
class Transaction--><g id="elem_Transaction"><rect codeLine="21" fill="#F1F1F1" height="146.9297" id="Transaction" rx="2.5" ry="2.5" style="stroke:#181818;stroke-width:0.5;" width="113" x="221" y="182"/><ellipse cx="236" cy="198" fill="#ADD1B2" rx="11" ry="11" style="stroke:#181818;stroke-width:1.0;"/><path d="M239.6143,204.5 L231.8945,204.5 L231.8945,192.1069 L239.6143,192.1069 L239.6143,194.2651 L234.3433,194.2651 L234.3433,196.938 L239.1162,196.938 L239.1162,199.0962 L234.3433,199.0962 L234.3433,202.3418 L239.6143,202.3418 Z " fill="#000000"/><text fill="#000000" font-family="sans-serif" font-size="14" lengthAdjust="spacing" textLength="81" x="250" y="203.291">Transaction</text><line style="stroke:#181818;stroke-width:0.5;" x1="222" x2="333" y1="214" y2="214"/><ellipse cx="232" cy="225" fill="none" rx="3" ry="3" style="stroke:#038048;stroke-width:1.0;"/><text fill="#000000" font-family="sans-serif" font-size="14" lengthAdjust="spacing" textLength="33" x="241" y="231.5352">hash</text><ellipse cx="232" cy="241.4883" fill="none" rx="3" ry="3" style="stroke:#038048;stroke-width:1.0;"/><text fill="#000000" font-family="sans-serif" font-size="14" lengthAdjust="spacing" textLength="69" x="241" y="248.0234">identifiers</text><ellipse cx="232" cy="257.9766" fill="none" rx="3" ry="3" style="stroke:#038048;stroke-width:1.0;"/><text fill="#000000" font-family="sans-serif" font-size="14" lengthAdjust="spacing" textLength="77" x="241" y="264.5117">block_hash</text><ellipse cx="232" cy="274.4648" fill="none" rx="3" ry="3" style="stroke:#038048;stroke-width:1.0;"/><text fill="#000000" font-family="sans-serif" font-size="14" lengthAdjust="spacing" textLength="25" x="241" y="281">raw</text><ellipse cx="232" cy="290.9531" fill="none" rx="3" ry="3" style="stroke:#038048;stroke-width:1.0;"/><text fill="#000000" font-family="sans-serif" font-size="14" lengthAdjust="spacing" textLength="46" x="241" y="297.4883">fallible</text><ellipse cx="232" cy="307.4414" fill="none" rx="3" ry="3" style="stroke:#038048;stroke-width:1.0;"/><text fill="#000000" font-family="sans-serif" font-size="14" lengthAdjust="spacing" textLength="75" x="241" y="313.9766">applyStage</text><line style="stroke:#181818;stroke-width:0.5;" x1="222" x2="333" y1="320.9297" y2="320.9297"/></g><!--MD5=[dc101660ce94123d19f52db8ae8ac476]
class ContractUpdate--><g id="elem_ContractUpdate"><rect codeLine="30" fill="#F1F1F1" height="113.9531" id="ContractUpdate" rx="2.5" ry="2.5" style="stroke:#181818;stroke-width:0.5;" width="143" x="75" y="406"/><ellipse cx="91.35" cy="422" fill="#ADD1B2" rx="11" ry="11" style="stroke:#181818;stroke-width:1.0;"/><path d="M94.9643,428.5 L87.2445,428.5 L87.2445,416.1069 L94.9643,416.1069 L94.9643,418.2651 L89.6933,418.2651 L89.6933,420.938 L94.4662,420.938 L94.4662,423.0962 L89.6933,423.0962 L89.6933,426.3418 L94.9643,426.3418 Z " fill="#000000"/><text fill="#000000" font-family="sans-serif" font-size="14" lengthAdjust="spacing" textLength="108" x="105.65" y="427.291">ContractUpdate</text><line style="stroke:#181818;stroke-width:0.5;" x1="76" x2="217" y1="438" y2="438"/><ellipse cx="86" cy="449" fill="none" rx="3" ry="3" style="stroke:#038048;stroke-width:1.0;"/><text fill="#000000" font-family="sans-serif" font-size="14" lengthAdjust="spacing" textLength="54" x="95" y="455.5352">address</text><ellipse cx="86" cy="465.4883" fill="none" rx="3" ry="3" style="stroke:#038048;stroke-width:1.0;"/><text fill="#000000" font-family="sans-serif" font-size="14" lengthAdjust="spacing" textLength="117" x="95" y="472.0234">transaction_hash</text><ellipse cx="86" cy="481.9766" fill="none" rx="3" ry="3" style="stroke:#038048;stroke-width:1.0;"/><text fill="#000000" font-family="sans-serif" font-size="14" lengthAdjust="spacing" textLength="117" x="95" y="488.5117">zswapChainState</text><ellipse cx="86" cy="498.4648" fill="none" rx="3" ry="3" style="stroke:#038048;stroke-width:1.0;"/><text fill="#000000" font-family="sans-serif" font-size="14" lengthAdjust="spacing" textLength="33" x="95" y="505">state</text><line style="stroke:#181818;stroke-width:0.5;" x1="76" x2="217" y1="511.9531" y2="511.9531"/></g><!--MD5=[391aee55d78372ff66e132748da6333e]
class ContractDeploy--><g id="elem_ContractDeploy"><rect codeLine="37" fill="#F1F1F1" height="64.4883" id="ContractDeploy" rx="2.5" ry="2.5" style="stroke:#181818;stroke-width:0.5;" width="138" x="159.5" y="597"/><ellipse cx="174.5" cy="613" fill="#ADD1B2" rx="11" ry="11" style="stroke:#181818;stroke-width:1.0;"/><path d="M178.1143,619.5 L170.3945,619.5 L170.3945,607.1069 L178.1143,607.1069 L178.1143,609.2651 L172.8433,609.2651 L172.8433,611.938 L177.6162,611.938 L177.6162,614.0962 L172.8433,614.0962 L172.8433,617.3418 L178.1143,617.3418 Z " fill="#000000"/><text fill="#000000" font-family="sans-serif" font-size="14" lengthAdjust="spacing" textLength="106" x="188.5" y="618.291">ContractDeploy</text><line style="stroke:#181818;stroke-width:0.5;" x1="160.5" x2="296.5" y1="629" y2="629"/><ellipse cx="170.5" cy="640" fill="none" rx="3" ry="3" style="stroke:#038048;stroke-width:1.0;"/><text fill="#000000" font-family="sans-serif" font-size="14" lengthAdjust="spacing" textLength="66" x="179.5" y="646.5352">definition</text><line style="stroke:#181818;stroke-width:0.5;" x1="160.5" x2="296.5" y1="653.4883" y2="653.4883"/></g><!--MD5=[cc27890e8876f0affbb57e86e63cb521]
class ContractCall--><g id="elem_ContractCall"><rect codeLine="41" fill="#F1F1F1" height="64.4883" id="ContractCall" rx="2.5" ry="2.5" style="stroke:#181818;stroke-width:0.5;" width="117" x="7" y="597"/><ellipse cx="22" cy="613" fill="#ADD1B2" rx="11" ry="11" style="stroke:#181818;stroke-width:1.0;"/><path d="M25.6143,619.5 L17.8945,619.5 L17.8945,607.1069 L25.6143,607.1069 L25.6143,609.2651 L20.3433,609.2651 L20.3433,611.938 L25.1162,611.938 L25.1162,614.0962 L20.3433,614.0962 L20.3433,617.3418 L25.6143,617.3418 Z " fill="#000000"/><text fill="#000000" font-family="sans-serif" font-size="14" lengthAdjust="spacing" textLength="85" x="36" y="618.291">ContractCall</text><line style="stroke:#181818;stroke-width:0.5;" x1="8" x2="123" y1="629" y2="629"/><ellipse cx="18" cy="640" fill="none" rx="3" ry="3" style="stroke:#038048;stroke-width:1.0;"/><text fill="#000000" font-family="sans-serif" font-size="14" lengthAdjust="spacing" textLength="67" x="27" y="646.5352">operation</text><line style="stroke:#181818;stroke-width:0.5;" x1="8" x2="123" y1="653.4883" y2="653.4883"/></g><!--MD5=[b056b54640e8d43cd87144fcc6474095]
link Block to Transaction--><g id="link_Block_Transaction"><path codeLine="45" d="M277.5,130.81 C277.5,144.11 277.5,158.25 277.5,172.03 " fill="none" id="Block-Transaction" style="stroke:#181818;stroke-width:1.0;"/><line style="stroke:#181818;stroke-width:1.0;" x1="277.5" x2="283.5" y1="171.99" y2="179.99"/><line style="stroke:#181818;stroke-width:1.0;" x1="277.5" x2="271.5" y1="171.99" y2="179.99"/><line style="stroke:#181818;stroke-width:1.0;" x1="277.5" x2="277.5" y1="171.99" y2="179.99"/><ellipse cx="277.5" cy="165.99" fill="none" rx="4" ry="4" style="stroke:#181818;stroke-width:1.0;"/><line style="stroke:#181818;stroke-width:1.0;" x1="273.5" x2="281.5" y1="126.86" y2="126.86"/><line style="stroke:#181818;stroke-width:1.0;" x1="273.5" x2="281.5" y1="129.86" y2="129.86"/><line style="stroke:#181818;stroke-width:1.0;" x1="277.5" x2="277.5" y1="130.86" y2="122.86"/></g><!--MD5=[f06564e38612ea7fe6c2c8e207b8dd5c]
link Transaction to ContractUpdate--><g id="link_Transaction_ContractUpdate"><path codeLine="46" d="M226.03,337.25 C213.23,357.32 199.69,378.57 187.47,397.73 " fill="none" id="Transaction-ContractUpdate" style="stroke:#181818;stroke-width:1.0;"/><line style="stroke:#181818;stroke-width:1.0;" x1="187.6215" x2="188.3789" y1="397.5048" y2="407.4761"/><line style="stroke:#181818;stroke-width:1.0;" x1="187.6215" x2="178.2611" y1="397.5048" y2="401.0239"/><line style="stroke:#181818;stroke-width:1.0;" x1="187.6215" x2="183.32" y1="397.5048" y2="404.25"/><ellipse cx="190.8476" cy="392.446" fill="none" rx="4" ry="4" style="stroke:#181818;stroke-width:1.0;"/><line style="stroke:#181818;stroke-width:1.0;" x1="224.7979" x2="231.5471" y1="331.7471" y2="336.0421"/><line style="stroke:#181818;stroke-width:1.0;" x1="223.1872" x2="229.9365" y1="334.2781" y2="338.5731"/><line style="stroke:#181818;stroke-width:1.0;" x1="226.025" x2="230.32" y1="337.2693" y2="330.52"/></g><!--MD5=[a5a71c951d5af1bbabbc25302ab9700b]
link ContractUpdate to ContractCall--><g id="link_ContractUpdate_ContractCall"><path codeLine="47" d="M118.62,520.44 C107.08,543.81 94.01,570.27 83.73,591.09 " fill="none" id="ContractUpdate-to-ContractCall" style="stroke:#181818;stroke-width:1.0;"/><polygon fill="#181818" points="81.58,595.45,89.1505,589.1503,83.7932,590.9665,81.9769,585.6091,81.58,595.45" style="stroke:#181818;stroke-width:1.0;"/><text fill="#000000" font-family="sans-serif" font-size="13" lengthAdjust="spacing" textLength="43" x="105.5" y="563.5684">variant</text></g><!--MD5=[375631e964cddd08ddc486bb2474a1b9]
link ContractUpdate to ContractDeploy--><g id="link_ContractUpdate_ContractDeploy"><path codeLine="48" d="M174.72,520.44 C186.41,543.81 199.63,570.27 210.05,591.09 " fill="none" id="ContractUpdate-to-ContractDeploy" style="stroke:#181818;stroke-width:1.0;"/><polygon fill="#181818" points="212.23,595.46,211.7702,585.6219,209.9882,590.9907,204.6194,589.2087,212.23,595.46" style="stroke:#181818;stroke-width:1.0;"/><text fill="#000000" font-family="sans-serif" font-size="13" lengthAdjust="spacing" textLength="43" x="197.5" y="563.5684">variant</text></g><!--MD5=[83553b892abb33661988a148e517baa4]
link Transaction to Wallet--><g id="link_Transaction_Wallet"><path codeLine="50" d="M304.04,337.82 C309.26,350.85 315.11,363.99 321.5,376 C330.18,392.33 341.6,409.09 352.27,423.43 " fill="none" id="Transaction-Wallet" style="stroke:#181818;stroke-width:1.0;"/><line style="stroke:#181818;stroke-width:1.0;" x1="352.0249" x2="361.6358" y1="423.0989" y2="425.8612"/><line style="stroke:#181818;stroke-width:1.0;" x1="352.0249" x2="352.0642" y1="423.0989" y2="433.0988"/><line style="stroke:#181818;stroke-width:1.0;" x1="352.0249" x2="356.85" y1="423.0989" y2="429.48"/><ellipse cx="348.4061" cy="418.3131" fill="none" rx="4" ry="4" style="stroke:#181818;stroke-width:1.0;"/><line style="stroke:#181818;stroke-width:1.0;" x1="304.1596" x2="295.668" y1="338.146" y2="332.8647"/><line style="stroke:#181818;stroke-width:1.0;" x1="304.1596" x2="306.852" y1="338.146" y2="328.5153"/><line style="stroke:#181818;stroke-width:1.0;" x1="304.1596" x2="301.26" y1="338.146" y2="330.69"/><ellipse cx="306.3342" cy="343.7381" fill="none" rx="4" ry="4" style="stroke:#181818;stroke-width:1.0;"/><text fill="#000000" font-family="sans-serif" font-size="13" lengthAdjust="spacing" textLength="82" x="322.5" y="372.5684">is relevant to</text></g><!--MD5=[70402811f10be5cb542e5d4c5adfb4ce]
link Wallet to ViewingUpdate--><g id="link_Wallet_ViewingUpdate"><path codeLine="51" d="M414.15,502.66 C434.9,528.84 462.21,563.3 482.95,589.46 " fill="none" id="Wallet-ViewingUpdate" style="stroke:#181818;stroke-width:1.0;"/><line style="stroke:#181818;stroke-width:1.0;" x1="482.7004" x2="492.3719" y1="589.1508" y2="591.6928"/><line style="stroke:#181818;stroke-width:1.0;" x1="482.7004" x2="482.9681" y1="589.1508" y2="599.1472"/><line style="stroke:#181818;stroke-width:1.0;" x1="482.7004" x2="487.67" y1="589.1508" y2="595.42"/><line style="stroke:#181818;stroke-width:1.0;" x1="484.5925" x2="478.3234" y1="585.0987" y2="590.0683"/><line style="stroke:#181818;stroke-width:1.0;" x1="408.5502" x2="414.8194" y1="502.0394" y2="497.0698"/><line style="stroke:#181818;stroke-width:1.0;" x1="410.4139" x2="416.683" y1="504.3904" y2="499.4207"/><line style="stroke:#181818;stroke-width:1.0;" x1="414.1696" x2="409.2" y1="502.6892" y2="496.42"/><text fill="#000000" font-family="sans-serif" font-size="13" lengthAdjust="spacing" textLength="58" x="464.5" y="563.5684">produces</text></g><!--MD5=[43a485149ee8e637724545af276ee923]
link WalletSubscription to Wallet--><g id="link_WalletSubscription_Wallet"><path codeLine="52" d="M439.96,296.26 C427.62,332.48 409.49,385.7 397.13,421.99 " fill="none" id="WalletSubscription-Wallet" style="stroke:#181818;stroke-width:1.0;"/><line style="stroke:#181818;stroke-width:1.0;" x1="399.6781" x2="392.1074" y1="426.9074" y2="424.3219"/><line style="stroke:#181818;stroke-width:1.0;" x1="400.6476" x2="393.0769" y1="424.0684" y2="421.4829"/><line style="stroke:#181818;stroke-width:1.0;" x1="397.1855" x2="394.6" y1="421.8293" y2="429.4"/><line style="stroke:#181818;stroke-width:1.0;" x1="439.7945" x2="436.702" y1="296.7107" y2="287.2009"/><line style="stroke:#181818;stroke-width:1.0;" x1="439.7945" x2="448.058" y1="296.7107" y2="291.0791"/><line style="stroke:#181818;stroke-width:1.0;" x1="439.7945" x2="442.38" y1="296.7107" y2="289.14"/><ellipse cx="437.8554" cy="302.3887" fill="none" rx="4" ry="4" style="stroke:#181818;stroke-width:1.0;"/><text fill="#000000" font-family="sans-serif" font-size="13" lengthAdjust="spacing" textLength="74" x="419.5" y="372.5684">connects to</text></g><!--MD5=[7bdcd1b583c168e008682f9f573366f3]
link WalletSubscription to ViewingUpdate--><g id="link_WalletSubscription_ViewingUpdate"><path codeLine="53" d="M480.72,295.78 C499.08,324.77 521.69,365.98 531.5,406 C548.54,475.5 541.73,496.18 531.5,567 C530.52,573.76 528.97,580.82 527.17,587.63 " fill="none" id="WalletSubscription-ViewingUpdate" style="stroke:#181818;stroke-width:1.0;"/><line style="stroke:#181818;stroke-width:1.0;" x1="527.1813" x2="530.7848" y1="587.5703" y2="596.8985"/><line style="stroke:#181818;stroke-width:1.0;" x1="527.1813" x2="519.2352" y1="587.5703" y2="593.6415"/><line style="stroke:#181818;stroke-width:1.0;" x1="527.1813" x2="525.01" y1="587.5703" y2="595.27"/><line style="stroke:#181818;stroke-width:1.0;" x1="531.574" x2="523.8743" y1="586.7311" y2="584.5597"/><line style="stroke:#181818;stroke-width:1.0;" x1="475.3037" x2="482.0211" y1="294.7411" y2="290.3963"/><line style="stroke:#181818;stroke-width:1.0;" x1="476.9331" x2="483.6504" y1="297.2601" y2="292.9152"/><line style="stroke:#181818;stroke-width:1.0;" x1="480.8348" x2="476.49" y1="295.9273" y2="289.21"/><text fill="#000000" font-family="sans-serif" font-size="13" lengthAdjust="spacing" textLength="93" x="542.5" y="468.0684">sends to client</text></g><!--MD5=[2b9b241624ed4a90d0a4b573efb2b357]
@startuml

entity Block {
+ hash
+ height
+ timestamp
+ parent_hash
}

entity WalletSubscription {
+ id
}

entity ViewingUpdate {
+ merkleTreeUpdate
}

entity Wallet {
+ viewingKey (encryption secret key)
}

entity Transaction {
+ hash
+ identifiers
+ block_hash
+ raw
+ fallible
+ applyStage
}

entity ContractUpdate {
+ address
+ transaction_hash
+ zswapChainState
+ state
}

entity ContractDeploy {
+ definition
}

entity ContractCall {
+ operation
}

Block ||- -o{ Transaction
Transaction ||- -o{ ContractUpdate
ContractUpdate - -> ContractCall : variant
ContractUpdate - -> ContractDeploy : variant

Transaction }o- -o{ Wallet : is relevant to
Wallet ||- -|{ ViewingUpdate : produces
WalletSubscription }o- -|| Wallet : connects to
WalletSubscription ||- -|{ ViewingUpdate : sends to client
@enduml

PlantUML version 1.2022.3(Tue Mar 29 18:10:57 CEST 2022)
(GPL source distribution)
Java Runtime: OpenJDK Runtime Environment
JVM: OpenJDK 64-Bit Server VM
Default Encoding: UTF-8
Language: en
Country: PL
--></g></svg>