<?xml version="1.0" encoding="us-ascii" standalone="no"?><svg xmlns="http://www.w3.org/2000/svg" xmlns:xlink="http://www.w3.org/1999/xlink" contentStyleType="text/css" height="793px" preserveAspectRatio="none" style="width:751px;height:793px;background:#FFFFFF;" version="1.1" viewBox="0 0 751 793" width="751px" zoomAndPan="magnify"><defs/><g><!--class Block--><g id="elem_Block"><rect codeLine="2" fill="#F1F1F1" height="113.9531" id="Block" rx="2.5" ry="2.5" style="stroke:#181818;stroke-width:0.5;" width="111" x="222" y="7"/><ellipse cx="256.35" cy="23" fill="#ADD1B2" rx="11" ry="11" style="stroke:#181818;stroke-width:1.0;"/><path d="M259.9643,29.5 L252.2445,29.5 L252.2445,17.1069 L259.9643,17.1069 L259.9643,19.2651 L254.6933,19.2651 L254.6933,21.938 L259.4662,21.938 L259.4662,24.0962 L254.6933,24.0962 L254.6933,27.3418 L259.9643,27.3418 Z " fill="#000000"/><text fill="#000000" font-family="sans-serif" font-size="14" lengthAdjust="spacing" textLength="36" x="274.65" y="28.291">Block</text><line style="stroke:#181818;stroke-width:0.5;" x1="223" x2="332" y1="39" y2="39"/><ellipse cx="233" cy="52.7441" fill="none" rx="3" ry="3" style="stroke:#038048;stroke-width:1.0;"/><text fill="#000000" font-family="sans-serif" font-size="14" lengthAdjust="spacing" textLength="33" x="242" y="56.5352">hash</text><ellipse cx="233" cy="69.2324" fill="none" rx="3" ry="3" style="stroke:#038048;stroke-width:1.0;"/><text fill="#000000" font-family="sans-serif" font-size="14" lengthAdjust="spacing" textLength="44" x="242" y="73.0234">height</text><ellipse cx="233" cy="85.7207" fill="none" rx="3" ry="3" style="stroke:#038048;stroke-width:1.0;"/><text fill="#000000" font-family="sans-serif" font-size="14" lengthAdjust="spacing" textLength="72" x="242" y="89.5117">timestamp</text><ellipse cx="233" cy="102.209" fill="none" rx="3" ry="3" style="stroke:#038048;stroke-width:1.0;"/><text fill="#000000" font-family="sans-serif" font-size="14" lengthAdjust="spacing" textLength="85" x="242" y="106">parent_hash</text><line style="stroke:#181818;stroke-width:0.5;" x1="223" x2="332" y1="112.9531" y2="112.9531"/></g><!--class WalletSubscription--><g id="elem_WalletSubscription"><rect codeLine="9" fill="#F1F1F1" height="64.4883" id="WalletSubscription" rx="2.5" ry="2.5" style="stroke:#181818;stroke-width:0.5;" width="159" x="374" y="223.17"/><ellipse cx="389" cy="239.17" fill="#ADD1B2" rx="11" ry="11" style="stroke:#181818;stroke-width:1.0;"/><path d="M392.6143,245.67 L384.8945,245.67 L384.8945,233.2769 L392.6143,233.2769 L392.6143,235.4351 L387.3433,235.4351 L387.3433,238.108 L392.1162,238.108 L392.1162,240.2662 L387.3433,240.2662 L387.3433,243.5118 L392.6143,243.5118 Z " fill="#000000"/><text fill="#000000" font-family="sans-serif" font-size="14" lengthAdjust="spacing" textLength="127" x="403" y="244.461">WalletSubscription</text><line style="stroke:#181818;stroke-width:0.5;" x1="375" x2="532" y1="255.17" y2="255.17"/><ellipse cx="385" cy="268.9141" fill="none" rx="3" ry="3" style="stroke:#038048;stroke-width:1.0;"/><text fill="#000000" font-family="sans-serif" font-size="14" lengthAdjust="spacing" textLength="13" x="394" y="272.7052">id</text><line style="stroke:#181818;stroke-width:0.5;" x1="375" x2="532" y1="279.6583" y2="279.6583"/></g><!--class ViewingUpdate--><g id="elem_ViewingUpdate"><rect codeLine="13" fill="#F1F1F1" height="64.4883" id="ViewingUpdate" rx="2.5" ry="2.5" style="stroke:#181818;stroke-width:0.5;" width="143" x="442" y="596.83"/><ellipse cx="460.6" cy="612.83" fill="#EB937F" rx="11" ry="11" style="stroke:#181818;stroke-width:1.0;"/><path d="M464.2143,619.33 L456.4945,619.33 L456.4945,606.9369 L464.2143,606.9369 L464.2143,609.0951 L458.9433,609.0951 L458.9433,611.768 L463.7162,611.768 L463.7162,613.9262 L458.9433,613.9262 L458.9433,617.1718 L464.2143,617.1718 Z " fill="#000000"/><text fill="#000000" font-family="sans-serif" font-size="14" lengthAdjust="spacing" textLength="103" x="475.4" y="618.121">ViewingUpdate</text><line style="stroke:#181818;stroke-width:0.5;" x1="443" x2="584" y1="628.83" y2="628.83"/><ellipse cx="453" cy="642.5741" fill="none" rx="3" ry="3" style="stroke:#038048;stroke-width:1.0;"/><text fill="#000000" font-family="sans-serif" font-size="14" lengthAdjust="spacing" textLength="117" x="462" y="646.3652">merkleTreeIndex</text><line style="stroke:#181818;stroke-width:0.5;" x1="443" x2="584" y1="653.3183" y2="653.3183"/></g><!--class CollapsedMerkleTreeUpdate--><g id="elem_CollapsedMerkleTreeUpdate"><rect codeLine="16" fill="#F1F1F1" height="48" id="CollapsedMerkleTreeUpdate" rx="2.5" ry="2.5" style="stroke:#181818;stroke-width:0.5;" width="226" x="273.5" y="730.57"/><ellipse cx="288.5" cy="746.57" fill="#ADD1B2" rx="11" ry="11" style="stroke:#181818;stroke-width:1.0;"/><path d="M292.1143,753.07 L284.3945,753.07 L284.3945,740.6769 L292.1143,740.6769 L292.1143,742.8351 L286.8433,742.8351 L286.8433,745.508 L291.6162,745.508 L291.6162,747.6662 L286.8433,747.6662 L286.8433,750.9118 L292.1143,750.9118 Z " fill="#000000"/><text fill="#000000" font-family="sans-serif" font-size="14" lengthAdjust="spacing" textLength="194" x="302.5" y="751.861">CollapsedMerkleTreeUpdate</text><line style="stroke:#181818;stroke-width:0.5;" x1="274.5" x2="498.5" y1="762.57" y2="762.57"/><line style="stroke:#181818;stroke-width:0.5;" x1="274.5" x2="498.5" y1="770.57" y2="770.57"/></g><!--class TransactionsUpdate--><g id="elem_TransactionsUpdate"><rect codeLine="17" fill="#F1F1F1" height="64.4883" id="TransactionsUpdate" rx="2.5" ry="2.5" style="stroke:#181818;stroke-width:0.5;" width="209" x="535" y="722.32"/><ellipse cx="568" cy="738.32" fill="#ADD1B2" rx="11" ry="11" style="stroke:#181818;stroke-width:1.0;"/><path d="M571.6143,744.82 L563.8945,744.82 L563.8945,732.4269 L571.6143,732.4269 L571.6143,734.5851 L566.3433,734.5851 L566.3433,737.258 L571.1162,737.258 L571.1162,739.4162 L566.3433,739.4162 L566.3433,742.6618 L571.6143,742.6618 Z " fill="#000000"/><text fill="#000000" font-family="sans-serif" font-size="14" lengthAdjust="spacing" textLength="137" x="586" y="743.611">TransactionsUpdate</text><line style="stroke:#181818;stroke-width:0.5;" x1="536" x2="743" y1="754.32" y2="754.32"/><ellipse cx="546" cy="768.0641" fill="none" rx="3" ry="3" style="stroke:#038048;stroke-width:1.0;"/><text fill="#000000" font-family="sans-serif" font-size="14" lengthAdjust="spacing" textLength="183" x="555" y="771.8552">transactions: Transaction[]</text><line style="stroke:#181818;stroke-width:0.5;" x1="536" x2="743" y1="778.8083" y2="778.8083"/></g><!--class Wallet--><g id="elem_Wallet"><rect codeLine="24" fill="#F1F1F1" height="64.4883" id="Wallet" rx="2.5" ry="2.5" style="stroke:#181818;stroke-width:0.5;" width="261" x="253" y="430.61"/><ellipse cx="358.75" cy="446.61" fill="#ADD1B2" rx="11" ry="11" style="stroke:#181818;stroke-width:1.0;"/><path d="M362.3643,453.11 L354.6445,453.11 L354.6445,440.7169 L362.3643,440.7169 L362.3643,442.8751 L357.0933,442.8751 L357.0933,445.548 L361.8662,445.548 L361.8662,447.7062 L357.0933,447.7062 L357.0933,450.9518 L362.3643,450.9518 Z " fill="#000000"/><text fill="#000000" font-family="sans-serif" font-size="14" lengthAdjust="spacing" textLength="41" x="379.25" y="451.901">Wallet</text><line style="stroke:#181818;stroke-width:0.5;" x1="254" x2="513" y1="462.61" y2="462.61"/><line style="stroke:#181818;stroke-width:0.5;" x1="254" x2="513" y1="470.61" y2="470.61"/><ellipse cx="264" cy="484.3541" fill="#84BE84" rx="3" ry="3" style="stroke:#038048;stroke-width:1.0;"/><text fill="#000000" font-family="sans-serif" font-size="14" lengthAdjust="spacing" textLength="235" x="273" y="488.1452">viewingKey (encryption secret key)</text></g><!--class Transaction--><g id="elem_Transaction"><rect codeLine="28" fill="#F1F1F1" height="146.9297" id="Transaction" rx="2.5" ry="2.5" style="stroke:#181818;stroke-width:0.5;" width="113" x="221" y="181.95"/><ellipse cx="236" cy="197.95" fill="#ADD1B2" rx="11" ry="11" style="stroke:#181818;stroke-width:1.0;"/><path d="M239.6143,204.45 L231.8945,204.45 L231.8945,192.0569 L239.6143,192.0569 L239.6143,194.2151 L234.3433,194.2151 L234.3433,196.888 L239.1162,196.888 L239.1162,199.0462 L234.3433,199.0462 L234.3433,202.2918 L239.6143,202.2918 Z " fill="#000000"/><text fill="#000000" font-family="sans-serif" font-size="14" lengthAdjust="spacing" textLength="81" x="250" y="203.241">Transaction</text><line style="stroke:#181818;stroke-width:0.5;" x1="222" x2="333" y1="213.95" y2="213.95"/><ellipse cx="232" cy="227.6941" fill="none" rx="3" ry="3" style="stroke:#038048;stroke-width:1.0;"/><text fill="#000000" font-family="sans-serif" font-size="14" lengthAdjust="spacing" textLength="33" x="241" y="231.4852">hash</text><ellipse cx="232" cy="244.1824" fill="none" rx="3" ry="3" style="stroke:#038048;stroke-width:1.0;"/><text fill="#000000" font-family="sans-serif" font-size="14" lengthAdjust="spacing" textLength="69" x="241" y="247.9734">identifiers</text><ellipse cx="232" cy="260.6707" fill="none" rx="3" ry="3" style="stroke:#038048;stroke-width:1.0;"/><text fill="#000000" font-family="sans-serif" font-size="14" lengthAdjust="spacing" textLength="77" x="241" y="264.4617">block_hash</text><ellipse cx="232" cy="277.159" fill="none" rx="3" ry="3" style="stroke:#038048;stroke-width:1.0;"/><text fill="#000000" font-family="sans-serif" font-size="14" lengthAdjust="spacing" textLength="25" x="241" y="280.95">raw</text><ellipse cx="232" cy="293.6473" fill="none" rx="3" ry="3" style="stroke:#038048;stroke-width:1.0;"/><text fill="#000000" font-family="sans-serif" font-size="14" lengthAdjust="spacing" textLength="46" x="241" y="297.4383">fallible</text><ellipse cx="232" cy="310.1355" fill="none" rx="3" ry="3" style="stroke:#038048;stroke-width:1.0;"/><text fill="#000000" font-family="sans-serif" font-size="14" lengthAdjust="spacing" textLength="75" x="241" y="313.9266">applyStage</text><line style="stroke:#181818;stroke-width:0.5;" x1="222" x2="333" y1="320.8797" y2="320.8797"/></g><!--class ContractUpdate--><g id="elem_ContractUpdate"><rect codeLine="37" fill="#F1F1F1" height="113.9531" id="ContractUpdate" rx="2.5" ry="2.5" style="stroke:#181818;stroke-width:0.5;" width="143" x="75" y="405.88"/><ellipse cx="91.35" cy="421.88" fill="#ADD1B2" rx="11" ry="11" style="stroke:#181818;stroke-width:1.0;"/><path d="M94.9643,428.38 L87.2445,428.38 L87.2445,415.9869 L94.9643,415.9869 L94.9643,418.1451 L89.6933,418.1451 L89.6933,420.818 L94.4662,420.818 L94.4662,422.9762 L89.6933,422.9762 L89.6933,426.2218 L94.9643,426.2218 Z " fill="#000000"/><text fill="#000000" font-family="sans-serif" font-size="14" lengthAdjust="spacing" textLength="108" x="105.65" y="427.171">ContractUpdate</text><line style="stroke:#181818;stroke-width:0.5;" x1="76" x2="217" y1="437.88" y2="437.88"/><ellipse cx="86" cy="451.6241" fill="none" rx="3" ry="3" style="stroke:#038048;stroke-width:1.0;"/><text fill="#000000" font-family="sans-serif" font-size="14" lengthAdjust="spacing" textLength="54" x="95" y="455.4152">address</text><ellipse cx="86" cy="468.1124" fill="none" rx="3" ry="3" style="stroke:#038048;stroke-width:1.0;"/><text fill="#000000" font-family="sans-serif" font-size="14" lengthAdjust="spacing" textLength="117" x="95" y="471.9034">transaction_hash</text><ellipse cx="86" cy="484.6007" fill="none" rx="3" ry="3" style="stroke:#038048;stroke-width:1.0;"/><text fill="#000000" font-family="sans-serif" font-size="14" lengthAdjust="spacing" textLength="117" x="95" y="488.3917">zswapChainState</text><ellipse cx="86" cy="501.089" fill="none" rx="3" ry="3" style="stroke:#038048;stroke-width:1.0;"/><text fill="#000000" font-family="sans-serif" font-size="14" lengthAdjust="spacing" textLength="33" x="95" y="504.88">state</text><line style="stroke:#181818;stroke-width:0.5;" x1="76" x2="217" y1="511.8331" y2="511.8331"/></g><!--class ContractDeploy--><g id="elem_ContractDeploy"><rect codeLine="44" fill="#F1F1F1" height="64.4883" id="ContractDeploy" rx="2.5" ry="2.5" style="stroke:#181818;stroke-width:0.5;" width="138" x="159.5" y="596.83"/><ellipse cx="174.5" cy="612.83" fill="#ADD1B2" rx="11" ry="11" style="stroke:#181818;stroke-width:1.0;"/><path d="M178.1143,619.33 L170.3945,619.33 L170.3945,606.9369 L178.1143,606.9369 L178.1143,609.0951 L172.8433,609.0951 L172.8433,611.768 L177.6162,611.768 L177.6162,613.9262 L172.8433,613.9262 L172.8433,617.1718 L178.1143,617.1718 Z " fill="#000000"/><text fill="#000000" font-family="sans-serif" font-size="14" lengthAdjust="spacing" textLength="106" x="188.5" y="618.121">ContractDeploy</text><line style="stroke:#181818;stroke-width:0.5;" x1="160.5" x2="296.5" y1="628.83" y2="628.83"/><ellipse cx="170.5" cy="642.5741" fill="none" rx="3" ry="3" style="stroke:#038048;stroke-width:1.0;"/><text fill="#000000" font-family="sans-serif" font-size="14" lengthAdjust="spacing" textLength="66" x="179.5" y="646.3652">definition</text><line style="stroke:#181818;stroke-width:0.5;" x1="160.5" x2="296.5" y1="653.3183" y2="653.3183"/></g><!--class ContractCall--><g id="elem_ContractCall"><rect codeLine="48" fill="#F1F1F1" height="64.4883" id="ContractCall" rx="2.5" ry="2.5" style="stroke:#181818;stroke-width:0.5;" width="117" x="7" y="596.83"/><ellipse cx="22" cy="612.83" fill="#ADD1B2" rx="11" ry="11" style="stroke:#181818;stroke-width:1.0;"/><path d="M25.6143,619.33 L17.8945,619.33 L17.8945,606.9369 L25.6143,606.9369 L25.6143,609.0951 L20.3433,609.0951 L20.3433,611.768 L25.1162,611.768 L25.1162,613.9262 L20.3433,613.9262 L20.3433,617.1718 L25.6143,617.1718 Z " fill="#000000"/><text fill="#000000" font-family="sans-serif" font-size="14" lengthAdjust="spacing" textLength="85" x="36" y="618.121">ContractCall</text><line style="stroke:#181818;stroke-width:0.5;" x1="8" x2="123" y1="628.83" y2="628.83"/><ellipse cx="18" cy="642.5741" fill="none" rx="3" ry="3" style="stroke:#038048;stroke-width:1.0;"/><text fill="#000000" font-family="sans-serif" font-size="14" lengthAdjust="spacing" textLength="67" x="27" y="646.3652">operation</text><line style="stroke:#181818;stroke-width:0.5;" x1="8" x2="123" y1="653.3183" y2="653.3183"/></g><!--reverse link ViewingUpdate to CollapsedMerkleTreeUpdate--><g id="link_ViewingUpdate_CollapsedMerkleTreeUpdate"><path codeLine="21" d="M468.2177,674.1111 C446.1777,695.5511 430.38,710.9 410.39,730.33 " fill="none" id="ViewingUpdate-backto-CollapsedMerkleTreeUpdate" style="stroke:#181818;stroke-width:1.0;"/><polygon fill="none" points="481.12,661.56,464.034,669.8103,472.4014,678.4119,481.12,661.56" style="stroke:#181818;stroke-width:1.0;"/></g><!--reverse link ViewingUpdate to TransactionsUpdate--><g id="link_ViewingUpdate_TransactionsUpdate"><path codeLine="22" d="M558.4761,674.1584 C577.4361,692.7384 588.49,703.57 607.44,722.14 " fill="none" id="ViewingUpdate-backto-TransactionsUpdate" style="stroke:#181818;stroke-width:1.0;"/><polygon fill="none" points="545.62,661.56,554.2766,678.4438,562.6756,669.8731,545.62,661.56" style="stroke:#181818;stroke-width:1.0;"/></g><!--link Block to Transaction--><g id="link_Block_Transaction"><path codeLine="52" d="M277.5,129.3 C277.5,148.28 277.5,143.73 277.5,163.78 " fill="none" id="Block-Transaction" style="stroke:#181818;stroke-width:1.0;"/><line style="stroke:#181818;stroke-width:1.0;" x1="273.5" x2="281.5" y1="125.3" y2="125.3"/><line style="stroke:#181818;stroke-width:1.0;" x1="273.5" x2="281.5" y1="128.3" y2="128.3"/><line style="stroke:#181818;stroke-width:1.0;" x1="277.5" x2="277.5" y1="129.3" y2="121.3"/><line style="stroke:#181818;stroke-width:1.0;" x1="277.5" x2="283.5" y1="173.78" y2="181.78"/><line style="stroke:#181818;stroke-width:1.0;" x1="277.5" x2="271.5" y1="173.78" y2="181.78"/><line style="stroke:#181818;stroke-width:1.0;" x1="277.5" x2="277.5" y1="173.78" y2="181.78"/><ellipse cx="277.5" cy="167.78" fill="none" rx="4" ry="4" style="stroke:#181818;stroke-width:1.0;"/></g><!--link Transaction to ContractUpdate--><g id="link_Transaction_ContractUpdate"><path codeLine="53" d="M226.8282,335.885 C210.8582,360.925 207.1992,366.6639 192.1792,390.2139 " fill="none" id="Transaction-ContractUpdate" style="stroke:#181818;stroke-width:1.0;"/><line style="stroke:#181818;stroke-width:1.0;" x1="225.6066" x2="232.3516" y1="330.3616" y2="334.6634"/><line style="stroke:#181818;stroke-width:1.0;" x1="223.9934" x2="230.7384" y1="332.8909" y2="337.1927"/><line style="stroke:#181818;stroke-width:1.0;" x1="226.8282" x2="231.13" y1="335.885" y2="329.14"/><line style="stroke:#181818;stroke-width:1.0;" x1="186.8019" x2="187.5587" y1="398.6451" y2="408.6164"/><line style="stroke:#181818;stroke-width:1.0;" x1="186.8019" x2="177.4413" y1="398.6451" y2="402.1636"/><line style="stroke:#181818;stroke-width:1.0;" x1="186.8019" x2="182.5" y1="398.6451" y2="405.39"/><ellipse cx="190.0283" cy="393.5864" fill="none" rx="4" ry="4" style="stroke:#181818;stroke-width:1.0;"/></g><!--link ContractUpdate to ContractCall--><g id="link_ContractUpdate_ContractCall"><path codeLine="54" d="M118.85,519.91 C106.2,545.56 94.3455,569.6096 83.6455,591.2896 " fill="none" id="ContractUpdate-to-ContractCall" style="stroke:#181818;stroke-width:1.0;"/><polygon fill="#181818" points="80.99,596.67,88.5601,590.3697,83.2029,592.1863,81.3862,586.8291,80.99,596.67" style="stroke:#181818;stroke-width:1.0;"/><text fill="#000000" font-family="sans-serif" font-size="13" lengthAdjust="spacing" textLength="43" x="105.5" y="563.3984">variant</text></g><!--link ContractUpdate to ContractDeploy--><g id="link_ContractUpdate_ContractDeploy"><path codeLine="55" d="M174.49,519.91 C187.3,545.56 199.3087,569.6224 210.1387,591.3024 " fill="none" id="ContractUpdate-to-ContractDeploy" style="stroke:#181818;stroke-width:1.0;"/><polygon fill="#181818" points="212.82,596.67,212.3764,586.8311,210.5856,592.197,205.2197,590.4062,212.82,596.67" style="stroke:#181818;stroke-width:1.0;"/><text fill="#000000" font-family="sans-serif" font-size="13" lengthAdjust="spacing" textLength="43" x="197.5" y="563.3984">variant</text></g><!--link Transaction to Wallet--><g id="link_Transaction_Wallet"><path codeLine="57" d="M307.1272,345.9972 C313.1372,361.7472 313.72,361.24 321.5,375.88 C331.61,394.89 334.4689,400.2023 346.4989,415.8723 " fill="none" id="Transaction-Wallet" style="stroke:#181818;stroke-width:1.0;"/><line style="stroke:#181818;stroke-width:1.0;" x1="303.5621" x2="295.1043" y1="336.6543" y2="331.3191"/><line style="stroke:#181818;stroke-width:1.0;" x1="303.5621" x2="306.3157" y1="336.6543" y2="327.0409"/><line style="stroke:#181818;stroke-width:1.0;" x1="303.5621" x2="300.71" y1="336.6543" y2="329.18"/><ellipse cx="305.7012" cy="342.2601" fill="none" rx="4" ry="4" style="stroke:#181818;stroke-width:1.0;"/><line style="stroke:#181818;stroke-width:1.0;" x1="352.5884" x2="362.2192" y1="423.8043" y2="426.4963"/><line style="stroke:#181818;stroke-width:1.0;" x1="352.5884" x2="352.7008" y1="423.8043" y2="433.8037"/><line style="stroke:#181818;stroke-width:1.0;" x1="352.5884" x2="357.46" y1="423.8043" y2="430.15"/><ellipse cx="348.9347" cy="419.0451" fill="none" rx="4" ry="4" style="stroke:#181818;stroke-width:1.0;"/><text fill="#000000" font-family="sans-serif" font-size="13" lengthAdjust="spacing" textLength="82" x="322.5" y="372.4484">is relevant to</text></g><!--link Wallet to ViewingUpdate--><g id="link_Wallet_ViewingUpdate"><path codeLine="58" d="M413.5354,501.7925 C436.5554,530.8725 460.5554,561.1868 483.5454,590.2368 " fill="none" id="Wallet-ViewingUpdate" style="stroke:#181818;stroke-width:1.0;"/><line style="stroke:#181818;stroke-width:1.0;" x1="407.9164" x2="414.189" y1="501.139" y2="496.1736"/><line style="stroke:#181818;stroke-width:1.0;" x1="409.7785" x2="416.051" y1="503.4912" y2="498.5258"/><line style="stroke:#181818;stroke-width:1.0;" x1="413.5354" x2="408.57" y1="501.7925" y2="495.52"/><line style="stroke:#181818;stroke-width:1.0;" x1="483.5454" x2="493.2149" y1="590.2368" y2="592.7866"/><line style="stroke:#181818;stroke-width:1.0;" x1="483.5454" x2="483.8051" y1="590.2368" y2="600.2334"/><line style="stroke:#181818;stroke-width:1.0;" x1="483.5454" x2="488.51" y1="590.2368" y2="596.51"/><line style="stroke:#181818;stroke-width:1.0;" x1="485.4409" x2="479.1677" y1="586.1862" y2="591.1508"/><text fill="#000000" font-family="sans-serif" font-size="13" lengthAdjust="spacing" textLength="58" x="464.5" y="563.3984">produces</text></g><!--link WalletSubscription to Wallet--><g id="link_WalletSubscription_Wallet"><path codeLine="59" d="M436.9115,305.1071 C423.7515,343.7071 410.0404,383.9776 396.8804,422.5976 " fill="none" id="WalletSubscription-Wallet" style="stroke:#181818;stroke-width:1.0;"/><line style="stroke:#181818;stroke-width:1.0;" x1="440.1384" x2="437.041" y1="295.642" y2="286.1338"/><line style="stroke:#181818;stroke-width:1.0;" x1="440.1384" x2="448.399" y1="295.642" y2="290.0062"/><line style="stroke:#181818;stroke-width:1.0;" x1="440.1384" x2="442.72" y1="295.642" y2="288.07"/><ellipse cx="438.2023" cy="301.321" fill="none" rx="4" ry="4" style="stroke:#181818;stroke-width:1.0;"/><line style="stroke:#181818;stroke-width:1.0;" x1="399.3764" x2="391.804" y1="427.674" y2="425.0936"/><line style="stroke:#181818;stroke-width:1.0;" x1="400.344" x2="392.7716" y1="424.8343" y2="422.2539"/><line style="stroke:#181818;stroke-width:1.0;" x1="396.8804" x2="394.3" y1="422.5976" y2="430.17"/><text fill="#000000" font-family="sans-serif" font-size="13" lengthAdjust="spacing" textLength="74" x="419.5" y="372.4484">connects to</text></g><!--link WalletSubscription to ViewingUpdate--><g id="link_WalletSubscription_ViewingUpdate"><path codeLine="60" d="M480.2322,294.813 C499.2722,323.893 520.8,362.24 531.5,405.88 C548.54,475.36 541.69,496.03 531.5,566.83 C530.1,576.6 529.776,579.3036 526.976,588.6936 " fill="none" id="WalletSubscription-ViewingUpdate" style="stroke:#181818;stroke-width:1.0;"/><line style="stroke:#181818;stroke-width:1.0;" x1="474.6946" x2="481.3876" y1="293.6576" y2="289.2754"/><line style="stroke:#181818;stroke-width:1.0;" x1="476.3379" x2="483.0309" y1="296.1675" y2="291.7853"/><line style="stroke:#181818;stroke-width:1.0;" x1="480.2322" x2="475.85" y1="294.813" y2="288.12"/><line style="stroke:#181818;stroke-width:1.0;" x1="526.976" x2="530.4398" y1="588.6936" y2="598.0745"/><line style="stroke:#181818;stroke-width:1.0;" x1="526.976" x2="518.9402" y1="588.6936" y2="594.6455"/><line style="stroke:#181818;stroke-width:1.0;" x1="526.976" x2="524.69" y1="588.6936" y2="596.36"/><line style="stroke:#181818;stroke-width:1.0;" x1="531.3808" x2="523.7143" y1="587.92" y2="585.634"/><text fill="#000000" font-family="sans-serif" font-size="13" lengthAdjust="spacing" textLength="93" x="542.5" y="467.9284">sends to client</text></g><!--SRC=[VPF1KiCW48RlUGgEEavU8EDuC5uSnrEh7XodiuLjirC23D3MsFJTXIHjIMsz10BV_l_oaw3ov1lsA3LViLrsnofmLHoGbfKF4qyrEW-r2NC35fMVTSW-ox2l_G0fqK_MSySj6KzQTK8aUcPTitV2BQdbcn7WiTkiqQuaJYtYinBu7SX1hDHIWd4eNe_4eUp8J2qe1pmwkKJJ9yj52dr-nKx6JTotUNxTx1Byr_KiWQw9JL_uWWsxGSLjqmVYaDj0hB2vJP9B9DFiISJz1Q5ruMqUhsOsR5dOXkSY-D5SOfY2CRAPU5XYebjg5SBWFWa7XB3et3YcW-gFsu8fAo0Lb7oKTTtuL_49ZTHDfoXmGOgYp0Mk31rsb3PeuG3rNraRqjIxzF1P6iImFJv3TdQaF7yOUnLi0vP0-V_8eViJEpBUwyvukCo2aMCM9Mu2oBpEXlNONhix-wGBPgmMQuukk_0tHE6sFGbphHHoxqwg8_oAWqCbOWdZaaBQlm00]--></g></svg>