<?xml version="1.0" encoding="UTF-8" standalone="no"?><svg xmlns="http://www.w3.org/2000/svg" xmlns:xlink="http://www.w3.org/1999/xlink" contentStyleType="text/css" height="425px" preserveAspectRatio="none" style="width:585px;height:425px;background:#FFFFFF;" version="1.1" viewBox="0 0 585 425" width="585px" zoomAndPan="magnify"><defs/><g><!--MD5=[68a0c021ad4fbab63794e91c3c368f48]
class Block--><g id="elem_Block"><rect codeLine="2" fill="#F1F1F1" height="97.4648" id="Block" rx="2.5" ry="2.5" style="stroke:#181818;stroke-width:0.5;" width="98" x="150.5" y="7"/><ellipse cx="179" cy="23" fill="#ADD1B2" rx="11" ry="11" style="stroke:#181818;stroke-width:1.0;"/><path d="M182.6143,29.5 L174.8945,29.5 L174.8945,17.1069 L182.6143,17.1069 L182.6143,19.2651 L177.3433,19.2651 L177.3433,21.938 L182.1162,21.938 L182.1162,24.0962 L177.3433,24.0962 L177.3433,27.3418 L182.6143,27.3418 Z " fill="#000000"/><text fill="#000000" font-family="sans-serif" font-size="14" lengthAdjust="spacing" textLength="36" x="196" y="28.291">Block</text><line style="stroke:#181818;stroke-width:0.5;" x1="151.5" x2="247.5" y1="39" y2="39"/><ellipse cx="161.5" cy="50" fill="none" rx="3" ry="3" style="stroke:#038048;stroke-width:1.0;"/><text fill="#000000" font-family="sans-serif" font-size="14" lengthAdjust="spacing" textLength="33" x="170.5" y="56.5352">hash</text><ellipse cx="161.5" cy="66.4883" fill="none" rx="3" ry="3" style="stroke:#038048;stroke-width:1.0;"/><text fill="#000000" font-family="sans-serif" font-size="14" lengthAdjust="spacing" textLength="44" x="170.5" y="73.0234">height</text><ellipse cx="161.5" cy="82.9766" fill="none" rx="3" ry="3" style="stroke:#038048;stroke-width:1.0;"/><text fill="#000000" font-family="sans-serif" font-size="14" lengthAdjust="spacing" textLength="72" x="170.5" y="89.5117">timestamp</text><line style="stroke:#181818;stroke-width:0.5;" x1="151.5" x2="247.5" y1="96.4648" y2="96.4648"/></g><!--MD5=[4555bb1b0911a5adf28ce6dbe60fed2e]
class Transaction--><g id="elem_Transaction"><rect codeLine="8" fill="#F1F1F1" height="80.9766" id="Transaction" rx="2.5" ry="2.5" style="stroke:#181818;stroke-width:0.5;" width="113" x="284" y="15"/><ellipse cx="299" cy="31" fill="#ADD1B2" rx="11" ry="11" style="stroke:#181818;stroke-width:1.0;"/><path d="M302.6143,37.5 L294.8945,37.5 L294.8945,25.1069 L302.6143,25.1069 L302.6143,27.2651 L297.3433,27.2651 L297.3433,29.938 L302.1162,29.938 L302.1162,32.0962 L297.3433,32.0962 L297.3433,35.3418 L302.6143,35.3418 Z " fill="#000000"/><text fill="#000000" font-family="sans-serif" font-size="14" lengthAdjust="spacing" textLength="81" x="313" y="36.291">Transaction</text><line style="stroke:#181818;stroke-width:0.5;" x1="285" x2="396" y1="47" y2="47"/><ellipse cx="295" cy="58" fill="none" rx="3" ry="3" style="stroke:#038048;stroke-width:1.0;"/><text fill="#000000" font-family="sans-serif" font-size="14" lengthAdjust="spacing" textLength="33" x="304" y="64.5352">hash</text><ellipse cx="295" cy="74.4883" fill="none" rx="3" ry="3" style="stroke:#038048;stroke-width:1.0;"/><text fill="#000000" font-family="sans-serif" font-size="14" lengthAdjust="spacing" textLength="69" x="304" y="81.0234">identifiers</text><line style="stroke:#181818;stroke-width:0.5;" x1="285" x2="396" y1="87.9766" y2="87.9766"/></g><!--MD5=[0c4a2bfdd2c01e9535db75db69a2cee1]
class TransactionInput--><g id="elem_TransactionInput"><rect codeLine="13" fill="#F1F1F1" height="97.4648" id="TransactionInput" rx="2.5" ry="2.5" style="stroke:#181818;stroke-width:0.5;" width="151" x="7" y="164"/><ellipse cx="22.9" cy="180" fill="#ADD1B2" rx="11" ry="11" style="stroke:#181818;stroke-width:1.0;"/><path d="M26.5143,186.5 L18.7945,186.5 L18.7945,174.1069 L26.5143,174.1069 L26.5143,176.2651 L21.2433,176.2651 L21.2433,178.938 L26.0162,178.938 L26.0162,181.0962 L21.2433,181.0962 L21.2433,184.3418 L26.5143,184.3418 Z " fill="#000000"/><text fill="#000000" font-family="sans-serif" font-size="14" lengthAdjust="spacing" textLength="117" x="37.1" y="185.291">TransactionInput</text><line style="stroke:#181818;stroke-width:0.5;" x1="8" x2="157" y1="196" y2="196"/><ellipse cx="18" cy="207" fill="none" rx="3" ry="3" style="stroke:#038048;stroke-width:1.0;"/><text fill="#000000" font-family="sans-serif" font-size="14" lengthAdjust="spacing" textLength="53" x="27" y="213.5352">nullifier</text><ellipse cx="18" cy="223.4883" fill="none" rx="3" ry="3" style="stroke:#038048;stroke-width:1.0;"/><text fill="#000000" font-family="sans-serif" font-size="14" lengthAdjust="spacing" textLength="125" x="27" y="230.0234">valueCommitment</text><ellipse cx="18" cy="239.9766" fill="none" rx="3" ry="3" style="stroke:#038048;stroke-width:1.0;"/><text fill="#000000" font-family="sans-serif" font-size="14" lengthAdjust="spacing" textLength="110" x="27" y="246.5117">merkleTreeRoot</text><line style="stroke:#181818;stroke-width:0.5;" x1="8" x2="157" y1="253.4648" y2="253.4648"/></g><!--MD5=[ee29146b84b65365b9ce86cd582c392c]
class TransactionOutput--><g id="elem_TransactionOutput"><rect codeLine="19" fill="#F1F1F1" height="80.9766" id="TransactionOutput" rx="2.5" ry="2.5" style="stroke:#181818;stroke-width:0.5;" width="161" x="193" y="172"/><ellipse cx="208" cy="188" fill="#ADD1B2" rx="11" ry="11" style="stroke:#181818;stroke-width:1.0;"/><path d="M211.6143,194.5 L203.8945,194.5 L203.8945,182.1069 L211.6143,182.1069 L211.6143,184.2651 L206.3433,184.2651 L206.3433,186.938 L211.1162,186.938 L211.1162,189.0962 L206.3433,189.0962 L206.3433,192.3418 L211.6143,192.3418 Z " fill="#000000"/><text fill="#000000" font-family="sans-serif" font-size="14" lengthAdjust="spacing" textLength="129" x="222" y="193.291">TransactionOutput</text><line style="stroke:#181818;stroke-width:0.5;" x1="194" x2="353" y1="204" y2="204"/><ellipse cx="204" cy="215" fill="none" rx="3" ry="3" style="stroke:#038048;stroke-width:1.0;"/><text fill="#000000" font-family="sans-serif" font-size="14" lengthAdjust="spacing" textLength="118" x="213" y="221.5352">coinCommitment</text><ellipse cx="204" cy="231.4883" fill="none" rx="3" ry="3" style="stroke:#038048;stroke-width:1.0;"/><text fill="#000000" font-family="sans-serif" font-size="14" lengthAdjust="spacing" textLength="125" x="213" y="238.0234">valueCommitment</text><line style="stroke:#181818;stroke-width:0.5;" x1="194" x2="353" y1="244.9766" y2="244.9766"/></g><!--MD5=[391aee55d78372ff66e132748da6333e]
class ContractDeploy--><g id="elem_ContractDeploy"><rect codeLine="24" fill="#F1F1F1" height="97.4648" id="ContractDeploy" rx="2.5" ry="2.5" style="stroke:#181818;stroke-width:0.5;" width="138" x="394.5" y="321"/><ellipse cx="409.5" cy="337" fill="#ADD1B2" rx="11" ry="11" style="stroke:#181818;stroke-width:1.0;"/><path d="M413.1143,343.5 L405.3945,343.5 L405.3945,331.1069 L413.1143,331.1069 L413.1143,333.2651 L407.8433,333.2651 L407.8433,335.938 L412.6162,335.938 L412.6162,338.0962 L407.8433,338.0962 L407.8433,341.3418 L413.1143,341.3418 Z " fill="#000000"/><text fill="#000000" font-family="sans-serif" font-size="14" lengthAdjust="spacing" textLength="106" x="423.5" y="342.291">ContractDeploy</text><line style="stroke:#181818;stroke-width:0.5;" x1="395.5" x2="531.5" y1="353" y2="353"/><ellipse cx="405.5" cy="364" fill="none" rx="3" ry="3" style="stroke:#038048;stroke-width:1.0;"/><text fill="#000000" font-family="sans-serif" font-size="14" lengthAdjust="spacing" textLength="66" x="414.5" y="370.5352">definition</text><ellipse cx="405.5" cy="380.4883" fill="none" rx="3" ry="3" style="stroke:#038048;stroke-width:1.0;"/><text fill="#000000" font-family="sans-serif" font-size="14" lengthAdjust="spacing" textLength="54" x="414.5" y="387.0234">address</text><ellipse cx="405.5" cy="396.9766" fill="none" rx="3" ry="3" style="stroke:#038048;stroke-width:1.0;"/><text fill="#000000" font-family="sans-serif" font-size="14" lengthAdjust="spacing" textLength="72" x="414.5" y="403.5117">initialState</text><line style="stroke:#181818;stroke-width:0.5;" x1="395.5" x2="531.5" y1="410.4648" y2="410.4648"/></g><!--MD5=[cc27890e8876f0affbb57e86e63cb521]
class ContractCall--><g id="elem_ContractCall"><rect codeLine="30" fill="#F1F1F1" height="80.9766" id="ContractCall" rx="2.5" ry="2.5" style="stroke:#181818;stroke-width:0.5;" width="117" x="461" y="172"/><ellipse cx="476" cy="188" fill="#ADD1B2" rx="11" ry="11" style="stroke:#181818;stroke-width:1.0;"/><path d="M479.6143,194.5 L471.8945,194.5 L471.8945,182.1069 L479.6143,182.1069 L479.6143,184.2651 L474.3433,184.2651 L474.3433,186.938 L479.1162,186.938 L479.1162,189.0962 L474.3433,189.0962 L474.3433,192.3418 L479.6143,192.3418 Z " fill="#000000"/><text fill="#000000" font-family="sans-serif" font-size="14" lengthAdjust="spacing" textLength="85" x="490" y="193.291">ContractCall</text><line style="stroke:#181818;stroke-width:0.5;" x1="462" x2="577" y1="204" y2="204"/><ellipse cx="472" cy="215" fill="none" rx="3" ry="3" style="stroke:#038048;stroke-width:1.0;"/><text fill="#000000" font-family="sans-serif" font-size="14" lengthAdjust="spacing" textLength="67" x="481" y="221.5352">operation</text><ellipse cx="472" cy="231.4883" fill="none" rx="3" ry="3" style="stroke:#038048;stroke-width:1.0;"/><text fill="#000000" font-family="sans-serif" font-size="14" lengthAdjust="spacing" textLength="62" x="481" y="238.0234">newState</text><line style="stroke:#181818;stroke-width:0.5;" x1="462" x2="577" y1="244.9766" y2="244.9766"/></g><!--MD5=[b056b54640e8d43cd87144fcc6474095]
link Block to Transaction--><g id="link_Block_Transaction"><path codeLine="35" d="M258.3,55.5 C263.56,55.5 268.82,55.5 274.08,55.5 " fill="none" id="Block-Transaction" style="stroke:#181818;stroke-width:1.0;"/><line style="stroke:#181818;stroke-width:1.0;" x1="274.03" x2="282.03" y1="55.5" y2="49.5"/><line style="stroke:#181818;stroke-width:1.0;" x1="274.03" x2="282.03" y1="55.5" y2="61.5"/><line style="stroke:#181818;stroke-width:1.0;" x1="274.03" x2="282.03" y1="55.5" y2="55.5"/><line style="stroke:#181818;stroke-width:1.0;" x1="272.03" x2="272.03" y1="51.5" y2="59.5"/><line style="stroke:#181818;stroke-width:1.0;" x1="254.31" x2="254.31" y1="59.5" y2="51.5"/><line style="stroke:#181818;stroke-width:1.0;" x1="257.31" x2="257.31" y1="59.5" y2="51.5"/><line style="stroke:#181818;stroke-width:1.0;" x1="258.31" x2="250.31" y1="55.5" y2="55.5"/></g><!--MD5=[5752a8415c2834b47f26df9d963092c7]
link Transaction to TransactionInput--><g id="link_Transaction_TransactionInput"><path codeLine="37" d="M275.83,98.23 C272.68,100.19 269.56,102.12 266.5,104 C233.93,123.96 197.7,145.3 166.06,163.67 " fill="none" id="Transaction-TransactionInput" style="stroke:#181818;stroke-width:1.0;"/><line style="stroke:#181818;stroke-width:1.0;" x1="166.3485" x2="162.4426" y1="163.4933" y2="172.6989"/><line style="stroke:#181818;stroke-width:1.0;" x1="166.3485" x2="156.4174" y1="163.4933" y2="162.3211"/><line style="stroke:#181818;stroke-width:1.0;" x1="166.3485" x2="159.43" y1="163.4933" y2="167.51"/><ellipse cx="171.5374" cy="160.4807" fill="none" rx="4" ry="4" style="stroke:#181818;stroke-width:1.0;"/><line style="stroke:#181818;stroke-width:1.0;" x1="276.8866" x2="281.1343" y1="92.8443" y2="99.6234"/><line style="stroke:#181818;stroke-width:1.0;" x1="274.3444" x2="278.5921" y1="94.4372" y2="101.2163"/><line style="stroke:#181818;stroke-width:1.0;" x1="275.6208" x2="282.4" y1="98.3577" y2="94.11"/></g><!--MD5=[e5b62a17200a044b3c06aa5a8ace8ee2]
link Transaction to TransactionOutput--><g id="link_Transaction_TransactionOutput"><path codeLine="38" d="M319.51,105.06 C311.51,123.57 302.39,144.66 294.4,163.15 " fill="none" id="Transaction-TransactionOutput" style="stroke:#181818;stroke-width:1.0;"/><line style="stroke:#181818;stroke-width:1.0;" x1="294.472" x2="296.8082" y1="162.9857" y2="172.709"/><line style="stroke:#181818;stroke-width:1.0;" x1="294.472" x2="285.7918" y1="162.9857" y2="167.951"/><line style="stroke:#181818;stroke-width:1.0;" x1="294.472" x2="291.3" y1="162.9857" y2="170.33"/><ellipse cx="296.8511" cy="157.4775" fill="none" rx="4" ry="4" style="stroke:#181818;stroke-width:1.0;"/><line style="stroke:#181818;stroke-width:1.0;" x1="317.3919" x2="324.7361" y1="99.8961" y2="103.0681"/><line style="stroke:#181818;stroke-width:1.0;" x1="316.2023" x2="323.5466" y1="102.6502" y2="105.8222"/><line style="stroke:#181818;stroke-width:1.0;" x1="319.478" x2="322.65" y1="105.1543" y2="97.81"/></g><!--MD5=[51eb7abbc2cd7c496833b2b91c164386]
link Transaction to ContractDeploy--><g id="link_Transaction_ContractDeploy"><path codeLine="39" d="M359.65,105.07 C381.7,161 417.88,252.78 441.19,311.9 " fill="none" id="Transaction-ContractDeploy" style="stroke:#181818;stroke-width:1.0;"/><line style="stroke:#181818;stroke-width:1.0;" x1="441.1784" x2="449.6997" y1="311.8904" y2="317.1238"/><line style="stroke:#181818;stroke-width:1.0;" x1="441.1784" x2="438.5403" y1="311.8904" y2="321.5362"/><line style="stroke:#181818;stroke-width:1.0;" x1="441.1784" x2="444.12" y1="311.8904" y2="319.33"/><ellipse cx="438.9723" cy="306.3107" fill="none" rx="4" ry="4" style="stroke:#181818;stroke-width:1.0;"/><line style="stroke:#181818;stroke-width:1.0;" x1="354.5024" x2="361.9468" y1="102.9268" y2="99.9976"/><line style="stroke:#181818;stroke-width:1.0;" x1="355.6008" x2="363.0453" y1="105.7185" y2="102.7893"/><line style="stroke:#181818;stroke-width:1.0;" x1="359.6892" x2="356.76" y1="105.1844" y2="97.74"/></g><!--MD5=[2608eb025d08eab4ff619469e8f132a8]
link Transaction to ContractCall--><g id="link_Transaction_ContractCall"><path codeLine="40" d="M393.63,102.51 C416.65,122.44 443.55,145.73 466.55,165.65 " fill="none" id="Transaction-ContractCall" style="stroke:#181818;stroke-width:1.0;"/><line style="stroke:#181818;stroke-width:1.0;" x1="466.3712" x2="476.3467" y1="165.4944" y2="166.1934"/><line style="stroke:#181818;stroke-width:1.0;" x1="466.3712" x2="468.4933" y1="165.4944" y2="175.2666"/><line style="stroke:#181818;stroke-width:1.0;" x1="466.3712" x2="472.42" y1="165.4944" y2="170.73"/><ellipse cx="461.8346" cy="161.5676" fill="none" rx="4" ry="4" style="stroke:#181818;stroke-width:1.0;"/><line style="stroke:#181818;stroke-width:1.0;" x1="388.1476" x2="393.3821" y1="103.0521" y2="97.0024"/><line style="stroke:#181818;stroke-width:1.0;" x1="390.4163" x2="395.6508" y1="105.0151" y2="98.9653"/><line style="stroke:#181818;stroke-width:1.0;" x1="393.7898" x2="387.74" y1="102.6445" y2="97.41"/></g><!--MD5=[3e515ff1934e1801ca171a9be2799891]
link ContractCall to ContractDeploy--><g id="link_ContractCall_ContractDeploy"><path codeLine="41" d="M501.86,262.33 C496.18,278.06 489.83,295.61 483.97,311.85 " fill="none" id="ContractCall-ContractDeploy" style="stroke:#181818;stroke-width:1.0;"/><line style="stroke:#181818;stroke-width:1.0;" x1="486.3996" x2="478.8737" y1="316.8837" y2="314.1704"/><line style="stroke:#181818;stroke-width:1.0;" x1="487.417" x2="479.8912" y1="314.0616" y2="311.3483"/><line style="stroke:#181818;stroke-width:1.0;" x1="483.9933" x2="481.28" y1="311.7642" y2="319.29"/><line style="stroke:#181818;stroke-width:1.0;" x1="501.8341" x2="497.0387" y1="262.3613" y2="254.84"/><line style="stroke:#181818;stroke-width:1.0;" x1="501.8341" x2="512.0813" y1="262.3613" y2="254.84"/><line style="stroke:#181818;stroke-width:1.0;" x1="501.8341" x2="504.56" y1="262.3613" y2="254.84"/></g><!--MD5=[fcba4d94794be963786833a161f13cc3]
@startuml

entity Block {
+ hash
+ height
+ timestamp
}

entity Transaction {
+ hash
+ identifiers
}

entity TransactionInput {
+ nullifier
+ valueCommitment
+ merkleTreeRoot
}

entity TransactionOutput {
+ coinCommitment
+ valueCommitment
}

entity ContractDeploy {
+ definition
+ address
+ initialState
}

entity ContractCall {
+ operation
+ newState
}

Block ||-|{ Transaction

Transaction ||- -o{ TransactionInput
Transaction ||- -o{ TransactionOutput
Transaction ||- -o{ ContractDeploy
Transaction ||- -o{ ContractCall
ContractCall }- -|| ContractDeploy

@enduml

PlantUML version 1.2022.3(Tue Mar 29 13:10:57 UYT 2022)
(GPL source distribution)
Java Runtime: OpenJDK Runtime Environment
JVM: OpenJDK 64-Bit Server VM
Default Encoding: UTF-8
Language: en
Country: UY
--></g></svg>