<?xml version="1.0" encoding="UTF-8" standalone="no"?><svg xmlns="http://www.w3.org/2000/svg" xmlns:xlink="http://www.w3.org/1999/xlink" contentStyleType="text/css" height="705px" preserveAspectRatio="none" style="width:356px;height:705px;background:#FFFFFF;" version="1.1" viewBox="0 0 356 705" width="356px" zoomAndPan="magnify"><defs/><g><!--MD5=[68a0c021ad4fbab63794e91c3c368f48]
class Block--><g id="elem_Block"><rect codeLine="2" fill="#F1F1F1" height="113.1875" id="Block" rx="2.5" ry="2.5" style="stroke:#181818;stroke-width:0.5;" width="112" x="7" y="280"/><ellipse cx="40.9" cy="296" fill="#ADD1B2" rx="11" ry="11" style="stroke:#181818;stroke-width:1.0;"/><path d="M45.0094,302 L37.2906,302 L37.2906,289.6094 L45.0094,289.6094 L45.0094,291.7656 L39.7438,291.7656 L39.7438,294.4375 L44.5094,294.4375 L44.5094,296.5938 L39.7438,296.5938 L39.7438,299.8438 L45.0094,299.8438 L45.0094,302 Z " fill="#000000"/><text fill="#000000" font-family="sans-serif" font-size="14" lengthAdjust="spacing" textLength="38" x="59.1" y="300.8467">Block</text><line style="stroke:#181818;stroke-width:0.5;" x1="8" x2="118" y1="312" y2="312"/><ellipse cx="18" cy="323" fill="none" rx="3" ry="3" style="stroke:#038048;stroke-width:1.0;"/><text fill="#000000" font-family="sans-serif" font-size="14" lengthAdjust="spacing" textLength="34" x="27" y="328.9951">hash</text><ellipse cx="18" cy="339.2969" fill="none" rx="3" ry="3" style="stroke:#038048;stroke-width:1.0;"/><text fill="#000000" font-family="sans-serif" font-size="14" lengthAdjust="spacing" textLength="44" x="27" y="345.292">height</text><ellipse cx="18" cy="355.5938" fill="none" rx="3" ry="3" style="stroke:#038048;stroke-width:1.0;"/><text fill="#000000" font-family="sans-serif" font-size="14" lengthAdjust="spacing" textLength="73" x="27" y="361.5889">timestamp</text><ellipse cx="18" cy="371.8906" fill="none" rx="3" ry="3" style="stroke:#038048;stroke-width:1.0;"/><text fill="#000000" font-family="sans-serif" font-size="14" lengthAdjust="spacing" textLength="86" x="27" y="377.8857">parent_hash</text><line style="stroke:#181818;stroke-width:0.5;" x1="8" x2="118" y1="385.1875" y2="385.1875"/></g><!--MD5=[9f070bf9f108c27faa2eb76515c78fb3]
class Wallet--><g id="elem_Wallet"><rect codeLine="9" fill="#F1F1F1" height="80.5938" id="Wallet" rx="2.5" ry="2.5" style="stroke:#181818;stroke-width:0.5;" width="108" x="157" y="7"/><ellipse cx="187.75" cy="23" fill="#ADD1B2" rx="11" ry="11" style="stroke:#181818;stroke-width:1.0;"/><path d="M191.8594,29 L184.1406,29 L184.1406,16.6094 L191.8594,16.6094 L191.8594,18.7656 L186.5938,18.7656 L186.5938,21.4375 L191.3594,21.4375 L191.3594,23.5938 L186.5938,23.5938 L186.5938,26.8438 L191.8594,26.8438 L191.8594,29 Z " fill="#000000"/><text fill="#000000" font-family="sans-serif" font-size="14" lengthAdjust="spacing" textLength="41" x="205.25" y="27.8467">Wallet</text><line style="stroke:#181818;stroke-width:0.5;" x1="158" x2="264" y1="39" y2="39"/><ellipse cx="168" cy="50" fill="none" rx="3" ry="3" style="stroke:#038048;stroke-width:1.0;"/><text fill="#000000" font-family="sans-serif" font-size="14" lengthAdjust="spacing" textLength="73" x="177" y="55.9951">session_id</text><ellipse cx="168" cy="66.2969" fill="none" rx="3" ry="3" style="stroke:#038048;stroke-width:1.0;"/><text fill="#000000" font-family="sans-serif" font-size="14" lengthAdjust="spacing" textLength="82" x="177" y="72.292">viewing_key</text><line style="stroke:#181818;stroke-width:0.5;" x1="158" x2="264" y1="79.5938" y2="79.5938"/></g><!--MD5=[d34b9035293bac280fd1add0eb6e8bb3]
class WalletAppliedTransaction--><g id="elem_WalletAppliedTransaction"><rect codeLine="14" fill="#F1F1F1" height="64.2969" id="WalletAppliedTransaction" rx="2.5" ry="2.5" style="stroke:#181818;stroke-width:0.5;" width="205" x="108.5" y="148"/><ellipse cx="123.5" cy="164" fill="#ADD1B2" rx="11" ry="11" style="stroke:#181818;stroke-width:1.0;"/><path d="M127.6094,170 L119.8906,170 L119.8906,157.6094 L127.6094,157.6094 L127.6094,159.7656 L122.3438,159.7656 L122.3438,162.4375 L127.1094,162.4375 L127.1094,164.5938 L122.3438,164.5938 L122.3438,167.8438 L127.6094,167.8438 L127.6094,170 Z " fill="#000000"/><text fill="#000000" font-family="sans-serif" font-size="14" lengthAdjust="spacing" textLength="173" x="137.5" y="168.8467">WalletAppliedTransaction</text><line style="stroke:#181818;stroke-width:0.5;" x1="109.5" x2="312.5" y1="180" y2="180"/><ellipse cx="119.5" cy="191" fill="none" rx="3" ry="3" style="stroke:#038048;stroke-width:1.0;"/><text fill="#000000" font-family="sans-serif" font-size="14" lengthAdjust="spacing" textLength="119" x="128.5" y="196.9951">wallet_local_state</text><line style="stroke:#181818;stroke-width:0.5;" x1="109.5" x2="312.5" y1="204.2969" y2="204.2969"/></g><!--MD5=[4555bb1b0911a5adf28ce6dbe60fed2e]
class Transaction--><g id="elem_Transaction"><rect codeLine="18" fill="#F1F1F1" height="129.4844" id="Transaction" rx="2.5" ry="2.5" style="stroke:#181818;stroke-width:0.5;" width="113" x="154.5" y="272"/><ellipse cx="169.5" cy="288" fill="#ADD1B2" rx="11" ry="11" style="stroke:#181818;stroke-width:1.0;"/><path d="M173.6094,294 L165.8906,294 L165.8906,281.6094 L173.6094,281.6094 L173.6094,283.7656 L168.3438,283.7656 L168.3438,286.4375 L173.1094,286.4375 L173.1094,288.5938 L168.3438,288.5938 L168.3438,291.8438 L173.6094,291.8438 L173.6094,294 Z " fill="#000000"/><text fill="#000000" font-family="sans-serif" font-size="14" lengthAdjust="spacing" textLength="81" x="183.5" y="292.8467">Transaction</text><line style="stroke:#181818;stroke-width:0.5;" x1="155.5" x2="266.5" y1="304" y2="304"/><ellipse cx="165.5" cy="315" fill="none" rx="3" ry="3" style="stroke:#038048;stroke-width:1.0;"/><text fill="#000000" font-family="sans-serif" font-size="14" lengthAdjust="spacing" textLength="34" x="174.5" y="320.9951">hash</text><ellipse cx="165.5" cy="331.2969" fill="none" rx="3" ry="3" style="stroke:#038048;stroke-width:1.0;"/><text fill="#000000" font-family="sans-serif" font-size="14" lengthAdjust="spacing" textLength="67" x="174.5" y="337.292">identifiers</text><ellipse cx="165.5" cy="347.5938" fill="none" rx="3" ry="3" style="stroke:#038048;stroke-width:1.0;"/><text fill="#000000" font-family="sans-serif" font-size="14" lengthAdjust="spacing" textLength="78" x="174.5" y="353.5889">block_hash</text><ellipse cx="165.5" cy="363.8906" fill="none" rx="3" ry="3" style="stroke:#038048;stroke-width:1.0;"/><text fill="#000000" font-family="sans-serif" font-size="14" lengthAdjust="spacing" textLength="24" x="174.5" y="369.8857">raw</text><ellipse cx="165.5" cy="380.1875" fill="none" rx="3" ry="3" style="stroke:#038048;stroke-width:1.0;"/><text fill="#000000" font-family="sans-serif" font-size="14" lengthAdjust="spacing" textLength="42" x="174.5" y="386.1826">fallible</text><line style="stroke:#181818;stroke-width:0.5;" x1="155.5" x2="266.5" y1="393.4844" y2="393.4844"/></g><!--MD5=[afda7d419c11685f71ce56fac43d670e]
class ContractCallOrDeploy--><g id="elem_ContractCallOrDeploy"><rect codeLine="26" fill="#F1F1F1" height="113.1875" id="ContractCallOrDeploy" rx="2.5" ry="2.5" style="stroke:#181818;stroke-width:0.5;" width="179" x="121.5" y="461"/><ellipse cx="136.5" cy="477" fill="#ADD1B2" rx="11" ry="11" style="stroke:#181818;stroke-width:1.0;"/><path d="M140.6094,483 L132.8906,483 L132.8906,470.6094 L140.6094,470.6094 L140.6094,472.7656 L135.3438,472.7656 L135.3438,475.4375 L140.1094,475.4375 L140.1094,477.5938 L135.3438,477.5938 L135.3438,480.8438 L140.6094,480.8438 L140.6094,483 Z " fill="#000000"/><text fill="#000000" font-family="sans-serif" font-size="14" lengthAdjust="spacing" textLength="147" x="150.5" y="481.8467">ContractCallOrDeploy</text><line style="stroke:#181818;stroke-width:0.5;" x1="122.5" x2="299.5" y1="493" y2="493"/><ellipse cx="132.5" cy="504" fill="none" rx="3" ry="3" style="stroke:#038048;stroke-width:1.0;"/><text fill="#000000" font-family="sans-serif" font-size="14" lengthAdjust="spacing" textLength="56" x="141.5" y="509.9951">address</text><ellipse cx="132.5" cy="520.2969" fill="none" rx="3" ry="3" style="stroke:#038048;stroke-width:1.0;"/><text fill="#000000" font-family="sans-serif" font-size="14" lengthAdjust="spacing" textLength="113" x="141.5" y="526.292">transacion_hash</text><ellipse cx="132.5" cy="536.5938" fill="none" rx="3" ry="3" style="stroke:#038048;stroke-width:1.0;"/><text fill="#000000" font-family="sans-serif" font-size="14" lengthAdjust="spacing" textLength="119" x="141.5" y="542.5889">zswapChainState</text><ellipse cx="132.5" cy="552.8906" fill="none" rx="3" ry="3" style="stroke:#038048;stroke-width:1.0;"/><text fill="#000000" font-family="sans-serif" font-size="14" lengthAdjust="spacing" textLength="76" x="141.5" y="558.8857">initial_state</text><line style="stroke:#181818;stroke-width:0.5;" x1="122.5" x2="299.5" y1="566.1875" y2="566.1875"/></g><!--MD5=[391aee55d78372ff66e132748da6333e]
class ContractDeploy--><g id="elem_ContractDeploy"><rect codeLine="33" fill="#F1F1F1" height="64.2969" id="ContractDeploy" rx="2.5" ry="2.5" style="stroke:#181818;stroke-width:0.5;" width="139" x="60.5" y="634"/><ellipse cx="75.5" cy="650" fill="#ADD1B2" rx="11" ry="11" style="stroke:#181818;stroke-width:1.0;"/><path d="M79.6094,656 L71.8906,656 L71.8906,643.6094 L79.6094,643.6094 L79.6094,645.7656 L74.3438,645.7656 L74.3438,648.4375 L79.1094,648.4375 L79.1094,650.5938 L74.3438,650.5938 L74.3438,653.8438 L79.6094,653.8438 L79.6094,656 Z " fill="#000000"/><text fill="#000000" font-family="sans-serif" font-size="14" lengthAdjust="spacing" textLength="107" x="89.5" y="654.8467">ContractDeploy</text><line style="stroke:#181818;stroke-width:0.5;" x1="61.5" x2="198.5" y1="666" y2="666"/><ellipse cx="71.5" cy="677" fill="none" rx="3" ry="3" style="stroke:#038048;stroke-width:1.0;"/><text fill="#000000" font-family="sans-serif" font-size="14" lengthAdjust="spacing" textLength="63" x="80.5" y="682.9951">definition</text><line style="stroke:#181818;stroke-width:0.5;" x1="61.5" x2="198.5" y1="690.2969" y2="690.2969"/></g><!--MD5=[cc27890e8876f0affbb57e86e63cb521]
class ContractCall--><g id="elem_ContractCall"><rect codeLine="37" fill="#F1F1F1" height="64.2969" id="ContractCall" rx="2.5" ry="2.5" style="stroke:#181818;stroke-width:0.5;" width="115" x="234.5" y="634"/><ellipse cx="249.5" cy="650" fill="#ADD1B2" rx="11" ry="11" style="stroke:#181818;stroke-width:1.0;"/><path d="M253.6094,656 L245.8906,656 L245.8906,643.6094 L253.6094,643.6094 L253.6094,645.7656 L248.3438,645.7656 L248.3438,648.4375 L253.1094,648.4375 L253.1094,650.5938 L248.3438,650.5938 L248.3438,653.8438 L253.6094,653.8438 L253.6094,656 Z " fill="#000000"/><text fill="#000000" font-family="sans-serif" font-size="14" lengthAdjust="spacing" textLength="83" x="263.5" y="654.8467">ContractCall</text><line style="stroke:#181818;stroke-width:0.5;" x1="235.5" x2="348.5" y1="666" y2="666"/><ellipse cx="245.5" cy="677" fill="none" rx="3" ry="3" style="stroke:#038048;stroke-width:1.0;"/><text fill="#000000" font-family="sans-serif" font-size="14" lengthAdjust="spacing" textLength="66" x="254.5" y="682.9951">operation</text><line style="stroke:#181818;stroke-width:0.5;" x1="235.5" x2="348.5" y1="690.2969" y2="690.2969"/></g><!--MD5=[b056b54640e8d43cd87144fcc6474095]
link Block to Transaction--><g id="link_Block_Transaction"><path codeLine="41" d="M128.86,336.5 C134.12,336.5 139.37,336.5 144.63,336.5 " fill="none" id="Block-Transaction" style="stroke:#181818;stroke-width:1.0;"/><line style="stroke:#181818;stroke-width:1.0;" x1="144.57" x2="152.57" y1="336.5" y2="330.5"/><line style="stroke:#181818;stroke-width:1.0;" x1="144.57" x2="152.57" y1="336.5" y2="342.5"/><line style="stroke:#181818;stroke-width:1.0;" x1="144.57" x2="152.57" y1="336.5" y2="336.5"/><ellipse cx="138.57" cy="336.5" fill="none" rx="4" ry="4" style="stroke:#181818;stroke-width:1.0;"/><line style="stroke:#181818;stroke-width:1.0;" x1="124.88" x2="124.88" y1="340.5" y2="332.5"/><line style="stroke:#181818;stroke-width:1.0;" x1="127.88" x2="127.88" y1="340.5" y2="332.5"/><line style="stroke:#181818;stroke-width:1.0;" x1="128.88" x2="120.88" y1="336.5" y2="336.5"/></g><!--MD5=[136979be81fd287a1248d427532533ce]
link Wallet to WalletAppliedTransaction--><g id="link_Wallet_WalletAppliedTransaction"><path codeLine="42" d="M211,97.51 C211,111.02 211,125.54 211,138.51 " fill="none" id="Wallet-WalletAppliedTransaction" style="stroke:#181818;stroke-width:1.0;"/><line style="stroke:#181818;stroke-width:1.0;" x1="211" x2="217" y1="138.14" y2="146.14"/><line style="stroke:#181818;stroke-width:1.0;" x1="211" x2="205" y1="138.14" y2="146.14"/><line style="stroke:#181818;stroke-width:1.0;" x1="211" x2="211" y1="138.14" y2="146.14"/><ellipse cx="211" cy="132.14" fill="none" rx="4" ry="4" style="stroke:#181818;stroke-width:1.0;"/><line style="stroke:#181818;stroke-width:1.0;" x1="207" x2="215" y1="93.88" y2="93.88"/><line style="stroke:#181818;stroke-width:1.0;" x1="207" x2="215" y1="96.88" y2="96.88"/><line style="stroke:#181818;stroke-width:1.0;" x1="211" x2="211" y1="97.88" y2="89.88"/></g><!--MD5=[b1ffd208b569ea68fad7ab365b13669c]
link WalletAppliedTransaction to Transaction--><g id="link_WalletAppliedTransaction_Transaction"><path codeLine="43" d="M211,221.47 C211,234.08 211,248.38 211,262.5 " fill="none" id="WalletAppliedTransaction-Transaction" style="stroke:#181818;stroke-width:1.0;"/><line style="stroke:#181818;stroke-width:1.0;" x1="215" x2="207" y1="266.22" y2="266.22"/><line style="stroke:#181818;stroke-width:1.0;" x1="215" x2="207" y1="263.22" y2="263.22"/><line style="stroke:#181818;stroke-width:1.0;" x1="211" x2="211" y1="262.22" y2="270.22"/><line style="stroke:#181818;stroke-width:1.0;" x1="211" x2="211" y1="224.78" y2="213.78"/><ellipse cx="211" cy="224.78" fill="none" rx="4" ry="4" style="stroke:#181818;stroke-width:1.0;"/><line style="stroke:#181818;stroke-width:1.0;" x1="207" x2="215" y1="217.78" y2="217.78"/></g><!--MD5=[57a9cd93bc7ff608f235145dff3737ec]
link Transaction to ContractCallOrDeploy--><g id="link_Transaction_ContractCallOrDeploy"><path codeLine="44" d="M211,410.56 C211,424.02 211,438 211,451.21 " fill="none" id="Transaction-ContractCallOrDeploy" style="stroke:#181818;stroke-width:1.0;"/><line style="stroke:#181818;stroke-width:1.0;" x1="211" x2="217" y1="451.16" y2="459.16"/><line style="stroke:#181818;stroke-width:1.0;" x1="211" x2="205" y1="451.16" y2="459.16"/><line style="stroke:#181818;stroke-width:1.0;" x1="211" x2="211" y1="451.16" y2="459.16"/><ellipse cx="211" cy="445.16" fill="none" rx="4" ry="4" style="stroke:#181818;stroke-width:1.0;"/><line style="stroke:#181818;stroke-width:1.0;" x1="207" x2="215" y1="406.88" y2="406.88"/><line style="stroke:#181818;stroke-width:1.0;" x1="207" x2="215" y1="409.88" y2="409.88"/><line style="stroke:#181818;stroke-width:1.0;" x1="211" x2="211" y1="410.88" y2="402.88"/></g><!--MD5=[bb3056e04b66354e2fe4fe0095947d36]
link ContractCallOrDeploy to ContractCall--><g id="link_ContractCallOrDeploy_ContractCall"><path codeLine="45" d="M241.85,574.3 C251.82,592.32 262.6,611.83 271.61,628.13 " fill="none" id="ContractCallOrDeploy-to-ContractCall" style="stroke:#181818;stroke-width:1.0;"/><polygon fill="#181818" points="273.86,632.2,272.9994,622.3888,271.4378,627.8259,266.0008,626.2643,273.86,632.2" style="stroke:#181818;stroke-width:1.0;"/></g><!--MD5=[5c8b2262fe7acb8483e2acbbfd740ea9]
link ContractCallOrDeploy to ContractDeploy--><g id="link_ContractCallOrDeploy_ContractDeploy"><path codeLine="46" d="M180.15,574.3 C170.18,592.32 159.4,611.83 150.39,628.13 " fill="none" id="ContractCallOrDeploy-to-ContractDeploy" style="stroke:#181818;stroke-width:1.0;"/><polygon fill="#181818" points="148.14,632.2,155.9992,626.2643,150.5622,627.8259,149.0006,622.3888,148.14,632.2" style="stroke:#181818;stroke-width:1.0;"/></g><!--MD5=[206248b988f331dd2bf1cc039078892f]
link ContractDeploy to ContractCall--><g id="link_ContractDeploy_ContractCall"><path codeLine="47" d="M209.27,689.99 C214.44,690.05 219.61,689.83 224.78,689.3 " fill="none" id="ContractDeploy-ContractCall" style="stroke:#181818;stroke-width:1.0;"/><line style="stroke:#181818;stroke-width:1.0;" x1="224.6621" x2="231.7865" y1="689.3213" y2="682.304"/><line style="stroke:#181818;stroke-width:1.0;" x1="224.6621" x2="233.3935" y1="689.3213" y2="694.196"/><line style="stroke:#181818;stroke-width:1.0;" x1="224.6621" x2="232.59" y1="689.3213" y2="688.25"/><ellipse cx="218.7161" cy="690.1249" fill="none" rx="4" ry="4" style="stroke:#181818;stroke-width:1.0;"/><line style="stroke:#181818;stroke-width:1.0;" x1="205.2498" x2="205.6215" y1="693.8015" y2="685.8102"/><line style="stroke:#181818;stroke-width:1.0;" x1="208.2466" x2="208.6183" y1="693.9409" y2="685.9495"/><line style="stroke:#181818;stroke-width:1.0;" x1="209.4314" x2="201.44" y1="689.9917" y2="689.62"/></g><!--MD5=[206248b988f331dd2bf1cc039078892f]
link ContractDeploy to ContractCall--><!--MD5=[7202cbffe144d254ff83ff51292127dd]
@startuml

entity Block {
+ hash
+ height
+ timestamp
+ parent_hash
}

entity Wallet {
+ session_id
+ viewing_key
}

entity WalletAppliedTransaction {
+ wallet_local_state  
}

entity Transaction {
+ hash
+ identifiers
+ block_hash
+ raw
+ fallible
}

entity ContractCallOrDeploy {
+ address
+ transacion_hash
+ zswapChainState
+ initial_state
}

entity ContractDeploy {
+ definition
}

entity ContractCall {
+ operation
}

Block ||-o{ Transaction
Wallet ||- -o{ WalletAppliedTransaction
WalletAppliedTransaction |o- -|| Transaction
Transaction ||- -o{ ContractCallOrDeploy
ContractCallOrDeploy - -> ContractCall
ContractCallOrDeploy - -> ContractDeploy
ContractDeploy ||- -o{ ContractCall
ContractDeploy -[hidden] ContractCall

@enduml

PlantUML version 1.2022.3(Tue Mar 29 13:10:57 ART 2022)
(GPL source distribution)
Java Runtime: OpenJDK Runtime Environment
JVM: OpenJDK 64-Bit Server VM
Default Encoding: ANSI_X3.4-1968
Language: en
Country: US
--></g></svg>