<?xml version="1.0" encoding="UTF-8" standalone="no"?><svg xmlns="http://www.w3.org/2000/svg" xmlns:xlink="http://www.w3.org/1999/xlink" contentStyleType="text/css" height="552px" preserveAspectRatio="none" style="width:642px;height:552px;background:#FFFFFF;" version="1.1" viewBox="0 0 642 552" width="642px" zoomAndPan="magnify"><defs/><g><!--MD5=[68a0c021ad4fbab63794e91c3c368f48]
class Block--><g id="elem_Block"><rect codeLine="2" fill="#F1F1F1" height="97.4648" id="Block" rx="2.5" ry="2.5" style="stroke:#181818;stroke-width:0.5;" width="98" x="159.5" y="7"/><ellipse cx="188" cy="23" fill="#ADD1B2" rx="11" ry="11" style="stroke:#181818;stroke-width:1.0;"/><path d="M191.6143,29.5 L183.8945,29.5 L183.8945,17.1069 L191.6143,17.1069 L191.6143,19.2651 L186.3433,19.2651 L186.3433,21.938 L191.1162,21.938 L191.1162,24.0962 L186.3433,24.0962 L186.3433,27.3418 L191.6143,27.3418 Z " fill="#000000"/><text fill="#000000" font-family="sans-serif" font-size="14" lengthAdjust="spacing" textLength="36" x="205" y="28.291">Block</text><line style="stroke:#181818;stroke-width:0.5;" x1="160.5" x2="256.5" y1="39" y2="39"/><ellipse cx="170.5" cy="50" fill="none" rx="3" ry="3" style="stroke:#038048;stroke-width:1.0;"/><text fill="#000000" font-family="sans-serif" font-size="14" lengthAdjust="spacing" textLength="33" x="179.5" y="56.5352">hash</text><ellipse cx="170.5" cy="66.4883" fill="none" rx="3" ry="3" style="stroke:#038048;stroke-width:1.0;"/><text fill="#000000" font-family="sans-serif" font-size="14" lengthAdjust="spacing" textLength="44" x="179.5" y="73.0234">height</text><ellipse cx="170.5" cy="82.9766" fill="none" rx="3" ry="3" style="stroke:#038048;stroke-width:1.0;"/><text fill="#000000" font-family="sans-serif" font-size="14" lengthAdjust="spacing" textLength="72" x="179.5" y="89.5117">timestamp</text><line style="stroke:#181818;stroke-width:0.5;" x1="160.5" x2="256.5" y1="96.4648" y2="96.4648"/></g><!--MD5=[4555bb1b0911a5adf28ce6dbe60fed2e]
class Transaction--><g id="elem_Transaction"><rect codeLine="8" fill="#F1F1F1" height="64.4883" id="Transaction" rx="2.5" ry="2.5" style="stroke:#181818;stroke-width:0.5;" width="113" x="293" y="23.5"/><ellipse cx="308" cy="39.5" fill="#ADD1B2" rx="11" ry="11" style="stroke:#181818;stroke-width:1.0;"/><path d="M311.6143,46 L303.8945,46 L303.8945,33.6069 L311.6143,33.6069 L311.6143,35.7651 L306.3433,35.7651 L306.3433,38.438 L311.1162,38.438 L311.1162,40.5962 L306.3433,40.5962 L306.3433,43.8418 L311.6143,43.8418 Z " fill="#000000"/><text fill="#000000" font-family="sans-serif" font-size="14" lengthAdjust="spacing" textLength="81" x="322" y="44.791">Transaction</text><line style="stroke:#181818;stroke-width:0.5;" x1="294" x2="405" y1="55.5" y2="55.5"/><ellipse cx="304" cy="66.5" fill="none" rx="3" ry="3" style="stroke:#038048;stroke-width:1.0;"/><text fill="#000000" font-family="sans-serif" font-size="14" lengthAdjust="spacing" textLength="33" x="313" y="73.0352">hash</text><line style="stroke:#181818;stroke-width:0.5;" x1="294" x2="405" y1="79.9883" y2="79.9883"/></g><!--MD5=[0c4a2bfdd2c01e9535db75db69a2cee1]
class TransactionInput--><g id="elem_TransactionInput"><rect codeLine="12" fill="#F1F1F1" height="97.4648" id="TransactionInput" rx="2.5" ry="2.5" style="stroke:#181818;stroke-width:0.5;" width="151" x="7" y="165"/><ellipse cx="22.9" cy="181" fill="#ADD1B2" rx="11" ry="11" style="stroke:#181818;stroke-width:1.0;"/><path d="M26.5143,187.5 L18.7945,187.5 L18.7945,175.1069 L26.5143,175.1069 L26.5143,177.2651 L21.2433,177.2651 L21.2433,179.938 L26.0162,179.938 L26.0162,182.0962 L21.2433,182.0962 L21.2433,185.3418 L26.5143,185.3418 Z " fill="#000000"/><text fill="#000000" font-family="sans-serif" font-size="14" lengthAdjust="spacing" textLength="117" x="37.1" y="186.291">TransactionInput</text><line style="stroke:#181818;stroke-width:0.5;" x1="8" x2="157" y1="197" y2="197"/><ellipse cx="18" cy="208" fill="none" rx="3" ry="3" style="stroke:#038048;stroke-width:1.0;"/><text fill="#000000" font-family="sans-serif" font-size="14" lengthAdjust="spacing" textLength="53" x="27" y="214.5352">nullifier</text><ellipse cx="18" cy="224.4883" fill="none" rx="3" ry="3" style="stroke:#038048;stroke-width:1.0;"/><text fill="#000000" font-family="sans-serif" font-size="14" lengthAdjust="spacing" textLength="125" x="27" y="231.0234">valueCommitment</text><ellipse cx="18" cy="240.9766" fill="none" rx="3" ry="3" style="stroke:#038048;stroke-width:1.0;"/><text fill="#000000" font-family="sans-serif" font-size="14" lengthAdjust="spacing" textLength="110" x="27" y="247.5117">merkleTreeRoot</text><line style="stroke:#181818;stroke-width:0.5;" x1="8" x2="157" y1="254.4648" y2="254.4648"/></g><!--MD5=[ee29146b84b65365b9ce86cd582c392c]
class TransactionOutput--><g id="elem_TransactionOutput"><rect codeLine="18" fill="#F1F1F1" height="80.9766" id="TransactionOutput" rx="2.5" ry="2.5" style="stroke:#181818;stroke-width:0.5;" width="161" x="193" y="173"/><ellipse cx="208" cy="189" fill="#ADD1B2" rx="11" ry="11" style="stroke:#181818;stroke-width:1.0;"/><path d="M211.6143,195.5 L203.8945,195.5 L203.8945,183.1069 L211.6143,183.1069 L211.6143,185.2651 L206.3433,185.2651 L206.3433,187.938 L211.1162,187.938 L211.1162,190.0962 L206.3433,190.0962 L206.3433,193.3418 L211.6143,193.3418 Z " fill="#000000"/><text fill="#000000" font-family="sans-serif" font-size="14" lengthAdjust="spacing" textLength="129" x="222" y="194.291">TransactionOutput</text><line style="stroke:#181818;stroke-width:0.5;" x1="194" x2="353" y1="205" y2="205"/><ellipse cx="204" cy="216" fill="none" rx="3" ry="3" style="stroke:#038048;stroke-width:1.0;"/><text fill="#000000" font-family="sans-serif" font-size="14" lengthAdjust="spacing" textLength="118" x="213" y="222.5352">coinCommitment</text><ellipse cx="204" cy="232.4883" fill="none" rx="3" ry="3" style="stroke:#038048;stroke-width:1.0;"/><text fill="#000000" font-family="sans-serif" font-size="14" lengthAdjust="spacing" textLength="125" x="213" y="239.0234">valueCommitment</text><line style="stroke:#181818;stroke-width:0.5;" x1="194" x2="353" y1="245.9766" y2="245.9766"/></g><!--MD5=[461026a38b737c4ce5e8254b9a577e21]
class Contract--><g id="elem_Contract"><rect codeLine="23" fill="#F1F1F1" height="80.9766" id="Contract" rx="2.5" ry="2.5" style="stroke:#181818;stroke-width:0.5;" width="92" x="409.5" y="323"/><ellipse cx="424.95" cy="339" fill="#ADD1B2" rx="11" ry="11" style="stroke:#181818;stroke-width:1.0;"/><path d="M428.5643,345.5 L420.8445,345.5 L420.8445,333.1069 L428.5643,333.1069 L428.5643,335.2651 L423.2933,335.2651 L423.2933,337.938 L428.0662,337.938 L428.0662,340.0962 L423.2933,340.0962 L423.2933,343.3418 L428.5643,343.3418 Z " fill="#000000"/><text fill="#000000" font-family="sans-serif" font-size="14" lengthAdjust="spacing" textLength="59" x="439.05" y="344.291">Contract</text><line style="stroke:#181818;stroke-width:0.5;" x1="410.5" x2="500.5" y1="355" y2="355"/><ellipse cx="420.5" cy="366" fill="none" rx="3" ry="3" style="stroke:#038048;stroke-width:1.0;"/><text fill="#000000" font-family="sans-serif" font-size="14" lengthAdjust="spacing" textLength="66" x="429.5" y="372.5352">definition</text><ellipse cx="420.5" cy="382.4883" fill="none" rx="3" ry="3" style="stroke:#038048;stroke-width:1.0;"/><text fill="#000000" font-family="sans-serif" font-size="14" lengthAdjust="spacing" textLength="54" x="429.5" y="389.0234">address</text><line style="stroke:#181818;stroke-width:0.5;" x1="410.5" x2="500.5" y1="395.9766" y2="395.9766"/></g><!--MD5=[cc27890e8876f0affbb57e86e63cb521]
class ContractCall--><g id="elem_ContractCall"><rect codeLine="28" fill="#F1F1F1" height="64.4883" id="ContractCall" rx="2.5" ry="2.5" style="stroke:#181818;stroke-width:0.5;" width="117" x="513" y="181.5"/><ellipse cx="528" cy="197.5" fill="#ADD1B2" rx="11" ry="11" style="stroke:#181818;stroke-width:1.0;"/><path d="M531.6143,204 L523.8945,204 L523.8945,191.6069 L531.6143,191.6069 L531.6143,193.7651 L526.3433,193.7651 L526.3433,196.438 L531.1162,196.438 L531.1162,198.5962 L526.3433,198.5962 L526.3433,201.8418 L531.6143,201.8418 Z " fill="#000000"/><text fill="#000000" font-family="sans-serif" font-size="14" lengthAdjust="spacing" textLength="85" x="542" y="202.791">ContractCall</text><line style="stroke:#181818;stroke-width:0.5;" x1="514" x2="629" y1="213.5" y2="213.5"/><ellipse cx="524" cy="224.5" fill="none" rx="3" ry="3" style="stroke:#038048;stroke-width:1.0;"/><text fill="#000000" font-family="sans-serif" font-size="14" lengthAdjust="spacing" textLength="67" x="533" y="231.0352">operation</text><line style="stroke:#181818;stroke-width:0.5;" x1="514" x2="629" y1="237.9883" y2="237.9883"/></g><!--MD5=[abf257bcb4a188c3da7a8749ebd2ec31]
class ContractState--><g id="elem_ContractState"><rect codeLine="32" fill="#F1F1F1" height="64.4883" id="ContractState" rx="2.5" ry="2.5" style="stroke:#181818;stroke-width:0.5;" width="125" x="451" y="481"/><ellipse cx="466" cy="497" fill="#ADD1B2" rx="11" ry="11" style="stroke:#181818;stroke-width:1.0;"/><path d="M469.6143,503.5 L461.8945,503.5 L461.8945,491.1069 L469.6143,491.1069 L469.6143,493.2651 L464.3433,493.2651 L464.3433,495.938 L469.1162,495.938 L469.1162,498.0962 L464.3433,498.0962 L464.3433,501.3418 L469.6143,501.3418 Z " fill="#000000"/><text fill="#000000" font-family="sans-serif" font-size="14" lengthAdjust="spacing" textLength="93" x="480" y="502.291">ContractState</text><line style="stroke:#181818;stroke-width:0.5;" x1="452" x2="575" y1="513" y2="513"/><ellipse cx="462" cy="524" fill="none" rx="3" ry="3" style="stroke:#038048;stroke-width:1.0;"/><text fill="#000000" font-family="sans-serif" font-size="14" lengthAdjust="spacing" textLength="33" x="471" y="530.5352">state</text><line style="stroke:#181818;stroke-width:0.5;" x1="452" x2="575" y1="537.4883" y2="537.4883"/></g><!--MD5=[b056b54640e8d43cd87144fcc6474095]
link Block to Transaction--><g id="link_Block_Transaction"><path codeLine="36" d="M267.3,55.5 C272.56,55.5 277.82,55.5 283.08,55.5 " fill="none" id="Block-Transaction" style="stroke:#181818;stroke-width:1.0;"/><line style="stroke:#181818;stroke-width:1.0;" x1="283.03" x2="291.03" y1="55.5" y2="49.5"/><line style="stroke:#181818;stroke-width:1.0;" x1="283.03" x2="291.03" y1="55.5" y2="61.5"/><line style="stroke:#181818;stroke-width:1.0;" x1="283.03" x2="291.03" y1="55.5" y2="55.5"/><line style="stroke:#181818;stroke-width:1.0;" x1="281.03" x2="281.03" y1="51.5" y2="59.5"/><line style="stroke:#181818;stroke-width:1.0;" x1="263.31" x2="263.31" y1="59.5" y2="51.5"/><line style="stroke:#181818;stroke-width:1.0;" x1="266.31" x2="266.31" y1="59.5" y2="51.5"/><line style="stroke:#181818;stroke-width:1.0;" x1="267.31" x2="259.31" y1="55.5" y2="55.5"/></g><!--MD5=[5752a8415c2834b47f26df9d963092c7]
link Transaction to TransactionInput--><g id="link_Transaction_TransactionInput"><path codeLine="38" d="M293.05,92.67 C286.82,96.54 280.54,100.38 274.5,104 C239.37,125.03 200.09,147.42 166.26,166.37 " fill="none" id="Transaction-TransactionInput" style="stroke:#181818;stroke-width:1.0;"/><line style="stroke:#181818;stroke-width:1.0;" x1="166.5352" x2="162.4748" y1="166.2203" y2="175.3589"/><line style="stroke:#181818;stroke-width:1.0;" x1="166.5352" x2="156.6252" y1="166.2203" y2="164.8811"/><line style="stroke:#181818;stroke-width:1.0;" x1="166.5352" x2="159.55" y1="166.2203" y2="170.12"/><ellipse cx="171.774" cy="163.2955" fill="none" rx="4" ry="4" style="stroke:#181818;stroke-width:1.0;"/><line style="stroke:#181818;stroke-width:1.0;" x1="294.1078" x2="298.349" y1="87.309" y2="94.0922"/><line style="stroke:#181818;stroke-width:1.0;" x1="291.5641" x2="295.8054" y1="88.8995" y2="95.6827"/><line style="stroke:#181818;stroke-width:1.0;" x1="292.8368" x2="299.62" y1="92.8213" y2="88.58"/></g><!--MD5=[e5b62a17200a044b3c06aa5a8ace8ee2]
link Transaction to TransactionOutput--><g id="link_Transaction_TransactionOutput"><path codeLine="39" d="M330.24,96.04 C320.13,116.78 307.68,142.35 297.01,164.24 " fill="none" id="Transaction-TransactionOutput" style="stroke:#181818;stroke-width:1.0;"/><line style="stroke:#181818;stroke-width:1.0;" x1="297.0332" x2="298.9242" y1="164.1978" y2="174.0174"/><line style="stroke:#181818;stroke-width:1.0;" x1="297.0332" x2="288.1358" y1="164.1978" y2="168.7626"/><line style="stroke:#181818;stroke-width:1.0;" x1="297.0332" x2="293.53" y1="164.1978" y2="171.39"/><ellipse cx="299.6605" cy="158.8036" fill="none" rx="4" ry="4" style="stroke:#181818;stroke-width:1.0;"/><line style="stroke:#181818;stroke-width:1.0;" x1="328.2923" x2="335.4845" y1="90.8945" y2="94.3977"/><line style="stroke:#181818;stroke-width:1.0;" x1="326.9786" x2="334.1708" y1="93.5916" y2="97.0948"/><line style="stroke:#181818;stroke-width:1.0;" x1="330.1368" x2="333.64" y1="96.2422" y2="89.05"/></g><!--MD5=[579580bef27bb7c58b7267e7cdad429e]
link Transaction to Contract--><g id="link_Transaction_Contract"><path codeLine="40" d="M363.46,96.8 C382.81,152.67 417.77,253.58 438.58,313.67 " fill="none" id="Transaction-Contract" style="stroke:#181818;stroke-width:1.0;"/><line style="stroke:#181818;stroke-width:1.0;" x1="437.5899" x2="441.18" y1="310.7624" y2="321.16"/><ellipse cx="437.5899" cy="310.7624" fill="none" rx="4" ry="4" style="stroke:#181818;stroke-width:1.0;"/><line style="stroke:#181818;stroke-width:1.0;" x1="443.6555" x2="436.0935" y1="316.0735" y2="318.6845"/><line style="stroke:#181818;stroke-width:1.0;" x1="358.3731" x2="365.9306" y1="94.3306" y2="91.7069"/><line style="stroke:#181818;stroke-width:1.0;" x1="359.357" x2="366.9145" y1="97.1647" y2="94.541"/><line style="stroke:#181818;stroke-width:1.0;" x1="363.4637" x2="360.84" y1="96.7975" y2="89.24"/><text fill="#000000" font-family="sans-serif" font-size="13" lengthAdjust="spacing" textLength="51" x="421.5" y="218.5684">Deploys</text></g><!--MD5=[2608eb025d08eab4ff619469e8f132a8]
link Transaction to ContractCall--><g id="link_Transaction_ContractCall"><path codeLine="41" d="M401.59,93.1 C437.12,118.07 484,151.02 519.52,175.97 " fill="none" id="Transaction-ContractCall" style="stroke:#181818;stroke-width:1.0;"/><line style="stroke:#181818;stroke-width:1.0;" x1="519.1356" x2="529.1308" y1="175.6989" y2="175.3917"/><line style="stroke:#181818;stroke-width:1.0;" x1="519.1356" x2="522.2292" y1="175.6989" y2="185.2083"/><line style="stroke:#181818;stroke-width:1.0;" x1="519.1356" x2="525.68" y1="175.6989" y2="180.3"/><ellipse cx="514.2272" cy="172.248" fill="none" rx="4" ry="4" style="stroke:#181818;stroke-width:1.0;"/><line style="stroke:#181818;stroke-width:1.0;" x1="396.3717" x2="400.9728" y1="94.3228" y2="87.7783"/><line style="stroke:#181818;stroke-width:1.0;" x1="398.8258" x2="403.4269" y1="96.0482" y2="89.5038"/><line style="stroke:#181818;stroke-width:1.0;" x1="401.9444" x2="395.4" y1="93.3511" y2="88.75"/></g><!--MD5=[768dc7027418220b6f0ab505c1e44be2]
link ContractCall to Contract--><g id="link_ContractCall_Contract"><path codeLine="43" d="M541.81,252.38 C526.58,271.81 507.9,295.64 491.82,316.16 " fill="none" id="ContractCall-Contract" style="stroke:#181818;stroke-width:1.0;"/><line style="stroke:#181818;stroke-width:1.0;" x1="493.2452" x2="486.9444" y1="320.8144" y2="315.8848"/><line style="stroke:#181818;stroke-width:1.0;" x1="495.0938" x2="488.793" y1="318.4517" y2="313.5221"/><line style="stroke:#181818;stroke-width:1.0;" x1="492.5596" x2="487.63" y1="315.1993" y2="321.5"/><line style="stroke:#181818;stroke-width:1.0;" x1="540.3548" x2="546.6556" y1="247.7656" y2="252.6952"/><line style="stroke:#181818;stroke-width:1.0;" x1="538.5062" x2="544.807" y1="250.1283" y2="255.0579"/><line style="stroke:#181818;stroke-width:1.0;" x1="541.0404" x2="545.97" y1="253.3807" y2="247.08"/></g><!--MD5=[85598c6f73dcd0980e260105e6e1ae23]
link ContractCall to ContractState--><g id="link_ContractCall_ContractState"><path codeLine="44" d="M573.03,254.22 C573.7,302.09 571.06,384.38 549.5,451 C547.03,458.63 543.48,466.34 539.56,473.58 " fill="none" id="ContractCall-ContractState" style="stroke:#181818;stroke-width:1.0;"/><line style="stroke:#181818;stroke-width:1.0;" x1="541.7437" x2="534.7878" y1="477.8378" y2="473.8863"/><line style="stroke:#181818;stroke-width:1.0;" x1="543.2256" x2="536.2696" y1="475.2293" y2="471.2778"/><line style="stroke:#181818;stroke-width:1.0;" x1="540.2415" x2="536.29" y1="472.384" y2="479.34"/><line style="stroke:#181818;stroke-width:1.0;" x1="568.9741" x2="576.9728" y1="251.5728" y2="251.4259"/><line style="stroke:#181818;stroke-width:1.0;" x1="569.0292" x2="577.0279" y1="254.5723" y2="254.4254"/><line style="stroke:#181818;stroke-width:1.0;" x1="573.0469" x2="572.9" y1="255.4987" y2="247.5"/><text fill="#000000" font-family="sans-serif" font-size="13" lengthAdjust="spacing" textLength="62" x="572.5" y="368.5684">New state</text></g><!--MD5=[48b2f5a9b998562b0d394ad4797422d9]
link Contract to ContractState--><g id="link_Contract_ContractState"><path codeLine="46" d="M461.43,412.5 C463.95,425.31 467.5,438.94 472.5,451 C475.69,458.69 479.91,466.43 484.44,473.68 " fill="none" id="Contract-ContractState" style="stroke:#181818;stroke-width:1.0;"/><line style="stroke:#181818;stroke-width:1.0;" x1="489.3952" x2="482.6866" y1="473.9566" y2="478.3148"/><line style="stroke:#181818;stroke-width:1.0;" x1="487.7609" x2="481.0523" y1="471.4408" y2="475.799"/><line style="stroke:#181818;stroke-width:1.0;" x1="483.8618" x2="488.22" y1="472.7813" y2="479.49"/><line style="stroke:#181818;stroke-width:1.0;" x1="456.9735" x2="464.8434" y1="410.3634" y2="408.9265"/><line style="stroke:#181818;stroke-width:1.0;" x1="457.5123" x2="465.3822" y1="413.3146" y2="411.8778"/><line style="stroke:#181818;stroke-width:1.0;" x1="461.6268" x2="460.19" y1="413.5799" y2="405.71"/><text fill="#000000" font-family="sans-serif" font-size="13" lengthAdjust="spacing" textLength="71" x="473.5" y="447.5684">Initial state</text></g><!--MD5=[ef2a9a5b33a1e2bf106027f5e9c22aa1]
@startuml

entity Block {
+ hash
+ height
+ timestamp
}

entity Transaction {
+ hash
}

entity TransactionInput {
+ nullifier
+ valueCommitment
+ merkleTreeRoot
}

entity TransactionOutput {
+ coinCommitment
+ valueCommitment
}

entity Contract {
+ definition
+ address
}

entity ContractCall {
+ operation
}

entity ContractState {
+ state
}

Block ||-|{ Transaction

Transaction ||- -o{ TransactionInput
Transaction ||- -o{ TransactionOutput
Transaction ||- -o| Contract : Deploys
Transaction ||- -o{ ContractCall

ContractCall ||- -|| Contract
ContractCall ||- -|| ContractState : New state

Contract ||- -|| ContractState : Initial state

@enduml

PlantUML version 1.2022.3(Tue Mar 29 13:10:57 UYT 2022)
(GPL source distribution)
Java Runtime: OpenJDK Runtime Environment
JVM: OpenJDK 64-Bit Server VM
Default Encoding: UTF-8
Language: en
Country: UY
--></g></svg>