<?xml version="1.0" encoding="us-ascii" standalone="no"?><svg xmlns="http://www.w3.org/2000/svg" xmlns:xlink="http://www.w3.org/1999/xlink" contentStyleType="text/css" height="757px" preserveAspectRatio="none" style="width:460px;height:757px;background:#FFFFFF;" version="1.1" viewBox="0 0 460 757" width="460px" zoomAndPan="magnify"><defs/><g><!--cluster pub_sub_indexer--><g id="cluster_pub_sub_indexer"><polygon fill="none" points="47,169.99,57,159.99,443,159.99,443,606.45,433,616.45,47,616.45,47,169.99" style="stroke:#181818;stroke-width:1.0;"/><line style="stroke:#181818;stroke-width:1.0;" x1="433" x2="443" y1="169.99" y2="159.99"/><line style="stroke:#181818;stroke-width:1.0;" x1="47" x2="433" y1="169.99" y2="169.99"/><line style="stroke:#181818;stroke-width:1.0;" x1="433" x2="433" y1="169.99" y2="616.45"/><text fill="#000000" font-family="sans-serif" font-size="14" font-weight="bold" lengthAdjust="spacing" textLength="111" x="185.5" y="186.5252">PubSub Indexer</text><text fill="#000000" font-family="sans-serif" font-size="14" font-weight="bold" lengthAdjust="spacing" textLength="104" x="189" y="203.0134">Single Process</text></g><text fill="#000000" font-family="sans-serif" font-size="14" lengthAdjust="spacing" textLength="118" x="6" y="139.0369">GraphQL API Port</text><rect fill="#F1F1F1" height="12" style="stroke:#181818;stroke-width:1.5;" width="12" x="59" y="153.99"/><text fill="#000000" font-family="sans-serif" font-size="14" lengthAdjust="spacing" textLength="94" x="128" y="635.9852">Node API Port</text><rect fill="#F1F1F1" height="12" style="stroke:#181818;stroke-width:1.5;" width="12" x="169" y="610.45"/><!--entity graphql_api--><g id="elem_graphql_api"><rect fill="#F1F1F1" height="46.4883" rx="2.5" ry="2.5" style="stroke:#181818;stroke-width:0.5;" width="126" x="94" y="237.99"/><rect fill="#F1F1F1" height="10" style="stroke:#181818;stroke-width:0.5;" width="15" x="200" y="242.99"/><rect fill="#F1F1F1" height="2" style="stroke:#181818;stroke-width:0.5;" width="4" x="198" y="244.99"/><rect fill="#F1F1F1" height="2" style="stroke:#181818;stroke-width:0.5;" width="4" x="198" y="248.99"/><text fill="#000000" font-family="sans-serif" font-size="14" lengthAdjust="spacing" textLength="86" x="109" y="271.5252">GraphQL API</text></g><!--entity events_source--><g id="elem_events_source"><rect fill="#F1F1F1" height="46.4883" rx="2.5" ry="2.5" style="stroke:#181818;stroke-width:0.5;" width="134" x="283" y="344.48"/><rect fill="#F1F1F1" height="10" style="stroke:#181818;stroke-width:0.5;" width="15" x="397" y="349.48"/><rect fill="#F1F1F1" height="2" style="stroke:#181818;stroke-width:0.5;" width="4" x="395" y="351.48"/><rect fill="#F1F1F1" height="2" style="stroke:#181818;stroke-width:0.5;" width="4" x="395" y="355.48"/><text fill="#000000" font-family="sans-serif" font-size="14" lengthAdjust="spacing" textLength="94" x="298" y="378.0152">Events source</text></g><!--entity in_process_indexer--><g id="elem_in_process_indexer"><rect fill="#F1F1F1" height="46.4883" rx="2.5" ry="2.5" style="stroke:#181818;stroke-width:0.5;" width="171" x="255.5" y="237.99"/><rect fill="#F1F1F1" height="10" style="stroke:#181818;stroke-width:0.5;" width="15" x="406.5" y="242.99"/><rect fill="#F1F1F1" height="2" style="stroke:#181818;stroke-width:0.5;" width="4" x="404.5" y="244.99"/><rect fill="#F1F1F1" height="2" style="stroke:#181818;stroke-width:0.5;" width="4" x="404.5" y="248.99"/><text fill="#000000" font-family="sans-serif" font-size="14" lengthAdjust="spacing" textLength="131" x="270.5" y="271.5252">In-process Indexer</text></g><!--entity in_memory_pub_sub--><g id="elem_in_memory_pub_sub"><path d="M110.5,450.96 L253.5,450.96 C258.5,450.96 258.5,464.2041 258.5,464.2041 C258.5,464.2041 258.5,477.4483 253.5,477.4483 L110.5,477.4483 C105.5,477.4483 105.5,464.2041 105.5,464.2041 C105.5,464.2041 105.5,450.96 110.5,450.96 " fill="#F1F1F1" style="stroke:#181818;stroke-width:0.5;"/><path d="M253.5,450.96 C248.5,450.96 248.5,464.2041 248.5,464.2041 C248.5,477.4483 253.5,477.4483 253.5,477.4483 " fill="none" style="stroke:#181818;stroke-width:0.5;"/><text fill="#000000" font-family="sans-serif" font-size="14" lengthAdjust="spacing" textLength="133" x="110.5" y="469.4952">In-memory PubSub</text></g><!--entity sqlite--><g id="elem_sqlite"><path d="M153,354.98 C153,344.98 182,344.98 182,344.98 C182,344.98 211,344.98 211,354.98 L211,380.4683 C211,390.4683 182,390.4683 182,390.4683 C182,390.4683 153,390.4683 153,380.4683 L153,354.98 " fill="#F1F1F1" style="stroke:#181818;stroke-width:0.5;"/><path d="M153,354.98 C153,364.98 182,364.98 182,364.98 C182,364.98 211,364.98 211,354.98 " fill="none" style="stroke:#181818;stroke-width:0.5;"/><text fill="#000000" font-family="sans-serif" font-size="14" lengthAdjust="spacing" textLength="38" x="163" y="382.5152">Sqlite</text></g><!--entity node--><g id="elem_node"><polygon fill="#F1F1F1" points="137,704.45,147,694.45,213,694.45,213,730.9383,203,740.9383,137,740.9383,137,704.45" style="stroke:#181818;stroke-width:0.5;"/><line style="stroke:#181818;stroke-width:0.5;" x1="203" x2="213" y1="704.45" y2="694.45"/><line style="stroke:#181818;stroke-width:0.5;" x1="137" x2="203" y1="704.45" y2="704.45"/><line style="stroke:#181818;stroke-width:0.5;" x1="203" x2="203" y1="704.45" y2="740.9383"/><text fill="#000000" font-family="sans-serif" font-size="14" lengthAdjust="spacing" textLength="36" x="152" y="727.9852">Node</text></g><!--entity clients--><g id="elem_clients"><ellipse cx="65" cy="14" fill="#F1F1F1" rx="8" ry="8" style="stroke:#181818;stroke-width:0.5;"/><path d="M65,22 L65,49 M52,30 L78,30 M65,49 L52,64 M65,49 L78,64 " fill="none" style="stroke:#181818;stroke-width:0.5;"/><text fill="#000000" font-family="sans-serif" font-size="14" lengthAdjust="spacing" textLength="47" x="41.5" y="79.0352">Clients</text></g><!--link in_process_indexer to sqlite--><g id="link_in_process_indexer_sqlite"><path d="M306.5,284.9 C278.09,303.57 243.2748,326.4559 216.3748,344.1259 " fill="none" id="in_process_indexer-to-sqlite" style="stroke:#181818;stroke-width:1.0;"/><polygon fill="#181818" points="211.36,347.42,221.0784,345.822,215.539,344.6749,216.6862,339.1356,211.36,347.42" style="stroke:#181818;stroke-width:1.0;"/></g><!--link in_process_indexer to events_source--><g id="link_in_process_indexer_events_source"><path d="M342.95,284.9 C344.46,302.43 346.0245,320.6022 347.5345,338.1122 " fill="none" id="in_process_indexer-to-events_source" style="stroke:#181818;stroke-width:1.0;"/><polygon fill="#181818" points="348.05,344.09,351.262,334.7796,347.6204,339.1085,343.2915,335.4669,348.05,344.09" style="stroke:#181818;stroke-width:1.0;"/></g><!--link in_process_indexer to in_memory_pub_sub--><g id="link_in_process_indexer_in_memory_pub_sub"><path d="M318.87,284.95 C303.5,301.1 282.84,323.55 266,344.48 C236.08,381.66 207.8493,423.632 193.3893,445.692 " fill="none" id="in_process_indexer-to-in_memory_pub_sub" style="stroke:#181818;stroke-width:1.0;"/><polygon fill="#181818" points="190.1,450.71,198.3792,445.3758,192.841,446.5283,191.6885,440.9901,190.1,450.71" style="stroke:#181818;stroke-width:1.0;"/></g><!--link events_source to node_api_port--><g id="link_events_source_node_api_port"><path d="M336.7,391.07 C322.34,414.88 298.49,453.46 276,485.45 C240.5,535.95 196.8308,589.1621 182.8608,606.0021 " fill="none" id="events_source-to-node_api_port" style="stroke:#181818;stroke-width:1.0;"/><polygon fill="#181818" points="179.03,610.62,187.8548,606.2471,182.2224,606.7718,181.6977,601.1393,179.03,610.62" style="stroke:#181818;stroke-width:1.0;"/></g><!--link graphql_api to sqlite--><g id="link_graphql_api_sqlite"><path d="M162.42,284.9 C166.68,302.67 171.1519,321.4052 175.3619,338.9752 " fill="none" id="graphql_api-to-sqlite" style="stroke:#181818;stroke-width:1.0;"/><polygon fill="#181818" points="176.76,344.81,178.5527,335.1257,175.5949,339.9476,170.773,336.9898,176.76,344.81" style="stroke:#181818;stroke-width:1.0;"/></g><!--link graphql_api to in_memory_pub_sub--><g id="link_graphql_api_in_memory_pub_sub"><path d="M146.97,284.93 C136.87,310.94 124.23,354.66 135,390.96 C141.89,414.2 154.9927,432.3895 166.5427,445.9695 " fill="none" id="graphql_api-to-in_memory_pub_sub" style="stroke:#181818;stroke-width:1.0;"/><polygon fill="#181818" points="170.43,450.54,167.6461,441.0928,167.1906,446.7313,161.5521,446.2758,170.43,450.54" style="stroke:#181818;stroke-width:1.0;"/></g><!--link graphql_api to graphql_api_port--><g id="link_graphql_api_graphql_api_port"><path d="M136.16,237.75 C114.23,214.1 85.3577,182.9514 73.5177,170.1714 " fill="none" id="graphql_api-to-graphql_api_port" style="stroke:#181818;stroke-width:1.0;"/><polygon fill="#181818" points="69.44,165.77,72.6222,175.0906,72.8381,169.4378,78.4908,169.6537,69.44,165.77" style="stroke:#181818;stroke-width:1.0;"/></g><!--link sqlite to in_memory_pub_sub--><!--link clients to graphql_api_port--><g id="link_clients_graphql_api_port"><path d="M65,82.47 C65,108.98 65,135.83 65,148.08 " fill="none" id="clients-to-graphql_api_port" style="stroke:#181818;stroke-width:1.0;"/><polygon fill="#181818" points="65,154.08,69,145.08,65,149.08,61,145.08,65,154.08" style="stroke:#181818;stroke-width:1.0;"/></g><!--reverse link node_api_port to node--><g id="link_node_api_port_node"><path d="M175,628.24 C175,641.02 175,670.56 175,694.22 " fill="none" id="node_api_port-backto-node" style="stroke:#181818;stroke-width:1.0;"/><polygon fill="#181818" points="175,622.24,171,631.24,175,627.24,179,631.24,175,622.24" style="stroke:#181818;stroke-width:1.0;"/></g><!--SRC=[TPBBIiKm48RtUOgX-xo1228Y1P5AboeXJOPp0csI9eqeuhkRIukcfsVHP9Zv_hcbsaY4vtHm3phU91tGT67emm2jblY9xattIfz6XCuPWTutYRPXO3v-gZ3mJG2iSGiqZuxRyyiJt7KjTD6JyLDopYFZLh64hRG9KP0RgEZKnHyQMM4cQpJgElq-Smq-VCJBWpV12SmePWyhdXfkDRLbkctgh52QhUvjq2YR0mRCaWaduxwWh6iJ52TR5vIwbtpX0_S8_Jog9I_RPoi5Bqi0fRSRS3M-d-KATjaFrD989QxUEFpVQjtEFd1KOCySF7x91_JrhAH4_KuF4lqGmiLY73JteqejvmsBOXEo6iSLgddWXjBoUnFo2m00]--></g></svg>