<?xml version="1.0" encoding="us-ascii" standalone="no"?><svg xmlns="http://www.w3.org/2000/svg" xmlns:xlink="http://www.w3.org/1999/xlink" contentStyleType="text/css" height="1013px" preserveAspectRatio="none" style="width:1363px;height:1013px;background:#FFFFFF;" version="1.1" viewBox="0 0 1363 1013" width="1363px" zoomAndPan="magnify"><defs/><g><!--cluster graphql_api_cluster--><g id="cluster_graphql_api_cluster"><polygon fill="none" points="16,203.47,26,193.47,1130,193.47,1130,436.96,1120,446.96,16,446.96,16,203.47" style="stroke:#181818;stroke-width:1.0;"/><line style="stroke:#181818;stroke-width:1.0;" x1="1120" x2="1130" y1="203.47" y2="193.47"/><line style="stroke:#181818;stroke-width:1.0;" x1="16" x2="1120" y1="203.47" y2="203.47"/><line style="stroke:#181818;stroke-width:1.0;" x1="1120" x2="1120" y1="203.47" y2="446.96"/><text fill="#000000" font-family="sans-serif" font-size="14" font-weight="bold" lengthAdjust="spacing" textLength="148" x="495" y="220.0052">GraphQL API Cluster</text></g><!--cluster graphql_api_instance_1--><g id="cluster_graphql_api_instance_1"><polygon fill="none" points="280,284.47,290,274.47,526,274.47,526,398.96,516,408.96,280,408.96,280,284.47" style="stroke:#181818;stroke-width:1.0;"/><line style="stroke:#181818;stroke-width:1.0;" x1="516" x2="526" y1="284.47" y2="274.47"/><line style="stroke:#181818;stroke-width:1.0;" x1="280" x2="516" y1="284.47" y2="284.47"/><line style="stroke:#181818;stroke-width:1.0;" x1="516" x2="516" y1="284.47" y2="408.96"/><text fill="#000000" font-family="sans-serif" font-size="14" font-weight="bold" lengthAdjust="spacing" textLength="170" x="314" y="301.0052">GraphQL API Instance 1</text><text fill="#000000" font-family="sans-serif" font-size="14" font-weight="bold" lengthAdjust="spacing" textLength="83" x="357.5" y="317.4934">&#171;container&#187;</text></g><!--cluster graphql_api_instance_2--><g id="cluster_graphql_api_instance_2"><polygon fill="none" points="566,284.47,576,274.47,812,274.47,812,398.96,802,408.96,566,408.96,566,284.47" style="stroke:#181818;stroke-width:1.0;"/><line style="stroke:#181818;stroke-width:1.0;" x1="802" x2="812" y1="284.47" y2="274.47"/><line style="stroke:#181818;stroke-width:1.0;" x1="566" x2="802" y1="284.47" y2="284.47"/><line style="stroke:#181818;stroke-width:1.0;" x1="802" x2="802" y1="284.47" y2="408.96"/><text fill="#000000" font-family="sans-serif" font-size="14" font-weight="bold" lengthAdjust="spacing" textLength="170" x="600" y="301.0052">GraphQL API Instance 2</text><text fill="#000000" font-family="sans-serif" font-size="14" font-weight="bold" lengthAdjust="spacing" textLength="83" x="643.5" y="317.4934">&#171;container&#187;</text></g><!--cluster graphql_api_instance_n--><g id="cluster_graphql_api_instance_n"><polygon fill="none" points="852,284.47,862,274.47,1098,274.47,1098,398.96,1088,408.96,852,408.96,852,284.47" style="stroke:#181818;stroke-width:1.0;"/><line style="stroke:#181818;stroke-width:1.0;" x1="1088" x2="1098" y1="284.47" y2="274.47"/><line style="stroke:#181818;stroke-width:1.0;" x1="852" x2="1088" y1="284.47" y2="284.47"/><line style="stroke:#181818;stroke-width:1.0;" x1="1088" x2="1088" y1="284.47" y2="408.96"/><text fill="#000000" font-family="sans-serif" font-size="14" font-weight="bold" lengthAdjust="spacing" textLength="170" x="886" y="301.0052">GraphQL API Instance n</text><text fill="#000000" font-family="sans-serif" font-size="14" font-weight="bold" lengthAdjust="spacing" textLength="83" x="929.5" y="317.4934">&#171;container&#187;</text></g><!--cluster indexing_cluster--><g id="cluster_indexing_cluster"><polygon fill="none" points="74,652.94,84,642.94,1346,642.94,1346,884.91,1336,894.91,74,894.91,74,652.94" style="stroke:#181818;stroke-width:1.0;"/><line style="stroke:#181818;stroke-width:1.0;" x1="1336" x2="1346" y1="652.94" y2="642.94"/><line style="stroke:#181818;stroke-width:1.0;" x1="74" x2="1336" y1="652.94" y2="652.94"/><line style="stroke:#181818;stroke-width:1.0;" x1="1336" x2="1336" y1="652.94" y2="894.91"/><text fill="#000000" font-family="sans-serif" font-size="14" font-weight="bold" lengthAdjust="spacing" textLength="119" x="646.5" y="669.4752">Indexing Cluster</text></g><!--cluster primary_indexer--><g id="cluster_primary_indexer"><polygon fill="none" points="830,721.94,840,711.94,1314,711.94,1314,852.91,1304,862.91,830,862.91,830,721.94" style="stroke:#181818;stroke-width:1.0;"/><line style="stroke:#181818;stroke-width:1.0;" x1="1304" x2="1314" y1="721.94" y2="711.94"/><line style="stroke:#181818;stroke-width:1.0;" x1="830" x2="1304" y1="721.94" y2="721.94"/><line style="stroke:#181818;stroke-width:1.0;" x1="1304" x2="1304" y1="721.94" y2="862.91"/><text fill="#000000" font-family="sans-serif" font-size="14" font-weight="bold" lengthAdjust="spacing" textLength="114" x="1011" y="738.4752">Primary Indexer</text><text fill="#000000" font-family="sans-serif" font-size="14" font-weight="bold" lengthAdjust="spacing" textLength="83" x="1026.5" y="754.9634">&#171;container&#187;</text></g><!--cluster secondary_indexer_1--><g id="cluster_secondary_indexer_1"><polygon fill="none" points="570,730.18,580,720.18,790,720.18,790,844.67,780,854.67,570,854.67,570,730.18" style="stroke:#181818;stroke-width:1.0;"/><line style="stroke:#181818;stroke-width:1.0;" x1="780" x2="790" y1="730.18" y2="720.18"/><line style="stroke:#181818;stroke-width:1.0;" x1="570" x2="780" y1="730.18" y2="730.18"/><line style="stroke:#181818;stroke-width:1.0;" x1="780" x2="780" y1="730.18" y2="854.67"/><text fill="#000000" font-family="sans-serif" font-size="14" font-weight="bold" lengthAdjust="spacing" textLength="144" x="604" y="746.7152">Secondary Indexer 1</text><text fill="#000000" font-family="sans-serif" font-size="14" font-weight="bold" lengthAdjust="spacing" textLength="83" x="634.5" y="763.2034">&#171;container&#187;</text></g><!--cluster secondary_indexer_n--><g id="cluster_secondary_indexer_n"><polygon fill="none" points="310,730.18,320,720.18,530,720.18,530,844.67,520,854.67,310,854.67,310,730.18" style="stroke:#181818;stroke-width:1.0;"/><line style="stroke:#181818;stroke-width:1.0;" x1="520" x2="530" y1="730.18" y2="720.18"/><line style="stroke:#181818;stroke-width:1.0;" x1="310" x2="520" y1="730.18" y2="730.18"/><line style="stroke:#181818;stroke-width:1.0;" x1="520" x2="520" y1="730.18" y2="854.67"/><text fill="#000000" font-family="sans-serif" font-size="14" font-weight="bold" lengthAdjust="spacing" textLength="144" x="344" y="746.7152">Secondary Indexer n</text><text fill="#000000" font-family="sans-serif" font-size="14" font-weight="bold" lengthAdjust="spacing" textLength="83" x="374.5" y="763.2034">&#171;container&#187;</text></g><text fill="#000000" font-family="sans-serif" font-size="14" lengthAdjust="spacing" textLength="121" x="396.5" y="172.5169">API Load Balancer</text><rect fill="#F1F1F1" height="12" style="stroke:#181818;stroke-width:1.5;" width="12" x="451" y="187.47"/><text fill="#000000" font-family="sans-serif" font-size="14" lengthAdjust="spacing" textLength="4" x="572" y="466.4952">&#160;</text><rect fill="#F1F1F1" height="12" style="stroke:#181818;stroke-width:1.5;" width="12" x="568" y="440.96"/><text fill="#000000" font-family="sans-serif" font-size="14" lengthAdjust="spacing" textLength="4" x="472" y="466.4952">&#160;</text><rect fill="#F1F1F1" height="12" style="stroke:#181818;stroke-width:1.5;" width="12" x="468" y="440.96"/><!--entity graphql_api_1--><g id="elem_graphql_api_1"><rect fill="#F1F1F1" height="46.4883" rx="2.5" ry="2.5" style="stroke:#181818;stroke-width:0.5;" width="126" x="376" y="338.47"/><rect fill="#F1F1F1" height="10" style="stroke:#181818;stroke-width:0.5;" width="15" x="482" y="343.47"/><rect fill="#F1F1F1" height="2" style="stroke:#181818;stroke-width:0.5;" width="4" x="480" y="345.47"/><rect fill="#F1F1F1" height="2" style="stroke:#181818;stroke-width:0.5;" width="4" x="480" y="349.47"/><text fill="#000000" font-family="sans-serif" font-size="14" lengthAdjust="spacing" textLength="86" x="391" y="372.0052">GraphQL API</text></g><!--entity graphql_api_2--><g id="elem_graphql_api_2"><rect fill="#F1F1F1" height="46.4883" rx="2.5" ry="2.5" style="stroke:#181818;stroke-width:0.5;" width="126" x="635" y="338.47"/><rect fill="#F1F1F1" height="10" style="stroke:#181818;stroke-width:0.5;" width="15" x="741" y="343.47"/><rect fill="#F1F1F1" height="2" style="stroke:#181818;stroke-width:0.5;" width="4" x="739" y="345.47"/><rect fill="#F1F1F1" height="2" style="stroke:#181818;stroke-width:0.5;" width="4" x="739" y="349.47"/><text fill="#000000" font-family="sans-serif" font-size="14" lengthAdjust="spacing" textLength="86" x="650" y="372.0052">GraphQL API</text></g><!--entity graphql_api_n--><g id="elem_graphql_api_n"><rect fill="#F1F1F1" height="46.4883" rx="2.5" ry="2.5" style="stroke:#181818;stroke-width:0.5;" width="126" x="921" y="338.47"/><rect fill="#F1F1F1" height="10" style="stroke:#181818;stroke-width:0.5;" width="15" x="1027" y="343.47"/><rect fill="#F1F1F1" height="2" style="stroke:#181818;stroke-width:0.5;" width="4" x="1025" y="345.47"/><rect fill="#F1F1F1" height="2" style="stroke:#181818;stroke-width:0.5;" width="4" x="1025" y="349.47"/><text fill="#000000" font-family="sans-serif" font-size="14" lengthAdjust="spacing" textLength="86" x="936" y="372.0052">GraphQL API</text></g><text fill="#000000" font-family="sans-serif" font-size="14" lengthAdjust="spacing" textLength="4" x="576" y="621.9869">&#160;</text><rect fill="#F1F1F1" height="12" style="stroke:#181818;stroke-width:1.5;" width="12" x="572" y="636.94"/><text fill="#000000" font-family="sans-serif" font-size="14" lengthAdjust="spacing" textLength="4" x="458" y="621.9869">&#160;</text><rect fill="#F1F1F1" height="12" style="stroke:#181818;stroke-width:1.5;" width="12" x="454" y="636.94"/><!--entity events_source--><g id="elem_events_source"><rect fill="#F1F1F1" height="46.4883" rx="2.5" ry="2.5" style="stroke:#181818;stroke-width:0.5;" width="135" x="1154.5" y="784.18"/><rect fill="#F1F1F1" height="10" style="stroke:#181818;stroke-width:0.5;" width="15" x="1269.5" y="789.18"/><rect fill="#F1F1F1" height="2" style="stroke:#181818;stroke-width:0.5;" width="4" x="1267.5" y="791.18"/><rect fill="#F1F1F1" height="2" style="stroke:#181818;stroke-width:0.5;" width="4" x="1267.5" y="795.18"/><text fill="#000000" font-family="sans-serif" font-size="14" lengthAdjust="spacing" textLength="95" x="1169.5" y="817.7152">Events Source</text></g><!--entity chain_indexer--><g id="elem_chain_indexer"><rect fill="#F1F1F1" height="46.4883" rx="2.5" ry="2.5" style="stroke:#181818;stroke-width:0.5;" width="137" x="1012.5" y="784.18"/><rect fill="#F1F1F1" height="10" style="stroke:#181818;stroke-width:0.5;" width="15" x="1129.5" y="789.18"/><rect fill="#F1F1F1" height="2" style="stroke:#181818;stroke-width:0.5;" width="4" x="1127.5" y="791.18"/><rect fill="#F1F1F1" height="2" style="stroke:#181818;stroke-width:0.5;" width="4" x="1127.5" y="795.18"/><text fill="#000000" font-family="sans-serif" font-size="14" lengthAdjust="spacing" textLength="97" x="1027.5" y="817.7152">Chain Indexer</text></g><!--entity wallets_indexer_1--><g id="elem_wallets_indexer_1"><rect fill="#F1F1F1" height="62.9766" rx="2.5" ry="2.5" style="stroke:#181818;stroke-width:0.5;" width="145" x="862.5" y="775.94"/><rect fill="#F1F1F1" height="10" style="stroke:#181818;stroke-width:0.5;" width="15" x="987.5" y="780.94"/><rect fill="#F1F1F1" height="2" style="stroke:#181818;stroke-width:0.5;" width="4" x="985.5" y="782.94"/><rect fill="#F1F1F1" height="2" style="stroke:#181818;stroke-width:0.5;" width="4" x="985.5" y="786.94"/><text fill="#000000" font-family="sans-serif" font-size="14" lengthAdjust="spacing" textLength="105" x="877.5" y="809.4752">Wallets Indexer</text><text fill="#000000" font-family="sans-serif" font-size="14" lengthAdjust="spacing" textLength="57" x="877.5" y="825.9634">optional</text></g><!--entity wallets_indexer_2--><g id="elem_wallets_indexer_2"><rect fill="#F1F1F1" height="46.4883" rx="2.5" ry="2.5" style="stroke:#181818;stroke-width:0.5;" width="145" x="611.5" y="784.18"/><rect fill="#F1F1F1" height="10" style="stroke:#181818;stroke-width:0.5;" width="15" x="736.5" y="789.18"/><rect fill="#F1F1F1" height="2" style="stroke:#181818;stroke-width:0.5;" width="4" x="734.5" y="791.18"/><rect fill="#F1F1F1" height="2" style="stroke:#181818;stroke-width:0.5;" width="4" x="734.5" y="795.18"/><text fill="#000000" font-family="sans-serif" font-size="14" lengthAdjust="spacing" textLength="105" x="626.5" y="817.7152">Wallets Indexer</text></g><!--entity wallets_indexer_n--><g id="elem_wallets_indexer_n"><rect fill="#F1F1F1" height="46.4883" rx="2.5" ry="2.5" style="stroke:#181818;stroke-width:0.5;" width="145" x="360.5" y="784.18"/><rect fill="#F1F1F1" height="10" style="stroke:#181818;stroke-width:0.5;" width="15" x="485.5" y="789.18"/><rect fill="#F1F1F1" height="2" style="stroke:#181818;stroke-width:0.5;" width="4" x="483.5" y="791.18"/><rect fill="#F1F1F1" height="2" style="stroke:#181818;stroke-width:0.5;" width="4" x="483.5" y="795.18"/><text fill="#000000" font-family="sans-serif" font-size="14" lengthAdjust="spacing" textLength="105" x="375.5" y="817.7152">Wallets Indexer</text></g><!--entity node--><g id="elem_node"><polygon fill="#F1F1F1" points="1137.5,943.91,1147.5,933.91,1306.5,933.91,1306.5,986.8866,1296.5,996.8866,1137.5,996.8866,1137.5,943.91" style="stroke:#181818;stroke-width:0.5;"/><line style="stroke:#181818;stroke-width:0.5;" x1="1296.5" x2="1306.5" y1="943.91" y2="933.91"/><line style="stroke:#181818;stroke-width:0.5;" x1="1137.5" x2="1296.5" y1="943.91" y2="943.91"/><line style="stroke:#181818;stroke-width:0.5;" x1="1296.5" x2="1296.5" y1="943.91" y2="996.8866"/><text fill="#000000" font-family="sans-serif" font-size="14" lengthAdjust="spacing" textLength="36" x="1152.5" y="967.4452">Node</text><text fill="#000000" font-family="sans-serif" font-size="14" lengthAdjust="spacing" textLength="129" x="1152.5" y="983.9334">Dedicated Instance</text></g><!--entity client--><g id="elem_client"><ellipse cx="457" cy="14" fill="#F1F1F1" rx="8" ry="8" style="stroke:#181818;stroke-width:0.5;"/><path d="M457,22 L457,49 M444,30 L470,30 M457,49 L444,64 M457,49 L470,64 " fill="none" style="stroke:#181818;stroke-width:0.5;"/><text fill="#000000" font-family="sans-serif" font-size="14" lengthAdjust="spacing" textLength="40" x="428.5" y="79.0352">Client</text><text fill="#000000" font-family="sans-serif" font-size="14" lengthAdjust="spacing" textLength="57" x="428.5" y="95.5234">external</text></g><!--entity pub_sub--><g id="elem_pub_sub"><path d="M429,523.46 L491,523.46 C496,523.46 496,544.9483 496,544.9483 C496,544.9483 496,566.4366 491,566.4366 L429,566.4366 C424,566.4366 424,544.9483 424,544.9483 C424,544.9483 424,523.46 429,523.46 " fill="#F1F1F1" style="stroke:#181818;stroke-width:0.5;"/><path d="M491,523.46 C486,523.46 486,544.9483 486,544.9483 C486,566.4366 491,566.4366 491,566.4366 " fill="none" style="stroke:#181818;stroke-width:0.5;"/><text fill="#000000" font-family="sans-serif" font-size="14" lengthAdjust="spacing" textLength="52" x="429" y="541.9952">PubSub</text><text fill="#000000" font-family="sans-serif" font-size="14" lengthAdjust="spacing" textLength="37" x="429" y="558.4834">Redis</text></g><!--entity index_db--><g id="elem_index_db"><path d="M530,523.96 C530,513.96 579,513.96 579,513.96 C579,513.96 628,513.96 628,523.96 L628,565.9366 C628,575.9366 579,575.9366 579,575.9366 C579,575.9366 530,575.9366 530,565.9366 L530,523.96 " fill="#F1F1F1" style="stroke:#181818;stroke-width:0.5;"/><path d="M530,523.96 C530,533.96 579,533.96 579,533.96 C579,533.96 628,533.96 628,523.96 " fill="none" style="stroke:#181818;stroke-width:0.5;"/><text fill="#000000" font-family="sans-serif" font-size="14" lengthAdjust="spacing" textLength="39" x="540" y="551.4952">Index</text><text fill="#000000" font-family="sans-serif" font-size="14" lengthAdjust="spacing" textLength="78" x="540" y="567.9834">PostgreSQL</text></g><!--link api_load_balancer to graphql_api_instance_1--><g id="link_api_load_balancer_graphql_api_instance_1"><path d="M451.48,195.87 C434.63,200.44 383.58,216.66 360,250.47 C356.5,255.4888 353.5736,260.9416 351.1326,266.6456 C350.5224,268.0717 349.9425,269.5134 349.3915,270.968 C349.1161,271.6952 348.8478,272.4257 348.5867,273.1591 C348.4561,273.5258 350.2853,268.2217 350.1582,268.5897 " fill="none" id="api_load_balancer-to-graphql_api_instance_1" style="stroke:#181818;stroke-width:1.0;"/><polygon fill="#181818" points="348.2002,274.2612,354.9183,267.0593,349.8319,269.535,347.3562,264.4486,348.2002,274.2612" style="stroke:#181818;stroke-width:1.0;"/></g><!--link api_load_balancer to graphql_api_instance_2--><g id="link_api_load_balancer_graphql_api_instance_2"><path d="M462.68,198.56 C474.26,207.12 500.97,228.02 518,250.47 C534.35,272.02 548.1725,299.0625 557.9938,320.9713 C560.4491,326.4484 562.6543,331.6048 564.5864,336.2742 C565.0695,337.4416 563.2768,333.0198 563.7254,334.1237 " fill="none" id="api_load_balancer-to-graphql_api_instance_2" style="stroke:#181818;stroke-width:1.0;"/><polygon fill="#181818" points="565.984,339.6824,566.3019,329.8387,564.1018,335.0502,558.8903,332.8501,565.984,339.6824" style="stroke:#181818;stroke-width:1.0;"/></g><!--link api_load_balancer to graphql_api_instance_n--><g id="link_api_load_balancer_graphql_api_instance_n"><path d="M462.93,194.92 C501.85,197.92 720.96,216.16 777,250.47 C802.745,266.23 823.255,293.1825 837.4463,316.4925 C840.9941,322.32 844.147,327.9198 846.888,333.0602 C848.2585,335.6304 849.5261,338.0858 850.6885,340.3973 C850.9792,340.9751 851.2632,341.544 851.5407,342.1035 C851.6794,342.3832 849.1653,337.278 849.3008,337.553 " fill="none" id="api_load_balancer-to-graphql_api_instance_n" style="stroke:#181818;stroke-width:1.0;"/><polygon fill="#181818" points="851.9519,342.9355,851.5635,333.0943,849.7426,338.45,844.3868,336.6291,851.9519,342.9355" style="stroke:#181818;stroke-width:1.0;"/></g><!--link graphql_api_instance_1 to graphql_cluster_index_port--><g id="link_graphql_api_instance_1_graphql_cluster_index_port"><path d="M344.9676,409.2397 C345.0428,409.4733 345.1191,409.7067 345.1966,409.9396 C345.3516,410.4055 345.5113,410.8699 345.6758,411.3324 C346.0048,412.2576 346.3531,413.1755 346.7217,414.0841 C349.6706,421.3525 353.92,428.02 360,432.96 C371.92,442.65 482.67,440.01 498,440.96 C523.87,442.56 548.694,444.2308 561.714,445.1208 " fill="none" id="graphql_api_instance_1-to-graphql_cluster_index_port" style="stroke:#181818;stroke-width:1.0;"/><polygon fill="#181818" points="567.7,445.53,558.9937,440.9255,562.7116,445.189,558.4482,448.9069,567.7,445.53" style="stroke:#181818;stroke-width:1.0;"/></g><!--link graphql_api_instance_2 to graphql_cluster_index_port--><g id="link_graphql_api_instance_2_graphql_cluster_index_port"><path d="M574,409.0701 C574,409.2044 574,409.3386 574,409.4727 C574,409.7409 574,410.0089 574,410.2765 C574,410.8118 574,411.3457 574,411.8779 C574,412.9424 574,414 574,415.0479 C574,417.1438 574,419.2008 574,421.1956 C574,429.175 574,430.16 574,434.66 " fill="none" id="graphql_api_instance_2-to-graphql_cluster_index_port" style="stroke:#181818;stroke-width:1.0;"/><polygon fill="#181818" points="574,440.66,578,431.66,574,435.66,570,431.66,574,440.66" style="stroke:#181818;stroke-width:1.0;"/></g><!--link graphql_api_instance_n to graphql_cluster_index_port--><g id="link_graphql_api_instance_n_graphql_cluster_index_port"><path d="M851.871,372.9077 C851.8,372.992 851.7287,373.0768 851.6569,373.162 C851.5134,373.3324 851.3681,373.5043 851.2212,373.6778 C850.9275,374.0249 850.627,374.3781 850.32,374.7374 C849.706,375.4558 849.0658,376.1981 848.4002,376.9618 C847.0691,378.4892 845.6366,380.1022 844.1098,381.7818 C841.0561,385.1409 837.625,388.7659 833.8725,392.5038 C818.8625,407.455 798.71,424.21 777,432.96 C739.99,447.88 616.1191,446.6922 586.1891,446.1822 " fill="none" id="graphql_api_instance_n-to-graphql_cluster_index_port" style="stroke:#181818;stroke-width:1.0;"/><polygon fill="#181818" points="580.19,446.08,589.1205,450.2328,585.1893,446.1652,589.2568,442.2339,580.19,446.08" style="stroke:#181818;stroke-width:1.0;"/></g><!--link graphql_api_instance_1 to graphql_cluster_pub_sub_port--><g id="link_graphql_api_instance_1_graphql_cluster_pub_sub_port"><path d="M345.334,409.2912 C345.372,409.408 345.4102,409.5248 345.4488,409.6416 C345.6029,410.1085 345.7616,410.574 345.925,411.0379 C346.2518,411.9658 346.5971,412.8872 346.9622,413.8 C349.8825,421.1025 354.06,427.855 360,432.96 C376.31,446.98 440.2614,446.7314 461.7214,446.2614 " fill="none" id="graphql_api_instance_1-to-graphql_cluster_pub_sub_port" style="stroke:#181818;stroke-width:1.0;"/><polygon fill="#181818" points="467.72,446.13,458.6346,442.328,462.7212,446.2395,458.8097,450.3261,467.72,446.13" style="stroke:#181818;stroke-width:1.0;"/></g><!--link graphql_api_instance_2 to graphql_cluster_pub_sub_port--><g id="link_graphql_api_instance_2_graphql_cluster_pub_sub_port"><path d="M565.8409,377.6765 C565.7295,377.8645 565.6171,378.0538 565.5037,378.2442 C565.05,379.0061 564.5795,379.7874 564.0926,380.586 C562.145,383.7803 559.935,387.2519 557.485,390.87 C547.685,405.3425 534.045,422.16 518,432.96 C506.24,440.88 495.5073,443.2766 486.4373,444.4866 " fill="none" id="graphql_api_instance_2-to-graphql_cluster_pub_sub_port" style="stroke:#181818;stroke-width:1.0;"/><polygon fill="#181818" points="480.49,445.28,489.9399,448.0548,485.4461,444.6188,488.882,440.125,480.49,445.28" style="stroke:#181818;stroke-width:1.0;"/></g><!--link graphql_api_instance_n to graphql_cluster_pub_sub_port--><g id="link_graphql_api_instance_n_graphql_cluster_pub_sub_port"><path d="M851.9113,373.0141 C851.8407,373.0993 851.7696,373.1848 851.6982,373.2708 C851.5552,373.4427 851.4107,373.6163 851.2644,373.7914 C850.9719,374.1416 850.6727,374.4981 850.367,374.8606 C849.7556,375.5855 849.1179,376.3342 848.455,377.1044 C847.1291,378.6448 845.7018,380.2708 844.1801,381.9628 C841.1366,385.347 837.715,388.9953 833.97,392.7513 C818.99,407.775 798.835,424.52 777,432.96 C753.46,442.06 575.21,439.69 550,440.96 C524.12,442.27 499.3031,444.0497 486.2831,445.0297 " fill="none" id="graphql_api_instance_n-to-graphql_cluster_pub_sub_port" style="stroke:#181818;stroke-width:1.0;"/><polygon fill="#181818" points="480.3,445.48,489.5748,448.7932,485.2859,445.1047,488.9744,440.8158,480.3,445.48" style="stroke:#181818;stroke-width:1.0;"/></g><!--reverse link indexing_cluster_index_port to primary_indexer--><g id="link_indexing_cluster_index_port_primary_indexer"><path d="M590.1449,643.362 C616.0049,642.292 711.46,641.59 773,687.94 C796.615,705.725 812.73,734.705 823.0075,759.5525 C825.5769,765.7644 827.7814,771.718 829.6471,777.1738 C829.7637,777.5148 829.879,777.8538 829.9929,778.1909 " fill="none" id="indexing_cluster_index_port-backto-primary_indexer" style="stroke:#181818;stroke-width:1.0;"/><polygon fill="#181818" points="584.15,643.61,593.3077,647.2345,589.1457,643.4033,592.9769,639.2413,584.15,643.61" style="stroke:#181818;stroke-width:1.0;"/></g><!--reverse link indexing_cluster_index_port to secondary_indexer_1--><g id="link_indexing_cluster_index_port_secondary_indexer_1"><path d="M578,655.34 C578,662.28 578,669.3175 578,685.0311 C578,692.8879 578,701.4137 578,710.1809 C578,712.3727 578,714.5795 578,716.7948 C578,717.9025 578,719.0122 578,720.1232 " fill="none" id="indexing_cluster_index_port-backto-secondary_indexer_1" style="stroke:#181818;stroke-width:1.0;"/><polygon fill="#181818" points="578,649.34,574,658.34,578,654.34,582,658.34,578,649.34" style="stroke:#181818;stroke-width:1.0;"/></g><!--reverse link indexing_cluster_index_port to secondary_indexer_n--><g id="link_indexing_cluster_index_port_secondary_indexer_n"><path d="M565.7802,645.3538 C530.1302,649.5038 359.78,670.16 344,687.94 C339.6875,692.795 337.0131,702.4363 335.4317,714.2139 C335.234,715.6861 335.0534,717.1917 334.8889,718.7255 C334.8477,719.1089 334.8076,719.4942 334.7684,719.881 " fill="none" id="indexing_cluster_index_port-backto-secondary_indexer_n" style="stroke:#181818;stroke-width:1.0;"/><polygon fill="#181818" points="571.74,644.66,562.3379,641.7275,566.7735,645.2381,563.2629,649.6738,571.74,644.66" style="stroke:#181818;stroke-width:1.0;"/></g><!--reverse link indexing_cluster_pub_sub_port to primary_indexer--><g id="link_indexing_cluster_pub_sub_port_primary_indexer"><path d="M472.4671,645.0232 C514.9671,648.7432 746.7,669.77 773,687.94 C797.325,704.735 813.4525,733.7 823.5587,758.7863 C824.822,761.922 825.9912,764.9972 827.0706,767.9804 C827.6103,769.472 828.1275,770.9407 828.6228,772.3824 C828.8705,773.1032 829.1126,773.8174 829.3494,774.5243 C829.4678,774.8778 829.5848,775.2294 829.7005,775.5792 C829.7583,775.7541 829.8158,775.9285 829.873,776.1025 " fill="none" id="indexing_cluster_pub_sub_port-backto-primary_indexer" style="stroke:#181818;stroke-width:1.0;"/><polygon fill="#181818" points="466.49,644.5,475.1069,649.2695,471.471,644.936,475.8045,641.3,466.49,644.5" style="stroke:#181818;stroke-width:1.0;"/></g><!--reverse link indexing_cluster_pub_sub_port to secondary_indexer_1--><g id="link_indexing_cluster_pub_sub_port_secondary_indexer_1"><path d="M466.4887,654.2579 C471.5987,662.1579 479.04,671.95 492,679.94 C503.75,687.18 511.4,679.1 522,687.94 C544.02,706.295 557.93,735.285 566.3788,759.995 C567.4348,763.0838 568.4056,766.1056 569.2962,769.0315 C569.5189,769.763 569.7365,770.4884 569.9492,771.2074 " fill="none" id="indexing_cluster_pub_sub_port-backto-secondary_indexer_1" style="stroke:#181818;stroke-width:1.0;"/><polygon fill="#181818" points="463.23,649.22,464.7594,658.9494,465.9456,653.4183,471.4767,654.6044,463.23,649.22" style="stroke:#181818;stroke-width:1.0;"/></g><!--reverse link indexing_cluster_pub_sub_port to secondary_indexer_n--><g id="link_indexing_cluster_pub_sub_port_secondary_indexer_n"><path d="M447.597,644.4091 C427.487,645.3791 371.32,651.08 344,687.94 C340.1325,693.1575 337.6838,702.9825 336.1897,714.8313 C336.0029,716.3123 335.8311,717.8251 335.6733,719.3643 C335.6535,719.5568 335.634,719.7496 335.6147,719.9428 " fill="none" id="indexing_cluster_pub_sub_port-backto-secondary_indexer_n" style="stroke:#181818;stroke-width:1.0;"/><polygon fill="#181818" points="453.59,644.12,444.4077,640.5583,448.5958,644.3609,444.7932,648.549,453.59,644.12" style="stroke:#181818;stroke-width:1.0;"/></g><!--link secondary_indexer_n to secondary_indexer_1--><!--link client to api_load_balancer--><g id="link_client_api_load_balancer"><path d="M457,98.66 C457,132.03 457,167.78 457,181.71 " fill="none" id="client-to-api_load_balancer" style="stroke:#181818;stroke-width:1.0;"/><polygon fill="#181818" points="457,187.71,461,178.71,457,182.71,453,178.71,457,187.71" style="stroke:#181818;stroke-width:1.0;"/><text fill="#000000" font-family="sans-serif" font-size="13" lengthAdjust="spacing" textLength="94" x="458" y="142.0384">public network</text></g><!--link events_source to node--><g id="link_events_source_node"><path d="M1222,831.11 C1222,858.14 1222,897.45 1222,927.63 " fill="none" id="events_source-to-node" style="stroke:#181818;stroke-width:1.0;"/><polygon fill="#181818" points="1222,933.63,1226,924.63,1222,928.63,1218,924.63,1222,933.63" style="stroke:#181818;stroke-width:1.0;"/></g><!--link pub_sub to index_db--><!--link graphql_cluster_pub_sub_port to pub_sub--><g id="link_graphql_cluster_pub_sub_port_pub_sub"><path d="M473.21,453.4 C471.29,466.56 467.1645,494.7926 463.9045,517.1826 " fill="none" id="graphql_cluster_pub_sub_port-to-pub_sub" style="stroke:#181818;stroke-width:1.0;"/><polygon fill="#181818" points="463.04,523.12,468.295,514.7902,463.7604,518.1722,460.3785,513.6376,463.04,523.12" style="stroke:#181818;stroke-width:1.0;"/></g><!--link graphql_cluster_index_port to index_db--><g id="link_graphql_cluster_index_port_index_db"><path d="M574.28,453.4 C574.88,464.82 575.9899,486.048 577.1099,507.688 " fill="none" id="graphql_cluster_index_port-to-index_db" style="stroke:#181818;stroke-width:1.0;"/><polygon fill="#181818" points="577.42,513.68,580.9495,504.4853,577.1616,508.6867,572.9602,504.8988,577.42,513.68" style="stroke:#181818;stroke-width:1.0;"/></g><!--reverse link pub_sub to indexing_cluster_pub_sub_port--><g id="link_pub_sub_indexing_cluster_pub_sub_port"><path d="M460,572.78 C460,595.27 460,623.64 460,636.68 " fill="none" id="pub_sub-backto-indexing_cluster_pub_sub_port" style="stroke:#181818;stroke-width:1.0;"/><polygon fill="#181818" points="460,566.78,456,575.78,460,571.78,464,575.78,460,566.78" style="stroke:#181818;stroke-width:1.0;"/></g><!--reverse link index_db to indexing_cluster_index_port--><g id="link_index_db_indexing_cluster_index_port"><path d="M578.6193,582.3197 C578.3993,604.0697 578.17,625.43 578.05,636.71 " fill="none" id="index_db-backto-indexing_cluster_index_port" style="stroke:#181818;stroke-width:1.0;"/><polygon fill="#181818" points="578.68,576.32,574.5892,585.2791,578.6294,581.3197,582.5888,585.36,578.68,576.32" style="stroke:#181818;stroke-width:1.0;"/></g><!--SRC=[dLPDZvim4BtpAqRSEOHZ5KLgqwgA55NPvj13gP31LcAL7REswMvLxN-lCJW9uF2H2v66z-QzCPCdew0Cmc_ccU1dHdbEDAEmGwK9vYm4eW3Doo0WkHOImct16Ue4sPjc4abX4Raj1i5BnIhJxL1bnofByBlffooWhB9KLLb0YIOPKGQpGyhU4Zm8fK-I7P_s5iVhQagp843hwwiavVbf3nyFEzWMbJAQ5dUgwoz5IagUvaqT_WK0fP2Q8uGrVYy8XK-agETeM3MwCDKqQwijGrGQGkWqRfkcZQ4QD8rjXtJeuGJkL66Lu7gT2zI48vERpM0ctYBJbHqB81VFfK1po9sE0zxAWD_7jUFPsl4oxNXQ6sThup9jjDhcCVZ444MREqUx31ulWsFjviudlU5uz-pErtY8XXEqHIvx6pxVvnmYJXBVNIpOyE1uwcG2RulUG00lPFZt7i5sh5ps_23vCv5_mLfYqhVWPGDfn5fVdSt-yiVyA3YAIhQHosmbLRRIXs_FfhiJRFAthhZ-VVWFKXJCjByu5ANcmaNtQ_FMaTi4kOntP6OQUZEWFxkKWrtx3CVi6V7AnrFoE4yU7vE_vCZ8fi0wYlhVT0R3SqGFiT1hxtOvvneSS6PQdC6p9drB4HK_pvnIXh_yD7FupMN29kiWRp_KDuc2vu1ClmhvEmWw_nHBQguhhKc8v5NmUhiOYndRn5rOxYUdXLqwEhdwECQJmr7yq9j0-Wy0]--></g></svg>