<?xml version="1.0" encoding="UTF-8" standalone="no"?><svg xmlns="http://www.w3.org/2000/svg" xmlns:xlink="http://www.w3.org/1999/xlink" contentStyleType="text/css" height="563px" preserveAspectRatio="none" style="width:734px;height:563px;background:#FFFFFF;" version="1.1" viewBox="0 0 734 563" width="734px" zoomAndPan="magnify"><defs/><g><!--MD5=[818ae1171c0a6ce3bd506336853ab964]
entity ClientSDK--><g id="elem_ClientSDK"><rect fill="#F1F1F1" height="46.4883" rx="2.5" ry="2.5" style="stroke:#181818;stroke-width:0.5;" width="107" x="325" y="265"/><rect fill="#F1F1F1" height="10" style="stroke:#181818;stroke-width:0.5;" width="15" x="412" y="270"/><rect fill="#F1F1F1" height="2" style="stroke:#181818;stroke-width:0.5;" width="4" x="410" y="272"/><rect fill="#F1F1F1" height="2" style="stroke:#181818;stroke-width:0.5;" width="4" x="410" y="276"/><text fill="#000000" font-family="sans-serif" font-size="14" lengthAdjust="spacing" textLength="67" x="340" y="298.5352">ClientSDK</text></g><!--MD5=[3387aa4e67791134b578a5b7cad6270b]
entity ClientSDKAPI--><g id="elem_ClientSDKAPI"><ellipse cx="378.5" cy="159" fill="#F1F1F1" rx="8" ry="8" style="stroke:#181818;stroke-width:0.5;"/><text fill="#000000" font-family="sans-serif" font-size="14" lengthAdjust="spacing" textLength="89" x="334" y="189.5352">ClientSDKAPI</text></g><!--MD5=[5dfe8a42674b874fbbbf7bb71acd25e9]
entity DappClientCode--><g id="elem_DappClientCode"><rect fill="#F1F1F1" height="46.4883" rx="2.5" ry="2.5" style="stroke:#181818;stroke-width:0.5;" width="152" x="302.5" y="7"/><rect fill="#F1F1F1" height="10" style="stroke:#181818;stroke-width:0.5;" width="15" x="434.5" y="12"/><rect fill="#F1F1F1" height="2" style="stroke:#181818;stroke-width:0.5;" width="4" x="432.5" y="14"/><rect fill="#F1F1F1" height="2" style="stroke:#181818;stroke-width:0.5;" width="4" x="432.5" y="18"/><text fill="#000000" font-family="sans-serif" font-size="14" lengthAdjust="spacing" textLength="112" x="317.5" y="40.5352">DappClientCode</text></g><!--MD5=[958d7579ba95f99bcc8ebf3c1bc4737a]
entity dappConnectorClient--><g id="elem_dappConnectorClient"><rect fill="#F1F1F1" height="46.4883" rx="2.5" ry="2.5" style="stroke:#181818;stroke-width:0.5;" width="187" x="541" y="388"/><rect fill="#F1F1F1" height="10" style="stroke:#181818;stroke-width:0.5;" width="15" x="708" y="393"/><rect fill="#F1F1F1" height="2" style="stroke:#181818;stroke-width:0.5;" width="4" x="706" y="395"/><rect fill="#F1F1F1" height="2" style="stroke:#181818;stroke-width:0.5;" width="4" x="706" y="399"/><text fill="#000000" font-family="sans-serif" font-size="14" lengthAdjust="spacing" textLength="147" x="556" y="421.5352">dappConnectorClient</text></g><!--MD5=[6fe7492ee8bed590e014e05743f65053]
entity StateManagement--><g id="elem_StateManagement"><rect fill="#F1F1F1" height="46.4883" rx="2.5" ry="2.5" style="stroke:#181818;stroke-width:0.5;" width="163" x="206" y="388"/><rect fill="#F1F1F1" height="10" style="stroke:#181818;stroke-width:0.5;" width="15" x="349" y="393"/><rect fill="#F1F1F1" height="2" style="stroke:#181818;stroke-width:0.5;" width="4" x="347" y="395"/><rect fill="#F1F1F1" height="2" style="stroke:#181818;stroke-width:0.5;" width="4" x="347" y="399"/><text fill="#000000" font-family="sans-serif" font-size="14" lengthAdjust="spacing" textLength="123" x="221" y="421.5352">StateManagement</text></g><!--MD5=[c3bd79b6cca3d8fa787b3b807ac7237d]
entity Prover--><g id="elem_Prover"><rect fill="#F1F1F1" height="46.4883" rx="2.5" ry="2.5" style="stroke:#181818;stroke-width:0.5;" width="84" x="229.5" y="511"/><rect fill="#F1F1F1" height="10" style="stroke:#181818;stroke-width:0.5;" width="15" x="293.5" y="516"/><rect fill="#F1F1F1" height="2" style="stroke:#181818;stroke-width:0.5;" width="4" x="291.5" y="518"/><rect fill="#F1F1F1" height="2" style="stroke:#181818;stroke-width:0.5;" width="4" x="291.5" y="522"/><text fill="#000000" font-family="sans-serif" font-size="14" lengthAdjust="spacing" textLength="44" x="244.5" y="544.5352">Prover</text></g><!--MD5=[fffdccea5c50c3e012980ee04cb2b728]
entity Sync--><g id="elem_Sync"><rect fill="#F1F1F1" height="46.4883" rx="2.5" ry="2.5" style="stroke:#181818;stroke-width:0.5;" width="71" x="435" y="388"/><rect fill="#F1F1F1" height="10" style="stroke:#181818;stroke-width:0.5;" width="15" x="486" y="393"/><rect fill="#F1F1F1" height="2" style="stroke:#181818;stroke-width:0.5;" width="4" x="484" y="395"/><rect fill="#F1F1F1" height="2" style="stroke:#181818;stroke-width:0.5;" width="4" x="484" y="399"/><text fill="#000000" font-family="sans-serif" font-size="14" lengthAdjust="spacing" textLength="31" x="450" y="421.5352">Sync</text></g><!--MD5=[c015c816a8f5035b03b6743c6bdb84d6]
entity LaresRuntime--><g id="elem_LaresRuntime"><rect fill="#F1F1F1" height="46.4883" rx="2.5" ry="2.5" style="stroke:#181818;stroke-width:0.5;" width="133" x="7" y="388"/><rect fill="#F1F1F1" height="10" style="stroke:#181818;stroke-width:0.5;" width="15" x="120" y="393"/><rect fill="#F1F1F1" height="2" style="stroke:#181818;stroke-width:0.5;" width="4" x="118" y="395"/><rect fill="#F1F1F1" height="2" style="stroke:#181818;stroke-width:0.5;" width="4" x="118" y="399"/><text fill="#000000" font-family="sans-serif" font-size="14" lengthAdjust="spacing" textLength="93" x="22" y="421.5352">LaresRuntime</text></g><!--MD5=[f11474fe158fb3df2c4c57ee19950e1d]
link DappClientCode to ClientSDKAPI--><g id="link_DappClientCode_ClientSDKAPI"><path d="M378.5,53.12 C378.5,81.83 378.5,130.53 378.5,149.8 " fill="none" id="DappClientCode-ClientSDKAPI" style="stroke:#181818;stroke-width:1.0;"/><text fill="#000000" font-family="sans-serif" font-size="13" lengthAdjust="spacing" textLength="29" x="379.5" y="96.5684">uses</text></g><!--MD5=[005a3bc5f7dabf724eae43f5110af5df]
link ClientSDKAPI to ClientSDK--><g id="link_ClientSDKAPI_ClientSDK"><path d="M378.5,168.33 C378.5,187.65 378.5,236.01 378.5,264.68 " fill="none" id="ClientSDKAPI-ClientSDK" style="stroke:#181818;stroke-width:1.0;"/><text fill="#000000" font-family="sans-serif" font-size="13" lengthAdjust="spacing" textLength="101" x="379.5" y="231.5684">implemented by</text></g><!--MD5=[f2a9b93f410d9d9cb58a8998bc392a7f]
link LaresRuntime to StateManagement--><g id="link_LaresRuntime_StateManagement"><path d="M140.04,411 C159.27,411 180.54,411 200.8,411 " fill="none" id="LaresRuntime-to-StateManagement" style="stroke:#181818;stroke-width:1.0;stroke-dasharray:7.0,7.0;"/><polygon fill="#181818" points="205.93,411,196.93,407,200.93,411,196.93,415,205.93,411" style="stroke:#181818;stroke-width:1.0;"/><text fill="#000000" font-family="sans-serif" font-size="13" lengthAdjust="spacing" textLength="29" x="158.5" y="404.5684">uses</text></g><!--MD5=[9486fb465ad5dd5459bb82273958adad]
link LaresRuntime to Prover--><g id="link_LaresRuntime_Prover"><path d="M109.82,434.19 C144.01,455.09 195.14,486.34 230.72,508.08 " fill="none" id="LaresRuntime-to-Prover" style="stroke:#181818;stroke-width:1.0;stroke-dasharray:7.0,7.0;"/><polygon fill="#181818" points="235.41,510.95,229.8141,502.8453,231.1429,508.3439,225.6443,509.6727,235.41,510.95" style="stroke:#181818;stroke-width:1.0;"/><text fill="#000000" font-family="sans-serif" font-size="13" lengthAdjust="spacing" textLength="29" x="185.5" y="477.5684">uses</text></g><!--MD5=[6d59a9769ebc020eaea793ef5454a7f3]
reverse link StateManagement to Sync--><g id="link_StateManagement_Sync"><path d="M374.25,411 C395.69,411 417.48,411 434.89,411 " fill="none" id="StateManagement-backto-Sync" style="stroke:#181818;stroke-width:1.0;stroke-dasharray:7.0,7.0;"/><polygon fill="#181818" points="369.1,411,378.1,415,374.1,411,378.1,407,369.1,411" style="stroke:#181818;stroke-width:1.0;"/><text fill="#000000" font-family="sans-serif" font-size="13" lengthAdjust="spacing" textLength="29" x="387.5" y="404.5684">uses</text></g><!--MD5=[305c8562007c1007ba91e9a836a38e71]
link Sync to Prover--><g id="link_Sync_Prover"><path d="M434.92,433.63 C400.44,454.6 348.19,486.37 312.1,508.32 " fill="none" id="Sync-to-Prover" style="stroke:#181818;stroke-width:1.0;stroke-dasharray:7.0,7.0;"/><polygon fill="#181818" points="307.78,510.94,317.5476,509.6773,312.051,508.3403,313.388,502.8437,307.78,510.94" style="stroke:#181818;stroke-width:1.0;"/><text fill="#000000" font-family="sans-serif" font-size="13" lengthAdjust="spacing" textLength="29" x="384.5" y="477.5684">uses</text></g><!--MD5=[7b6bda7c7944e512e3863a8b25be4177]
link ClientSDK to dappConnectorClient--><g id="link_ClientSDK_dappConnectorClient"><path d="M425.79,311.08 C445.5,320.3 468.62,331.14 489.5,341 C522.52,356.59 559.72,374.3 588.17,387.87 " fill="none" id="ClientSDK-dappConnectorClient" style="stroke:#181818;stroke-width:1.0;"/><text fill="#000000" font-family="sans-serif" font-size="13" lengthAdjust="spacing" textLength="49" x="526.5" y="354.5684">embeds</text></g><!--MD5=[3b66aae34b989b9721abb82e3732d3a9]
link ClientSDK to LaresRuntime--><g id="link_ClientSDK_LaresRuntime"><path d="M324.67,310.35 C269.69,332.17 184.72,365.88 129.11,387.94 " fill="none" id="ClientSDK-LaresRuntime" style="stroke:#181818;stroke-width:1.0;"/><text fill="#000000" font-family="sans-serif" font-size="13" lengthAdjust="spacing" textLength="49" x="245.5" y="354.5684">embeds</text></g><!--MD5=[e0c9568199fc76473aa46fe540b72189]
link ClientSDK to Sync--><g id="link_ClientSDK_Sync"><path d="M395.37,311.19 C411.97,333.03 437.17,366.16 453.73,387.95 " fill="none" id="ClientSDK-Sync" style="stroke:#181818;stroke-width:1.0;"/><text fill="#000000" font-family="sans-serif" font-size="13" lengthAdjust="spacing" textLength="49" x="431.5" y="354.5684">embeds</text></g><!--MD5=[58492947a0ccbdd376a8940e787aec50]
link ClientSDK to StateManagement--><g id="link_ClientSDK_StateManagement"><path d="M356.26,311.22 C347.8,320.15 338.32,330.74 330.5,341 C319.12,355.93 307.96,373.97 299.86,387.86 " fill="none" id="ClientSDK-StateManagement" style="stroke:#181818;stroke-width:1.0;"/><text fill="#000000" font-family="sans-serif" font-size="13" lengthAdjust="spacing" textLength="49" x="331.5" y="354.5684">embeds</text></g><!--MD5=[298e01579a59d30ba83b1cfaf70e0bf7]
@startuml
component ClientSDK
interface ClientSDKAPI
component DappClientCode
component dappConnectorClient
component StateManagement
component Prover
component Sync
component LaresRuntime

DappClientCode - - ClientSDKAPI : "uses"
ClientSDKAPI - - ClientSDK : "implemented by"

LaresRuntime .> StateManagement : "uses"
LaresRuntime .> Prover : "uses"
StateManagement <. Sync : "uses"
Sync ..> Prover : "uses"

ClientSDK - - dappConnectorClient : "embeds"
ClientSDK - - LaresRuntime : "embeds"
ClientSDK - - Sync : "embeds"
ClientSDK - - StateManagement : "embeds"
@enduml

PlantUML version 1.2022.4(Sat Apr 09 15:29:17 CEST 2022)
(GPL source distribution)
Java Runtime: OpenJDK Runtime Environment
JVM: OpenJDK 64-Bit Server VM
Default Encoding: UTF-8
Language: en
Country: PL
--></g></svg>