<?xml version="1.0" encoding="UTF-8" standalone="no"?><svg xmlns="http://www.w3.org/2000/svg" xmlns:xlink="http://www.w3.org/1999/xlink" contentStyleType="text/css" height="501px" preserveAspectRatio="none" style="width:870px;height:501px;background:#FFFFFF;" version="1.1" viewBox="0 0 870 501" width="870px" zoomAndPan="magnify"><defs/><g><!--MD5=[c81b0129275e44a12ca0babb25b9a156]
cluster ClientSDK--><g id="cluster_ClientSDK"><rect height="236" rx="2.5" ry="2.5" style="stroke:#181818;stroke-width:1.0;fill:none;" width="789" x="75" y="259"/><rect height="10" style="stroke:#181818;stroke-width:1.0;fill:none;" width="15" x="844" y="264"/><rect height="2" style="stroke:#181818;stroke-width:1.0;fill:none;" width="4" x="842" y="266"/><rect height="2" style="stroke:#181818;stroke-width:1.0;fill:none;" width="4" x="842" y="270"/><text fill="#000000" font-family="sans-serif" font-size="14" font-weight="bold" lengthAdjust="spacing" textLength="72" x="433.5" y="285.5352">ClientSDK</text></g><!--MD5=[958d7579ba95f99bcc8ebf3c1bc4737a]
entity dappConnectorClient--><g id="elem_dappConnectorClient"><rect fill="#F1F1F1" height="46.4883" rx="2.5" ry="2.5" style="stroke:#181818;stroke-width:0.5;" width="187" x="118.5" y="302"/><rect fill="#F1F1F1" height="10" style="stroke:#181818;stroke-width:0.5;" width="15" x="285.5" y="307"/><rect fill="#F1F1F1" height="2" style="stroke:#181818;stroke-width:0.5;" width="4" x="283.5" y="309"/><rect fill="#F1F1F1" height="2" style="stroke:#181818;stroke-width:0.5;" width="4" x="283.5" y="313"/><text fill="#000000" font-family="sans-serif" font-size="14" lengthAdjust="spacing" textLength="147" x="133.5" y="335.5352">dappConnectorClient</text></g><!--MD5=[6fe7492ee8bed590e014e05743f65053]
entity StateManagement--><g id="elem_StateManagement"><rect fill="#F1F1F1" height="46.4883" rx="2.5" ry="2.5" style="stroke:#181818;stroke-width:0.5;" width="163" x="539.5" y="302"/><rect fill="#F1F1F1" height="10" style="stroke:#181818;stroke-width:0.5;" width="15" x="682.5" y="307"/><rect fill="#F1F1F1" height="2" style="stroke:#181818;stroke-width:0.5;" width="4" x="680.5" y="309"/><rect fill="#F1F1F1" height="2" style="stroke:#181818;stroke-width:0.5;" width="4" x="680.5" y="313"/><text fill="#000000" font-family="sans-serif" font-size="14" lengthAdjust="spacing" textLength="123" x="554.5" y="335.5352">StateManagement</text></g><!--MD5=[c3bd79b6cca3d8fa787b3b807ac7237d]
entity Prover--><g id="elem_Prover"><rect fill="#F1F1F1" height="46.4883" rx="2.5" ry="2.5" style="stroke:#181818;stroke-width:0.5;" width="84" x="481" y="425"/><rect fill="#F1F1F1" height="10" style="stroke:#181818;stroke-width:0.5;" width="15" x="545" y="430"/><rect fill="#F1F1F1" height="2" style="stroke:#181818;stroke-width:0.5;" width="4" x="543" y="432"/><rect fill="#F1F1F1" height="2" style="stroke:#181818;stroke-width:0.5;" width="4" x="543" y="436"/><text fill="#000000" font-family="sans-serif" font-size="14" lengthAdjust="spacing" textLength="44" x="496" y="458.5352">Prover</text></g><!--MD5=[fffdccea5c50c3e012980ee04cb2b728]
entity Sync--><g id="elem_Sync"><rect fill="#F1F1F1" height="46.4883" rx="2.5" ry="2.5" style="stroke:#181818;stroke-width:0.5;" width="71" x="768.5" y="302"/><rect fill="#F1F1F1" height="10" style="stroke:#181818;stroke-width:0.5;" width="15" x="819.5" y="307"/><rect fill="#F1F1F1" height="2" style="stroke:#181818;stroke-width:0.5;" width="4" x="817.5" y="309"/><rect fill="#F1F1F1" height="2" style="stroke:#181818;stroke-width:0.5;" width="4" x="817.5" y="313"/><text fill="#000000" font-family="sans-serif" font-size="14" lengthAdjust="spacing" textLength="31" x="783.5" y="335.5352">Sync</text></g><!--MD5=[c015c816a8f5035b03b6743c6bdb84d6]
entity LaresRuntime--><g id="elem_LaresRuntime"><rect fill="#F1F1F1" height="46.4883" rx="2.5" ry="2.5" style="stroke:#181818;stroke-width:0.5;" width="133" x="340.5" y="302"/><rect fill="#F1F1F1" height="10" style="stroke:#181818;stroke-width:0.5;" width="15" x="453.5" y="307"/><rect fill="#F1F1F1" height="2" style="stroke:#181818;stroke-width:0.5;" width="4" x="451.5" y="309"/><rect fill="#F1F1F1" height="2" style="stroke:#181818;stroke-width:0.5;" width="4" x="451.5" y="313"/><text fill="#000000" font-family="sans-serif" font-size="14" lengthAdjust="spacing" textLength="93" x="355.5" y="335.5352">LaresRuntime</text></g><!--MD5=[3387aa4e67791134b578a5b7cad6270b]
entity ClientSDKAPI--><g id="elem_ClientSDKAPI"><ellipse cx="83" cy="159" fill="#F1F1F1" rx="8" ry="8" style="stroke:#181818;stroke-width:0.5;"/><text fill="#000000" font-family="sans-serif" font-size="14" lengthAdjust="spacing" textLength="89" x="38.5" y="189.5352">ClientSDKAPI</text></g><!--MD5=[5dfe8a42674b874fbbbf7bb71acd25e9]
entity DappClientCode--><g id="elem_DappClientCode"><rect fill="#F1F1F1" height="46.4883" rx="2.5" ry="2.5" style="stroke:#181818;stroke-width:0.5;" width="152" x="7" y="7"/><rect fill="#F1F1F1" height="10" style="stroke:#181818;stroke-width:0.5;" width="15" x="139" y="12"/><rect fill="#F1F1F1" height="2" style="stroke:#181818;stroke-width:0.5;" width="4" x="137" y="14"/><rect fill="#F1F1F1" height="2" style="stroke:#181818;stroke-width:0.5;" width="4" x="137" y="18"/><text fill="#000000" font-family="sans-serif" font-size="14" lengthAdjust="spacing" textLength="112" x="22" y="40.5352">DappClientCode</text></g><!--MD5=[f11474fe158fb3df2c4c57ee19950e1d]
link DappClientCode to ClientSDKAPI--><g id="link_DappClientCode_ClientSDKAPI"><path d="M83,53.12 C83,81.83 83,130.53 83,149.8 " fill="none" id="DappClientCode-ClientSDKAPI" style="stroke:#181818;stroke-width:1.0;"/><text fill="#000000" font-family="sans-serif" font-size="13" lengthAdjust="spacing" textLength="29" x="84" y="96.5684">uses</text></g><!--MD5=[005a3bc5f7dabf724eae43f5110af5df]
link ClientSDKAPI to ClientSDK--><g id="link_ClientSDKAPI_ClientSDK"><path d="M83,168.36 C83,184.81 83,222.77 83,257.0813 C83,257.6174 83,258.1526 83,258.6868 " fill="none" id="ClientSDKAPI-ClientSDK" style="stroke:#181818;stroke-width:1.0;"/><text fill="#000000" font-family="sans-serif" font-size="13" lengthAdjust="spacing" textLength="101" x="84" y="231.5684">implemented by</text></g><!--MD5=[f2a9b93f410d9d9cb58a8998bc392a7f]
link LaresRuntime to StateManagement--><g id="link_LaresRuntime_StateManagement"><path d="M473.54,325 C492.77,325 514.04,325 534.3,325 " fill="none" id="LaresRuntime-to-StateManagement" style="stroke:#181818;stroke-width:1.0;stroke-dasharray:7.0,7.0;"/><polygon fill="#181818" points="539.43,325,530.43,321,534.43,325,530.43,329,539.43,325" style="stroke:#181818;stroke-width:1.0;"/><text fill="#000000" font-family="sans-serif" font-size="13" lengthAdjust="spacing" textLength="29" x="492" y="318.5684">uses</text></g><!--MD5=[9486fb465ad5dd5459bb82273958adad]
link LaresRuntime to Prover--><g id="link_LaresRuntime_Prover"><path d="M428.28,348.19 C448.06,368.83 477.53,399.57 498.34,421.28 " fill="none" id="LaresRuntime-to-Prover" style="stroke:#181818;stroke-width:1.0;stroke-dasharray:7.0,7.0;"/><polygon fill="#181818" points="501.86,424.95,498.5112,415.6879,498.3967,421.3436,492.741,421.2291,501.86,424.95" style="stroke:#181818;stroke-width:1.0;"/><text fill="#000000" font-family="sans-serif" font-size="13" lengthAdjust="spacing" textLength="29" x="472" y="391.5684">uses</text></g><!--MD5=[6d59a9769ebc020eaea793ef5454a7f3]
reverse link StateManagement to Sync--><g id="link_StateManagement_Sync"><path d="M707.75,325 C729.19,325 750.98,325 768.39,325 " fill="none" id="StateManagement-backto-Sync" style="stroke:#181818;stroke-width:1.0;stroke-dasharray:7.0,7.0;"/><polygon fill="#181818" points="702.6,325,711.6,329,707.6,325,711.6,321,702.6,325" style="stroke:#181818;stroke-width:1.0;"/><text fill="#000000" font-family="sans-serif" font-size="13" lengthAdjust="spacing" textLength="29" x="721" y="318.5684">uses</text></g><!--MD5=[305c8562007c1007ba91e9a836a38e71]
link Sync to Prover--><g id="link_Sync_Prover"><path d="M768.41,341.32 C717.99,363.04 625.7,402.78 569.79,426.85 " fill="none" id="Sync-to-Prover" style="stroke:#181818;stroke-width:1.0;stroke-dasharray:7.0,7.0;"/><polygon fill="#181818" points="565.16,428.85,575.0084,428.9443,569.7483,426.8632,571.8295,421.6031,565.16,428.85" style="stroke:#181818;stroke-width:1.0;"/><text fill="#000000" font-family="sans-serif" font-size="13" lengthAdjust="spacing" textLength="29" x="681" y="391.5684">uses</text></g><!--MD5=[7ba4687127a25ca2d3abedcac7039c9c]
@startuml
component ClientSDK {
  component dappConnectorClient
  component StateManagement
  component Prover
  component Sync
  component LaresRuntime
}
interface ClientSDKAPI
component DappClientCode


DappClientCode - - ClientSDKAPI : "uses"
ClientSDKAPI - - ClientSDK : "implemented by"

LaresRuntime .> StateManagement : "uses"
LaresRuntime .> Prover : "uses"
StateManagement <. Sync : "uses"
Sync ..> Prover : "uses"
@enduml

PlantUML version 1.2022.4(Sat Apr 09 15:29:17 CEST 2022)
(GPL source distribution)
Java Runtime: OpenJDK Runtime Environment
JVM: OpenJDK 64-Bit Server VM
Default Encoding: UTF-8
Language: en
Country: PL
--></g></svg>