<?xml version="1.0" encoding="UTF-8" standalone="no"?><svg xmlns="http://www.w3.org/2000/svg" xmlns:xlink="http://www.w3.org/1999/xlink" contentStyleType="text/css" height="501px" preserveAspectRatio="none" style="width:880px;height:501px;background:#FFFFFF;" version="1.1" viewBox="0 0 880 501" width="880px" zoomAndPan="magnify"><defs/><g><!--MD5=[c81b0129275e44a12ca0babb25b9a156]
cluster ClientSDK--><g id="cluster_ClientSDK"><rect height="236" rx="2.5" ry="2.5" style="stroke:#181818;stroke-width:1.0;fill:none;" width="799" x="75.5" y="259"/><rect height="10" style="stroke:#181818;stroke-width:1.0;fill:none;" width="15" x="854.5" y="264"/><rect height="2" style="stroke:#181818;stroke-width:1.0;fill:none;" width="4" x="852.5" y="266"/><rect height="2" style="stroke:#181818;stroke-width:1.0;fill:none;" width="4" x="852.5" y="270"/><text fill="#000000" font-family="sans-serif" font-size="14" font-weight="bold" lengthAdjust="spacing" textLength="71.9375" x="439.0313" y="284.9951">ClientSDK</text></g><!--MD5=[958d7579ba95f99bcc8ebf3c1bc4737a]
entity dappConnectorClient--><g id="elem_dappConnectorClient"><rect fill="#F1F1F1" height="46.2969" rx="2.5" ry="2.5" style="stroke:#181818;stroke-width:0.5;" width="187" x="119" y="302"/><rect fill="#F1F1F1" height="10" style="stroke:#181818;stroke-width:0.5;" width="15" x="286" y="307"/><rect fill="#F1F1F1" height="2" style="stroke:#181818;stroke-width:0.5;" width="4" x="284" y="309"/><rect fill="#F1F1F1" height="2" style="stroke:#181818;stroke-width:0.5;" width="4" x="284" y="313"/><text fill="#000000" font-family="sans-serif" font-size="14" lengthAdjust="spacing" textLength="147" x="134" y="334.9951">dappConnectorClient</text></g><!--MD5=[6fe7492ee8bed590e014e05743f65053]
entity StateManagement--><g id="elem_StateManagement"><rect fill="#F1F1F1" height="46.2969" rx="2.5" ry="2.5" style="stroke:#181818;stroke-width:0.5;" width="167" x="543" y="302"/><rect fill="#F1F1F1" height="10" style="stroke:#181818;stroke-width:0.5;" width="15" x="690" y="307"/><rect fill="#F1F1F1" height="2" style="stroke:#181818;stroke-width:0.5;" width="4" x="688" y="309"/><rect fill="#F1F1F1" height="2" style="stroke:#181818;stroke-width:0.5;" width="4" x="688" y="313"/><text fill="#000000" font-family="sans-serif" font-size="14" lengthAdjust="spacing" textLength="127" x="558" y="334.9951">StateManagement</text></g><!--MD5=[c3bd79b6cca3d8fa787b3b807ac7237d]
entity Prover--><g id="elem_Prover"><rect fill="#F1F1F1" height="46.2969" rx="2.5" ry="2.5" style="stroke:#181818;stroke-width:0.5;" width="84" x="485.5" y="425"/><rect fill="#F1F1F1" height="10" style="stroke:#181818;stroke-width:0.5;" width="15" x="549.5" y="430"/><rect fill="#F1F1F1" height="2" style="stroke:#181818;stroke-width:0.5;" width="4" x="547.5" y="432"/><rect fill="#F1F1F1" height="2" style="stroke:#181818;stroke-width:0.5;" width="4" x="547.5" y="436"/><text fill="#000000" font-family="sans-serif" font-size="14" lengthAdjust="spacing" textLength="44" x="500.5" y="457.9951">Prover</text></g><!--MD5=[fffdccea5c50c3e012980ee04cb2b728]
entity Sync--><g id="elem_Sync"><rect fill="#F1F1F1" height="46.2969" rx="2.5" ry="2.5" style="stroke:#181818;stroke-width:0.5;" width="73" x="777" y="302"/><rect fill="#F1F1F1" height="10" style="stroke:#181818;stroke-width:0.5;" width="15" x="830" y="307"/><rect fill="#F1F1F1" height="2" style="stroke:#181818;stroke-width:0.5;" width="4" x="828" y="309"/><rect fill="#F1F1F1" height="2" style="stroke:#181818;stroke-width:0.5;" width="4" x="828" y="313"/><text fill="#000000" font-family="sans-serif" font-size="14" lengthAdjust="spacing" textLength="33" x="792" y="334.9951">Sync</text></g><!--MD5=[c015c816a8f5035b03b6743c6bdb84d6]
entity LaresRuntime--><g id="elem_LaresRuntime"><rect fill="#F1F1F1" height="46.2969" rx="2.5" ry="2.5" style="stroke:#181818;stroke-width:0.5;" width="135" x="341" y="302"/><rect fill="#F1F1F1" height="10" style="stroke:#181818;stroke-width:0.5;" width="15" x="456" y="307"/><rect fill="#F1F1F1" height="2" style="stroke:#181818;stroke-width:0.5;" width="4" x="454" y="309"/><rect fill="#F1F1F1" height="2" style="stroke:#181818;stroke-width:0.5;" width="4" x="454" y="313"/><text fill="#000000" font-family="sans-serif" font-size="14" lengthAdjust="spacing" textLength="95" x="356" y="334.9951">LaresRuntime</text></g><!--MD5=[3387aa4e67791134b578a5b7cad6270b]
entity ClientSDKAPI--><g id="elem_ClientSDKAPI"><ellipse cx="83.5" cy="159" fill="#F1F1F1" rx="8" ry="8" style="stroke:#181818;stroke-width:0.5;"/><text fill="#000000" font-family="sans-serif" font-size="14" lengthAdjust="spacing" textLength="89" x="39" y="188.9951">ClientSDKAPI</text></g><!--MD5=[5dfe8a42674b874fbbbf7bb71acd25e9]
entity DappClientCode--><g id="elem_DappClientCode"><rect fill="#F1F1F1" height="46.2969" rx="2.5" ry="2.5" style="stroke:#181818;stroke-width:0.5;" width="153" x="7" y="7"/><rect fill="#F1F1F1" height="10" style="stroke:#181818;stroke-width:0.5;" width="15" x="140" y="12"/><rect fill="#F1F1F1" height="2" style="stroke:#181818;stroke-width:0.5;" width="4" x="138" y="14"/><rect fill="#F1F1F1" height="2" style="stroke:#181818;stroke-width:0.5;" width="4" x="138" y="18"/><text fill="#000000" font-family="sans-serif" font-size="14" lengthAdjust="spacing" textLength="113" x="22" y="39.9951">DappClientCode</text></g><!--MD5=[f11474fe158fb3df2c4c57ee19950e1d]
link DappClientCode to ClientSDKAPI--><g id="link_DappClientCode_ClientSDKAPI"><path d="M83.5,53.12 C83.5,81.83 83.5,130.53 83.5,149.8 " fill="none" id="DappClientCode-ClientSDKAPI" style="stroke:#181818;stroke-width:1.0;"/><text fill="#000000" font-family="sans-serif" font-size="13" lengthAdjust="spacing" textLength="30" x="84.5" y="96.0669">uses</text></g><!--MD5=[005a3bc5f7dabf724eae43f5110af5df]
link ClientSDKAPI to ClientSDK--><g id="link_ClientSDKAPI_ClientSDK"><path d="M83.5,168.36 C83.5,184.81 83.5,222.77 83.5,257.0813 C83.5,257.6174 83.5,258.1526 83.5,258.6868 " fill="none" id="ClientSDKAPI-ClientSDK" style="stroke:#181818;stroke-width:1.0;"/><text fill="#000000" font-family="sans-serif" font-size="13" lengthAdjust="spacing" textLength="104" x="84.5" y="231.0669">implemented by</text></g><!--MD5=[f2a9b93f410d9d9cb58a8998bc392a7f]
link LaresRuntime to StateManagement--><g id="link_LaresRuntime_StateManagement"><path d="M476.28,325 C495.64,325 517.03,325 537.45,325 " fill="none" id="LaresRuntime-to-StateManagement" style="stroke:#181818;stroke-width:1.0;stroke-dasharray:7.0,7.0;"/><polygon fill="#181818" points="542.62,325,533.62,321,537.62,325,533.62,329,542.62,325" style="stroke:#181818;stroke-width:1.0;"/><text fill="#000000" font-family="sans-serif" font-size="13" lengthAdjust="spacing" textLength="30" x="494.5" y="318.0669">uses</text></g><!--MD5=[9486fb465ad5dd5459bb82273958adad]
link LaresRuntime to Prover--><g id="link_LaresRuntime_Prover"><path d="M430.33,348.19 C450.62,368.83 480.86,399.57 502.2,421.28 " fill="none" id="LaresRuntime-to-Prover" style="stroke:#181818;stroke-width:1.0;stroke-dasharray:7.0,7.0;"/><polygon fill="#181818" points="505.81,424.95,502.349,415.7293,502.3032,421.386,496.6465,421.3402,505.81,424.95" style="stroke:#181818;stroke-width:1.0;"/><text fill="#000000" font-family="sans-serif" font-size="13" lengthAdjust="spacing" textLength="30" x="475.5" y="391.0669">uses</text></g><!--MD5=[6d59a9769ebc020eaea793ef5454a7f3]
reverse link StateManagement to Sync--><g id="link_StateManagement_Sync"><path d="M715.36,325 C737.05,325 759.08,325 776.75,325 " fill="none" id="StateManagement-backto-Sync" style="stroke:#181818;stroke-width:1.0;stroke-dasharray:7.0,7.0;"/><polygon fill="#181818" points="710.15,325,719.15,329,715.15,325,719.15,321,710.15,325" style="stroke:#181818;stroke-width:1.0;"/><text fill="#000000" font-family="sans-serif" font-size="13" lengthAdjust="spacing" textLength="30" x="728.5" y="318.0669">uses</text></g><!--MD5=[305c8562007c1007ba91e9a836a38e71]
link Sync to Prover--><g id="link_Sync_Prover"><path d="M776.99,341.45 C725.43,363.26 631.26,403.1 574.53,427.1 " fill="none" id="Sync-to-Prover" style="stroke:#181818;stroke-width:1.0;stroke-dasharray:7.0,7.0;"/><polygon fill="#181818" points="569.83,429.09,579.6772,429.2731,574.436,427.1446,576.5645,421.9035,569.83,429.09" style="stroke:#181818;stroke-width:1.0;"/><text fill="#000000" font-family="sans-serif" font-size="13" lengthAdjust="spacing" textLength="30" x="688.5" y="391.0669">uses</text></g><!--MD5=[9633c75b541739c7f15043589de7f243]
@startuml
component ClientSDK {
  component dappConnectorClient
  component StateManagement
  component Prover
  component Sync
  component LaresRuntime
}
interface ClientSDKAPI
component DappClientCode


DappClientCode - - ClientSDKAPI : "uses"
ClientSDKAPI - - ClientSDK : "implemented by"

LaresRuntime .> StateManagement : "uses"
LaresRuntime .> Prover : "uses"
StateManagement <. Sync : "uses"
Sync ..> Prover : "uses"
@enduml

PlantUML version 1.2022.3(Tue Mar 29 16:10:57 UTC 2022)
(GPL source distribution)
Java Runtime: OpenJDK Runtime Environment
JVM: OpenJDK 64-Bit Server VM
Default Encoding: ANSI_X3.4-1968
Language: en
Country: US
--></g></svg>