<?xml version="1.0" encoding="UTF-8" standalone="no"?><svg xmlns="http://www.w3.org/2000/svg" xmlns:xlink="http://www.w3.org/1999/xlink" contentStyleType="text/css" height="627px" preserveAspectRatio="none" style="width:721px;height:627px;background:#FFFFFF;" version="1.1" viewBox="0 0 721 627" width="721px" zoomAndPan="magnify"><defs/><g><!--MD5=[3e234ceb271ec3f4aa4aecdce1508149]
class ClientSDK--><g id="elem_ClientSDK"><rect codeLine="1" fill="#F1F1F1" height="48" id="ClientSDK" rx="2.5" ry="2.5" style="stroke:#181818;stroke-width:0.5;" width="99" x="163.5" y="115"/><ellipse cx="178.5" cy="131" fill="#B4A7E5" rx="11" ry="11" style="stroke:#181818;stroke-width:1.0;"/><path d="M174.4277,126.7651 L174.4277,124.6069 L181.8071,124.6069 L181.8071,126.7651 L179.3418,126.7651 L179.3418,134.8418 L181.8071,134.8418 L181.8071,137 L174.4277,137 L174.4277,134.8418 L176.8931,134.8418 L176.8931,126.7651 Z " fill="#000000"/><text fill="#000000" font-family="sans-serif" font-size="14" font-style="italic" lengthAdjust="spacing" textLength="67" x="192.5" y="136.291">ClientSDK</text><line style="stroke:#181818;stroke-width:0.5;" x1="164.5" x2="261.5" y1="147" y2="147"/><line style="stroke:#181818;stroke-width:0.5;" x1="164.5" x2="261.5" y1="155" y2="155"/></g><!--MD5=[ef041283d420ff3f3754126a3e1603a3]
class SDKInstance--><g id="elem_SDKInstance"><rect codeLine="2" fill="#F1F1F1" height="48" id="SDKInstance" rx="2.5" ry="2.5" style="stroke:#181818;stroke-width:0.5;" width="116" x="322" y="7"/><ellipse cx="337" cy="23" fill="#ADD1B2" rx="11" ry="11" style="stroke:#181818;stroke-width:1.0;"/><path d="M341.1143,29 L333.3945,29 L333.3945,16.6069 L341.1143,16.6069 L341.1143,18.7651 L335.8433,18.7651 L335.8433,21.438 L340.6162,21.438 L340.6162,23.5962 L335.8433,23.5962 L335.8433,26.8418 L341.1143,26.8418 Z " fill="#000000"/><text fill="#000000" font-family="sans-serif" font-size="14" lengthAdjust="spacing" textLength="84" x="351" y="28.291">SDKInstance</text><line style="stroke:#181818;stroke-width:0.5;" x1="323" x2="437" y1="39" y2="39"/><line style="stroke:#181818;stroke-width:0.5;" x1="323" x2="437" y1="47" y2="47"/></g><!--MD5=[461026a38b737c4ce5e8254b9a577e21]
class Contract--><g id="elem_Contract"><rect codeLine="3" fill="#F1F1F1" height="73.1094" id="Contract" rx="2.5" ry="2.5" style="stroke:#181818;stroke-width:0.5;" width="441" x="95.5" y="331"/><ellipse cx="278.25" cy="351.3105" fill="#ADD1B2" rx="11" ry="11" style="stroke:#181818;stroke-width:1.0;"/><path d="M282.3643,357.3105 L274.6445,357.3105 L274.6445,344.9175 L282.3643,344.9175 L282.3643,347.0757 L277.0933,347.0757 L277.0933,349.7485 L281.8662,349.7485 L281.8662,351.9067 L277.0933,351.9067 L277.0933,355.1523 L282.3643,355.1523 Z " fill="#000000"/><text fill="#000000" font-family="sans-serif" font-size="12" font-style="italic" lengthAdjust="spacing" textLength="71" x="296.75" y="347.6016">«Aggregate»</text><text fill="#000000" font-family="sans-serif" font-size="14" lengthAdjust="spacing" textLength="59" x="302.75" y="363.668">Contract</text><line style="stroke:#181818;stroke-width:0.5;" x1="96.5" x2="535.5" y1="371.6211" y2="371.6211"/><text fill="#000000" font-family="sans-serif" font-size="14" lengthAdjust="spacing" textLength="429" x="101.5" y="389.1563">transitionFunctions: Map&lt;FunctionName, TransitionFunction&gt;</text><line style="stroke:#181818;stroke-width:0.5;" x1="96.5" x2="535.5" y1="396.1094" y2="396.1094"/></g><!--MD5=[4f295ab36111db628a1a51e5cd40aaab]
class WalletConnection--><g id="elem_WalletConnection"><rect codeLine="6" fill="#F1F1F1" height="48" id="WalletConnection" rx="2.5" ry="2.5" style="stroke:#181818;stroke-width:0.5;" width="152" x="369" y="115"/><ellipse cx="384" cy="131" fill="#ADD1B2" rx="11" ry="11" style="stroke:#181818;stroke-width:1.0;"/><path d="M388.1143,137 L380.3945,137 L380.3945,124.6069 L388.1143,124.6069 L388.1143,126.7651 L382.8433,126.7651 L382.8433,129.438 L387.6162,129.438 L387.6162,131.5962 L382.8433,131.5962 L382.8433,134.8418 L388.1143,134.8418 Z " fill="#000000"/><text fill="#000000" font-family="sans-serif" font-size="14" lengthAdjust="spacing" textLength="120" x="398" y="136.291">WalletConnection</text><line style="stroke:#181818;stroke-width:0.5;" x1="370" x2="520" y1="147" y2="147"/><line style="stroke:#181818;stroke-width:0.5;" x1="370" x2="520" y1="155" y2="155"/></g><!--MD5=[55535a83c097026635c1692abc1750d2]
class SyncConnection--><g id="elem_SyncConnection"><rect codeLine="7" fill="#F1F1F1" height="48" id="SyncConnection" rx="2.5" ry="2.5" style="stroke:#181818;stroke-width:0.5;" width="142" x="556" y="115"/><ellipse cx="571" cy="131" fill="#ADD1B2" rx="11" ry="11" style="stroke:#181818;stroke-width:1.0;"/><path d="M575.1143,137 L567.3945,137 L567.3945,124.6069 L575.1143,124.6069 L575.1143,126.7651 L569.8433,126.7651 L569.8433,129.438 L574.6162,129.438 L574.6162,131.5962 L569.8433,131.5962 L569.8433,134.8418 L575.1143,134.8418 Z " fill="#000000"/><text fill="#000000" font-family="sans-serif" font-size="14" lengthAdjust="spacing" textLength="110" x="585" y="136.291">SyncConnection</text><line style="stroke:#181818;stroke-width:0.5;" x1="557" x2="697" y1="147" y2="147"/><line style="stroke:#181818;stroke-width:0.5;" x1="557" x2="697" y1="155" y2="155"/></g><!--MD5=[0164bdab82738efd25435ed1b870118f]
class RelevantTransaction--><g id="elem_RelevantTransaction"><rect codeLine="8" fill="#F1F1F1" height="48" id="RelevantTransaction" rx="2.5" ry="2.5" style="stroke:#181818;stroke-width:0.5;" width="171" x="541.5" y="223"/><ellipse cx="556.5" cy="239" fill="#ADD1B2" rx="11" ry="11" style="stroke:#181818;stroke-width:1.0;"/><path d="M560.6143,245 L552.8945,245 L552.8945,232.6069 L560.6143,232.6069 L560.6143,234.7651 L555.3433,234.7651 L555.3433,237.438 L560.1162,237.438 L560.1162,239.5962 L555.3433,239.5962 L555.3433,242.8418 L560.6143,242.8418 Z " fill="#000000"/><text fill="#000000" font-family="sans-serif" font-size="14" lengthAdjust="spacing" textLength="139" x="570.5" y="244.291">RelevantTransaction</text><line style="stroke:#181818;stroke-width:0.5;" x1="542.5" x2="711.5" y1="255" y2="255"/><line style="stroke:#181818;stroke-width:0.5;" x1="542.5" x2="711.5" y1="263" y2="263"/></g><!--MD5=[1b86ea2a56b0b030c27c716cb76bdc9e]
class PublicTranscript--><g id="elem_PublicTranscript"><rect codeLine="9" fill="#F1F1F1" height="48" id="PublicTranscript" rx="2.5" ry="2.5" style="stroke:#181818;stroke-width:0.5;" width="143" x="571.5" y="343.5"/><ellipse cx="586.5" cy="359.5" fill="#ADD1B2" rx="11" ry="11" style="stroke:#181818;stroke-width:1.0;"/><path d="M590.6143,365.5 L582.8945,365.5 L582.8945,353.1069 L590.6143,353.1069 L590.6143,355.2651 L585.3433,355.2651 L585.3433,357.938 L590.1162,357.938 L590.1162,360.0962 L585.3433,360.0962 L585.3433,363.3418 L590.6143,363.3418 Z " fill="#000000"/><text fill="#000000" font-family="sans-serif" font-size="14" lengthAdjust="spacing" textLength="111" x="600.5" y="364.791">PublicTranscript</text><line style="stroke:#181818;stroke-width:0.5;" x1="572.5" x2="713.5" y1="375.5" y2="375.5"/><line style="stroke:#181818;stroke-width:0.5;" x1="572.5" x2="713.5" y1="383.5" y2="383.5"/></g><!--MD5=[b766570067d44bcda06bf1d4cc4f477f]
class PrivateCallback--><g id="elem_PrivateCallback"><rect codeLine="10" fill="#F1F1F1" height="48" id="PrivateCallback" rx="2.5" ry="2.5" style="stroke:#181818;stroke-width:0.5;" width="136" x="7" y="464"/><ellipse cx="22" cy="480" fill="#ADD1B2" rx="11" ry="11" style="stroke:#181818;stroke-width:1.0;"/><path d="M26.1143,486 L18.3945,486 L18.3945,473.6069 L26.1143,473.6069 L26.1143,475.7651 L20.8433,475.7651 L20.8433,478.438 L25.6162,478.438 L25.6162,480.5962 L20.8433,480.5962 L20.8433,483.8418 L26.1143,483.8418 Z " fill="#000000"/><text fill="#000000" font-family="sans-serif" font-size="14" lengthAdjust="spacing" textLength="104" x="36" y="485.291">PrivateCallback</text><line style="stroke:#181818;stroke-width:0.5;" x1="8" x2="142" y1="496" y2="496"/><line style="stroke:#181818;stroke-width:0.5;" x1="8" x2="142" y1="504" y2="504"/></g><!--MD5=[d4fe85051e8edea9bfe792ad31951013]
class PrivateOracle--><g id="elem_PrivateOracle"><rect codeLine="11" fill="#F1F1F1" height="48" id="PrivateOracle" rx="2.5" ry="2.5" style="stroke:#181818;stroke-width:0.5;" width="122" x="178" y="464"/><ellipse cx="193" cy="480" fill="#ADD1B2" rx="11" ry="11" style="stroke:#181818;stroke-width:1.0;"/><path d="M197.1143,486 L189.3945,486 L189.3945,473.6069 L197.1143,473.6069 L197.1143,475.7651 L191.8433,475.7651 L191.8433,478.438 L196.6162,478.438 L196.6162,480.5962 L191.8433,480.5962 L191.8433,483.8418 L197.1143,483.8418 Z " fill="#000000"/><text fill="#000000" font-family="sans-serif" font-size="14" lengthAdjust="spacing" textLength="90" x="207" y="485.291">PrivateOracle</text><line style="stroke:#181818;stroke-width:0.5;" x1="179" x2="299" y1="496" y2="496"/><line style="stroke:#181818;stroke-width:0.5;" x1="179" x2="299" y1="504" y2="504"/></g><!--MD5=[c56812e88b7493f96907eaff85a687ba]
class PrivateState--><g id="elem_PrivateState"><rect codeLine="12" fill="#F1F1F1" height="48" id="PrivateState" rx="2.5" ry="2.5" style="stroke:#181818;stroke-width:0.5;" width="112" x="183" y="572"/><ellipse cx="198" cy="588" fill="#ADD1B2" rx="11" ry="11" style="stroke:#181818;stroke-width:1.0;"/><path d="M202.1143,594 L194.3945,594 L194.3945,581.6069 L202.1143,581.6069 L202.1143,583.7651 L196.8433,583.7651 L196.8433,586.438 L201.6162,586.438 L201.6162,588.5962 L196.8433,588.5962 L196.8433,591.8418 L202.1143,591.8418 Z " fill="#000000"/><text fill="#000000" font-family="sans-serif" font-size="14" lengthAdjust="spacing" textLength="80" x="212" y="593.291">PrivateState</text><line style="stroke:#181818;stroke-width:0.5;" x1="184" x2="294" y1="604" y2="604"/><line style="stroke:#181818;stroke-width:0.5;" x1="184" x2="294" y1="612" y2="612"/></g><!--MD5=[86b1bbd3ddf7b51c48574193985a1ace]
class PublicOracle--><g id="elem_PublicOracle"><rect codeLine="13" fill="#F1F1F1" height="48" id="PublicOracle" rx="2.5" ry="2.5" style="stroke:#181818;stroke-width:0.5;" width="117" x="335.5" y="464"/><ellipse cx="350.5" cy="480" fill="#ADD1B2" rx="11" ry="11" style="stroke:#181818;stroke-width:1.0;"/><path d="M354.6143,486 L346.8945,486 L346.8945,473.6069 L354.6143,473.6069 L354.6143,475.7651 L349.3433,475.7651 L349.3433,478.438 L354.1162,478.438 L354.1162,480.5962 L349.3433,480.5962 L349.3433,483.8418 L354.6143,483.8418 Z " fill="#000000"/><text fill="#000000" font-family="sans-serif" font-size="14" lengthAdjust="spacing" textLength="85" x="364.5" y="485.291">PublicOracle</text><line style="stroke:#181818;stroke-width:0.5;" x1="336.5" x2="451.5" y1="496" y2="496"/><line style="stroke:#181818;stroke-width:0.5;" x1="336.5" x2="451.5" y1="504" y2="504"/></g><!--MD5=[433e6cdf0cad7be172750db73bb0d617]
class PublicState--><g id="elem_PublicState"><rect codeLine="14" fill="#F1F1F1" height="48" id="PublicState" rx="2.5" ry="2.5" style="stroke:#181818;stroke-width:0.5;" width="107" x="340.5" y="572"/><ellipse cx="355.5" cy="588" fill="#ADD1B2" rx="11" ry="11" style="stroke:#181818;stroke-width:1.0;"/><path d="M359.6143,594 L351.8945,594 L351.8945,581.6069 L359.6143,581.6069 L359.6143,583.7651 L354.3433,583.7651 L354.3433,586.438 L359.1162,586.438 L359.1162,588.5962 L354.3433,588.5962 L354.3433,591.8418 L359.6143,591.8418 Z " fill="#000000"/><text fill="#000000" font-family="sans-serif" font-size="14" lengthAdjust="spacing" textLength="75" x="369.5" y="593.291">PublicState</text><line style="stroke:#181818;stroke-width:0.5;" x1="341.5" x2="446.5" y1="604" y2="604"/><line style="stroke:#181818;stroke-width:0.5;" x1="341.5" x2="446.5" y1="612" y2="612"/></g><!--MD5=[51cc31f05357ddc21bf329df57352a15]
class PendingPrivateTranscript--><g id="elem_PendingPrivateTranscript"><rect codeLine="15" fill="#F1F1F1" height="48" id="PendingPrivateTranscript" rx="2.5" ry="2.5" style="stroke:#181818;stroke-width:0.5;" width="204" x="488" y="464"/><ellipse cx="503" cy="480" fill="#ADD1B2" rx="11" ry="11" style="stroke:#181818;stroke-width:1.0;"/><path d="M507.1143,486 L499.3945,486 L499.3945,473.6069 L507.1143,473.6069 L507.1143,475.7651 L501.8433,475.7651 L501.8433,478.438 L506.6162,478.438 L506.6162,480.5962 L501.8433,480.5962 L501.8433,483.8418 L507.1143,483.8418 Z " fill="#000000"/><text fill="#000000" font-family="sans-serif" font-size="14" lengthAdjust="spacing" textLength="172" x="517" y="485.291">PendingPrivateTranscript</text><line style="stroke:#181818;stroke-width:0.5;" x1="489" x2="691" y1="496" y2="496"/><line style="stroke:#181818;stroke-width:0.5;" x1="489" x2="691" y1="504" y2="504"/></g><!--MD5=[53fe4952945ca2b5dba1df5193088ba7]
reverse link SDKInstance to ClientSDK--><g id="link_SDKInstance_ClientSDK"><path codeLine="17" d="M326.73,65.81 C301.52,81.81 272.07,100.51 249.45,114.86 " fill="none" id="SDKInstance-backto-ClientSDK" style="stroke:#181818;stroke-width:1.0;"/><polygon fill="none" points="323.13,59.81,343.76,55,330.63,71.63,323.13,59.81" style="stroke:#181818;stroke-width:1.0;"/></g><!--MD5=[98da81a5da20a319df36f6cbeb0a22cf]
link SDKInstance to WalletConnection--><g id="link_SDKInstance_WalletConnection"><path codeLine="18" d="M398.34,61.91 C407.15,76.28 417.69,93.46 426.52,107.86 " fill="none" id="SDKInstance-WalletConnection" style="stroke:#181818;stroke-width:1.0;"/><line style="stroke:#181818;stroke-width:1.0;" x1="424.9426" x2="430.7" y1="105.307" y2="114.68"/><ellipse cx="424.9426" cy="105.307" fill="none" rx="4" ry="4" style="stroke:#181818;stroke-width:1.0;"/><line style="stroke:#181818;stroke-width:1.0;" x1="432.0148" x2="425.1981" y1="109.1781" y2="113.3652"/><line style="stroke:#181818;stroke-width:1.0;" x1="392.7769" x2="399.5999" y1="60.4999" y2="56.3231"/><line style="stroke:#181818;stroke-width:1.0;" x1="394.3432" x2="401.1662" y1="63.0586" y2="58.8818"/><line style="stroke:#181818;stroke-width:1.0;" x1="398.2768" x2="394.1" y1="61.8231" y2="55"/></g><!--MD5=[7f27ce627c89f50f4061592592a5d9d9]
link SDKInstance to SyncConnection--><g id="link_SDKInstance_SyncConnection"><path codeLine="19" d="M441.01,58.18 C478.96,74.47 527.61,95.34 565.63,111.66 " fill="none" id="SDKInstance-SyncConnection" style="stroke:#181818;stroke-width:1.0;"/><line style="stroke:#181818;stroke-width:1.0;" x1="565.7283" x2="575.4461" y1="111.7052" y2="109.3462"/><line style="stroke:#181818;stroke-width:1.0;" x1="565.7283" x2="570.7139" y1="111.7052" y2="120.3738"/><line style="stroke:#181818;stroke-width:1.0;" x1="565.7283" x2="573.08" y1="111.7052" y2="114.86"/><ellipse cx="560.2146" cy="109.3391" fill="none" rx="4" ry="4" style="stroke:#181818;stroke-width:1.0;"/><line style="stroke:#181818;stroke-width:1.0;" x1="435.6984" x2="438.8532" y1="60.2532" y2="52.9016"/><line style="stroke:#181818;stroke-width:1.0;" x1="438.4553" x2="441.6101" y1="61.4363" y2="54.0846"/><line style="stroke:#181818;stroke-width:1.0;" x1="440.9517" x2="433.6" y1="58.1548" y2="55"/></g><!--MD5=[30f3d02edd32bf78257f8180ecbdf8c0]
link SDKInstance to Contract--><g id="link_SDKInstance_Contract"><path codeLine="20" d="M367.55,62.95 C361.77,78.37 355.25,97.44 351,115 C333.68,186.64 324.05,271.98 319.46,322.56 " fill="none" id="SDKInstance-Contract" style="stroke:#181818;stroke-width:1.0;"/><line style="stroke:#181818;stroke-width:1.0;" x1="319.4398" x2="324.717" y1="322.7107" y2="331.2049"/><line style="stroke:#181818;stroke-width:1.0;" x1="319.4398" x2="312.763" y1="322.7107" y2="330.1551"/><line style="stroke:#181818;stroke-width:1.0;" x1="319.4398" x2="318.74" y1="322.7107" y2="330.68"/><ellipse cx="319.9647" cy="316.7337" fill="none" rx="4" ry="4" style="stroke:#181818;stroke-width:1.0;"/><line style="stroke:#181818;stroke-width:1.0;" x1="365.329" x2="372.806" y1="57.556" y2="60.401"/><line style="stroke:#181818;stroke-width:1.0;" x1="364.2621" x2="371.7392" y1="60.3599" y2="63.2049"/><line style="stroke:#181818;stroke-width:1.0;" x1="367.645" x2="370.49" y1="62.717" y2="55.24"/></g><!--MD5=[2b166fb8cfd117942ada77d7edb61e03]
link Contract to PrivateOracle--><g id="link_Contract_PrivateOracle"><path codeLine="21" d="M288.99,410.07 C278.74,425.85 267.28,443.47 257.93,457.87 " fill="none" id="Contract-PrivateOracle" style="stroke:#181818;stroke-width:1.0;"/><line style="stroke:#181818;stroke-width:1.0;" x1="259.5934" x2="252.8848" y1="462.6448" y2="458.2866"/><line style="stroke:#181818;stroke-width:1.0;" x1="261.2277" x2="254.5191" y1="460.129" y2="455.7708"/><line style="stroke:#181818;stroke-width:1.0;" x1="258.4182" x2="254.06" y1="457.1113" y2="463.82"/><line style="stroke:#181818;stroke-width:1.0;" x1="287.3666" x2="294.0752" y1="405.2252" y2="409.5834"/><line style="stroke:#181818;stroke-width:1.0;" x1="285.7323" x2="292.4409" y1="407.741" y2="412.0992"/><line style="stroke:#181818;stroke-width:1.0;" x1="288.5418" x2="292.9" y1="410.7587" y2="404.05"/></g><!--MD5=[4aecdd5d1e5ffcd81f5be5ad54f040ab]
link Contract to PublicOracle--><g id="link_Contract_PublicOracle"><path codeLine="22" d="M343.36,410.07 C353.75,425.85 365.35,443.47 374.82,457.87 " fill="none" id="Contract-PublicOracle" style="stroke:#181818;stroke-width:1.0;"/><line style="stroke:#181818;stroke-width:1.0;" x1="379.8839" x2="373.2" y1="458.28" y2="462.6761"/><line style="stroke:#181818;stroke-width:1.0;" x1="378.2354" x2="371.5515" y1="455.7735" y2="460.1696"/><line style="stroke:#181818;stroke-width:1.0;" x1="374.344" x2="378.74" y1="457.1361" y2="463.82"/><line style="stroke:#181818;stroke-width:1.0;" x1="338.2593" x2="344.9406" y1="409.5906" y2="405.1907"/><line style="stroke:#181818;stroke-width:1.0;" x1="339.9093" x2="346.5906" y1="412.0962" y2="407.6962"/><line style="stroke:#181818;stroke-width:1.0;" x1="343.7999" x2="339.4" y1="410.7314" y2="404.05"/></g><!--MD5=[476f8682bf36f8669ddeb349113269d6]
link PrivateOracle to PrivateState--><g id="link_PrivateOracle_PrivateState"><path codeLine="23" d="M239,519.36 C239,533.52 239,550.35 239,564.53 " fill="none" id="PrivateOracle-PrivateState" style="stroke:#181818;stroke-width:1.0;"/><line style="stroke:#181818;stroke-width:1.0;" x1="243" x2="235" y1="567.68" y2="567.68"/><line style="stroke:#181818;stroke-width:1.0;" x1="243" x2="235" y1="564.68" y2="564.68"/><line style="stroke:#181818;stroke-width:1.0;" x1="239" x2="239" y1="563.68" y2="571.68"/><line style="stroke:#181818;stroke-width:1.0;" x1="235" x2="243" y1="516" y2="516"/><line style="stroke:#181818;stroke-width:1.0;" x1="235" x2="243" y1="519" y2="519"/><line style="stroke:#181818;stroke-width:1.0;" x1="239" x2="239" y1="520" y2="512"/></g><!--MD5=[3eadc78797e5101169215e2bd36d37c9]
link PublicOracle to PublicState--><g id="link_PublicOracle_PublicState"><path codeLine="24" d="M394,519.36 C394,533.52 394,550.35 394,564.53 " fill="none" id="PublicOracle-PublicState" style="stroke:#181818;stroke-width:1.0;"/><line style="stroke:#181818;stroke-width:1.0;" x1="398" x2="390" y1="567.68" y2="567.68"/><line style="stroke:#181818;stroke-width:1.0;" x1="398" x2="390" y1="564.68" y2="564.68"/><line style="stroke:#181818;stroke-width:1.0;" x1="394" x2="394" y1="563.68" y2="571.68"/><line style="stroke:#181818;stroke-width:1.0;" x1="390" x2="398" y1="516" y2="516"/><line style="stroke:#181818;stroke-width:1.0;" x1="390" x2="398" y1="519" y2="519"/><line style="stroke:#181818;stroke-width:1.0;" x1="394" x2="394" y1="520" y2="512"/></g><!--MD5=[63e299e223019bb68c0e6559f8a21b1e]
link Contract to PendingPrivateTranscript--><g id="link_Contract_PendingPrivateTranscript"><path codeLine="25" d="M405.63,407.26 C445.98,424.71 492.58,444.87 528.83,460.55 " fill="none" id="Contract-PendingPrivateTranscript" style="stroke:#181818;stroke-width:1.0;"/><line style="stroke:#181818;stroke-width:1.0;" x1="529.0709" x2="538.798" y1="460.6359" y2="458.3157"/><line style="stroke:#181818;stroke-width:1.0;" x1="529.0709" x2="534.022" y1="460.6359" y2="469.3243"/><line style="stroke:#181818;stroke-width:1.0;" x1="529.0709" x2="536.41" y1="460.6359" y2="463.82"/><ellipse cx="523.5667" cy="458.2479" fill="none" rx="4" ry="4" style="stroke:#181818;stroke-width:1.0;"/><line style="stroke:#181818;stroke-width:1.0;" x1="400.2961" x2="403.4681" y1="409.3081" y2="401.9639"/><line style="stroke:#181818;stroke-width:1.0;" x1="403.0502" x2="406.2222" y1="410.4977" y2="403.1534"/><line style="stroke:#181818;stroke-width:1.0;" x1="405.5543" x2="398.21" y1="407.222" y2="404.05"/></g><!--MD5=[2d0881970c9d99088203592021b6d01d]
link Contract to PrivateCallback--><g id="link_Contract_PrivateCallback"><path codeLine="26" d="M236.22,407.73 C201.22,424.94 161.04,444.7 129.54,460.18 " fill="none" id="Contract-PrivateCallback" style="stroke:#181818;stroke-width:1.0;"/><line style="stroke:#181818;stroke-width:1.0;" x1="132.01" x2="122.14" y1="458.9637" y2="463.82"/><ellipse cx="132.01" cy="458.9637" fill="none" rx="4" ry="4" style="stroke:#181818;stroke-width:1.0;"/><line style="stroke:#181818;stroke-width:1.0;" x1="127.495" x2="123.9631" y1="465.6431" y2="458.465"/><line style="stroke:#181818;stroke-width:1.0;" x1="238.3364" x2="241.8626" y1="402.2226" y2="409.4036"/><line style="stroke:#181818;stroke-width:1.0;" x1="235.6436" x2="239.1698" y1="403.545" y2="410.7259"/><line style="stroke:#181818;stroke-width:1.0;" x1="236.5091" x2="243.69" y1="407.5762" y2="404.05"/></g><!--MD5=[909b8b116de977a8bdb30c26f2287b82]
link RelevantTransaction to Contract--><g id="link_RelevantTransaction_Contract"><path codeLine="28" d="M558.56,274.08 C517.04,289.9 463.32,310.37 416.98,328.02 " fill="none" id="RelevantTransaction-Contract" style="stroke:#181818;stroke-width:1.0;"/><line style="stroke:#181818;stroke-width:1.0;" x1="414.481" x2="411.636" y1="333.256" y2="325.779"/><line style="stroke:#181818;stroke-width:1.0;" x1="417.2849" x2="414.4399" y1="332.1892" y2="324.7121"/><line style="stroke:#181818;stroke-width:1.0;" x1="416.797" x2="409.32" y1="328.095" y2="330.94"/><line style="stroke:#181818;stroke-width:1.0;" x1="558.823" x2="564.1663" y1="273.975" y2="265.5222"/><line style="stroke:#181818;stroke-width:1.0;" x1="558.823" x2="568.4337" y1="273.975" y2="276.7378"/><line style="stroke:#181818;stroke-width:1.0;" x1="558.823" x2="566.3" y1="273.975" y2="271.13"/><line style="stroke:#181818;stroke-width:1.0;" x1="555.5312" x2="558.3762" y1="270.9477" y2="278.4248"/></g><!--MD5=[a23b628093cc43e9571f145eeaeebbbb]
link SyncConnection to RelevantTransaction--><g id="link_SyncConnection_RelevantTransaction"><path codeLine="29" d="M627,171.26 C627,184.89 627,200.85 627,214.51 " fill="none" id="SyncConnection-RelevantTransaction" style="stroke:#181818;stroke-width:1.0;"/><line style="stroke:#181818;stroke-width:1.0;" x1="627" x2="633" y1="214.68" y2="222.68"/><line style="stroke:#181818;stroke-width:1.0;" x1="627" x2="621" y1="214.68" y2="222.68"/><line style="stroke:#181818;stroke-width:1.0;" x1="627" x2="627" y1="214.68" y2="222.68"/><ellipse cx="627" cy="208.68" fill="none" rx="4" ry="4" style="stroke:#181818;stroke-width:1.0;"/><line style="stroke:#181818;stroke-width:1.0;" x1="623" x2="631" y1="167" y2="167"/><line style="stroke:#181818;stroke-width:1.0;" x1="623" x2="631" y1="170" y2="170"/><line style="stroke:#181818;stroke-width:1.0;" x1="627" x2="627" y1="171" y2="163"/></g><!--MD5=[a3ca8f9b4d91e8eef67ff83338dd038f]
link RelevantTransaction to PublicTranscript--><g id="link_RelevantTransaction_PublicTranscript"><path codeLine="31" d="M631.09,278.3 C633.49,296.04 636.5,318.37 638.9,336.13 " fill="none" id="RelevantTransaction-PublicTranscript" style="stroke:#181818;stroke-width:1.0;"/><line style="stroke:#181818;stroke-width:1.0;" x1="643.3053" x2="635.3781" y1="338.9281" y2="340.0047"/><line style="stroke:#181818;stroke-width:1.0;" x1="642.9016" x2="634.9744" y1="335.9554" y2="337.0319"/><line style="stroke:#181818;stroke-width:1.0;" x1="638.8035" x2="639.88" y1="335.5028" y2="343.43"/><line style="stroke:#181818;stroke-width:1.0;" x1="626.6856" x2="634.615" y1="275.625" y2="274.5644"/><line style="stroke:#181818;stroke-width:1.0;" x1="627.0833" x2="635.0126" y1="278.5985" y2="277.538"/><line style="stroke:#181818;stroke-width:1.0;" x1="631.1805" x2="630.12" y1="279.0594" y2="271.13"/></g><!--MD5=[94d25d1fc72153e4486cd34b2d515130]
@startuml
interface ClientSDK
entity SDKInstance {}
entity Contract <<Aggregate>> {
  transitionFunctions: Map<FunctionName, TransitionFunction>
}
entity WalletConnection {}
entity SyncConnection {}
entity RelevantTransaction {}
entity PublicTranscript {}
entity PrivateCallback {}
entity PrivateOracle {}
entity PrivateState {}
entity PublicOracle {}
entity PublicState {}
entity PendingPrivateTranscript {}

SDKInstance <|- - ClientSDK
SDKInstance ||- -o| WalletConnection
SDKInstance ||- -o{ SyncConnection
SDKInstance ||- -o{ Contract
Contract ||- -|| PrivateOracle
Contract ||- -|| PublicOracle
PrivateOracle ||- -|| PrivateState
PublicOracle ||- -|| PublicState
Contract ||- -o{ PendingPrivateTranscript
Contract ||- -o| PrivateCallback

RelevantTransaction }|- -|| Contract
SyncConnection ||- -o{ RelevantTransaction

RelevantTransaction ||- -|| PublicTranscript

@enduml

PlantUML version 1.2022.4(Sat Apr 09 15:29:17 CEST 2022)
(GPL source distribution)
Java Runtime: OpenJDK Runtime Environment
JVM: OpenJDK 64-Bit Server VM
Default Encoding: UTF-8
Language: en
Country: PL
--></g></svg>