<?xml version="1.0" encoding="UTF-8" standalone="no"?><svg xmlns="http://www.w3.org/2000/svg" xmlns:xlink="http://www.w3.org/1999/xlink" contentStyleType="text/css" height="602px" preserveAspectRatio="none" style="width:699px;height:602px;background:#FFFFFF;" version="1.1" viewBox="0 0 699 602" width="699px" zoomAndPan="magnify"><defs/><g><!--MD5=[ef041283d420ff3f3754126a3e1603a3]
class SDKInstance--><g id="elem_SDKInstance"><rect codeLine="1" fill="#F1F1F1" height="48" id="SDKInstance" rx="2.5" ry="2.5" style="stroke:#181818;stroke-width:0.5;" width="116" x="308" y="7"/><ellipse cx="323" cy="23" fill="#ADD1B2" rx="11" ry="11" style="stroke:#181818;stroke-width:1.0;"/><path d="M327.1143,29 L319.3945,29 L319.3945,16.6069 L327.1143,16.6069 L327.1143,18.7651 L321.8433,18.7651 L321.8433,21.438 L326.6162,21.438 L326.6162,23.5962 L321.8433,23.5962 L321.8433,26.8418 L327.1143,26.8418 Z " fill="#000000"/><text fill="#000000" font-family="sans-serif" font-size="14" lengthAdjust="spacing" textLength="84" x="337" y="28.291">SDKInstance</text><line style="stroke:#181818;stroke-width:0.5;" x1="309" x2="423" y1="39" y2="39"/><line style="stroke:#181818;stroke-width:0.5;" x1="309" x2="423" y1="47" y2="47"/></g><!--MD5=[461026a38b737c4ce5e8254b9a577e21]
class Contract--><g id="elem_Contract"><rect codeLine="2" fill="#F1F1F1" height="48" id="Contract" rx="2.5" ry="2.5" style="stroke:#181818;stroke-width:0.5;" width="91" x="270.5" y="331"/><ellipse cx="285.5" cy="347" fill="#ADD1B2" rx="11" ry="11" style="stroke:#181818;stroke-width:1.0;"/><path d="M289.6143,353 L281.8945,353 L281.8945,340.6069 L289.6143,340.6069 L289.6143,342.7651 L284.3433,342.7651 L284.3433,345.438 L289.1162,345.438 L289.1162,347.5962 L284.3433,347.5962 L284.3433,350.8418 L289.6143,350.8418 Z " fill="#000000"/><text fill="#000000" font-family="sans-serif" font-size="14" lengthAdjust="spacing" textLength="59" x="299.5" y="352.291">Contract</text><line style="stroke:#181818;stroke-width:0.5;" x1="271.5" x2="360.5" y1="363" y2="363"/><line style="stroke:#181818;stroke-width:0.5;" x1="271.5" x2="360.5" y1="371" y2="371"/></g><!--MD5=[4f295ab36111db628a1a51e5cd40aaab]
class WalletConnection--><g id="elem_WalletConnection"><rect codeLine="3" fill="#F1F1F1" height="48" id="WalletConnection" rx="2.5" ry="2.5" style="stroke:#181818;stroke-width:0.5;" width="152" x="290" y="115"/><ellipse cx="305" cy="131" fill="#ADD1B2" rx="11" ry="11" style="stroke:#181818;stroke-width:1.0;"/><path d="M309.1143,137 L301.3945,137 L301.3945,124.6069 L309.1143,124.6069 L309.1143,126.7651 L303.8433,126.7651 L303.8433,129.438 L308.6162,129.438 L308.6162,131.5962 L303.8433,131.5962 L303.8433,134.8418 L309.1143,134.8418 Z " fill="#000000"/><text fill="#000000" font-family="sans-serif" font-size="14" lengthAdjust="spacing" textLength="120" x="319" y="136.291">WalletConnection</text><line style="stroke:#181818;stroke-width:0.5;" x1="291" x2="441" y1="147" y2="147"/><line style="stroke:#181818;stroke-width:0.5;" x1="291" x2="441" y1="155" y2="155"/></g><!--MD5=[55535a83c097026635c1692abc1750d2]
class SyncConnection--><g id="elem_SyncConnection"><rect codeLine="4" fill="#F1F1F1" height="48" id="SyncConnection" rx="2.5" ry="2.5" style="stroke:#181818;stroke-width:0.5;" width="142" x="477" y="115"/><ellipse cx="492" cy="131" fill="#ADD1B2" rx="11" ry="11" style="stroke:#181818;stroke-width:1.0;"/><path d="M496.1143,137 L488.3945,137 L488.3945,124.6069 L496.1143,124.6069 L496.1143,126.7651 L490.8433,126.7651 L490.8433,129.438 L495.6162,129.438 L495.6162,131.5962 L490.8433,131.5962 L490.8433,134.8418 L496.1143,134.8418 Z " fill="#000000"/><text fill="#000000" font-family="sans-serif" font-size="14" lengthAdjust="spacing" textLength="110" x="506" y="136.291">SyncConnection</text><line style="stroke:#181818;stroke-width:0.5;" x1="478" x2="618" y1="147" y2="147"/><line style="stroke:#181818;stroke-width:0.5;" x1="478" x2="618" y1="155" y2="155"/></g><!--MD5=[0164bdab82738efd25435ed1b870118f]
class RelevantTransaction--><g id="elem_RelevantTransaction"><rect codeLine="5" fill="#F1F1F1" height="48" id="RelevantTransaction" rx="2.5" ry="2.5" style="stroke:#181818;stroke-width:0.5;" width="171" x="422.5" y="223"/><ellipse cx="437.5" cy="239" fill="#ADD1B2" rx="11" ry="11" style="stroke:#181818;stroke-width:1.0;"/><path d="M441.6143,245 L433.8945,245 L433.8945,232.6069 L441.6143,232.6069 L441.6143,234.7651 L436.3433,234.7651 L436.3433,237.438 L441.1162,237.438 L441.1162,239.5962 L436.3433,239.5962 L436.3433,242.8418 L441.6143,242.8418 Z " fill="#000000"/><text fill="#000000" font-family="sans-serif" font-size="14" lengthAdjust="spacing" textLength="139" x="451.5" y="244.291">RelevantTransaction</text><line style="stroke:#181818;stroke-width:0.5;" x1="423.5" x2="592.5" y1="255" y2="255"/><line style="stroke:#181818;stroke-width:0.5;" x1="423.5" x2="592.5" y1="263" y2="263"/></g><!--MD5=[1b86ea2a56b0b030c27c716cb76bdc9e]
class PublicTranscript--><g id="elem_PublicTranscript"><rect codeLine="6" fill="#F1F1F1" height="48" id="PublicTranscript" rx="2.5" ry="2.5" style="stroke:#181818;stroke-width:0.5;" width="143" x="436.5" y="331"/><ellipse cx="451.5" cy="347" fill="#ADD1B2" rx="11" ry="11" style="stroke:#181818;stroke-width:1.0;"/><path d="M455.6143,353 L447.8945,353 L447.8945,340.6069 L455.6143,340.6069 L455.6143,342.7651 L450.3433,342.7651 L450.3433,345.438 L455.1162,345.438 L455.1162,347.5962 L450.3433,347.5962 L450.3433,350.8418 L455.6143,350.8418 Z " fill="#000000"/><text fill="#000000" font-family="sans-serif" font-size="14" lengthAdjust="spacing" textLength="111" x="465.5" y="352.291">PublicTranscript</text><line style="stroke:#181818;stroke-width:0.5;" x1="437.5" x2="578.5" y1="363" y2="363"/><line style="stroke:#181818;stroke-width:0.5;" x1="437.5" x2="578.5" y1="371" y2="371"/></g><!--MD5=[b766570067d44bcda06bf1d4cc4f477f]
class PrivateCallback--><g id="elem_PrivateCallback"><rect codeLine="7" fill="#F1F1F1" height="48" id="PrivateCallback" rx="2.5" ry="2.5" style="stroke:#181818;stroke-width:0.5;" width="136" x="7" y="439"/><ellipse cx="22" cy="455" fill="#ADD1B2" rx="11" ry="11" style="stroke:#181818;stroke-width:1.0;"/><path d="M26.1143,461 L18.3945,461 L18.3945,448.6069 L26.1143,448.6069 L26.1143,450.7651 L20.8433,450.7651 L20.8433,453.438 L25.6162,453.438 L25.6162,455.5962 L20.8433,455.5962 L20.8433,458.8418 L26.1143,458.8418 Z " fill="#000000"/><text fill="#000000" font-family="sans-serif" font-size="14" lengthAdjust="spacing" textLength="104" x="36" y="460.291">PrivateCallback</text><line style="stroke:#181818;stroke-width:0.5;" x1="8" x2="142" y1="471" y2="471"/><line style="stroke:#181818;stroke-width:0.5;" x1="8" x2="142" y1="479" y2="479"/></g><!--MD5=[d4fe85051e8edea9bfe792ad31951013]
class PrivateOracle--><g id="elem_PrivateOracle"><rect codeLine="8" fill="#F1F1F1" height="48" id="PrivateOracle" rx="2.5" ry="2.5" style="stroke:#181818;stroke-width:0.5;" width="122" x="178" y="439"/><ellipse cx="193" cy="455" fill="#ADD1B2" rx="11" ry="11" style="stroke:#181818;stroke-width:1.0;"/><path d="M197.1143,461 L189.3945,461 L189.3945,448.6069 L197.1143,448.6069 L197.1143,450.7651 L191.8433,450.7651 L191.8433,453.438 L196.6162,453.438 L196.6162,455.5962 L191.8433,455.5962 L191.8433,458.8418 L197.1143,458.8418 Z " fill="#000000"/><text fill="#000000" font-family="sans-serif" font-size="14" lengthAdjust="spacing" textLength="90" x="207" y="460.291">PrivateOracle</text><line style="stroke:#181818;stroke-width:0.5;" x1="179" x2="299" y1="471" y2="471"/><line style="stroke:#181818;stroke-width:0.5;" x1="179" x2="299" y1="479" y2="479"/></g><!--MD5=[c56812e88b7493f96907eaff85a687ba]
class PrivateState--><g id="elem_PrivateState"><rect codeLine="9" fill="#F1F1F1" height="48" id="PrivateState" rx="2.5" ry="2.5" style="stroke:#181818;stroke-width:0.5;" width="112" x="183" y="547"/><ellipse cx="198" cy="563" fill="#ADD1B2" rx="11" ry="11" style="stroke:#181818;stroke-width:1.0;"/><path d="M202.1143,569 L194.3945,569 L194.3945,556.6069 L202.1143,556.6069 L202.1143,558.7651 L196.8433,558.7651 L196.8433,561.438 L201.6162,561.438 L201.6162,563.5962 L196.8433,563.5962 L196.8433,566.8418 L202.1143,566.8418 Z " fill="#000000"/><text fill="#000000" font-family="sans-serif" font-size="14" lengthAdjust="spacing" textLength="80" x="212" y="568.291">PrivateState</text><line style="stroke:#181818;stroke-width:0.5;" x1="184" x2="294" y1="579" y2="579"/><line style="stroke:#181818;stroke-width:0.5;" x1="184" x2="294" y1="587" y2="587"/></g><!--MD5=[86b1bbd3ddf7b51c48574193985a1ace]
class PublicOracle--><g id="elem_PublicOracle"><rect codeLine="10" fill="#F1F1F1" height="48" id="PublicOracle" rx="2.5" ry="2.5" style="stroke:#181818;stroke-width:0.5;" width="117" x="335.5" y="439"/><ellipse cx="350.5" cy="455" fill="#ADD1B2" rx="11" ry="11" style="stroke:#181818;stroke-width:1.0;"/><path d="M354.6143,461 L346.8945,461 L346.8945,448.6069 L354.6143,448.6069 L354.6143,450.7651 L349.3433,450.7651 L349.3433,453.438 L354.1162,453.438 L354.1162,455.5962 L349.3433,455.5962 L349.3433,458.8418 L354.6143,458.8418 Z " fill="#000000"/><text fill="#000000" font-family="sans-serif" font-size="14" lengthAdjust="spacing" textLength="85" x="364.5" y="460.291">PublicOracle</text><line style="stroke:#181818;stroke-width:0.5;" x1="336.5" x2="451.5" y1="471" y2="471"/><line style="stroke:#181818;stroke-width:0.5;" x1="336.5" x2="451.5" y1="479" y2="479"/></g><!--MD5=[433e6cdf0cad7be172750db73bb0d617]
class PublicState--><g id="elem_PublicState"><rect codeLine="11" fill="#F1F1F1" height="48" id="PublicState" rx="2.5" ry="2.5" style="stroke:#181818;stroke-width:0.5;" width="107" x="340.5" y="547"/><ellipse cx="355.5" cy="563" fill="#ADD1B2" rx="11" ry="11" style="stroke:#181818;stroke-width:1.0;"/><path d="M359.6143,569 L351.8945,569 L351.8945,556.6069 L359.6143,556.6069 L359.6143,558.7651 L354.3433,558.7651 L354.3433,561.438 L359.1162,561.438 L359.1162,563.5962 L354.3433,563.5962 L354.3433,566.8418 L359.6143,566.8418 Z " fill="#000000"/><text fill="#000000" font-family="sans-serif" font-size="14" lengthAdjust="spacing" textLength="75" x="369.5" y="568.291">PublicState</text><line style="stroke:#181818;stroke-width:0.5;" x1="341.5" x2="446.5" y1="579" y2="579"/><line style="stroke:#181818;stroke-width:0.5;" x1="341.5" x2="446.5" y1="587" y2="587"/></g><!--MD5=[51cc31f05357ddc21bf329df57352a15]
class PendingPrivateTranscript--><g id="elem_PendingPrivateTranscript"><rect codeLine="12" fill="#F1F1F1" height="48" id="PendingPrivateTranscript" rx="2.5" ry="2.5" style="stroke:#181818;stroke-width:0.5;" width="204" x="488" y="439"/><ellipse cx="503" cy="455" fill="#ADD1B2" rx="11" ry="11" style="stroke:#181818;stroke-width:1.0;"/><path d="M507.1143,461 L499.3945,461 L499.3945,448.6069 L507.1143,448.6069 L507.1143,450.7651 L501.8433,450.7651 L501.8433,453.438 L506.6162,453.438 L506.6162,455.5962 L501.8433,455.5962 L501.8433,458.8418 L507.1143,458.8418 Z " fill="#000000"/><text fill="#000000" font-family="sans-serif" font-size="14" lengthAdjust="spacing" textLength="172" x="517" y="460.291">PendingPrivateTranscript</text><line style="stroke:#181818;stroke-width:0.5;" x1="489" x2="691" y1="471" y2="471"/><line style="stroke:#181818;stroke-width:0.5;" x1="489" x2="691" y1="479" y2="479"/></g><!--MD5=[98da81a5da20a319df36f6cbeb0a22cf]
link SDKInstance to WalletConnection--><g id="link_SDKInstance_WalletConnection"><path codeLine="14" d="M366,63.26 C366,76.89 366,92.85 366,106.51 " fill="none" id="SDKInstance-WalletConnection" style="stroke:#181818;stroke-width:1.0;"/><line style="stroke:#181818;stroke-width:1.0;" x1="366" x2="366" y1="103.68" y2="114.68"/><ellipse cx="366" cy="103.68" fill="none" rx="4" ry="4" style="stroke:#181818;stroke-width:1.0;"/><line style="stroke:#181818;stroke-width:1.0;" x1="370" x2="362" y1="110.68" y2="110.68"/><line style="stroke:#181818;stroke-width:1.0;" x1="362" x2="370" y1="59" y2="59"/><line style="stroke:#181818;stroke-width:1.0;" x1="362" x2="370" y1="62" y2="62"/><line style="stroke:#181818;stroke-width:1.0;" x1="366" x2="366" y1="63" y2="55"/></g><!--MD5=[7f27ce627c89f50f4061592592a5d9d9]
link SDKInstance to SyncConnection--><g id="link_SDKInstance_SyncConnection"><path codeLine="15" d="M412.45,59.05 C439.64,74.89 473.88,94.83 501.14,110.71 " fill="none" id="SDKInstance-SyncConnection" style="stroke:#181818;stroke-width:1.0;"/><line style="stroke:#181818;stroke-width:1.0;" x1="501.3613" x2="511.2952" y1="110.8264" y2="109.6785"/><line style="stroke:#181818;stroke-width:1.0;" x1="501.3613" x2="505.2448" y1="110.8264" y2="120.0415"/><line style="stroke:#181818;stroke-width:1.0;" x1="501.3613" x2="508.27" y1="110.8264" y2="114.86"/><ellipse cx="496.1798" cy="107.8011" fill="none" rx="4" ry="4" style="stroke:#181818;stroke-width:1.0;"/><line style="stroke:#181818;stroke-width:1.0;" x1="406.9409" x2="410.9576" y1="60.4676" y2="53.5491"/><line style="stroke:#181818;stroke-width:1.0;" x1="409.5353" x2="413.5521" y1="61.9739" y2="55.0554"/><line style="stroke:#181818;stroke-width:1.0;" x1="412.4085" x2="405.49" y1="59.0167" y2="55"/></g><!--MD5=[30f3d02edd32bf78257f8180ecbdf8c0]
link SDKInstance to Contract--><g id="link_SDKInstance_Contract"><path codeLine="16" d="M319.86,60.06 C301.35,74.04 282.05,92.73 272,115 C240.37,185.13 276.12,276.61 299.31,323.45 " fill="none" id="SDKInstance-Contract" style="stroke:#181818;stroke-width:1.0;"/><line style="stroke:#181818;stroke-width:1.0;" x1="299.4423" x2="308.4115" y1="323.7147" y2="328.1367"/><line style="stroke:#181818;stroke-width:1.0;" x1="299.4423" x2="297.7085" y1="323.7147" y2="333.5633"/><line style="stroke:#181818;stroke-width:1.0;" x1="299.4423" x2="303.06" y1="323.7147" y2="330.85"/><ellipse cx="296.729" cy="318.3632" fill="none" rx="4" ry="4" style="stroke:#181818;stroke-width:1.0;"/><line style="stroke:#181818;stroke-width:1.0;" x1="321.0308" x2="325.748" y1="54.258" y2="60.7192"/><line style="stroke:#181818;stroke-width:1.0;" x1="318.6078" x2="323.3251" y1="56.027" y2="62.4882"/><line style="stroke:#181818;stroke-width:1.0;" x1="320.1588" x2="326.62" y1="59.8473" y2="55.13"/></g><!--MD5=[2b166fb8cfd117942ada77d7edb61e03]
link Contract to PrivateOracle--><g id="link_Contract_PrivateOracle"><path codeLine="17" d="M294.92,385.01 C284.1,399.91 270.95,418.02 260.12,432.93 " fill="none" id="Contract-PrivateOracle" style="stroke:#181818;stroke-width:1.0;"/><line style="stroke:#181818;stroke-width:1.0;" x1="261.5251" x2="255.0418" y1="437.7818" y2="433.0949"/><line style="stroke:#181818;stroke-width:1.0;" x1="263.2827" x2="256.7994" y1="435.3506" y2="430.6637"/><line style="stroke:#181818;stroke-width:1.0;" x1="260.6269" x2="255.94" y1="432.1967" y2="438.68"/><line style="stroke:#181818;stroke-width:1.0;" x1="293.7024" x2="300.1723" y1="379.8823" y2="384.5876"/><line style="stroke:#181818;stroke-width:1.0;" x1="291.9379" x2="298.4077" y1="382.3085" y2="387.0138"/><line style="stroke:#181818;stroke-width:1.0;" x1="294.5846" x2="299.29" y1="385.4699" y2="379"/></g><!--MD5=[4aecdd5d1e5ffcd81f5be5ad54f040ab]
link Contract to PublicOracle--><g id="link_Contract_PublicOracle"><path codeLine="18" d="M337.35,385.01 C348.31,399.91 361.64,418.02 372.61,432.93 " fill="none" id="Contract-PublicOracle" style="stroke:#181818;stroke-width:1.0;"/><line style="stroke:#181818;stroke-width:1.0;" x1="377.6903" x2="371.2474" y1="433.0874" y2="437.8297"/><line style="stroke:#181818;stroke-width:1.0;" x1="375.912" x2="369.4691" y1="430.6713" y2="435.4136"/><line style="stroke:#181818;stroke-width:1.0;" x1="372.0978" x2="376.84" y1="432.2371" y2="438.68"/><line style="stroke:#181818;stroke-width:1.0;" x1="332.0629" x2="338.5115" y1="384.5915" y2="379.8571"/><line style="stroke:#181818;stroke-width:1.0;" x1="333.8383" x2="340.287" y1="387.0098" y2="382.2753"/><line style="stroke:#181818;stroke-width:1.0;" x1="337.6544" x2="332.92" y1="385.4486" y2="379"/></g><!--MD5=[476f8682bf36f8669ddeb349113269d6]
link PrivateOracle to PrivateState--><g id="link_PrivateOracle_PrivateState"><path codeLine="19" d="M239,494.36 C239,508.52 239,525.35 239,539.53 " fill="none" id="PrivateOracle-PrivateState" style="stroke:#181818;stroke-width:1.0;"/><line style="stroke:#181818;stroke-width:1.0;" x1="243" x2="235" y1="542.68" y2="542.68"/><line style="stroke:#181818;stroke-width:1.0;" x1="243" x2="235" y1="539.68" y2="539.68"/><line style="stroke:#181818;stroke-width:1.0;" x1="239" x2="239" y1="538.68" y2="546.68"/><line style="stroke:#181818;stroke-width:1.0;" x1="235" x2="243" y1="491" y2="491"/><line style="stroke:#181818;stroke-width:1.0;" x1="235" x2="243" y1="494" y2="494"/><line style="stroke:#181818;stroke-width:1.0;" x1="239" x2="239" y1="495" y2="487"/></g><!--MD5=[3eadc78797e5101169215e2bd36d37c9]
link PublicOracle to PublicState--><g id="link_PublicOracle_PublicState"><path codeLine="20" d="M394,494.36 C394,508.52 394,525.35 394,539.53 " fill="none" id="PublicOracle-PublicState" style="stroke:#181818;stroke-width:1.0;"/><line style="stroke:#181818;stroke-width:1.0;" x1="398" x2="390" y1="542.68" y2="542.68"/><line style="stroke:#181818;stroke-width:1.0;" x1="398" x2="390" y1="539.68" y2="539.68"/><line style="stroke:#181818;stroke-width:1.0;" x1="394" x2="394" y1="538.68" y2="546.68"/><line style="stroke:#181818;stroke-width:1.0;" x1="390" x2="398" y1="491" y2="491"/><line style="stroke:#181818;stroke-width:1.0;" x1="390" x2="398" y1="494" y2="494"/><line style="stroke:#181818;stroke-width:1.0;" x1="394" x2="394" y1="495" y2="487"/></g><!--MD5=[63e299e223019bb68c0e6559f8a21b1e]
link Contract to PendingPrivateTranscript--><g id="link_Contract_PendingPrivateTranscript"><path codeLine="21" d="M369.08,376.53 C412.99,393.52 475.6,417.74 522.96,436.07 " fill="none" id="Contract-PendingPrivateTranscript" style="stroke:#181818;stroke-width:1.0;"/><line style="stroke:#181818;stroke-width:1.0;" x1="522.9691" x2="532.5954" y1="436.0628" y2="433.3544"/><line style="stroke:#181818;stroke-width:1.0;" x1="522.9691" x2="528.2646" y1="436.0628" y2="444.5456"/><line style="stroke:#181818;stroke-width:1.0;" x1="522.9691" x2="530.43" y1="436.0628" y2="438.95"/><ellipse cx="517.3735" cy="433.8975" fill="none" rx="4" ry="4" style="stroke:#181818;stroke-width:1.0;"/><line style="stroke:#181818;stroke-width:1.0;" x1="363.8369" x2="366.724" y1="378.794" y2="371.3331"/><line style="stroke:#181818;stroke-width:1.0;" x1="366.6347" x2="369.5218" y1="379.8767" y2="372.4158"/><line style="stroke:#181818;stroke-width:1.0;" x1="369.0109" x2="361.55" y1="376.5072" y2="373.62"/></g><!--MD5=[2d0881970c9d99088203592021b6d01d]
link Contract to PrivateCallback--><g id="link_Contract_PrivateCallback"><path codeLine="22" d="M263.05,379.29 C225.32,395.88 174.53,418.22 135.25,435.5 " fill="none" id="Contract-PrivateCallback" style="stroke:#181818;stroke-width:1.0;"/><line style="stroke:#181818;stroke-width:1.0;" x1="137.6237" x2="127.55" y1="434.4617" y2="438.88"/><ellipse cx="137.6237" cy="434.4617" fill="none" rx="4" ry="4" style="stroke:#181818;stroke-width:1.0;"/><line style="stroke:#181818;stroke-width:1.0;" x1="132.8198" x2="129.6065" y1="440.9365" y2="433.6102"/><line style="stroke:#181818;stroke-width:1.0;" x1="265.1202" x2="268.3335" y1="374.0035" y2="381.3298"/><line style="stroke:#181818;stroke-width:1.0;" x1="262.3728" x2="265.5861" y1="375.2085" y2="382.5348"/><line style="stroke:#181818;stroke-width:1.0;" x1="263.0637" x2="270.39" y1="379.2733" y2="376.06"/></g><!--MD5=[909b8b116de977a8bdb30c26f2287b82]
link RelevantTransaction to Contract--><g id="link_RelevantTransaction_Contract"><path codeLine="24" d="M459,275.05 C430.19,290.96 393.89,311 365.07,326.91 " fill="none" id="RelevantTransaction-Contract" style="stroke:#181818;stroke-width:1.0;"/><line style="stroke:#181818;stroke-width:1.0;" x1="363.3449" x2="359.4791" y1="332.4291" y2="325.4251"/><line style="stroke:#181818;stroke-width:1.0;" x1="365.9714" x2="362.1056" y1="330.9795" y2="323.9755"/><line style="stroke:#181818;stroke-width:1.0;" x1="364.914" x2="357.91" y1="326.9943" y2="330.86"/><line style="stroke:#181818;stroke-width:1.0;" x1="459.3393" x2="463.4362" y1="274.8718" y2="265.7495"/><line style="stroke:#181818;stroke-width:1.0;" x1="459.3393" x2="469.2438" y1="274.8718" y2="276.2505"/><line style="stroke:#181818;stroke-width:1.0;" x1="459.3393" x2="466.34" y1="274.8718" y2="271"/><line style="stroke:#181818;stroke-width:1.0;" x1="455.6533" x2="459.5251" y1="272.3394" y2="279.3401"/></g><!--MD5=[a23b628093cc43e9571f145eeaeebbbb]
link SyncConnection to RelevantTransaction--><g id="link_SyncConnection_RelevantTransaction"><path codeLine="25" d="M536.37,170.81 C531.15,184.64 525,200.94 519.77,214.82 " fill="none" id="SyncConnection-RelevantTransaction" style="stroke:#181818;stroke-width:1.0;"/><line style="stroke:#181818;stroke-width:1.0;" x1="519.62" x2="522.4149" y1="215.1935" y2="224.795"/><line style="stroke:#181818;stroke-width:1.0;" x1="519.62" x2="511.1851" y1="215.1935" y2="220.565"/><line style="stroke:#181818;stroke-width:1.0;" x1="519.62" x2="516.8" y1="215.1935" y2="222.68"/><ellipse cx="521.7349" cy="209.5786" fill="none" rx="4" ry="4" style="stroke:#181818;stroke-width:1.0;"/><line style="stroke:#181818;stroke-width:1.0;" x1="534.1682" x2="541.6565" y1="165.3365" y2="168.1518"/><line style="stroke:#181818;stroke-width:1.0;" x1="533.1125" x2="540.6008" y1="168.1446" y2="170.9599"/><line style="stroke:#181818;stroke-width:1.0;" x1="536.5047" x2="539.32" y1="170.4883" y2="163"/></g><!--MD5=[a3ca8f9b4d91e8eef67ff83338dd038f]
link RelevantTransaction to PublicTranscript--><g id="link_RelevantTransaction_PublicTranscript"><path codeLine="27" d="M508,278.36 C508,292.52 508,309.35 508,323.53 " fill="none" id="RelevantTransaction-PublicTranscript" style="stroke:#181818;stroke-width:1.0;"/><line style="stroke:#181818;stroke-width:1.0;" x1="512" x2="504" y1="326.68" y2="326.68"/><line style="stroke:#181818;stroke-width:1.0;" x1="512" x2="504" y1="323.68" y2="323.68"/><line style="stroke:#181818;stroke-width:1.0;" x1="508" x2="508" y1="322.68" y2="330.68"/><line style="stroke:#181818;stroke-width:1.0;" x1="504" x2="512" y1="275" y2="275"/><line style="stroke:#181818;stroke-width:1.0;" x1="504" x2="512" y1="278" y2="278"/><line style="stroke:#181818;stroke-width:1.0;" x1="508" x2="508" y1="279" y2="271"/></g><!--MD5=[38a0644d49f5adb2018e59bfb409adf5]
@startuml
entity SDKInstance {}
entity Contract {}
entity WalletConnection {}
entity SyncConnection {}
entity RelevantTransaction {}
entity PublicTranscript {}
entity PrivateCallback {}
entity PrivateOracle {}
entity PrivateState {}
entity PublicOracle {}
entity PublicState {}
entity PendingPrivateTranscript {}

SDKInstance ||- -o| WalletConnection
SDKInstance ||- -o{ SyncConnection
SDKInstance ||- -o{ Contract
Contract ||- -|| PrivateOracle
Contract ||- -|| PublicOracle
PrivateOracle ||- -|| PrivateState
PublicOracle ||- -|| PublicState
Contract ||- -o{ PendingPrivateTranscript
Contract ||- -o| PrivateCallback

RelevantTransaction }|- -|| Contract
SyncConnection ||- -o{ RelevantTransaction

RelevantTransaction ||- -|| PublicTranscript

@enduml

PlantUML version 1.2022.4(Sat Apr 09 14:29:17 IST 2022)
(GPL source distribution)
Java Runtime: OpenJDK Runtime Environment
JVM: OpenJDK 64-Bit Server VM
Default Encoding: UTF-8
Language: pl
Country: PL
--></g></svg>