<?xml version="1.0" encoding="UTF-8" standalone="no"?><svg xmlns="http://www.w3.org/2000/svg" xmlns:xlink="http://www.w3.org/1999/xlink" contentStyleType="text/css" height="627px" preserveAspectRatio="none" style="width:723px;height:627px;background:#FFFFFF;" version="1.1" viewBox="0 0 723 627" width="723px" zoomAndPan="magnify"><defs/><g><!--MD5=[3e234ceb271ec3f4aa4aecdce1508149]
class ClientSDK--><g id="elem_ClientSDK"><rect codeLine="1" fill="#F1F1F1" height="48" id="ClientSDK" rx="2.5" ry="2.5" style="stroke:#181818;stroke-width:0.5;" width="100" x="162.5" y="115"/><ellipse cx="177.5" cy="131" fill="#B4A7E5" rx="11" ry="11" style="stroke:#181818;stroke-width:1.0;"/><path d="M175.6719,124.5781 L177.875,124.5781 L177.875,137.5 L175.6719,137.5 L175.6719,124.5781 Z " fill="#000000"/><text fill="#000000" font-family="sans-serif" font-size="14" font-style="italic" lengthAdjust="spacing" textLength="68" x="191.5" y="135.8467">ClientSDK</text><line style="stroke:#181818;stroke-width:0.5;" x1="163.5" x2="261.5" y1="147" y2="147"/><line style="stroke:#181818;stroke-width:0.5;" x1="163.5" x2="261.5" y1="155" y2="155"/></g><!--MD5=[ef041283d420ff3f3754126a3e1603a3]
class SDKInstance--><g id="elem_SDKInstance"><rect codeLine="2" fill="#F1F1F1" height="48" id="SDKInstance" rx="2.5" ry="2.5" style="stroke:#181818;stroke-width:0.5;" width="120" x="320.5" y="7"/><ellipse cx="335.5" cy="23" fill="#ADD1B2" rx="11" ry="11" style="stroke:#181818;stroke-width:1.0;"/><path d="M330.6719,16.5781 L339.0313,16.5781 L339.0313,18.5156 L332.875,18.5156 L332.875,21.6563 L338.7813,21.6563 L338.7813,23.5938 L332.875,23.5938 L332.875,27.5625 L339.1875,27.5625 L339.1875,29.5 L330.6719,29.5 L330.6719,16.5781 Z " fill="#000000"/><text fill="#000000" font-family="sans-serif" font-size="14" lengthAdjust="spacing" textLength="88" x="349.5" y="27.8467">SDKInstance</text><line style="stroke:#181818;stroke-width:0.5;" x1="321.5" x2="439.5" y1="39" y2="39"/><line style="stroke:#181818;stroke-width:0.5;" x1="321.5" x2="439.5" y1="47" y2="47"/></g><!--MD5=[461026a38b737c4ce5e8254b9a577e21]
class Contract--><g id="elem_Contract"><rect codeLine="3" fill="#F1F1F1" height="72.5625" id="Contract" rx="2.5" ry="2.5" style="stroke:#181818;stroke-width:0.5;" width="442" x="94.5" y="331"/><ellipse cx="273.25" cy="351.1328" fill="#ADD1B2" rx="11" ry="11" style="stroke:#181818;stroke-width:1.0;"/><path d="M268.4219,344.7109 L276.7813,344.7109 L276.7813,346.6484 L270.625,346.6484 L270.625,349.7891 L276.5313,349.7891 L276.5313,351.7266 L270.625,351.7266 L270.625,355.6953 L276.9375,355.6953 L276.9375,357.6328 L268.4219,357.6328 L268.4219,344.7109 Z " fill="#000000"/><text fill="#000000" font-family="sans-serif" font-size="12" font-style="italic" lengthAdjust="spacing" textLength="80" x="291.75" y="347.1387">«Aggregate»</text><text fill="#000000" font-family="sans-serif" font-size="14" lengthAdjust="spacing" textLength="59" x="302.25" y="362.9639">Contract</text><line style="stroke:#181818;stroke-width:0.5;" x1="95.5" x2="535.5" y1="371.2656" y2="371.2656"/><text fill="#000000" font-family="sans-serif" font-size="14" lengthAdjust="spacing" textLength="430" x="100.5" y="388.2607">transitionFunctions: Map&lt;FunctionName, TransitionFunction&gt;</text><line style="stroke:#181818;stroke-width:0.5;" x1="95.5" x2="535.5" y1="395.5625" y2="395.5625"/></g><!--MD5=[4f295ab36111db628a1a51e5cd40aaab]
class WalletConnection--><g id="elem_WalletConnection"><rect codeLine="6" fill="#F1F1F1" height="48" id="WalletConnection" rx="2.5" ry="2.5" style="stroke:#181818;stroke-width:0.5;" width="153" x="369" y="115"/><ellipse cx="384" cy="131" fill="#ADD1B2" rx="11" ry="11" style="stroke:#181818;stroke-width:1.0;"/><path d="M379.1719,124.5781 L387.5313,124.5781 L387.5313,126.5156 L381.375,126.5156 L381.375,129.6563 L387.2813,129.6563 L387.2813,131.5938 L381.375,131.5938 L381.375,135.5625 L387.6875,135.5625 L387.6875,137.5 L379.1719,137.5 L379.1719,124.5781 Z " fill="#000000"/><text fill="#000000" font-family="sans-serif" font-size="14" lengthAdjust="spacing" textLength="121" x="398" y="135.8467">WalletConnection</text><line style="stroke:#181818;stroke-width:0.5;" x1="370" x2="521" y1="147" y2="147"/><line style="stroke:#181818;stroke-width:0.5;" x1="370" x2="521" y1="155" y2="155"/></g><!--MD5=[55535a83c097026635c1692abc1750d2]
class SyncConnection--><g id="elem_SyncConnection"><rect codeLine="7" fill="#F1F1F1" height="48" id="SyncConnection" rx="2.5" ry="2.5" style="stroke:#181818;stroke-width:0.5;" width="145" x="557" y="115"/><ellipse cx="572" cy="131" fill="#ADD1B2" rx="11" ry="11" style="stroke:#181818;stroke-width:1.0;"/><path d="M567.1719,124.5781 L575.5313,124.5781 L575.5313,126.5156 L569.375,126.5156 L569.375,129.6563 L575.2813,129.6563 L575.2813,131.5938 L569.375,131.5938 L569.375,135.5625 L575.6875,135.5625 L575.6875,137.5 L567.1719,137.5 L567.1719,124.5781 Z " fill="#000000"/><text fill="#000000" font-family="sans-serif" font-size="14" lengthAdjust="spacing" textLength="113" x="586" y="135.8467">SyncConnection</text><line style="stroke:#181818;stroke-width:0.5;" x1="558" x2="701" y1="147" y2="147"/><line style="stroke:#181818;stroke-width:0.5;" x1="558" x2="701" y1="155" y2="155"/></g><!--MD5=[0164bdab82738efd25435ed1b870118f]
class RelevantTransaction--><g id="elem_RelevantTransaction"><rect codeLine="8" fill="#F1F1F1" height="48" id="RelevantTransaction" rx="2.5" ry="2.5" style="stroke:#181818;stroke-width:0.5;" width="173" x="543" y="223"/><ellipse cx="558" cy="239" fill="#ADD1B2" rx="11" ry="11" style="stroke:#181818;stroke-width:1.0;"/><path d="M553.1719,232.5781 L561.5313,232.5781 L561.5313,234.5156 L555.375,234.5156 L555.375,237.6563 L561.2813,237.6563 L561.2813,239.5938 L555.375,239.5938 L555.375,243.5625 L561.6875,243.5625 L561.6875,245.5 L553.1719,245.5 L553.1719,232.5781 Z " fill="#000000"/><text fill="#000000" font-family="sans-serif" font-size="14" lengthAdjust="spacing" textLength="141" x="572" y="243.8467">RelevantTransaction</text><line style="stroke:#181818;stroke-width:0.5;" x1="544" x2="715" y1="255" y2="255"/><line style="stroke:#181818;stroke-width:0.5;" x1="544" x2="715" y1="263" y2="263"/></g><!--MD5=[1b86ea2a56b0b030c27c716cb76bdc9e]
class PublicTranscript--><g id="elem_PublicTranscript"><rect codeLine="9" fill="#F1F1F1" height="48" id="PublicTranscript" rx="2.5" ry="2.5" style="stroke:#181818;stroke-width:0.5;" width="142" x="571.5" y="343.5"/><ellipse cx="586.5" cy="359.5" fill="#ADD1B2" rx="11" ry="11" style="stroke:#181818;stroke-width:1.0;"/><path d="M581.6719,353.0781 L590.0313,353.0781 L590.0313,355.0156 L583.875,355.0156 L583.875,358.1563 L589.7813,358.1563 L589.7813,360.0938 L583.875,360.0938 L583.875,364.0625 L590.1875,364.0625 L590.1875,366 L581.6719,366 L581.6719,353.0781 Z " fill="#000000"/><text fill="#000000" font-family="sans-serif" font-size="14" lengthAdjust="spacing" textLength="110" x="600.5" y="364.3467">PublicTranscript</text><line style="stroke:#181818;stroke-width:0.5;" x1="572.5" x2="712.5" y1="375.5" y2="375.5"/><line style="stroke:#181818;stroke-width:0.5;" x1="572.5" x2="712.5" y1="383.5" y2="383.5"/></g><!--MD5=[b766570067d44bcda06bf1d4cc4f477f]
class PrivateCallback--><g id="elem_PrivateCallback"><rect codeLine="10" fill="#F1F1F1" height="48" id="PrivateCallback" rx="2.5" ry="2.5" style="stroke:#181818;stroke-width:0.5;" width="135" x="7" y="464"/><ellipse cx="22" cy="480" fill="#ADD1B2" rx="11" ry="11" style="stroke:#181818;stroke-width:1.0;"/><path d="M17.1719,473.5781 L25.5313,473.5781 L25.5313,475.5156 L19.375,475.5156 L19.375,478.6563 L25.2813,478.6563 L25.2813,480.5938 L19.375,480.5938 L19.375,484.5625 L25.6875,484.5625 L25.6875,486.5 L17.1719,486.5 L17.1719,473.5781 Z " fill="#000000"/><text fill="#000000" font-family="sans-serif" font-size="14" lengthAdjust="spacing" textLength="103" x="36" y="484.8467">PrivateCallback</text><line style="stroke:#181818;stroke-width:0.5;" x1="8" x2="141" y1="496" y2="496"/><line style="stroke:#181818;stroke-width:0.5;" x1="8" x2="141" y1="504" y2="504"/></g><!--MD5=[d4fe85051e8edea9bfe792ad31951013]
class PrivateOracle--><g id="elem_PrivateOracle"><rect codeLine="11" fill="#F1F1F1" height="48" id="PrivateOracle" rx="2.5" ry="2.5" style="stroke:#181818;stroke-width:0.5;" width="122" x="177.5" y="464"/><ellipse cx="192.5" cy="480" fill="#ADD1B2" rx="11" ry="11" style="stroke:#181818;stroke-width:1.0;"/><path d="M187.6719,473.5781 L196.0313,473.5781 L196.0313,475.5156 L189.875,475.5156 L189.875,478.6563 L195.7813,478.6563 L195.7813,480.5938 L189.875,480.5938 L189.875,484.5625 L196.1875,484.5625 L196.1875,486.5 L187.6719,486.5 L187.6719,473.5781 Z " fill="#000000"/><text fill="#000000" font-family="sans-serif" font-size="14" lengthAdjust="spacing" textLength="90" x="206.5" y="484.8467">PrivateOracle</text><line style="stroke:#181818;stroke-width:0.5;" x1="178.5" x2="298.5" y1="496" y2="496"/><line style="stroke:#181818;stroke-width:0.5;" x1="178.5" x2="298.5" y1="504" y2="504"/></g><!--MD5=[c56812e88b7493f96907eaff85a687ba]
class PrivateState--><g id="elem_PrivateState"><rect codeLine="12" fill="#F1F1F1" height="48" id="PrivateState" rx="2.5" ry="2.5" style="stroke:#181818;stroke-width:0.5;" width="114" x="181.5" y="572"/><ellipse cx="196.5" cy="588" fill="#ADD1B2" rx="11" ry="11" style="stroke:#181818;stroke-width:1.0;"/><path d="M191.6719,581.5781 L200.0313,581.5781 L200.0313,583.5156 L193.875,583.5156 L193.875,586.6563 L199.7813,586.6563 L199.7813,588.5938 L193.875,588.5938 L193.875,592.5625 L200.1875,592.5625 L200.1875,594.5 L191.6719,594.5 L191.6719,581.5781 Z " fill="#000000"/><text fill="#000000" font-family="sans-serif" font-size="14" lengthAdjust="spacing" textLength="82" x="210.5" y="592.8467">PrivateState</text><line style="stroke:#181818;stroke-width:0.5;" x1="182.5" x2="294.5" y1="604" y2="604"/><line style="stroke:#181818;stroke-width:0.5;" x1="182.5" x2="294.5" y1="612" y2="612"/></g><!--MD5=[86b1bbd3ddf7b51c48574193985a1ace]
class PublicOracle--><g id="elem_PublicOracle"><rect codeLine="13" fill="#F1F1F1" height="48" id="PublicOracle" rx="2.5" ry="2.5" style="stroke:#181818;stroke-width:0.5;" width="117" x="335" y="464"/><ellipse cx="350" cy="480" fill="#ADD1B2" rx="11" ry="11" style="stroke:#181818;stroke-width:1.0;"/><path d="M345.1719,473.5781 L353.5313,473.5781 L353.5313,475.5156 L347.375,475.5156 L347.375,478.6563 L353.2813,478.6563 L353.2813,480.5938 L347.375,480.5938 L347.375,484.5625 L353.6875,484.5625 L353.6875,486.5 L345.1719,486.5 L345.1719,473.5781 Z " fill="#000000"/><text fill="#000000" font-family="sans-serif" font-size="14" lengthAdjust="spacing" textLength="85" x="364" y="484.8467">PublicOracle</text><line style="stroke:#181818;stroke-width:0.5;" x1="336" x2="451" y1="496" y2="496"/><line style="stroke:#181818;stroke-width:0.5;" x1="336" x2="451" y1="504" y2="504"/></g><!--MD5=[433e6cdf0cad7be172750db73bb0d617]
class PublicState--><g id="elem_PublicState"><rect codeLine="14" fill="#F1F1F1" height="48" id="PublicState" rx="2.5" ry="2.5" style="stroke:#181818;stroke-width:0.5;" width="109" x="339" y="572"/><ellipse cx="354" cy="588" fill="#ADD1B2" rx="11" ry="11" style="stroke:#181818;stroke-width:1.0;"/><path d="M349.1719,581.5781 L357.5313,581.5781 L357.5313,583.5156 L351.375,583.5156 L351.375,586.6563 L357.2813,586.6563 L357.2813,588.5938 L351.375,588.5938 L351.375,592.5625 L357.6875,592.5625 L357.6875,594.5 L349.1719,594.5 L349.1719,581.5781 Z " fill="#000000"/><text fill="#000000" font-family="sans-serif" font-size="14" lengthAdjust="spacing" textLength="77" x="368" y="592.8467">PublicState</text><line style="stroke:#181818;stroke-width:0.5;" x1="340" x2="447" y1="604" y2="604"/><line style="stroke:#181818;stroke-width:0.5;" x1="340" x2="447" y1="612" y2="612"/></g><!--MD5=[51cc31f05357ddc21bf329df57352a15]
class PendingPrivateTranscript--><g id="elem_PendingPrivateTranscript"><rect codeLine="15" fill="#F1F1F1" height="48" id="PendingPrivateTranscript" rx="2.5" ry="2.5" style="stroke:#181818;stroke-width:0.5;" width="204" x="487.5" y="464"/><ellipse cx="502.5" cy="480" fill="#ADD1B2" rx="11" ry="11" style="stroke:#181818;stroke-width:1.0;"/><path d="M497.6719,473.5781 L506.0313,473.5781 L506.0313,475.5156 L499.875,475.5156 L499.875,478.6563 L505.7813,478.6563 L505.7813,480.5938 L499.875,480.5938 L499.875,484.5625 L506.1875,484.5625 L506.1875,486.5 L497.6719,486.5 L497.6719,473.5781 Z " fill="#000000"/><text fill="#000000" font-family="sans-serif" font-size="14" lengthAdjust="spacing" textLength="172" x="516.5" y="484.8467">PendingPrivateTranscript</text><line style="stroke:#181818;stroke-width:0.5;" x1="488.5" x2="690.5" y1="496" y2="496"/><line style="stroke:#181818;stroke-width:0.5;" x1="488.5" x2="690.5" y1="504" y2="504"/></g><!--MD5=[53fe4952945ca2b5dba1df5193088ba7]
reverse link SDKInstance to ClientSDK--><g id="link_SDKInstance_ClientSDK"><path codeLine="17" d="M326.91,65.81 C301.55,81.81 271.92,100.51 249.17,114.86 " fill="none" id="SDKInstance-backto-ClientSDK" style="stroke:#181818;stroke-width:1.0;"/><polygon fill="none" points="323.4,59.75,344.05,55,330.87,71.59,323.4,59.75" style="stroke:#181818;stroke-width:1.0;"/></g><!--MD5=[98da81a5da20a319df36f6cbeb0a22cf]
link SDKInstance to WalletConnection--><g id="link_SDKInstance_WalletConnection"><path codeLine="18" d="M398.84,61.91 C407.65,76.28 418.19,93.46 427.02,107.86 " fill="none" id="SDKInstance-WalletConnection" style="stroke:#181818;stroke-width:1.0;"/><line style="stroke:#181818;stroke-width:1.0;" x1="425.4426" x2="431.2" y1="105.307" y2="114.68"/><ellipse cx="425.4426" cy="105.307" fill="none" rx="4" ry="4" style="stroke:#181818;stroke-width:1.0;"/><line style="stroke:#181818;stroke-width:1.0;" x1="432.5148" x2="425.6981" y1="109.1781" y2="113.3652"/><line style="stroke:#181818;stroke-width:1.0;" x1="393.2769" x2="400.0999" y1="60.4999" y2="56.3231"/><line style="stroke:#181818;stroke-width:1.0;" x1="394.8432" x2="401.6662" y1="63.0586" y2="58.8818"/><line style="stroke:#181818;stroke-width:1.0;" x1="398.7768" x2="394.6" y1="61.8231" y2="55"/></g><!--MD5=[7f27ce627c89f50f4061592592a5d9d9]
link SDKInstance to SyncConnection--><g id="link_SDKInstance_SyncConnection"><path codeLine="19" d="M442,58.18 C480.26,74.47 529.3,95.34 567.63,111.66 " fill="none" id="SDKInstance-SyncConnection" style="stroke:#181818;stroke-width:1.0;"/><line style="stroke:#181818;stroke-width:1.0;" x1="567.788" x2="577.498" y1="111.7294" y2="109.3385"/><line style="stroke:#181818;stroke-width:1.0;" x1="567.788" x2="572.802" y1="111.7294" y2="120.3815"/><line style="stroke:#181818;stroke-width:1.0;" x1="567.788" x2="575.15" y1="111.7294" y2="114.86"/><ellipse cx="562.2665" cy="109.3814" fill="none" rx="4" ry="4" style="stroke:#181818;stroke-width:1.0;"/><line style="stroke:#181818;stroke-width:1.0;" x1="436.6371" x2="439.7798" y1="60.2498" y2="52.8929"/><line style="stroke:#181818;stroke-width:1.0;" x1="439.3959" x2="442.5386" y1="61.4283" y2="54.0715"/><line style="stroke:#181818;stroke-width:1.0;" x1="441.8868" x2="434.53" y1="58.1427" y2="55"/></g><!--MD5=[30f3d02edd32bf78257f8180ecbdf8c0]
link SDKInstance to Contract--><g id="link_SDKInstance_Contract"><path codeLine="20" d="M368.08,62.95 C362.3,78.38 355.78,97.45 351.5,115 C334.03,186.65 324.02,271.98 319.18,322.57 " fill="none" id="SDKInstance-Contract" style="stroke:#181818;stroke-width:1.0;"/><line style="stroke:#181818;stroke-width:1.0;" x1="319.1623" x2="324.3941" y1="322.7145" y2="331.2367"/><line style="stroke:#181818;stroke-width:1.0;" x1="319.1623" x2="312.4459" y1="322.7145" y2="330.1233"/><line style="stroke:#181818;stroke-width:1.0;" x1="319.1623" x2="318.42" y1="322.7145" y2="330.68"/><ellipse cx="319.719" cy="316.7404" fill="none" rx="4" ry="4" style="stroke:#181818;stroke-width:1.0;"/><line style="stroke:#181818;stroke-width:1.0;" x1="365.849" x2="373.326" y1="57.566" y2="60.411"/><line style="stroke:#181818;stroke-width:1.0;" x1="364.7821" x2="372.2592" y1="60.3699" y2="63.2149"/><line style="stroke:#181818;stroke-width:1.0;" x1="368.165" x2="371.01" y1="62.727" y2="55.25"/></g><!--MD5=[2b166fb8cfd117942ada77d7edb61e03]
link Contract to PrivateOracle--><g id="link_Contract_PrivateOracle"><path codeLine="21" d="M288.49,410.07 C278.24,425.85 266.78,443.47 257.43,457.87 " fill="none" id="Contract-PrivateOracle" style="stroke:#181818;stroke-width:1.0;"/><line style="stroke:#181818;stroke-width:1.0;" x1="259.0934" x2="252.3848" y1="462.6448" y2="458.2866"/><line style="stroke:#181818;stroke-width:1.0;" x1="260.7277" x2="254.0191" y1="460.129" y2="455.7708"/><line style="stroke:#181818;stroke-width:1.0;" x1="257.9182" x2="253.56" y1="457.1113" y2="463.82"/><line style="stroke:#181818;stroke-width:1.0;" x1="286.8666" x2="293.5752" y1="405.2252" y2="409.5834"/><line style="stroke:#181818;stroke-width:1.0;" x1="285.2323" x2="291.9409" y1="407.741" y2="412.0992"/><line style="stroke:#181818;stroke-width:1.0;" x1="288.0418" x2="292.4" y1="410.7587" y2="404.05"/></g><!--MD5=[4aecdd5d1e5ffcd81f5be5ad54f040ab]
link Contract to PublicOracle--><g id="link_Contract_PublicOracle"><path codeLine="22" d="M342.86,410.07 C353.25,425.85 364.85,443.47 374.32,457.87 " fill="none" id="Contract-PublicOracle" style="stroke:#181818;stroke-width:1.0;"/><line style="stroke:#181818;stroke-width:1.0;" x1="379.3839" x2="372.7" y1="458.28" y2="462.6761"/><line style="stroke:#181818;stroke-width:1.0;" x1="377.7354" x2="371.0515" y1="455.7735" y2="460.1696"/><line style="stroke:#181818;stroke-width:1.0;" x1="373.844" x2="378.24" y1="457.1361" y2="463.82"/><line style="stroke:#181818;stroke-width:1.0;" x1="337.7593" x2="344.4406" y1="409.5906" y2="405.1907"/><line style="stroke:#181818;stroke-width:1.0;" x1="339.4093" x2="346.0906" y1="412.0962" y2="407.6962"/><line style="stroke:#181818;stroke-width:1.0;" x1="343.2999" x2="338.9" y1="410.7314" y2="404.05"/></g><!--MD5=[476f8682bf36f8669ddeb349113269d6]
link PrivateOracle to PrivateState--><g id="link_PrivateOracle_PrivateState"><path codeLine="23" d="M238.5,519.36 C238.5,533.52 238.5,550.35 238.5,564.53 " fill="none" id="PrivateOracle-PrivateState" style="stroke:#181818;stroke-width:1.0;"/><line style="stroke:#181818;stroke-width:1.0;" x1="242.5" x2="234.5" y1="567.68" y2="567.68"/><line style="stroke:#181818;stroke-width:1.0;" x1="242.5" x2="234.5" y1="564.68" y2="564.68"/><line style="stroke:#181818;stroke-width:1.0;" x1="238.5" x2="238.5" y1="563.68" y2="571.68"/><line style="stroke:#181818;stroke-width:1.0;" x1="234.5" x2="242.5" y1="516" y2="516"/><line style="stroke:#181818;stroke-width:1.0;" x1="234.5" x2="242.5" y1="519" y2="519"/><line style="stroke:#181818;stroke-width:1.0;" x1="238.5" x2="238.5" y1="520" y2="512"/></g><!--MD5=[3eadc78797e5101169215e2bd36d37c9]
link PublicOracle to PublicState--><g id="link_PublicOracle_PublicState"><path codeLine="24" d="M393.5,519.36 C393.5,533.52 393.5,550.35 393.5,564.53 " fill="none" id="PublicOracle-PublicState" style="stroke:#181818;stroke-width:1.0;"/><line style="stroke:#181818;stroke-width:1.0;" x1="397.5" x2="389.5" y1="567.68" y2="567.68"/><line style="stroke:#181818;stroke-width:1.0;" x1="397.5" x2="389.5" y1="564.68" y2="564.68"/><line style="stroke:#181818;stroke-width:1.0;" x1="393.5" x2="393.5" y1="563.68" y2="571.68"/><line style="stroke:#181818;stroke-width:1.0;" x1="389.5" x2="397.5" y1="516" y2="516"/><line style="stroke:#181818;stroke-width:1.0;" x1="389.5" x2="397.5" y1="519" y2="519"/><line style="stroke:#181818;stroke-width:1.0;" x1="393.5" x2="393.5" y1="520" y2="512"/></g><!--MD5=[63e299e223019bb68c0e6559f8a21b1e]
link Contract to PendingPrivateTranscript--><g id="link_Contract_PendingPrivateTranscript"><path codeLine="25" d="M405.13,407.26 C445.48,424.71 492.08,444.87 528.33,460.55 " fill="none" id="Contract-PendingPrivateTranscript" style="stroke:#181818;stroke-width:1.0;"/><line style="stroke:#181818;stroke-width:1.0;" x1="528.5709" x2="538.298" y1="460.6359" y2="458.3157"/><line style="stroke:#181818;stroke-width:1.0;" x1="528.5709" x2="533.522" y1="460.6359" y2="469.3243"/><line style="stroke:#181818;stroke-width:1.0;" x1="528.5709" x2="535.91" y1="460.6359" y2="463.82"/><ellipse cx="523.0667" cy="458.2479" fill="none" rx="4" ry="4" style="stroke:#181818;stroke-width:1.0;"/><line style="stroke:#181818;stroke-width:1.0;" x1="399.7961" x2="402.9681" y1="409.3081" y2="401.9639"/><line style="stroke:#181818;stroke-width:1.0;" x1="402.5502" x2="405.7222" y1="410.4977" y2="403.1534"/><line style="stroke:#181818;stroke-width:1.0;" x1="405.0543" x2="397.71" y1="407.222" y2="404.05"/></g><!--MD5=[2d0881970c9d99088203592021b6d01d]
link Contract to PrivateCallback--><g id="link_Contract_PrivateCallback"><path codeLine="26" d="M235.72,407.73 C200.72,424.94 160.54,444.7 129.04,460.18 " fill="none" id="Contract-PrivateCallback" style="stroke:#181818;stroke-width:1.0;"/><line style="stroke:#181818;stroke-width:1.0;" x1="131.51" x2="121.64" y1="458.9637" y2="463.82"/><ellipse cx="131.51" cy="458.9637" fill="none" rx="4" ry="4" style="stroke:#181818;stroke-width:1.0;"/><line style="stroke:#181818;stroke-width:1.0;" x1="126.995" x2="123.4631" y1="465.6431" y2="458.465"/><line style="stroke:#181818;stroke-width:1.0;" x1="237.8364" x2="241.3626" y1="402.2226" y2="409.4036"/><line style="stroke:#181818;stroke-width:1.0;" x1="235.1436" x2="238.6698" y1="403.545" y2="410.7259"/><line style="stroke:#181818;stroke-width:1.0;" x1="236.0091" x2="243.19" y1="407.5762" y2="404.05"/></g><!--MD5=[909b8b116de977a8bdb30c26f2287b82]
link RelevantTransaction to Contract--><g id="link_RelevantTransaction_Contract"><path codeLine="28" d="M560.67,273.98 C518.72,289.81 464.35,310.32 417.47,328.02 " fill="none" id="RelevantTransaction-Contract" style="stroke:#181818;stroke-width:1.0;"/><line style="stroke:#181818;stroke-width:1.0;" x1="414.8757" x2="412.0479" y1="333.2679" y2="325.7843"/><line style="stroke:#181818;stroke-width:1.0;" x1="417.682" x2="414.8542" y1="332.2075" y2="324.7239"/><line style="stroke:#181818;stroke-width:1.0;" x1="417.2036" x2="409.72" y1="328.1122" y2="330.94"/><line style="stroke:#181818;stroke-width:1.0;" x1="560.7264" x2="566.0892" y1="273.9578" y2="265.5173"/><line style="stroke:#181818;stroke-width:1.0;" x1="560.7264" x2="570.3308" y1="273.9578" y2="276.7427"/><line style="stroke:#181818;stroke-width:1.0;" x1="560.7264" x2="568.21" y1="273.9578" y2="271.13"/><line style="stroke:#181818;stroke-width:1.0;" x1="557.4417" x2="560.2694" y1="270.9229" y2="278.4065"/></g><!--MD5=[a23b628093cc43e9571f145eeaeebbbb]
link SyncConnection to RelevantTransaction--><g id="link_SyncConnection_RelevantTransaction"><path codeLine="29" d="M629.5,171.26 C629.5,184.89 629.5,200.85 629.5,214.51 " fill="none" id="SyncConnection-RelevantTransaction" style="stroke:#181818;stroke-width:1.0;"/><line style="stroke:#181818;stroke-width:1.0;" x1="629.5" x2="635.5" y1="214.68" y2="222.68"/><line style="stroke:#181818;stroke-width:1.0;" x1="629.5" x2="623.5" y1="214.68" y2="222.68"/><line style="stroke:#181818;stroke-width:1.0;" x1="629.5" x2="629.5" y1="214.68" y2="222.68"/><ellipse cx="629.5" cy="208.68" fill="none" rx="4" ry="4" style="stroke:#181818;stroke-width:1.0;"/><line style="stroke:#181818;stroke-width:1.0;" x1="625.5" x2="633.5" y1="167" y2="167"/><line style="stroke:#181818;stroke-width:1.0;" x1="625.5" x2="633.5" y1="170" y2="170"/><line style="stroke:#181818;stroke-width:1.0;" x1="629.5" x2="629.5" y1="171" y2="163"/></g><!--MD5=[a3ca8f9b4d91e8eef67ff83338dd038f]
link RelevantTransaction to PublicTranscript--><g id="link_RelevantTransaction_PublicTranscript"><path codeLine="31" d="M632.82,278.3 C634.77,296.04 637.22,318.37 639.17,336.13 " fill="none" id="RelevantTransaction-PublicTranscript" style="stroke:#181818;stroke-width:1.0;"/><line style="stroke:#181818;stroke-width:1.0;" x1="643.5048" x2="635.5535" y1="339.0135" y2="339.8952"/><line style="stroke:#181818;stroke-width:1.0;" x1="643.1742" x2="635.2229" y1="336.0318" y2="336.9135"/><line style="stroke:#181818;stroke-width:1.0;" x1="639.0883" x2="639.97" y1="335.4787" y2="343.43"/><line style="stroke:#181818;stroke-width:1.0;" x1="628.4962" x2="636.4493" y1="275.5393" y2="274.6738"/><line style="stroke:#181818;stroke-width:1.0;" x1="628.8208" x2="636.7739" y1="278.5217" y2="277.6561"/><line style="stroke:#181818;stroke-width:1.0;" x1="632.9055" x2="632.04" y1="279.083" y2="271.13"/></g><!--MD5=[1c805ea1c6ca08425653db62316c95b1]
@startuml
interface ClientSDK
entity SDKInstance {}
entity Contract <<Aggregate>> {
  transitionFunctions: Map<FunctionName, TransitionFunction>
}
entity WalletConnection {}
entity SyncConnection {}
entity RelevantTransaction {}
entity PublicTranscript {}
entity PrivateCallback {}
entity PrivateOracle {}
entity PrivateState {}
entity PublicOracle {}
entity PublicState {}
entity PendingPrivateTranscript {}

SDKInstance <|- - ClientSDK
SDKInstance ||- -o| WalletConnection
SDKInstance ||- -o{ SyncConnection
SDKInstance ||- -o{ Contract
Contract ||- -|| PrivateOracle
Contract ||- -|| PublicOracle
PrivateOracle ||- -|| PrivateState
PublicOracle ||- -|| PublicState
Contract ||- -o{ PendingPrivateTranscript
Contract ||- -o| PrivateCallback

RelevantTransaction }|- -|| Contract
SyncConnection ||- -o{ RelevantTransaction

RelevantTransaction ||- -|| PublicTranscript

@enduml

PlantUML version 1.2022.3(Tue Mar 29 16:10:57 UTC 2022)
(GPL source distribution)
Java Runtime: OpenJDK Runtime Environment
JVM: OpenJDK 64-Bit Server VM
Default Encoding: ANSI_X3.4-1968
Language: en
Country: US
--></g></svg>